<!--
  - Copyright (c) 2024. Devtron Inc.
  -
  - Licensed under the Apache License, Version 2.0 (the "License");
  - you may not use this file except in compliance with the License.
  - You may obtain a copy of the License at
  -
  -     http://www.apache.org/licenses/LICENSE-2.0
  -
  - Unless required by applicable law or agreed to in writing, software
  - distributed under the License is distributed on an "AS IS" BASIS,
  - WITHOUT WARRANTIES OR CONDITIONS OF ANY KIND, either express or implied.
  - See the License for the specific language governing permissions and
  - limitations under the License.
  -->

<svg width="250" height="200" viewBox="0 0 250 200" fill="none" xmlns="http://www.w3.org/2000/svg">
<g clip-path="url(#clip0_1724_3919)">
<path d="M192.5 76C187.7 76 182.5 77.6667 180.5 78.5V85C182.333 84.1667 186.5 82.5 188.5 82.5C190.5 82.5 200.667 86.1667 205.5 88L209 79.5C205.333 78.8333 197.3 76 192.5 76Z" fill="#FFBEB6"/>
<path d="M142 74C137.2 68.8 135.667 57.8333 135.5 53L121.5 65.5C122.833 72.1667 121.5 87.5 135.5 96C149 104.196 170.5 94.1667 183 88C182.833 84.5 182.4 76.1 182 70.5C171 74.5 149.5 82.125 142 74Z" fill="url(#paint0_linear_1724_3919)"/>
<path d="M174.508 168.245L181.347 150.817L194.668 151.282C196.443 152.975 200.573 157.293 202.964 158.844C205.954 160.782 211.976 163.439 214.355 165.356C216.258 166.89 217.899 168.945 218.481 169.781L174.508 168.245Z" fill="#1A2256"/>
<path d="M192 85C186 79 155.167 85.5 140.5 89.5L141.5 111C150.5 107.833 166.8 100.8 174 102C181.2 103.2 178.167 135.833 174 151.5H195.5C196.833 131.833 198 91 192 85Z" fill="#6295E4"/>
<path d="M81.0661 149.369C80.1405 142.829 78.0083 142.764 67.6284 142.446C66.4397 142.41 65.1429 142.37 63.7273 142.317C53.0653 141.975 46.1614 151.12 46.1614 151.12C46.1614 151.12 50.3657 151.641 54.5238 153.913C40.4242 159.61 35 171.544 35 171.544C35 171.544 48.5797 176.915 61.6695 171.5C60.3546 175.887 57.4726 179.116 57.4726 179.116C57.4726 179.116 69.1715 181.234 76.4333 173.16C77.4148 172.139 78.3201 171.209 79.1499 170.357C86.6007 162.709 87.9642 161.309 83.6661 155.581C82.9942 153.456 82.1431 151.322 81.0661 149.369Z" fill="url(#paint1_linear_1724_3919)"/>
<path d="M72.045 162.619C65.5619 164.533 60.5898 161.206 60.5898 161.206C60.5898 161.206 62.1918 156.059 67.7059 152.872C64.6133 151.551 62.7407 149.569 62.7407 149.569C62.7407 149.569 65.8031 145.639 71.5771 145.999C72.3871 146.022 73.1274 146.037 73.8044 146.051C79.6808 146.173 81.7091 145.821 82.1132 149.913C83.0882 151.422 83.2624 153.431 84.2925 154.811C86.9521 158.131 85.2794 159.256 81.0886 163.474C80.6114 163.955 80.0895 164.48 79.5229 165.059C75.6189 169.329 70.6864 168.629 70.6864 168.629C70.6864 168.629 70.5893 165.87 72.045 162.619Z" fill="url(#paint2_linear_1724_3919)"/>
<path d="M212.894 120.654L195.701 80.152C217.794 70.7745 247.101 82.2341 247.101 82.2341C247.101 82.2341 234.986 111.277 212.894 120.654Z" fill="url(#paint3_linear_1724_3919)"/>
<path d="M195.701 80.1524C195.701 80.1524 201.784 86.8045 207.059 99.2314C212.334 111.658 212.894 120.655 212.894 120.655L117.3 159.059L86.5591 163.417L77.1815 141.325L101.671 122.239L195.701 80.1524Z" fill="url(#paint4_linear_1724_3919)"/>
<path d="M121.539 148.569L121.188 150.782C119.569 160.998 112.801 169.66 103.28 173.701L83.606 182.052L86.5594 163.417L121.539 148.569Z" fill="url(#paint5_linear_1724_3919)"/>
<path d="M112.161 126.477L110.326 125.192C101.852 119.26 90.9202 118.111 81.3988 122.153L61.7252 130.504L77.1819 141.325L112.161 126.477Z" fill="url(#paint6_linear_1724_3919)"/>
<circle cx="159.193" cy="119.549" r="12.9508" transform="rotate(67 159.193 119.549)" fill="url(#paint7_linear_1724_3919)"/>
<circle cx="159.193" cy="119.549" r="10.3606" transform="rotate(67 159.193 119.549)" fill="url(#paint8_linear_1724_3919)"/>
<path d="M75.3708 152.414L70.8246 157.06L77.3245 157.016L97.4779 148.19L116.85 137.523L95.7196 144.048L75.3708 152.414Z" fill="#DB3E3D"/>
<path d="M137 44C136.818 45.4883 135.5 48 135.5 53.0002C133 56.0002 126.5 53.0002 127.5 50.0002C128.099 48.9721 128.501 47.0002 128.501 44.0002C130 41.4999 134.874 41.9496 137 44Z" fill="#F3A29D"/>
<path d="M152.11 178.962L164 164.5L176.525 169.059C177.69 171.217 180.284 176.599 182.079 178.814C184.323 181.582 189.23 185.969 190.9 188.528C192.236 190.575 193.161 193.036 193.456 194.01L152.11 178.962Z" fill="#1A2256"/>
<path d="M117.5 120.5C114.3 117.7 113.167 112.333 113 110L139.5 94C148.5 94 168.9 94.4 178.5 96C190.5 98 194.944 104 196.5 107.5C198.5 112 196.9 120.5 195.5 124C194.7 126 183.167 155.833 177.5 170.5L154 161C153.833 159.167 153.8 154.7 155 151.5C156.5 147.5 160 146 162 141.5C164 137 163 131 165.5 127C168 123 173 120 172 118C171.25 116.5 165.5 117.5 159 119C152.5 120.5 145 122.5 136.5 123.5C125 124.5 121.5 124 117.5 120.5Z" fill="url(#paint9_linear_1724_3919)"/>
<path fill-rule="evenodd" clip-rule="evenodd" d="M51.3317 104.998C49.8211 101.44 45.7117 99.7794 42.153 101.29L41.3716 99.449C45.947 97.5068 51.2306 99.6415 53.1727 104.217C55.1149 108.792 52.9802 114.076 48.4047 116.018L47.6233 114.177C51.1819 112.666 52.8423 108.557 51.3317 104.998Z" fill="url(#paint10_linear_1724_3919)"/>
<rect x="2.41211" y="99.6909" width="36" height="48" transform="rotate(-23 2.41211 99.6909)" fill="url(#paint11_linear_1724_3919)"/>
<rect x="29.0249" y="111.208" width="6" height="6" transform="rotate(-23 29.0249 111.208)" fill="#EFEFEF"/>
<path d="M45.9537 110.137C48.3042 108.262 50.6814 106.44 53.5 105.5C56.5 104.5 53.8945 108.053 53 108.5C52.6667 108.667 52.2222 108.778 51.7778 108.889C50.8889 109.111 50 109.333 50 110C50 111 50.5 111 54 111C57.5 111 66 103 69 99.5C71.4 96.7 68.3334 93.3333 66.5 92C64.8334 94.1667 61 98.6 59 99C57.7408 99.2518 55.5786 99.2538 53.4945 99.2556C51.4408 99.2575 49.463 99.2592 48.5 99.5C47.1555 99.8361 45.0456 102.381 43.562 104.503L45.9537 110.137Z" fill="#FFBEB6"/>
<circle cx="72" cy="48" r="40" fill="#A1C3FC"/>
<path d="M67.8301 8.21539C69.177 18.8064 68.115 29.6918 63.5 31.9996C57.5001 34.9995 55.4998 24.9999 48.5 29.9996C41.5 34.9995 53.4997 49.4995 42 55.9996C39.2721 57.5414 36.1253 57.4799 32.8955 56.4439C32.3105 53.7217 32 50.8966 32 47.9996C32.0002 27.3166 47.6985 10.3007 67.8301 8.21539Z" fill="#78A9EF"/>
<path d="M104.647 24.8823C109.278 31.4102 112 39.3875 112 48.0004C112 58.498 107.953 68.0483 101.338 75.184C100.851 74.6387 100.4 74.0782 100 73.5004C95.5003 67.0005 97.0001 60.0003 92.5003 51.5004C88.0003 43.0006 81.1469 44.4999 83.5003 34.5004C84.4417 30.5005 90.5005 26.5005 103.5 25.0004C103.885 24.9561 104.267 24.9171 104.647 24.8823Z" fill="#78A9EF"/>
<path d="M57.0005 78.5004C67.5003 75.113 73.5006 58.0004 83.0005 61.0004C89.7216 63.1235 87.8564 74.7205 83.9058 86.1976C80.1451 87.3685 76.1466 88.0003 72.0005 88.0004C58.3271 88.0004 46.2574 81.1381 39.0435 70.6713C44.126 75.7253 51.1882 80.3753 57.0005 78.5004Z" fill="#78A9EF"/>
<path d="M105.5 55.5L127.5 50C128 50.5 128.685 51.5924 130.5 52.5C132.315 53.4076 134.333 53.1667 135.5 53C135 56 134.5 63.5 136.5 69.5C138.5 75.5 143.667 83.6667 146 87C144 90.5 138.5 98.5 132.5 102.5C126.5 106.5 115.667 110.5 111 112C110 110.5 107.8 106.6 107 103C106 98.5 108 93 108 91C108 89 107 88.5 107 84.5C107 81.3 108 76.1667 108.5 74C105 78 97 87.4 93 93C89 98.6 83.6667 109.333 81.5 114L55 93C55.5 92 57.6 89 62 85C67.5 80 72.5 79.5 75.5 77C78.5 74.5 80 68 85 64.5C90 61 101.5 56.5 105.5 55.5Z" fill="url(#paint12_linear_1724_3919)"/>
<path d="M139.561 43.3897C142.092 41.4126 142.53 38.0185 142.585 36.2776C142.585 36.2776 145.382 34.8301 145.146 34.1656C144.91 33.5011 140.849 28.8147 139.276 27.2133C137.247 25.1478 132.731 23.5034 129.24 24.6752C125.429 25.9549 120.419 30.788 120.855 35.6824C121.334 41.0677 127.085 44.0417 129.864 44.7007C132.643 45.3597 136.398 45.8612 139.561 43.3897Z" fill="#FFBEB6"/>
<path d="M140.202 27.3597C144.491 24.2434 144.949 17.3573 144.642 14.3038C136.048 18.6361 117.389 28.2063 111.502 31.8286C116.524 43.2518 125.836 45.1695 129.864 44.7004C129.832 43.9046 129.398 42.2543 127.917 42.0197C126.065 41.7265 122.656 39.2887 123.485 37.0478C124.315 34.8069 126.798 37.0981 128.407 35.9295C129.694 34.9946 130.504 31.6752 130.748 30.1324C132.112 30.5066 135.913 30.476 140.202 27.3597Z" fill="#23286B"/>
<path d="M136.032 33.9701C135.363 32.2263 135.962 30.349 137.413 29.792C138.541 29.3589 139.819 29.8617 140.647 30.9247C140.873 30.5984 141.107 30.3303 141.349 30.1211L141.522 29.9808C141.742 29.8179 141.938 29.6988 142.116 29.6263C141.637 28.2403 142.075 26.7932 143.182 26.3677C144.321 25.9315 145.658 26.7722 146.204 28.1933C146.75 29.6151 146.318 31.1346 145.179 31.5716C144.166 31.9604 142.995 31.3377 142.365 30.1937C142.255 30.2353 142.093 30.3279 141.891 30.4777C141.604 30.692 141.317 31.0185 141.032 31.4591L141.014 31.4889C141.096 31.6426 141.17 31.804 141.235 31.9725C141.905 33.7162 141.306 35.5936 139.854 36.1512C138.402 36.7089 136.702 35.7138 136.032 33.9701ZM143.404 26.9468C142.627 27.2445 142.301 28.3921 142.735 29.5247C143.171 30.6574 144.18 31.2916 144.957 30.9932C145.734 30.6948 146.06 29.5479 145.626 28.4153C145.192 27.2827 144.181 26.6484 143.404 26.9468ZM137.635 30.3704C136.534 30.7933 136.054 32.2982 136.611 33.7481C137.167 35.1972 138.53 35.9957 139.633 35.5736C140.733 35.1499 141.213 33.6436 140.657 32.1945C140.101 30.7454 138.736 29.9476 137.634 30.3696L137.635 30.3704Z" fill="#F7453E"/>
<path fill-rule="evenodd" clip-rule="evenodd" d="M53.8351 106.75C54.0478 108.675 53.6257 110.597 52.6813 112.235C51.5002 112 51.3303 111.753 50.7885 111.5C51.6135 110.204 52.0035 108.653 51.859 107.091C52.5002 107 53.0002 107.091 53.8351 106.75Z" fill="url(#paint13_linear_1724_3919)"/>
</g>
<defs>
<linearGradient id="paint0_linear_1724_3919" x1="129" y1="79" x2="180.286" y2="100.332" gradientUnits="userSpaceOnUse">
<stop stop-color="#1A1F59"/>
<stop offset="0.747799" stop-color="#23286B"/>
</linearGradient>
<linearGradient id="paint1_linear_1724_3919" x1="82.0002" y1="152" x2="35.0002" y2="171.5" gradientUnits="userSpaceOnUse">
<stop stop-color="#FF6827"/>
<stop offset="0.419402" stop-color="#FF9D27"/>
</linearGradient>
<linearGradient id="paint2_linear_1724_3919" x1="83.5" y1="151.5" x2="60.5" y2="162" gradientUnits="userSpaceOnUse">
<stop stop-color="#FFE7B7"/>
<stop offset="1" stop-color="#FDF516"/>
</linearGradient>
<linearGradient id="paint3_linear_1724_3919" x1="247.101" y1="82.2341" x2="204.297" y2="100.403" gradientUnits="userSpaceOnUse">
<stop offset="0.447558" stop-color="#DADBDC"/>
<stop offset="0.924927" stop-color="#E4E4E5"/>
</linearGradient>
<linearGradient id="paint4_linear_1724_3919" x1="207.059" y1="99.2314" x2="81.8703" y2="152.371" gradientUnits="userSpaceOnUse">
<stop offset="0.663941" stop-color="#DADBDC"/>
<stop offset="1" stop-color="#E0E1E1"/>
</linearGradient>
<linearGradient id="paint5_linear_1724_3919" x1="110" y1="174.5" x2="117.07" y2="161.743" gradientUnits="userSpaceOnUse">
<stop stop-color="#E74846"/>
<stop offset="1" stop-color="#D03231"/>
</linearGradient>
<linearGradient id="paint6_linear_1724_3919" x1="88.8105" y1="121.044" x2="98.8015" y2="144.764" gradientUnits="userSpaceOnUse">
<stop stop-color="#E74846"/>
<stop offset="1" stop-color="#D03231"/>
</linearGradient>
<linearGradient id="paint7_linear_1724_3919" x1="146.242" y1="106.599" x2="158.394" y2="137.847" gradientUnits="userSpaceOnUse">
<stop stop-color="#E8B73F"/>
<stop offset="1" stop-color="#CF9F36"/>
</linearGradient>
<linearGradient id="paint8_linear_1724_3919" x1="159.193" y1="109.189" x2="159.193" y2="129.91" gradientUnits="userSpaceOnUse">
<stop stop-color="#F3F3F3" stop-opacity="0"/>
<stop offset="1" stop-color="#F3F3F3"/>
</linearGradient>
<linearGradient id="paint9_linear_1724_3919" x1="174" y1="87.5" x2="124" y2="133.5" gradientUnits="userSpaceOnUse">
<stop offset="0.290891" stop-color="#89B3F4"/>
<stop offset="1" stop-color="#4F86DB"/>
</linearGradient>
<linearGradient id="paint10_linear_1724_3919" x1="45.5139" y1="97.6907" x2="52.547" y2="114.26" gradientUnits="userSpaceOnUse">
<stop stop-color="#F6F6F6"/>
<stop offset="0.394668" stop-color="#D7D8D9"/>
</linearGradient>
<linearGradient id="paint11_linear_1724_3919" x1="20.4121" y1="99.6909" x2="20.4121" y2="147.691" gradientUnits="userSpaceOnUse">
<stop stop-color="#EDEDED"/>
<stop offset="0.40059" stop-color="#D7D8D9"/>
</linearGradient>
<linearGradient id="paint12_linear_1724_3919" x1="78.5" y1="114" x2="148.317" y2="60.9451" gradientUnits="userSpaceOnUse">
<stop stop-color="#1A1F59"/>
<stop offset="0.682286" stop-color="#23286B"/>
</linearGradient>
<linearGradient id="paint13_linear_1724_3919" x1="45.5125" y1="97.6916" x2="52.5456" y2="114.261" gradientUnits="userSpaceOnUse">
<stop stop-color="#F6F6F6"/>
<stop offset="0.394668" stop-color="#D7D8D9"/>
</linearGradient>
<clipPath id="clip0_1724_3919">
<rect width="250" height="200" fill="white"/>
</clipPath>
</defs>
</svg>
