<svg viewBox="0 0 336 200" fill="none" xmlns="http://www.w3.org/2000/svg">
<path d="M400 0H399.345C399.345 220.552 220.552 399.345 0 399.345V400C220.914 400 400 220.914 400 0Z" fill="url(#paint0_linear_6933_17139)"/>
<path d="M0 392.138C216.572 392.138 392.138 216.572 392.138 0H391.482C391.482 216.21 216.21 391.482 0 391.482V392.138Z" fill="url(#paint1_linear_6933_17139)"/>
<path d="M0 384.275C212.229 384.275 384.275 212.229 384.275 0H383.62C383.62 211.867 211.867 383.62 0 383.62V384.275Z" fill="url(#paint2_linear_6933_17139)"/>
<path d="M0 376.413C207.887 376.413 376.413 207.887 376.413 0H375.758C375.758 207.525 207.525 375.758 0 375.758V376.413Z" fill="url(#paint3_linear_6933_17139)"/>
<path d="M0 368.55C203.545 368.55 368.55 203.545 368.55 0H367.895C367.895 203.183 203.183 367.895 0 367.895V368.55Z" fill="url(#paint4_linear_6933_17139)"/>
<path d="M0 360.688C199.202 360.688 360.688 199.202 360.688 0H360.033C360.033 198.841 198.841 360.033 0 360.033V360.688Z" fill="url(#paint5_linear_6933_17139)"/>
<path d="M0 352.826C194.86 352.826 352.826 194.86 352.826 0H352.17C352.17 194.498 194.498 352.17 0 352.17V352.826Z" fill="url(#paint6_linear_6933_17139)"/>
<path d="M0 344.963C190.518 344.963 344.963 190.518 344.963 0H344.308C344.308 190.156 190.156 344.308 0 344.308V344.963Z" fill="url(#paint7_linear_6933_17139)"/>
<path d="M0 337.101C186.176 337.101 337.101 186.176 337.101 0H336.446C336.446 185.814 185.814 336.446 0 336.446V337.101Z" fill="url(#paint8_linear_6933_17139)"/>
<path d="M0 329.238C181.833 329.238 329.238 181.833 329.238 0H328.583C328.583 181.471 181.471 328.583 0 328.583V329.238Z" fill="url(#paint9_linear_6933_17139)"/>
<path d="M0 321.376C177.491 321.376 321.376 177.491 321.376 0H320.721C320.721 177.129 177.129 320.721 0 320.721V321.376Z" fill="url(#paint10_linear_6933_17139)"/>
<path d="M0 313.514C173.149 313.514 313.514 173.149 313.514 0H312.858C312.858 172.787 172.787 312.858 0 312.858V313.514Z" fill="url(#paint11_linear_6933_17139)"/>
<path d="M0 305.651C168.806 305.651 305.651 168.806 305.651 0H304.996C304.996 168.445 168.445 304.996 0 304.996V305.651Z" fill="url(#paint12_linear_6933_17139)"/>
<path d="M0 297.789C164.464 297.789 297.789 164.464 297.789 0H297.133C297.133 164.102 164.102 297.133 0 297.133V297.789Z" fill="url(#paint13_linear_6933_17139)"/>
<path d="M0 289.926C160.122 289.926 289.926 160.122 289.926 0H289.271C289.271 159.76 159.76 289.271 0 289.271V289.926Z" fill="url(#paint14_linear_6933_17139)"/>
<path d="M0 282.064C155.78 282.064 282.064 155.78 282.064 0H281.409C281.409 155.418 155.418 281.409 0 281.409V282.064Z" fill="url(#paint15_linear_6933_17139)"/>
<path d="M0 274.201C151.437 274.201 274.201 151.437 274.201 0H273.546C273.546 151.075 151.075 273.546 0 273.546V274.201Z" fill="url(#paint16_linear_6933_17139)"/>
<path d="M0 266.339C147.095 266.339 266.339 147.095 266.339 0H265.684C265.684 146.733 146.733 265.684 0 265.684V266.339Z" fill="url(#paint17_linear_6933_17139)"/>
<path d="M0 258.477C142.753 258.477 258.477 142.753 258.477 0H257.821C257.821 142.391 142.391 257.821 0 257.821V258.477Z" fill="url(#paint18_linear_6933_17139)"/>
<path d="M0 250.614C138.41 250.614 250.614 138.41 250.614 0H249.959C249.959 138.049 138.049 249.959 0 249.959V250.614Z" fill="url(#paint19_linear_6933_17139)"/>
<path d="M0 242.752C134.068 242.752 242.752 134.068 242.752 0H242.097C242.097 133.706 133.706 242.097 0 242.097V242.752Z" fill="url(#paint20_linear_6933_17139)"/>
<path d="M0 234.889C129.726 234.889 234.889 129.726 234.889 0H234.234C234.234 129.364 129.364 234.234 0 234.234V234.889Z" fill="url(#paint21_linear_6933_17139)"/>
<path d="M0 227.027C125.384 227.027 227.027 125.384 227.027 0H226.372C226.372 125.022 125.022 226.372 0 226.372V227.027Z" fill="url(#paint22_linear_6933_17139)"/>
<path d="M0 219.165C121.041 219.165 219.165 121.041 219.165 0H218.509C218.509 120.679 120.679 218.509 0 218.509V219.165Z" fill="url(#paint23_linear_6933_17139)"/>
<path d="M0 211.302C116.699 211.302 211.302 116.699 211.302 0H210.647C210.647 116.337 116.337 210.647 0 210.647V211.302Z" fill="url(#paint24_linear_6933_17139)"/>
<path d="M0 203.44C112.357 203.44 203.44 112.357 203.44 0H202.785C202.785 111.995 111.995 202.785 0 202.785V203.44Z" fill="url(#paint25_linear_6933_17139)"/>
<path d="M0 195.577C108.014 195.577 195.577 108.014 195.577 0H194.922C194.922 107.653 107.653 194.922 0 194.922V195.577Z" fill="url(#paint26_linear_6933_17139)"/>
<path d="M0 187.715C103.672 187.715 187.715 103.672 187.715 0H187.06C187.06 103.31 103.31 187.06 0 187.06V187.715Z" fill="url(#paint27_linear_6933_17139)"/>
<path d="M0 179.853C99.3298 179.853 179.853 99.3298 179.853 0H179.197C179.197 98.968 98.968 179.197 0 179.197V179.853Z" fill="url(#paint28_linear_6933_17139)"/>
<path d="M0 171.99C94.9875 171.99 171.99 94.9875 171.99 0H171.335C171.335 94.6257 94.6257 171.335 0 171.335V171.99Z" fill="url(#paint29_linear_6933_17139)"/>
<path d="M0 164.128C90.6452 164.128 164.128 90.6452 164.128 0H163.473C163.473 90.2834 90.2834 163.473 0 163.473V164.128Z" fill="url(#paint30_linear_6933_17139)"/>
<path d="M0 156.265C86.303 156.265 156.265 86.303 156.265 0H155.61C155.61 85.9411 85.9411 155.61 0 155.61V156.265Z" fill="url(#paint31_linear_6933_17139)"/>
<path d="M0 148.403C81.9607 148.403 148.403 81.9607 148.403 0H147.748C147.748 81.5988 81.5988 147.748 0 147.748V148.403Z" fill="url(#paint32_linear_6933_17139)"/>
<path d="M0 140.541C77.6184 140.541 140.541 77.6184 140.541 0H139.885C139.885 77.2565 77.2565 139.885 0 139.885V140.541Z" fill="url(#paint33_linear_6933_17139)"/>
<path d="M0 132.678C73.2761 132.678 132.678 73.2761 132.678 0H132.023C132.023 72.9143 72.9143 132.023 0 132.023V132.678Z" fill="url(#paint34_linear_6933_17139)"/>
<path d="M0 124.816C68.9338 124.816 124.816 68.9338 124.816 0H124.161C124.161 68.572 68.572 124.161 0 124.161V124.816Z" fill="url(#paint35_linear_6933_17139)"/>
<path d="M0 116.953C64.5915 116.953 116.953 64.5915 116.953 0H116.298C116.298 64.2297 64.2297 116.298 0 116.298V116.953Z" fill="url(#paint36_linear_6933_17139)"/>
<path d="M0 109.091C60.2493 109.091 109.091 60.2493 109.091 0H108.436C108.436 59.8874 59.8874 108.436 0 108.436V109.091Z" fill="url(#paint37_linear_6933_17139)"/>
<path d="M0 101.229C55.907 101.229 101.229 55.907 101.229 0H100.573C100.573 55.5451 55.5451 100.573 0 100.573V101.229Z" fill="url(#paint38_linear_6933_17139)"/>
<path d="M0 93.3661C51.5647 93.3661 93.3661 51.5647 93.3661 0H92.7109C92.7109 51.2028 51.2028 92.7109 0 92.7109V93.3661Z" fill="url(#paint39_linear_6933_17139)"/>
<path d="M0 85.5037C47.2224 85.5037 85.5037 47.2224 85.5037 0H84.8485C84.8485 46.8605 46.8605 84.8485 0 84.8485V85.5037Z" fill="url(#paint40_linear_6933_17139)"/>
<path d="M0 77.6413C42.8801 77.6413 77.6413 42.8801 77.6413 0H76.9861C76.9861 42.5182 42.5182 76.9861 0 76.9861V77.6413Z" fill="url(#paint41_linear_6933_17139)"/>
<path d="M0 69.7789C38.5378 69.7789 69.7789 38.5378 69.7789 0H69.1237C69.1237 38.176 38.176 69.1237 0 69.1237V69.7789Z" fill="url(#paint42_linear_6933_17139)"/>
<path d="M0 61.9165C34.1955 61.9165 61.9165 34.1955 61.9165 0H61.2613C61.2613 33.8337 33.8337 61.2613 0 61.2613V61.9165Z" fill="url(#paint43_linear_6933_17139)"/>
<path d="M0 54.0541C29.8532 54.0541 54.0541 29.8532 54.0541 0H53.3989C53.3989 29.4914 29.4914 53.3989 0 53.3989V54.0541Z" fill="url(#paint44_linear_6933_17139)"/>
<path d="M0 46.1916C25.511 46.1916 46.1916 25.511 46.1916 0H45.5364C45.5364 25.1491 25.1491 45.5364 0 45.5364V46.1916Z" fill="url(#paint45_linear_6933_17139)"/>
<path d="M0 38.3292C21.1687 38.3292 38.3292 21.1687 38.3292 0H37.674C37.674 20.8068 20.8068 37.674 0 37.674V38.3292Z" fill="url(#paint46_linear_6933_17139)"/>
<path d="M0 30.4668C16.8264 30.4668 30.4668 16.8264 30.4668 0H29.8116C29.8116 16.4645 16.4645 29.8116 0 29.8116V30.4668Z" fill="url(#paint47_linear_6933_17139)"/>
<path d="M0 22.6044C12.4841 22.6044 22.6044 12.4841 22.6044 0H21.9492C21.9492 12.1222 12.1222 21.9492 0 21.9492V22.6044Z" fill="url(#paint48_linear_6933_17139)"/>
<path d="M0 14.742C8.14178 14.742 14.742 8.14178 14.742 0H14.0868C14.0868 7.77995 7.77995 14.0868 0 14.0868V14.742Z" fill="url(#paint49_linear_6933_17139)"/>
<path d="M0 6.87961C3.79952 6.87961 6.87961 3.79952 6.87961 0H6.22441C6.22441 3.43764 3.43764 6.22441 0 6.22441V6.87961Z" fill="url(#paint50_linear_6933_17139)"/>
<defs>
<linearGradient id="paint0_linear_6933_17139" x1="0" y1="0" x2="400" y2="0" gradientUnits="userSpaceOnUse">
<stop stop-color="#3C3F47"/>
<stop offset="1" stop-color="#1E1F28"/>
</linearGradient>
<linearGradient id="paint1_linear_6933_17139" x1="0" y1="0" x2="400" y2="0" gradientUnits="userSpaceOnUse">
<stop stop-color="#3C3F47"/>
<stop offset="1" stop-color="#1E1F28"/>
</linearGradient>
<linearGradient id="paint2_linear_6933_17139" x1="0" y1="0" x2="400" y2="0" gradientUnits="userSpaceOnUse">
<stop stop-color="#3C3F47"/>
<stop offset="1" stop-color="#1E1F28"/>
</linearGradient>
<linearGradient id="paint3_linear_6933_17139" x1="0" y1="0" x2="400" y2="0" gradientUnits="userSpaceOnUse">
<stop stop-color="#3C3F47"/>
<stop offset="1" stop-color="#1E1F28"/>
</linearGradient>
<linearGradient id="paint4_linear_6933_17139" x1="0" y1="0" x2="400" y2="0" gradientUnits="userSpaceOnUse">
<stop stop-color="#3C3F47"/>
<stop offset="1" stop-color="#1E1F28"/>
</linearGradient>
<linearGradient id="paint5_linear_6933_17139" x1="0" y1="0" x2="400" y2="0" gradientUnits="userSpaceOnUse">
<stop stop-color="#3C3F47"/>
<stop offset="1" stop-color="#1E1F28"/>
</linearGradient>
<linearGradient id="paint6_linear_6933_17139" x1="0" y1="0" x2="400" y2="0" gradientUnits="userSpaceOnUse">
<stop stop-color="#3C3F47"/>
<stop offset="1" stop-color="#1E1F28"/>
</linearGradient>
<linearGradient id="paint7_linear_6933_17139" x1="0" y1="0" x2="400" y2="0" gradientUnits="userSpaceOnUse">
<stop stop-color="#3C3F47"/>
<stop offset="1" stop-color="#1E1F28"/>
</linearGradient>
<linearGradient id="paint8_linear_6933_17139" x1="0" y1="0" x2="400" y2="0" gradientUnits="userSpaceOnUse">
<stop stop-color="#3C3F47"/>
<stop offset="1" stop-color="#1E1F28"/>
</linearGradient>
<linearGradient id="paint9_linear_6933_17139" x1="0" y1="0" x2="400" y2="0" gradientUnits="userSpaceOnUse">
<stop stop-color="#3C3F47"/>
<stop offset="1" stop-color="#1E1F28"/>
</linearGradient>
<linearGradient id="paint10_linear_6933_17139" x1="0" y1="0" x2="400" y2="0" gradientUnits="userSpaceOnUse">
<stop stop-color="#3C3F47"/>
<stop offset="1" stop-color="#1E1F28"/>
</linearGradient>
<linearGradient id="paint11_linear_6933_17139" x1="0" y1="0" x2="400" y2="0" gradientUnits="userSpaceOnUse">
<stop stop-color="#3C3F47"/>
<stop offset="1" stop-color="#1E1F28"/>
</linearGradient>
<linearGradient id="paint12_linear_6933_17139" x1="0" y1="0" x2="400" y2="0" gradientUnits="userSpaceOnUse">
<stop stop-color="#3C3F47"/>
<stop offset="1" stop-color="#1E1F28"/>
</linearGradient>
<linearGradient id="paint13_linear_6933_17139" x1="0" y1="0" x2="400" y2="0" gradientUnits="userSpaceOnUse">
<stop stop-color="#3C3F47"/>
<stop offset="1" stop-color="#1E1F28"/>
</linearGradient>
<linearGradient id="paint14_linear_6933_17139" x1="0" y1="0" x2="400" y2="0" gradientUnits="userSpaceOnUse">
<stop stop-color="#3C3F47"/>
<stop offset="1" stop-color="#1E1F28"/>
</linearGradient>
<linearGradient id="paint15_linear_6933_17139" x1="0" y1="0" x2="400" y2="0" gradientUnits="userSpaceOnUse">
<stop stop-color="#3C3F47"/>
<stop offset="1" stop-color="#1E1F28"/>
</linearGradient>
<linearGradient id="paint16_linear_6933_17139" x1="0" y1="0" x2="400" y2="0" gradientUnits="userSpaceOnUse">
<stop stop-color="#3C3F47"/>
<stop offset="1" stop-color="#1E1F28"/>
</linearGradient>
<linearGradient id="paint17_linear_6933_17139" x1="0" y1="0" x2="400" y2="0" gradientUnits="userSpaceOnUse">
<stop stop-color="#3C3F47"/>
<stop offset="1" stop-color="#1E1F28"/>
</linearGradient>
<linearGradient id="paint18_linear_6933_17139" x1="0" y1="0" x2="400" y2="0" gradientUnits="userSpaceOnUse">
<stop stop-color="#3C3F47"/>
<stop offset="1" stop-color="#1E1F28"/>
</linearGradient>
<linearGradient id="paint19_linear_6933_17139" x1="0" y1="0" x2="400" y2="0" gradientUnits="userSpaceOnUse">
<stop stop-color="#3C3F47"/>
<stop offset="1" stop-color="#1E1F28"/>
</linearGradient>
<linearGradient id="paint20_linear_6933_17139" x1="0" y1="0" x2="400" y2="0" gradientUnits="userSpaceOnUse">
<stop stop-color="#3C3F47"/>
<stop offset="1" stop-color="#1E1F28"/>
</linearGradient>
<linearGradient id="paint21_linear_6933_17139" x1="0" y1="0" x2="400" y2="0" gradientUnits="userSpaceOnUse">
<stop stop-color="#3C3F47"/>
<stop offset="1" stop-color="#1E1F28"/>
</linearGradient>
<linearGradient id="paint22_linear_6933_17139" x1="0" y1="0" x2="400" y2="0" gradientUnits="userSpaceOnUse">
<stop stop-color="#3C3F47"/>
<stop offset="1" stop-color="#1E1F28"/>
</linearGradient>
<linearGradient id="paint23_linear_6933_17139" x1="0" y1="0" x2="400" y2="0" gradientUnits="userSpaceOnUse">
<stop stop-color="#3C3F47"/>
<stop offset="1" stop-color="#1E1F28"/>
</linearGradient>
<linearGradient id="paint24_linear_6933_17139" x1="0" y1="0" x2="400" y2="0" gradientUnits="userSpaceOnUse">
<stop stop-color="#3C3F47"/>
<stop offset="1" stop-color="#1E1F28"/>
</linearGradient>
<linearGradient id="paint25_linear_6933_17139" x1="0" y1="0" x2="400" y2="0" gradientUnits="userSpaceOnUse">
<stop stop-color="#3C3F47"/>
<stop offset="1" stop-color="#1E1F28"/>
</linearGradient>
<linearGradient id="paint26_linear_6933_17139" x1="0" y1="0" x2="400" y2="0" gradientUnits="userSpaceOnUse">
<stop stop-color="#3C3F47"/>
<stop offset="1" stop-color="#1E1F28"/>
</linearGradient>
<linearGradient id="paint27_linear_6933_17139" x1="0" y1="0" x2="400" y2="0" gradientUnits="userSpaceOnUse">
<stop stop-color="#3C3F47"/>
<stop offset="1" stop-color="#1E1F28"/>
</linearGradient>
<linearGradient id="paint28_linear_6933_17139" x1="0" y1="0" x2="400" y2="0" gradientUnits="userSpaceOnUse">
<stop stop-color="#3C3F47"/>
<stop offset="1" stop-color="#1E1F28"/>
</linearGradient>
<linearGradient id="paint29_linear_6933_17139" x1="0" y1="0" x2="400" y2="0" gradientUnits="userSpaceOnUse">
<stop stop-color="#3C3F47"/>
<stop offset="1" stop-color="#1E1F28"/>
</linearGradient>
<linearGradient id="paint30_linear_6933_17139" x1="0" y1="0" x2="400" y2="0" gradientUnits="userSpaceOnUse">
<stop stop-color="#3C3F47"/>
<stop offset="1" stop-color="#1E1F28"/>
</linearGradient>
<linearGradient id="paint31_linear_6933_17139" x1="0" y1="0" x2="400" y2="0" gradientUnits="userSpaceOnUse">
<stop stop-color="#3C3F47"/>
<stop offset="1" stop-color="#1E1F28"/>
</linearGradient>
<linearGradient id="paint32_linear_6933_17139" x1="0" y1="0" x2="400" y2="0" gradientUnits="userSpaceOnUse">
<stop stop-color="#3C3F47"/>
<stop offset="1" stop-color="#1E1F28"/>
</linearGradient>
<linearGradient id="paint33_linear_6933_17139" x1="0" y1="0" x2="400" y2="0" gradientUnits="userSpaceOnUse">
<stop stop-color="#3C3F47"/>
<stop offset="1" stop-color="#1E1F28"/>
</linearGradient>
<linearGradient id="paint34_linear_6933_17139" x1="0" y1="0" x2="400" y2="0" gradientUnits="userSpaceOnUse">
<stop stop-color="#3C3F47"/>
<stop offset="1" stop-color="#1E1F28"/>
</linearGradient>
<linearGradient id="paint35_linear_6933_17139" x1="0" y1="0" x2="400" y2="0" gradientUnits="userSpaceOnUse">
<stop stop-color="#3C3F47"/>
<stop offset="1" stop-color="#1E1F28"/>
</linearGradient>
<linearGradient id="paint36_linear_6933_17139" x1="0" y1="0" x2="400" y2="0" gradientUnits="userSpaceOnUse">
<stop stop-color="#3C3F47"/>
<stop offset="1" stop-color="#1E1F28"/>
</linearGradient>
<linearGradient id="paint37_linear_6933_17139" x1="0" y1="0" x2="400" y2="0" gradientUnits="userSpaceOnUse">
<stop stop-color="#3C3F47"/>
<stop offset="1" stop-color="#1E1F28"/>
</linearGradient>
<linearGradient id="paint38_linear_6933_17139" x1="0" y1="0" x2="400" y2="0" gradientUnits="userSpaceOnUse">
<stop stop-color="#3C3F47"/>
<stop offset="1" stop-color="#1E1F28"/>
</linearGradient>
<linearGradient id="paint39_linear_6933_17139" x1="0" y1="0" x2="400" y2="0" gradientUnits="userSpaceOnUse">
<stop stop-color="#3C3F47"/>
<stop offset="1" stop-color="#1E1F28"/>
</linearGradient>
<linearGradient id="paint40_linear_6933_17139" x1="0" y1="0" x2="400" y2="0" gradientUnits="userSpaceOnUse">
<stop stop-color="#3C3F47"/>
<stop offset="1" stop-color="#1E1F28"/>
</linearGradient>
<linearGradient id="paint41_linear_6933_17139" x1="0" y1="0" x2="400" y2="0" gradientUnits="userSpaceOnUse">
<stop stop-color="#3C3F47"/>
<stop offset="1" stop-color="#1E1F28"/>
</linearGradient>
<linearGradient id="paint42_linear_6933_17139" x1="0" y1="0" x2="400" y2="0" gradientUnits="userSpaceOnUse">
<stop stop-color="#3C3F47"/>
<stop offset="1" stop-color="#1E1F28"/>
</linearGradient>
<linearGradient id="paint43_linear_6933_17139" x1="0" y1="0" x2="400" y2="0" gradientUnits="userSpaceOnUse">
<stop stop-color="#3C3F47"/>
<stop offset="1" stop-color="#1E1F28"/>
</linearGradient>
<linearGradient id="paint44_linear_6933_17139" x1="0" y1="0" x2="400" y2="0" gradientUnits="userSpaceOnUse">
<stop stop-color="#3C3F47"/>
<stop offset="1" stop-color="#1E1F28"/>
</linearGradient>
<linearGradient id="paint45_linear_6933_17139" x1="0" y1="0" x2="400" y2="0" gradientUnits="userSpaceOnUse">
<stop stop-color="#3C3F47"/>
<stop offset="1" stop-color="#1E1F28"/>
</linearGradient>
<linearGradient id="paint46_linear_6933_17139" x1="0" y1="0" x2="400" y2="0" gradientUnits="userSpaceOnUse">
<stop stop-color="#3C3F47"/>
<stop offset="1" stop-color="#1E1F28"/>
</linearGradient>
<linearGradient id="paint47_linear_6933_17139" x1="0" y1="0" x2="400" y2="0" gradientUnits="userSpaceOnUse">
<stop stop-color="#3C3F47"/>
<stop offset="1" stop-color="#1E1F28"/>
</linearGradient>
<linearGradient id="paint48_linear_6933_17139" x1="0" y1="0" x2="400" y2="0" gradientUnits="userSpaceOnUse">
<stop stop-color="#3C3F47"/>
<stop offset="1" stop-color="#1E1F28"/>
</linearGradient>
<linearGradient id="paint49_linear_6933_17139" x1="0" y1="0" x2="400" y2="0" gradientUnits="userSpaceOnUse">
<stop stop-color="#3C3F47"/>
<stop offset="1" stop-color="#1E1F28"/>
</linearGradient>
<linearGradient id="paint50_linear_6933_17139" x1="0" y1="0" x2="400" y2="0" gradientUnits="userSpaceOnUse">
<stop stop-color="#3C3F47"/>
<stop offset="1" stop-color="#1E1F28"/>
</linearGradient>
</defs>
</svg>