<svg width="304" height="139" viewBox="0 0 304 139" fill="none" xmlns="http://www.w3.org/2000/svg">
<path d="M133.791 90.1525L113.582 110.305C91.2585 132.565 55.0655 132.565 32.7424 110.305C10.4192 88.0452 10.4192 51.9548 32.7424 29.6949C55.0655 7.43503 91.2585 7.43503 113.582 29.6949L154.001 70L194.418 110.305C216.742 132.565 252.935 132.565 275.258 110.305C297.581 88.0452 297.581 51.9548 275.258 29.6949C252.935 7.43503 216.742 7.43503 194.418 29.6949L174.209 49.8475" stroke="var(--bg-primary)" stroke-width="24"/>
<g clip-path="url(#clip0_4217_4596)">
<rect x="97.6667" y="59.4449" width="8.88889" height="8.88889" fill="#023E8A"/>
<rect x="97.6667" y="50.5551" width="8.88889" height="8.88889" fill="#0077B6"/>
<rect x="106.555" y="59.4449" width="8.88889" height="8.88889" fill="#0077B6"/>
<rect x="106.555" y="50.5551" width="8.88889" height="8.88889" fill="#0096C7"/>
<rect x="115.445" y="59.4449" width="8.88889" height="8.88889" fill="#0096C7"/>
<rect x="115.445" y="50.5551" width="8.88889" height="8.88889" fill="#00B4D8"/>
<rect x="115.445" y="41.6666" width="8.88889" height="8.88889" fill="#48CAE4"/>
</g>
<path fill-rule="evenodd" clip-rule="evenodd" d="M268 50.6364C269.339 50.6364 270.424 51.7217 270.424 53.0606C270.424 53.4886 270.313 53.8907 270.119 54.2397L273.252 59.4679L273.331 59.4393C273.846 59.2651 274.386 59.1603 274.939 59.1302L275.273 59.1212C278.62 59.1212 281.333 61.8346 281.333 65.1818C281.333 68.529 278.62 71.2424 275.273 71.2424C273.724 71.2424 272.264 70.6578 271.152 69.6258C270.661 69.1705 270.632 68.4036 271.087 67.9128C271.543 67.422 272.31 67.3932 272.8 67.8485C273.469 68.4686 274.342 68.8182 275.273 68.8182C277.281 68.8182 278.909 67.1901 278.909 65.1818C278.909 63.1735 277.281 61.5454 275.273 61.5454C274.601 61.5454 273.96 61.7264 273.399 62.0645C272.866 62.386 272.184 62.2485 271.813 61.7667L271.734 61.6494L268.039 55.4836L268 55.4848C266.722 55.4848 265.675 54.4959 265.582 53.2415L265.576 53.0606C265.576 51.7217 266.661 50.6364 268 50.6364Z" fill="var(--N700)"/>
<path d="M268 47C271.347 47 274.061 49.7134 274.061 53.0606C274.061 53.73 273.518 54.2727 272.848 54.2727C272.227 54.2727 271.714 53.8048 271.644 53.202L271.636 53.0606C271.636 51.0523 270.008 49.4242 268 49.4242C265.992 49.4242 264.364 51.0523 264.364 53.0606C264.364 54.4333 265.13 55.6689 266.327 56.2905C266.961 56.6197 267.174 57.423 266.787 58.0232L262.885 64.075C263.055 64.4068 263.151 64.7831 263.151 65.1818C263.151 66.5207 262.066 67.6061 260.727 67.6061C259.388 67.6061 258.303 66.5207 258.303 65.1818C258.303 63.8429 259.388 62.7576 260.727 62.7576C260.767 62.7576 260.806 62.7585 260.845 62.7604L264.107 57.7042L264.063 57.6689C262.81 56.5985 262.025 55.0448 261.946 53.3452L261.939 53.0606C261.939 49.7134 264.653 47 268 47Z" fill="#EB456D"/>
<path fill-rule="evenodd" clip-rule="evenodd" d="M260.216 60.2089C260.444 60.8383 260.118 61.5334 259.489 61.7613C258.062 62.2782 257.091 63.6382 257.091 65.1817C257.091 67.19 258.719 68.8181 260.727 68.8181C262.664 68.8181 264.247 67.3042 264.358 65.3954L264.364 65.1817C264.364 64.5601 264.832 64.0478 265.434 63.9777L265.576 63.9696L273.173 63.9692C273.592 63.2448 274.376 62.7575 275.273 62.7575C276.612 62.7575 277.697 63.8428 277.697 65.1817C277.697 66.5206 276.612 67.606 275.273 67.606C274.376 67.606 273.592 67.1186 273.173 66.3942L266.664 66.3926L266.652 66.4653C266.081 69.1132 263.78 71.1177 260.99 71.2367L260.727 71.2423C257.38 71.2423 254.667 68.5289 254.667 65.1817C254.667 62.6096 256.284 60.3437 258.663 59.4819C259.293 59.254 259.988 59.5795 260.216 60.2089Z" fill="var(--N700)"/>
<path d="M7.59672 47.9156C5.72128 48.0136 2.51575 49.0776 2.8253 51.3002C3.60825 56.9394 -2.55679 58.75 5.64766 58.75C9.775 58.75 12.3765 56.9394 12.7697 53.1394L11.6555 48.8311L7.59672 47.9156Z" fill="#FE636E"/>
<path d="M9.07234 49.407C8.20236 49.4526 6.71341 49.9458 6.85561 50.9794C7.22033 53.5988 4.35615 54.4382 8.16724 54.4382C10.0845 54.4382 11.2941 53.5988 11.4765 51.8323L11.0549 49.7042L9.07234 49.407Z" fill="#FFD659"/>
<path d="M10.9546 53.305C9.84042 55.3333 7.63034 56.3113 4.59721 56.3113C3.40938 56.3113 2.52268 56.2724 1.87356 56.1913C0.996831 58.0558 0.570238 58.75 5.64782 58.75C9.77516 58.75 12.3767 56.9395 12.7699 53.1395L11.833 52.1937L11.5134 51.8711C11.485 51.9809 11.4548 52.0873 11.4214 52.1937C11.3361 52.6277 11.1771 52.9976 10.9546 53.305Z" fill="#FB2A39"/>
<path d="M10.6031 50.9524C10.1932 52.2191 9.0756 52.8254 7.44605 52.8254C7.11984 52.8254 6.84375 52.8203 6.60954 52.8068C6.12938 54.0093 5.44177 54.4383 8.16713 54.4383C9.4386 54.4383 10.3989 54.0701 10.9544 53.3051C11.1769 52.9977 11.3358 52.6278 11.4211 52.1938C11.4445 52.0773 11.4629 51.9573 11.4763 51.8323L10.6031 50.9524Z" fill="#FFBF00"/>
<path d="M9.86543 44.8251L7.41948 46.2606C6.92763 46.5494 7.00962 47.3229 7.40109 47.7198L7.59686 47.9158L9.07246 49.4071L11.4766 51.8323L12.7698 53.1396L13.444 53.8202C13.8372 54.2154 14.6034 54.2965 14.8895 53.8016L16.3099 51.3308L14.7021 45.0751L9.86543 44.8251Z" fill="#99B4CD"/>
<path d="M29.6855 30.4103C28.5094 30.1924 26.3663 30.4204 23.7563 31.3122L24.9308 35.6696L29.7006 37.2977C30.5873 34.6461 30.8098 32.4742 30.5856 31.2953C30.4551 30.6079 30.3714 30.537 29.6855 30.4103Z" fill="#99B4CD"/>
<path d="M16.2479 35.2607C12.9822 34.0701 10.4526 34.6122 7.88788 36.9564C6.69839 38.1116 4.71919 39.6299 6.35372 41.28L8.38643 43.332L14.2286 40.3528L16.2479 35.2607Z" fill="#0066CC"/>
<path d="M25.7859 44.8875L20.295 47.1793L17.7905 52.8253L19.8232 54.8773C21.4578 56.5273 22.9618 54.5293 24.1061 53.3286C25.2923 52.0045 27.4053 49.483 25.7859 44.8875Z" fill="#0066CC"/>
<path d="M29.7007 37.2975C29.5632 37.7116 29.4079 38.1369 29.2373 38.5712C28.4606 40.5385 27.3351 42.7054 25.7858 44.8872C23.8399 47.6267 21.2264 50.3915 17.7903 52.8255L17.3872 52.4185L16.31 51.3309L13.4015 48.3947L13.0875 48.078L12.7735 47.7608L9.86551 44.8252L8.38647 43.3317C10.7969 39.8632 13.5361 37.2247 16.248 35.261C18.8845 33.354 21.4962 32.0838 23.7561 31.3123L29.7007 37.2975Z" fill="white"/>
<path d="M29.3157 30.3596C29.4312 31.5959 29.1719 33.5871 28.3772 35.9634L29.7006 37.2976C30.5873 34.646 30.8098 32.4741 30.5856 31.2952C30.4551 30.6079 30.3715 30.5369 29.6855 30.4103C29.5701 30.3883 29.4479 30.3715 29.3157 30.3596Z" fill="#6C9ABB"/>
<path d="M27.9122 37.2385C27.1359 39.206 26.0116 41.3712 24.4608 43.5549C23.7899 44.499 23.0404 45.4465 22.2039 46.3821C21.364 47.3229 20.4388 48.2501 19.42 49.152C18.5115 49.9559 17.5294 50.7395 16.4688 51.4911L17.3872 52.4183L17.7905 52.8253C21.2268 50.3916 23.8401 47.6269 25.7858 44.8875C27.335 42.7054 28.461 40.5386 29.2372 38.571C29.4079 38.137 29.5634 37.7113 29.7006 37.2976L28.3773 35.9634C28.2902 36.2218 28.1982 36.4836 28.0979 36.7504C28.0393 36.9108 27.9774 37.0747 27.9122 37.2385Z" fill="#EBEBEB"/>
<path d="M14.6986 49.7043L13.2782 52.1752C12.9922 52.67 12.2259 52.589 11.8328 52.1938L12.7697 53.1396L13.4439 53.8202C13.837 54.2154 14.6033 54.2964 14.8893 53.8016L16.3097 51.3307L14.6986 49.7043Z" fill="#6C9ABB"/>
<path d="M25.7859 44.8875C25.5165 45.2675 25.2337 45.6475 24.9393 46.0258C25.3208 49.2465 23.7097 51.1584 22.7293 52.2527C21.7891 53.2374 20.6096 54.7591 19.313 54.3622L19.8232 54.8773C21.4578 56.5273 22.9618 54.5293 24.1061 53.3286C25.2923 52.0045 27.4053 49.483 25.7859 44.8875Z" fill="#0053A6"/>
<path d="M14.1783 34.7255C11.7374 36.5731 9.29645 38.9747 7.10986 42.0434L8.38638 43.332C10.7972 39.863 13.5359 37.225 16.2479 35.2608C15.5251 34.9974 14.8375 34.8184 14.1783 34.7255Z" fill="#0053A6"/>
<path d="M15.6844 46.0918L13.4044 48.3923C13.4032 48.3935 13.4027 48.3941 13.4015 48.3947L13.0875 48.078L12.7734 47.7608L15.0511 45.4632C15.2246 45.2877 15.5073 45.2866 15.682 45.4603C15.8568 45.6346 15.858 45.917 15.6844 46.0918Z" fill="#EBEBEB"/>
<path fill-rule="evenodd" clip-rule="evenodd" d="M201.592 5.81643L199.077 8.30247C198.759 8.61898 198.759 9.12971 199.077 9.44623L200.948 11.2949C201.268 11.61 201.784 11.61 202.105 11.2949L204.62 8.80745C204.791 8.63769 205.085 8.71681 205.149 8.94844C205.627 10.6892 205.174 12.6272 203.792 13.9939C202.287 15.4815 200.098 15.8786 198.226 15.188L187.339 26.9564C186.223 28.1649 184.312 28.2081 183.14 27.0485C181.962 25.8861 182.012 23.9841 183.248 22.8835L195.18 12.2459C194.423 10.3727 194.811 8.15141 196.347 6.63504C197.73 5.26829 199.69 4.8223 201.451 5.29275C201.685 5.35605 201.766 5.64666 201.594 5.81643H201.592ZM184.386 24.9969C184.386 25.4717 184.776 25.8587 185.256 25.8587C185.737 25.8587 186.128 25.4732 186.128 24.9969C186.128 24.5222 185.738 24.1366 185.256 24.1366C184.776 24.1366 184.386 24.5222 184.386 24.9969Z" fill="#8898A6"/>
<path fill-rule="evenodd" clip-rule="evenodd" d="M185.521 12.7405L188.504 9.79132L202.913 24.0335C203.481 24.5951 203.481 25.5066 202.913 26.0682L201.987 26.9827C201.419 27.5443 200.497 27.5443 199.929 26.9827L185.521 12.7405V12.7405Z" fill="#F4910D"/>
<path fill-rule="evenodd" clip-rule="evenodd" d="M183.288 15.8697L184.123 15.0436L184.203 14.4912C184.271 14.0253 184.708 13.7008 185.178 13.7669C185.243 13.7761 185.306 13.7913 185.366 13.8158L189.095 10.1291L188.947 8.96526C188.845 8.1504 189.127 7.33249 189.716 6.7506C190.313 6.16056 191.122 5.82892 191.966 5.82892L193.447 5.82994C191.116 3.52575 188.913 3.39757 186.841 5.4454L181.711 10.5166C181.417 10.8076 181.011 10.9602 180.596 10.9368L179.929 10.8971L179.093 11.7232C178.525 12.2847 178.525 13.1962 179.093 13.7578L181.229 15.8697C181.797 16.4312 182.72 16.4312 183.288 15.8697Z" fill="#66757F"/>
<defs>
<clipPath id="clip0_4217_4596">
<rect width="32" height="32" fill="white" transform="translate(95 39)"/>
</clipPath>
</defs>
</svg>
