<!--
  - Copyright (c) 2024. Devtron Inc.
  -
  - Licensed under the Apache License, Version 2.0 (the "License");
  - you may not use this file except in compliance with the License.
  - You may obtain a copy of the License at
  -
  -     http://www.apache.org/licenses/LICENSE-2.0
  -
  - Unless required by applicable law or agreed to in writing, software
  - distributed under the License is distributed on an "AS IS" BASIS,
  - WITHOUT WARRANTIES OR CONDITIONS OF ANY KIND, either express or implied.
  - See the License for the specific language governing permissions and
  - limitations under the License.
  -->

<svg width="16" height="16" viewBox="0 0 16 16" fill="none" xmlns="http://www.w3.org/2000/svg">
<path d="M11.0106 6.23225H14.0106M14.0106 6.23225V3.23225M14.0106 6.23225L11.8893 4.11091C11.3786 3.60019 10.7722 3.19506 10.1049 2.91866C9.43766 2.64226 8.72246 2.5 8.00019 2.5C7.27792 2.5 6.56272 2.64226 5.89543 2.91866C5.22814 3.19506 4.62182 3.60019 4.1111 4.11091M4.98975 9.76775H1.98975M1.98975 9.76775V12.7678M1.98975 9.76775L4.1111 11.8891C4.62182 12.3998 5.22813 12.8049 5.89542 13.0813C6.56272 13.3577 7.27791 13.5 8.00018 13.5C8.72245 13.5 9.43765 13.3577 10.1049 13.0813C10.7722 12.8049 11.3785 12.3998 11.8893 11.8891" stroke="#596168" stroke-width="1.5" stroke-linecap="round" stroke-linejoin="round"/>
</svg>
