<svg width="24" height="24" viewBox="0 0 24 24" fill="none" xmlns="http://www.w3.org/2000/svg">
<path d="M14.2098 10.0215L21.9609 17.0041C23.2497 18.169 23.3538 20.1674 22.1934 21.4594C21.5706 22.1486 20.7106 22.4994 19.847 22.4994C19.0947 22.4994 18.34 22.2332 17.7391 21.6925L10.0181 14.7265C10.735 13.1592 12.1746 10.9999 14.2098 10.0215Z" fill="url(#paint0_linear_2750_4255)"/>
<path d="M9.89894 1.5C4.99199 1.5 1 5.49287 1 10.4009C1 15.3089 4.99199 19.3018 9.89894 19.3018C14.8059 19.3018 18.7979 15.3089 18.7979 10.4009C18.7979 5.49287 14.8059 1.5 9.89894 1.5Z" fill="white"/>
<path d="M9.89894 1.5C4.99199 1.5 1 5.49287 1 10.4009C1 15.3089 4.99199 19.3018 9.89894 19.3018C14.8059 19.3018 18.7979 15.3089 18.7979 10.4009C18.7979 5.49287 14.8059 1.5 9.89894 1.5Z" fill="url(#paint1_linear_2750_4255)"/>
<path fill-rule="evenodd" clip-rule="evenodd" d="M10.4742 8.71295C10.0369 8.71295 9.68154 8.35713 9.68154 7.92015C9.68154 7.48284 10.0369 7.12701 10.4742 7.12701C10.9114 7.12701 11.2671 7.48284 11.2671 7.92015C11.2671 8.35713 10.9114 8.71295 10.4742 8.71295ZM9.9015 11.3287C10.6544 11.3287 11.2671 11.9415 11.2671 12.6946C11.2671 13.4477 10.6544 14.0605 9.9015 14.0605C9.14859 14.0605 8.53588 13.4477 8.53588 12.6946C8.53588 11.9415 9.14859 11.3287 9.9015 11.3287ZM9.9015 15.2065C7.25342 15.2065 5.0989 13.0515 5.0989 10.4028C5.0989 7.75412 7.25342 5.59913 9.9015 5.59913C12.5496 5.59913 14.7041 7.75412 14.7041 10.4028C14.7041 11.0852 14.5588 11.7337 14.3008 12.3225L11.8378 11.9643C11.6531 11.476 11.2899 11.0761 10.8272 10.8438V9.37232C11.4834 9.21274 11.9732 8.62434 11.9732 7.92015C11.9732 7.0934 11.3007 6.42113 10.4742 6.42113C9.64759 6.42113 8.97547 7.0934 8.97547 7.92015C8.97547 8.62434 9.4653 9.21274 10.1211 9.37232V10.6347C10.0488 10.6272 9.9755 10.6228 9.9015 10.6228C9.37603 10.6228 8.89706 10.8211 8.53112 11.1447L7.6774 10.2823C7.90449 9.95563 8.03858 9.5594 8.03858 9.13227C8.03858 8.44201 7.69165 7.80709 7.11051 7.43395L6.7439 8.00572C7.12918 8.25323 7.35967 8.67425 7.35967 9.13227C7.35967 9.87143 6.75849 10.4727 6.0195 10.4727V11.1518C6.45128 11.1518 6.85082 11.0143 7.17976 10.7824L8.0861 11.6981C7.92282 11.9942 7.82981 12.3337 7.82981 12.6946C7.82981 13.8371 8.75924 14.7664 9.9015 14.7664C11.0427 14.7664 11.9715 13.8385 11.9732 12.6973L13.9451 12.9842C13.091 14.3182 11.5991 15.2065 9.9015 15.2065ZM9.9015 4.89325C6.86406 4.89325 4.39283 7.36468 4.39283 10.4028C4.39283 13.4409 6.86406 15.9127 9.9015 15.9127C12.9389 15.9127 15.4102 13.4409 15.4102 10.4028C15.4102 7.36468 12.9389 4.89325 9.9015 4.89325ZM20.5312 19.9296C20.1238 20.3802 19.4232 20.4175 18.9711 20.0111L14.6416 16.1048C15.2085 15.6326 15.7031 15.0771 16.1088 14.4581L20.4497 18.3692C20.9009 18.7773 20.9372 19.4774 20.5312 19.9296ZM3.18946 10.4028C3.18946 6.7009 6.20043 3.68928 9.9015 3.68928C13.6026 3.68928 16.6135 6.7009 16.6135 10.4028C16.6135 14.1047 13.6026 17.1163 9.9015 17.1163C6.20043 17.1163 3.18946 14.1047 3.18946 10.4028ZM20.9222 17.8449L16.4737 13.8375C17.0131 12.8097 17.3196 11.6417 17.3196 10.4028C17.3196 6.31146 13.9916 2.9834 9.9015 2.9834C5.81141 2.9834 2.4834 6.31146 2.4834 10.4028C2.4834 14.4941 5.81141 17.8225 9.9015 17.8225C11.4447 17.8225 12.8795 17.3479 14.068 16.5377L18.4992 20.5357C18.8441 20.846 19.2772 20.9988 19.709 20.9988C20.2046 20.9988 20.6982 20.7975 21.0556 20.4019C21.7217 19.6604 21.6619 18.5135 20.9222 17.8449Z" fill="white"/>
<defs>
<linearGradient id="paint0_linear_2750_4255" x1="-10.1668" y1="3130.12" x2="3124.09" y2="-181.549" gradientUnits="userSpaceOnUse">
<stop stop-color="#BD0816"/>
<stop offset="1" stop-color="#FF5252"/>
</linearGradient>
<linearGradient id="paint1_linear_2750_4255" x1="-26.673" y1="4452.81" x2="4451.1" y2="-93.7538" gradientUnits="userSpaceOnUse">
<stop stop-color="#BD0816"/>
<stop offset="1" stop-color="#FF5252"/>
</linearGradient>
</defs>
</svg>