<svg width="24" height="24" viewBox="0 0 24 24" fill="none" xmlns="http://www.w3.org/2000/svg">
<path d="M14.8421 17.2609H9.10294C8.7069 17.2609 8.38554 16.9398 8.38554 16.5435C8.38554 15.5545 7.9647 14.1655 7.26087 13.5534C5.33243 11.8779 4.45806 9.3649 4.92191 6.83159C5.53937 3.45579 8.50185 1.00327 11.9664 1C11.9683 1 11.9706 1 11.973 1C13.8879 1 15.6884 1.74516 17.0433 3.09894C18.3996 4.45435 19.1464 6.25667 19.1464 8.17389C19.1464 10.235 18.2473 12.1973 16.6799 13.5574C15.9784 14.1659 15.5595 15.5535 15.5595 16.5435C15.5595 16.9398 15.2381 17.2609 14.8421 17.2609Z" fill="#FFB549"/>
<path d="M12 4C12.267 5.24934 12.8054 6.6222 13.5915 7.40851C14.3778 8.1945 15.7507 8.73299 17 9C15.751 9.26754 14.3775 9.80491 13.5915 10.5908C12.8056 11.377 12.2677 12.7505 12.0007 14C11.7333 12.7507 11.1952 11.3774 10.4092 10.5915C9.62315 9.80516 8.24968 9.2677 7 9.00071C8.2491 8.73319 9.62241 8.19491 10.4085 7.40922C11.1949 6.62292 11.7326 5.24959 12 4Z" fill="#FFE5BE"/>
<path d="M13.4078 18.6958H10.5382C10.1413 18.6958 9.8208 19.0162 9.8208 19.4132V20.848C9.8208 22.034 10.7869 23.0002 11.973 23.0002C13.0826 23.0002 13.996 22.1584 14.1156 21.0776C14.1203 21.001 14.1252 20.9245 14.1252 20.848V19.4132C14.1252 19.0162 13.8047 18.6958 13.4078 18.6958Z" fill="#596168"/>
<path d="M13.4075 20.1304H10.5379C9.34932 20.1304 8.38574 19.1669 8.38574 17.9782V16.5435H15.5597V17.9782C15.5597 19.1669 14.5961 20.1304 13.4075 20.1304Z" fill="#767D84"/>
<path d="M16.6499 1C16.7834 1.6245 17.0528 2.31136 17.4454 2.70423C17.8385 3.09705 18.5255 3.36613 19.1499 3.49963C18.5255 3.63356 17.8383 3.90221 17.4454 4.29503C17.0525 4.68812 16.7841 5.3752 16.6506 6C16.5169 5.37547 16.2475 4.68866 15.8544 4.29577C15.4612 3.9027 14.7747 3.63407 14.1499 3.50037C14.7745 3.36665 15.4612 3.09688 15.8544 2.70423C16.2475 2.31112 16.5162 1.62451 16.6499 1Z" fill="white"/>
</svg>
