<svg xmlns="http://www.w3.org/2000/svg" width="20" height="20" viewBox="0 0 20 20" fill="none">
  <circle cx="10" cy="10.0001" r="8.33333" fill="#F33E3E"/>
  <path fill-rule="evenodd" clip-rule="evenodd" d="M6.91074 6.91083C7.23618 6.58539 7.76382 6.58539 8.08925 6.91083L10 8.82157L11.9107 6.91083C12.2362 6.58539 12.7638 6.58539 13.0893 6.91083C13.4147 7.23626 13.4147 7.7639 13.0893 8.08934L11.1785 10.0001L13.0893 11.9108C13.4147 12.2363 13.4147 12.7639 13.0893 13.0893C12.7638 13.4148 12.2362 13.4148 11.9107 13.0893L10 11.1786L8.08925 13.0893C7.76382 13.4148 7.23618 13.4148 6.91074 13.0893C6.5853 12.7639 6.5853 12.2363 6.91074 11.9108L8.82149 10.0001L6.91074 8.08934C6.5853 7.7639 6.5853 7.23626 6.91074 6.91083Z" fill="white"/>
</svg>