<svg width="16" height="16" viewBox="0 0 16 16" fill="none" xmlns="http://www.w3.org/2000/svg">
<circle cx="8.00016" cy="7.99992" r="6.66667" fill="#F33E3E"/>
<path fill-rule="evenodd" clip-rule="evenodd" d="M5.52876 5.52851C5.78911 5.26816 6.21122 5.26816 6.47157 5.52851L8.00016 7.05711L9.52876 5.52851C9.78911 5.26816 10.2112 5.26816 10.4716 5.52851C10.7319 5.78886 10.7319 6.21097 10.4716 6.47132L8.94297 7.99992L10.4716 9.52851C10.7319 9.78886 10.7319 10.211 10.4716 10.4713C10.2112 10.7317 9.78911 10.7317 9.52876 10.4713L8.00016 8.94273L6.47157 10.4713C6.21122 10.7317 5.78911 10.7317 5.52876 10.4713C5.26841 10.211 5.26841 9.78886 5.52876 9.52851L7.05735 7.99992L5.52876 6.47132C5.26841 6.21097 5.26841 5.78886 5.52876 5.52851Z" fill="white"/>
</svg>
