<svg xmlns="http://www.w3.org/2000/svg" width="20" height="20" viewBox="0 0 20 20" fill="none">
  <path fill-rule="evenodd" clip-rule="evenodd" d="M9.99931 2.07795C5.39819 2.07795 1.66675 5.8089 1.66675 10.4116C1.66675 14.0929 4.05428 17.2165 7.36572 18.319C7.78265 18.3952 7.93459 18.1379 7.93459 17.9169C7.93459 17.7189 7.92743 17.1951 7.92334 16.4998C5.60538 17.0032 5.11631 15.3825 5.11631 15.3825C4.73724 14.4198 4.19087 14.1635 4.19087 14.1635C3.43425 13.6468 4.24817 13.657 4.24817 13.657C5.0846 13.7158 5.52455 14.5159 5.52455 14.5159C6.26787 15.7893 7.4752 15.4214 7.94994 15.2081C8.02565 14.6699 8.24102 14.3026 8.47891 14.0944C6.62853 13.8836 4.68301 13.169 4.68301 9.97569C4.68301 9.0656 5.00786 8.32228 5.54093 7.73959C5.45498 7.52882 5.16901 6.68163 5.62278 5.53416C5.62278 5.53416 6.3221 5.31009 7.91412 6.38798C8.57866 6.2033 9.2918 6.11122 10.0003 6.10764C10.7084 6.11122 11.421 6.2033 12.0865 6.38798C13.6776 5.31009 14.3759 5.53416 14.3759 5.53416C14.8306 6.68163 14.5447 7.52882 14.4592 7.73959C14.9933 8.32228 15.3156 9.0656 15.3156 9.97569C15.3156 13.1771 13.367 13.8816 11.511 14.0877C11.8098 14.3451 12.0763 14.8536 12.0763 15.6312C12.0763 16.7449 12.0661 17.6437 12.0661 17.9169C12.0661 18.14 12.2165 18.3993 12.6391 18.318C15.9479 17.2135 18.3334 14.0924 18.3334 10.4116C18.3334 5.8089 14.602 2.07795 9.99931 2.07795Z" fill="#1B1817"/>
</svg>