<svg xmlns="http://www.w3.org/2000/svg" width="12" height="12" fill="none" viewBox="0 0 12 12">
  <path stroke="#C8CBCE" stroke-linecap="round" stroke-linejoin="round" d="M4.875 9V6.187c0-.724-.672-1.312-1.5-1.312-.448 0-.85.102-1.125.375m4.5-2.625V9m0-2.375c0-.611.8-1.75 1.75-1.75.966 0 1.75.923 1.75 2.063C10.25 8.076 9.466 9 8.5 9c-.95 0-1.75-.89-1.75-1.502M.5 9.5V11h11V9.5M4.875 7.687c0 .725-.672 1.313-1.5 1.313s-1.5-.588-1.5-1.313c0-.724.672-1.312 1.5-1.312s1.5.588 1.5 1.313Z" vector-effect="non-scaling-stroke"/>
</svg>
