<!--
  - Copyright (c) 2024. Devtron Inc.
  -
  - Licensed under the Apache License, Version 2.0 (the "License");
  - you may not use this file except in compliance with the License.
  - You may obtain a copy of the License at
  -
  -     http://www.apache.org/licenses/LICENSE-2.0
  -
  - Unless required by applicable law or agreed to in writing, software
  - distributed under the License is distributed on an "AS IS" BASIS,
  - WITHOUT WARRANTIES OR CONDITIONS OF ANY KIND, either express or implied.
  - See the License for the specific language governing permissions and
  - limitations under the License.
  -->

<svg xmlns="http://www.w3.org/2000/svg" width="24" height="24" fill="none" viewBox="0 0 24 24">
  <path stroke="#3B444C" stroke-linecap="round" stroke-linejoin="round" stroke-width="1.5" d="M6.375 15a2.625 2.625 0 1 0 0 5.25 2.625 2.625 0 0 0 0-5.25Zm0 0V9m0 0a2.625 2.625 0 1 0 0-5.25 2.625 2.625 0 0 0 0 5.25Zm11.25 6a2.625 2.625 0 1 0 0 5.25 2.625 2.625 0 0 0 0-5.25Zm0 0v-3.761a4.5 4.5 0 0 0-1.318-3.182L12.75 4.5m0 0v3.75m0-3.75h3.75" vector-effect="non-scaling-stroke"/>
</svg>