<svg xmlns="http://www.w3.org/2000/svg" width="14" height="14" viewBox="0 0 14 14" fill="none">
  <path d="M7.00009 2.68359L2.4856 5.2249V9.69893C2.4856 10.059 2.67918 10.3913 2.99241 10.5689L7.00009 12.8409V2.68359Z" fill="#376CFB"/>
  <path d="M7.0004 2.68359L11.5149 5.2249V9.69893C11.5149 10.059 11.3213 10.3913 11.0081 10.5689L7.0004 12.8409V2.68359Z" fill="#275ED8"/>
  <path d="M5.00439 8.88269C5.42369 9.1159 5.94953 9.01844 6.2574 8.65046L7.0001 7.76278L2.48559 5.22656L1.97311 5.81788C1.55738 6.29757 1.688 7.03821 2.24274 7.34674L5.00439 8.88269Z" fill="#4294FF"/>
  <path d="M9.06496 8.88701C8.65606 9.11907 8.14072 9.03495 7.82685 8.6849L7 7.76278L11.5145 5.22656L12.034 5.82605C12.4475 6.30308 12.3209 7.03911 11.7719 7.35068L9.06496 8.88701Z" fill="#4294FF"/>
  <path d="M4.97122 1.56685C5.38469 1.33457 5.90444 1.42465 6.21563 1.78251L7.00008 2.68464L2.48559 5.22594L1.96959 4.63056C1.555 4.15219 1.68359 3.41384 2.23548 3.10379L4.97122 1.56685Z" fill="#4294FF"/>
  <path d="M9.02886 1.56685C8.6154 1.33457 8.09564 1.42465 7.78446 1.78251L7 2.68464L11.5145 5.22594L12.0305 4.63056C12.4451 4.15219 12.3165 3.41384 11.7646 3.10379L9.02886 1.56685Z" fill="#4294FF"/>
</svg>