<svg width="24" height="24" viewBox="0 0 24 24" fill="none" xmlns="http://www.w3.org/2000/svg">
<path fill-rule="evenodd" clip-rule="evenodd" d="M4.8315 5.6085L8.223 9.012L11.55 5.676L10.5 4.626L8.982 6.1365L8.97 3.7365C8.96864 3.5335 9.04602 3.33788 9.18588 3.19075C9.32574 3.04361 9.51719 2.95642 9.72 2.9475H12V1.5H9.72C9.42744 1.50039 9.13783 1.55853 8.86778 1.67108C8.59774 1.78363 8.35256 1.94837 8.14632 2.15587C7.94007 2.36337 7.77682 2.60954 7.66591 2.88026C7.555 3.15099 7.49862 3.44094 7.5 3.7335V6.15L5.8905 4.5495L4.8315 5.6085ZM14.8365 8.2995H14.8515C15.126 8.766 15.528 9 16.0605 9C16.65 9 17.1195 8.748 17.4705 8.2455C17.8245 7.743 18 7.0755 18 6.246C18 5.4795 17.85 4.8765 17.5485 4.4355C17.247 3.993 16.8165 3.7725 16.2585 3.7725C15.651 3.7725 15.1815 4.0635 14.8515 4.644H14.8365V1.5H13.5V8.8785H14.835L14.8365 8.2995ZM14.814 6.708V6.198C14.814 5.826 14.901 5.526 15.0765 5.2965C15.1516 5.18935 15.2516 5.102 15.3678 5.04192C15.4841 4.98184 15.6131 4.95081 15.744 4.9515C15.8742 4.94656 16.0034 4.97632 16.1183 5.03773C16.2332 5.09914 16.3298 5.19 16.398 5.301C16.554 5.532 16.6305 5.853 16.6305 6.2655C16.6305 6.7605 16.5465 7.146 16.377 7.4175C16.3076 7.54286 16.2052 7.64686 16.0809 7.71824C15.9567 7.78962 15.8153 7.82567 15.672 7.8225C15.5512 7.82386 15.432 7.79574 15.3246 7.74059C15.2171 7.68543 15.1248 7.60491 15.0555 7.506C14.8887 7.27423 14.8027 6.99333 14.814 6.708ZM13.5 19.1535C13.116 19.3845 12.5625 19.5 11.838 19.5C10.9935 19.5 10.308 19.233 9.7845 18.7005C9.261 18.168 9 17.481 9 16.6395C9 15.6675 9.279 14.9025 9.84 14.3445C10.401 13.7805 11.1525 13.5 12.09 13.5C12.7395 13.5 13.209 13.59 13.5 13.7685V15.2655C13.1629 14.9959 12.7437 14.8498 12.312 14.8515C11.8245 14.8515 11.4375 15.0015 11.151 15.2985C10.866 15.5925 10.7265 16.0005 10.7265 16.5225C10.7265 17.0295 10.8615 17.427 11.1345 17.718C11.4075 18.0045 11.781 18.1485 12.258 18.1485C12.681 18.1485 13.095 18.0105 13.5 17.7345V19.1535ZM6 10.5L4.5 12V21L6 22.5H16.5L18 21V12L16.5 10.5H6ZM6 12H16.5V21H6V12Z" fill="#C8CBCE"/>
</svg>
