<svg width="24" height="24" viewBox="0 0 24 24" fill="none" xmlns="http://www.w3.org/2000/svg">
<path fill-rule="evenodd" clip-rule="evenodd" d="M17.4 4.0155C17.6205 3.5505 17.934 3.318 18.339 3.318C18.711 3.318 18.999 3.495 19.1985 3.8475C19.3995 4.2015 19.5 4.683 19.5 5.2965C19.5 5.961 19.383 6.4935 19.1475 6.897C18.9135 7.299 18.6 7.5 18.207 7.5C17.8515 7.5 17.583 7.3125 17.4015 6.939H17.3895V7.404H16.5V1.5H17.3895V4.0155H17.4ZM17.376 5.6655C17.3672 5.88948 17.4229 6.11127 17.5365 6.3045C17.643 6.474 17.781 6.558 17.9475 6.558C18.1515 6.558 18.3075 6.45 18.4185 6.234C18.531 6.0165 18.588 5.709 18.588 5.3115C18.588 4.9815 18.5355 4.7265 18.432 4.5405C18.3315 4.3545 18.186 4.26 17.997 4.26C17.817 4.26 17.6685 4.353 17.5515 4.5375C17.4259 4.75601 17.365 5.00571 17.376 5.2575V5.6655ZM6.18 11.5425L3 8.352L3.993 7.359L5.502 8.859V6.594C5.50082 6.31982 5.55372 6.04809 5.65769 5.79438C5.76166 5.54067 5.91465 5.30996 6.1079 5.11545C6.30115 4.92095 6.53087 4.76647 6.7839 4.66086C7.03694 4.55525 7.30831 4.50059 7.5825 4.5H11.1V5.8575H7.5825C7.39256 5.86603 7.21332 5.94783 7.08242 6.08573C6.95152 6.22362 6.87914 6.40687 6.8805 6.597L6.891 8.847L8.3145 7.431L9.2985 8.415L6.18 11.5425ZM14.034 7.395H15V4.83C15 3.612 14.5275 3 13.584 3C13.3815 3 13.1565 3.036 12.909 3.1095C12.7038 3.16402 12.5077 3.24842 12.327 3.36V4.3575C12.6825 4.053 13.0575 3.9015 13.452 3.9015C13.8435 3.9015 14.04 4.1355 14.04 4.605L13.14 4.7595C12.381 4.8885 12 5.3685 12 6.201C12 6.5955 12.0915 6.9105 12.2745 7.1475C12.364 7.2626 12.4797 7.35464 12.612 7.41596C12.7443 7.47727 12.8893 7.50609 13.035 7.5C13.47 7.5 13.7985 7.26 14.0205 6.78H14.034V7.395ZM14.04 5.3625V5.652C14.0487 5.88333 13.9859 6.11171 13.86 6.306C13.8097 6.38477 13.7403 6.44949 13.6582 6.49409C13.576 6.53869 13.4839 6.56171 13.3905 6.561C13.3283 6.56358 13.2664 6.5521 13.2092 6.52743C13.1521 6.50276 13.1013 6.46553 13.0605 6.4185C12.9779 6.31252 12.9354 6.18077 12.9405 6.0465C12.9405 5.7135 13.1055 5.52 13.4385 5.463L14.04 5.3625ZM10.5 19.395H9.534V18.78H9.5205C9.2985 19.26 8.97 19.5 8.535 19.5C8.38932 19.5061 8.2443 19.4773 8.11201 19.416C7.97973 19.3546 7.86401 19.2626 7.7745 19.1475C7.5915 18.9105 7.5 18.5955 7.5 18.2025C7.5 17.3685 7.881 16.8885 8.64 16.7595L9.54 16.605C9.54 16.1355 9.345 15.9 8.952 15.9C8.5575 15.9 8.1825 16.053 7.827 16.3575V15.36C7.9695 15.2655 8.163 15.1815 8.409 15.1095C8.6565 15.036 8.8815 15 9.084 15C10.029 15 10.5 15.6105 10.5 16.83V19.395ZM9.54 17.652V17.3625L8.94 17.4645C8.607 17.52 8.4405 17.7135 8.4405 18.0465C8.4405 18.1965 8.481 18.321 8.5605 18.4185C8.60126 18.4655 8.65209 18.5028 8.70923 18.5274C8.76636 18.5521 8.82832 18.5636 8.8905 18.561C8.98369 18.5615 9.07548 18.5383 9.15731 18.4937C9.23915 18.4491 9.30836 18.3846 9.3585 18.306C9.4785 18.132 9.54 17.916 9.54 17.652ZM13.893 19.5C14.3745 19.5 14.745 19.413 15 19.2405V18.1755C14.7667 18.369 14.475 18.4784 14.172 18.486C14.0307 18.4929 13.8896 18.4675 13.7597 18.4116C13.6297 18.3557 13.5142 18.2708 13.422 18.1635C13.242 17.946 13.1505 17.646 13.1505 17.2665C13.1505 16.8765 13.245 16.5705 13.434 16.3485C13.5293 16.2379 13.6485 16.1503 13.7826 16.0923C13.9166 16.0344 14.0621 16.0076 14.208 16.014C14.499 16.014 14.763 16.1175 15 16.3245V15.201C14.8065 15.066 14.493 15 14.061 15C13.4355 15 12.9345 15.21 12.5595 15.633C12.186 16.053 12 16.626 12 17.355C12 17.985 12.174 18.501 12.5235 18.9C12.8715 19.3005 13.329 19.5 13.893 19.5ZM3 13.5L4.5 12H18L19.5 13.5V21L18 22.5H4.5L3 21V13.5ZM4.5 13.5V21H18V13.5H4.5ZM9 10.5L10.5 9H21L22.5 10.5V18L21 19.5V10.5H9Z" fill="#C8CBCE"/>
</svg>
