<svg xmlns="http://www.w3.org/2000/svg" width="16" height="16" fill="none" viewBox="0 0 16 16">
  <mask id="a" fill="#fff">
    <path fill-rule="evenodd" d="m3.221 3.739 2.261 2.269L7.7 3.784l-.7-.7-1.012 1.007-.008-1.6a.523.523 0 0 1 .5-.526H8V1H6.48A1.482 1.482 0 0 0 5 2.489V4.1L3.927 3.033l-.706.706Zm6.67 1.794h.01c.183.311.451.467.806.467.393 0 .706-.168.94-.503.236-.335.353-.78.353-1.333 0-.511-.1-.913-.301-1.207-.201-.295-.488-.442-.86-.442-.405 0-.718.194-.938.581h-.01V1H9v4.919h.89l.001-.386Zm-.015-1.061v-.34c0-.248.058-.448.175-.601a.54.54 0 0 1 .445-.23.49.49 0 0 1 .436.233c.104.154.155.368.155.643 0 .33-.056.587-.169.768a.524.524 0 0 1-.47.27.495.495 0 0 1-.411-.211.854.854 0 0 1-.161-.532ZM9 12.769c-.256.154-.625.231-1.108.231-.563 0-1.02-.178-1.369-.533-.349-.355-.523-.813-.523-1.374 0-.648.186-1.158.56-1.53.374-.376.875-.563 1.5-.563.433 0 .746.06.94.179v.998a1.26 1.26 0 0 0-.792-.276c-.325 0-.583.1-.774.298-.19.196-.283.468-.283.816 0 .338.09.603.272.797.182.191.431.287.749.287.282 0 .558-.092.828-.276v.946ZM4 7 3 8v6l1 1h7l1-1V8l-1-1H4Zm0 1h7v6H4V8Z" clip-rule="evenodd"/>
  </mask>
  <path fill="#C8CBCE" fill-rule="evenodd" d="m3.221 3.739 2.261 2.269L7.7 3.784l-.7-.7-1.012 1.007-.008-1.6a.523.523 0 0 1 .5-.526H8V1H6.48A1.482 1.482 0 0 0 5 2.489V4.1L3.927 3.033l-.706.706Zm6.67 1.794h.01c.183.311.451.467.806.467.393 0 .706-.168.94-.503.236-.335.353-.78.353-1.333 0-.511-.1-.913-.301-1.207-.201-.295-.488-.442-.86-.442-.405 0-.718.194-.938.581h-.01V1H9v4.919h.89l.001-.386Zm-.015-1.061v-.34c0-.248.058-.448.175-.601a.54.54 0 0 1 .445-.23.49.49 0 0 1 .436.233c.104.154.155.368.155.643 0 .33-.056.587-.169.768a.524.524 0 0 1-.47.27.495.495 0 0 1-.411-.211.854.854 0 0 1-.161-.532ZM9 12.769c-.256.154-.625.231-1.108.231-.563 0-1.02-.178-1.369-.533-.349-.355-.523-.813-.523-1.374 0-.648.186-1.158.56-1.53.374-.376.875-.563 1.5-.563.433 0 .746.06.94.179v.998a1.26 1.26 0 0 0-.792-.276c-.325 0-.583.1-.774.298-.19.196-.283.468-.283.816 0 .338.09.603.272.797.182.191.431.287.749.287.282 0 .558-.092.828-.276v.946ZM4 7 3 8v6l1 1h7l1-1V8l-1-1H4Zm0 1h7v6H4V8Z" clip-rule="evenodd"/>
  <path fill="#C8CBCE" d="m3.221 3.739-35.355-35.355-35.293 35.293 35.23 35.355L3.221 3.739Zm2.261 2.269-35.418 35.293L5.467 76.829l35.418-35.513L5.482 6.008ZM7.7 3.784l35.403 35.308 35.26-35.356L43.055-31.57 7.7 3.784Zm-.7-.7 35.355-35.355L7.087-67.54l-35.355 35.18L7 3.084ZM5.988 4.091l-50 .25.598 119.444 84.67-84.251L5.988 4.09Zm-.008-1.6 50-.25v-.043l-.001-.042L5.98 2.49Zm.5-.526v-50h-1.1l-1.098.048L6.48 1.965Zm1.52 0v50h50v-50H8ZM8 1h50v-50H8V1ZM6.48 1v-50h-.067L6.48 1ZM5 2.489h50v-.236L5 2.489ZM5 4.1l-35.256 35.454L55 124.334V4.1H5ZM3.927 3.033l35.256-35.454L3.828-67.58l-35.256 35.257L3.927 3.033Zm5.964 2.5v-50h-49.87l-.13 49.87 50 .13Zm.01 0 43.093-25.357-14.5-24.643H9.9v50Zm1.746-.036-40.875-28.796-.058.082-.057.082 40.99 28.632Zm.052-2.54-41.32 28.154.022.032.022.033L11.7 2.957Zm-1.798.139v50h29.09l14.377-25.29L9.901 3.096Zm-.01 0h-50v50h50v-50Zm0-2.096h50v-50h-50V1ZM9 1v-50h-50V1H9Zm0 4.919h-50v50H9v-50Zm.89 0v50h49.87l.13-49.87-50-.13Zm-.014-1.447 49.96 1.977.04-.988v-.989h-50Zm.175-.941 39.718 30.373.629-.823.594-.847L10.05 3.531Zm.445-.23-.263 50 1.08.005 1.08-.041-1.897-49.964Zm.436.233-42.593 26.189.56.909.597.885L10.932 3.534Zm-.014 1.411-42.413-26.479-.693 1.11-.634 1.145 43.74 24.224Zm-.47.27 1.107-49.988-.834-.018-.834.01.561 49.996Zm-.411-.211L50.991-23.68l-.184-.263-.188-.26L10.037 5.004ZM9 12.769l25.774 42.845L59 41.041V12.769H9ZM6.56 9.563l35.26 35.45.095-.094.095-.095L6.56 9.563ZM9 9.179h50v-27.987L35.144-33.442 9 9.18Zm0 .998-31.23 39.047L59 114.192V10.177H9Zm-.792-.276v50h.199l-.199-50Zm-.774.298 35.9 34.802.043-.044.043-.044L7.434 10.199Zm-.011 1.613-36.465 34.21.133.141.134.141L7.423 11.812ZM9 11.823h50v-94.58l-78.157 53.262L9 11.823ZM4 7v-50h-20.71l-14.645 14.645L4 7ZM3 8l-35.355-35.355L-47-12.711V8H3Zm0 6h-50v20.71l14.645 14.645L3 14Zm1 1-35.355 35.355L-16.711 65H4V15Zm7 0v50h20.71l14.645-14.645L11 15Zm1-1 35.355 35.355L62 34.711V14H12Zm0-6h50v-20.71L47.355-27.356 12 8Zm-1-1 35.355-35.355L31.711-43H11V7ZM4 8v-50h-50V8H4Zm7 0h50v-50H11V8Zm0 6v50h50V14H11Zm-7 0h-50v50H4V14Zm-36.197 25.032 2.261 2.269L40.9-29.285l-2.261-2.269-70.836 70.586Zm73.082 2.284 2.218-2.224-70.806-70.616-2.218 2.224 70.806 70.616Zm2.17-72.887-.7-.7-70.71 70.71.7.7 70.71-70.71Zm-71.323-.788-1.012 1.007 70.536 70.886 1.012-1.007-70.536-70.886Zm84.255 36.2-.008-1.6-99.998.5.008 1.6 99.998-.5Zm-.008-1.685a49.477 49.477 0 0 1-13.615 34.42l-72.48-68.897A50.523 50.523 0 0 0-44.019 2.826l99.998-.67Zm-13.615 34.42a49.477 49.477 0 0 1-33.686 15.34L4.282-47.986A50.523 50.523 0 0 0-30.116-32.32l72.48 68.897ZM6.48 51.965H8v-100H6.48v100Zm51.52-50V1H-42v.965H58ZM8-49H6.48V51H8V-49Zm-1.587 0a51.483 51.483 0 0 0-19.736 3.962l38.47 92.304A48.52 48.52 0 0 1 6.547 51L6.413-49Zm-19.736 3.962a51.482 51.482 0 0 0-16.709 11.227l70.925 70.496a48.516 48.516 0 0 1-15.746 10.581l-38.47-92.304Zm-16.709 11.227a51.483 51.483 0 0 0-11.125 16.776l92.535 37.91a48.517 48.517 0 0 1-10.485 15.81L-30.03-33.81Zm-11.125 16.776A51.48 51.48 0 0 0-45 2.725l99.998-.472a48.517 48.517 0 0 1-3.62 18.622l-92.536-37.91ZM-45 2.49V4.1H55V2.489H-45Zm85.256-33.843-1.073-1.067-70.512 70.908 1.073 1.067 70.512-70.908Zm-71.684-.968-.706.706 70.71 70.71.706-.706-70.71-70.71ZM9.89 55.533h.01v-100h-.01v100ZM-33.192 30.89C-24.267 46.06-7.835 56 10.707 56V-44a49.088 49.088 0 0 1 24.62 6.633 49.057 49.057 0 0 1 17.667 17.543L-33.192 30.89ZM10.707 56c17.553 0 32.827-8.838 41.93-21.871l-81.98-57.264a48.817 48.817 0 0 1 16.975-15.068A48.898 48.898 0 0 1 10.707-44V56Zm41.815-21.707C60.497 22.973 62 11.383 62 4.164H-38a47.78 47.78 0 0 1 8.772-27.463l81.75 57.592ZM62 4.164c0-6.355-1.15-17.906-9.025-29.426l-82.552 56.438C-37.05 20.244-38 9.497-38 4.164H62Zm-8.98-29.36c-10.016-14.7-26.181-22.289-42.181-22.289v100a48.938 48.938 0 0 1-22.346-5.411A49.014 49.014 0 0 1-29.621 31.11l82.64-56.308Zm-42.182-22.29c-20.473 0-36.379 11.752-44.405 25.87l86.934 49.421a48.822 48.822 0 0 1-16.736 17.359 49 49 0 0 1-25.793 7.35v-100Zm-.938.581h-.01v100h.01v-100Zm49.99 50V1h-100v2.096h100ZM9.891-49H9V51h.891V-49ZM-41 1v4.919H59V1H-41ZM9 55.919h.89v-100H9v100Zm50.89-49.87v-.387l-99.999-.258v.386l99.999.258Zm-.014-1.577v-.34h-100v.34h100Zm0-.34c0 7.485-1.821 18.936-10.107 29.772l-79.436-60.746C-38.187-15.7-40.124-3.849-40.124 4.132h100Zm-8.884 28.102a49.46 49.46 0 0 1-17.79 15.545l-45.914-88.836A50.54 50.54 0 0 0-30.89-25.172l81.882 57.406Zm-17.79 15.545A49.46 49.46 0 0 1 10.234 53.3l.526-99.998a50.539 50.539 0 0 0-23.471 5.641L33.203 47.78Zm-20.81 5.486a49.51 49.51 0 0 1-25.213-5.809L34.312-40.74a50.489 50.489 0 0 0-25.713-5.923l3.794 99.928Zm-25.213-5.809a49.51 49.51 0 0 1-18.84-17.734l85.186-52.376A50.49 50.49 0 0 0 34.312-40.74l-47.133 88.195Zm-17.683-15.94a48.899 48.899 0 0 1-8.409-27.339h100c0-5.567-.89-17.032-8.719-28.626l-82.872 55.966Zm-8.409-27.339c0-4.19.516-14.655 7.418-25.71L53.33 31.423c7.128-11.418 7.756-22.398 7.756-27.247h-100Zm6.091-23.456a49.477 49.477 0 0 1 18.636-18.93L35.627 48.5a50.524 50.524 0 0 0 19.03-19.332L-32.822-19.28Zm18.636-18.93a49.476 49.476 0 0 1 25.741-6.564L9.341 55.203A50.524 50.524 0 0 0 35.627 48.5l-49.813-86.71Zm24.073-6.573a49.505 49.505 0 0 1 23.165 5.462l-45.671 88.96a50.495 50.495 0 0 0 23.628 5.57L9.887-44.781Zm23.165 5.462a49.504 49.504 0 0 1 17.94 15.64l-81.91 57.368a50.495 50.495 0 0 0 18.3 15.952l45.67-88.96Zm17.567 15.117a49.146 49.146 0 0 1 9.218 30.652l-99.922-3.954a50.854 50.854 0 0 0 9.54 31.716l81.164-58.414Zm-67.393-5.873a48.515 48.515 0 0 1 15.098-5.929A46.88 46.88 0 0 1 7.892-37V63c4.527 0 15.435-.5 26.882-7.386l-51.548-85.69ZM7.892-37c10.935 0 23.975 3.926 34.286 14.414l-71.31 70.106C-18.123 58.718-4.17 63 7.892 63V-37Zm34.286 14.414C52.241-12.35 56 .388 56 11.093H-44c0 11.827 4.107 25.481 14.868 36.427l71.31-70.106ZM56 11.093c0 9.358-3.011 22.811-14.18 33.92l-70.52-70.9C-40.617-14.034-44 .438-44 11.093H56Zm-13.99 33.73C31.273 55.619 18.076 59 8.06 59V-41c-11.266 0-25.465 3.756-36.95 15.302l70.9 70.522ZM8.06 59c-1.908 0-5.015-.117-8.809-.84a48.89 48.89 0 0 1-16.395-6.36l52.288-85.242C22.759-41.038 10.808-41 8.06-41V59ZM-41 9.179v.998H59v-.998H-41Zm81.23-38.05A51.26 51.26 0 0 0 8.01-40.098l.397 100A48.74 48.74 0 0 1-22.23 49.224L40.23-28.87ZM8.208-40.098c-11.367 0-25.522 3.935-36.76 15.584L43.42 44.913C32.564 56.166 18.925 59.9 8.208 59.9v-100Zm-36.675 15.496C-40.143-12.558-42.849 1.67-42.849 11.015h100c0 8.65-2.52 22.333-13.816 33.986l-71.802-69.604Zm-14.382 35.618c0 9.38 2.709 23.177 13.807 35.007l72.93-68.42c10.734 11.442 13.263 24.71 13.263 33.413h-100Zm14.074 35.29C-17.325 58.32-2.922 62.098 8.172 62.098v-100c10.458 0 24.363 3.587 35.449 15.22l-72.396 68.985ZM8.172 62.098c11.85 0 21.769-4.04 28.985-8.958l-56.314-82.636A48.552 48.552 0 0 1 8.172-37.9v100ZM-41 11.823v.946H59v-.946H-41Zm9.645-40.178-1 1 70.71 70.71 1-1-70.71-70.71ZM-47 8v6H53V8H-47Zm14.645 41.355 1 1 70.71-70.71-1-1-70.71 70.71ZM4 65h7V-35H4V65Zm42.355-14.645 1-1-70.71-70.71-1 1 70.71 70.71ZM62 14V8H-38v6H62ZM47.355-27.355l-1-1-70.71 70.71 1 1 70.71-70.71ZM11-43H4V57h7V-43ZM4 58h7V-42H4V58ZM-39 8v6H61V8H-39Zm50-44H4V64h7V-36Zm43 50V8H-46v6H54Z" mask="url(#a)"/>
</svg>
