<!--
  - Copyright (c) 2024. Devtron Inc.
  -
  - Licensed under the Apache License, Version 2.0 (the "License");
  - you may not use this file except in compliance with the License.
  - You may obtain a copy of the License at
  -
  -     http://www.apache.org/licenses/LICENSE-2.0
  -
  - Unless required by applicable law or agreed to in writing, software
  - distributed under the License is distributed on an "AS IS" BASIS,
  - WITHOUT WARRANTIES OR CONDITIONS OF ANY KIND, either express or implied.
  - See the License for the specific language governing permissions and
  - limitations under the License.
  -->

<svg xmlns="http://www.w3.org/2000/svg" width="24" height="24" fill="none" viewBox="0 0 24 24">
  <path stroke="#3B444C" stroke-linecap="round" stroke-width="1.5" d="M21 10c-.095.47-.236.896-.422 1.28-.41.864-.981 1.512-1.716 1.947-.736.428-1.565.642-2.49.642-.758 0-1.463-.15-2.115-.45-.651-.299-1.383-.78-2.194-1.443-.833-.692-1.715-1.252-2.36-1.538A4.948 4.948 0 0 0 7.636 10c-.948 0-1.789.217-2.524.652-.728.428-1.296 1.074-1.705 1.936a5.5 5.5 0 0 0-.406 1.28" vector-effect="non-scaling-stroke"/>
</svg>
