<svg xmlns="http://www.w3.org/2000/svg" width="24" height="24" fill="none" viewBox="0 0 24 24">
  <path fill="#3B444C" d="M5.313 18.351a.75.75 0 1 0 1.337.68l-1.337-.68Zm12.037.68a.75.75 0 1 0 1.337-.68l-1.337.68ZM20.25 12A8.25 8.25 0 0 1 12 20.25v1.5A9.75 9.75 0 0 0 21.75 12h-1.5ZM12 20.25A8.25 8.25 0 0 1 3.75 12h-1.5A9.75 9.75 0 0 0 12 21.75v-1.5ZM3.75 12A8.25 8.25 0 0 1 12 3.75v-1.5A9.75 9.75 0 0 0 2.25 12h1.5ZM12 3.75A8.25 8.25 0 0 1 20.25 12h1.5A9.75 9.75 0 0 0 12 2.25v1.5Zm3 7.5a3 3 0 0 1-3 3v1.5a4.5 4.5 0 0 0 4.5-4.5H15Zm-3 3a3 3 0 0 1-3-3H7.5a4.5 4.5 0 0 0 4.5 4.5v-1.5Zm-3-3a3 3 0 0 1 3-3v-1.5a4.5 4.5 0 0 0-4.5 4.5H9Zm3-3a3 3 0 0 1 3 3h1.5a4.5 4.5 0 0 0-4.5-4.5v1.5ZM6.65 19.031a6.003 6.003 0 0 1 2.212-2.395l-.784-1.279a7.503 7.503 0 0 0-2.765 2.994l1.337.68Zm2.212-2.395A6.002 6.002 0 0 1 12 15.75v-1.5a7.502 7.502 0 0 0-3.922 1.107l.784 1.279ZM12 15.75c1.108 0 2.194.306 3.138.886l.784-1.279A7.502 7.502 0 0 0 12 14.25v1.5Zm3.138.886a6.002 6.002 0 0 1 2.212 2.395l1.337-.68a7.502 7.502 0 0 0-2.765-2.994l-.784 1.279Z"/>
</svg>
