<svg width="220" height="136" viewBox="0 0 220 136" fill="none" xmlns="http://www.w3.org/2000/svg">
<line x1="2.07" y1="93.9671" x2="206.331" y2="93.9671" stroke="#434089" stroke-width="4.14" stroke-linecap="round"/>
<rect width="123.327" height="79.9342" rx="4" fill="#4F4BA5"/>
<rect x="2.72656" y="2.88574" width="117.839" height="65.4661" rx="2" fill="url(#paint0_linear_8817_2077)"/>
<path d="M37.2666 35.5391H35.8145L35.4453 37.4346H36.8818L36.6406 38.6738H35.1885L33.752 45.8555C33.6381 46.4444 33.4098 46.8955 33.0684 47.209C32.7269 47.5318 32.2244 47.6933 31.5605 47.6934H30.5645L30.8066 46.4541H32.1436L33.709 38.6738H32.5996L32.8408 37.4346H33.9648L34.2217 36.1377C34.3355 35.5488 34.5628 35.0976 34.9043 34.7842C35.2457 34.4613 35.7483 34.2999 36.4121 34.2998H37.5078L37.2666 35.5391ZM46.1621 37.2637C46.456 37.2637 46.75 37.302 47.0439 37.3779C47.3474 37.4539 47.6174 37.5729 47.8545 37.7344C48.0916 37.8959 48.2815 38.1048 48.4238 38.3613C48.5755 38.6178 48.6514 38.9262 48.6514 39.2871C48.6513 40.0754 48.2536 40.6787 47.457 41.0967C46.6698 41.5146 45.4315 41.7423 43.7432 41.7803C43.7147 41.9703 43.7002 42.1275 43.7002 42.251C43.7002 42.7068 43.8237 43.0722 44.0703 43.3477C44.3264 43.6231 44.7249 43.7607 45.2656 43.7607C45.6734 43.7607 46.0431 43.6707 46.375 43.4902C46.707 43.3097 47.0246 43.0294 47.3281 42.6494L48.2676 43.4336C47.8028 44.013 47.314 44.4217 46.8018 44.6592C46.2897 44.8965 45.7444 45.0146 45.166 45.0146C44.2081 45.0146 43.4774 44.7444 42.9746 44.2031C42.4813 43.6522 42.2344 42.8773 42.2344 41.8799C42.2344 41.2721 42.3247 40.6924 42.5049 40.1416C42.6946 39.5813 42.9603 39.0875 43.3018 38.6602C43.6433 38.2327 44.0563 37.8954 44.54 37.6484C45.0237 37.3921 45.5646 37.2637 46.1621 37.2637ZM53.4434 37.2637C53.7373 37.2637 54.0312 37.302 54.3252 37.3779C54.6287 37.4539 54.8996 37.5729 55.1367 37.7344C55.3736 37.8958 55.5629 38.105 55.7051 38.3613C55.8568 38.6178 55.9326 38.9262 55.9326 39.2871C55.9326 40.0754 55.5349 40.6787 54.7383 41.0967C53.951 41.5146 52.7127 41.7423 51.0244 41.7803C50.996 41.9703 50.9814 42.1275 50.9814 42.251C50.9815 42.7068 51.105 43.0722 51.3516 43.3477C51.6077 43.6231 52.0062 43.7607 52.5469 43.7607C52.9546 43.7607 53.3243 43.6707 53.6562 43.4902C53.9883 43.3097 54.3058 43.0294 54.6094 42.6494L55.5488 43.4336C55.084 44.013 54.5952 44.4217 54.083 44.6592C53.571 44.8965 53.0257 45.0146 52.4473 45.0146C51.4893 45.0146 50.7586 44.7444 50.2559 44.2031C49.7626 43.6522 49.5156 42.8773 49.5156 41.8799C49.5157 41.2721 49.6059 40.6924 49.7861 40.1416C49.9758 39.5813 50.2416 39.0875 50.583 38.6602C50.9245 38.2327 51.3375 37.8954 51.8213 37.6484C52.305 37.3921 52.8459 37.2637 53.4434 37.2637ZM74.6514 41.9375C74.6229 42.0703 74.599 42.2031 74.5801 42.3359C74.5706 42.4689 74.5654 42.5879 74.5654 42.6924C74.5654 43.0249 74.637 43.2814 74.7793 43.4619C74.9216 43.6422 75.1585 43.7324 75.4902 43.7324C75.9645 43.7324 76.3869 43.5234 76.7568 43.1055C76.975 42.8585 77.1556 42.5874 77.2979 42.293C77.4495 41.9892 77.5535 41.6898 77.6104 41.3955L78.4072 37.4346H79.8867L78.6494 43.6045H79.6025L79.3604 44.8438H78.2227C77.8907 44.8438 77.6292 44.7589 77.4395 44.5879C77.2592 44.4074 77.1699 44.1643 77.1699 43.8604C77.17 43.737 77.1835 43.5948 77.2119 43.4336L77.2402 43.2627H77.1699C76.8948 43.8326 76.5763 44.2693 76.2158 44.5732C75.8555 44.8676 75.4099 45.0146 74.8789 45.0146C74.2718 45.0146 73.8111 44.8388 73.498 44.4873C73.1948 44.1359 73.043 43.647 73.043 43.0205C73.043 42.8592 73.0524 42.6975 73.0713 42.5361C73.0903 42.3747 73.1193 42.1987 73.1572 42.0088L74.0674 37.4346H75.5469L74.6514 41.9375ZM39.373 39.0166H39.458C39.5434 38.8266 39.6482 38.6363 39.7715 38.4463C39.9043 38.2563 40.061 38.0898 40.2412 37.9473C40.4213 37.7954 40.6251 37.6721 40.8525 37.5771C41.0896 37.4822 41.3554 37.4346 41.6494 37.4346H42.0625L41.7637 38.9023H41.2656C40.6113 38.9023 40.1036 39.0588 39.7432 39.3721C39.3827 39.6855 39.1502 40.1138 39.0459 40.6553L38.2061 44.8438H36.7266L38.2061 37.4346H39.6865L39.373 39.0166ZM65.7744 37.2637C66.3718 37.2638 66.8173 37.4396 67.1113 37.791C67.4149 38.133 67.5664 38.613 67.5664 39.2305C67.5664 39.5723 67.5238 39.943 67.4385 40.3418L66.7842 43.6045H67.6807L67.4385 44.8438H66.3145C65.992 44.8437 65.7356 44.7682 65.5459 44.6162C65.3658 44.4547 65.2764 44.2218 65.2764 43.918C65.2764 43.7945 65.2899 43.6755 65.3184 43.5615L65.959 40.3418C65.9874 40.1993 66.0113 40.0607 66.0303 39.9277C66.0492 39.7949 66.0586 39.6715 66.0586 39.5576C66.0586 39.2347 65.9828 38.9874 65.8311 38.8164C65.6888 38.636 65.4604 38.5459 65.1475 38.5459C64.7113 38.546 64.3083 38.7551 63.9385 39.1729C63.7298 39.4008 63.5544 39.6668 63.4121 39.9707C63.2698 40.2747 63.1702 40.5695 63.1133 40.8545L62.3164 44.8438H60.8369L61.7334 40.3555C61.7618 40.2131 61.7848 40.0753 61.8037 39.9424C61.8227 39.8001 61.833 39.6673 61.833 39.5439C61.833 39.2305 61.7614 38.9874 61.6191 38.8164C61.4864 38.6361 61.2681 38.5459 60.9648 38.5459C60.7182 38.5459 60.4899 38.6028 60.2812 38.7168C60.0726 38.8308 59.8878 38.9829 59.7266 39.1729C59.5084 39.4198 59.3237 39.6909 59.1719 39.9854C59.0201 40.2798 58.9153 40.5695 58.8584 40.8545L58.0615 44.8438H56.582L58.0615 37.4346H59.542L59.2285 39.0166H59.2998C59.5749 38.4466 59.8883 38.0142 60.2393 37.7197C60.5996 37.4159 61.0546 37.2637 61.6045 37.2637C62.1452 37.2637 62.5582 37.4209 62.8428 37.7344C63.1272 38.0383 63.2882 38.4658 63.3262 39.0166H63.3975C63.6631 38.4561 63.9816 38.0237 64.3516 37.7197C64.731 37.4159 65.2054 37.2637 65.7744 37.2637ZM70.5322 43.6045H71.4863L71.2441 44.8438H70.1484C69.788 44.8437 69.5129 44.7537 69.3232 44.5732C69.1336 44.3833 69.0391 44.1411 69.0391 43.8467C69.0391 43.7517 69.0526 43.6327 69.0811 43.4902L70.291 37.4346H71.7705L70.5322 43.6045ZM89.9805 37.2637C90.5779 37.2637 91.0234 37.4397 91.3174 37.791C91.6209 38.133 91.7734 38.613 91.7734 39.2305C91.7734 39.5723 91.7299 39.943 91.6445 40.3418L90.9902 43.6045H91.8867L91.6445 44.8438H90.5205C90.1983 44.8437 89.9426 44.768 89.7529 44.6162C89.5727 44.4547 89.4824 44.2219 89.4824 43.918C89.4824 43.7945 89.496 43.6755 89.5244 43.5615L90.165 40.3418C90.1935 40.1993 90.2174 40.0607 90.2363 39.9277C90.2553 39.7949 90.2646 39.6715 90.2646 39.5576C90.2646 39.2347 90.1889 38.9874 90.0371 38.8164C89.8949 38.6362 89.6672 38.546 89.3545 38.5459C88.9182 38.5459 88.5145 38.7549 88.1445 39.1729C87.9359 39.4008 87.7604 39.6668 87.6182 39.9707C87.4759 40.2747 87.3763 40.5695 87.3193 40.8545L86.5225 44.8438H85.043L85.9395 40.3555C85.9679 40.2131 85.9918 40.0753 86.0107 39.9424C86.0297 39.8001 86.039 39.6673 86.0391 39.5439C86.0391 39.2305 85.9675 38.9874 85.8252 38.8164C85.6924 38.6362 85.4742 38.5459 85.1709 38.5459C84.9243 38.5459 84.696 38.6028 84.4873 38.7168C84.2787 38.8308 84.0938 38.9829 83.9326 39.1729C83.7145 39.4198 83.5297 39.6909 83.3779 39.9854C83.2262 40.2798 83.1214 40.5696 83.0645 40.8545L82.2686 44.8438H80.7881L82.2686 37.4346H83.748L83.4346 39.0166H83.5059C83.781 38.4466 84.0943 38.0142 84.4453 37.7197C84.8058 37.4158 85.2614 37.2637 85.8115 37.2637C86.352 37.2638 86.7643 37.421 87.0488 37.7344C87.3333 38.0383 87.4953 38.4658 87.5332 39.0166H87.6035C87.8691 38.4561 88.1877 38.0237 88.5576 37.7197C88.937 37.4159 89.4114 37.2637 89.9805 37.2637ZM46.0479 38.4463C45.5356 38.4463 45.0894 38.6222 44.71 38.9736C44.3402 39.3156 44.0982 39.7813 43.9844 40.3701L43.9131 40.7402C44.5866 40.7117 45.1376 40.6642 45.5645 40.5977C45.9911 40.5312 46.3235 40.4411 46.5605 40.3271C46.807 40.2132 46.9733 40.0755 47.0586 39.9141C47.1439 39.7526 47.1865 39.5673 47.1865 39.3584C47.1865 39.1782 47.1531 39.0309 47.0869 38.917C47.0206 38.7936 46.9301 38.6983 46.8164 38.6318C46.7122 38.5559 46.5936 38.5083 46.4609 38.4893C46.3281 38.4608 46.1901 38.4463 46.0479 38.4463ZM53.3291 38.4463C52.8169 38.4463 52.3706 38.6222 51.9912 38.9736C51.6214 39.3156 51.3794 39.7813 51.2656 40.3701L51.1953 40.7402C51.8686 40.7117 52.4189 40.6641 52.8457 40.5977C53.2724 40.5312 53.6047 40.4411 53.8418 40.3271C54.0883 40.2132 54.2545 40.0755 54.3398 39.9141C54.4252 39.7526 54.4678 39.5673 54.4678 39.3584C54.4678 39.1781 54.4344 39.0309 54.3682 38.917C54.3018 38.7936 54.2114 38.6983 54.0977 38.6318C53.9934 38.5559 53.8748 38.5083 53.7422 38.4893C53.6094 38.4608 53.4714 38.4463 53.3291 38.4463ZM71.6426 34.2432C71.9177 34.2432 72.1169 34.3001 72.2402 34.4141C72.3635 34.528 72.4248 34.6709 72.4248 34.8418C72.4247 34.9369 72.4009 35.1028 72.3535 35.3398C72.3061 35.5582 72.2072 35.7436 72.0557 35.8955C71.9039 36.038 71.6611 36.1094 71.3291 36.1094C71.0542 36.1093 70.8547 36.0524 70.7314 35.9385C70.6083 35.8245 70.5469 35.6816 70.5469 35.5107C70.5469 35.4158 70.5708 35.2498 70.6182 35.0127C70.6656 34.7942 70.7652 34.6132 70.917 34.4707C71.0688 34.3188 71.3107 34.2432 71.6426 34.2432Z" fill="white"/>
<path fill-rule="evenodd" clip-rule="evenodd" d="M56.4023 28.0698L53.6128 23.6731C53.3719 23.2951 53.3685 22.8124 53.6039 22.4309L57.2006 16.6026C57.4322 16.2272 57.842 15.9994 58.2826 16.001L63.4751 16.0196C63.4868 16.0196 63.4983 16.0199 63.5098 16.0205C64.0161 16.0466 64.2937 16.6267 64.0145 17.0504L60.4109 22.5174C60.2755 22.7963 59.9606 22.9714 59.6172 22.8928C59.363 22.8346 59.1574 22.6268 59.1007 22.3721C59.0617 22.1973 59.0886 22.0307 59.1604 21.8913C59.1605 21.8911 59.1606 21.8909 59.1607 21.8907C59.1607 21.8905 59.1608 21.8903 59.1609 21.8901L59.1618 21.8888C59.1832 21.8478 59.2085 21.8091 59.2372 21.7732L59.7859 20.9334C59.9485 20.6913 59.797 20.3629 59.5074 20.3296L58.1886 20.2293C57.9438 20.2106 57.702 20.2938 57.5203 20.459C57.2816 20.7386 56.2214 22.4508 55.7374 23.2534C55.5812 23.5125 55.6 23.8359 55.7751 24.0825L55.7691 24.0855L57.4485 26.7258L57.7635 27.2268C57.7963 27.269 57.825 27.3145 57.849 27.3628L57.8608 27.3815L57.8599 27.3857C57.9218 27.5204 57.9478 27.6749 57.925 27.8372C57.8772 28.1772 57.6057 28.4589 57.2673 28.5155C56.8898 28.5787 56.5505 28.3788 56.4023 28.0698ZM65.7084 17.496L68.5174 21.8802C68.76 22.2571 68.7655 22.7398 68.5319 23.1223L64.9612 28.9667C64.7312 29.343 64.3225 29.5727 63.8818 29.5731L58.6893 29.5778C58.6777 29.5778 58.6661 29.5776 58.6546 29.577C58.1483 29.5532 57.868 28.9743 58.1453 28.5494L61.7244 23.0662C61.8587 22.7868 62.1728 22.6103 62.5165 22.6874C62.7709 22.7444 62.9775 22.9512 63.0353 23.2057C63.0751 23.3804 63.049 23.547 62.9777 23.6869L62.9774 23.688L62.9764 23.6893C62.9552 23.7306 62.9301 23.7693 62.9014 23.8052L62.3566 24.6475C62.1951 24.8904 62.348 25.2181 62.6377 25.2501L63.9569 25.3445C64.2019 25.362 64.4432 25.2778 64.6243 25.1118C64.8618 24.8312 65.9142 23.1143 66.3946 22.3095C66.5497 22.0497 66.5296 21.7264 66.3533 21.4806L66.3593 21.4776L64.6681 18.8447L64.3509 18.3451C64.3178 18.303 64.289 18.2577 64.2647 18.2095L64.2529 18.1909L64.2538 18.1867C64.1913 18.0523 64.1647 17.8979 64.1867 17.7355C64.2329 17.3952 64.5031 17.1124 64.8413 17.0543C65.2186 16.9893 65.5587 17.1877 65.7084 17.496Z" fill="white"/>
<path d="M51.8892 49.8723C51.8425 49.4662 51.6498 49.1516 51.3111 48.9286C50.9724 48.7026 50.5462 48.5897 50.0323 48.5897C49.6644 48.5897 49.3462 48.6469 49.0776 48.7613C48.809 48.8728 48.6002 49.0272 48.4513 49.2246C48.3053 49.419 48.2323 49.6407 48.2323 49.8895C48.2323 50.0982 48.282 50.2784 48.3812 50.43C48.4834 50.5815 48.6163 50.7088 48.7798 50.8117C48.9462 50.9118 49.1243 50.9962 49.3141 51.0648C49.5038 51.1306 49.6863 51.1849 49.8615 51.2278L50.7374 51.4509C51.0235 51.5195 51.317 51.6125 51.6177 51.7297C51.9184 51.847 52.1972 52.0014 52.4542 52.193C52.7111 52.3846 52.9184 52.622 53.076 52.9051C53.2366 53.1882 53.3169 53.5271 53.3169 53.9217C53.3169 54.4193 53.1855 54.8612 52.9228 55.2473C52.6629 55.6333 52.2848 55.9379 51.7885 56.161C51.2951 56.384 50.698 56.4956 49.9973 56.4956C49.3257 56.4956 48.7447 56.3912 48.2542 56.1824C47.7637 55.9736 47.3798 55.6777 47.1024 55.2944C46.8251 54.9084 46.6718 54.4508 46.6426 53.9217H48.0002C48.0265 54.2392 48.1316 54.5037 48.3155 54.7153C48.5024 54.9241 48.7404 55.08 49.0294 55.1829C49.3214 55.283 49.6411 55.3331 49.9885 55.3331C50.371 55.3331 50.7111 55.2744 51.0089 55.1572C51.3097 55.0371 51.5461 54.8712 51.7184 54.6596C51.8907 54.4451 51.9768 54.1949 51.9768 53.9089C51.9768 53.6486 51.9009 53.4356 51.7491 53.2697C51.6002 53.1038 51.3972 52.9666 51.1403 52.8579C50.8863 52.7492 50.5987 52.6534 50.2776 52.5705L49.2177 52.2874C48.4995 52.0958 47.9301 51.8141 47.5097 51.4423C47.0922 51.0705 46.8834 50.5787 46.8834 49.9667C46.8834 49.4605 47.0236 49.0186 47.3039 48.6412C47.5842 48.2637 47.9637 47.9705 48.4425 47.7618C48.9214 47.5501 49.4615 47.4443 50.063 47.4443C50.6702 47.4443 51.206 47.5487 51.6702 47.7575C52.1374 47.9662 52.5053 48.2537 52.7739 48.6197C53.0425 48.9829 53.1826 49.4004 53.1943 49.8723H51.8892Z" fill="white"/>
<path d="M56.7866 56.4956C56.3603 56.4956 55.9749 56.4183 55.6304 56.2639C55.2859 56.1066 55.0129 55.8793 54.8114 55.5819C54.6129 55.2844 54.5136 54.9198 54.5136 54.488C54.5136 54.1162 54.5866 53.8102 54.7326 53.57C54.8786 53.3298 55.0756 53.1396 55.3238 52.9995C55.572 52.8593 55.8494 52.7535 56.1559 52.682C56.4625 52.6105 56.7749 52.5562 57.0931 52.519C57.496 52.4733 57.823 52.4361 58.0741 52.4075C58.3252 52.376 58.5077 52.326 58.6216 52.2574C58.7354 52.1887 58.7924 52.0772 58.7924 51.9228V51.8927C58.7924 51.5181 58.6843 51.2278 58.4683 51.0219C58.2552 50.816 57.9369 50.7131 57.5136 50.7131C57.0727 50.7131 56.7253 50.8089 56.4712 51.0005C56.2202 51.1892 56.0464 51.3994 55.9501 51.6311L54.7194 51.3565C54.8654 50.9562 55.0786 50.633 55.3589 50.3871C55.6421 50.1383 55.9676 49.9581 56.3355 49.8466C56.7034 49.7322 57.0902 49.675 57.496 49.675C57.7647 49.675 58.0493 49.7064 58.35 49.7693C58.6537 49.8294 58.9369 49.9409 59.1997 50.1039C59.4654 50.2669 59.6829 50.5 59.8522 50.8032C60.0215 51.1034 60.1062 51.4938 60.1062 51.9742V56.3497H58.8274V55.4489H58.7749C58.6902 55.6147 58.5632 55.7777 58.3938 55.9379C58.2245 56.098 58.007 56.231 57.7413 56.3368C57.4756 56.4426 57.1574 56.4956 56.7866 56.4956ZM57.0712 55.466C57.4333 55.466 57.7428 55.396 57.9997 55.2558C58.2595 55.1157 58.4566 54.9327 58.5909 54.7068C58.7281 54.478 58.7968 54.2335 58.7968 53.9732V53.1239C58.75 53.1696 58.6595 53.2125 58.5252 53.2526C58.3938 53.2897 58.2435 53.3226 58.0741 53.3512C57.9048 53.377 57.7398 53.4013 57.5793 53.4241C57.4187 53.4442 57.2844 53.4613 57.1763 53.4756C56.9223 53.5071 56.6902 53.56 56.48 53.6343C56.2727 53.7087 56.1063 53.8159 55.9807 53.9561C55.8581 54.0933 55.7968 54.2764 55.7968 54.5051C55.7968 54.8226 55.9165 55.0628 56.1559 55.2258C56.3953 55.386 56.7004 55.466 57.0712 55.466Z" fill="white"/>
<path d="M63.808 56.4956C63.3817 56.4956 62.9963 56.4183 62.6518 56.2639C62.3073 56.1066 62.0343 55.8793 61.8328 55.5819C61.6343 55.2844 61.535 54.9198 61.535 54.488C61.535 54.1162 61.608 53.8102 61.754 53.57C61.9 53.3298 62.0971 53.1396 62.3452 52.9995C62.5934 52.8593 62.8708 52.7535 63.1773 52.682C63.4839 52.6105 63.7963 52.5562 64.1145 52.519C64.5175 52.4733 64.8445 52.4361 65.0955 52.4075C65.3466 52.376 65.5291 52.326 65.643 52.2574C65.7569 52.1887 65.8138 52.0772 65.8138 51.9228V51.8927C65.8138 51.5181 65.7058 51.2278 65.4897 51.0219C65.2766 50.816 64.9583 50.7131 64.535 50.7131C64.0941 50.7131 63.7467 50.8089 63.4927 51.0005C63.2416 51.1892 63.0678 51.3994 62.9715 51.6311L61.7409 51.3565C61.8868 50.9562 62.1 50.633 62.3803 50.3871C62.6635 50.1383 62.989 49.9581 63.3569 49.8466C63.7248 49.7322 64.1116 49.675 64.5175 49.675C64.7861 49.675 65.0707 49.7064 65.3715 49.7693C65.6751 49.8294 65.9583 49.9409 66.2211 50.1039C66.4868 50.2669 66.7043 50.5 66.8736 50.8032C67.043 51.1034 67.1276 51.4938 67.1276 51.9742V56.3497H65.8488V55.4489H65.7963C65.7116 55.6147 65.5846 55.7777 65.4153 55.9379C65.2459 56.098 65.0284 56.231 64.7627 56.3368C64.497 56.4426 64.1788 56.4956 63.808 56.4956ZM64.0926 55.466C64.4547 55.466 64.7642 55.396 65.0211 55.2558C65.2809 55.1157 65.478 54.9327 65.6123 54.7068C65.7496 54.478 65.8182 54.2335 65.8182 53.9732V53.1239C65.7715 53.1696 65.6809 53.2125 65.5466 53.2526C65.4153 53.2897 65.2649 53.3226 65.0955 53.3512C64.9262 53.377 64.7612 53.4013 64.6007 53.4241C64.4401 53.4442 64.3058 53.4613 64.1978 53.4756C63.9437 53.5071 63.7116 53.56 63.5014 53.6343C63.2941 53.7087 63.1277 53.8159 63.0022 53.9561C62.8795 54.0933 62.8182 54.2764 62.8182 54.5051C62.8182 54.8226 62.9379 55.0628 63.1773 55.2258C63.4167 55.386 63.7218 55.466 64.0926 55.466Z" fill="white"/>
<path d="M73.8688 49.8723C73.822 49.4662 73.6293 49.1516 73.2907 48.9286C72.952 48.7026 72.5257 48.5897 72.0119 48.5897C71.644 48.5897 71.3257 48.6469 71.0571 48.7613C70.7885 48.8728 70.5798 49.0272 70.4309 49.2246C70.2849 49.419 70.2119 49.6407 70.2119 49.8895C70.2119 50.0982 70.2615 50.2784 70.3608 50.43C70.463 50.5815 70.5958 50.7088 70.7593 50.8117C70.9257 50.9118 71.1038 50.9962 71.2936 51.0648C71.4834 51.1306 71.6659 51.1849 71.8411 51.2278L72.717 51.4509C73.0031 51.5195 73.2965 51.6125 73.5972 51.7297C73.898 51.847 74.1768 52.0014 74.4337 52.193C74.6906 52.3846 74.8979 52.622 75.0556 52.9051C75.2162 53.1882 75.2965 53.5271 75.2965 53.9217C75.2965 54.4193 75.1651 54.8612 74.9023 55.2473C74.6425 55.6333 74.2644 55.9379 73.768 56.161C73.2746 56.384 72.6775 56.4956 71.9768 56.4956C71.3053 56.4956 70.7243 56.3912 70.2338 56.1824C69.7433 55.9736 69.3593 55.6777 69.082 55.2944C68.8046 54.9084 68.6513 54.4508 68.6221 53.9217H69.9798C70.0061 54.2392 70.1112 54.5037 70.2951 54.7153C70.482 54.9241 70.7199 55.08 71.009 55.1829C71.3009 55.283 71.6206 55.3331 71.9681 55.3331C72.3505 55.3331 72.6907 55.2744 72.9885 55.1572C73.2892 55.0371 73.5257 54.8712 73.698 54.6596C73.8702 54.4451 73.9563 54.1949 73.9563 53.9089C73.9563 53.6486 73.8804 53.4356 73.7286 53.2697C73.5797 53.1038 73.3768 52.9666 73.1199 52.8579C72.8659 52.7492 72.5783 52.6534 72.2571 52.5705L71.1973 52.2874C70.479 52.0958 69.9097 51.8141 69.4893 51.4423C69.0718 51.0705 68.863 50.5787 68.863 49.9667C68.863 49.4605 69.0031 49.0186 69.2834 48.6412C69.5637 48.2637 69.9433 47.9705 70.4221 47.7618C70.9009 47.5501 71.4411 47.4443 72.0425 47.4443C72.6498 47.4443 73.1856 47.5487 73.6498 47.7575C74.1169 47.9662 74.4848 48.2537 74.7534 48.6197C75.022 48.9829 75.1622 49.4004 75.1738 49.8723H73.8688Z" fill="white"/>
<circle cx="114.564" cy="74" r="3" fill="#6B68C6"/>
<rect x="48.9219" y="79.9336" width="28.5479" height="10.2773" fill="#39366E"/>
<rect x="38.7598" y="87.6992" width="84.2735" height="4.1109" rx="1.57101" fill="#6B68C6"/>
<path d="M105.715 91.5448C106.655 91.5448 109.631 94.2617 111.002 95.6202C113.155 95.8143 116.405 94.5722 112.176 88.0515C106.89 79.9007 99.8417 81.0397 98.667 81.0397C96.6671 81.0397 88.837 84.4314 88.837 86.5566C88.837 87.721 92.2059 85.1405 93.968 87.4694C95.7301 89.7982 104.541 91.5448 105.715 91.5448Z" fill="#D18A66"/>
<path d="M170.902 95.0819C170.902 74.1965 164.411 61.519 161.165 55.7938C159.116 54.8778 146.002 58.4848 143.305 65.3549C137.371 80.4695 136.659 90.1143 130.566 93.499C124.474 96.8838 116.066 91.499 113.066 89.999L108.381 108.822C110.089 111.57 112.993 115.693 116.58 117.754C119.56 119.465 120.68 119.815 124.268 119.815C127.855 119.815 136.054 130.807 145.279 130.807C161.686 130.807 170.902 121.189 170.902 95.0819Z" fill="#235C58"/>
<path d="M87.8513 94.0893C88.9977 94.0893 92.6282 97.4332 94.3001 99.1051C96.9274 99.3439 100.892 97.8153 95.7332 89.7901C89.2843 79.7586 80.6859 80.1038 79.2528 80.1038C77.8197 80.1038 74.2719 79.9242 71.4058 82.7903C68.5396 85.6565 66.2205 85.746 67.0097 86.9422C68.2237 88.782 77.1032 86.9239 79.2528 89.7901C81.4024 92.6562 86.4182 94.0893 87.8513 94.0893Z" fill="#EAA785"/>
<path d="M176.145 99.4667C176.145 77.6839 167.068 60.296 162.53 54.3248C159.664 53.3694 150.538 57.9076 146.767 65.0729C138.47 80.8368 140.318 98.7501 128.853 98.7501C119.108 98.7501 106.359 91.6524 99.4325 87.3532L86.0238 108.18C88.5914 114.456 95.1758 120.963 100.192 123.112C104.357 124.898 105.924 125.262 110.94 125.262C115.955 125.262 127.61 136 140.507 136C163.448 136 176.145 126.695 176.145 99.4667Z" fill="url(#paint1_linear_8817_2077)"/>
<path d="M162.527 54.3248L158.228 45.0098C153.69 42.3825 143.291 39.8082 147.48 45.7263C153.566 54.3243 150.346 59.1017 150.346 61.4902L162.527 54.3248Z" fill="#D18A66"/>
<path d="M169.26 40.7104C173.559 37.1277 174.275 31.3954 174.275 28.5292C174.275 21.3639 169.976 14.915 157.078 14.915C146.76 14.915 139.404 25.6978 137.732 29.9971C136.06 32.6244 134.149 36.1245 134.149 37.8442C134.149 39.5639 136.538 40.4715 137.732 40.7104C139.165 47.1592 145.614 49.3088 150.63 49.3088C155.645 49.3088 164.96 44.2931 169.26 40.7104Z" fill="#EAA785"/>
<path d="M159 40.1289C161.598 40.1289 163.746 42.3833 163.746 45.2178C163.746 48.0522 161.597 50.3056 159 50.3057C156.402 50.3057 154.254 48.0522 154.254 45.2178C154.254 42.3832 156.402 40.1289 159 40.1289Z" stroke="#C28E06" stroke-width="0.785507"/>
<path opacity="0.52" fill-rule="evenodd" clip-rule="evenodd" d="M143.164 26.4827C142.626 25.4647 141.87 24.8125 141.021 24.8125C140.172 24.8125 139.416 25.4647 138.878 26.4827C138.427 27.3367 138.124 28.4566 138.038 29.6998C138.021 29.6892 138.005 29.6788 137.988 29.6688C137.863 29.5942 137.708 29.5286 137.539 29.4957C137.282 29.4461 136.982 29.4702 136.698 29.6617C136.601 28.8799 136.404 28.1768 136.134 27.6146C135.74 26.794 135.178 26.2528 134.537 26.2528C133.896 26.2528 133.334 26.794 132.94 27.6146C132.546 28.4366 132.307 29.5598 132.307 30.7897C132.307 32.0196 132.546 33.1428 132.94 33.9649C133.334 34.7855 133.896 35.3267 134.537 35.3267C135.178 35.3267 135.74 34.7855 136.134 33.9649C136.528 33.1428 136.768 32.0196 136.768 30.7897C136.768 30.5625 136.759 30.3389 136.744 30.1202C136.985 29.912 137.254 29.8769 137.496 29.9237C137.636 29.9508 137.764 30.0053 137.865 30.0658C137.931 30.1053 137.982 30.1446 138.015 30.1763C138.013 30.2603 138.012 30.3448 138.012 30.4297C138.012 31.9622 138.34 33.3584 138.878 34.3766C139.416 35.3946 140.172 36.0468 141.021 36.0468C141.87 36.0468 142.626 35.3946 143.164 34.3766C143.701 33.3584 144.029 31.9622 144.029 30.4297C144.029 28.8971 143.701 27.5009 143.164 26.4827ZM142.913 26.7383C143.407 27.6749 143.718 28.9793 143.718 30.4297C143.718 31.88 143.407 33.1844 142.913 34.1211C142.418 35.0578 141.747 35.6147 141.021 35.6147C140.295 35.6147 139.624 35.0578 139.129 34.1211C138.634 33.1844 138.324 31.88 138.324 30.4297C138.324 28.9793 138.634 27.6749 139.129 26.7383C139.624 25.8015 140.295 25.2446 141.021 25.2446C141.747 25.2446 142.418 25.8015 142.913 26.7383ZM135.875 27.8542C136.231 28.596 136.456 29.6333 136.456 30.7897C136.456 31.9462 136.231 32.9834 135.875 33.7252C135.518 34.4685 135.042 34.8946 134.537 34.8946C134.032 34.8946 133.556 34.4685 133.199 33.7252C132.843 32.9834 132.618 31.9462 132.618 30.7897C132.618 29.6333 132.843 28.596 133.199 27.8542C133.556 27.1109 134.032 26.6849 134.537 26.6849C135.042 26.6849 135.518 27.1109 135.875 27.8542Z" fill="white"/>
<path d="M129.132 14.5222C129.132 21.3994 134.275 24.734 139.869 26.2579C140.772 26.5038 141.687 26.7026 142.594 26.8615C139.766 26.5714 136.957 25.891 134.591 24.6098C132.469 23.4599 130.707 21.8281 129.607 19.5613C128.506 17.294 128.059 14.3759 128.593 10.641L128.238 10.5903C127.697 14.3791 128.146 17.3724 129.284 19.7178C130.423 22.0637 132.244 23.7459 134.421 24.9248C138.198 26.9708 143.056 27.5069 147.329 27.3759C147.983 27.4066 148.608 27.4201 149.195 27.4201C149.195 28.1367 149.912 30.2863 151.345 31.7193C153.723 34.0974 156.594 33.5158 157.913 33.2488C158.183 33.194 158.388 33.1524 158.51 33.1524C159.227 33.1524 162.093 33.1524 162.093 36.0186C162.093 37.4516 161.018 38.3473 159.943 39.243C158.868 40.1387 156.361 45.1539 158.51 51.1892C160.66 57.2245 142.746 54.8526 151.345 69.506C159.943 84.1595 197.024 79.275 197.025 67.0638C197.026 54.8526 182.271 56.8677 178.464 49.9681C173.457 40.8911 174.274 30.1591 174.274 28.5307C174.274 21.3653 169.975 14.9165 157.077 14.9165C153.362 14.9165 150.217 16.031 147.635 17.6581C147.438 17.4526 147.234 17.2391 147.024 17.0195C143.922 13.7708 139.543 9.18407 135.581 9.18407C135.54 9.18407 135.494 9.18378 135.443 9.18345C134.051 9.1746 129.132 9.14334 129.132 14.5222Z" fill="#32281A"/>
<rect x="166.879" y="38.3652" width="9.59211" height="2.7406" rx="1.3703" fill="#28716A"/>
<path d="M216.85 72.1245C218.203 67.5905 214.807 63.0322 210.076 63.0322H182.289C178.816 63.0322 175.756 65.3124 174.762 68.6399L155.16 134.288H198.288L216.85 72.1245Z" fill="url(#paint2_linear_8817_2077)"/>
<defs>
<linearGradient id="paint0_linear_8817_2077" x1="4.56445" y1="68.001" x2="120.564" y2="3.00098" gradientUnits="userSpaceOnUse">
<stop stop-color="#1A1B23"/>
<stop offset="0.508207" stop-color="#172D66"/>
<stop offset="1" stop-color="#482E5F"/>
</linearGradient>
<linearGradient id="paint1_linear_8817_2077" x1="123.064" y1="145" x2="184.064" y2="-70" gradientUnits="userSpaceOnUse">
<stop stop-color="#182E33"/>
<stop offset="0.403846" stop-color="#5CC1AE"/>
</linearGradient>
<linearGradient id="paint2_linear_8817_2077" x1="257.564" y1="30.999" x2="183.064" y2="142.499" gradientUnits="userSpaceOnUse">
<stop stop-color="#434089"/>
<stop offset="1" stop-color="#1A1B23"/>
</linearGradient>
</defs>
</svg>
