<svg width="220" height="136" viewBox="0 0 220 136" fill="none" xmlns="http://www.w3.org/2000/svg">
<line x1="2.07" y1="93.9671" x2="206.331" y2="93.9671" stroke="#434089" stroke-width="4.14" stroke-linecap="round"/>
<rect width="123.327" height="79.9342" rx="4" fill="#4F4BA5"/>
<rect x="2.56445" y="2.88574" width="117.839" height="65.4661" rx="2" fill="url(#paint0_linear_8861_14442)"/>
<path d="M54.5809 24.1783C54.5809 24.5284 54.6187 24.8123 54.685 25.0204C54.7606 25.2286 54.8553 25.4556 54.9877 25.7016C55.035 25.7773 55.054 25.853 55.054 25.9193C55.054 26.0139 54.9972 26.1085 54.8742 26.2031L54.2781 26.6005C54.193 26.6572 54.1078 26.6856 54.0321 26.6856C53.9375 26.6856 53.8429 26.6383 53.7483 26.5532C53.6158 26.4112 53.5023 26.2599 53.4077 26.1085C53.313 25.9476 53.2184 25.7679 53.1143 25.5503C52.3764 26.4207 51.4491 26.8559 50.3327 26.8559C49.5379 26.8559 48.904 26.6289 48.4404 26.1747C47.9768 25.7206 47.7402 25.115 47.7402 24.3581C47.7402 23.5539 48.0241 22.901 48.6012 22.409C49.1784 21.917 49.9448 21.6711 50.9193 21.6711C51.241 21.6711 51.5721 21.6994 51.9222 21.7467C52.2723 21.794 52.6318 21.8697 53.0103 21.9549V21.2642C53.0103 20.5451 52.8589 20.0437 52.5656 19.7504C52.2628 19.4571 51.7519 19.3151 51.0234 19.3151C50.6922 19.3151 50.3516 19.353 50.0015 19.4381C49.6515 19.5233 49.3108 19.6274 48.9797 19.7598C48.8283 19.8261 48.7148 19.8639 48.6485 19.8828C48.5823 19.9018 48.535 19.9112 48.4972 19.9112C48.3647 19.9112 48.2985 19.8166 48.2985 19.6179V19.1543C48.2985 19.0029 48.3174 18.8894 48.3647 18.8231C48.412 18.7569 48.4972 18.6907 48.6296 18.6245C48.9608 18.4542 49.3581 18.3122 49.8218 18.1987C50.2854 18.0757 50.7774 18.0189 51.2977 18.0189C52.4237 18.0189 53.2468 18.2744 53.7767 18.7853C54.297 19.2962 54.562 20.0721 54.562 21.1128V24.1783H54.5809ZM50.7395 25.6165C51.0517 25.6165 51.3734 25.5597 51.7141 25.4462C52.0547 25.3326 52.3574 25.1245 52.6129 24.8406C52.7643 24.6609 52.8778 24.4622 52.9346 24.2351C52.9913 24.008 53.0292 23.7337 53.0292 23.412V23.0146C52.7548 22.9483 52.4615 22.8916 52.1587 22.8537C51.856 22.8159 51.5627 22.797 51.2694 22.797C50.6354 22.797 50.1718 22.92 49.8596 23.1754C49.5474 23.4309 49.396 23.7904 49.396 24.2635C49.396 24.7082 49.5095 25.0393 49.7461 25.2664C49.9731 25.5029 50.3043 25.6165 50.7395 25.6165ZM58.3371 26.6383C58.1668 26.6383 58.0532 26.6099 57.9775 26.5437C57.9019 26.4869 57.8356 26.3545 57.7789 26.1747L55.5554 18.861C55.4986 18.6718 55.4703 18.5488 55.4703 18.4825C55.4703 18.3312 55.5459 18.246 55.6973 18.246H56.6246C56.8043 18.246 56.9273 18.2744 56.9936 18.3406C57.0692 18.3974 57.126 18.5298 57.1828 18.7096L58.7723 24.9731L60.2483 18.7096C60.2956 18.5204 60.3524 18.3974 60.4281 18.3406C60.5038 18.2838 60.6362 18.246 60.8065 18.246H61.5634C61.7432 18.246 61.8662 18.2744 61.9419 18.3406C62.0176 18.3974 62.0838 18.5298 62.1217 18.7096L63.6166 25.0488L65.2534 18.7096C65.3102 18.5204 65.3764 18.3974 65.4426 18.3406C65.5183 18.2838 65.6413 18.246 65.8116 18.246H66.6916C66.8429 18.246 66.9281 18.3217 66.9281 18.4825C66.9281 18.5298 66.9186 18.5771 66.9092 18.6339C66.8997 18.6907 66.8808 18.7664 66.8429 18.8705L64.5627 26.1842C64.506 26.3734 64.4397 26.4964 64.364 26.5532C64.2883 26.6099 64.1653 26.6478 64.0045 26.6478H63.1908C63.011 26.6478 62.888 26.6194 62.8124 26.5532C62.7367 26.4869 62.6704 26.3639 62.6326 26.1747L61.1661 20.0721L59.709 26.1652C59.6617 26.3545 59.6049 26.4775 59.5292 26.5437C59.4535 26.6099 59.3211 26.6383 59.1508 26.6383H58.3371ZM70.4951 26.8938C70.0031 26.8938 69.5111 26.837 69.038 26.7235C68.5649 26.6099 68.1959 26.4869 67.9499 26.345C67.7985 26.2599 67.6945 26.1652 67.6566 26.0801C67.6188 25.9949 67.5999 25.9003 67.5999 25.8152V25.3326C67.5999 25.1339 67.6756 25.0393 67.8175 25.0393C67.8742 25.0393 67.931 25.0488 67.9878 25.0677C68.0445 25.0866 68.1297 25.1245 68.2243 25.1623C68.546 25.3043 68.8961 25.4178 69.2651 25.4935C69.6435 25.5692 70.0125 25.607 70.391 25.607C70.9871 25.607 71.4507 25.5029 71.7724 25.2948C72.0941 25.0866 72.2644 24.7839 72.2644 24.396C72.2644 24.131 72.1792 23.9134 72.0089 23.7337C71.8386 23.5539 71.5169 23.393 71.0533 23.2417L69.6814 22.8159C68.9907 22.5983 68.4798 22.2766 68.1675 21.8508C67.8553 21.4345 67.6945 20.9709 67.6945 20.4789C67.6945 20.0815 67.7796 19.7314 67.9499 19.4287C68.1202 19.1259 68.3473 18.861 68.6312 18.6528C68.915 18.4352 69.2367 18.2744 69.6152 18.1608C69.9936 18.0473 70.391 18 70.8073 18C71.0154 18 71.2331 18.0095 71.4412 18.0378C71.6588 18.0662 71.8575 18.1041 72.0562 18.1419C72.2454 18.1892 72.4252 18.2365 72.5955 18.2933C72.7658 18.3501 72.8983 18.4068 72.9929 18.4636C73.1254 18.5393 73.22 18.615 73.2767 18.7001C73.3335 18.7758 73.3619 18.8799 73.3619 19.0124V19.4571C73.3619 19.6558 73.2862 19.7598 73.1443 19.7598C73.0686 19.7598 72.9456 19.722 72.7847 19.6463C72.2454 19.4003 71.6399 19.2773 70.9681 19.2773C70.4288 19.2773 70.0031 19.3625 69.7098 19.5422C69.4165 19.722 69.2651 19.9964 69.2651 20.3843C69.2651 20.6492 69.3597 20.8763 69.5489 21.0561C69.7381 21.2358 70.0882 21.4156 70.5897 21.5764L71.9332 22.0022C72.6144 22.2198 73.1064 22.5226 73.3997 22.9105C73.693 23.2984 73.835 23.7431 73.835 24.2351C73.835 24.642 73.7498 25.0109 73.589 25.3326C73.4187 25.6543 73.1916 25.9382 72.8983 26.1652C72.605 26.4018 72.2549 26.5721 71.8481 26.6951C71.4223 26.8276 70.9776 26.8938 70.4951 26.8938Z" fill="white"/>
<path fill-rule="evenodd" clip-rule="evenodd" d="M72.2838 31.4924C69.1709 33.7915 64.6483 35.0121 60.7597 35.0121C55.3099 35.0121 50.3994 32.9968 46.6905 29.6474C46.3972 29.3825 46.6621 29.023 47.0122 29.2311C51.0238 31.5586 55.9722 32.9684 61.0908 32.9684C64.5443 32.9684 68.3383 32.2493 71.8296 30.7733C72.35 30.5368 72.7947 31.1139 72.2838 31.4924Z" fill="#FF9900"/>
<path fill-rule="evenodd" clip-rule="evenodd" d="M73.581 30.0169C73.1837 29.506 70.9507 29.7709 69.9384 29.8939C69.6356 29.9318 69.5883 29.6669 69.8627 29.4682C71.6414 28.2193 74.565 28.5788 74.9056 28.9951C75.2463 29.4209 74.811 32.3445 73.1458 33.7448C72.8903 33.9624 72.6443 33.8488 72.7579 33.565C73.1363 32.6283 73.9784 30.5184 73.581 30.0169Z" fill="#FF9900"/>
<path d="M32.892 44.5069C33.6183 44.5069 34.165 44.6944 34.5321 45.0693C34.903 45.4441 35.0885 46.0455 35.0885 46.8733V51.114H33.712V47.1193C33.712 46.6273 33.6164 46.2563 33.425 46.0064C33.2337 45.7565 32.9428 45.6316 32.5523 45.6316C32.0056 45.6316 31.6112 45.8073 31.3691 46.1587C31.1309 46.5063 31.0118 47.0119 31.0118 47.6758V51.114H29.6353V47.1193C29.6353 46.7913 29.5924 46.518 29.5065 46.2993C29.4244 46.0767 29.2975 45.9108 29.1257 45.8014C28.9539 45.6882 28.7372 45.6316 28.4756 45.6316C28.0968 45.6316 27.7942 45.7175 27.5677 45.8893C27.3451 46.0611 27.185 46.3149 27.0874 46.6507C26.9897 46.9827 26.9409 47.3907 26.9409 47.8749V51.114H25.5645V44.63H26.6363L26.8296 45.5027H26.9058C27.0386 45.2762 27.2026 45.0907 27.3978 44.9462C27.597 44.7979 27.8176 44.6885 28.0597 44.6182C28.3018 44.544 28.5537 44.5069 28.8153 44.5069C29.2995 44.5069 29.7076 44.5929 30.0395 44.7647C30.3714 44.9326 30.6193 45.1903 30.7834 45.5378H30.8888C31.0918 45.1864 31.3749 44.9267 31.7381 44.7588C32.1013 44.5909 32.4859 44.5069 32.892 44.5069Z" fill="white"/>
<path d="M39.5518 44.5069C40.3718 44.5069 40.9908 44.6885 41.4086 45.0517C41.8303 45.4148 42.0412 45.981 42.0412 46.7503V51.114H41.063L40.7994 50.1944H40.7526C40.569 50.4287 40.3796 50.622 40.1844 50.7743C39.9892 50.9266 39.7627 51.0398 39.505 51.114C39.2511 51.1921 38.9407 51.2312 38.5736 51.2312C38.187 51.2312 37.8415 51.1609 37.5369 51.0203C37.2323 50.8758 36.9921 50.6572 36.8164 50.3643C36.6407 50.0714 36.5528 49.7005 36.5528 49.2514C36.5528 48.5837 36.8008 48.0819 37.2967 47.7461C37.7966 47.4102 38.5502 47.2248 39.5577 47.1896L40.6823 47.1486V46.8089C40.6823 46.3598 40.5768 46.0396 40.366 45.8483C40.159 45.6569 39.8662 45.5613 39.4874 45.5613C39.1633 45.5613 38.8489 45.6081 38.5443 45.7018C38.2398 45.7956 37.943 45.9108 37.654 46.0474L37.2089 45.0751C37.5252 44.9072 37.8844 44.7705 38.2866 44.6651C38.6927 44.5597 39.1145 44.5069 39.5518 44.5069ZM40.6764 48.0155L39.8388 48.0448C39.1516 48.0682 38.6693 48.1854 38.3921 48.3962C38.1148 48.6071 37.9762 48.8961 37.9762 49.2631C37.9762 49.5833 38.0719 49.8176 38.2632 49.966C38.4545 50.1105 38.7064 50.1827 39.0188 50.1827C39.4952 50.1827 39.8896 50.048 40.202 49.7786C40.5183 49.5052 40.6764 49.105 40.6764 48.5778V48.0155Z" fill="white"/>
<path d="M47.2542 44.5069C47.3636 44.5069 47.4827 44.5128 47.6115 44.5245C47.7404 44.5362 47.8517 44.5519 47.9454 44.5714L47.8165 45.86C47.7345 45.8366 47.633 45.819 47.512 45.8073C47.3948 45.7956 47.2894 45.7897 47.1957 45.7897C46.9496 45.7897 46.7154 45.8307 46.4928 45.9127C46.2702 45.9908 46.073 46.1119 45.9012 46.2759C45.7294 46.436 45.5946 46.6371 45.497 46.8792C45.3994 47.1213 45.3506 47.4024 45.3506 47.7226V51.114H43.9683V44.63H45.046L45.2334 45.7721H45.2979C45.4267 45.5417 45.5868 45.3309 45.7782 45.1395C45.9695 44.9482 46.1882 44.7959 46.4342 44.6827C46.6841 44.5655 46.9575 44.5069 47.2542 44.5069Z" fill="white"/>
<path d="M50.5226 42V46.4047C50.5226 46.6039 50.5148 46.8226 50.4992 47.0608C50.4836 47.295 50.468 47.5157 50.4523 47.7226H50.4816C50.5832 47.586 50.7042 47.4259 50.8448 47.2423C50.9893 47.0588 51.1259 46.8987 51.2548 46.762L53.2346 44.63H54.8161L52.2213 47.4181L54.9859 51.114H53.3693L51.2958 48.2674L50.5226 48.9292V51.114H49.1462V42H50.5226Z" fill="white"/>
<path d="M58.6058 44.5069C59.1837 44.5069 59.6796 44.626 60.0935 44.8642C60.5075 45.1024 60.8257 45.4402 61.0483 45.8776C61.2709 46.3149 61.3822 46.8382 61.3822 47.4473V48.1854H57.0536C57.0692 48.8141 57.2371 49.2983 57.5573 49.638C57.8814 49.9777 58.3344 50.1476 58.9162 50.1476C59.3301 50.1476 59.7011 50.1085 60.0291 50.0304C60.361 49.9484 60.7027 49.8293 61.0541 49.6731V50.7919C60.73 50.9442 60.4001 51.0555 60.0643 51.1258C59.7284 51.196 59.3262 51.2312 58.8576 51.2312C58.2211 51.2312 57.6608 51.1082 57.1766 50.8622C56.6963 50.6123 56.3195 50.2413 56.0461 49.7493C55.7767 49.2573 55.642 48.6461 55.642 47.9159C55.642 47.1896 55.765 46.5726 56.011 46.065C56.257 45.5574 56.6026 45.1708 57.0477 44.9052C57.4929 44.6397 58.0122 44.5069 58.6058 44.5069ZM58.6058 45.5437C58.1723 45.5437 57.8209 45.6843 57.5515 45.9654C57.2859 46.2466 57.1297 46.6585 57.0829 47.2013H60.035C60.0311 46.8772 59.9764 46.5902 59.871 46.3403C59.7694 46.0904 59.6132 45.8951 59.4024 45.7546C59.1954 45.614 58.9299 45.5437 58.6058 45.5437Z" fill="white"/>
<path d="M65.3476 50.1183C65.5272 50.1183 65.7049 50.1027 65.8806 50.0714C66.0563 50.0363 66.2164 49.9953 66.3609 49.9484V50.991C66.2086 51.0574 66.0114 51.114 65.7693 51.1609C65.5272 51.2078 65.2753 51.2312 65.0137 51.2312C64.6467 51.2312 64.3167 51.1707 64.0238 51.0496C63.731 50.9247 63.4986 50.7118 63.3268 50.4112C63.155 50.1105 63.0691 49.6946 63.0691 49.1635V45.6784H62.1846V45.0634L63.1335 44.5772L63.5845 43.189H64.4514V44.63H66.3082V45.6784H64.4514V49.146C64.4514 49.474 64.5334 49.718 64.6974 49.8781C64.8614 50.0382 65.0781 50.1183 65.3476 50.1183Z" fill="white"/>
<path d="M71.0058 44.5069C71.7751 44.5069 72.392 44.7881 72.8567 45.3504C73.3253 45.9127 73.5596 46.7484 73.5596 47.8574C73.5596 48.5915 73.4503 49.2104 73.2316 49.7141C73.0168 50.214 72.7142 50.5927 72.3237 50.8505C71.9371 51.1043 71.4861 51.2312 70.9706 51.2312C70.6426 51.2312 70.3576 51.1882 70.1155 51.1023C69.8734 51.0164 69.6664 50.9051 69.4946 50.7685C69.3228 50.6279 69.1783 50.4756 69.0611 50.3116H68.9791C68.9987 50.4678 69.0162 50.6415 69.0319 50.8329C69.0514 51.0203 69.0611 51.1921 69.0611 51.3483V53.99H67.6788V44.63H68.8034L68.9967 45.5261H69.0611C69.1822 45.3426 69.3286 45.1727 69.5005 45.0165C69.6762 44.8603 69.887 44.7373 70.133 44.6475C70.383 44.5538 70.6739 44.5069 71.0058 44.5069ZM70.6368 45.6316C70.258 45.6316 69.9534 45.7077 69.723 45.86C69.4965 46.0084 69.3306 46.2329 69.2252 46.5336C69.1236 46.8343 69.069 47.2111 69.0611 47.6641V47.8574C69.0611 48.3377 69.11 48.7457 69.2076 49.0815C69.3091 49.4135 69.4751 49.6673 69.7055 49.843C69.9398 50.0148 70.2561 50.1007 70.6544 50.1007C70.9902 50.1007 71.2674 50.009 71.4861 49.8254C71.7087 49.6419 71.8746 49.3803 71.984 49.0405C72.0933 48.7008 72.148 48.3006 72.148 47.8398C72.148 47.1408 72.023 46.598 71.7731 46.2114C71.5271 45.8249 71.1483 45.6316 70.6368 45.6316Z" fill="white"/>
<path d="M76.5351 51.114H75.1528V42H76.5351V51.114Z" fill="white"/>
<path d="M81.0453 44.5069C81.8653 44.5069 82.4842 44.6885 82.9021 45.0517C83.3238 45.4148 83.5347 45.981 83.5347 46.7503V51.114H82.5565L82.2929 50.1944H82.246C82.0625 50.4287 81.8731 50.622 81.6779 50.7743C81.4826 50.9266 81.2562 51.0398 80.9984 51.114C80.7446 51.1921 80.4342 51.2312 80.0671 51.2312C79.6805 51.2312 79.3349 51.1609 79.0304 51.0203C78.7258 50.8758 78.4856 50.6572 78.3099 50.3643C78.1342 50.0714 78.0463 49.7005 78.0463 49.2514C78.0463 48.5837 78.2943 48.0819 78.7902 47.7461C79.29 47.4102 80.0437 47.2248 81.0511 47.1896L82.1758 47.1486V46.8089C82.1758 46.3598 82.0703 46.0396 81.8595 45.8483C81.6525 45.6569 81.3596 45.5613 80.9809 45.5613C80.6568 45.5613 80.3424 45.6081 80.0378 45.7018C79.7332 45.7956 79.4365 45.9108 79.1475 46.0474L78.7024 45.0751C79.0186 44.9072 79.3779 44.7705 79.7801 44.6651C80.1862 44.5597 80.6079 44.5069 81.0453 44.5069ZM82.1699 48.0155L81.3323 48.0448C80.645 48.0682 80.1628 48.1854 79.8855 48.3962C79.6083 48.6071 79.4697 48.8961 79.4697 49.2631C79.4697 49.5833 79.5653 49.8176 79.7567 49.966C79.948 50.1105 80.1999 50.1827 80.5123 50.1827C80.9887 50.1827 81.3831 50.048 81.6955 49.7786C82.0118 49.5052 82.1699 49.105 82.1699 48.5778V48.0155Z" fill="white"/>
<path d="M88.0741 51.2312C87.461 51.2312 86.93 51.1121 86.4809 50.8739C86.0318 50.6357 85.6863 50.2706 85.4442 49.7786C85.2021 49.2865 85.081 48.6618 85.081 47.9042C85.081 47.1154 85.2138 46.4711 85.4793 45.9713C85.7448 45.4715 86.1119 45.1024 86.5805 44.8642C87.053 44.626 87.5938 44.5069 88.203 44.5069C88.5896 44.5069 88.939 44.546 89.2514 44.6241C89.5677 44.6983 89.8352 44.7901 90.0539 44.8994L89.6439 46.0006C89.4057 45.9029 89.1616 45.8209 88.9117 45.7546C88.6618 45.6882 88.4216 45.655 88.1913 45.655C87.8125 45.655 87.4962 45.7389 87.2424 45.9069C86.9925 46.0748 86.805 46.3247 86.6801 46.6566C86.559 46.9885 86.4985 47.4005 86.4985 47.8925C86.4985 48.3689 86.561 48.7711 86.6859 49.0991C86.8109 49.4232 86.9964 49.6692 87.2424 49.8371C87.4884 50.0011 87.791 50.0831 88.1503 50.0831C88.5056 50.0831 88.8239 50.0402 89.105 49.9543C89.3862 49.8684 89.6517 49.7571 89.9016 49.6204V50.8153C89.6556 50.9559 89.392 51.0594 89.1109 51.1258C88.8297 51.196 88.4841 51.2312 88.0741 51.2312Z" fill="white"/>
<path d="M94.0076 44.5069C94.5855 44.5069 95.0815 44.626 95.4954 44.8642C95.9093 45.1024 96.2275 45.4402 96.4501 45.8776C96.6727 46.3149 96.784 46.8382 96.784 47.4473V48.1854H92.4554C92.471 48.8141 92.6389 49.2983 92.9591 49.638C93.2832 49.9777 93.7362 50.1476 94.3181 50.1476C94.732 50.1476 95.1029 50.1085 95.4309 50.0304C95.7629 49.9484 96.1045 49.8293 96.456 49.6731V50.7919C96.1319 50.9442 95.8019 51.0555 95.4661 51.1258C95.1303 51.196 94.7281 51.2312 94.2595 51.2312C93.623 51.2312 93.0626 51.1082 92.5784 50.8622C92.0981 50.6123 91.7213 50.2413 91.4479 49.7493C91.1785 49.2573 91.0438 48.6461 91.0438 47.9159C91.0438 47.1896 91.1668 46.5726 91.4128 46.065C91.6588 45.5574 92.0044 45.1708 92.4496 44.9052C92.8947 44.6397 93.4141 44.5069 94.0076 44.5069ZM94.0076 45.5437C93.5742 45.5437 93.2227 45.6843 92.9533 45.9654C92.6878 46.2466 92.5316 46.6585 92.4847 47.2013H95.4368C95.4329 46.8772 95.3782 46.5902 95.2728 46.3403C95.1713 46.0904 95.0151 45.8951 94.8042 45.7546C94.5973 45.614 94.3317 45.5437 94.0076 45.5437Z" fill="white"/>
<circle cx="114.564" cy="74" r="3" fill="#6B68C6"/>
<rect x="48.9219" y="79.9336" width="28.5479" height="10.2773" fill="#39366E"/>
<rect x="38.7598" y="87.6992" width="84.2735" height="4.1109" rx="1.57101" fill="#6B68C6"/>
<path d="M105.715 91.5448C106.655 91.5448 109.631 94.2617 111.002 95.6202C113.155 95.8143 116.405 94.5722 112.176 88.0515C106.89 79.9007 99.8417 81.0397 98.667 81.0397C96.6671 81.0397 88.837 84.4314 88.837 86.5566C88.837 87.721 92.2059 85.1405 93.968 87.4694C95.7301 89.7982 104.541 91.5448 105.715 91.5448Z" fill="#D18A66"/>
<path d="M170.902 95.0819C170.902 74.1965 164.411 61.519 161.165 55.7938C159.116 54.8778 146.002 58.4848 143.305 65.3549C137.371 80.4695 136.659 90.1143 130.566 93.499C124.474 96.8838 116.066 91.499 113.066 89.999L108.381 108.822C110.089 111.57 112.993 115.693 116.58 117.754C119.56 119.465 120.68 119.815 124.268 119.815C127.855 119.815 136.054 130.807 145.279 130.807C161.686 130.807 170.902 121.189 170.902 95.0819Z" fill="#235C58"/>
<path d="M87.8513 94.0893C88.9977 94.0893 92.6282 97.4332 94.3001 99.1051C96.9274 99.3439 100.892 97.8153 95.7332 89.7901C89.2843 79.7586 80.6859 80.1038 79.2528 80.1038C77.8197 80.1038 74.2719 79.9242 71.4058 82.7903C68.5396 85.6565 66.2205 85.746 67.0097 86.9422C68.2237 88.782 77.1032 86.9239 79.2528 89.7901C81.4024 92.6562 86.4182 94.0893 87.8513 94.0893Z" fill="#EAA785"/>
<path d="M176.145 99.4667C176.145 77.6839 167.068 60.296 162.53 54.3248C159.664 53.3694 150.538 57.9076 146.767 65.0729C138.47 80.8368 140.318 98.7501 128.853 98.7501C119.108 98.7501 106.359 91.6524 99.4325 87.3532L86.0238 108.18C88.5914 114.456 95.1758 120.963 100.192 123.112C104.357 124.898 105.924 125.262 110.94 125.262C115.955 125.262 127.61 136 140.507 136C163.448 136 176.145 126.695 176.145 99.4667Z" fill="url(#paint1_linear_8861_14442)"/>
<path d="M162.527 54.3248L158.228 45.0098C153.69 42.3825 143.291 39.8082 147.48 45.7263C153.566 54.3243 150.346 59.1017 150.346 61.4902L162.527 54.3248Z" fill="#D18A66"/>
<path d="M169.26 40.7104C173.559 37.1277 174.275 31.3954 174.275 28.5292C174.275 21.3639 169.976 14.915 157.078 14.915C146.76 14.915 139.404 25.6978 137.732 29.9971C136.06 32.6244 134.149 36.1245 134.149 37.8442C134.149 39.5639 136.538 40.4715 137.732 40.7104C139.165 47.1592 145.614 49.3088 150.63 49.3088C155.645 49.3088 164.96 44.2931 169.26 40.7104Z" fill="#EAA785"/>
<path d="M159 40.1289C161.598 40.1289 163.746 42.3833 163.746 45.2178C163.746 48.0522 161.597 50.3056 159 50.3057C156.402 50.3057 154.254 48.0522 154.254 45.2178C154.254 42.3832 156.402 40.1289 159 40.1289Z" stroke="#C28E06" stroke-width="0.785507"/>
<path opacity="0.52" fill-rule="evenodd" clip-rule="evenodd" d="M143.164 26.4827C142.626 25.4647 141.87 24.8125 141.021 24.8125C140.172 24.8125 139.416 25.4647 138.878 26.4827C138.427 27.3367 138.124 28.4566 138.038 29.6998C138.021 29.6892 138.005 29.6788 137.988 29.6688C137.863 29.5942 137.708 29.5286 137.539 29.4957C137.282 29.4461 136.982 29.4702 136.698 29.6617C136.601 28.8799 136.404 28.1768 136.134 27.6146C135.74 26.794 135.178 26.2528 134.537 26.2528C133.896 26.2528 133.334 26.794 132.94 27.6146C132.546 28.4366 132.307 29.5598 132.307 30.7897C132.307 32.0196 132.546 33.1428 132.94 33.9649C133.334 34.7855 133.896 35.3267 134.537 35.3267C135.178 35.3267 135.74 34.7855 136.134 33.9649C136.528 33.1428 136.768 32.0196 136.768 30.7897C136.768 30.5625 136.759 30.3389 136.744 30.1202C136.985 29.912 137.254 29.8769 137.496 29.9237C137.636 29.9508 137.764 30.0053 137.865 30.0658C137.931 30.1053 137.982 30.1446 138.015 30.1763C138.013 30.2603 138.012 30.3448 138.012 30.4297C138.012 31.9622 138.34 33.3584 138.878 34.3766C139.416 35.3946 140.172 36.0468 141.021 36.0468C141.87 36.0468 142.626 35.3946 143.164 34.3766C143.701 33.3584 144.029 31.9622 144.029 30.4297C144.029 28.8971 143.701 27.5009 143.164 26.4827ZM142.913 26.7383C143.407 27.6749 143.718 28.9793 143.718 30.4297C143.718 31.88 143.407 33.1844 142.913 34.1211C142.418 35.0578 141.747 35.6147 141.021 35.6147C140.295 35.6147 139.624 35.0578 139.129 34.1211C138.634 33.1844 138.324 31.88 138.324 30.4297C138.324 28.9793 138.634 27.6749 139.129 26.7383C139.624 25.8015 140.295 25.2446 141.021 25.2446C141.747 25.2446 142.418 25.8015 142.913 26.7383ZM135.875 27.8542C136.231 28.596 136.456 29.6333 136.456 30.7897C136.456 31.9462 136.231 32.9834 135.875 33.7252C135.518 34.4685 135.042 34.8946 134.537 34.8946C134.032 34.8946 133.556 34.4685 133.199 33.7252C132.843 32.9834 132.618 31.9462 132.618 30.7897C132.618 29.6333 132.843 28.596 133.199 27.8542C133.556 27.1109 134.032 26.6849 134.537 26.6849C135.042 26.6849 135.518 27.1109 135.875 27.8542Z" fill="white"/>
<path d="M129.132 14.5222C129.132 21.3994 134.275 24.734 139.869 26.2579C140.772 26.5038 141.687 26.7026 142.594 26.8615C139.766 26.5714 136.957 25.891 134.591 24.6098C132.469 23.4599 130.707 21.8281 129.607 19.5613C128.506 17.294 128.059 14.3759 128.593 10.641L128.238 10.5903C127.697 14.3791 128.146 17.3724 129.284 19.7178C130.423 22.0637 132.244 23.7459 134.421 24.9248C138.198 26.9708 143.056 27.5069 147.329 27.3759C147.983 27.4066 148.608 27.4201 149.195 27.4201C149.195 28.1367 149.912 30.2863 151.345 31.7193C153.723 34.0974 156.594 33.5158 157.913 33.2488C158.183 33.194 158.388 33.1524 158.51 33.1524C159.227 33.1524 162.093 33.1524 162.093 36.0186C162.093 37.4516 161.018 38.3473 159.943 39.243C158.868 40.1387 156.361 45.1539 158.51 51.1892C160.66 57.2245 142.746 54.8526 151.345 69.506C159.943 84.1595 197.024 79.275 197.025 67.0638C197.026 54.8526 182.271 56.8677 178.464 49.9681C173.457 40.8911 174.274 30.1591 174.274 28.5307C174.274 21.3653 169.975 14.9165 157.077 14.9165C153.362 14.9165 150.217 16.031 147.635 17.6581C147.438 17.4526 147.234 17.2391 147.024 17.0195C143.922 13.7708 139.543 9.18407 135.581 9.18407C135.54 9.18407 135.494 9.18378 135.443 9.18345C134.051 9.1746 129.132 9.14334 129.132 14.5222Z" fill="#32281A"/>
<rect x="166.879" y="38.3652" width="9.59211" height="2.7406" rx="1.3703" fill="#28716A"/>
<path d="M216.85 72.1245C218.203 67.5905 214.807 63.0322 210.076 63.0322H182.289C178.816 63.0322 175.756 65.3124 174.762 68.6399L155.16 134.288H198.288L216.85 72.1245Z" fill="url(#paint2_linear_8861_14442)"/>
<defs>
<linearGradient id="paint0_linear_8861_14442" x1="4.40234" y1="68.001" x2="120.402" y2="3.00098" gradientUnits="userSpaceOnUse">
<stop stop-color="#1A1B23"/>
<stop offset="0.508207" stop-color="#172D66"/>
<stop offset="1" stop-color="#482E5F"/>
</linearGradient>
<linearGradient id="paint1_linear_8861_14442" x1="123.064" y1="145" x2="184.064" y2="-70" gradientUnits="userSpaceOnUse">
<stop stop-color="#182E33"/>
<stop offset="0.403846" stop-color="#5CC1AE"/>
</linearGradient>
<linearGradient id="paint2_linear_8861_14442" x1="257.564" y1="30.999" x2="183.064" y2="142.499" gradientUnits="userSpaceOnUse">
<stop stop-color="#434089"/>
<stop offset="1" stop-color="#1A1B23"/>
</linearGradient>
</defs>
</svg>
