<svg xmlns="http://www.w3.org/2000/svg" width="250" height="200" viewBox="0 0 250 200" fill="none">
  <ellipse cx="187" cy="168" rx="30" ry="4" fill="#000A14" fill-opacity="0.05"/>
  <rect x="151" y="76" width="72" height="60" rx="4" fill="#FDBF00"/>
  <path d="M161 84C161 81.7909 162.791 80 165 80H177.31C177.757 80 178.191 80.1496 178.543 80.425L188.957 88.575C189.309 88.8504 189.743 89 190.19 89H223V132C223 134.209 221.209 136 219 136H165C162.791 136 161 134.209 161 132V84Z" fill="#FFDA2D"/>
  <rect x="167" y="125" width="24" height="5" fill="white"/>
  <rect x="203" y="94" width="15" height="2" rx="1" fill="#FDBF00"/>
  <rect x="197" y="99" width="21" height="2" rx="1" fill="#FDBF00"/>
  <path d="M54.949 46.0277C54.9999 43 54.9999 41.5 55.4999 38.5C54.1324 38.0819 51.245 38.5487 48.9839 38.6057C49.0228 40.1124 48.8445 43.1642 47.6919 45.3044C48.6414 47.09 49.8694 47.9644 51.3769 47.927C52.8839 47.8889 54.0739 47.2562 54.949 46.0277Z" fill="#F3A29D"/>
  <path d="M55.3323 23.9743C56.8406 24.7697 58.1546 26.1904 58.9938 27.9418C59.257 28.4912 59.1096 28.7726 59.6358 29.6483C60.1399 30.4874 60.8162 31.4942 61.6658 32.6671L60.0025 33.8306C59.4236 36.6378 58.1424 38.4965 56.1609 39.4088C54.1792 40.3191 52.3717 40.3162 50.7394 39.3965C47.2953 37.364 46.1742 34.5495 47.3749 30.9548C48.5756 27.3601 51.2283 25.0331 55.3323 23.9743Z" fill="#FAB6AF"/>
  <path d="M55.2176 31.9595C54.8305 30.7683 55.2966 29.5322 56.2891 29.2098C57.0598 28.9593 57.8974 29.3412 58.4146 30.0822C58.5776 29.8714 58.7438 29.7004 58.9131 29.5683L59.0345 29.4805C59.1869 29.3792 59.3222 29.3062 59.444 29.2638C59.1719 28.3191 59.5168 27.3652 60.2728 27.1196C61.0506 26.8668 61.917 27.4765 62.2326 28.4477C62.5482 29.419 62.2056 30.4214 61.4277 30.6742C60.7355 30.8991 59.9731 30.441 59.5913 29.6529C59.5162 29.6767 59.4044 29.7333 59.2645 29.8263C59.0643 29.9595 58.8599 30.1683 58.6535 30.4534L58.6405 30.4724C58.6906 30.5784 58.7347 30.6893 58.7722 30.8045C59.1592 31.9958 58.6932 33.2318 57.7007 33.5543C56.7082 33.8768 55.6046 33.1507 55.2176 31.9595ZM60.4011 27.5145C59.8701 27.687 59.6115 28.4439 59.8629 29.2177C60.1143 29.9915 60.7685 30.4517 61.2994 30.2792C61.8304 30.1067 62.0891 29.3498 61.8377 28.576C61.5862 27.8023 60.9321 27.342 60.4011 27.5145ZM56.4174 29.6047C55.6648 29.8492 55.2908 30.8411 55.6125 31.8312C55.9342 32.8212 56.8198 33.4039 57.5724 33.1593C58.3249 32.9148 58.6989 31.9229 58.3772 30.9329C58.0555 29.9428 57.1699 29.3602 56.4174 29.6047Z" fill="#222768"/>
  <path d="M67 74C65 72.4 61.5 69.3333 60 68L57.5 80.5L75.5 81.5L77 79C74.5 78 69 75.6 67 74Z" fill="#FBB4AD"/>
  <path d="M64.5 85.0001L67 65.0001C63.6667 65.0001 56.1 64.0001 52.5 60.0001C48 55.0001 49.5 48.5001 46 49.0001C42.5 49.5001 37.5 70.0001 40 78.0001C42 84.4001 57.1667 85.3334 64.5 85.0001Z" fill="url(#paint0_linear_6171_919)"/>
  <path d="M57 65.5C55.4 59.5 55 49.6667 55 45.5C52.5 46 46.8 46.8 44 46C37.5 61 26 70.5 26 77.5C26 80.3 27.3333 82 28 82.5C29.6667 83.1667 35.2 84.5 44 84.5C52.8 84.5 59.6667 80.5 62 78.5C61 76.6667 58.6 71.5 57 65.5Z" fill="url(#paint1_linear_6171_919)"/>
  <path d="M17 181.797L21.4444 168.353H31.2222C31.5 170 35.7222 172.933 37.5 174C39.7222 175.333 44.1111 177.353 45.8889 178.686C47.3111 179.753 48.5556 181.205 49 181.797H17Z" fill="url(#paint2_linear_6171_919)"/>
  <path d="M41 181.797L45.8 168.353H55.2222C55.5 170 59.7222 172.933 61.5 174C63.7222 175.333 68.1111 177.353 69.8889 178.686C71.3111 179.753 72.5556 181.205 73 181.797H41Z" fill="url(#paint3_linear_6171_919)"/>
  <path d="M36.5 106C38.5 97.6 38 83.5 37.5 77.5H54.5C54.3333 82.5 54.1 94.2 54.5 101C54.9 107.8 39.3333 149.167 31.5 169H21C20.3333 165.833 19.2 158 20 152C21 144.5 34 116.5 36.5 106Z" fill="url(#paint4_linear_6171_919)"/>
  <path d="M36.5001 89C35.7001 85 36.1667 79.6667 36.5001 77.5H54.5001C57.1667 88.6667 62.6001 112.5 63.0001 118.5C63.4001 124.5 58.1667 154.667 55.5001 169H45.5001C44.3334 167.333 41.9001 163 41.5001 159C41.0001 154 42.5001 149.5 43.0001 146.5C43.5001 143.5 42.5001 138.184 42.5001 134C42.5001 129.816 45.0001 120 44.5001 114C44.0001 108 37.5001 94 36.5001 89Z" fill="url(#paint5_linear_6171_919)"/>
  <rect x="35.9556" y="123.589" width="95" height="7" transform="rotate(-46 35.9556 123.589)" fill="#F04C49"/>
  <path d="M33.7482 118.677L99.7407 50.3398L101.948 55.2517L35.9556 123.589L33.7482 118.677Z" fill="url(#paint6_linear_6171_919)"/>
  <path d="M40.991 128.452L106.984 60.1143L111.97 62.1489L45.977 130.486L40.991 128.452Z" fill="url(#paint7_linear_6171_919)"/>
  <path d="M113.982 43.2401L122.527 38.9802L118.568 47.6685L113.982 43.2401Z" fill="#171C54"/>
  <path d="M113.982 43.24L99.7406 50.3398L101.948 55.2517L106.983 60.1143L111.969 62.149L118.568 47.6685L113.982 43.24Z" fill="#D2D2D2"/>
  <path d="M66 98.5C62.4 97.7 54.8333 92.8333 51.5 90.5L56 79C56.8333 80.3333 59.3 84.1 62.5 88.5C65.7 92.9 69.5 94.6667 71 95C73 92.5 76.3 91 78.8 89C78.9667 89.3333 79.4 90.2 79 91C78.5 92 75.5 93.5 77 94.5C78.2 95.3 81.5 93.5 83 92.5C83 94.1667 82.3 97.8 79.5 99C76 100.5 70.5 99.5 66 98.5Z" fill="#FBB4AD"/>
  <path d="M52.9999 97.5L60.9999 77C57.6666 76.5 50.5999 74.1 48.9999 68.5C47.3999 62.9 52.3333 50.8333 54.9999 45.5C54.9999 45.5 51.7206 46.3407 49.4999 46.5C47.5426 46.6404 44.4999 46.5 44.4999 46.5C42.4999 48.6667 37.9999 53.7 35.9999 56.5C33.4999 60 27.9999 71 29.4999 77.5C30.9999 84 34.9999 83.5 38.9999 87C42.9999 90.5 43.4999 94 46.9999 96C49.7999 97.6 52.1666 97.6667 52.9999 97.5Z" fill="#428DFB"/>
  <path fill-rule="evenodd" clip-rule="evenodd" d="M52.2828 34.3326C51.9656 35.2391 51.75 36.398 51.75 38C51.75 41.3287 54.0876 44.0528 55.1301 45.2678C55.1505 45.2915 55.1704 45.3147 55.1898 45.3373L54.8101 45.6627C54.7857 45.6342 54.7604 45.6047 54.7341 45.5742C53.6949 44.3642 51.25 41.5174 51.25 38C51.25 36.352 51.4719 35.1359 51.8109 34.1674C52.15 33.1985 52.6023 32.4893 53.0452 31.8566C53.1282 31.7381 53.2103 31.6229 53.2909 31.5098C53.6441 31.0142 53.9698 30.5573 54.2275 30.0173C54.539 29.3645 54.75 28.5889 54.75 27.5L55.25 27.5C55.25 28.6611 55.0234 29.5105 54.6787 30.2327C54.4005 30.8157 54.0442 31.315 53.6891 31.8128C53.6107 31.9228 53.5323 32.0327 53.4548 32.1434C53.0227 32.7607 52.6 33.4265 52.2828 34.3326Z" fill="black"/>
  <path d="M51.0002 22.2009C53.3529 22.1519 54.8408 22.2955 56.1576 23.1608C56.1786 23.1786 56.1996 23.1963 56.2204 23.214C57.2273 24.0659 58.0052 24.7241 58.4282 26.9442C57.755 25.8058 56.6867 25.4894 56.2068 25.5137C56.4258 26.9064 55.8862 29.2911 54.5002 30.5005C51.9184 32.7534 50.7002 34.0005 50.7002 36.5005C50.7002 41.5005 52.5002 44.5005 54.0002 46.5005C54.0002 46.5005 50.3562 48.4061 45.0002 49.0005C39.6441 49.5949 36.1379 48.4828 36.1379 48.4828C35.4948 46.9668 35.3248 43.6358 35.8879 41.8178C35.806 41.9411 35.7272 42.0656 35.6519 42.1912C35.1027 43.1065 34.75 44.0615 34.75 45C34.75 46.572 35.0786 47.5981 35.2236 47.8882L34.7764 48.1118C34.5881 47.7353 34.25 46.628 34.25 45C34.25 43.9386 34.6473 42.8936 35.2231 41.9339C35.7997 40.9729 36.5647 40.0818 37.3232 39.3233C38.1191 38.5274 38.89 37.7529 39.4407 36.8486C39.5931 36.4413 39.6953 35.9957 39.7261 35.5007C39.7781 34.6666 39.7975 33.9159 39.8154 33.2217C39.8814 30.669 39.9277 28.8782 41.5001 26.5009C43.648 23.2535 47.8005 22.2675 51.0002 22.2009Z" fill="#23286B"/>
  <path d="M81.5 86.5001C81.5 88.5001 82.8333 90.6667 83.5 91.5001C84.3333 91 86 90.5 87.5 89C89 87.5 89.6667 86 90 85C89.5 84 88.3 82.1 87.5 82.5001C86.7 82.9001 87.5 85.0001 88 86.0001C86.6667 84.6667 83.8 82.1001 83 82.5001C82 83.0001 81.5 84.0001 81.5 86.5001Z" fill="#FBB4AD"/>
  <defs>
    <linearGradient id="paint0_linear_6171_919" x1="54.5" y1="67.5" x2="55.17" y2="86.494" gradientUnits="userSpaceOnUse">
      <stop stop-color="#428DFC"/>
      <stop offset="1" stop-color="#1D72D9"/>
    </linearGradient>
    <linearGradient id="paint1_linear_6171_919" x1="52.5" y1="44" x2="42.3376" y2="86.3992" gradientUnits="userSpaceOnUse">
      <stop offset="0.217556" stop-color="#428DFC"/>
      <stop offset="1" stop-color="#0C5FC4"/>
    </linearGradient>
    <linearGradient id="paint2_linear_6171_919" x1="46.6393" y1="168.607" x2="36.7984" y2="190.64" gradientUnits="userSpaceOnUse">
      <stop offset="0.090505" stop-color="#2C7DE7"/>
      <stop offset="0.492038" stop-color="#1D72D9"/>
    </linearGradient>
    <linearGradient id="paint3_linear_6171_919" x1="70.6393" y1="168.607" x2="60.7984" y2="190.64" gradientUnits="userSpaceOnUse">
      <stop offset="0.0747083" stop-color="#428DFC"/>
      <stop offset="1" stop-color="#428DFC"/>
    </linearGradient>
    <linearGradient id="paint4_linear_6171_919" x1="39.4661" y1="77.5" x2="9.86986" y2="160.212" gradientUnits="userSpaceOnUse">
      <stop offset="0.332054" stop-color="#181D55"/>
      <stop offset="1" stop-color="#1A1F58"/>
    </linearGradient>
    <linearGradient id="paint5_linear_6171_919" x1="47.3959" y1="77.5" x2="47.0295" y2="168.999" gradientUnits="userSpaceOnUse">
      <stop stop-color="#191D52"/>
      <stop offset="0.537265" stop-color="#272D78"/>
      <stop offset="1" stop-color="#23286B"/>
    </linearGradient>
    <linearGradient id="paint6_linear_6171_919" x1="101.899" y1="52.4237" x2="107.304" y2="58.6109" gradientUnits="userSpaceOnUse">
      <stop stop-color="#D53B3A"/>
      <stop offset="1" stop-color="#E64542"/>
    </linearGradient>
    <linearGradient id="paint7_linear_6171_919" x1="110.531" y1="60.7596" x2="115.936" y2="66.9467" gradientUnits="userSpaceOnUse">
      <stop stop-color="#E24442"/>
      <stop offset="1" stop-color="#CC3434"/>
    </linearGradient>
  </defs>
</svg>