<svg width="177" height="200" viewBox="0 0 177 200" fill="none" xmlns="http://www.w3.org/2000/svg">
<path d="M88.7581 99.6279H25.2682C23.6086 99.6279 22.2632 100.973 22.2632 102.633V182.312C22.2632 183.972 23.6086 185.317 25.2682 185.317H85.7531C87.4127 185.317 88.7581 183.972 88.7581 182.312V99.6279Z" fill="#D9D9D9" fill-opacity="0.27"/>
<path d="M86.7262 184.481C86.6626 184.328 86.4868 184.256 86.3336 184.319C86.0151 184.451 85.6655 184.524 85.2983 184.524H84.135C83.9691 184.524 83.8345 184.659 83.8345 184.825C83.8345 184.991 83.9691 185.125 84.135 185.125H85.2983C85.7459 185.125 86.1735 185.036 86.5637 184.874C86.7169 184.81 86.7898 184.635 86.7262 184.481ZM79.4825 184.524C79.3166 184.524 79.1821 184.659 79.1821 184.825C79.1821 184.991 79.3166 185.125 79.4825 185.125H81.8085C81.9744 185.125 82.109 184.991 82.109 184.825C82.109 184.659 81.9744 184.524 81.8085 184.524H79.4825ZM74.8295 184.524C74.6636 184.524 74.529 184.659 74.529 184.825C74.529 184.991 74.6636 185.125 74.8295 185.125H77.156C77.322 185.125 77.4565 184.991 77.4565 184.825C77.4565 184.659 77.322 184.524 77.156 184.524H74.8295ZM70.177 184.524C70.0111 184.524 69.8766 184.659 69.8766 184.825C69.8766 184.991 70.0111 185.125 70.177 185.125H72.5036C72.6694 185.125 72.8041 184.991 72.8041 184.825C72.8041 184.659 72.6694 184.524 72.5036 184.524H70.177ZM65.5246 184.524C65.3586 184.524 65.2241 184.659 65.2241 184.825C65.2241 184.991 65.3586 185.125 65.5246 185.125H67.8505C68.0165 185.125 68.151 184.991 68.151 184.825C68.151 184.659 68.0165 184.524 67.8505 184.524H65.5246ZM60.8715 184.524C60.7057 184.524 60.571 184.659 60.571 184.825C60.571 184.991 60.7057 185.125 60.8715 185.125H63.1981C63.364 185.125 63.4986 184.991 63.4986 184.825C63.4986 184.659 63.364 184.524 63.1981 184.524H60.8715ZM56.2191 184.524C56.0531 184.524 55.9186 184.659 55.9186 184.825C55.9186 184.991 56.0531 185.125 56.2191 185.125H58.5456C58.7115 185.125 58.8461 184.991 58.8461 184.825C58.8461 184.659 58.7115 184.524 58.5456 184.524H56.2191ZM51.566 184.524C51.4002 184.524 51.2655 184.659 51.2655 184.825C51.2655 184.991 51.4002 185.125 51.566 185.125H53.8926C54.0585 185.125 54.1931 184.991 54.1931 184.825C54.1931 184.659 54.0585 184.524 53.8926 184.524H51.566ZM46.9136 184.524C46.7477 184.524 46.6131 184.659 46.6131 184.825C46.6131 184.991 46.7477 185.125 46.9136 185.125H49.2401C49.406 185.125 49.5406 184.991 49.5406 184.825C49.5406 184.659 49.406 184.524 49.2401 184.524H46.9136ZM42.2611 184.524C42.0952 184.524 41.9606 184.659 41.9606 184.825C41.9606 184.991 42.0952 185.125 42.2611 185.125H44.5871C44.753 185.125 44.8876 184.991 44.8876 184.825C44.8876 184.659 44.753 184.524 44.5871 184.524H42.2611ZM37.6081 184.524C37.4422 184.524 37.3076 184.659 37.3076 184.825C37.3076 184.991 37.4422 185.125 37.6081 185.125H39.9346C40.1006 185.125 40.2351 184.991 40.2351 184.825C40.2351 184.659 40.1006 184.524 39.9346 184.524H37.6081ZM32.9556 184.524C32.7897 184.524 32.6551 184.659 32.6551 184.825C32.6551 184.991 32.7897 185.125 32.9556 185.125H35.2822C35.448 185.125 35.5827 184.991 35.5827 184.825C35.5827 184.659 35.448 184.524 35.2822 184.524H32.9556ZM28.3032 184.524C28.1372 184.524 28.0027 184.659 28.0027 184.825C28.0027 184.991 28.1372 185.125 28.3032 185.125H30.6291C30.7951 185.125 30.9296 184.991 30.9296 184.825C30.9296 184.659 30.7951 184.524 30.6291 184.524H28.3032ZM23.7781 184.319C23.6248 184.256 23.4491 184.328 23.3854 184.481C23.3219 184.635 23.3948 184.81 23.548 184.874C23.9382 185.036 24.3658 185.125 24.8134 185.125H25.9767C26.1426 185.125 26.2772 184.991 26.2772 184.825C26.2772 184.659 26.1426 184.524 25.9767 184.524H24.8134C24.4461 184.524 24.0965 184.451 23.7781 184.319ZM88.6038 181.82V180.604C88.6037 180.438 88.4692 180.303 88.3033 180.303C88.1374 180.303 88.0029 180.438 88.0028 180.604V181.82C88.0028 182.187 87.93 182.537 87.7979 182.855C87.7344 183.008 87.8067 183.184 87.9599 183.248C88.1132 183.311 88.289 183.238 88.3526 183.085C88.5144 182.695 88.6038 182.267 88.6038 181.82ZM22.1089 181.82V180.648C22.1089 180.482 21.9744 180.348 21.8084 180.348C21.6424 180.348 21.5079 180.482 21.5079 180.648V181.82C21.5079 182.267 21.5973 182.695 21.7591 183.085C21.8227 183.238 21.9985 183.311 22.1517 183.248C22.3049 183.184 22.3773 183.008 22.3137 182.855C22.1817 182.537 22.1089 182.187 22.1089 181.82ZM22.1089 178.305V175.961C22.1089 175.795 21.9744 175.661 21.8084 175.661C21.6424 175.661 21.5079 175.795 21.5079 175.961V178.305C21.508 178.471 21.6425 178.605 21.8084 178.605C21.9743 178.605 22.1088 178.471 22.1089 178.305ZM88.6038 178.172V175.74C88.6037 175.574 88.4692 175.439 88.3033 175.439C88.1373 175.439 88.0028 175.574 88.0028 175.74V178.172C88.0028 178.338 88.1373 178.473 88.3033 178.473C88.4692 178.473 88.6037 178.338 88.6038 178.172ZM22.1089 173.618V171.274C22.1089 171.108 21.9744 170.974 21.8084 170.974C21.6424 170.974 21.5079 171.108 21.5079 171.274V173.618C21.508 173.783 21.6425 173.918 21.8084 173.918C21.9743 173.918 22.1088 173.783 22.1089 173.618ZM88.6038 173.308V170.876C88.6037 170.71 88.4692 170.576 88.3033 170.576C88.1373 170.576 88.0028 170.71 88.0028 170.876V173.308C88.0029 173.474 88.1374 173.609 88.3033 173.609C88.4692 173.609 88.6037 173.474 88.6038 173.308ZM22.1089 168.931V166.587C22.1089 166.421 21.9744 166.286 21.8084 166.286C21.6424 166.286 21.5079 166.421 21.5079 166.587V168.931C21.508 169.096 21.6425 169.231 21.8084 169.231C21.9743 169.231 22.1088 169.096 22.1089 168.931ZM88.6038 168.445V166.012C88.6037 165.846 88.4692 165.712 88.3033 165.712C88.1373 165.712 88.0028 165.846 88.0028 166.012V168.445C88.0029 168.61 88.1374 168.745 88.3033 168.745C88.4691 168.745 88.6036 168.61 88.6038 168.445ZM22.1089 164.243V161.9C22.1089 161.734 21.9744 161.599 21.8084 161.599C21.6424 161.599 21.5079 161.734 21.5079 161.9V164.243C21.5079 164.409 21.6425 164.544 21.8084 164.544C21.9743 164.544 22.1089 164.409 22.1089 164.243ZM88.6038 163.581V161.149C88.6037 160.983 88.4692 160.848 88.3033 160.848C88.1373 160.848 88.0028 160.983 88.0028 161.149V163.581C88.0029 163.747 88.1374 163.881 88.3033 163.881C88.4691 163.881 88.6036 163.747 88.6038 163.581ZM22.1089 159.556V157.213C22.1089 157.047 21.9743 156.912 21.8084 156.912C21.6425 156.912 21.5079 157.047 21.5079 157.213V159.556C21.5079 159.722 21.6424 159.857 21.8084 159.857C21.9744 159.857 22.1089 159.722 22.1089 159.556ZM88.6038 158.717V156.285C88.6038 156.119 88.4692 155.984 88.3033 155.984C88.1373 155.984 88.0028 156.119 88.0028 156.285V158.717C88.0029 158.883 88.1374 159.018 88.3033 159.018C88.4691 159.018 88.6036 158.883 88.6038 158.717ZM22.1089 154.869V152.526C22.1088 152.36 21.9743 152.225 21.8084 152.225C21.6425 152.225 21.508 152.36 21.5079 152.526V154.869C21.5079 155.035 21.6424 155.17 21.8084 155.17C21.9744 155.17 22.1089 155.035 22.1089 154.869ZM88.6038 153.853V151.421C88.6038 151.255 88.4692 151.121 88.3033 151.121C88.1373 151.121 88.0028 151.255 88.0028 151.421V153.853C88.0028 154.019 88.1373 154.153 88.3033 154.153C88.4692 154.153 88.6038 154.019 88.6038 153.853ZM22.1089 150.182V147.839C22.1088 147.673 21.9743 147.538 21.8084 147.538C21.6425 147.538 21.508 147.673 21.5079 147.839V150.182C21.5079 150.348 21.6424 150.483 21.8084 150.483C21.9744 150.483 22.1089 150.348 22.1089 150.182ZM88.6038 148.989V146.557C88.6038 146.391 88.4692 146.257 88.3033 146.257C88.1373 146.257 88.0028 146.391 88.0028 146.557V148.989C88.0028 149.155 88.1373 149.289 88.3033 149.289C88.4692 149.289 88.6038 149.155 88.6038 148.989ZM22.1089 145.495V143.152C22.1087 142.986 21.9743 142.851 21.8084 142.851C21.6425 142.851 21.508 142.986 21.5079 143.152V145.495C21.5079 145.661 21.6424 145.796 21.8084 145.796C21.9744 145.796 22.1089 145.661 22.1089 145.495ZM88.6038 144.125V141.694C88.6038 141.528 88.4692 141.393 88.3033 141.393C88.1373 141.393 88.0028 141.528 88.0028 141.694V144.125C88.0028 144.291 88.1373 144.426 88.3033 144.426C88.4692 144.426 88.6038 144.291 88.6038 144.125ZM22.1089 140.809V138.465C22.1089 138.299 21.9744 138.165 21.8084 138.165C21.6424 138.165 21.5079 138.299 21.5079 138.465V140.809C21.508 140.974 21.6425 141.109 21.8084 141.109C21.9743 141.109 22.1087 140.974 22.1089 140.809ZM88.6038 139.262V136.83C88.6038 136.664 88.4692 136.529 88.3033 136.529C88.1373 136.529 88.0028 136.664 88.0028 136.83V139.262C88.0028 139.427 88.1373 139.562 88.3033 139.562C88.4692 139.562 88.6038 139.427 88.6038 139.262ZM22.1089 136.122V133.778C22.1089 133.612 21.9744 133.477 21.8084 133.477C21.6424 133.477 21.5079 133.612 21.5079 133.778V136.122C21.508 136.287 21.6425 136.422 21.8084 136.422C21.9743 136.422 22.1088 136.287 22.1089 136.122ZM88.6038 134.398V131.966C88.6038 131.8 88.4692 131.666 88.3033 131.666C88.1373 131.666 88.0028 131.8 88.0028 131.966V134.398C88.0028 134.564 88.1373 134.698 88.3033 134.698C88.4692 134.698 88.6038 134.564 88.6038 134.398ZM22.1089 131.434V129.091C22.1089 128.925 21.9744 128.79 21.8084 128.79C21.6424 128.79 21.5079 128.925 21.5079 129.091V131.434C21.508 131.6 21.6425 131.735 21.8084 131.735C21.9743 131.735 22.1088 131.6 22.1089 131.434ZM88.6038 129.534V127.102C88.6038 126.936 88.4692 126.802 88.3033 126.802C88.1373 126.802 88.0028 126.936 88.0028 127.102V129.534C88.0028 129.7 88.1373 129.835 88.3033 129.835C88.4692 129.835 88.6038 129.7 88.6038 129.534ZM22.1089 126.747V124.404C22.1089 124.238 21.9744 124.103 21.8084 124.103C21.6424 124.103 21.5079 124.238 21.5079 124.404V126.747C21.5079 126.913 21.6425 127.048 21.8084 127.048C21.9743 127.048 22.1089 126.913 22.1089 126.747ZM88.6038 124.67V122.239C88.6038 122.073 88.4692 121.938 88.3033 121.938C88.1373 121.938 88.0028 122.073 88.0028 122.239V124.67C88.0028 124.836 88.1373 124.971 88.3033 124.971C88.4692 124.971 88.6038 124.836 88.6038 124.67ZM22.1089 122.06V119.717C22.1089 119.551 21.9743 119.416 21.8084 119.416C21.6425 119.416 21.5079 119.551 21.5079 119.717V122.06C21.5079 122.226 21.6424 122.361 21.8084 122.361C21.9744 122.361 22.1089 122.226 22.1089 122.06ZM88.6038 119.807V117.374C88.6036 117.209 88.4691 117.074 88.3033 117.074C88.1374 117.074 88.0029 117.209 88.0028 117.374V119.807C88.0028 119.972 88.1373 120.107 88.3033 120.107C88.4692 120.107 88.6038 119.972 88.6038 119.807ZM22.1089 117.373V115.03C22.1088 114.864 21.9743 114.729 21.8084 114.729C21.6425 114.729 21.508 114.864 21.5079 115.03V117.373C21.5079 117.539 21.6424 117.674 21.8084 117.674C21.9744 117.674 22.1089 117.539 22.1089 117.373ZM88.6038 114.943V112.511C88.6036 112.345 88.4691 112.21 88.3033 112.21C88.1374 112.21 88.0029 112.345 88.0028 112.511V114.943C88.0028 115.109 88.1373 115.243 88.3033 115.243C88.4692 115.243 88.6037 115.109 88.6038 114.943ZM22.1089 112.686V110.343C22.1088 110.177 21.9743 110.042 21.8084 110.042C21.6425 110.042 21.508 110.177 21.5079 110.343V112.686C21.5079 112.852 21.6424 112.987 21.8084 112.987C21.9744 112.987 22.1089 112.852 22.1089 112.686ZM88.6038 110.079V107.647C88.6036 107.481 88.4692 107.346 88.3033 107.346C88.1374 107.346 88.0029 107.481 88.0028 107.647V110.079C88.0028 110.245 88.1373 110.38 88.3033 110.38C88.4692 110.38 88.6037 110.245 88.6038 110.079ZM22.1089 107.999V105.655C22.1088 105.49 21.9743 105.355 21.8084 105.355C21.6425 105.355 21.508 105.49 21.5079 105.655V107.999C21.5079 108.165 21.6424 108.3 21.8084 108.3C21.9744 108.3 22.1089 108.165 22.1089 107.999ZM88.6038 105.215V102.783C88.6037 102.617 88.4692 102.483 88.3033 102.483C88.1374 102.483 88.0029 102.617 88.0028 102.783V105.215C88.0028 105.381 88.1373 105.516 88.3033 105.516C88.4692 105.516 88.6037 105.381 88.6038 105.215ZM22.1089 103.313V102.14C22.1089 101.773 22.1817 101.424 22.3137 101.105C22.3773 100.952 22.3049 100.776 22.1517 100.712C21.9985 100.649 21.8227 100.722 21.7591 100.875C21.5973 101.265 21.5079 101.693 21.5079 102.14V103.313C21.508 103.478 21.6425 103.613 21.8084 103.613C21.9743 103.613 22.1087 103.478 22.1089 103.313ZM88.6038 100.352V98.835H87.0825C86.9165 98.835 86.782 98.9695 86.782 99.1355C86.782 99.3014 86.9165 99.436 87.0825 99.436H88.0028V100.352C88.0028 100.517 88.1373 100.652 88.3033 100.652C88.4692 100.652 88.6037 100.517 88.6038 100.352ZM24.8134 98.835C24.3658 98.835 23.9382 98.9244 23.548 99.0862C23.3948 99.1498 23.3219 99.3255 23.3854 99.4788C23.4491 99.632 23.6248 99.7043 23.7781 99.6408C24.0965 99.5087 24.4461 99.436 24.8134 99.436H26.0342C26.2001 99.436 26.3347 99.3014 26.3347 99.1355C26.3347 98.9695 26.2001 98.835 26.0342 98.835H24.8134ZM82.1982 98.835C82.0324 98.8351 81.8977 98.9696 81.8977 99.1355C81.8977 99.3013 82.0324 99.4358 82.1982 99.436H84.6403C84.8063 99.436 84.9408 99.3014 84.9408 99.1355C84.9408 98.9695 84.8063 98.835 84.6403 98.835H82.1982ZM77.3145 98.835C77.1486 98.835 77.014 98.9695 77.014 99.1355C77.014 99.3014 77.1486 99.4359 77.3145 99.436H79.7566C79.9226 99.4359 80.0571 99.3014 80.0571 99.1355C80.0571 98.9695 79.9226 98.835 79.7566 98.835H77.3145ZM72.4308 98.835C72.2648 98.835 72.1303 98.9695 72.1303 99.1355C72.1303 99.3014 72.2648 99.436 72.4308 99.436H74.8729C75.0388 99.4358 75.1734 99.3013 75.1734 99.1355C75.1734 98.9696 75.0388 98.8351 74.8729 98.835H72.4308ZM67.5471 98.835C67.3811 98.835 67.2466 98.9695 67.2466 99.1355C67.2466 99.3014 67.3811 99.436 67.5471 99.436H69.9887C70.1546 99.436 70.2892 99.3014 70.2892 99.1355C70.2892 98.9695 70.1546 98.835 69.9887 98.835H67.5471ZM62.6634 98.835C62.4974 98.835 62.3629 98.9695 62.3629 99.1355C62.3629 99.3014 62.4974 99.436 62.6634 99.436H65.1049C65.2709 99.436 65.4054 99.3014 65.4054 99.1355C65.4054 98.9695 65.2709 98.835 65.1049 98.835H62.6634ZM57.7791 98.835C57.6132 98.8351 57.4786 98.9696 57.4786 99.1355C57.4786 99.3014 57.6132 99.4359 57.7791 99.436H60.2213C60.3872 99.4359 60.5217 99.3014 60.5217 99.1355C60.5217 98.9695 60.3872 98.835 60.2213 98.835H57.7791ZM52.8954 98.835C52.7295 98.835 52.5949 98.9695 52.5949 99.1355C52.5949 99.3014 52.7295 99.4359 52.8954 99.436H55.3376C55.5034 99.4359 55.6381 99.3014 55.6381 99.1355C55.6381 98.9696 55.5034 98.8351 55.3376 98.835H52.8954ZM48.0117 98.835C47.8457 98.835 47.7112 98.9695 47.7112 99.1355C47.7112 99.3014 47.8457 99.436 48.0117 99.436H50.4533C50.6192 99.436 50.7538 99.3014 50.7538 99.1355C50.7538 98.9695 50.6192 98.835 50.4533 98.835H48.0117ZM43.128 98.835C42.962 98.835 42.8275 98.9695 42.8275 99.1355C42.8275 99.3014 42.962 99.436 43.128 99.436H45.5696C45.7355 99.436 45.8701 99.3014 45.8701 99.1355C45.8701 98.9695 45.7355 98.835 45.5696 98.835H43.128ZM38.2437 98.835C38.0779 98.8351 37.9432 98.9696 37.9432 99.1355C37.9432 99.3013 38.0779 99.4358 38.2437 99.436H40.6859C40.8518 99.436 40.9864 99.3014 40.9864 99.1355C40.9864 98.9695 40.8518 98.835 40.6859 98.835H38.2437ZM33.36 98.835C33.1941 98.835 33.0595 98.9695 33.0595 99.1355C33.0595 99.3014 33.1941 99.4359 33.36 99.436H35.8022C35.9681 99.4359 36.1027 99.3014 36.1027 99.1355C36.1027 98.9695 35.9681 98.835 35.8022 98.835H33.36ZM28.4763 98.835C28.3104 98.835 28.1758 98.9695 28.1758 99.1355C28.1758 99.3014 28.3104 99.436 28.4763 99.436H30.9185C31.0843 99.4358 31.219 99.3013 31.219 99.1355C31.219 98.9696 31.0843 98.8351 30.9185 98.835H28.4763Z" fill="#888888"/>
<path d="M88.3034 96.7783C88.1374 96.7783 88.0029 96.9129 88.0029 97.0788V98.8349H86.2468C86.0809 98.8349 85.9463 98.9694 85.9463 99.1354C85.9463 99.3013 86.0809 99.4359 86.2468 99.4359H88.0029V101.192C88.0029 101.358 88.1374 101.492 88.3034 101.492C88.4693 101.492 88.6039 101.358 88.6039 101.192V99.4359H90.3599C90.5259 99.4359 90.6604 99.3013 90.6604 99.1354C90.6604 98.9694 90.5259 98.8349 90.3599 98.8349H88.6039V97.0788C88.6039 96.9129 88.4693 96.7783 88.3034 96.7783Z" fill="#888888"/>
<path d="M137.166 92.5915C137.777 93.4638 137.192 94.5977 138.131 95.5008C138.243 95.6083 138.31 95.755 138.354 95.9036C138.521 96.4689 139.238 96.9394 139.703 98.0129C140.257 99.2912 140.428 100.722 141.022 101.342C141.296 101.629 141.746 102.196 142.013 102.489C142.373 102.884 143.032 103.281 143.347 104.008C144.117 105.785 145.799 106.767 147.103 106.202C148.407 105.637 148.84 103.738 148.07 101.962C147.605 100.889 146.809 100.106 145.964 99.7783C145.595 99.6351 145.326 99.1515 145.431 98.7701C145.679 97.8595 145.598 96.7408 145.13 95.6613C144.783 94.8601 144.275 94.1995 143.694 93.7318C143.493 93.5694 143.418 93.2901 143.501 93.0449C143.914 91.8158 143.631 90.1768 142.639 88.7595C141.197 86.7004 138.803 85.8891 137.292 86.9473C135.781 88.0054 135.724 90.5325 137.166 92.5915Z" fill="#462837"/>
<path d="M154.944 78.6945C128.928 79.101 102.824 79.101 76.8082 78.6945C67.3519 77.5164 59.3368 70.605 56.68 61.0582C56.325 59.7847 56.1393 58.4817 55.8031 57.2106C55.9418 55.2464 55.6173 53.0348 55.8031 51.1049C55.9559 49.5326 56.7647 46.7724 57.3337 45.249C59.6213 39.1164 64.4459 33.9854 70.3143 31.5339C70.2015 16.7362 80.3819 3.65042 94.2866 0.68451C94.3054 0.679612 94.3266 0.677163 94.3454 0.672265C97.6276 -0.0232906 100.997 -0.165341 104.328 0.182437C105.024 0.255911 105.654 0.329385 106.063 0.40041C115.043 1.91153 123.119 7.75272 128.232 15.4406C137.999 11.3358 149.39 18.4971 150.373 29.3762C161.325 28.6855 171.604 35.1831 174.896 46.2213C179.426 61.4182 170.019 76.7474 154.944 78.6969V78.6945Z" fill="url(#paint0_linear_7527_5124)" fill-opacity="0.79"/>
<path d="M61.3514 58.4961H85.8275V62.2046H61.3514V58.4961Z" fill="#729BF4"/>
<path d="M64.2577 36.9873H89.9846V41.9302H64.2577V36.9873Z" fill="#587ED1"/>
<path d="M59.7968 36.9873H85.5236V41.9302H59.7968V36.9873Z" fill="#729BF4"/>
<path d="M59.8827 57.7109H85.6096V59.6121H59.8827V57.7109Z" fill="#729BF4"/>
<path d="M64.2577 25.8613H89.8307V29.8298H64.2577V25.8613Z" fill="#587ED1"/>
<path d="M59.7968 25.8613H85.3698V29.8298H59.7968V25.8613Z" fill="#729BF4"/>
<path d="M62.1122 17.5494C62.1122 17.2433 62.3603 16.9951 62.6664 16.9951H91.2156C91.5217 16.9951 91.7698 17.2433 91.7698 17.5494V24.7812C91.7698 25.6995 91.0254 26.4439 90.107 26.4439H63.775C62.8566 26.4439 62.1122 25.6995 62.1122 24.7812V17.5494Z" fill="#A3C0FF"/>
<path d="M57.6521 17.5494C57.6521 17.2433 57.9002 16.9951 58.2064 16.9951H86.7555C87.0616 16.9951 87.3097 17.2433 87.3097 17.5494V24.7812C87.3097 25.6995 86.5653 26.4439 85.647 26.4439H59.3149C58.3965 26.4439 57.6521 25.6995 57.6521 24.7812V17.5494Z" fill="#CBDBFF"/>
<path d="M63.2294 21.4555C63.2294 22.2254 62.6053 22.8495 61.8354 22.8495C61.0655 22.8495 60.4414 22.2254 60.4414 21.4555C60.4414 20.6856 61.0655 20.0615 61.8354 20.0615C62.6053 20.0615 63.2294 20.6856 63.2294 21.4555Z" fill="#265DD5"/>
<path d="M66.2946 20.3408C66.2946 20.0328 66.5442 19.7832 66.8521 19.7832H83.5799C83.8878 19.7832 84.1375 20.0328 84.1375 20.3408V22.5712C84.1375 22.8791 83.8878 23.1288 83.5799 23.1288H66.8521C66.5442 23.1288 66.2946 22.8791 66.2946 22.5712V20.3408Z" fill="#E2EBFF"/>
<path fill-rule="evenodd" clip-rule="evenodd" d="M77.1224 37.7877C77.1224 37.6201 77.0462 37.4702 76.9266 37.3708V28.8809H90.664C91.2763 28.8809 91.7726 29.3772 91.7726 29.9894V37.2212C91.7726 37.8334 91.2763 38.3297 90.664 38.3297H77.6644C77.365 38.3297 77.1224 38.087 77.1224 37.7877Z" fill="#A3C0FF"/>
<path fill-rule="evenodd" clip-rule="evenodd" d="M87.3108 29.9376C87.3108 29.3254 86.8145 28.8291 86.2023 28.8291H58.7617C58.1495 28.8291 57.6532 29.3254 57.6532 29.9376V37.1694C57.6532 37.7816 58.1495 38.2779 58.7617 38.2779H62.4712C62.7705 38.2779 63.0131 38.0353 63.0131 37.736C63.0131 37.4367 63.2557 37.194 63.555 37.194H72.1187C72.418 37.194 72.6607 37.4367 72.6607 37.736C72.6607 38.0353 72.9033 38.2779 73.2026 38.2779H86.2023C86.8145 38.2779 87.3108 37.7816 87.3108 37.1694V29.9376Z" fill="#CBDBFF"/>
<path d="M64.2587 48.8545H89.9855V53.7974H64.2587V48.8545Z" fill="#587ED1"/>
<path d="M59.7977 48.8545H85.5246V53.7974H59.7977V48.8545Z" fill="#729BF4"/>
<path d="M63.2294 33.0102C63.2294 33.7801 62.6053 34.4042 61.8354 34.4042C61.0655 34.4042 60.4414 33.7801 60.4414 33.0102C60.4414 32.2403 61.0655 31.6162 61.8354 31.6162C62.6053 31.6162 63.2294 32.2403 63.2294 33.0102Z" fill="#E2EBFF"/>
<path d="M66.2965 31.8955C66.2965 31.5875 66.5462 31.3379 66.8541 31.3379H83.5818C83.8898 31.3379 84.1394 31.5875 84.1394 31.8955V34.1258C84.1394 34.4338 83.8898 34.6834 83.5818 34.6834H66.8541C66.5462 34.6834 66.2965 34.4338 66.2965 34.1258V31.8955Z" fill="#E2EBFF"/>
<path fill-rule="evenodd" clip-rule="evenodd" d="M77.1224 49.6022C77.1224 49.4345 77.0462 49.2846 76.9266 49.1852V40.6953H90.664C91.2763 40.6953 91.7726 41.1916 91.7726 41.8038V49.0356C91.7726 49.6478 91.2763 50.1441 90.664 50.1441H77.6644C77.365 50.1441 77.1224 49.9015 77.1224 49.6022Z" fill="#A3C0FF"/>
<path fill-rule="evenodd" clip-rule="evenodd" d="M87.3108 41.8038C87.3108 41.1916 86.8145 40.6953 86.2023 40.6953H58.7617C58.1495 40.6953 57.6532 41.1916 57.6532 41.8038V49.0356C57.6532 49.6478 58.1495 50.1441 58.7617 50.1441H62.4712C62.7705 50.1441 63.0131 49.9015 63.0131 49.6022C63.0131 49.3029 63.2557 49.0603 63.555 49.0603H72.1187C72.418 49.0603 72.6607 49.3029 72.6607 49.6022C72.6607 49.9015 72.9033 50.1441 73.2026 50.1441H86.2023C86.8145 50.1441 87.3108 49.6478 87.3108 49.0356V41.8038Z" fill="#CBDBFF"/>
<path d="M63.2303 44.8774C63.2303 45.6473 62.6062 46.2714 61.8364 46.2714C61.0665 46.2714 60.4424 45.6473 60.4424 44.8774C60.4424 44.1075 61.0665 43.4834 61.8364 43.4834C62.6062 43.4834 63.2303 44.1075 63.2303 44.8774Z" fill="#E2EBFF"/>
<path d="M66.2965 43.7627C66.2965 43.4547 66.5462 43.2051 66.8541 43.2051H83.5818C83.8898 43.2051 84.1394 43.4547 84.1394 43.7627V45.993C84.1394 46.301 83.8898 46.5506 83.5818 46.5506H66.8541C66.5462 46.5506 66.2965 46.301 66.2965 45.993V43.7627Z" fill="#E2EBFF"/>
<path fill-rule="evenodd" clip-rule="evenodd" d="M90.6519 52.5625C91.2644 52.5625 91.7608 53.0689 91.7608 53.6937V61.0734C91.7608 61.6982 91.2644 62.2046 90.6519 62.2046H77.6477C77.3483 62.2046 77.1055 61.957 77.1055 61.6516C77.1055 61.3461 76.8628 61.0986 76.5634 61.0986H70.993V52.5625H90.6519Z" fill="#A3C0FF"/>
<path fill-rule="evenodd" clip-rule="evenodd" d="M87.3103 53.6937C87.3103 53.069 86.8139 52.5625 86.2014 52.5625H58.7512C58.1388 52.5625 57.6423 53.069 57.6423 53.6937V61.0734C57.6423 61.6981 58.1388 62.2046 58.7512 62.2046H62.462C62.7614 62.2046 63.0041 61.957 63.0041 61.6516C63.0041 61.3461 63.2468 61.0985 63.5462 61.0985H72.1129C72.4123 61.0985 72.6551 61.3461 72.6551 61.6516C72.6551 61.957 72.8978 62.2046 73.1972 62.2046H86.2014C86.8139 62.2046 87.3103 61.6981 87.3103 61.0734V53.6937Z" fill="#CBDBFF"/>
<path d="M63.2303 56.7446C63.2303 57.5144 62.6062 58.1385 61.8364 58.1385C61.0665 58.1385 60.4424 57.5144 60.4424 56.7446C60.4424 55.9747 61.0665 55.3506 61.8364 55.3506C62.6062 55.3506 63.2303 55.9747 63.2303 56.7446Z" fill="#E2EBFF"/>
<path d="M66.2965 55.6299C66.2965 55.3219 66.5462 55.0723 66.8541 55.0723H83.5818C83.8898 55.0723 84.1394 55.3219 84.1394 55.6299V57.8602C84.1394 58.1682 83.8898 58.4178 83.5818 58.4178H66.8541C66.5462 58.4178 66.2965 58.1682 66.2965 57.8602V55.6299Z" fill="#E2EBFF"/>
<path d="M91.2177 16.9951C91.5237 16.9952 91.7714 17.2437 91.7714 17.5498V24.7812C91.7714 25.6995 91.0275 26.4442 90.1093 26.4443H89.8309V28.8809H90.6639C91.2761 28.8809 91.7723 29.3771 91.7723 29.9893V37.2207C91.7723 37.8329 91.2762 38.3301 90.6639 38.3301H89.9843V40.6963H90.6639C91.2762 40.6963 91.7723 41.1925 91.7723 41.8047V49.0361C91.7723 49.6483 91.2762 50.1445 90.6639 50.1445H89.9852V52.5635H90.6522C91.2645 52.5636 91.7606 53.0697 91.7606 53.6943V61.0742C91.7605 61.6988 91.2645 62.2049 90.6522 62.2051H58.7509C58.1386 62.2049 57.6425 61.6988 57.6425 61.0742V53.6943C57.6425 53.0697 58.1386 52.5637 58.7509 52.5635H59.7977V50.1445H58.7616C58.1494 50.1445 57.6532 49.6483 57.6532 49.0361V41.8047C57.6532 41.1925 58.1494 40.6963 58.7616 40.6963H59.7968V38.2773H58.7616C58.1494 38.2773 57.6532 37.7811 57.6532 37.1689V29.9375C57.6532 29.3253 58.1494 28.8291 58.7616 28.8291H59.7968V26.4443H59.3173C58.3989 26.4443 57.6542 25.6996 57.6542 24.7812V17.5498C57.6542 17.2438 57.902 16.9954 58.2079 16.9951H91.2177Z" fill="#9AC6FF" fill-opacity="0.39"/>
<path d="M86.7362 60.1826H120.113V65.2397H86.7362V60.1826Z" fill="#729BF4"/>
<path d="M90.7021 30.8516H125.784V37.5919H90.7021V30.8516Z" fill="#698AD1"/>
<path d="M84.6172 30.8516H119.699V37.5919H84.6172V30.8516Z" fill="#7AA1F4"/>
<path d="M84.7361 59.1113H119.818V61.7038H84.7361V59.1113Z" fill="#729BF4"/>
<path d="M90.7021 15.6807H125.574V21.0923H90.7021V15.6807Z" fill="#698AD1"/>
<path d="M84.6172 15.6807H119.49V21.0923H84.6172V15.6807Z" fill="#7AA1F4"/>
<path d="M87.7782 4.29975C87.7782 3.88233 88.1166 3.54395 88.534 3.54395H127.465C127.882 3.54395 128.22 3.88233 128.22 4.29975V14.1613C128.22 15.4135 127.205 16.4287 125.953 16.4287H90.0456C88.7934 16.4287 87.7782 15.4135 87.7782 14.1613V4.29975Z" fill="#A4C1FF"/>
<path d="M81.6953 4.29975C81.6953 3.88233 82.0337 3.54395 82.4511 3.54395H121.382C121.799 3.54395 122.138 3.88233 122.138 4.29975V14.1613C122.138 15.4135 121.122 16.4287 119.87 16.4287H83.9627C82.7105 16.4287 81.6953 15.4135 81.6953 14.1613V4.29975Z" fill="#CFDEFF"/>
<path d="M89.2998 9.62647C89.2998 10.6763 88.4488 11.5273 87.3989 11.5273C86.3491 11.5273 85.498 10.6763 85.498 9.62647C85.498 8.57664 86.3491 7.72559 87.3989 7.72559C88.4488 7.72559 89.2998 8.57664 89.2998 9.62647Z" fill="#26D580"/>
<path d="M93.4802 8.10606C93.4802 7.68612 93.8206 7.3457 94.2406 7.3457H117.051C117.471 7.3457 117.811 7.68612 117.811 8.10606V11.1475C117.811 11.5674 117.471 11.9078 117.051 11.9078H94.2406C93.8206 11.9078 93.4802 11.5674 93.4802 11.1475V8.10606Z" fill="#E8EFFF"/>
<path fill-rule="evenodd" clip-rule="evenodd" d="M108.244 31.9426C108.244 31.714 108.14 31.5096 107.977 31.374V19.7969H126.709C127.544 19.7969 128.221 20.4736 128.221 21.3085V31.17C128.221 32.0049 127.544 32.6816 126.709 32.6816H108.983C108.574 32.6816 108.244 32.3508 108.244 31.9426Z" fill="#A4C1FF"/>
<path fill-rule="evenodd" clip-rule="evenodd" d="M122.138 21.2382C122.138 20.4033 121.461 19.7266 120.626 19.7266H83.2069C82.3721 19.7266 81.6953 20.4033 81.6953 21.2382V31.0997C81.6953 31.9345 82.3721 32.6113 83.2069 32.6113H88.2653C88.6734 32.6113 89.0043 32.2804 89.0043 31.8723C89.0043 31.4642 89.3351 31.1333 89.7433 31.1333H101.421C101.829 31.1333 102.16 31.4642 102.16 31.8723C102.16 32.2804 102.491 32.6113 102.899 32.6113H120.626C121.461 32.6113 122.138 31.9345 122.138 31.0997V21.2382Z" fill="#CFDEFF"/>
<path d="M90.7031 47.0342H125.785V53.7746H90.7031V47.0342Z" fill="#698AD1"/>
<path d="M84.6191 47.0342H119.701V53.7745H84.6191V47.0342Z" fill="#7AA1F4"/>
<path d="M89.2979 25.4292C89.2979 26.479 88.4468 27.3301 87.397 27.3301C86.3471 27.3301 85.4961 26.479 85.4961 25.4292C85.4961 24.3794 86.3471 23.5283 87.397 23.5283C88.4468 23.5283 89.2979 24.3794 89.2979 25.4292Z" fill="#E8EFFF"/>
<path d="M93.4802 23.9088C93.4802 23.4889 93.8206 23.1484 94.2406 23.1484H117.051C117.471 23.1484 117.811 23.4889 117.811 23.9088V26.9502C117.811 27.3701 117.471 27.7105 117.051 27.7105H94.2406C93.8206 27.7105 93.4802 27.3701 93.4802 26.9502V23.9088Z" fill="#E8EFFF"/>
<path fill-rule="evenodd" clip-rule="evenodd" d="M108.244 48.0549C108.244 47.8263 108.14 47.6219 107.977 47.4863V35.9092H126.709C127.544 35.9092 128.221 36.5859 128.221 37.4208V47.2823C128.221 48.1172 127.544 48.7939 126.709 48.7939H108.983C108.574 48.7939 108.244 48.4631 108.244 48.0549Z" fill="#A4C1FF"/>
<path fill-rule="evenodd" clip-rule="evenodd" d="M122.138 37.4208C122.138 36.586 121.461 35.9092 120.626 35.9092H83.2069C82.3721 35.9092 81.6953 36.586 81.6953 37.4208V47.2823C81.6953 48.1172 82.3721 48.7939 83.2069 48.7939H88.2653C88.6734 48.7939 89.0043 48.4631 89.0043 48.0549C89.0043 47.6468 89.3351 47.3159 89.7433 47.3159H101.421C101.829 47.3159 102.16 47.6468 102.16 48.0549C102.16 48.4631 102.491 48.7939 102.899 48.7939H120.626C121.461 48.7939 122.138 48.1172 122.138 47.2823V37.4208Z" fill="#CFDEFF"/>
<path d="M89.3018 41.6118C89.3018 42.6616 88.4507 43.5127 87.4009 43.5127C86.3511 43.5127 85.5 42.6616 85.5 41.6118C85.5 40.562 86.3511 39.7109 87.4009 39.7109C88.4507 39.7109 89.3018 40.562 89.3018 41.6118Z" fill="#E8EFFF"/>
<path d="M93.4802 40.0914C93.4802 39.6715 93.8206 39.3311 94.2406 39.3311H117.051C117.471 39.3311 117.811 39.6715 117.811 40.0914V43.1328C117.811 43.5527 117.471 43.8932 117.051 43.8932H94.2406C93.8206 43.8932 93.4802 43.5527 93.4802 43.1328V40.0914Z" fill="#E8EFFF"/>
<path fill-rule="evenodd" clip-rule="evenodd" d="M126.692 52.0918C127.527 52.0918 128.204 52.7824 128.204 53.6343V63.6976C128.204 64.5495 127.527 65.2401 126.692 65.2401H108.959C108.551 65.2401 108.22 64.9025 108.22 64.486C108.22 64.0695 107.889 63.7319 107.48 63.7319H99.8845V52.0918H126.692Z" fill="#A4C1FF"/>
<path fill-rule="evenodd" clip-rule="evenodd" d="M126.692 56.1377C127.527 56.1377 128.204 56.8283 128.204 57.6802V67.7435C128.204 68.5954 127.527 69.286 126.692 69.286H108.959C108.551 69.286 108.22 68.9484 108.22 68.5319C108.22 68.1154 107.889 67.7778 107.48 67.7778H99.8845V56.1377H126.692Z" fill="#A4C1FF"/>
<path fill-rule="evenodd" clip-rule="evenodd" d="M122.135 53.6343C122.135 52.7824 121.458 52.0918 120.623 52.0918H83.1908C82.3557 52.0918 81.6787 52.7824 81.6787 53.6343V63.6976C81.6787 64.5495 82.3557 65.2401 83.1909 65.2401H88.251C88.6592 65.2401 88.9902 64.9025 88.9902 64.486C88.9902 64.0695 89.3212 63.7319 89.7295 63.7319H101.411C101.82 63.7319 102.151 64.0695 102.151 64.486C102.151 64.9025 102.482 65.2401 102.89 65.2401H120.623C121.458 65.2401 122.135 64.5495 122.135 63.6976V53.6343Z" fill="#CFDEFF"/>
<path fill-rule="evenodd" clip-rule="evenodd" d="M122.135 57.6802C122.135 56.8283 121.458 56.1377 120.623 56.1377H83.1908C82.3557 56.1377 81.6787 56.8283 81.6787 57.6802V67.7435C81.6787 68.5954 82.3557 69.286 83.1909 69.286H88.251C88.6592 69.286 88.9902 68.9484 88.9902 68.5319C88.9902 68.1154 89.3212 67.7778 89.7295 67.7778H101.411C101.82 67.7778 102.151 68.1154 102.151 68.5319C102.151 68.9484 102.482 69.286 102.89 69.286H120.623C121.458 69.286 122.135 68.5954 122.135 67.7435V57.6802Z" fill="#CBDBFF"/>
<path d="M89.3008 57.7944C89.3008 58.8443 88.4497 59.6953 87.3999 59.6953C86.3501 59.6953 85.499 58.8443 85.499 57.7944C85.499 56.7446 86.3501 55.8936 87.3999 55.8936C88.4497 55.8936 89.3008 56.7446 89.3008 57.7944Z" fill="#E8EFFF"/>
<path d="M93.4802 56.273C93.4802 55.8531 93.8206 55.5127 94.2406 55.5127H117.051C117.471 55.5127 117.811 55.8531 117.811 56.273V59.3145C117.811 59.7344 117.471 60.0748 117.051 60.0748H94.2406C93.8206 60.0748 93.4802 59.7344 93.4802 59.3145V56.273Z" fill="#E8EFFF"/>
<path d="M93.4812 59.3082C93.4812 58.8883 93.8216 58.5479 94.2416 58.5479H117.052C117.472 58.5479 117.812 58.8883 117.812 59.3082V62.3496C117.812 62.7695 117.472 63.11 117.052 63.11H94.2416C93.8216 63.11 93.4812 62.7695 93.4812 62.3496V59.3082Z" fill="#E8EFFF"/>
<path fill-rule="evenodd" clip-rule="evenodd" d="M12.9336 78.5161C27.1957 78.7389 41.5017 78.9851 55.7732 78.8101H81.3689C92.1941 78.9712 103.054 78.9672 113.877 78.7982C117.906 78.2964 121.321 75.3526 122.453 71.2865C122.533 71.0003 122.592 70.7107 122.652 70.4214C122.706 70.1623 122.759 69.9035 122.827 69.6477C122.798 69.25 122.815 68.8284 122.832 68.4072C122.85 67.943 122.868 67.4778 122.827 67.0471C122.761 66.3774 122.417 65.2018 122.175 64.5529C121.2 61.9409 119.144 59.7555 116.644 58.7113C116.692 52.4086 112.355 46.8351 106.431 45.5718C106.427 45.5708 106.423 45.57 106.418 45.5692C106.414 45.5685 106.41 45.5677 106.406 45.5666C105.007 45.2704 103.572 45.2099 102.153 45.358C101.856 45.3893 101.588 45.4206 101.413 45.4508C97.5879 46.0945 94.147 48.5824 91.9684 51.8568C87.8073 50.1085 82.9541 53.1586 82.5354 57.7923C79.1034 57.5759 75.8265 59.0159 73.7752 61.6636C73.6699 60.6432 73.4671 59.6126 73.16 58.5831C71.139 51.8074 64.8275 47.819 58.1031 48.243C57.4996 41.565 50.5053 37.1692 44.5085 39.6888C41.3686 34.9698 36.4098 31.3843 30.8966 30.4567C30.6454 30.4131 30.2585 30.368 29.8312 30.3229C27.7856 30.1094 25.7169 30.1966 23.7016 30.6236C23.6983 30.6244 23.6949 30.6252 23.6915 30.6258C23.6889 30.6264 23.6862 30.6269 23.6835 30.6274C23.6774 30.6285 23.6712 30.6296 23.6655 30.6311C15.1279 32.4517 8.877 40.4841 8.9463 49.5674C5.34301 51.0723 2.3807 54.2218 0.97606 57.9862C0.6267 58.9213 0.130094 60.6156 0.0362621 61.5807C-0.0234998 62.2015 0.00274988 62.8697 0.0290341 63.5386C0.052909 64.1463 0.0768069 64.7547 0.0362621 65.3286C0.133797 65.6973 0.210712 66.0703 0.287702 66.4437C0.373667 66.8606 0.459737 67.278 0.574729 67.6904C2.20602 73.5505 7.12733 77.793 12.9336 78.5161Z" fill="url(#paint1_linear_7527_5124)"/>
<path d="M28.0742 62.2051V81.5131C28.0742 85.9314 31.6559 89.5131 36.0742 89.5131H67.6104C72.0287 89.5131 75.6104 93.0948 75.6104 97.5131V112.27" stroke="#DEECFF" stroke-width="3.1"/>
<path d="M131.046 187.838C130.826 189.298 127.484 191.899 126.077 192.844C125.801 193.03 125.482 193.231 125.136 193.442L132.603 195.852L140.29 193.442L138.504 187.838H131.046Z" fill="#FDC4A7"/>
<path d="M145.755 139.623C144.213 133.194 145.708 122.345 146.093 117.753L131.876 117.812C132.005 121.638 132.185 130.592 131.876 135.796C131.568 141 139.715 172.658 145.755 187.837H161.666C162.181 185.413 162.461 181.839 161.532 174.908C160.203 165.006 147.682 147.658 145.755 139.623Z" fill="#7BC8B3"/>
<path d="M145.613 128.359C146.232 125.298 145.202 119.47 144.944 117.812H131.02C128.957 126.357 124.754 144.597 124.444 149.189C124.135 153.781 120.857 176.868 122.92 187.837H139.916C140.819 186.561 140.767 183.245 141.077 180.184C141.463 176.357 140.303 172.913 139.916 170.618C139.529 168.322 140.303 164.253 140.303 161.051C140.303 157.849 138.369 150.337 138.756 145.745C139.143 141.153 144.839 132.185 145.613 128.359Z" fill="url(#paint2_linear_7527_5124)"/>
<path fill-rule="evenodd" clip-rule="evenodd" d="M144.493 192.844C145.983 191.899 149.521 189.298 149.754 187.838H157.949L159.7 193.442L151.886 196.335L143.496 193.442C143.863 193.231 144.2 193.03 144.493 192.844Z" fill="#FDC4A7"/>
<path fill-rule="evenodd" clip-rule="evenodd" d="M143.5 193.441C143.5 193.441 148.35 194.406 151.602 194.406C154.855 194.406 159.704 193.441 159.704 193.441L161.677 199.757H134.859C135.232 199.231 136.275 197.944 137.467 196.998C138.364 196.286 140.06 195.351 141.67 194.464C142.31 194.111 142.942 193.763 143.5 193.441Z" fill="url(#paint3_linear_7527_5124)"/>
<path fill-rule="evenodd" clip-rule="evenodd" d="M125.142 193.441C125.142 193.441 129.76 194.406 132.719 194.406C135.678 194.406 140.296 193.441 140.296 193.441L142.309 199.757H116.981C117.333 199.231 118.317 197.944 119.443 196.998C120.293 196.285 121.895 195.349 123.419 194.46C124.023 194.108 124.614 193.763 125.142 193.441Z" fill="url(#paint4_linear_7527_5124)"/>
<path d="M128.216 118.715H144.228V120.494H128.216V118.715Z" fill="#FFD98B"/>
<path d="M113.505 102.191C111.203 99.8058 105.103 96.6694 102.369 95.513C102.061 95.3828 101.752 95.2505 101.444 95.1181C98.3224 93.7796 93.9814 93.0908 93.4917 93.175C93.002 93.2593 91.8848 94.6331 91.5131 95.9535C91.0722 96.1317 90.831 96.3184 90.4748 96.5571C89.0577 97.5067 89.2039 98.3905 88.7588 99.1219C89.2756 99.1896 89.8573 98.9784 90.3781 98.2037C90.8989 97.429 92.0868 97.1452 93.3212 96.9094C94.0262 97.6068 93.0846 98.0118 93.0846 98.0118C92.6127 98.3258 90.7583 98.3235 90.5834 98.5688C90.1519 99.1739 90.437 99.4314 90.521 99.7294C91.3278 99.2643 93.8128 99.1958 94.6967 98.7943C96.295 98.0684 96.6583 98.8636 97.9088 97.7125C98.1241 97.8036 98.4261 97.8796 98.7872 97.9704C100.336 98.36 102.972 99.023 104.513 102.326C105.307 104.027 106.228 105.116 107.006 106.036C108.931 108.315 111.481 104.709 111.281 106.536L113.505 102.191Z" fill="#FDC4A7"/>
<path d="M141.324 101.646C138.289 92.5436 137.891 93.386 135.76 91.0264C134.648 90.7924 129.039 93.7994 128.168 97.2236C126.657 103.163 126.189 102.961 126.189 102.961C122.677 103.615 114.069 97.093 111.216 95.6395L105.653 108.467C106.752 109.585 114.052 115.183 116.038 115.806C117.688 116.323 116.39 116.755 118.197 116.419C120.005 116.082 128.401 121.636 133.049 120.771C141.317 119.232 145.232 113.368 141.324 101.646Z" fill="#FFD98B"/>
<path fill-rule="evenodd" clip-rule="evenodd" d="M124.972 108.352C125.324 108.261 125.556 107.937 125.564 107.592C125.559 107.936 125.327 108.261 124.972 108.352Z" fill="#4C4C4C"/>
<path fill-rule="evenodd" clip-rule="evenodd" d="M125.546 107.419C125.496 107.45 125.442 107.476 125.385 107.495C125.317 107.518 125.244 107.532 125.167 107.535C125.157 107.535 125.146 107.535 125.135 107.535H109.622C109.388 107.535 109.166 107.431 109.016 107.249L102.577 99.4661L101.328 97.9565C101.262 97.8761 101.215 97.7891 101.185 97.6996C101.296 97.6371 101.426 97.6006 101.571 97.6006H117.348C117.587 97.6006 117.813 97.7085 117.963 97.8942L125.386 107.088C125.469 107.191 125.521 107.304 125.546 107.419Z" fill="#4C4C4C"/>
<path d="M123.148 106.76C123.37 106.76 123.492 106.511 123.351 106.345L116.438 98.2324C116.388 98.1737 116.313 98.1396 116.234 98.1396H102.664C102.441 98.1396 102.319 98.389 102.461 98.5544L109.402 106.667C109.452 106.726 109.526 106.76 109.605 106.76H123.148Z" fill="#F0F7FF"/>
<path d="M115.633 106.368C114.638 106.363 113.833 106.028 113.835 105.618C113.837 105.208 114.645 104.88 115.639 104.884C116.634 104.889 117.439 105.225 117.437 105.634C117.436 106.044 116.628 106.372 115.633 106.368Z" fill="#F0F7FF"/>
<path fill-rule="evenodd" clip-rule="evenodd" d="M125.564 107.557C125.562 107.511 125.557 107.465 125.547 107.419C125.497 107.45 125.443 107.476 125.385 107.495L125.564 107.557Z" fill="#1E1F28"/>
<path d="M101.185 97.6992C100.95 97.831 100.801 98.0783 100.783 98.3416C100.77 98.5313 100.825 98.7294 100.966 98.8984L108.654 108.089C108.804 108.27 109.026 108.375 109.259 108.375H124.772C124.84 108.375 124.904 108.367 124.965 108.352C125.329 108.259 125.571 107.915 125.564 107.557L125.385 107.495C125.318 107.518 125.245 107.531 125.168 107.534L125.157 107.535L125.136 107.535H109.623C109.389 107.535 109.167 107.43 109.017 107.249L102.578 99.4657L101.329 97.9561C101.263 97.8757 101.216 97.7887 101.185 97.6992Z" fill="#1E1F28"/>
<path d="M116.461 116.233C118.083 118.282 123.616 121.584 126.18 122.979L132.487 116.476C131.346 116.364 128.088 115.975 124.187 115.316C120.286 114.658 117.959 112.786 117.283 111.932C118.345 109.865 118.347 107.283 118.925 105.054C118.652 105.052 117.943 105.049 117.531 105.557C117.015 106.192 116.723 109.021 115.603 108.377L112.101 108.377C112.16 111.088 114.434 113.671 116.461 116.233Z" fill="#FDC4A7"/>
<path d="M147.278 109.753C143.913 101.523 138.933 95.5337 136.872 93.3485C135.729 93.1117 132.517 95.4358 131.489 98.5442C129.225 105.383 137.441 114.277 133.086 114.882C127.671 114.288 124.583 112.388 122.374 109.579L117.345 120.97C118.674 123.383 121.543 125.678 123.57 126.286C125.253 126.791 129.729 125.402 131.635 125.138C133.54 124.873 137.38 129.293 142.28 128.613C150.996 127.403 151.479 120.03 147.278 109.753Z" fill="url(#paint5_linear_7527_5124)"/>
<path d="M136.573 91.8813L134.395 87.962C132.331 86.9653 128.51 85.7026 129.734 88.6257C130.958 91.5488 131.42 94.3615 131.498 95.4025L136.573 91.8813Z" fill="#FFB189"/>
<path d="M137.04 83.7804C138.267 81.6649 137.702 79.2042 137.272 78.0275C136.198 75.0859 133.466 73.0832 128.171 75.0174C123.935 76.5647 122.793 80.9829 122.751 82.9986C122.459 84.3279 121.938 87.163 122.196 87.869C122.454 88.575 123.571 88.5894 124.097 88.5084C125.652 90.9409 128.622 90.8563 130.681 90.1041C132.74 89.352 135.812 85.8959 137.04 83.7804Z" fill="#FDC4A7"/>
<path fill-rule="evenodd" clip-rule="evenodd" d="M124.194 81.8525C123.821 81.5152 123.413 81.3608 123.064 81.4881C122.715 81.6155 122.503 81.9965 122.435 82.4951C122.378 82.9134 122.421 83.4186 122.572 83.9419C122.564 83.94 122.556 83.9382 122.547 83.9366C122.485 83.9247 122.411 83.921 122.337 83.9329C122.224 83.951 122.105 84.0059 122.017 84.127C121.859 83.8207 121.673 83.5617 121.478 83.3713C121.193 83.0936 120.881 82.9556 120.618 83.0517C120.355 83.1479 120.206 83.4543 120.167 83.8502C120.128 84.2469 120.198 84.7439 120.383 85.2488C120.567 85.7537 120.834 86.1789 121.119 86.4572C121.404 86.735 121.716 86.873 121.979 86.7768C122.242 86.6807 122.391 86.3743 122.43 85.9784C122.469 85.5817 122.399 85.0847 122.214 84.5798C122.18 84.4865 122.143 84.3959 122.104 84.3085C122.172 84.1869 122.277 84.1321 122.383 84.1151C122.445 84.1052 122.506 84.1084 122.556 84.118C122.589 84.1243 122.616 84.1329 122.635 84.1408C122.646 84.1756 122.659 84.2104 122.671 84.2453C122.901 84.8745 123.245 85.3984 123.619 85.7358C123.992 86.0731 124.4 86.2275 124.749 86.1001C125.097 85.9728 125.31 85.5917 125.378 85.0931C125.446 84.5945 125.371 83.9721 125.141 83.343C124.912 82.7138 124.568 82.1898 124.194 81.8525ZM124.129 81.995C124.473 82.3053 124.796 82.7942 125.014 83.3896C125.231 83.9851 125.299 84.5672 125.237 85.0259C125.174 85.4846 124.982 85.8138 124.684 85.9228C124.386 86.0317 124.027 85.9036 123.683 85.5933C123.34 85.2829 123.017 84.794 122.799 84.1986C122.582 83.6032 122.514 83.0211 122.576 82.5624C122.639 82.1036 122.831 81.7744 123.129 81.6655C123.427 81.5566 123.786 81.6846 124.129 81.995ZM121.408 83.5086C121.665 83.7597 121.913 84.1517 122.086 84.6265C122.26 85.1012 122.323 85.5608 122.288 85.9188C122.253 86.2775 122.121 86.5237 121.914 86.5994C121.707 86.6751 121.448 86.5716 121.19 86.32C120.932 86.0689 120.684 85.6769 120.511 85.2021C120.337 84.7273 120.274 84.2677 120.309 83.9098C120.344 83.5511 120.476 83.3048 120.683 83.2291C120.89 83.1534 121.15 83.2569 121.408 83.5086Z" fill="#462837"/>
<path d="M133.061 85.0681C134.145 84.762 135.336 85.5165 135.698 86.7972C136.059 88.0777 135.439 89.3432 134.355 89.6495C133.271 89.9558 132.081 89.2019 131.719 87.9214C131.357 86.6407 131.977 85.3744 133.061 85.0681Z" stroke="#D8915B" stroke-width="0.25"/>
<path d="M116.642 79.0462C117.674 81.8695 120.285 82.4673 122.81 82.2539C123.218 82.2195 123.623 82.1639 124.019 82.0932C122.815 82.398 121.56 82.54 120.396 82.3688C119.352 82.215 118.385 81.8093 117.593 81.0437C116.801 80.278 116.18 79.147 115.839 77.5337L115.686 77.5661C116.032 79.2027 116.665 80.3642 117.484 81.1563C118.303 81.9486 119.303 82.3661 120.374 82.5237C122.231 82.7972 124.306 82.2888 126.04 81.5942C126.313 81.5088 126.572 81.4205 126.813 81.3325C126.921 81.6267 127.537 82.4017 128.34 82.7751C129.673 83.3947 130.765 82.7253 131.266 82.418C131.369 82.355 131.447 82.3072 131.497 82.2889C131.791 82.1814 132.968 81.7516 133.398 82.9282C133.612 83.5166 133.305 84.0454 132.999 84.5743C132.692 85.1032 132.414 87.5382 134.202 89.6935C139.839 95.5813 137.236 91.7394 138.29 90.0147C139.186 88.5472 144.358 94.566 138.846 86.564C142.318 80.9015 137.52 78.696 137.275 78.0275C136.201 75.0859 133.469 73.0832 128.174 75.0174C126.649 75.5745 125.525 76.5037 124.709 77.5589C124.709 77.5589 124.481 77.447 124.362 77.3883C122.602 76.5198 120.116 75.2935 118.489 75.8877C118.473 75.8938 118.454 75.9006 118.433 75.9081C117.86 76.1132 115.836 76.838 116.642 79.0462Z" fill="#462837"/>
<path d="M136.448 87.5853C136.328 87.3332 136.454 87.0223 136.729 86.8908L139.223 85.7003C139.498 85.5688 139.819 85.6665 139.939 85.9185C140.06 86.1706 139.934 86.4815 139.659 86.613L137.165 87.8035C136.89 87.935 136.569 87.8373 136.448 87.5853Z" fill="#7BC8B3"/>
<g clip-path="url(#clip0_7527_5124)">
<path d="M75.8413 106.707H35.1771C32.3717 106.707 30.0975 108.982 30.0975 111.789V171.412C30.0975 174.219 32.3717 176.494 35.1771 176.494H75.8413C78.6466 176.494 80.9208 174.219 80.9208 171.412V111.789C80.9208 108.982 78.6466 106.707 75.8413 106.707Z" fill="#BDD4F5"/>
<circle cx="55.2676" cy="134.787" r="20.5143" fill="#D4E5FF"/>
<mask id="mask0_7527_5124" style="mask-type:alpha" maskUnits="userSpaceOnUse" x="34" y="114" width="42" height="42">
<circle cx="55.2671" cy="134.787" r="20.5143" fill="#E4EAF2"/>
</mask>
<g mask="url(#mask0_7527_5124)">
<line x1="69.9818" y1="117.494" x2="37.9736" y2="149.502" stroke="#E4EAF2" stroke-width="5.81967"/>
<line x1="74.3578" y1="122.476" x2="42.3496" y2="154.485" stroke="#E4EAF2" stroke-width="2.32787"/>
</g>
<path d="M55.1873 116.985C55.4338 116.795 55.7917 116.971 55.7917 117.282V119.82C55.7918 119.887 55.8459 119.941 55.9128 119.941C60.1148 119.941 64.0777 121.545 67.074 124.459C70.0714 127.373 71.7213 131.229 71.7214 135.314C71.7214 139.4 70.0703 143.255 67.074 146.169C64.0776 149.083 60.1138 150.687 55.9128 150.687C51.7119 150.687 47.748 149.083 44.7517 146.169C41.7553 143.255 40.1042 139.4 40.1042 135.314C40.1043 132.844 40.7261 130.386 41.9011 128.197C41.9541 128.1 42.0751 128.064 42.1726 128.116L45.3425 129.812C45.4148 129.851 45.4416 129.942 45.4031 130.015C44.5298 131.652 44.0731 133.47 44.073 135.314C44.073 141.63 49.4182 146.827 55.9128 146.827C62.4075 146.827 67.7527 141.632 67.7527 135.314C67.7525 128.998 62.4074 123.801 55.9128 123.801C55.8458 123.801 55.7917 123.856 55.7917 123.923V126.322C55.7917 126.633 55.4349 126.809 55.1882 126.62L49.5037 122.262C49.2106 122.037 49.2095 121.596 49.5017 121.37L55.1873 116.985Z" fill="white" fill-opacity="0.86"/>
<g filter="url(#filter0_f_7527_5124)">
<path d="M58.1407 161.542V168.086C58.1407 168.393 57.8881 168.646 57.5804 168.646H43.9858C43.8343 168.646 43.6919 168.586 43.5863 168.481L38.4378 163.325C38.3322 163.224 38.2725 163.082 38.2725 162.93V152.077C38.2725 151.567 38.8971 151.319 39.2415 151.696L44.3578 157.186C43.0122 158.978 42.98 161.561 44.5461 163.38C44.8217 163.697 45.1202 163.996 45.4417 164.272C47.7703 166.284 51.3618 165.659 52.9233 163.004C53.2448 162.457 53.6903 161.772 54.2368 160.982H57.5804C57.8881 160.982 58.1407 161.235 58.1407 161.542Z" fill="#B6A8D8"/>
</g>
<path fill-rule="evenodd" clip-rule="evenodd" d="M66.3052 111.904L55.3705 111.904L44.1818 111.904C43.5506 111.904 42.9421 112.156 42.4925 112.611C42.3549 112.751 40.2149 114.755 40.0721 114.9L35.6038 119.412C35.3132 119.701 35.1497 120.101 35.1497 120.514V124.158C33.4106 127.425 32.4252 131.161 32.4252 135.122C32.4252 137.427 32.7593 139.655 33.3812 141.759C33.8501 143.346 34.4827 144.862 35.259 146.287C35.8742 147.416 36.5798 148.489 37.3657 149.494L36.3939 150.482C35.9444 150.937 35.6946 151.553 35.6946 152.192V153.125V163.026C35.6946 163.67 35.9444 164.281 36.3939 164.736L39.4432 167.821L42.4924 170.907C42.942 171.362 43.5505 171.614 44.1817 171.614L55.3706 171.614L66.3051 171.614C66.9363 171.614 67.5448 171.362 67.9943 170.907L74.002 164.828C74.4515 164.373 74.7013 163.757 74.7013 163.118V160.894V154.383V151.829C74.7013 151.185 74.4515 150.57 74.002 150.115L73.3799 149.49C74.1644 148.486 74.8689 147.415 75.4834 146.286C76.2591 144.861 76.8914 143.346 77.3602 141.759C77.9817 139.655 78.3159 137.427 78.3159 135.122C78.3159 130.523 76.9885 126.234 74.7014 122.624V120.4C74.7014 119.761 74.4516 119.145 74.0021 118.69L67.9944 112.611C67.5449 112.156 66.9364 111.904 66.3052 111.904ZM38.3285 124.105C41.2876 119.427 46.0789 116.049 51.6755 115.005C51.827 114.978 51.9861 114.95 52.142 114.922C52.2494 114.905 52.3569 114.887 52.4643 114.872C52.4976 114.867 52.5309 114.862 52.5642 114.858C52.8775 114.812 53.1954 114.775 53.5133 114.748C53.6677 114.729 53.8221 114.72 53.9764 114.711C54.4396 114.679 54.9073 114.661 55.3705 114.661C56.2424 114.661 57.1006 114.716 57.9452 114.826C58.2268 114.863 58.5083 114.904 58.7898 114.955C59.0623 115.001 59.3438 115.056 59.6163 115.115C59.8842 115.175 60.1567 115.24 60.4246 115.313L60.5744 115.354C60.5868 115.358 60.5993 115.362 60.6119 115.366L60.6199 115.368L60.6386 115.373L60.6564 115.378L60.6852 115.386C60.7226 115.397 60.7606 115.407 60.7969 115.419L60.8285 115.428L60.8572 115.436C60.9125 115.452 60.966 115.467 61.0194 115.488C61.0834 115.5 61.1438 115.519 61.2069 115.539L61.2329 115.547C61.4872 115.625 61.746 115.708 61.9957 115.8C62.0639 115.823 62.132 115.846 62.1955 115.874C62.3272 115.92 62.4589 115.97 62.5861 116.021L62.7223 116.076C62.7654 116.092 62.8074 116.109 62.8494 116.126C62.8913 116.144 62.9336 116.161 62.9766 116.177C62.9811 116.179 62.9868 116.181 62.9924 116.184C62.9981 116.186 63.0038 116.188 63.0084 116.191C63.0987 116.23 63.188 116.268 63.2772 116.307L63.3161 116.324C63.3931 116.358 63.4713 116.392 63.5487 116.425C63.6759 116.48 63.7985 116.535 63.9211 116.6L63.9606 116.619L64.0007 116.638L64.0618 116.669C64.1082 116.691 64.1551 116.715 64.2026 116.737C64.2616 116.765 64.3208 116.797 64.3797 116.829C64.4251 116.848 64.4705 116.871 64.5114 116.898H64.5205C64.5795 116.926 64.6386 116.958 64.6976 116.99C64.7369 117.009 64.7767 117.031 64.816 117.054C64.8356 117.065 64.8551 117.076 64.8747 117.087C64.8864 117.093 64.8974 117.099 64.9078 117.105C64.9215 117.112 64.9345 117.12 64.9473 117.128C65.0654 117.183 65.1835 117.247 65.297 117.321C66.9499 118.245 68.4575 119.416 69.7653 120.781C69.8924 120.91 70.0196 121.043 70.1422 121.176C70.2648 121.305 70.3828 121.433 70.4964 121.567C70.8506 121.957 71.1775 122.366 71.4863 122.784C71.5589 122.881 71.6316 122.982 71.7043 123.083C71.8023 123.214 71.8959 123.348 71.9882 123.483C72.0284 123.542 72.0684 123.602 72.1084 123.662C72.2764 123.905 72.4308 124.154 72.5807 124.402C73.0393 125.155 73.4525 125.941 73.8067 126.754L73.8113 126.764L73.8144 126.77L73.8233 126.79L73.8271 126.798L73.8364 126.818L73.8416 126.829L73.8476 126.842C73.8862 126.934 73.9248 127.024 73.9634 127.115C74.002 127.206 74.0406 127.297 74.0792 127.388C74.0804 127.391 74.0816 127.394 74.0828 127.397L74.0887 127.411L74.0928 127.421C74.1087 127.464 74.1261 127.508 74.1431 127.55L74.1512 127.57L74.1634 127.601C74.1736 127.627 74.1833 127.652 74.1927 127.678L74.2472 127.816C74.2971 127.944 74.3471 128.078 74.3925 128.211C74.4152 128.266 74.4334 128.321 74.4515 128.381C74.4524 128.383 74.4533 128.385 74.4542 128.387L74.4583 128.397L74.4619 128.406L74.4651 128.413L74.4788 128.454C74.506 128.528 74.5333 128.606 74.556 128.68C74.6092 128.829 74.6588 128.982 74.7014 129.135C74.706 129.152 74.7105 129.168 74.7149 129.185L74.7194 129.194C74.7285 129.231 74.7376 129.263 74.7467 129.295C74.7519 129.312 74.7575 129.33 74.7631 129.348C74.7772 129.392 74.7915 129.437 74.8012 129.479C74.8148 129.525 74.8285 129.576 74.8421 129.626C74.8648 129.7 74.8875 129.773 74.9056 129.851L74.9465 130.003C75.0191 130.274 75.0827 130.545 75.1417 130.821C75.2008 131.097 75.2507 131.372 75.3007 131.652C75.3506 131.942 75.3915 132.227 75.4278 132.512C75.5368 133.366 75.5913 134.235 75.5913 135.117C75.5913 135.586 75.5731 136.055 75.5413 136.523C75.5323 136.679 75.5232 136.836 75.505 136.987C75.4995 137.069 75.4922 137.15 75.4833 137.231C75.4776 137.283 75.4712 137.335 75.4642 137.387C75.446 137.566 75.4233 137.745 75.4006 137.92L75.3996 137.926C75.3773 138.08 75.3546 138.236 75.3323 138.385L75.3312 138.391L75.3294 138.402L75.3187 138.463L75.2995 138.573L75.2984 138.579L75.2925 138.613C75.2799 138.684 75.2673 138.756 75.2548 138.826L75.2507 138.848C75.0698 139.845 74.8172 140.817 74.4986 141.759C73.5063 144.691 71.8735 147.325 69.7698 149.485C66.9544 152.371 63.299 154.411 59.2076 155.206C58.8534 155.275 58.4992 155.339 58.1405 155.39C56.1324 155.724 50.7255 154.794 48.273 154.287C45.494 153.23 43.0055 151.576 40.9621 149.476C38.8627 147.317 37.2313 144.687 36.241 141.759C35.9226 140.818 35.6704 139.845 35.4903 138.848C35.3995 138.37 35.3268 137.883 35.2769 137.392C35.2706 137.338 35.2647 137.285 35.2589 137.231C35.2395 137.052 35.2228 136.874 35.2088 136.693C35.1951 136.523 35.1861 136.348 35.177 136.174C35.1588 135.871 35.1497 135.567 35.1497 135.264C35.1497 134.988 35.1497 134.713 35.1634 134.432C35.1634 134.308 35.1679 134.189 35.177 134.069C35.2042 133.518 35.2542 132.967 35.3268 132.42C35.3632 132.121 35.4086 131.822 35.4631 131.528C35.5299 131.146 35.6072 130.767 35.6948 130.392C36.2235 128.128 37.1244 126.009 38.3285 124.105Z" fill="#5F80AD"/>
<path d="M60.4675 134.933C60.4675 132.141 58.2045 129.878 55.413 129.878C52.6215 129.878 50.3585 132.141 50.3585 134.933C50.3585 137.724 52.6215 139.987 55.413 139.987C58.2045 139.987 60.4675 137.724 60.4675 134.933ZM61.5237 134.933C61.5237 138.308 58.7878 141.044 55.413 141.044C52.0382 141.044 49.3024 138.308 49.3024 134.933C49.3024 131.558 52.0382 128.822 55.413 128.822C58.7878 128.822 61.5237 131.558 61.5237 134.933Z" fill="#D4E5FF"/>
<path fill-rule="evenodd" clip-rule="evenodd" d="M55.413 141.044C52.0382 141.044 49.3024 138.308 49.3024 134.933C49.3024 131.558 52.0382 128.822 55.413 128.822C58.7878 128.822 61.5237 131.558 61.5237 134.933C61.5237 138.308 58.7878 141.044 55.413 141.044ZM55.413 129.275C58.5379 129.275 61.071 131.808 61.071 134.933C61.071 138.058 58.5379 140.591 55.413 140.591C52.2882 140.591 49.755 138.058 49.755 134.933C49.755 131.808 52.2882 129.275 55.413 129.275Z" fill="#9EC2F5"/>
<path d="M55.413 140.439C58.4545 140.439 60.9201 137.973 60.9201 134.932C60.9201 131.89 58.4545 129.425 55.413 129.425C52.3715 129.425 49.9059 131.89 49.9059 134.932C49.9059 137.973 52.3715 140.439 55.413 140.439Z" fill="#D4E5FF"/>
<path d="M60.9201 134.933C60.9201 137.974 58.4545 140.44 55.413 140.44C52.3715 140.44 49.9059 137.974 49.9059 134.933C49.9059 131.891 52.3715 129.426 55.413 129.426C58.4545 129.426 60.9201 131.891 60.9201 134.933ZM55.4886 137.724C54.9886 137.724 54.5833 138.13 54.5833 138.629C54.5834 139.129 54.9886 139.535 55.4886 139.535C55.9885 139.535 56.3938 139.129 56.3939 138.629C56.3939 138.13 55.9886 137.724 55.4886 137.724ZM53.5681 136.929C53.2146 136.575 52.6414 136.575 52.2878 136.929C51.9343 137.282 51.9343 137.856 52.2878 138.209C52.6414 138.563 53.2146 138.563 53.5681 138.209C53.9217 137.856 53.9217 137.282 53.5681 136.929ZM58.6891 136.929C58.3355 136.575 57.7623 136.575 57.4088 136.929C57.0553 137.282 57.0553 137.856 57.4088 138.209C57.7623 138.563 58.3355 138.563 58.6891 138.209C59.0426 137.856 59.0426 137.282 58.6891 136.929ZM55.4885 132.896C54.3219 132.896 53.3761 133.842 53.3761 135.008C53.3761 136.175 54.3219 137.121 55.4885 137.121C56.6551 137.121 57.6008 136.175 57.6008 135.008C57.6008 133.842 56.6551 132.896 55.4885 132.896ZM51.8673 134.103C51.3674 134.103 50.9621 134.508 50.962 135.008C50.962 135.508 51.3674 135.914 51.8673 135.914C52.3673 135.914 52.7726 135.508 52.7726 135.008C52.7726 134.508 52.3673 134.103 51.8673 134.103ZM59.1096 134.103C58.6096 134.103 58.2043 134.508 58.2043 135.008C58.2043 135.508 58.6096 135.914 59.1096 135.914C59.6096 135.914 60.0149 135.508 60.0149 135.008C60.0148 134.508 59.6096 134.103 59.1096 134.103ZM58.6892 131.808C58.3357 131.454 57.7625 131.454 57.4089 131.808C57.0554 132.161 57.0554 132.734 57.4089 133.088C57.7625 133.442 58.3357 133.442 58.6892 133.088C59.0427 132.734 59.0427 132.161 58.6892 131.808ZM53.568 131.808C53.2144 131.454 52.6412 131.454 52.2877 131.808C51.9342 132.161 51.9342 132.734 52.2877 133.088C52.6412 133.442 53.2144 133.442 53.568 133.088C53.9215 132.734 53.9215 132.161 53.568 131.808ZM55.4886 130.482C54.9886 130.482 54.5833 130.887 54.5833 131.387C54.5834 131.887 54.9886 132.293 55.4886 132.293C55.9885 132.292 56.3938 131.887 56.3939 131.387C56.3939 130.887 55.9886 130.482 55.4886 130.482Z" fill="#9EC2F5"/>
<path d="M63.62 142.114C61.7907 143.498 58.611 146.071 55.3157 148.726C54.5545 149.342 53.785 149.958 53.0235 150.57L53.0194 150.571C50.8221 152.335 48.703 154.015 47.0449 155.273C47.0368 155.277 47.0329 155.282 47.029 155.286C46.1541 155.947 45.4093 156.491 44.8459 156.87C44.758 156.93 44.6742 156.989 44.5949 157.052C44.1976 157.359 43.8662 157.725 43.6031 158.119C42.4869 159.81 42.5991 162.141 44.1116 163.697C44.3776 163.968 44.6632 164.222 44.9684 164.453C47.1793 166.141 50.3857 165.381 51.6494 162.9C51.9096 162.389 52.2741 161.747 52.724 161.004C53.1698 160.261 53.7009 159.417 54.2822 158.508L54.2864 158.508C54.8448 157.634 55.4579 156.702 56.0939 155.735C56.338 155.371 56.5819 155.003 56.8296 154.63C57.8131 153.151 58.8355 151.629 59.8197 150.163C61.7614 147.27 63.5465 144.607 64.5528 142.956C64.9196 142.351 64.1848 141.689 63.62 142.114ZM49.6493 161.19C49.5029 162.206 48.6574 163.01 47.5924 163.075C46.37 163.149 45.3196 162.218 45.2455 160.995C45.2216 160.601 45.3026 160.222 45.4656 159.891C45.8061 159.197 46.4998 158.701 47.3244 158.651C48.5469 158.577 49.5973 159.508 49.6711 160.727C49.6807 160.884 49.6734 161.039 49.6493 161.19Z" fill="#9EC2F5"/>
<path fill-rule="evenodd" clip-rule="evenodd" d="M58.0321 160.799V167.232C58.0321 167.874 57.511 168.396 56.8681 168.396H44.7311C44.4233 168.396 44.128 168.274 43.9099 168.056L38.5878 162.757C38.3684 162.538 38.2451 162.241 38.2451 161.932V151.905C38.2451 151.37 38.6788 150.937 39.2137 150.937C39.5197 150.937 39.8101 151.085 39.9944 151.329C45.5688 158.718 49.3956 160.968 56.595 159.634C57.3324 159.497 58.0321 160.049 58.0321 160.799Z" fill="#C6D4E6"/>
<path d="M67.1157 163.74C67.1157 163.74 71.4194 162.959 71.4172 160.962C71.4153 159.218 69.8682 157.768 68.1278 157.933C66.2717 158.108 65.5975 161.972 65.5975 161.972" stroke="#8FB7FD" stroke-width="0.989344"/>
<path d="M75.6671 114.207C76.9098 114.207 77.9171 113.2 77.9171 111.957C77.9171 110.714 76.9098 109.707 75.6671 109.707C74.4245 109.707 73.4171 110.714 73.4171 111.957C73.4171 113.2 74.4245 114.207 75.6671 114.207Z" fill="#F9F8FC"/>
<path d="M75.3942 110.445C75.488 110.191 75.8463 110.191 75.94 110.445L76.2284 111.224C76.2579 111.303 76.3207 111.366 76.4003 111.396L77.1796 111.684C77.433 111.778 77.433 112.136 77.1796 112.23L76.4003 112.518C76.3207 112.548 76.2579 112.611 76.2284 112.69L75.94 113.47C75.8463 113.723 75.488 113.723 75.3942 113.47L75.1058 112.69C75.0764 112.611 75.0136 112.548 74.9339 112.518L74.1546 112.23C73.9013 112.136 73.9013 111.778 74.1546 111.684L74.9339 111.396C75.0136 111.366 75.0764 111.303 75.1058 111.224L75.3942 110.445Z" fill="#8BBCFF"/>
<path d="M35.3491 173.499C36.5918 173.499 37.5991 172.492 37.5991 171.249C37.5991 170.006 36.5918 168.999 35.3491 168.999C34.1065 168.999 33.0991 170.006 33.0991 171.249C33.0991 172.492 34.1065 173.499 35.3491 173.499Z" fill="#F9F8FC"/>
<path d="M35.0733 169.735C35.167 169.481 35.5253 169.481 35.6191 169.735L35.9075 170.514C35.9369 170.594 35.9997 170.656 36.0794 170.686L36.8587 170.974C37.112 171.068 37.112 171.426 36.8587 171.52L36.0794 171.808C35.9997 171.838 35.9369 171.901 35.9075 171.98L35.6191 172.76C35.5253 173.013 35.167 173.013 35.0733 172.76L34.7849 171.98C34.7554 171.901 34.6927 171.838 34.613 171.808L33.8337 171.52C33.5804 171.426 33.5804 171.068 33.8337 170.974L34.613 170.686C34.6927 170.656 34.7554 170.594 34.7849 170.514L35.0733 169.735Z" fill="#8BBCFF"/>
<path d="M75.6675 173.497C76.9101 173.497 77.9175 172.49 77.9175 171.247C77.9175 170.004 76.9101 168.997 75.6675 168.997C74.4248 168.997 73.4175 170.004 73.4175 171.247C73.4175 172.49 74.4248 173.497 75.6675 173.497Z" fill="#F9F8FC"/>
<path d="M75.3946 169.735C75.4883 169.481 75.8466 169.481 75.9404 169.735L76.2288 170.514C76.2582 170.594 76.321 170.656 76.4007 170.686L77.18 170.974C77.4333 171.068 77.4333 171.426 77.18 171.52L76.4007 171.808C76.321 171.838 76.2582 171.901 76.2288 171.98L75.9404 172.76C75.8466 173.013 75.4883 173.013 75.3946 172.76L75.1062 171.98C75.0767 171.901 75.0139 171.838 74.9343 171.808L74.155 171.52C73.9016 171.426 73.9016 171.068 74.155 170.974L74.9343 170.686C75.0139 170.656 75.0767 170.594 75.1062 170.514L75.3946 169.735Z" fill="#8BBCFF"/>
<path d="M35.3491 114.207C36.5918 114.207 37.5991 113.2 37.5991 111.957C37.5991 110.714 36.5918 109.707 35.3491 109.707C34.1065 109.707 33.0991 110.714 33.0991 111.957C33.0991 113.2 34.1065 114.207 35.3491 114.207Z" fill="#F9F8FC"/>
<path d="M35.0733 110.448C35.167 110.195 35.5253 110.195 35.6191 110.448L35.9075 111.228C35.9369 111.307 35.9997 111.37 36.0794 111.4L36.8587 111.688C37.112 111.782 37.112 112.14 36.8587 112.234L36.0794 112.522C35.9997 112.552 35.9369 112.614 35.9075 112.694L35.6191 113.473C35.5253 113.727 35.167 113.727 35.0733 113.473L34.7849 112.694C34.7554 112.614 34.6927 112.552 34.613 112.522L33.8337 112.234C33.5804 112.14 33.5804 111.782 33.8337 111.688L34.613 111.4C34.6927 111.37 34.7554 111.307 34.7849 111.228L35.0733 110.448Z" fill="#8BBCFF"/>
<rect x="60.9418" y="160.248" width="6.9836" height="6.9836" rx="1.16393" fill="#7BC8B3"/>
<path d="M63.386 160.757C63.386 160.958 63.2297 161.121 63.0368 161.121C62.844 161.121 62.6876 160.958 62.6876 160.757L62.6876 160.03C62.6876 159.829 62.844 159.666 63.0368 159.666C63.2297 159.666 63.386 159.829 63.386 160.03L63.386 160.757Z" fill="#E9E9E9"/>
<path d="M64.783 160.757C64.783 160.958 64.6266 161.121 64.4338 161.121C64.2409 161.121 64.0846 160.958 64.0846 160.757L64.0846 160.03C64.0846 159.829 64.2409 159.666 64.4338 159.666C64.6266 159.666 64.783 159.829 64.783 160.03L64.783 160.757Z" fill="#E9E9E9"/>
<path d="M66.1787 160.757C66.1787 160.958 66.0224 161.121 65.8295 161.121C65.6367 161.121 65.4804 160.958 65.4804 160.757L65.4804 160.03C65.4804 159.829 65.6367 159.666 65.8295 159.666C66.0224 159.666 66.1787 159.829 66.1787 160.03L66.1787 160.757Z" fill="#E9E9E9"/>
<path d="M63.3893 167.741C63.3893 167.941 63.2329 168.104 63.0401 168.104C62.8473 168.104 62.6909 167.941 62.6909 167.741L62.6909 167.013C62.6909 166.812 62.8473 166.649 63.0401 166.649C63.2329 166.649 63.3893 166.812 63.3893 167.013L63.3893 167.741Z" fill="#E9E9E9"/>
<path d="M64.7863 167.741C64.7863 167.941 64.6299 168.104 64.4371 168.104C64.2442 168.104 64.0879 167.941 64.0879 167.741L64.0879 167.013C64.0879 166.812 64.2442 166.649 64.4371 166.649C64.6299 166.649 64.7863 166.812 64.7863 167.013L64.7863 167.741Z" fill="#E9E9E9"/>
<path d="M66.1821 167.741C66.1821 167.941 66.0258 168.104 65.8329 168.104C65.6401 168.104 65.4838 167.941 65.4838 167.741L65.4838 167.013C65.4838 166.812 65.6401 166.649 65.8329 166.649C66.0258 166.649 66.1821 166.812 66.1821 167.013L66.1821 167.741Z" fill="#E9E9E9"/>
<path d="M67.5629 162.838C67.362 162.838 67.1991 162.682 67.1991 162.489C67.1991 162.296 67.362 162.14 67.5629 162.14L68.2903 162.14C68.4912 162.14 68.6541 162.296 68.6541 162.489C68.6541 162.682 68.4912 162.838 68.2903 162.838L67.5629 162.838Z" fill="#E9E9E9"/>
<path d="M67.5629 164.235C67.362 164.235 67.1991 164.079 67.1991 163.886C67.1991 163.693 67.362 163.537 67.5629 163.537L68.2903 163.537C68.4912 163.537 68.6541 163.693 68.6541 163.886C68.6541 164.079 68.4912 164.235 68.2903 164.235L67.5629 164.235Z" fill="#E9E9E9"/>
<path d="M67.5629 165.631C67.362 165.631 67.1991 165.475 67.1991 165.282C67.1991 165.089 67.362 164.932 67.5629 164.932L68.2903 164.932C68.4912 164.932 68.6541 165.089 68.6541 165.282C68.6541 165.475 68.4912 165.631 68.2903 165.631L67.5629 165.631Z" fill="#E9E9E9"/>
<path d="M60.5811 162.839C60.3802 162.839 60.2173 162.683 60.2173 162.49C60.2173 162.297 60.3802 162.141 60.5811 162.141L61.3085 162.141C61.5094 162.141 61.6722 162.297 61.6722 162.49C61.6722 162.683 61.5094 162.839 61.3085 162.839L60.5811 162.839Z" fill="#E9E9E9"/>
<path d="M60.5811 164.235C60.3802 164.235 60.2173 164.079 60.2173 163.886C60.2173 163.693 60.3802 163.537 60.5811 163.537L61.3085 163.537C61.5094 163.537 61.6722 163.693 61.6722 163.886C61.6722 164.079 61.5094 164.235 61.3085 164.235L60.5811 164.235Z" fill="#E9E9E9"/>
<path d="M60.5811 165.632C60.3802 165.632 60.2173 165.476 60.2173 165.283C60.2173 165.09 60.3802 164.933 60.5811 164.933L61.3085 164.933C61.5094 164.933 61.6722 165.09 61.6722 165.283C61.6722 165.476 61.5094 165.632 61.3085 165.632L60.5811 165.632Z" fill="#E9E9E9"/>
</g>
<path d="M74.9053 197.349C74.9053 198.813 66.0068 199.999 55.0299 199.999C44.053 199.999 35.1544 198.813 35.1544 197.349C35.1544 195.886 44.053 194.699 55.0299 194.699C66.0068 194.699 74.9053 195.886 74.9053 197.349Z" fill="#000A14" fill-opacity="0.05"/>
<path d="M39.7058 49.5628C39.7058 55.9866 34.4983 61.194 28.0746 61.194C21.6508 61.194 16.4434 55.9866 16.4434 49.5628C16.4434 45.9654 18.0766 42.7493 20.642 40.6158C22.5494 39.0296 24.972 38.0417 27.6219 37.9403C27.7721 37.9345 27.923 37.9316 28.0746 37.9316C28.2439 37.9316 28.4125 37.9353 28.5801 37.9424C30.2386 38.0134 31.8071 38.4316 33.2147 39.1262C37.0604 41.0238 39.7058 44.9844 39.7058 49.5628Z" fill="url(#paint6_linear_7527_5124)" fill-opacity="0.79"/>
<path d="M19.5585 49.572C19.5585 49.3651 19.7263 49.1973 19.9333 49.1973H20.6956V51.0926H19.9333C19.7263 51.0926 19.5585 50.9248 19.5585 50.7178V49.572Z" fill="#F3F8FF"/>
<path d="M36.2373 49.572C36.2373 49.3651 36.0695 49.1973 35.8625 49.1973H35.1001V51.0926H35.8625C36.0695 51.0926 36.2373 50.9248 36.2373 50.7178V49.572Z" fill="#F3F8FF"/>
<path d="M20.3174 47.8281C20.3174 45.001 21.9511 42.2887 24.6984 41.622C26.8922 41.0896 28.8579 41.0771 31.074 41.5975C33.8346 42.2459 35.4798 44.966 35.4798 47.8018V53.4003C35.4798 55.0562 34.1374 56.3986 32.4815 56.3986H23.3156C21.6598 56.3986 20.3174 55.0562 20.3174 53.4003V47.8281Z" fill="#BDD4F5"/>
<path fill-rule="evenodd" clip-rule="evenodd" d="M33.9647 47.3018H22.2139V57.1555H33.9647V47.3018Z" fill="#E4EFFF"/>
<path fill-rule="evenodd" clip-rule="evenodd" d="M28.277 40.9685C28.2143 40.9673 28.1512 40.9664 28.0875 40.9658C28.0238 40.9664 27.9606 40.9673 27.8979 40.9685C27.8397 40.9697 27.7818 40.9711 27.7242 40.9728C25.4266 40.9324 23.4294 41.6786 22.1268 43.1184C22.0917 43.158 22.0569 43.1983 22.0225 43.2393C23.7283 42.4812 24.2969 44.8377 22.2121 47.3015H27.8979H28.277H33.9629C31.8781 44.8377 32.2571 42.6707 33.9629 43.4288C33.4398 42.8064 32.8664 42.3064 32.2094 41.9238C31.0805 41.3667 29.8227 41.0313 28.4927 40.9745C28.4215 40.9719 28.3496 40.97 28.277 40.9685Z" fill="#F3F8FF"/>
<path d="M33.8444 57.5361L33.9647 57.1553H22.2139L22.3341 57.5361L23.6054 61.5619C24.131 63.226 25.6747 64.3574 27.4198 64.3574H28.7588C30.5039 64.3574 32.0476 63.226 32.5731 61.5619L33.8444 57.5361Z" fill="url(#paint7_linear_7527_5124)"/>
<defs>
<filter id="filter0_f_7527_5124" x="30.4725" y="143.714" width="35.4682" height="32.7328" filterUnits="userSpaceOnUse" color-interpolation-filters="sRGB">
<feFlood flood-opacity="0" result="BackgroundImageFix"/>
<feBlend mode="normal" in="SourceGraphic" in2="BackgroundImageFix" result="shape"/>
<feGaussianBlur stdDeviation="3.9" result="effect1_foregroundBlur_7527_5124"/>
</filter>
<linearGradient id="paint0_linear_7527_5124" x1="140.341" y1="102.156" x2="162.592" y2="23.7718" gradientUnits="userSpaceOnUse">
<stop offset="0.109289" stop-color="#7294D6"/>
<stop offset="0.394304" stop-color="#A1C3FC"/>
<stop offset="1" stop-color="#B2CFFF"/>
</linearGradient>
<linearGradient id="paint1_linear_7527_5124" x1="6.32921" y1="85.4677" x2="38.1886" y2="42.9885" gradientUnits="userSpaceOnUse">
<stop stop-color="#7294D6"/>
<stop offset="1" stop-color="#A1C3FC"/>
</linearGradient>
<linearGradient id="paint2_linear_7527_5124" x1="121.828" y1="191.614" x2="132.476" y2="100.794" gradientUnits="userSpaceOnUse">
<stop stop-color="#5DB29A"/>
<stop offset="1" stop-color="#D2FFF2"/>
</linearGradient>
<linearGradient id="paint3_linear_7527_5124" x1="148.03" y1="194.746" x2="148.03" y2="205.976" gradientUnits="userSpaceOnUse">
<stop offset="0.173077" stop-color="#FEF2D7"/>
<stop offset="1" stop-color="#FDDA93"/>
</linearGradient>
<linearGradient id="paint4_linear_7527_5124" x1="129.344" y1="193.493" x2="129.42" y2="205.976" gradientUnits="userSpaceOnUse">
<stop offset="0.173077" stop-color="#FEF2D7"/>
<stop offset="1" stop-color="#FDDA93"/>
</linearGradient>
<linearGradient id="paint5_linear_7527_5124" x1="143.376" y1="143.118" x2="131.459" y2="96.6596" gradientUnits="userSpaceOnUse">
<stop stop-color="white"/>
<stop offset="1" stop-color="#FDD583"/>
</linearGradient>
<linearGradient id="paint6_linear_7527_5124" x1="20.489" y1="65.2397" x2="40.7111" y2="43.0379" gradientUnits="userSpaceOnUse">
<stop offset="0.109289" stop-color="#7294D6"/>
<stop offset="0.613028" stop-color="#A1C3FC"/>
<stop offset="1" stop-color="#B2CFFF"/>
</linearGradient>
<linearGradient id="paint7_linear_7527_5124" x1="28.0893" y1="53.6084" x2="28.0893" y2="64.3574" gradientUnits="userSpaceOnUse">
<stop stop-color="#E4EFFF"/>
<stop offset="1" stop-color="#BDD4F5"/>
</linearGradient>
<clipPath id="clip0_7527_5124">
<rect x="30.0975" y="106.707" width="50.8233" height="69.7872" rx="4.5" fill="white"/>
</clipPath>
</defs>
</svg>
