<svg xmlns="http://www.w3.org/2000/svg" width="250" height="201" viewBox="0 0 250 201" fill="none">
  <path d="M70.6379 146.454L177.958 145.816L226.995 182.944V184.205H22.1615L22.3016 182.804L70.6379 146.454Z" fill="white"/>
  <path d="M118.085 29.987C123.369 29.6349 129.298 30.159 134.646 29.9565C138.243 30.05 141.885 29.7327 145.451 30.2369C147.004 30.4564 149.108 32.3369 149.202 33.8582C149.474 38.2785 149.275 42.8109 149.36 47.2471C149.409 49.7783 149.783 53.0089 147.799 54.8378C145.649 56.9171 142.201 56.4655 139.414 56.4351L125.975 56.43C123.854 57.8302 123.801 59.8705 124.112 62.1827C121.843 60.6157 120.148 58.6457 118.388 56.554C115.931 56.0269 113.594 55.2067 113.343 52.2153C113.08 49.0726 113.242 45.8527 113.222 42.6906C113.205 39.9724 113.178 37.2085 113.319 34.4986C113.472 31.5399 115.514 30.4082 118.085 29.987Z" fill="#F6F9FA"/>
  <path d="M140.393 36.4093C144.542 36.2586 144.566 36.1317 144.518 40.4186C144.48 43.8141 144.512 47.3003 144.476 50.7C144.406 50.7821 144.336 50.864 144.267 50.9461L143.808 50.9733L139.537 50.977C139.477 48.1656 139.456 45.3536 139.473 42.5415C139.471 41.0581 139.429 39.5386 139.483 38.0586C139.518 37.0998 139.701 37.0071 140.393 36.4093Z" fill="#7CB2F9"/>
  <path d="M132.617 40.0598C137.32 40.0093 136.762 40.0865 136.766 44.9167C136.768 45.6738 136.799 50.5775 136.546 50.9349L136.102 50.9698L131.824 50.9759C131.734 47.948 131.707 44.6315 131.782 41.5913C131.801 40.8039 132.037 40.5385 132.617 40.0598Z" fill="#7CB2F9"/>
  <path d="M124.919 43.8353C125.974 43.8089 128.549 43.502 128.828 44.5703C129.094 45.5918 129.251 50.1141 128.871 50.9034L128.537 50.9788L124.141 50.9735C124.167 49.0559 123.994 47.05 124.141 45.1433C124.197 44.4296 124.368 44.2734 124.919 43.8353Z" fill="#BFD9F1"/>
  <path d="M117.214 46.7747C118.189 46.7559 119.724 46.6433 120.612 46.8963C121.54 47.1607 121.39 50.2035 121.095 50.8952L120.69 50.9754L116.446 50.9736C116.457 49.3952 115.946 47.8844 117.214 46.7747Z" fill="#BFD9F1"/>
  <path d="M80.0777 47.7738C80.4783 42.9173 78.8529 42.2332 75.9553 38.9986C71.1802 33.6683 72.4017 24.6002 77.6665 20.184C80.5208 17.8307 84.1935 16.7086 87.8757 17.0648C98.3501 18.1026 103.733 29.8028 97.672 38.4376C96.553 40.0318 94.729 41.2068 93.8872 42.9749C93.273 44.2651 93.2067 46.051 93.0624 47.4685C93.9448 50.2738 93.1165 51.0886 90.2921 50.946C89.9438 54.0806 88.6435 54.7017 85.5781 54.4366C83.8576 54.2878 82.8244 52.8538 83.0173 51.1832C82.4158 50.6853 81.1168 51.1856 80.2061 50.3266C79.788 49.5413 79.9806 48.6553 80.0777 47.7738Z" fill="#F6F9FA"/>
  <path d="M81.2944 46.7211C84.846 46.6663 88.398 46.6583 91.9497 46.6976L93.0624 47.4684C93.9448 50.2738 93.1165 51.0886 90.2921 50.946C89.9438 54.0805 88.6435 54.7016 85.5781 54.4366C83.8577 54.2878 82.8244 52.8538 83.0173 51.1832C82.4158 50.6852 81.1168 51.1856 80.2061 50.3266C79.788 49.5413 79.9807 48.6553 80.0777 47.7737C80.4573 47.3783 80.8689 47.0656 81.2944 46.7211Z" fill="#7CB2F9"/>
  <path d="M84.1537 50.9386C85.4898 50.713 88.9047 50.7874 90.2919 50.946C89.9436 54.0806 88.6433 54.7017 85.5779 54.4366C83.8574 54.2878 82.8241 52.8538 83.0171 51.1832L83.153 51.0766C83.4137 50.9463 83.8441 50.9554 84.1537 50.9386Z" fill="#7EB2FC"/>
  <path d="M84.1543 50.9385C85.46 50.9373 86.6168 50.9029 87.9135 51.0917C87.5118 51.3357 83.7681 51.344 83.1536 51.0765C83.4143 50.9462 83.8447 50.9553 84.1543 50.9385Z" fill="#7CB2F9"/>
  <path d="M85.5115 25.0627C87.6197 24.8715 89.2819 25.2526 90.8184 26.8135C92.5163 28.5383 92.8038 31.3913 91.6887 33.4943C91.1654 34.415 90.1203 35.4137 89.793 36.4141C89.3885 37.6508 89.4365 39.4087 89.3918 40.7252C88.9019 40.8082 88.4014 40.8403 87.9056 40.883C86.5149 40.8966 85.0889 41.013 83.6551 41.0304C83.7159 38.403 83.9891 36.9161 82.2493 34.6812C79.1922 30.7544 80.9048 26.3101 85.5115 25.0627Z" fill="#BFD9F1"/>
  <path d="M85.5209 26.0532C86.9739 25.8735 88.2213 26.0568 89.4429 26.9366C90.4327 27.6363 91.094 28.7096 91.2741 29.9082C91.7124 32.8785 89.6441 33.8829 88.7077 36.2382C88.4135 36.9782 88.601 39.0015 88.2771 39.4317L87.7655 39.4567L84.6399 39.6083C84.5451 37.5571 84.6418 36.0827 83.2387 34.4053C80.5049 31.1372 81.5806 27.4846 85.5209 26.0532Z" fill="#F6F9FA"/>
  <path d="M86.3116 33.3027C86.0072 32.925 85.7537 32.4994 85.3181 32.3677C84.787 32.7759 85.2055 32.986 84.8104 33.4389C84.4432 33.1539 84.1998 32.599 84.2783 32.1308C84.5703 31.6927 84.629 31.6756 85.0723 31.3663C85.9628 31.2614 85.6845 31.9729 86.5061 32.135C86.7382 31.8298 86.8362 31.6352 87.1888 31.4877C87.6075 31.6964 87.4696 31.6114 87.7539 32.0457L87.8091 32.3566C87.3792 32.6587 86.7696 33.0169 86.3116 33.3027Z" fill="#BFD9F1"/>
  <path d="M87.7539 32.0457L87.9456 32.0514L88.1414 31.5092C88.4784 31.402 88.2993 31.4094 88.6919 31.5862C88.988 32.1301 88.8187 33.1263 88.3198 33.4807C87.7161 33.3378 87.8356 32.9513 87.8091 32.3565L87.7539 32.0457Z" fill="#BFD9F1"/>
  <path d="M88.2463 43.1801C89.2892 43.0484 89.5951 43.6655 89.2354 44.563C88.6309 45.0531 85.8377 44.9846 84.8228 45.0292C84.3896 45.0741 84.3798 45.0817 83.9544 45.0159L83.7395 44.7205C83.6563 44.0704 83.5742 44.2119 83.8269 43.7308C84.6648 43.1722 87.0126 43.2648 88.2463 43.1801Z" fill="#7CB2F9"/>
  <path d="M87.091 41.3809C87.74 41.3156 88.634 41.1239 89.1507 41.4323C89.3761 41.8155 89.3043 41.9957 89.2577 42.4667C88.7507 42.9781 86.5754 42.866 85.7407 42.8838C85.0427 42.9509 84.246 43.1682 83.7127 42.6882C83.6753 42.2885 83.6004 42.0488 83.8117 41.7174C84.4569 41.4435 86.2715 41.4271 87.091 41.3809Z" fill="#7CB2F9"/>
  <path d="M167.943 44.8586C170.636 44.9115 173.33 44.9277 176.023 44.9075C177.762 44.905 180.662 44.7891 182.233 45.196C183.208 45.4552 184.096 45.9656 184.811 46.6761C186.455 48.2926 186.594 50.1266 186.594 52.3079C186.595 54.8783 186.667 56.9494 184.718 58.9215C182.391 61.2777 178.615 60.8867 175.484 60.8718C173.234 60.8438 170.985 60.8493 168.736 60.8883C166.688 62.5828 165.72 63.5688 163.145 64.2925C163.789 62.525 163.883 61.5978 164.137 59.7511C163.821 59.5296 163.517 59.2939 163.223 59.0447C161.93 57.9459 161.388 56.7814 161.26 55.0741C160.847 49.4797 161.322 45.3151 167.943 44.8586Z" fill="#F6F9FA"/>
  <path d="M173.059 51.4541C173.986 51.0854 175.037 51.5385 175.406 52.4661C175.774 53.3937 175.322 54.4442 174.393 54.8123C173.467 55.1802 172.416 54.727 172.047 53.7999C171.68 52.8727 172.133 51.8226 173.059 51.4541Z" fill="#BFD9F1"/>
  <path d="M179.206 51.4462C180.122 51.0933 181.152 51.5389 181.522 52.4482C181.891 53.3575 181.465 54.3957 180.563 54.7826C179.964 55.0396 179.273 54.953 178.756 54.5562C178.239 54.1596 177.977 53.5147 178.069 52.8696C178.163 52.2247 178.598 51.6804 179.206 51.4462Z" fill="#BFD9F1"/>
  <path d="M167.061 51.4394C167.997 51.1081 169.023 51.6018 169.346 52.5391C169.671 53.4766 169.168 54.4986 168.23 54.8154C167.299 55.1288 166.291 54.6337 165.97 53.7066C165.65 52.7795 166.136 51.7673 167.061 51.4394Z" fill="#AACEFC"/>
  <path d="M47.2987 40.0935C51.6211 39.4271 56.8801 43.2307 56.9207 47.7306C56.9413 49.9988 55.308 51.4545 53.8156 52.8695C53.7224 54.6467 54.0658 55.8033 54.428 57.5506C52.8383 56.8813 51.2884 55.791 49.8982 54.7685C49.7315 54.6545 49.1819 54.3888 48.974 54.2814C48.8575 54.2994 48.741 54.3155 48.624 54.3297C45.7755 54.675 41.9382 54.1331 39.6561 52.2798C35.2326 48.6872 37.2961 43.2765 42.0699 41.2975C43.9941 40.4998 45.2542 40.2913 47.2987 40.0935Z" fill="#F6F9FA"/>
  <path d="M51.4166 45.7784C53.6479 45.6128 54.7657 47.3031 52.9248 48.7112C52.6575 48.7358 52.3818 48.7608 52.1133 48.7654C51.6029 48.7721 51.1123 48.5684 50.7567 48.2023C49.8687 47.2814 50.6518 46.3751 51.4166 45.7784Z" fill="#7CB2F9"/>
  <path d="M46.9414 45.7738C49.1357 45.6914 50.3777 47.4339 48.306 48.7157C45.9455 48.8055 44.7952 47.2305 46.9414 45.7738Z" fill="#7CB2F9"/>
  <path d="M42.4731 45.7786C44.7792 45.7336 45.7056 47.691 43.6918 48.7368C43.4579 48.7494 43.1938 48.7633 42.9612 48.7512C42.4401 48.7235 41.9566 48.4718 41.6347 48.0612C40.8923 47.0956 41.7115 46.3064 42.4731 45.7786Z" fill="#7CB2F9"/>
  <path d="M37.0493 80.4905C37.1223 80.8286 35.7584 83.9762 35.482 84.4189C35.1791 83.3467 36.457 81.3584 37.0493 80.4905Z" fill="#BB6866" fill-opacity="0.933333"/>
  <path d="M158.566 95.3418C159.021 93.8437 160.1 91.1915 161.445 90.3286C163.655 88.9491 165.606 86.9502 167.838 85.6851C170.649 84.0918 173.732 84.0958 176.654 85.0057C182.935 86.9614 185.888 91.5581 187.297 97.6745C187.594 98.9662 188.28 100.828 189.057 101.906C189.833 102.935 191.149 103.743 191.686 104.956C192.448 107.499 190.135 109.461 188.191 110.399C188.072 110.457 187.953 110.511 187.833 110.562C191.183 111.196 195.534 112.93 198.191 115.079C197.108 121.001 194.408 129.383 192.146 134.867C191.964 135.142 191.981 135.219 191.729 135.335C190.474 135.21 186.105 138.375 185.35 139.346C185.398 139.662 185.447 140.138 185.574 140.41C183.475 141.549 181.36 142.658 179.229 143.737C178.385 144.184 175.642 145.708 174.9 145.85C173.728 145.793 172.139 145.837 170.936 145.836C170.539 146.581 170.14 147.325 169.737 148.066C168.942 148.82 166.335 149.729 165.213 150.018C163.925 150.004 163.028 150.021 161.755 150.246C161.349 150.319 160.231 150.583 159.957 150.595C157.204 149.117 155.296 147.636 153.94 144.75C153.58 145.063 153.165 145.46 152.756 145.68C151.62 145.857 147.237 145.949 146.158 145.707C145.51 143.449 144.2 140.873 143.149 138.724C140.079 132.443 137.463 126.011 134.647 119.622C132.352 124.309 129.201 131.233 124.249 133.483C120.104 135.364 110.953 127.896 111.011 123.83C111.288 124.101 112.021 125.023 112.357 125.397C112.49 125.438 112.624 125.476 112.759 125.511C116.255 126.405 119.906 123.253 119.344 119.635C119.186 118.616 118.814 118.119 118.258 117.259C119.196 117.64 119.478 117.883 120.31 118.49C122.154 114.658 123.502 110.594 125.587 106.824C127.953 102.547 129.615 101.702 133.936 100.086C135.96 99.3276 138.013 98.6477 140.09 98.0479L139.823 97.0036C143.997 97.9098 146.928 95.5679 149.161 92.2764L149.688 93.842C149.913 94.5108 150.101 95.0798 150.479 95.6845C152.006 95.3351 156.958 95.1696 158.566 95.3418Z" fill="#FEC976"/>
  <path d="M139.823 97.0036C143.997 97.9098 146.928 95.568 149.161 92.2765L149.688 93.842C149.913 94.5109 150.101 95.0799 150.479 95.6845C152.006 95.3351 156.958 95.1697 158.566 95.3418C157.56 100.291 157.964 102.916 159.283 107.751C159.449 108.354 159.491 109.183 159.593 109.813C160.224 113.147 158.119 116.983 159.894 120.051C160.511 121.116 161.838 121.855 163.072 121.669C163.931 121.498 165.381 121.342 166.289 121.215L164.191 127.317C163.915 128.099 163.358 129.438 163.163 130.148C161.546 134.277 159.82 139.094 156.414 142.216C155.94 142.649 154.357 143.265 153.926 143.882C153.846 143.995 153.916 144.586 153.94 144.75C153.58 145.063 153.165 145.461 152.756 145.68C151.62 145.857 147.237 145.949 146.158 145.707C145.51 143.449 144.2 140.873 143.149 138.724C140.079 132.443 137.463 126.011 134.647 119.622C132.352 124.309 129.201 131.233 124.249 133.483C120.104 135.365 110.953 127.896 111.011 123.83C111.288 124.101 112.021 125.023 112.357 125.397C112.49 125.439 112.624 125.476 112.759 125.511C116.255 126.405 119.906 123.253 119.344 119.636C119.186 118.616 118.814 118.119 118.258 117.259C119.196 117.64 119.478 117.883 120.31 118.49C122.154 114.658 123.502 110.594 125.587 106.824C127.953 102.547 129.615 101.702 133.936 100.086C135.96 99.3277 138.013 98.6478 140.09 98.048L139.823 97.0036Z" fill="#377AE9"/>
  <path d="M132.877 111.508C136.96 119.388 140.852 125.65 149.869 128.612C154.494 130.132 158.377 130.049 163.163 130.148C161.547 134.277 159.821 139.094 156.415 142.216C155.941 142.649 154.358 143.265 153.926 143.882C153.846 143.995 153.917 144.586 153.94 144.75C153.58 145.063 153.166 145.461 152.756 145.681C151.62 145.857 147.238 145.95 146.159 145.707C145.51 143.449 144.2 140.874 143.149 138.724C140.08 132.443 137.464 126.011 134.648 119.622C134.233 116.401 133.587 114.59 132.877 111.508Z" fill="#2E6DD8"/>
  <path d="M139.823 97.0036C143.997 97.9098 146.928 95.568 149.161 92.2765L149.688 93.842C149.914 94.5109 150.102 95.0799 150.48 95.6845L150.593 95.7797C151.783 96.7566 153.677 97.1914 153.707 98.9858C153.775 103.16 147.905 104.593 144.657 104.212C142.798 103.994 140.224 103.506 139.854 101.383C139.79 100.864 140.142 99.4046 140.268 98.8509L140.091 98.048L139.823 97.0036Z" fill="#BB6866"/>
  <path d="M139.823 97.0036C143.997 97.9098 146.928 95.568 149.161 92.2765L149.688 93.842C147.472 97.305 144.712 99.3123 140.538 99.183C140.261 98.9975 140.324 99.1201 140.268 98.8509L140.091 98.048L139.823 97.0036Z" fill="#A75251"/>
  <path d="M157.813 103.032C158.045 103.52 158.274 105.179 158.337 105.763C158.544 107.642 158.901 110.057 158.848 111.94C158.786 114.155 158.356 115.931 158.589 118.221L158.452 118.207C157.828 116.338 158.513 113.268 158.464 111.21C158.401 108.543 157.65 105.618 157.813 103.032Z" fill="#FAAD86"/>
  <path d="M186.004 111.27C186.784 111.031 187.109 110.932 187.833 110.562C191.183 111.196 195.535 112.93 198.191 115.079C197.108 121.001 194.408 129.383 192.147 134.867C191.965 135.142 191.982 135.219 191.73 135.335C190.474 135.21 186.106 138.375 185.351 139.346C185.398 139.662 185.447 140.138 185.575 140.41C183.476 141.549 181.36 142.658 179.229 143.737C178.386 144.184 175.643 145.708 174.9 145.85C173.729 145.793 172.14 145.837 170.937 145.836C170.54 146.581 170.141 147.325 169.737 148.066C168.943 148.82 166.336 149.73 165.213 150.018C163.926 150.004 163.029 150.021 161.756 150.246C161.349 150.319 160.231 150.583 159.958 150.595C157.205 149.117 155.297 147.636 153.94 144.75C153.917 144.586 153.847 143.995 153.926 143.882C154.358 143.265 155.941 142.649 156.415 142.216C159.821 139.094 161.547 134.277 163.164 130.148C163.358 129.438 163.916 128.099 164.192 127.317L166.289 121.215C166.969 118.491 168.614 115.878 170.96 114.281C172.27 113.77 173.26 113.207 174.411 112.427C175.203 113.093 176.042 114.116 176.242 115.15C176.046 115.995 175.95 116.861 175.954 117.729C175.985 121.204 178.18 123.166 181.666 123.082C185.778 122.982 188.304 119.473 188.275 115.551C188.262 113.754 187.301 112.45 186.004 111.27Z" fill="#1E2972"/>
  <path d="M174.412 139.203C175.604 140.631 177.779 142.454 179.229 143.737C178.385 144.184 175.642 145.708 174.9 145.85C173.728 145.793 172.14 145.837 170.936 145.836C172.17 143.666 173.329 141.453 174.412 139.203Z" fill="#2E6DD8"/>
  <path d="M178.809 97.1731C180.78 97.4445 181.577 98.8067 181.297 100.705L181.251 101.329C180.333 102.697 180.228 103.072 178.777 103.923C179.16 106.393 179.627 109.027 181.764 110.728C183.027 111.735 184.517 111.446 186.003 111.27C187.301 112.45 188.262 113.754 188.274 115.551C188.304 119.473 185.778 122.982 181.666 123.082C178.18 123.166 175.984 121.204 175.953 117.729C175.949 116.861 176.046 115.995 176.242 115.15C176.042 114.116 175.202 113.093 174.411 112.427C173.259 113.207 172.27 113.77 170.96 114.281C170.533 114.283 169.506 114.358 169.191 114.173C167.525 113.195 163.642 109.078 163.057 107.415C162.082 107.238 161.876 107.202 161.018 106.744L160.742 106.291C159.308 103.986 160.231 102.22 163.005 102.163C163.768 102.639 164.032 102.924 164.679 103.565C165.088 103.494 165.483 103.404 165.888 103.314C166.177 102.333 166.275 101.942 166.87 101.126C167.882 100.403 168.382 100.399 169.534 100.596C170.439 100.99 170.608 101.23 171.153 101.997C172.573 101.02 173.982 100.026 175.378 99.0144C175.834 98.7147 175.865 98.6602 176.382 98.6841C177.15 98.5058 177.241 97.8187 178.156 97.1864L178.809 97.1731Z" fill="#FEBDB7"/>
  <path d="M175.378 99.0144C175.834 98.7147 175.865 98.6602 176.382 98.6842C175.499 99.6415 172.515 101.733 171.365 102.56C171.768 105.597 169.122 106.959 167.057 105.152C166.772 104.904 166.519 104.624 166.299 104.318C166.073 104.051 166.027 103.951 165.689 103.847C164.772 104.205 164.91 105.351 164.916 106.195C164.26 107.022 164.078 107.132 163.057 107.415C162.082 107.238 161.876 107.202 161.018 106.744L160.742 106.291C159.308 103.986 160.231 102.22 163.005 102.163C163.768 102.639 164.032 102.924 164.679 103.565C165.088 103.494 165.483 103.404 165.888 103.315C166.177 102.333 166.275 101.942 166.87 101.127C167.882 100.403 168.382 100.399 169.534 100.596C170.439 100.99 170.608 101.23 171.153 101.997C172.573 101.02 173.982 100.026 175.378 99.0144Z" fill="#1E2972"/>
  <path d="M168.347 100.847C169.457 100.952 170.264 101.245 170.796 102.315C171.086 102.886 171.12 103.553 170.891 104.15C170.57 104.974 170.055 105.203 169.315 105.512C166.401 105.297 165.123 102.065 168.347 100.847Z" fill="#FAAD86"/>
  <path d="M162.101 102.724C163.491 102.691 164.127 103.3 164.517 104.616C164.623 106.447 164.033 107.116 162.103 106.828C160.245 105.67 159.994 103.754 162.101 102.724Z" fill="#FDB066"/>
  <path d="M164.091 104.646L164.517 104.616C164.624 106.447 164.034 107.116 162.103 106.828C162.652 105.128 162.065 104.971 164.091 104.646Z" fill="#FEC976"/>
  <path d="M162.101 102.724C163.491 102.691 164.127 103.3 164.517 104.616L164.091 104.646C163.055 103.757 162.737 104.541 162.101 102.724Z" fill="#FAAD86"/>
  <path d="M174.411 112.427C176.623 110.031 177.303 109.667 178.719 106.712C178.607 108.5 178.589 110.118 178.072 111.856C177.602 113.438 176.339 113.882 176.242 115.15C176.042 114.117 175.202 113.093 174.411 112.427Z" fill="#FDAEA8"/>
  <path d="M164.916 106.195C164.91 105.351 164.771 104.205 165.689 103.847C166.027 103.951 166.073 104.051 166.298 104.318C165.703 105.402 165.87 106.826 165.882 108.097L166.069 108.068C166.534 108 166.766 107.909 167.161 108.126L167.11 108.295C164.635 109.21 165.751 107.048 164.916 106.195Z" fill="#FDAEA8"/>
  <path d="M170.497 107.961L170.656 108.142C170.692 109.464 169.473 111.485 167.925 110.644C167.558 110.365 167.565 110.373 167.297 109.998C167.417 109.35 169.379 108.75 170.497 107.961Z" fill="#F6F9FA"/>
  <path d="M178.935 98.9423C179.296 99.0541 179.163 98.9503 179.369 99.2335C178.681 100.63 179.373 100.751 178.393 101.869C178.054 101.922 178.23 101.933 177.852 101.675C177.315 100.522 177.94 99.5255 178.935 98.9423Z" fill="#F89A95"/>
  <path d="M163.631 92.6825C165.738 95.9303 167.364 97.7799 171.452 98.2868C172.951 98.4729 173.93 98.5141 175.378 99.0144C173.982 100.026 172.573 101.02 171.153 101.997C170.608 101.23 170.439 100.99 169.534 100.596C168.382 100.399 167.882 100.403 166.87 101.126C166.275 101.942 166.177 102.333 165.888 103.315C165.483 103.404 165.088 103.494 164.679 103.565C164.032 102.924 163.768 102.639 163.005 102.163L162.863 101.784L162.621 101.699C162.269 101.858 162.164 101.938 161.775 101.912C159.754 99.5792 162.529 94.9902 163.631 92.6825Z" fill="#FEBDB7"/>
  <path d="M166.871 101.127L166.567 100.681L166.637 100.385C167.277 99.744 168.509 99.4277 169.358 99.9697C169.554 100.095 169.509 100.349 169.534 100.596C168.382 100.399 167.882 100.403 166.871 101.127Z" fill="#F89A95"/>
  <path d="M161.018 106.744C161.876 107.202 162.082 107.238 163.057 107.415C163.642 109.078 167.525 113.195 169.191 114.173C169.506 114.358 170.533 114.283 170.96 114.281C168.613 115.878 166.968 118.491 166.289 121.215C165.381 121.342 163.931 121.498 163.072 121.669C162.964 120.58 162.3 119.441 162.372 118.292C162.519 115.906 163.393 113.621 162.819 111.214C162.432 109.598 161.664 108.24 161.018 106.744Z" fill="#FDB066"/>
  <path d="M168.412 92.2301C168.843 92.4398 169.691 92.8889 170.121 92.969C173.067 93.5175 177.726 93.5925 178.809 97.1731L178.156 97.1865C177.093 96.2887 175.836 95.1415 174.551 94.626C171.875 93.5527 170.73 94.1813 168.412 92.2301Z" fill="#FDB066"/>
  <path d="M181.297 100.705L181.547 100.539C182.166 101.042 182.345 105.843 184.141 107.21C185.605 108.323 186.306 108.232 187.657 108.964C181.261 108.118 183.403 105.809 181.251 101.329L181.297 100.705Z" fill="#FDB066"/>
  <path d="M22.3491 182.866C22.4027 183.318 22.3943 183.555 22.6013 183.95C23.4734 184.344 38.0972 184.121 40.7754 184.128L82.6569 184.138L226.996 184.09C227.015 185.119 227.257 187.132 226.797 187.866C226.415 188.043 225.835 187.981 225.835 187.981L23.0523 188.008L22.5199 187.94C22.0495 187.325 22.3173 183.786 22.3491 182.866Z" fill="#BFD9F1"/>
  <path d="M59.8732 187.988L62.9621 187.984C62.9175 192.12 62.7878 196.345 62.7775 200.457H43.4855C44.2651 196.044 44.6695 192.446 44.7521 187.977L59.8732 187.988Z" fill="#5F9EE7"/>
  <path d="M59.8726 187.988L62.9624 187.984C62.9178 192.12 62.7874 196.345 62.7771 200.457H58.3439C58.7938 196.645 59.2908 191.69 59.8726 187.988Z" fill="#377AE9"/>
  <path d="M200.693 187.989L204.415 187.964L212.591 187.975L225.835 187.981C225.554 191.98 224.279 196.46 224.295 200.457H213.006H204.424H200.677C200.636 198.195 200.637 195.932 200.681 193.671C200.657 191.776 200.661 189.882 200.693 187.989Z" fill="#2263CC"/>
  <path d="M200.693 187.989L204.415 187.964L212.591 187.975C212.585 190.09 212.557 192.278 212.618 194.387C212.674 196.376 212.926 198.471 213.006 200.457H204.424H200.677C200.636 198.195 200.637 195.932 200.681 193.671C200.657 191.776 200.661 189.882 200.693 187.989Z" fill="#1E2972"/>
  <path d="M200.693 187.989L204.415 187.964L204.417 191.716L204.424 200.457H200.677C200.636 198.195 200.637 195.932 200.681 193.671C200.657 191.776 200.661 189.882 200.693 187.989Z" fill="#BFD9F1"/>
  <path d="M200.693 187.989L204.414 187.964L204.417 191.716L204.232 191.135C203.304 190.818 201.866 191.067 200.801 191.058C200.806 191.863 200.861 192.906 200.68 193.671C200.656 191.776 200.661 189.882 200.693 187.989Z" fill="#AACEFC"/>
  <path d="M174.321 187.992L184.553 187.985C184.695 192.148 184.933 196.306 185.268 200.457H177.919C176.686 196.778 175.319 191.771 174.321 187.992Z" fill="#7CB2F9"/>
  <path d="M62.962 187.984L81.769 187.994C81.4642 190.23 80.0984 198.478 79.2523 200.457H62.7767C62.787 196.345 62.9174 192.12 62.962 187.984Z" fill="#7CB2F9"/>
  <path d="M147.779 187.988H165.577C165.913 190.786 166.263 193.582 166.628 196.376C166.768 197.452 166.971 199.45 167.21 200.457H149.959C149.43 199.108 147.869 189.686 147.779 187.988Z" fill="#5F9EE7"/>
  <path d="M184.553 187.985L198.77 187.978L200.693 187.989C200.661 189.882 200.657 191.776 200.681 193.671C200.637 195.932 200.636 198.195 200.677 200.457H198.778H185.268C184.933 196.306 184.695 192.148 184.553 187.985Z" fill="#1E2972"/>
  <path d="M198.77 187.978L200.693 187.989C200.661 189.882 200.657 191.776 200.681 193.671C200.637 195.932 200.636 198.195 200.676 200.457H198.778C198.837 196.298 198.834 192.138 198.77 187.978Z" fill="#2D42A9"/>
  <path d="M23.0524 188.008C26.5956 187.924 30.2824 187.977 33.8363 187.984L33.8635 191.171L37.5685 191.063C37.5626 191.53 37.4997 193.098 37.6581 193.423C37.6749 195.768 37.6574 198.113 37.6057 200.457H33.8525H21.8579C22.2957 196.396 22.8866 192.078 23.0524 188.008Z" fill="#121A54"/>
  <path d="M185.574 140.41C186.951 140.494 190.202 145 190.621 146.255C190.696 147.849 191.387 148.333 191.016 150.284C189.22 150.719 186.626 151.36 184.816 151.565C181.882 152.212 173.351 153.183 171.537 154.727C169.668 157.102 170.336 157.906 167.506 160.058C171.044 160.962 173.63 161.97 175.714 165.361C175.388 167.517 175.678 168.424 173.218 168.187L173.155 168.306L173.182 168.449C173.406 169.724 173.398 171.793 172.641 172.882C171.98 173.324 171.042 173.419 170.266 173.341C165.954 172.921 161.794 171.582 157.421 171.824C158.499 172.534 159.15 172.963 159.91 174.003C159.879 175.146 159.99 176.103 159.155 176.949C157.623 178.502 154.71 179.086 152.644 179.135C147.704 179.254 145.636 176.55 142.434 173.413C140.592 173.703 138.752 173.963 136.902 174.14C134.677 174.371 132.365 173.678 131.549 171.387C131.105 170.319 130.892 167.367 131.886 166.587C132.974 165.731 136.588 166.092 137.987 166.108C136.373 164.019 136.169 162.885 136.48 160.183C132.588 159.135 126.071 163.844 124.684 157.032L125.005 155.74C124.984 155.429 125.035 154.869 125.054 154.536C126.304 153.057 128.478 153.077 130.289 152.893C129.871 152.67 129.986 152.831 129.863 152.447C130.413 151.551 133.032 150.967 134.094 150.674L134.15 150.57C134.342 149.427 134.384 148.537 135.571 147.946C137.391 147.038 140.257 147.136 142.178 147.617C143.566 147.964 144.275 148.654 144.931 149.842C147.104 148.872 150.758 147.016 152.756 145.68C153.165 145.46 153.58 145.063 153.94 144.75C155.296 147.636 157.204 149.117 159.957 150.595C160.23 150.583 161.348 150.319 161.755 150.246C163.028 150.021 163.925 150.004 165.213 150.018C166.335 149.729 168.942 148.82 169.737 148.066C170.14 147.325 170.54 146.581 170.936 145.836C172.139 145.837 173.728 145.793 174.899 145.85C175.642 145.708 178.385 144.184 179.229 143.737C181.36 142.658 183.475 141.549 185.574 140.41Z" fill="#7CB2F9"/>
  <path d="M37.5685 191.063L37.6058 200.457H33.8525C33.8863 197.362 33.8899 194.268 33.8636 191.171L37.5685 191.063Z" fill="#BFD9F1"/>
  <path d="M33.8363 187.984L37.5676 187.963L37.5684 191.063L33.8635 191.171L33.8363 187.984Z" fill="#AACEFC"/>
  <path d="M214.237 91.4258C217.295 91.577 218.975 94.1059 221.514 95.4567C222.914 96.2017 224.469 96.7426 225.92 97.3931C229.866 99.1621 235.167 101.634 238.143 104.876C239.526 106.383 240.622 108.199 241.52 110.03C244.316 115.73 250.251 133.447 249.992 139.433C249.808 143.648 245.814 147.269 245.607 149.04C244.546 151.6 243.38 154.099 240.91 155.535C239.976 155.311 239.428 155.198 238.657 154.57L237.814 155.191C237.476 154.815 236.766 153.149 236.369 152.448C235.752 151.349 235.235 151.042 234.732 150.183C234.166 149.468 231.087 148.237 230.101 147.921C229.031 149.657 226.5 152.344 224.994 153.77C222.797 153.877 220.392 153.879 218.31 153.162C217.246 151.262 215.976 148.537 215.148 146.539C214.268 145.692 211.861 139.028 210.89 137.54C210.359 136.728 209.751 134.644 209.13 133.924L208.798 134.046C207.658 137.61 204.193 143.142 201.401 145.804C200.521 146.643 199.261 146.96 199.532 148.19C199.114 148.823 194.013 151.663 193.14 151.978C192.232 151.708 191.616 151.1 191.128 150.315L191.016 150.284C191.387 148.333 190.697 147.849 190.621 146.255C190.202 145 186.951 140.494 185.574 140.41C185.447 140.138 185.398 139.662 185.35 139.346C186.105 138.375 190.474 135.21 191.729 135.335C191.981 135.219 191.964 135.142 192.147 134.867C194.408 129.383 197.108 121.001 198.191 115.079C198.418 114.399 198.786 112.799 198.975 112.054C200.016 107.958 201.405 105.861 204.545 103.099C205.078 102.498 205.35 102.096 205.8 101.426L206.708 102.322C208.277 104.519 208.368 106.31 209.552 108.773L209.937 109.419C210.051 109.015 210.097 106.422 210.139 105.779C210.192 104.627 211.588 103.596 212.381 102.763C214.631 100.436 215.903 97.3358 215.936 94.0995C215.394 93.2634 215.253 93.0922 214.538 92.3967L214.237 91.4258Z" fill="#AACEFC"/>
  <path d="M208.799 134.046C208.702 133.714 208.751 133.43 208.792 133.515C208.45 132.792 207.788 131.394 207.507 130.717C206.453 128.177 202.556 119.58 202.365 117.041C202.771 117.369 204.838 122.594 205.237 123.477C207.693 128.892 210.464 134.028 213.795 138.961C214.672 140.258 217.733 144.76 217.281 146.157L217.107 146.199C216.142 144.852 215.552 143.615 214.693 142.225C214.526 142.378 214.599 142.287 214.582 142.618C214.173 142.49 213.767 142.358 213.362 142.22C213.6 142.794 215.328 146.132 215.169 146.517C215.165 146.527 215.155 146.532 215.148 146.539C214.268 145.692 211.861 139.028 210.89 137.54C210.359 136.728 209.751 134.644 209.131 133.924L208.799 134.046Z" fill="#7CB2F9"/>
  <path d="M216.015 110.501C218.274 107.391 220.367 103.568 221.066 99.7112C221.139 99.3108 221.297 97.0566 221.419 96.8691C221.479 97.3766 221.512 97.7632 221.533 98.2737C221.556 102.951 219.898 108.41 216.311 111.579C214.838 110.633 213.712 108.447 211.892 108.411C211.535 108.404 211.127 108.944 210.894 109.21C210.478 107.798 210.286 107.256 210.139 105.779C212.86 105.197 214.728 108.617 216.015 110.501Z" fill="#7EB2FC"/>
  <path d="M205.8 101.427L206.708 102.322C208.277 104.519 208.368 106.31 209.552 108.773C207.816 108.29 206.979 106.138 205.012 107.702C204.697 106.329 204.91 103.7 204.544 103.099C205.078 102.498 205.35 102.096 205.8 101.427Z" fill="#7CB2F9"/>
  <path d="M185.574 140.41C185.447 140.138 185.398 139.662 185.35 139.346C188.759 140.861 192.098 145.33 192.818 148.941C192.969 149.704 192.815 151.4 193.14 151.978C192.232 151.708 191.616 151.1 191.128 150.315L191.016 150.284C191.387 148.333 190.697 147.849 190.621 146.255C190.202 145 186.951 140.494 185.574 140.41Z" fill="#7EB2FC"/>
  <path d="M190.621 146.255C191.217 147.471 192.619 149.414 191.128 150.315L191.016 150.284C191.387 148.333 190.697 147.849 190.621 146.255Z" fill="#F89A95"/>
  <path d="M230.101 147.921C232.532 147.592 235.379 149.299 237.241 150.696C237.867 151.167 239.848 152.869 239.95 153.617L239.819 153.805C239.697 153.815 239.494 153.85 239.393 153.819C239.065 154.106 238.936 154.235 238.657 154.57L237.814 155.191C237.476 154.815 236.766 153.149 236.369 152.448C235.752 151.349 235.235 151.042 234.732 150.183C234.166 149.468 231.087 148.237 230.101 147.921Z" fill="#93B4F8"/>
  <path d="M234.732 150.183C235.742 150.663 239.003 152.97 239.393 153.819C239.065 154.106 238.936 154.235 238.657 154.57L237.814 155.191C237.476 154.815 236.766 153.149 236.369 152.447C235.752 151.349 235.235 151.042 234.732 150.183Z" fill="#FDAEA8"/>
  <path d="M205.012 107.702C206.979 106.138 207.816 108.29 209.552 108.773L209.937 109.419C210.041 109.803 210.125 109.97 210.028 110.358C209.204 110.395 208.403 109.087 207.331 109.432C207.121 110.036 207.117 112.007 207.091 112.753C206.324 111.071 205.542 109.474 205.012 107.702Z" fill="#5F9EE7"/>
  <path d="M191.729 135.335C191.982 135.219 191.965 135.142 192.147 134.867C194.013 135.209 198.623 137.531 198.523 139.634C197.863 139.444 196.524 137.772 194.555 136.977C196.113 138.828 196.646 139.43 197.622 141.71C197.021 141.179 196.499 140.424 196.032 139.764C194.555 137.675 193.869 136.763 191.729 135.335Z" fill="#7CB2F9"/>
  <path d="M221.919 139.187C222.331 138.971 222.839 139.132 223.054 139.545C223.267 139.959 223.103 140.467 222.687 140.677C222.276 140.886 221.774 140.724 221.563 140.314C221.351 139.904 221.51 139.401 221.919 139.187Z" fill="#BFD9F1"/>
  <path d="M215.588 123.493C215.856 123.344 216.183 123.355 216.441 123.522C216.698 123.689 216.841 123.984 216.813 124.289C216.783 124.594 216.588 124.858 216.305 124.975C215.902 125.142 215.438 124.965 215.249 124.572C215.058 124.179 215.207 123.706 215.588 123.493Z" fill="#BFD9F1"/>
  <path d="M212.651 115.372C212.902 115.21 213.22 115.199 213.48 115.344C213.741 115.488 213.899 115.765 213.894 116.062C213.888 116.36 213.719 116.63 213.454 116.765C213.071 116.958 212.606 116.819 212.392 116.449C212.179 116.078 212.292 115.605 212.651 115.372Z" fill="#BFD9F1"/>
  <path d="M218.84 131.325C219.109 131.227 219.411 131.282 219.628 131.47C219.847 131.657 219.945 131.949 219.887 132.229C219.829 132.511 219.623 132.739 219.349 132.826C218.938 132.955 218.499 132.732 218.36 132.324C218.222 131.916 218.435 131.472 218.84 131.325Z" fill="#BFD9F1"/>
  <path d="M225.337 146.203C225.609 146.123 225.903 146.202 226.101 146.405C226.298 146.608 226.368 146.904 226.282 147.174C226.195 147.443 225.968 147.643 225.689 147.695C225.287 147.768 224.897 147.513 224.803 147.115C224.71 146.717 224.945 146.317 225.337 146.203Z" fill="#BFD9F1"/>
  <path d="M34.3597 98.4539C35.7487 102.602 37.7392 108.283 41.8491 110.349L41.9636 110.405C41.6763 109.242 41.8463 108.043 41.9602 106.86C42.8152 108.116 43.8438 110.216 44.5756 111.635C45.6882 113.813 46.8318 115.976 48.0061 118.122C52.4656 125.152 57.9823 133.434 65.5483 137.35C65.3732 137.973 65.161 138.82 64.9442 139.409C64.2256 141.498 63.1401 142.923 61.328 144.202L60.1505 143.419C58.6754 145.968 56.9655 147.53 54.6591 149.305C54.1876 149.668 52.882 150.569 52.553 150.911C51.8434 151.741 51.5636 152.082 50.7171 152.749C47.2433 151.369 44.9585 149.85 41.9391 147.628C41.6002 147.25 41.1612 146.841 40.7799 146.494C38.5934 144.513 36.7542 142.471 34.8729 140.202C33.0531 142.123 31.5674 144.498 29.6863 146.298C29.5048 146.473 28.8507 146.597 28.5749 146.649L28.4985 146.646C28.1417 146.581 27.2566 146.546 26.8342 146.521C19.1989 146.078 11.0889 142.183 6.03659 136.382C4.81795 134.385 4.42355 134.31 3.40009 131.816C5.31126 126.788 9.05501 120.608 12.3158 116.349C17.4032 109.269 26.2567 101.742 34.3597 98.4539Z" fill="#AACEFC"/>
  <path d="M41.9599 106.86C42.8148 108.116 43.8434 110.216 44.5752 111.635C45.6878 113.813 46.8315 115.976 48.0057 118.122C52.4652 125.152 57.9819 133.434 65.548 137.35C65.3728 137.973 65.1606 138.819 64.9438 139.409C64.2252 141.498 63.1397 142.923 61.3276 144.202L60.1501 143.419L60.8652 141.931C60.7188 141.874 60.5735 141.814 60.4291 141.752C52.1312 138.164 45.065 124.234 41.852 116.175C42.0855 114.675 42.5151 111.784 41.9632 110.405C41.6759 109.242 41.8459 108.043 41.9599 106.86Z" fill="#7CB2F9"/>
  <path d="M61.1229 93.0608C61.9488 92.9162 64.3457 91.9946 65.3033 91.6672C67.8311 90.8025 69.5837 90.3757 72.1853 89.8933C71.5774 92.6977 72.2329 95.3714 73.7342 97.7972C75.0262 99.8849 78.61 102.841 81.1489 101.174C82.2448 100.455 82.2911 98.3684 82.715 97.2205C82.8764 96.7887 83.2762 96.1368 83.5275 95.7231L84.8397 96.5695C86.1698 97.9157 89.0331 100.578 89.7903 102.111C90.8113 104.177 91.7468 107.425 92.3349 109.698C93.2832 113.362 94.1803 116.223 95.4838 119.754C97.0771 124.071 101.122 129.318 101.907 133.546C101.328 132.869 100.759 132.18 99.9464 131.796C95.6316 129.763 91.3442 132.323 91.0568 136.999C89.2554 134.412 88.3693 131.779 86.9063 129.037C85.4294 126.268 83.6395 123.433 81.9921 120.751C80.7602 123.588 79.4894 126.409 78.18 129.211C76.86 131.726 75.1643 134.825 74.0019 137.368C74.3195 137.62 74.7631 137.937 75.014 138.232C74.31 140.913 73.401 142.797 71.3007 144.687C69.4904 143.02 66.9669 141.253 64.9444 139.409C65.1611 138.819 65.3734 137.973 65.5485 137.35C57.9824 133.434 52.4658 125.152 48.0062 118.122C48.2642 114.509 51.5049 104.233 53.0485 100.936C57.3738 101.479 57.0664 99.4566 58.6183 96.1819C58.8404 95.7133 60.5536 93.6785 61.0184 93.1132L61.1229 93.0608Z" fill="#E14948"/>
  <path d="M74.0018 137.368C73.7587 136.861 71.0288 134.581 70.3406 133.36C66.6861 126.869 65.977 117.803 65.569 110.438C65.5375 109.869 65.3803 107.056 65.4332 106.8C65.9634 108.281 66.2444 110.093 66.7634 111.666C69.3552 119.521 71.6454 124.221 78.1799 129.212C76.8599 131.726 75.1642 134.825 74.0018 137.368Z" fill="#D33E3F"/>
  <path d="M185.574 140.41C186.951 140.494 190.202 145 190.621 146.255C190.696 147.849 191.387 148.333 191.016 150.284C189.22 150.719 186.626 151.36 184.816 151.565C181.882 152.212 173.351 153.183 171.537 154.727C169.668 157.102 170.336 157.906 167.506 160.058C166.046 160.596 161.203 162.665 159.921 162.394C159.526 162.045 159.648 162.258 159.562 161.72C159.719 161.207 159.789 161.134 160.123 160.708C158.729 160.288 158.28 159.942 157.319 158.884C156.299 159.489 155.467 159.775 154.367 160.157C153.662 160.516 153.204 160.718 152.466 161.004C151.401 161.302 150.881 161.441 149.763 161.395C150.08 160.803 150.59 160.24 151.021 159.718C151.934 159 152.13 158.912 153.054 158.028C154.025 157.24 154.991 156.449 155.953 155.652C156.183 155.495 156.774 154.904 157.007 154.682C156.743 153.606 156.539 153.26 155.819 152.425C156.813 152.121 158.895 151.079 159.957 150.595C160.231 150.583 161.349 150.319 161.755 150.246C163.028 150.021 163.925 150.004 165.213 150.018C166.335 149.729 168.942 148.82 169.737 148.066C170.14 147.325 170.539 146.581 170.936 145.836C172.139 145.837 173.728 145.792 174.9 145.85C175.642 145.708 178.385 144.184 179.229 143.737C181.36 142.658 183.475 141.549 185.574 140.41Z" fill="#FDAEA8"/>
  <path d="M154.368 160.158C155.196 158.689 160.091 157.208 161.718 156.71C162.396 156.502 164.346 156.138 164.433 157.147C164.572 158.752 162.193 159.534 161.066 160.083C160.717 160.253 160.409 160.575 160.123 160.708C158.729 160.288 158.281 159.942 157.32 158.884C156.3 159.489 155.468 159.775 154.368 160.158Z" fill="#F89A95"/>
  <path d="M159.958 150.595C160.231 150.583 161.349 150.319 161.755 150.246C163.029 150.021 163.925 150.004 165.213 150.018C164.278 150.65 162.302 151.411 161.211 151.963C159.543 152.808 158.46 153.547 157.007 154.682C156.744 153.606 156.539 153.26 155.819 152.425C156.814 152.121 158.896 151.079 159.958 150.595Z" fill="#F6F9FA"/>
  <path d="M170.937 145.836C172.14 145.837 173.729 145.792 174.9 145.85C173.772 146.448 170.862 148.087 169.737 148.066C170.141 147.325 170.54 146.581 170.937 145.836Z" fill="#F6F9FA"/>
  <path d="M157.319 158.884C158.28 159.942 158.729 160.288 160.123 160.708C159.789 161.134 159.719 161.207 159.562 161.72C159.648 162.258 159.526 162.045 159.921 162.394C161.203 162.665 166.046 160.596 167.506 160.058C171.044 160.962 173.63 161.97 175.714 165.361C175.389 167.517 175.679 168.424 173.218 168.187C172.959 167.964 172.694 167.471 172.465 167.175C171.059 165.361 168.386 165.114 166.255 165.305C162.933 165.603 159.554 164.988 156.229 164.815C155.698 164.787 154.757 164.543 154.427 164.108C154.342 163.582 154.59 163.056 154.766 162.528C153.69 161.546 153.738 161.598 152.466 161.004C153.204 160.718 153.662 160.516 154.367 160.157C155.467 159.775 156.299 159.489 157.319 158.884Z" fill="#377AE9"/>
  <path d="M153.94 144.75C155.296 147.636 157.204 149.117 159.957 150.595C158.895 151.079 156.813 152.121 155.818 152.425C153.83 151.575 147.887 152.595 144.935 152.38L144.931 149.842C147.104 148.872 150.758 147.016 152.756 145.68C153.165 145.46 153.58 145.063 153.94 144.75Z" fill="#FDAEA8"/>
  <path d="M147.79 160.26C146.667 158.993 145.856 158.609 144.439 157.686C143.942 157.361 143.671 157.197 143.547 156.599C144.048 154.248 153.849 155.589 155.953 155.652C154.99 156.449 154.025 157.241 153.054 158.028C152.129 158.912 151.933 159 151.021 159.718C150.35 160.058 149.458 160.55 148.763 160.759C148.368 160.731 148.27 160.728 147.893 160.62L147.79 160.26Z" fill="#377AE9"/>
  <path d="M147.791 160.26C147.939 160.124 148.386 159.355 148.837 158.862C149.958 157.636 151.325 157.973 153.054 158.028C152.13 158.912 151.934 159 151.021 159.718C150.35 160.058 149.458 160.55 148.763 160.759C148.368 160.731 148.27 160.728 147.893 160.62L147.791 160.26Z" fill="#7EB2FC"/>
  <path d="M125.005 155.74C126.217 157.734 125.277 158.039 127.974 159.119C130.282 160.043 135.391 157.246 136.694 159.146C136.766 159.479 136.718 159.929 136.48 160.183C132.588 159.135 126.071 163.844 124.684 157.032L125.005 155.74Z" fill="#5796F2"/>
  <path d="M130.289 152.893C129.872 152.67 129.987 152.831 129.863 152.448C130.414 151.551 133.033 150.967 134.095 150.674C134.097 151.597 134.057 151.952 134.446 152.805C133.181 152.815 131.515 152.788 130.289 152.893Z" fill="#FEBDB7"/>
  <path d="M148.763 160.759C149.458 160.55 150.35 160.058 151.021 159.718C150.59 160.24 150.08 160.803 149.763 161.395C149.164 161.507 148.008 161.79 147.76 161.05C148.173 160.715 148.123 160.822 148.763 160.759Z" fill="#F6F9FA"/>
  <path d="M134.15 150.57C134.796 150.765 135.459 151.69 135.367 152.396C135.056 152.731 134.931 152.798 134.446 152.805C134.057 151.952 134.097 151.597 134.094 150.674L134.15 150.57Z" fill="#5F9EE7"/>
  <path d="M91.0565 136.999C91.344 132.323 95.6313 129.763 99.9461 131.796C100.759 132.18 101.328 132.869 101.907 133.546C102.107 134.51 102.922 137.945 102.779 138.72C105.466 138.363 109.521 138.877 109.862 142.367C109.925 143.016 109.865 143.867 109.849 144.539C112.52 144.674 117.998 144.309 119.778 145.806C120.966 147.876 121.091 149.522 120.458 151.879C120.409 152.064 120.354 152.249 120.298 152.431C122.26 152.845 123.899 152.61 125.055 154.536C125.035 154.868 124.985 155.429 125.006 155.74L124.685 157.032C123.174 158.364 122.093 158.727 120.036 158.894C119.936 159.388 119.816 159.922 119.739 160.417C118.844 161.105 113.296 160.908 111.995 160.808C111.127 160.669 110.258 160.843 109.582 160.461C109.298 159.967 109.392 160.076 109.387 159.422C110.213 156.149 106.969 156.574 104.795 156.722C104.392 156.992 103.325 157.742 102.948 157.923C103.225 158.316 103.423 158.585 103.737 158.951L103.543 159.158C105.413 159.244 106.378 159.586 105.984 161.75C104.78 163.352 103.563 165.096 102.226 166.58C99.9781 166.552 99.2424 166.656 97.1376 167.419C96.3803 167.604 95.8503 167.685 95.0953 167.914L95.0813 168.398L94.8602 168.477C93.8743 168.659 92.2023 168.459 91.1341 168.366C89.4401 167.925 87.7437 167.184 86.0575 166.707C85.0912 166.434 83.4513 166.457 82.5409 166.153C80.442 165.452 78.6311 161.949 77.6558 160.03C77.4929 159.725 77.305 159.432 77.0942 159.157C76.5744 158.482 76.0166 158.196 75.1959 158.087C73.1195 157.141 69.8164 156.627 67.5628 156.015C65.2619 155.391 63.0022 154.671 60.7114 154.036C58.5341 153.441 54.6368 151.851 52.5529 150.911C52.8819 150.569 54.1875 149.668 54.659 149.305C56.9654 147.53 58.6752 145.968 60.1504 143.419L61.3278 144.202C63.14 142.923 64.2255 141.498 64.9441 139.409C66.9667 141.253 69.4901 143.02 71.3004 144.687C73.4007 142.797 74.3097 140.913 75.0137 138.232C77.8674 140.446 82.3492 144.442 86.0323 144.384C88.4449 144.347 89.883 144.208 92.1871 145.127C93.642 143.851 94.0892 143.88 96.0381 143.775C95.7431 143.335 95.3664 142.861 95.0269 142.451C93.5815 140.7 92.3248 138.88 91.0565 136.999Z" fill="#1E2972"/>
  <path d="M64.9441 139.409C66.9667 141.253 69.4901 143.02 71.3004 144.687C71.8954 145.316 77.1907 149.193 78.034 149.522C79.3333 149.882 84.0783 151.705 84.864 151.758C84.5011 152.16 84.3251 152.205 84.3017 152.655L84.3555 152.766L84.8708 152.965C85.5201 153.546 86.1724 153.594 87.028 153.816C85.9603 154.736 85.7147 155.083 85.3734 156.501C87.0205 157.001 88.747 158.133 90.4829 158.731C91.4748 159.075 92.5675 159.013 93.0191 159.297C93.7786 161.493 88.6098 160.278 87.8282 160.092C89.2864 163.522 92.3183 164.997 94.6835 167.611C94.8358 167.779 94.857 168.246 94.8602 168.477C93.8743 168.659 92.2023 168.459 91.1341 168.366C89.4401 167.925 87.7437 167.184 86.0575 166.707C85.0912 166.434 83.4513 166.457 82.5409 166.153C80.442 165.452 78.6311 161.95 77.6558 160.03C77.4929 159.725 77.305 159.432 77.0942 159.157C76.5744 158.482 76.0166 158.196 75.1959 158.087C73.1195 157.141 69.8164 156.627 67.5628 156.015C65.2619 155.391 63.0022 154.671 60.7114 154.036C58.5341 153.441 54.6368 151.851 52.5529 150.911C52.8819 150.569 54.1875 149.668 54.659 149.305C56.9654 147.53 58.6752 145.968 60.1504 143.419L61.3278 144.202C63.14 142.923 64.2255 141.498 64.9441 139.409Z" fill="#FEBDB7"/>
  <path d="M78.0339 149.522C79.3333 149.882 84.0782 151.705 84.8639 151.758C84.5011 152.16 84.3251 152.205 84.3017 152.655L84.3555 152.766C83.042 153.267 78.7825 150.431 78.0339 149.522Z" fill="#E7DADC"/>
  <path d="M91.0566 136.999C91.3441 132.323 95.6315 129.763 99.9463 131.796C100.759 132.18 101.328 132.869 101.907 133.546C102.108 134.51 102.923 137.945 102.779 138.72C99.4966 139.744 99.705 140.994 100.712 143.75L100.631 143.904C99.4737 144.078 97.2274 143.681 96.3261 143.98C96.0276 145.696 92.2709 147.042 91.7413 148.078C91.2316 148.323 90.5094 148.896 89.8556 149.252C88.1897 150.157 86.5702 150.94 84.8641 151.758C84.0784 151.705 79.3335 149.882 78.0341 149.522C77.1908 149.193 71.8956 145.316 71.3005 144.687C73.4009 142.797 74.3099 140.913 75.0139 138.232C77.8675 140.446 82.3494 144.442 86.0325 144.384C88.4451 144.347 89.8831 144.208 92.1873 145.127C93.6421 143.851 94.0893 143.88 96.0382 143.775C95.7433 143.335 95.3665 142.861 95.0271 142.451C93.5816 140.7 92.325 138.88 91.0566 136.999Z" fill="#FAAD86"/>
  <path d="M84.864 151.758C86.5701 150.94 88.1895 150.157 89.8555 149.252C90.5093 148.896 91.2315 148.323 91.7412 148.078C92.0964 148.851 92.6499 150.241 93.2867 150.723C94.7231 150.852 101.077 149.745 100.918 151.632C99.4658 154.06 98.086 152.582 96.4158 152.292C93.5602 151.793 90.4173 152.033 87.7866 153.344L87.0281 153.816C86.1724 153.594 85.5201 153.546 84.8709 152.965L84.3556 152.766L84.3018 152.655C84.3252 152.205 84.5011 152.16 84.864 151.758Z" fill="#F6F9FA"/>
  <path d="M84.8706 152.965C86.0353 152.881 86.8873 152.642 87.7863 153.344L87.0278 153.816C86.1722 153.594 85.5199 153.546 84.8706 152.965Z" fill="#FDCAC2"/>
  <path d="M120.298 152.431C122.26 152.845 123.899 152.61 125.055 154.536C125.035 154.868 124.985 155.429 125.006 155.74L124.685 157.032C123.175 158.364 122.093 158.727 120.036 158.894C120.168 157.721 120.296 155.722 119.492 154.79C119.832 153.983 119.876 153.736 120.036 152.866L120.298 152.431Z" fill="#BFD9F1"/>
  <path d="M119.492 154.79C118.476 154.622 114.815 153.64 114.614 152.572C115.471 151.657 118.881 152.571 120.036 152.866C119.876 153.736 119.832 153.983 119.492 154.79Z" fill="#7CB2F9"/>
  <path d="M100.045 159.179C101.167 157.912 103.147 156.92 104.795 156.722C104.392 156.992 103.325 157.742 102.947 157.923C103.224 158.316 103.423 158.585 103.737 158.951L103.543 159.158L102.406 159.189C101.5 159.254 100.958 159.231 100.045 159.179Z" fill="#5F9EE7"/>
  <path d="M102.948 157.923C103.225 158.317 103.423 158.586 103.737 158.951L103.543 159.159L102.407 159.189C102.246 159.124 102.192 159.072 102.048 158.972L102.06 158.658C102.372 158.211 102.459 158.178 102.948 157.923Z" fill="#7EB2FC"/>
  <path d="M109.387 159.422C110.224 159.37 111.296 159.159 111.957 159.57C112.182 160.118 112.076 160.172 111.995 160.808C111.127 160.669 110.258 160.843 109.582 160.462C109.298 159.967 109.392 160.076 109.387 159.422Z" fill="#2D42A9"/>
  <path d="M230.101 147.921C231.088 148.237 234.166 149.467 234.732 150.183C235.235 151.042 235.752 151.349 236.37 152.447C236.766 153.149 237.476 154.815 237.814 155.191L238.657 154.57C239.428 155.198 239.976 155.311 240.91 155.535C243.38 154.099 244.546 151.6 245.607 149.04C252.505 164.404 247.289 171.559 244.393 186.613C243.869 189.439 243.476 192.286 243.214 195.147C243.1 196.503 243.01 199.234 242.768 200.457H224.295C224.278 196.46 225.553 191.979 225.835 187.981C226.272 187.999 226.415 188.043 226.798 187.866C227.257 187.132 227.015 185.119 226.996 184.09C227.001 183.768 227.04 183.381 226.987 183.067C226.887 182.473 215.651 174.619 214.219 173.407C214.541 172.75 214.531 171.626 214.498 170.905C214.25 171.506 214.251 171.572 213.658 171.776C213.387 171.743 213.001 171.639 212.874 171.367C210.823 166.961 213.475 162.423 216.885 159.778C217.475 157.863 218.272 155.133 218.31 153.162C220.392 153.879 222.798 153.877 224.994 153.77C226.5 152.344 229.031 149.657 230.101 147.921Z" fill="#2E6DD8"/>
  <path d="M230.101 147.921C231.088 148.237 234.166 149.467 234.732 150.183C235.235 151.042 235.752 151.349 236.37 152.447C236.766 153.149 237.476 154.815 237.814 155.191C235.782 156.871 233.722 158.19 231.516 159.618C230.457 160.303 228.693 161.353 227.801 162.14C227.064 165.292 225.686 168.7 223.152 170.853C221.975 171.853 221.227 170.272 219.963 170.932C219.937 170.946 219.571 171.052 219.543 171.06C218.657 170.807 218.524 170.323 217.947 170.186L217.813 170.27C216.577 171.035 215.99 170.611 215.026 169.644L214.945 169.657L214.498 170.905C214.25 171.506 214.251 171.572 213.658 171.776C213.387 171.743 213.001 171.639 212.874 171.367C210.823 166.961 213.475 162.423 216.885 159.778C217.475 157.863 218.272 155.133 218.31 153.162C220.392 153.879 222.798 153.877 224.994 153.77C226.5 152.344 229.031 149.657 230.101 147.921Z" fill="#FEBDB7"/>
  <path d="M218.31 153.162C220.392 153.879 222.797 153.877 224.994 153.77C221.885 156.813 220.699 157.542 216.885 159.778C217.475 157.863 218.272 155.133 218.31 153.162Z" fill="#2263CC"/>
  <path d="M214.945 169.657C214.852 168.931 215.359 167.922 215.71 167.287C215.599 168.24 215.386 168.752 215.026 169.644L214.945 169.657Z" fill="#F89A95"/>
  <path d="M104.795 156.722C106.969 156.574 110.214 156.149 109.388 159.422C109.392 160.076 109.298 159.967 109.582 160.461C110.259 160.843 111.128 160.669 111.996 160.807C113.296 160.908 118.844 161.104 119.739 160.417C121.775 160.01 125.282 160.073 127.098 161.184C128.974 162.333 128.595 164.097 128.081 165.858C127.305 167.845 125.325 167.643 123.495 168.037C127.288 169.507 129.299 168.718 127.921 174.396C127.547 175.942 117.647 175.074 116.25 175.08C118.128 179.245 115.827 181.41 111.533 181.089C105.498 180.637 105.405 180.955 105.983 175.024C103.961 175.062 97.3719 175.727 96.0494 174.374C95.6529 173.969 95.7069 173.536 95.7346 173.002C95.7393 172.914 95.7479 172.824 95.7562 172.736C95.8876 171.57 96.2945 170.591 96.6866 169.486C97.005 168.631 97.0618 168.317 97.1378 167.419C99.2426 166.655 99.9783 166.552 102.226 166.58C103.563 165.096 104.781 163.352 105.984 161.75C106.378 159.586 105.413 159.244 103.543 159.158L103.737 158.951C103.423 158.585 103.225 158.316 102.948 157.923C103.326 157.742 104.392 156.992 104.795 156.722Z" fill="#7CB2F9"/>
  <path d="M97.1377 167.419C99.2425 166.656 99.9782 166.552 102.226 166.58L102.477 167.393C102.224 167.789 101.629 169.582 101.644 170.043C100.343 171.86 97.9249 172.733 95.7561 172.736C95.8875 171.57 96.2944 170.591 96.6865 169.486C97.0049 168.631 97.0617 168.317 97.1377 167.419Z" fill="#7EB2FC"/>
  <path d="M123.495 168.037C122.953 167.933 122.873 167.925 122.744 167.435C123.214 166.472 127.261 165.601 128.081 165.858C127.305 167.845 125.325 167.643 123.495 168.037Z" fill="#5F9EE7"/>
  <path d="M102.226 166.58C103.563 165.096 104.78 163.352 105.984 161.75C105.871 163.688 104.712 165.121 103.419 166.494C103.163 166.763 102.776 167.21 102.477 167.393L102.226 166.58Z" fill="#2263CC"/>
  <path d="M102.477 167.392C102.776 167.21 103.163 166.763 103.419 166.494L103.543 168.057C102.855 168.913 102.476 169.312 101.644 170.043C101.629 169.582 102.224 167.789 102.477 167.392Z" fill="#5F9EE7"/>
  <path d="M111.831 161.941C113.542 161.916 115.252 161.928 116.962 161.976C116.739 162.838 116.594 163.565 116.143 164.342C114.994 165.229 113.313 165.229 112.343 164.141C111.665 163.381 111.813 162.885 111.831 161.941Z" fill="#F6F9FA"/>
  <path d="M208.798 134.046L209.13 133.924C209.751 134.644 210.359 136.728 210.89 137.54C211.861 139.028 214.268 145.692 215.148 146.539C215.976 148.537 217.246 151.262 218.31 153.162C218.272 155.133 217.475 157.863 216.885 159.778C213.475 162.423 210.822 166.961 212.874 171.367C213.001 171.639 213.386 171.743 213.658 171.776C214.251 171.572 214.249 171.506 214.497 170.905C214.531 171.626 214.541 172.75 214.219 173.407C210.633 170.508 205.854 167.097 202.087 164.369C201.456 163.877 200.83 163.381 200.207 162.878C201.067 161.923 204.451 157.557 205.031 156.527C202.619 152.858 200.103 152.005 195.91 152.136C194.981 153.98 194.072 155.834 193.183 157.697C190.687 156.093 187.274 153.389 184.816 151.565C186.626 151.36 189.22 150.719 191.016 150.284L191.128 150.315C191.615 151.1 192.232 151.708 193.14 151.978C194.013 151.663 199.114 148.823 199.531 148.19C199.261 146.96 200.521 146.643 201.4 145.804C204.193 143.142 207.658 137.61 208.798 134.046Z" fill="#1E2972"/>
  <path d="M195.91 152.136C200.103 152.005 202.62 152.858 205.031 156.527C204.451 157.557 201.067 161.923 200.207 162.878C199.731 163.454 199.385 163.893 198.831 164.398C197.327 165.441 194.879 168.485 193.387 169.864C191.444 171.662 190.236 174.338 187.163 174.765L186.91 174.527C185.139 173.753 183.441 174.16 181.985 175.395L181.848 175.379C181.052 175.286 180.496 175.842 179.829 176.337C178.828 176.342 178.11 176.307 177.112 176.222C176.632 176.086 176.173 176.017 175.829 175.681C175.299 175.3 175.155 175.24 174.97 174.665C175.062 173.8 175.841 173.347 176.545 172.761C176.365 172.522 175.847 172.026 175.5 171.561C176.043 170.022 178.307 169.264 179.706 168.628C181.902 167.626 184.372 167.688 186.742 167.538C188.11 166.062 189.066 164.61 190.148 162.926C191.177 161.253 192.197 159.408 193.184 157.697C194.072 155.834 194.981 153.98 195.91 152.136Z" fill="#FEBDB7"/>
  <path d="M176.791 174.3C177.44 173.98 177.957 173.595 178.655 173.598C178.025 174.249 177.326 174.831 177.326 175.779L177.112 176.222C176.631 176.086 176.173 176.017 175.829 175.681L175.885 175.077C176.196 174.639 176.329 174.583 176.791 174.3Z" fill="#FDAEA8"/>
  <path d="M176.791 174.3L176.86 174.546C176.584 174.948 176.573 174.957 176.109 175.143L175.885 175.077C176.196 174.639 176.329 174.583 176.791 174.3Z" fill="#F89A95"/>
  <path d="M178.655 173.598C179.679 172.752 180.751 171.863 181.98 171.334L182.083 171.411C181.655 171.957 180.696 172.275 179.976 172.939C178.935 173.9 178.237 174.714 177.327 175.779C177.327 174.831 178.026 174.249 178.655 173.598Z" fill="#F89A95"/>
  <path d="M175.5 171.561C176.989 171.685 177.453 171.556 178.911 171.18C178.453 171.5 176.976 172.562 176.545 172.761C176.366 172.522 175.847 172.026 175.5 171.561Z" fill="#E7DADC"/>
  <path d="M184.06 172.725L184.249 172.765L184.266 172.906C183.836 173.054 183.067 173.287 182.73 173.551C181.769 174.314 180.763 175.02 179.721 175.666L179.434 175.706L179.49 175.482C181.276 173.965 181.8 173.43 184.06 172.725Z" fill="#F89A95"/>
  <path d="M41.9387 147.628C44.9581 149.85 47.2429 151.369 50.7167 152.749C51.5632 152.082 51.843 151.741 52.5526 150.911C54.6366 151.851 58.5339 153.441 60.7111 154.036C58.3992 156.023 55.6012 157.86 53.1643 159.718C52.255 160.411 50.8152 161.369 50.018 162.125C47.5542 163.775 45.1729 165.839 42.8424 167.373C41.2366 160.823 40.5474 154.325 41.9387 147.628Z" fill="#5F9EE7"/>
  <path d="M171.537 154.727C173.352 153.183 181.883 152.212 184.817 151.565C187.274 153.389 190.687 156.093 193.184 157.697C192.197 159.408 191.177 161.253 190.148 162.926C186.048 162.765 179.137 162.581 175.994 159.901C175.969 159.292 175.993 158.524 175.994 157.902C175.04 156.412 173.146 155.68 171.537 154.727Z" fill="#BFD9F1"/>
  <path d="M77.6555 160.03C78.6308 161.949 80.4416 165.452 82.5406 166.153C83.451 166.457 85.0909 166.434 86.0572 166.707C87.7434 167.184 89.4398 167.925 91.1338 168.366C91.1667 168.582 91.2391 169.137 91.2966 169.315C90.6924 170.555 89.9091 171.639 89.2959 172.806C88.2606 172.602 86.4386 173.357 85.2737 173.545C82.7701 173.948 80.4747 173.846 78.0391 173.179C77.9004 171.219 78.5128 170.636 79.8301 169.362C78.7251 168.942 71.5567 170.182 69.981 169.298C69.5581 168.778 69.6601 167.88 69.66 167.177C69.7997 166.873 69.9486 166.573 70.1067 166.279C71.5252 163.673 74.7321 160.887 77.6555 160.03Z" fill="#1E2972"/>
  <path d="M69.66 167.177C69.7886 167.468 69.8208 167.722 70.0573 167.753C73.375 168.179 77.3274 167.062 80.6398 167.456C80.4468 168.179 80.3621 168.847 79.8301 169.362C78.7251 168.942 71.5567 170.182 69.981 169.298C69.5581 168.778 69.6601 167.88 69.66 167.177Z" fill="#2D42A9"/>
  <path d="M60.7111 154.036C63.0019 154.671 65.2615 155.391 67.5625 156.015C69.8161 156.627 73.1192 157.141 75.1955 158.087C74.2807 158.499 72.3006 159.245 71.6196 159.621C70.5533 160.208 69.7141 161.424 68.2113 162.018C63.9702 163.692 59.1695 162.481 54.7298 162.286C53.645 162.238 50.7782 162.248 50.0179 162.125C50.8151 161.369 52.255 160.411 53.1643 159.718C55.6011 157.86 58.3992 156.023 60.7111 154.036Z" fill="#BFD9F1"/>
  <path d="M78.0396 173.179C80.4752 173.846 82.7705 173.948 85.2742 173.545C86.4391 173.357 88.2611 172.602 89.2964 172.806C87.7255 175.915 83.1875 175.76 80.247 175.366C78.8801 175.184 78.0382 174.593 78.0396 173.179Z" fill="#2D42A9"/>
  <path d="M94.8598 168.477L95.0809 168.398L95.0949 167.914C95.8499 167.685 96.3799 167.604 97.1372 167.419C97.0612 168.317 97.0044 168.631 96.686 169.486C94.927 169.532 93.0622 169.404 91.2965 169.315C91.239 169.137 91.1666 168.582 91.1337 168.366C92.2018 168.459 93.8738 168.659 94.8598 168.477Z" fill="#2D42A9"/>
  <path d="M181.985 175.395C183.44 174.16 185.138 173.753 186.909 174.527L187.163 174.765C186.492 174.829 186.174 174.887 185.545 175.013C184.68 175.185 182.524 176.319 181.84 176.026C181.723 175.708 181.755 175.713 181.847 175.378L181.985 175.395Z" fill="#FDAEA8"/>
  <path d="M181.985 175.395C183.441 174.16 185.139 173.753 186.91 174.527L186.569 174.681C184.243 173.686 183.116 175.813 182.18 175.866C181.96 175.608 182.034 175.755 181.985 175.395Z" fill="#F89A95"/>
  <path d="M200.207 162.878C200.831 163.381 201.457 163.877 202.088 164.369C201.251 164.604 199.627 164.778 198.832 164.398C199.385 163.893 199.731 163.454 200.207 162.878Z" fill="#BFD9F1"/>
  <path d="M6.03645 136.382C11.0888 142.183 19.1988 146.078 26.8341 146.521C27.2565 146.546 28.1415 146.581 28.4984 146.646L28.5747 146.649C29.4519 154.699 31.186 162.905 32.1378 170.971C32.2924 172.282 32.5939 173.655 32.7133 174.958C29.9116 177.072 26.8862 179.415 24.0251 181.418C23.5967 181.724 22.4726 182.429 22.3493 182.866C22.3175 183.786 22.0498 187.325 22.5201 187.94L23.0525 188.008C22.8866 192.078 22.2958 196.396 21.858 200.457H7.93936C8.00773 199.041 8.17614 195.939 7.9339 194.552C6.46069 186.113 5.1353 177.547 3.17158 169.211C2.63722 166.941 1.44521 164.555 0.818655 162.23C-1.57238 153.353 1.60885 144.064 6.03645 136.382Z" fill="#1E2972"/>
  <path d="M28.4986 146.646L28.575 146.649C29.4522 154.699 31.1862 162.905 32.138 170.971C32.2927 172.282 32.5942 173.655 32.7135 174.958C29.9118 177.072 26.8864 179.415 24.0253 181.418C23.7681 181.13 23.7027 180.868 23.7247 180.478C24.3544 169.245 25.7664 157.906 26.2733 146.677C27.1459 146.713 27.6361 146.73 28.4986 146.646Z" fill="#121A54"/>
  <path d="M10.4323 154.148C10.7488 153.893 11.2104 153.941 11.4687 154.255C11.7267 154.567 11.6857 155.03 11.3763 155.292C11.1723 155.465 10.8911 155.515 10.6401 155.422C10.3891 155.33 10.2073 155.11 10.1643 154.846C10.1213 154.581 10.2237 154.315 10.4323 154.148Z" fill="#2D42A9"/>
  <path d="M8.87926 146.007C9.19463 145.86 9.56998 145.993 9.72171 146.307C9.87344 146.619 9.74511 146.997 9.43379 147.153C9.22868 147.255 8.98406 147.24 8.79365 147.112C8.60339 146.983 8.49663 146.763 8.51428 146.534C8.53208 146.305 8.67148 146.104 8.87926 146.007Z" fill="#2D42A9"/>
  <path d="M9.10321 151.034C9.64023 151.011 10.1282 150.937 10.6189 151.125C10.886 151.53 10.8174 151.358 10.7354 151.957C9.92521 152.027 9.2775 151.865 9.10321 151.034Z" fill="#2D42A9"/>
  <path d="M5.66635 145.182C5.98565 145.161 6.26838 145.388 6.31518 145.704C6.36184 146.021 6.157 146.321 5.84485 146.391C5.6204 146.443 5.38614 146.363 5.23861 146.186C5.09094 146.01 5.05479 145.766 5.14502 145.553C5.23525 145.341 5.43658 145.198 5.66635 145.182Z" fill="#2D42A9"/>
  <path d="M14.6216 152.917C14.8738 152.701 15.2532 152.73 15.4691 152.983C15.685 153.235 15.6558 153.613 15.4038 153.83C15.1517 154.046 14.7722 154.017 14.5563 153.764C14.3403 153.512 14.3695 153.133 14.6216 152.917Z" fill="#2D42A9"/>
  <path d="M2.95736 151.782C3.12745 151.642 3.36143 151.608 3.56416 151.695C3.76689 151.781 3.90461 151.973 3.92143 152.192C3.93824 152.412 3.8312 152.623 3.64388 152.739C3.37992 152.903 3.03414 152.834 2.85313 152.582C2.67211 152.33 2.71764 151.98 2.95736 151.782Z" fill="#2D42A9"/>
  <path d="M12.7494 148.963C12.9508 148.904 13.1682 148.963 13.3128 149.114C13.4574 149.267 13.5046 149.487 13.4351 149.686C13.3658 149.884 13.1913 150.027 12.9834 150.055C12.6934 150.094 12.4217 149.903 12.3604 149.617C12.299 149.332 12.4687 149.046 12.7494 148.963Z" fill="#2D42A9"/>
  <path d="M4.41479 148.854C4.63896 148.661 4.97451 148.679 5.17822 148.892C5.38179 149.106 5.38235 149.442 5.1792 149.657C5.03825 149.805 4.82642 149.864 4.62873 149.809C4.4309 149.755 4.27931 149.596 4.23461 149.396C4.18978 149.196 4.25913 148.987 4.41479 148.854Z" fill="#2D42A9"/>
  <path d="M17.5258 146.982C17.8028 146.912 18.0886 147.063 18.1842 147.334C18.2796 147.603 18.1533 147.901 17.8932 148.02C17.703 148.107 17.4801 148.079 17.3173 147.947C17.1544 147.817 17.0794 147.606 17.1234 147.401C17.1676 147.196 17.3234 147.035 17.5258 146.982Z" fill="#2D42A9"/>
  <path d="M13.2023 145.511C13.3596 145.381 13.5769 145.348 13.7653 145.428C13.9536 145.508 14.0818 145.687 14.0973 145.891C14.1128 146.095 14.0132 146.291 13.839 146.398C13.5946 146.549 13.275 146.485 13.1074 146.252C12.9397 146.018 12.9812 145.694 13.2023 145.511Z" fill="#2D42A9"/>
  <path d="M6.4176 152.729C6.79098 152.806 6.85893 152.892 7.15469 153.121C7.36485 153.623 7.34524 153.406 7.22418 153.941C6.77431 153.821 6.64723 153.821 6.30299 153.532C6.19637 153.06 6.20534 153.242 6.4176 152.729Z" fill="#2D42A9"/>
  <path d="M6.74417 142.09C6.96231 141.924 7.27166 141.962 7.44399 142.175C7.61632 142.387 7.5897 142.698 7.38389 142.877C7.24406 142.999 7.04862 143.035 6.87433 142.971C6.70003 142.906 6.57478 142.752 6.5476 142.569C6.52056 142.385 6.59594 142.202 6.74417 142.09Z" fill="#2D42A9"/>
  <path d="M21.1971 97.3391C20.8235 91.5382 25.1522 88.4928 30.6441 89.8053C31.9798 90.1246 35.2121 91.3798 36.4603 90.9534C36.613 90.5775 36.0633 87.421 36.2276 86.073C36.5193 83.0801 37.7235 80.2658 39.9946 78.2423C45.2532 73.5566 60.6272 76.1239 59.615 84.8425C59.5218 86.1299 59.6575 85.9682 59.8967 87.1986C63.9942 86.8695 63.9701 90.8898 61.1229 93.0609L61.0184 93.1133C60.5537 93.6786 58.8404 95.7134 58.6184 96.182C57.0664 99.4567 57.3738 101.479 53.0485 100.936C51.545 100.398 50.1035 99.7388 48.6076 99.179C47.4601 100.015 46.6554 100.572 45.6629 101.606C44.3899 102.896 42.1115 105.036 41.9604 106.86C41.8465 108.043 41.6764 109.242 41.9638 110.405L41.8493 110.349C37.7393 108.283 35.7489 102.602 34.3599 98.4538C26.2569 101.742 17.4034 109.269 12.316 116.349C9.98045 115.198 9.34115 113.901 7.81036 112.036C7.5181 110.447 7.24364 109.959 7.24672 108.274L6.71096 109.207C7.07299 110.461 6.93373 110.891 7.63229 112.048C6.31782 111.295 6.06143 109.18 6.21036 107.801C6.72861 103.002 13.4925 101.404 17.1709 103.356C18.071 103.834 18.7453 104.018 19.7819 103.949C21.9702 103.842 22.3775 101.716 22.3258 99.956C22.2464 97.2528 21.9492 93.6433 24.1409 91.6631L24.0504 91.375C22.5098 92.7863 21.696 94.2806 21.5742 96.4275C21.4727 96.719 21.369 97.0938 21.1971 97.3391ZM45.6774 87.8151C46.1497 88.0762 51.4593 89.3433 52.2785 89.5403C52.2709 91.3143 52.8776 92.7113 54.9843 92.8404C56.4683 92.9313 57.0861 90.2648 57.9946 89.8647C58.2548 89.9301 58.5217 89.9863 58.638 90.2963C59.4184 92.3769 59.2498 92.0981 61.0184 93.1133L61.1229 93.0609C63.9701 90.8898 63.9942 86.8695 59.8967 87.1986C59.2078 88.0568 58.9769 88.4111 58.5502 89.4306L57.528 89.439C56.0777 86.5593 53.9298 86.1129 52.3275 89.1763C50.6315 88.718 48.4047 88.183 46.7812 87.6185L45.6774 87.8151Z" fill="#E14948"/>
  <path d="M43.2233 93.0489C42.8184 92.6903 42.3788 92.3283 42.0548 91.9029C40.4858 89.8428 40.9346 86.7098 44.1152 87.1032C44.643 87.1685 45.1862 87.5719 45.6771 87.8151L46.7809 87.6185C48.4044 88.183 50.6312 88.7181 52.3272 89.1764C53.9294 86.113 56.0774 86.5593 57.5276 89.4391L58.5498 89.4306C58.9766 88.4111 59.2075 88.0568 59.8964 87.1986C63.9939 86.8695 63.9698 90.8898 61.1226 93.0609L61.0181 93.1133C60.5533 93.6786 58.8401 95.7134 58.6181 96.182C57.0661 99.4567 57.3735 101.479 53.0482 100.936C51.5447 100.398 50.1032 99.7389 48.6073 99.179C47.4598 100.015 46.655 100.572 45.6625 101.606C44.3895 102.896 42.1112 105.036 41.9601 106.86C41.8462 108.043 41.6761 109.242 41.9635 110.405L41.849 110.349C37.739 108.283 35.7486 102.602 34.3596 98.4538C36.3227 97.8521 41.6267 94.4826 43.2233 93.0489ZM45.6771 87.8151C46.1494 88.0762 51.459 89.3434 52.2782 89.5404C52.2706 91.3144 52.8773 92.7113 54.984 92.8404C56.468 92.9313 57.0857 90.2648 57.9943 89.8647C58.2545 89.9301 58.5214 89.9863 58.6377 90.2964C59.4181 92.3769 59.2495 92.0981 61.0181 93.1133L61.1226 93.0609C63.9698 90.8898 63.9939 86.8695 59.8964 87.1986C59.2075 88.0568 58.9766 88.4111 58.5498 89.4306L57.5276 89.4391C56.0774 86.5593 53.9294 86.113 52.3272 89.1764C50.6312 88.7181 48.4044 88.183 46.7809 87.6185L45.6771 87.8151Z" fill="#FDCAC2"/>
  <path d="M52.3272 89.1763C53.9295 86.1129 56.0774 86.5592 57.5276 89.439L58.5498 89.4306C58.9766 88.411 59.2075 88.0567 59.8964 87.1985C63.9939 86.8694 63.9698 90.8898 61.1226 93.0608L61.0181 93.1132C59.2495 92.098 59.4181 92.3768 58.6377 90.2963C58.5214 89.9862 58.2545 89.93 57.9943 89.8646C57.0858 90.2647 56.468 92.9312 54.984 92.8403C52.8773 92.7113 52.2706 91.3143 52.2782 89.5403C51.459 89.3433 46.1494 88.0762 45.6771 87.815L46.7809 87.6184C48.4044 88.1829 50.6312 88.718 52.3272 89.1763ZM60.6409 90.4643L60.5043 90.4537C59.9601 90.4078 59.8636 90.3941 59.3633 90.1908L59.248 90.2111C59.0446 90.9737 59.1194 90.7349 59.611 91.6334C60.665 92.8476 61.3546 92.2671 62.1881 91.2263C63.4681 89.6281 62.1402 87.2203 60.119 87.6713C59.6731 88.0239 59.8046 87.8342 59.6376 88.3983C59.8436 88.5409 60.0194 88.584 60.2546 88.6642C60.3952 88.862 60.5052 89.946 60.6409 90.4643Z" fill="#5F9EE7"/>
  <path d="M54.879 87.553C57.6632 87.6966 57.7287 91.1272 55.0251 92.3954C53.9727 92.2548 53.1666 91.8606 52.8255 90.7531C52.6383 90.1242 52.7095 89.4466 53.0235 88.8704C53.4644 88.0515 54.0416 87.7829 54.879 87.553Z" fill="#FDCAC2"/>
  <path d="M54.5014 89.3877C54.7857 89.2071 55.1626 89.2924 55.3414 89.578C55.5201 89.8634 55.4324 90.2397 55.1459 90.4168C54.8619 90.5922 54.4895 90.5055 54.3123 90.2226C54.1351 89.9396 54.2195 89.5666 54.5014 89.3877Z" fill="#2263CC"/>
  <path d="M59.6109 91.6335C59.1192 90.735 59.0444 90.9737 59.2478 90.2111L59.3631 90.1908C59.8635 90.3941 59.96 90.4078 60.5042 90.4538L60.6408 90.4643C60.7856 90.7578 60.8379 90.8838 61.0441 91.1491L61.0693 91.5277C60.7056 91.7577 60.2189 91.6623 59.7871 91.5683L59.6109 91.6335Z" fill="#E7DADC" fill-opacity="0.54902"/>
  <path d="M44.1988 94.3005C45.7604 97.0473 45.9105 97.2489 48.6075 99.179C47.46 100.015 46.6553 100.572 45.6628 101.606C43.5567 99.6369 43.7517 96.8709 44.1988 94.3005Z" fill="#FEBDB7"/>
  <path d="M42.965 89.3971C43.1579 88.7787 43.0309 88.8742 43.4496 88.5017C44.0696 88.391 44.5111 88.6119 44.6984 89.2512L44.6823 90.4346C44.8731 90.8098 44.879 90.8047 44.9542 91.2141L44.836 91.3268C44.1566 90.9191 43.7125 90.2515 42.9509 89.752L42.965 89.3971Z" fill="#FDAEA8"/>
  <path d="M43.1917 89.2064C43.6779 89.7325 44.1053 90.0151 44.6823 90.4344C44.8731 90.8096 44.879 90.8046 44.9542 91.214L44.836 91.3266C44.1566 90.9189 43.7125 90.2513 42.9509 89.7519L42.965 89.397L43.1917 89.2064Z" fill="#FDAEA8"/>
  <path d="M42.9647 89.3971C43.1576 88.7787 43.0306 88.8742 43.4493 88.5017C44.0693 88.391 44.5108 88.6119 44.6981 89.2512C44.3626 89.2426 44.2125 89.0988 43.9216 88.9148L43.7964 88.8346C43.3957 88.8564 43.5445 88.8136 43.1914 89.2066L42.9647 89.3971Z" fill="#F89A95"/>
  <path d="M57.2214 80.226C58.571 81.552 59.4782 82.8837 59.6144 84.8426C59.5212 86.13 59.657 85.9683 59.8962 87.1987C59.2073 88.0568 58.9764 88.4112 58.5496 89.4307L57.5274 89.4391C56.0772 86.5594 53.9292 86.113 52.327 89.1764C50.631 88.7181 48.4042 88.1831 46.7806 87.6186L48.0087 87.4952C51.2996 86.2447 53.1394 85.6143 55.5301 82.8913C56.1717 81.9708 56.6296 81.109 57.2214 80.226Z" fill="#FDCAC2"/>
  <path d="M54.0339 86.1789C55.0248 86.1204 55.362 86.0077 56.1865 86.549L56.1675 86.7562C55.7096 86.9967 55.3532 86.893 54.8225 86.8383L54.1005 86.9471C53.4557 87.0446 53.386 87.0881 52.7646 86.8544L52.7067 86.6498C53.1192 86.2709 53.4965 86.2624 54.0339 86.1789Z" fill="#E14948"/>
  <path d="M55.3487 82.4032C54.2069 84.4157 50.6793 86.2621 48.4911 86.8936C48.2937 86.9492 48.0937 86.9943 47.8915 87.0285C48.4638 86.6164 50.0743 85.9463 50.8214 85.5612C52.6997 84.5928 53.7721 83.7483 55.3487 82.4032Z" fill="#FDAEA8"/>
  <path d="M205.71 71.2571C206.524 70.6643 206.89 70.4001 207.827 70.0555L208.097 70.6479L207.629 71.0126C207.859 71.2128 207.962 71.1264 208.375 71.1119L208.069 71.4216L208.18 71.6826C210.869 72.678 212.564 73.675 213.91 76.4317C216.205 81.1273 212.581 86.9561 214.237 91.4258L214.538 92.3967C215.253 93.0922 215.394 93.2634 215.936 94.0995C215.903 97.3358 214.631 100.436 212.38 102.763C211.587 103.596 210.192 104.627 210.139 105.779C210.097 106.422 210.05 109.015 209.937 109.419L209.552 108.773C208.368 106.31 208.277 104.519 206.708 102.322L205.8 101.426C205.319 100.776 204.39 99.9254 203.788 99.3364C203.694 99.3996 203.599 99.4613 203.503 99.5216C198.764 102.508 197.812 102.469 195.093 97.58L194.8 97.049C194.68 96.8824 194.13 95.8549 194 95.6232C193.239 95.7853 192.584 96.0418 191.997 95.4622C191.803 94.9162 191.921 94.612 192.027 94.0365C189.567 93.7549 187.583 89.4975 190.925 88.7617C190.558 87.1925 190.119 85.6634 189.767 84.078C183.216 81.5401 188.09 75.4374 192.191 73.4155C196.848 71.1194 200.49 69.732 205.71 71.2571ZM191.753 93.6869C193.166 92.4202 191.876 89.5558 190.434 89.1224C188.585 90.5835 189.994 92.9585 191.753 93.6869Z" fill="#E14948"/>
  <path d="M205.769 85.6665C206.066 84.7871 206.462 84.0326 207.37 83.6218C207.865 83.3929 208.434 83.387 208.932 83.6056C211.358 84.6681 210.935 88.4458 209.28 90.0909C210.825 91.3762 212.407 92.5454 214.538 92.3966C215.253 93.0921 215.394 93.2633 215.936 94.0995C215.903 97.3357 214.63 100.436 212.38 102.762C211.587 103.596 210.192 104.627 210.139 105.778C210.097 106.422 210.05 109.015 209.937 109.419L209.552 108.773C208.368 106.31 208.277 104.519 206.708 102.322L205.8 101.426C205.319 100.775 204.39 99.9253 203.788 99.3363C203.694 99.3995 203.599 99.4613 203.503 99.5215C198.764 102.508 197.812 102.469 195.093 97.58L194.8 97.0489C194.679 96.8824 194.13 95.8548 194 95.6231C193.239 95.7852 192.584 96.0417 191.996 95.4621C191.803 94.9161 191.921 94.612 192.027 94.0364C189.567 93.7548 187.583 89.4974 190.925 88.7616C191.398 89.3049 192.083 90.3608 192.798 90.3131C193.451 89.779 193.42 88.9119 194.24 88.0883C194.551 87.9329 195.082 87.7348 195.419 87.5954C196.504 87.9741 196.801 88.3302 197.547 89.1508C199.377 88.3155 201.816 87.1431 203.551 86.179C204.208 85.9598 205.234 85.2001 205.769 85.6665ZM191.753 93.6869C193.166 92.4202 191.876 89.5557 190.434 89.1224C188.585 90.5834 189.994 92.9584 191.753 93.6869Z" fill="#FEBDB7"/>
  <path d="M203.551 86.1791C204.208 85.9598 205.234 85.2002 205.769 85.6666L205.322 86.1278L203.898 86.4391C201.936 87.4596 199.657 88.7101 197.679 89.6278C198.339 94.4998 195.611 93.5911 192.997 91.0021C192.512 92.119 192.832 92.7992 192.103 93.9199L192.027 94.0365C189.567 93.7548 187.583 89.4975 190.925 88.7616C191.398 89.305 192.083 90.3608 192.798 90.3132C193.451 89.7791 193.42 88.912 194.24 88.0883C194.551 87.9329 195.082 87.7348 195.419 87.5954C196.504 87.9741 196.801 88.3302 197.547 89.1508C199.377 88.3155 201.816 87.1431 203.551 86.1791ZM191.753 93.6869C193.166 92.4202 191.876 89.5557 190.434 89.1224C188.585 90.5834 189.994 92.9585 191.753 93.6869Z" fill="#1E2972"/>
  <path d="M194.951 88.0498L195.006 88.0522C197.207 88.133 198.503 91.3641 196.169 92.6982C193.88 92.3685 192.487 89.5991 194.951 88.0498Z" fill="#FDCAC2"/>
  <path d="M203.788 99.3363C205.294 97.9896 206.719 97.035 207.837 95.3096C208.486 94.3105 208.597 92.5185 208.885 92.2172C209.475 93.1727 209.467 97.5713 209.112 98.7447C208.604 100.43 208.067 101.254 206.708 102.322L205.8 101.426C205.32 100.775 204.391 99.9253 203.788 99.3363Z" fill="#FDAEA8"/>
  <path d="M194.8 97.049C194.895 96.9449 198.028 95.1227 198.635 94.6681C198.157 96.867 197.766 98.9099 195.093 97.58L194.8 97.049Z" fill="#F6F9FA"/>
  <path d="M205.323 86.1278C205.537 86.5288 205.589 86.5712 205.587 87.0084C205.007 87.7993 204.259 87.0397 203.899 86.4391L205.323 86.1278Z" fill="#D33E3F"/>
  <path d="M207.973 85.1006C208.797 85.188 208.535 85.1388 209.252 85.6575C208.682 85.6005 208.264 85.4862 207.86 85.909C208.07 86.9009 208.599 86.5326 208.756 87.6244C208.448 88.1084 208.294 88.3566 207.781 88.5532C207.509 88.5117 207.305 88.5364 207.173 88.2835C206.456 86.9054 206.963 85.8618 207.973 85.1006Z" fill="#F89A95"/>
  <path d="M189.767 84.0779C190.906 81.7315 196.481 78.8983 198.804 80.2554C201.358 81.7471 200.051 84.2502 203.551 86.179C201.816 87.1431 199.377 88.3155 197.547 89.1508C196.801 88.3302 196.504 87.974 195.419 87.5953C195.082 87.7347 194.551 87.9329 194.239 88.0882C193.42 88.9119 193.451 89.779 192.798 90.3131C192.083 90.3607 191.398 89.3049 190.925 88.7616C190.558 87.1924 190.119 85.6633 189.767 84.0779Z" fill="#FEBDB7"/>
  <path d="M194.24 88.0883C193.714 87.93 193.791 88.0337 193.457 87.6861L193.513 87.4487C194.243 86.7223 196.1 86.2881 197.047 86.7503C197.225 87.1217 197.208 86.9309 197.063 87.3434C196.517 87.3735 195.906 87.3453 195.42 87.5954C195.082 87.7348 194.551 87.9329 194.24 88.0883Z" fill="#E14948"/>
  <path d="M81.8514 67.8962C82.2813 67.443 83.2735 66.4414 83.813 66.1529C89.0653 63.3505 94.905 68.2104 99.2617 70.8001C100.431 71.4951 101.374 72.4546 102.089 73.5959C102.75 77.0367 100.581 78.0572 98.0813 79.8539C97.802 80.7341 97.6039 81.5718 97.5276 82.4969C97.4324 82.8453 97.4534 82.8928 97.1814 83.1355C96.5517 84.4735 95.5715 88.0666 94.9046 89.8193C93.1397 94.439 92.6291 98.8697 86.2472 97.0339C85.8514 96.92 85.2023 96.6433 84.8397 96.5696L83.5275 95.7232C83.2761 96.137 82.8764 96.7889 82.715 97.2207C82.2911 98.3685 82.2448 100.455 81.1489 101.175C78.6099 102.841 75.0262 99.885 73.7341 97.7973C72.2329 95.3716 71.5774 92.6978 72.1853 89.8934C72.7195 89.8202 73.3318 89.6675 73.8649 89.5505C75.1107 88.4333 76.1744 87.0315 77.0831 85.6308C77.1355 84.3416 76.9547 83.2399 76.7112 81.9875C76.1061 78.5868 75.3856 73.5234 77.3284 70.5462C78.4923 68.7627 79.9052 68.3185 81.8514 67.8962Z" fill="#1E2972"/>
  <path d="M94.904 89.8193C94.5643 89.9712 94.5324 89.9657 94.18 90.0283C92.7646 89.4699 91.2751 88.7352 89.7975 88.3828C87.9026 87.931 85.8382 88.6885 84.1663 87.3659C83.4376 86.7895 83.1208 85.8451 82.9991 84.9539C82.2799 79.6941 84.7632 81.0073 85.7727 78.8683C86.2088 77.9447 85.9784 76.6675 86.6582 75.8507C87.908 74.3495 92.4109 77.7197 93.949 78.1984C95.4159 78.6549 96.9433 78.5708 98.4559 78.509L98.3412 79.1185L98.0807 79.8539C97.8013 80.7341 97.6032 81.5717 97.527 82.4969C97.4317 82.8453 97.4528 82.8928 97.1808 83.1355C96.551 84.4735 95.5709 88.0666 94.904 89.8193Z" fill="#FAAD86"/>
  <path d="M97.1815 83.1355C96.2526 82.7192 95.0752 82.8369 94.7161 81.8928C95.6876 81.5052 96.7179 81.9847 97.5277 82.4969C97.4324 82.8453 97.4534 82.8928 97.1815 83.1355Z" fill="#1E2972"/>
  <path d="M88.5999 80.1428C89.4129 80.1217 91.3483 80.2154 91.3036 81.3382C90.886 81.5601 91.0359 81.4968 90.4941 81.4485C89.3891 81.1474 88.4451 81.3729 87.403 80.9205L87.3535 80.6846C87.7969 80.3023 88.0348 80.289 88.5999 80.1428Z" fill="#121A54"/>
  <path d="M93.367 84.1259C93.4789 84.9256 93.2925 88.505 93.1119 89.3103C92.6361 88.3643 92.8856 85.1015 93.367 84.1259Z" fill="#E27D5C"/>
  <path d="M88.6861 82.9888C88.8892 82.8491 89.1522 82.8308 89.3729 82.9408C89.5935 83.0509 89.737 83.272 89.7478 83.5183C89.7584 83.7646 89.6346 83.9973 89.4244 84.126C89.1109 84.318 88.7015 84.2254 88.5014 83.917C88.3012 83.6086 88.3832 83.197 88.6861 82.9888Z" fill="#121A54"/>
  <path d="M94.7593 84.2587C95.0406 84.0602 95.4287 84.1211 95.6355 84.3963C95.8423 84.6716 95.793 85.0612 95.524 85.2761C95.3428 85.421 95.0971 85.4557 94.8828 85.3669C94.6685 85.2782 94.5194 85.0798 94.4938 84.8494C94.4681 84.6188 94.5699 84.3925 94.7593 84.2587Z" fill="#1E2972"/>
  <path d="M76.9821 81.6464C76.849 80.0101 77.4129 78.2644 79.3666 78.111C82.5588 77.8603 81.6369 81.5667 80.7928 83.3034C78.9171 87.8809 78.0044 89.7987 81.5157 93.7547C82.1412 94.4555 82.8132 95.1132 83.5275 95.7232C83.2761 96.1369 82.8764 96.7888 82.715 97.2206C82.2911 98.3685 82.2448 100.455 81.1489 101.175C78.6099 102.841 75.0262 99.885 73.7341 97.7973C72.2329 95.3715 71.5774 92.6977 72.1853 89.8934C72.7195 89.8201 73.3318 89.6674 73.8649 89.5504C75.1107 88.4332 76.1744 87.0315 77.0831 85.6307C77.1355 84.3416 76.9547 83.2398 76.7112 81.9874L76.9821 81.6464Z" fill="#FAAD86"/>
  <path d="M76.9815 81.6464C77.2993 82.7194 77.6224 83.2141 78.293 84.1154C77.8768 84.6103 77.4731 85.1155 77.0825 85.6307C77.1349 84.3416 76.9542 83.2398 76.7107 81.9874L76.9815 81.6464Z" fill="#1E2972"/>
  <path d="M78.7419 79.9656C79.1471 79.6369 78.9629 79.732 79.4795 79.6431C80.5468 79.9535 80.8753 81.4486 80.6869 82.4064L80.4615 82.648C79.9037 82.5379 79.816 82.338 79.3979 81.8612C79.6968 81.9231 79.6587 81.9387 79.9546 81.9231L80.1632 81.4738C80.1356 80.4017 79.6965 80.062 78.7419 79.9656Z" fill="#E27D5C"/>
  <path d="M102.089 73.5958C102.75 77.0367 100.581 78.0572 98.0812 79.8539L98.3416 79.1185L98.4564 78.509C99.3905 78.2264 99.401 77.7146 100.291 77.382C100.924 76.0503 100.915 75.5454 101.284 74.1428C101.376 73.7928 101.713 73.7529 102.089 73.5958Z" fill="#121A54"/>
  <path d="M88.4985 89.6182C89.8584 90.1122 90.7852 90.3937 92.1868 90.7537L92.2309 90.8773L91.8364 91.3768C90.196 92.659 89.0008 91.1341 88.4985 89.6182Z" fill="#F6F9FA"/>
  <path d="M140.047 67.5026C143.153 65.5659 144.571 65.8722 146.89 68.6614C150.388 68.4842 151.801 69.782 152.102 73.2348C153.737 74.9598 153.814 75.8991 152.787 77.9987C153.155 79.2525 153.319 79.6807 153.104 80.9451C154.279 83.0003 154.418 85.2921 152.106 86.5983C151.583 86.894 150.646 87.1603 150.545 87.7483C150.223 89.4023 150.042 90.7763 149.161 92.2765C146.928 95.568 143.997 97.9099 139.823 97.0037C139.314 96.7207 138.474 96.3921 137.88 96.0669C134.942 94.462 133.822 92.3715 132.9 89.2403C130.652 89.0482 129.282 88.9213 128.615 86.4494C125.798 85.5513 124.863 84.238 126.129 81.4084C124.249 77.9897 125.289 76.514 128.378 74.6719C128.249 71.3656 129.244 70.7257 132.259 70.0064C134.243 66.362 136.194 65.5137 140.047 67.5026Z" fill="#1E2972"/>
  <path d="M132.66 80.2363C137.524 79.8808 138.869 74.833 143.512 76.4136C145.83 77.2023 145.273 80.0457 147.306 81.7546L147.465 81.886C147.588 82.5833 147.823 83.131 148.29 83.6634C149.657 83.8567 149.399 79.3028 153.104 80.9451C154.279 83.0003 154.418 85.2921 152.106 86.5983C151.584 86.8939 150.646 87.1603 150.545 87.7483C150.223 89.4022 150.042 90.7762 149.161 92.2765C146.928 95.568 143.997 97.9098 139.823 97.0036C139.315 96.7206 138.474 96.3921 137.88 96.0669C134.942 94.462 133.822 92.3715 132.901 89.2403C132.456 86.9903 131.582 85.2639 131.032 83.102C130.964 82.838 132.078 82.068 132.356 81.8514C132.497 81.3682 132.577 80.7425 132.66 80.2363Z" fill="#BB6866"/>
  <path d="M142.668 90.7478L142.889 90.9225C143.133 91.9405 142.34 92.9588 141.565 93.5394C140.947 94.0027 140.441 93.8629 139.737 93.7605C139.539 93.6179 139.423 93.4787 139.259 93.303C139.364 92.5409 140.855 92.1793 141.472 91.7383C141.911 91.4254 142.272 91.1065 142.668 90.7478Z" fill="#A75251"/>
  <path d="M151.466 82.3446L152.15 82.5314C152.091 83.0051 151.525 82.5993 151.518 82.9786C151.494 84.1309 151.84 84.3236 151.137 85.2536C150.585 85.3162 150.592 85.3489 150.229 84.9627C149.902 83.9293 150.405 82.7139 151.466 82.3446Z" fill="#A75251"/>
  <path d="M137.927 86.8037C138.897 87.6029 138.065 89.7713 138.841 90.5689C139.398 90.6743 139.914 90.4932 140.482 90.3613L140.631 90.5001C137.256 92.7432 137.821 88.7926 137.927 86.8037Z" fill="#A75251"/>
  <path d="M134.128 84.4782C134.646 84.4196 134.715 84.4202 135.219 84.5484L135.281 84.7032C134.556 85.2673 133.992 85.2032 133.201 85.93C132.778 86.2329 132.902 86.2495 132.52 86.1942L132.485 85.9C132.98 84.9949 133.225 84.9278 134.128 84.4782Z" fill="#1E2972"/>
  <path d="M141.967 82.2534C142.494 82.2499 143.595 82.2392 143.792 82.8186C143.326 83.0363 143.138 82.9287 142.572 82.8796C141.825 83.072 141.45 83.2773 140.807 82.9081L140.837 82.6721C141.212 82.3527 141.482 82.3489 141.967 82.2534Z" fill="#1E2972"/>
  <path d="M134.653 87.2106C134.987 87.0574 135.381 87.1932 135.547 87.5187C135.715 87.8441 135.596 88.2436 135.278 88.4246C135.06 88.5489 134.791 88.5434 134.578 88.4104C134.365 88.2775 134.243 88.0385 134.258 87.7879C134.274 87.5374 134.427 87.3156 134.653 87.2106Z" fill="#121A54"/>
  <path d="M142.283 84.9661C142.496 84.8567 142.753 84.8707 142.953 85.0031C143.153 85.1354 143.265 85.3653 143.249 85.6046C143.232 85.8439 143.088 86.0555 142.87 86.1579C142.543 86.3128 142.15 86.1761 141.991 85.8508C141.831 85.5254 141.961 85.1317 142.283 84.9661Z" fill="#121A54"/>
  <path d="M107.242 116.968C105.866 117.657 101.413 117.699 100.913 115.642C100.219 112.788 100.199 109.587 101.134 106.785C101.637 105.275 106.94 106.676 107.257 105.56C107.83 103.539 104.85 99.0563 108.172 97.7628C108.564 97.6142 108.776 97.6805 109.112 97.8535C109.504 98.4678 109.607 100.793 109.849 101.741C110.279 103.429 111.216 104.731 111.797 106.35C112.228 107.552 112.155 109.213 112.408 110.308C112.792 111.966 116.85 116.613 118.259 117.259C118.815 118.119 119.187 118.616 119.345 119.635C119.907 123.253 116.256 126.405 112.759 125.511C112.624 125.476 112.49 125.438 112.357 125.397C112.022 125.023 111.289 124.101 111.012 123.83C111.117 123.055 108.317 117.209 107.547 116.834L107.242 116.968Z" fill="#BB6866"/>
  <path d="M107.674 109.789C105.784 109.67 104.8 109.806 103.126 109.019C104.036 109.212 107.955 109.876 108.597 108.838C109.241 107.797 108.157 107.158 107.393 106.627C108.308 106.465 109.236 107.466 109.251 108.47C109.113 108.961 108.716 109.188 108.299 109.525C108.065 110.32 108.783 110.366 108.802 111.362C108.717 111.608 108.68 111.749 108.371 111.968C107.138 112.841 109.489 113.529 107.545 114.961C107.476 115.012 107.787 116.006 107.781 116.03C107.711 116.278 107.619 116.587 107.547 116.834L107.242 116.968C107.199 116.629 107.533 115.177 106.616 115.165C105.386 115.149 104.049 115.376 102.852 114.928C103.886 114.754 105.774 114.987 107.217 114.843L107.306 114.747C107.774 114.238 107.974 114.035 107.944 113.354C107.039 111.954 104.546 112.935 102.647 112.039L102.69 111.919C104.539 111.999 110.058 113.297 107.674 109.789Z" fill="#A75251"/>
  <path d="M207.827 70.0554C208.87 69.9002 210.492 69.9368 211.383 70.4637C211.03 70.6657 209.321 70.4008 208.098 70.6478L207.827 70.0554Z" fill="#D33E3F"/>
  <path d="M210.192 71.2755C211.387 71.6467 211.721 71.7967 212.693 72.5753L212.689 72.6774C211.695 72.4443 211.034 71.9539 210.07 71.6154L210.192 71.2755Z" fill="#E14948" fill-opacity="0.921569"/>
  <path d="M208.375 71.1119C208.985 71.1299 209.607 71.1194 210.192 71.2756L210.071 71.6155C209.22 71.5499 209.025 71.5594 208.18 71.6826L208.07 71.4216L208.375 71.1119Z" fill="#D33E3F"/>
  <path d="M21.197 97.3392C21.3689 97.0938 21.4726 96.719 21.574 96.4275C21.5925 97.6026 21.6617 98.8747 21.472 100.026C21.3749 99.3271 21.1466 97.9883 21.197 97.3392Z" fill="#BB6866" fill-opacity="0.941176"/>
</svg>