<svg width="246" height="188" viewBox="0 0 246 188" fill="none" xmlns="http://www.w3.org/2000/svg">
  <style>
    @keyframes swing {
      0% {
        transform: rotate(-6deg)
      }

      to {
        transform: rotate(6deg)
      }
    }

    @keyframes verticalMove {

      0%,
      to {
        translate: 0 0
      }

      50% {
        translate: 0 20px
      }
    }

    @keyframes filesHidden {
      0% {
        transform: translateY(-10px);
        opacity: 0
      }

      10%,
      50%,
      85% {
        transform: translateY(0);
        opacity: 1
      }

      to {
        transform: translateY(20px);
        opacity: 0
      }
    }

    @keyframes rodScale {
      0% {
        transform: rotate(-3deg) scaleY(1)
      }

      50% {
        transform: rotate(0) scaleY(2)
      }

      to {
        transform: rotate(3deg) scaleY(1)
      }
    }

    @keyframes moveX {

      0%,
      to {
        transform: translateX(0)
      }

      50% {
        transform: translateX(76px)
      }
    }
  </style>
  <path d="M0 179.814h246v8H0z" fill="url(#paint0_linear_408_1173)" />
  <path fill-rule="evenodd" clip-rule="evenodd" d="m227.289.15.879.71-.844-.71z" fill="#515476" />
  <path fill-rule="evenodd" clip-rule="evenodd" d="m227.289.15.879.71-.844-.71zm-13.161 127.64V18.47h-10.489v109.32zm-9.171-96.958 8.014-10.038v10.038zm-.161-1.622 7.692-9.634h-7.692z" fill="#515476" />
  <path fill-rule="evenodd" clip-rule="evenodd" d="m199.727 0 .042.038 8.48 7.476 8.908-7.479.042-.035h10.18l.041.035.845.71 7.863 6.932 1.216 1.06h-114.43a.25.25 0 0 1-.16-.442l9.837-8.26.042-.035zm28.441.86-.879-.71h.035zm-86.424.15v6.447l-7.313-6.447zm8.337 6.717h-7.312v-6.45zm-9.568 0-7.314-6.449v6.449zm-8.338 0h-7.165l7.165-6.017zm19.138-6.717v6.447l-7.314-6.447zm1.024 6.717h7.313l-7.313-6.45zm8.545-.27V1.01h-7.314zm1.024.27h7.314l-7.314-6.449zm8.545-6.717v6.447l-7.313-6.447zm8.337 6.717h-7.312V1.278zm1.232-6.717v6.447l-7.314-6.447zm8.338 6.717h-7.314v-6.45zm1.231-.27V1.01h-7.314zm1.024.27h7.314l-7.314-6.449zm8.544-6.717v6.447l-7.312-6.447zm1.025 6.717h6.772l-6.772-5.972zm9.393 0h7.166V1.709zm8.191 0h7.312l-7.312-6.449zm8.544-6.717v6.446l-7.314-6.446zm1.024 6.717h7.313l-7.313-6.45zM214.128 72.34v108.319h-10.489V72.339zm-1.463 88.449-7.869 8.214v-8.214zm.306 9.531h-7.869l7.869-8.213z" fill="#515476" />
  <path d="M223 180.314h-28v-7.981a1.02 1.02 0 0 1 1.019-1.019h25.962a1.02 1.02 0 0 1 1.019 1.019z" fill="url(#paint1_linear_408_1173)" />
  <path d="M216.77 8.621h-15.962c-.563 0-1.019.456-1.019 1.019v8.962c0 .563.456 1.02 1.019 1.02h15.962a1.02 1.02 0 0 0 1.019-1.02V9.64c0-.563-.456-1.019-1.019-1.019" fill="url(#paint2_linear_408_1173)" />
  <path fill="#1b6477" d="M106.328 159.148h41.818v16.989h-41.818z" />
  <path fill="#0e7d93" d="M77.576 176.137h99.318v3.92H77.576z" />
  <path transform="translate(21.215 27.305)" fill="url(#paint3_linear_408_1173)" d="M0 0h210.592v136.421H0z" />
  <path fill="#0b363f" d="M27.186 31.28h199.64v111.256H27.186z" />
  <rect x="79" y="119.814" width="20" height="6" rx=".5" fill="#0392ab" style="animation:moveX 1.8s ease-in-out infinite;transform-box:fill-box;transform-origin:left center" />
  <mask id="path-12-inside-1_408_1173" fill="#fff">
    <rect x="77" y="117.814" width="100" height="10" rx=".5" />
  </mask>
  <rect x="77" y="117.814" width="100" height="10" rx=".5" stroke="#0392ab" stroke-width="2" mask="url(#path-12-inside-1_408_1173)" />
  <path d="M56.755 170.803c.182 1.208 2.948 3.361 4.112 4.144.23.153.493.32.78.494l-6.18 1.995-6.364-1.995 1.479-4.638z" fill="#e4a276" />
  <path d="M44.579 130.896c1.276-5.321.039-14.3-.28-18.101l11.767.048c-.107 3.168-.255 10.579 0 14.886s-6.488 30.511-11.487 43.074h-13.17c-.425-2.006-.658-4.965.112-10.702 1.099-8.196 11.462-22.554 13.058-29.205" fill="#19624d" />
  <path d="M44.699 121.576c-.513-2.534.34-7.358.553-8.73h11.525c1.707 7.073 5.186 22.17 5.443 25.97.256 3.801 2.969 22.91 1.261 31.989H49.414c-.747-1.056-.705-3.801-.96-6.334-.32-3.168.64-6.018.96-7.918s-.32-5.268-.32-7.918 1.6-8.868 1.28-12.669-5.035-11.223-5.675-14.39" fill="url(#paint4_linear_408_1173)" />
  <path fill-rule="evenodd" clip-rule="evenodd" d="M45.624 174.947c-1.233-.783-4.162-2.936-4.355-4.144h-6.782l-1.45 4.638 6.468 2.394 6.944-2.394a24 24 0 0 1-.825-.494" fill="#c47f5e" />
  <path fill-rule="evenodd" clip-rule="evenodd" d="M46.447 175.443s-4.014.798-6.705.798c-2.692 0-6.706-.798-6.706-.798l-1.634 5.227H53.6c-.309-.435-1.172-1.5-2.158-2.283-.743-.589-2.147-1.363-3.48-2.097-.53-.292-1.052-.581-1.515-.847" fill="url(#paint5_linear_408_1173)" />
  <path fill-rule="evenodd" clip-rule="evenodd" d="M61.642 175.443s-3.823.798-6.272.798-6.271-.798-6.271-.798l-1.666 5.227h20.964c-.292-.435-1.107-1.5-2.039-2.283-.703-.59-2.03-1.364-3.29-2.1-.5-.292-.99-.578-1.426-.844" fill="url(#paint6_linear_408_1173)" />
  <path d="M70.026 97.351c-2.263.957-7.312 3.554-9.218 5.528l1.841 3.596c-.166-1.512 1.945 1.472 3.538-.413.645-.762 1.407-1.664 2.064-3.072 1.275-2.733 3.457-3.282 4.739-3.605.299-.075.549-.138.727-.213 1.035.953 1.336.294 2.659.895 1.793-1.55 4.503-4.65.997-4.65-.405-.07-3.998.5-6.582 1.608q-.382.165-.765.326" fill="#c47f5e" />
  <path d="m52.068 91.482.192-.19c1.142.395 2.366 1.014 3.411 1.954 2.27 2.042 2.838 7.563 2.838 10.069v9.5l-.781 2.343c-.956.203-1.855.274-2.63.13-6.842-1.273-10.083-6.127-6.848-15.83 2.089-6.264 2.668-6.837 3.818-7.976" fill="url(#paint7_linear_408_1173)" />
  <path fill-rule="evenodd" clip-rule="evenodd" d="M63.738 112.945c-1.834.814-4.04 1.794-6.01 2.213l.781-2.343v-9.5c0-2.506-.569-8.027-2.838-10.07-1.045-.94-2.27-1.558-3.411-1.953.18-.181.377-.382.595-.623.92-.194 5.563 2.295 6.284 5.13 1.25 4.915 1.638 4.748 1.638 4.748 2.143.399 6.581-2.432 9.71-4.429 1.115-.71 2.063-1.315 2.683-1.63l4.604 10.616c-.91.926-6.952 5.559-8.596 6.075-.6.188-.73.363-.812.475-.105.144-.137.188-.975.032-.575-.107-1.954.505-3.653 1.259" fill="#cfa647" />
  <path fill-rule="evenodd" clip-rule="evenodd" d="M61.305 104.236a.6.6 0 0 0 .313.096h12.867a.65.65 0 0 0 .501-.237l5.33-6.442 1.034-1.249a.7.7 0 0 0 .118-.213.65.65 0 0 0-.32-.082H68.09a.65.65 0 0 0-.508.243l-6.145 7.61a.65.65 0 0 0-.132.274" fill="#4c4c4c" />
  <path d="M63.29 103.691c-.183 0-.285-.206-.168-.343l5.722-6.715a.22.22 0 0 1 .169-.076h11.232c.184 0 .285.206.168.343l-5.745 6.715a.22.22 0 0 1-.168.076z" fill="#fbfaf5" />
  <path d="M69.512 103.366c.823-.004 1.49-.282 1.488-.621-.001-.339-.67-.611-1.493-.607s-1.49.281-1.489.62c.002.339.67.611 1.494.608" fill="#f0f7ff" />
  <path fill-rule="evenodd" clip-rule="evenodd" d="M61.291 104.351a1 1 0 0 1 .014-.115.6.6 0 0 0 .134.063z" fill="#1e1f28" />
  <path d="M81.469 96.191c.194.11.318.314.333.532a.64.64 0 0 1-.152.461l-6.363 7.607a.65.65 0 0 1-.501.237h-12.84a.7.7 0 0 1-.159-.019.67.67 0 0 1-.496-.658l.148-.052q.084.029.18.033h12.866a.65.65 0 0 0 .502-.236l5.33-6.443 1.033-1.249a.7.7 0 0 0 .119-.213" fill="#1e1f28" />
  <path d="M68.328 111.533c-1.343 1.696-5.922 4.429-8.044 5.584l-5.22-5.383c.944-.093 3.64-.415 6.87-.959 3.228-.545 5.154-2.095 5.714-2.801-.88-1.711-.881-3.849-1.36-5.694.226-.001.813-.004 1.154.417.427.525.669 2.867 1.596 2.334h2.898c-.048 2.244-1.93 4.382-3.609 6.502" fill="#e4a276" />
  <path d="M43.32 105.167c2.785-6.812 6.908-11.77 8.613-13.578.946-.196 3.604 1.728 4.456 4.3 1.874 5.661-4.927 13.022-1.322 13.523 4.481-.491 7.037-2.064 8.866-4.389l4.162 9.428c-1.087 2.863-3.474 3.896-5.152 4.4-1.393.418-5.098-.731-6.675-.95s-4.755 3.439-8.811 2.876c-7.214-1.001-7.614-7.104-4.137-15.61" fill="url(#paint8_linear_408_1173)" />
  <path d="m52.18 91.376 1.804-3.244c1.708-.825 4.87-1.87 3.858.55-1.014 2.419-1.396 4.747-1.461 5.608z" fill="#c47f5e" />
  <path d="M56.917 77.34q1.72.462 3.091 2.457c.238.347.177.587.656 1.16q.688.825 1.805 1.955l-1.07 1.027q-.157 3.141-2.152 4.463-1.995 1.32-3.92.6-4.074-1.624-3.378-5.724.697-4.1 4.968-5.938" fill="#e4a276" />
  <path fill-rule="evenodd" clip-rule="evenodd" d="M48.636 78.048c1.275-1.064 3.223-1.841 5.045-1.928s3.125-.091 4.32.64q1.197.73 2.046 3.115-1.345-1.807-1.86-1.7c.347 1.086.03 1.629-.187 2.474-.121.475-1.158 1.398-2.047 2.454-.585 1.922-.748 3.397-.399 4.379q.416 1.17 1.782 1.989l.2.115-.178.324c-1.1-.607-1.821-1.375-2.152-2.304-.324-.91-.254-2.15.142-3.715-.409.596-.698 1.21-.7 1.789q-.005 1.909 1.648 4.217a14.6 14.6 0 0 1-4.886 1.743q-2.542.414-5.386-.072a4.1 4.1 0 0 1-.1-1.639c.087-.565.496-1.336.809-2.192l-.023.037-.427.69c-.445.724-.668 1.15-.753 1.487-.161.635-.097 1.141.187 1.535l.076.096-.281.24c-.432-.505-.543-1.165-.341-1.962.083-.327.263-.696.599-1.261l.62-1.01.212-.354c.205-.347.358-.632.467-.875.064-1.217-.56-2.838-.317-4.462.268-1.791.608-2.787 1.884-3.85" fill="#99531b" />
  <path d="M123.872 8.129v20.299h-1.022l.004-20.3z" fill="#4a4c6d" style="animation:rodScale 3s ease-in-out infinite alternate;transform-origin:top center;transform-box:fill-box" />
  <g style="transform-box:fill-box;transform-origin:top center;animation:swing 3s ease-in-out infinite alternate,verticalMove 3s ease-in-out infinite">
    <path d="M128.273 33.315 141 76.629l-.757.185L127.516 33.5zm-8.87 0-12.727 43.314.757.185L120.16 33.5z" fill="#9d8022" stroke="#9d8022" stroke-width=".5" />
    <path d="M123.838 37.315a5 5 0 1 0 0-10.001 5 5 0 0 0 0 10" fill="url(#paint9_linear_408_1173)" />
    <rect x="105" y="55.25" width="36.678" height="30.565" rx="2.533" fill="#9d8022" />
    <g style="animation:filesHidden 3s ease-in-out infinite">
      <path fill="#d2d2d2" d="M110.631 48.815h23.818v30.688h-23.818z" />
      <path fill="#fbfaf5" d="M114.293 52.022h23.818v27.482h-23.818z" />
      <rect x="123.455" y="54.31" width="12.825" height=".916" rx=".458" fill="#d2d2d2" />
      <rect x="127.119" y="56.6" width="9.161" height=".916" rx=".458" fill="#d2d2d2" />
    </g>
    <path d="M106.609 61.805c0-1.4 1.135-2.533 2.534-2.533h8.907c.283 0 .558.094.781.269l5.17 4.046c.223.174.498.27.781.27h16.629v19.398a2.533 2.533 0 0 1-2.534 2.533h-29.734a2.534 2.534 0 0 1-2.534-2.533z" fill="#e1bb3e" />
    <path d="m130.443 73.818-2.341-3.65a.671.671 0 0 0-1.212.576l-.001.003.01.016q.03.06.072.113l.264.415 1.41 2.192-.005.002a.63.63 0 0 1 .034.69c-.4.67-1.277 2.1-1.475 2.333a.75.75 0 0 1-.556.194l-1.1-.079a.324.324 0 0 1-.234-.502l.454-.7a.6.6 0 0 0 .063-.097v-.001l.001-.001a.58.58 0 0 0-.385-.832.584.584 0 0 0-.66.315L121.8 79.37c-.231.354.002.836.424.856h.029l4.327-.004c.367 0 .708-.191.9-.505l2.975-4.864a.97.97 0 0 0-.012-1.034m-12.421 1.491 2.324 3.66a.672.672 0 0 0 1.215-.57l.001-.004-.01-.015a.6.6 0 0 0-.072-.113l-.262-.417-1.399-2.198.005-.003a.63.63 0 0 1-.032-.69c.403-.668 1.287-2.093 1.486-2.325a.74.74 0 0 1 .557-.192l1.099.084a.324.324 0 0 1 .232.502l-.458.7a.6.6 0 0 0-.062.096h-.001v.002a.583.583 0 1 0 1.042.52l3.002-4.55c.233-.352.002-.835-.42-.857h-.029l-4.327-.016a1.06 1.06 0 0 0-.902.5l-2.997 4.852a.97.97 0 0 0 .008 1.034" fill="#fff" />
  </g>
  <defs>
    <linearGradient id="paint0_linear_408_1173" x1="123" y1="172.542" x2="123" y2="189.996" gradientUnits="userSpaceOnUse">
      <stop offset=".245" stop-color="#038791" />
      <stop offset="1" stop-color="#1e1f28" />
    </linearGradient>
    <linearGradient id="paint1_linear_408_1173" x1="209" y1="179.087" x2="209" y2="168.451" gradientUnits="userSpaceOnUse">
      <stop stop-color="#515476" />
      <stop offset=".755" stop-color="#434666" />
    </linearGradient>
    <linearGradient id="paint2_linear_408_1173" x1="208.789" y1="10.121" x2="208.789" y2="23.121" gradientUnits="userSpaceOnUse">
      <stop stop-color="#515476" />
      <stop offset=".755" stop-color="#434666" />
    </linearGradient>
    <linearGradient id="paint3_linear_408_1173" x1="182" y1="1.588" x2="50" y2="171.588" gradientUnits="userSpaceOnUse">
      <stop offset=".455" stop-color="#0392ab" />
      <stop offset="1" stop-color="#294b5c" />
    </linearGradient>
    <linearGradient id="paint4_linear_408_1173" x1="79.014" y1="191.814" x2="50.002" y2="122.621" gradientUnits="userSpaceOnUse">
      <stop stop-color="#6fc9b0" />
      <stop offset="1" stop-color="#155e49" />
    </linearGradient>
    <linearGradient id="paint5_linear_408_1173" x1="44.014" y1="189.314" x2="46.014" y2="171.814" gradientUnits="userSpaceOnUse">
      <stop stop-color="#0b6670" />
      <stop offset=".659" stop-color="#ffcd5e" />
    </linearGradient>
    <linearGradient id="paint6_linear_408_1173" x1="59.008" y1="190.314" x2="61.514" y2="172.814" gradientUnits="userSpaceOnUse">
      <stop stop-color="#144650" />
      <stop offset=".683" stop-color="#ffce5f" />
    </linearGradient>
    <linearGradient id="paint7_linear_408_1173" x1="64.634" y1="92.81" x2="60.272" y2="116.251" gradientUnits="userSpaceOnUse">
      <stop offset=".51" stop-color="#ffce5f" />
      <stop offset="1" stop-color="#efb839" />
    </linearGradient>
    <linearGradient id="paint8_linear_408_1173" x1="31.51" y1="151.314" x2="50.01" y2="94.814" gradientUnits="userSpaceOnUse">
      <stop stop-color="#61b89f" />
      <stop offset=".793" stop-color="#ffcd5e" />
    </linearGradient>
    <linearGradient id="paint9_linear_408_1173" x1="118.838" y1="27.314" x2="123.444" y2="39.375" gradientUnits="userSpaceOnUse">
      <stop stop-color="#fdbf00" />
      <stop offset="1" stop-color="#cf9f36" />
    </linearGradient>
  </defs>
</svg>