<svg width="164" height="28" viewBox="0 0 164 28" fill="none" xmlns="http://www.w3.org/2000/svg">
  <style>
    @keyframes shine {
      0% {
        transform: translateX(-50%)
      }

      to {
        transform: translateX(120%)
      }
    }
  </style>
  <g clip-path="url(#clip0_7677_15243)">
    <rect width="164" height="28" rx="6" fill="url(#paint0_linear_7677_15243)" />
    <g filter="url(#filter0_f_7677_15243)" style="animation:shine 4s infinite ease-in-out;opacity:.8">
      <path d="M22-2h23.652l11.13 32H33.13z" fill="#fff" fill-opacity=".9" />
    </g>
    <path d="M21 14.267v5.167a.5.5 0 0 1-.5.5h-9a.5.5 0 0 1-.5-.5v-5.167m5-3v8.667m0-8.667s2.121 0 2.828-.707a1.5 1.5 0 0 0-2.12-2.121C16 9.146 16 11.267 16 11.267m0 0s-2.121 0-2.828-.707a1.5 1.5 0 0 1 2.12-2.121c.708.707.708 2.828.708 2.828m-5.5 0h11a.5.5 0 0 1 .5.5v2a.5.5 0 0 1-.5.5h-11a.5.5 0 0 1-.5-.5v-2a.5.5 0 0 1 .5-.5" stroke="#433000" stroke-width="1.5" stroke-linecap="round" stroke-linejoin="round" />
    <path d="M31.066 19V9.926h5.837v1.521h-4.121v2.197h3.588v1.521h-3.588V19zm9.219 0h-1.716V9.926h4.095q.624 0 1.118.195t.832.572q.351.364.533.884.195.52.195 1.157 0 .936-.43 1.612-.415.675-1.26.962L45.51 19H43.6l-1.69-3.497h-1.625zm2.21-4.94q.495 0 .78-.26.285-.273.286-.767v-.598q0-.494-.286-.754-.285-.26-.78-.26h-2.21v2.639zM47.202 19V9.926h5.98v1.521h-4.264v2.197h3.77v1.521h-3.77v2.314h4.264V19zm7.795 0V9.926h5.98v1.521h-4.264v2.197h3.77v1.521h-3.77v2.314h4.264V19zm10.984 0v-1.391h2.496v-6.448h-.117l-1.976 2.34-1.066-.897 2.249-2.678h2.587v7.683h2.08V19zm11.136 0v-1.755h-4.108v-1.456l3.614-5.863h2.119v5.993h1.183v1.326h-1.183V19zm-2.704-3.081h2.704V11.59h-.104zm10.113-5.993h3.302q.884 0 1.599.286.728.286 1.235.858.52.56.793 1.417.286.845.286 1.976t-.286 1.989q-.273.845-.793 1.417-.507.559-1.235.845-.716.286-1.599.286h-3.302zm3.302 7.553q.962 0 1.521-.559.572-.572.572-1.742v-1.43q0-1.17-.572-1.729-.56-.572-1.521-.572h-1.586v6.032zM98.711 19l-.728-2.314H94.76L94.044 19h-1.742l3.042-9.074h2.132L100.492 19zm-2.314-7.514h-.065l-1.157 3.731h2.392zm6.74 7.514v-3.562l-3.107-5.512h1.924l2.093 3.835h.026l2.041-3.835h1.872l-3.12 5.499V19zm8.369.156q-1.17 0-1.989-.416a4.6 4.6 0 0 1-1.391-1.092l1.157-1.118q.468.546 1.04.832.585.286 1.287.286.793 0 1.196-.338.403-.351.403-.936 0-.455-.26-.741t-.975-.416l-.858-.13q-2.717-.43-2.717-2.639 0-.611.221-1.105.234-.494.663-.845a3 3 0 0 1 1.027-.533q.611-.195 1.378-.195 1.028 0 1.794.338.767.338 1.313 1.001l-1.17 1.105a2.7 2.7 0 0 0-.819-.676q-.481-.26-1.209-.26-.741 0-1.118.286-.364.273-.364.78 0 .52.299.767t.962.364l.845.156q1.378.248 2.028.884.663.624.663 1.755 0 .65-.234 1.183-.22.52-.663.91a3 3 0 0 1-1.066.585q-.624.208-1.443.208m11.761-7.709V19h-1.716v-7.553h-2.574V9.926h6.864v1.521zM128.962 19h-1.716V9.926h4.095q.624 0 1.118.195.493.195.832.572a2.4 2.4 0 0 1 .533.884q.195.52.195 1.157 0 .936-.429 1.612-.417.675-1.261.962L134.188 19h-1.911l-1.69-3.497h-1.625zm2.21-4.94q.494 0 .78-.26.286-.273.286-.767v-.598q0-.494-.286-.754t-.78-.26h-2.21v2.639zm4.33 4.94v-1.378h1.196v-6.318h-1.196V9.926h4.121v1.378h-1.209v6.318h1.209V19zm11.49 0-.728-2.314h-3.224L142.325 19h-1.742l3.042-9.074h2.132L148.773 19zm-2.314-7.514h-.065l-1.157 3.731h2.392zM150.11 19V9.926h1.716v7.553h3.575V19z" fill="#433000" />
  </g>
  <rect x=".5" y=".5" width="163" height="27" rx="5.5" stroke="#000" stroke-opacity=".1" />
  <defs>
    <linearGradient id="paint0_linear_7677_15243" x1="164" y1="15.892" x2="53.126" y2="-69.212" gradientUnits="userSpaceOnUse">
      <stop stop-color="#DFB74F" />
      <stop offset="1" stop-color="#FFECA8" />
    </linearGradient>
    <clipPath id="clip0_7677_15243">
      <rect width="164" height="28" rx="6" fill="#fff" />
    </clipPath>
    <filter id="filter0_f_7677_15243" x="10" y="-14" width="58.781" height="56" filterUnits="userSpaceOnUse" color-interpolation-filters="sRGB">
      <feFlood flood-opacity="0" result="BackgroundImageFix" />
      <feBlend in="SourceGraphic" in2="BackgroundImageFix" result="shape" />
      <feGaussianBlur stdDeviation="6" result="effect1_foregroundBlur_7677_15243" />
    </filter>
  </defs>
</svg>
