<!--
  - Copyright (c) 2024. Devtron Inc.
  -
  - Licensed under the Apache License, Version 2.0 (the "License");
  - you may not use this file except in compliance with the License.
  - You may obtain a copy of the License at
  -
  -     http://www.apache.org/licenses/LICENSE-2.0
  -
  - Unless required by applicable law or agreed to in writing, software
  - distributed under the License is distributed on an "AS IS" BASIS,
  - WITHOUT WARRANTIES OR CONDITIONS OF ANY KIND, either express or implied.
  - See the License for the specific language governing permissions and
  - limitations under the License.
  -->

<svg width="38" height="48" viewBox="0 0 38 48" fill="none" xmlns="http://www.w3.org/2000/svg">
<g style="mix-blend-mode:luminosity">
<path fill-rule="evenodd" clip-rule="evenodd" d="M28.4465 33.3236C23.8405 33.3236 19.8008 30.8602 19.6389 25.2454H23.7599C23.9219 28.3154 26.063 29.6079 28.4465 29.6079C31.1128 29.6079 33.1331 27.8708 33.1331 24.842C33.1331 21.934 31.5574 20.1163 28.3257 20.1163H27.6385V16.5214H28.3257C31.315 16.5214 32.6892 14.7843 32.6892 12.1589C32.6892 9.25094 30.7906 7.71602 28.4473 7.71602C25.9421 7.71602 24.3263 9.29121 24.1241 11.836H20.0031C20.2455 6.9485 23.8414 4.00024 28.4465 4.00024C33.3353 4.00024 36.8094 7.27231 36.8094 12.0381C36.8094 15.1081 35.436 17.0867 33.2137 18.1771C35.6777 19.2676 37.2534 21.4081 37.2534 24.9628C37.2542 30.4961 33.2547 33.3236 28.4465 33.3236ZM8.32704 33.041H3.88289L13.5388 7.95846H4.77143V12.4819H0.812281V4.28295H17.9425V7.95846L8.32704 33.041ZM0.811279 43.0497C1.51936 43.7672 2.34905 43.9999 3.44132 43.9999C4.94765 43.9999 6.11085 43.2115 6.1132 41.8158C6.1132 41.1789 5.9409 40.653 5.5566 40.289C5.25296 40.0055 4.83812 39.8236 4.18083 39.7325L3.331 39.6109C3.03777 39.5699 2.80495 39.4587 2.6632 39.3274C2.51094 39.1865 2.45052 38.9941 2.45052 38.812C2.45052 38.3167 2.81457 37.902 3.56293 37.902C4.03819 37.902 4.58438 37.9624 5.0395 38.3972L5.9296 37.5179C5.31259 36.9212 4.594 36.6788 3.6032 36.6788C2.0453 36.6788 1.09478 37.5783 1.09478 38.8628C1.09478 39.4692 1.2664 39.9346 1.61031 40.2786C1.9342 40.5918 2.38932 40.7842 3.00633 40.8753L3.8763 40.9969C4.20981 41.0477 4.3717 41.1185 4.51345 41.2498C4.66493 41.3907 4.73575 41.6033 4.73575 41.8561C4.73575 42.4328 4.29115 42.746 3.46145 42.746C2.79365 42.746 2.17664 42.5947 1.72152 42.1396L0.811279 43.0497ZM9.52957 37.9943V43.94H8.12393V37.9943H6.24303V36.7404H11.4113V37.9943H9.52957ZM14.3144 41.0682L15.72 43.94H17.348L15.7401 40.8354C16.4377 40.5827 17.0547 39.9561 17.0547 38.9446C17.0547 37.7414 16.1856 36.7404 14.7188 36.7404H11.897V43.94H13.3027V41.0682H14.3144ZM13.3027 37.9943H14.6277C15.2448 37.9943 15.6492 38.3897 15.6492 38.9454C15.6492 39.5011 15.2448 39.8957 14.6277 39.8957H13.3027V37.9943ZM17.8537 43.94V36.7404H19.2593V43.94H17.8537ZM21.6875 39.5212L24.5398 43.94H25.7941V36.7404H24.3884V41.1495L21.5361 36.7404H20.2818V43.94H21.6875V39.5212ZM31.255 43.1808C30.6984 43.747 30.0313 43.9999 29.2218 43.9999C28.4533 43.9999 27.8056 43.7374 27.2797 43.2115C26.9663 42.8982 26.7738 42.5342 26.6932 42.1291C26.6127 41.7249 26.5716 41.1282 26.5716 40.3397C26.5716 39.5513 26.6119 38.9546 26.6932 38.5502C26.7738 38.1355 26.9663 37.782 27.2797 37.468C27.8056 36.942 28.4533 36.6795 29.2218 36.6795C30.8603 36.6795 31.7406 37.7313 31.9324 38.9851H30.5162C30.3447 38.2877 29.9194 37.9334 29.2218 37.9334C28.8472 37.9334 28.5444 38.0647 28.322 38.3176C28.0594 38.6509 27.978 38.9143 27.978 40.3397C27.978 41.7554 28.0385 42.0382 28.322 42.3724C28.5346 42.6253 28.8376 42.7468 29.2218 42.7468C29.6366 42.7468 29.9702 42.6155 30.2231 42.3425C30.4357 42.1001 30.5469 41.7764 30.5469 41.3818V41.1088H29.2218V39.9354H31.9429V40.9872C31.9429 42.0382 31.7504 42.655 31.255 43.1808ZM31.9527 43.0497C32.6607 43.7672 33.4904 43.9999 34.5828 43.9999C36.0899 43.9999 37.2531 43.2115 37.2547 41.8158C37.2547 41.1789 37.0822 40.653 36.6981 40.289C36.3943 40.0055 35.9795 39.8236 35.3222 39.7325L34.4723 39.6109C34.1791 39.5699 33.9464 39.4587 33.8045 39.3274C33.6524 39.1865 33.592 38.9941 33.592 38.812C33.592 38.3167 33.956 37.902 34.7044 37.902C35.1796 37.902 35.7257 37.9624 36.1808 38.3972L37.0709 37.5179C36.4539 36.9212 35.7362 36.6788 34.7447 36.6788C33.1868 36.6788 32.2362 37.5783 32.2362 38.8628C32.2362 39.4692 32.4079 39.9346 32.7518 40.2786C33.0755 40.5918 33.5307 40.7842 34.1478 40.8753L35.0178 40.9969C35.3512 41.0477 35.5132 41.1185 35.6549 41.2498C35.8063 41.3907 35.8772 41.6033 35.8772 41.8561C35.8772 42.4328 35.4326 42.746 34.6029 42.746C33.9351 42.746 33.3181 42.5947 32.863 42.1396L31.9527 43.0497Z" fill="#fff"/>
</g>
</svg>
