<svg xmlns="http://www.w3.org/2000/svg" width="24" height="24" fill="none" viewBox="0 0 24 24">
  <path fill="#157CFF" d="M3.106 11.774c0-1.623.003-3.246-.004-4.869-.001-.192.07-.303.23-.394 1.193-.686 2.386-1.374 3.577-2.064l2.59-1.495c.51-.295 1.016-.595 1.53-.881.085-.047.232-.084.293-.042.075.051.121.19.123.292.01.51.001 1.021.001 1.532 0 .777-.004 1.554.006 2.332.004.238-.08.379-.292.499-1.267.717-2.524 1.45-3.787 2.176a.366.366 0 0 0-.207.354 874.84 874.84 0 0 1 0 5.123c0 .17.06.27.205.353 1.47.844 2.936 1.69 4.4 2.541.163.095.297.107.47.005a388.54 388.54 0 0 1 3.59-2.077c.544-.312.385-.294.877-.013 1.072.613 2.136 1.24 3.21 1.85.28.16.208.373-.006.496a1655.044 1655.044 0 0 0-6.614 3.81c-.368.212-.738.42-1.102.639-.127.076-.234.08-.363.005-.921-.535-1.845-1.064-2.768-1.597-1.727-.996-3.454-1.992-5.18-2.99-.192-.11-.38-.225-.575-.33-.15-.082-.21-.194-.21-.37.005-1.628.003-3.257.003-4.885h.003Z"/>
  <path fill="#3A52DD" d="M20.9 11.34v4.322c0 .062.003.125-.002.187-.015.203-.165.29-.344.19a127.2 127.2 0 0 1-1.39-.79c-.692-.4-1.38-.806-2.075-1.2-.168-.095-.239-.204-.238-.403.008-1.469.002-2.938.008-4.408 0-.179-.053-.293-.212-.384-.94-.537-1.876-1.082-2.813-1.623-.363-.21-.726-.421-1.09-.628-.112-.063-.155-.15-.154-.277.002-1.35 0-2.7.001-4.05 0-.258.158-.346.38-.217a3469.287 3469.287 0 0 0 7.67 4.43c.195.111.266.239.265.46-.009 1.463-.005 2.927-.005 4.39Z"/>
  <path fill="#3C54DF" d="M10.98 11.233c.048-.043.1-.083.145-.13.694-.708 1.386-1.419 2.083-2.123a.375.375 0 0 1 .231-.1c.288-.012.577-.005.918-.005-.19.198-.346.363-.504.526-.652.671-1.304 1.341-1.957 2.01-.09.093-.095.155-.005.254a588.12 588.12 0 0 1 2.494 2.788c.035.04.066.083.125.158-.346 0-.65.006-.953-.006-.055-.002-.115-.068-.158-.116-.76-.849-1.52-1.698-2.277-2.549-.044-.05-.09-.097-.17-.184a2.413 2.413 0 0 0-.03.246c0 .8-.004 1.6.005 2.4.001.17-.046.237-.22.216a1.75 1.75 0 0 0-.375 0c-.17.018-.224-.04-.222-.216.008-1.021.004-2.042.004-3.063 0-.755.004-1.51-.004-2.264-.001-.156.045-.216.202-.202.13.012.261.012.391 0 .17-.017.226.041.223.216-.01.635-.005 1.27-.004 1.906 0 .071.007.142.011.214l.047.024Z"/>
</svg>
