<!--
  - Copyright (c) 2024. Devtron Inc.
  -
  - Licensed under the Apache License, Version 2.0 (the "License");
  - you may not use this file except in compliance with the License.
  - You may obtain a copy of the License at
  -
  -     http://www.apache.org/licenses/LICENSE-2.0
  -
  - Unless required by applicable law or agreed to in writing, software
  - distributed under the License is distributed on an "AS IS" BASIS,
  - WITHOUT WARRANTIES OR CONDITIONS OF ANY KIND, either express or implied.
  - See the License for the specific language governing permissions and
  - limitations under the License.
  -->

<svg width="24" height="24" viewBox="0 0 24 24" fill="none" xmlns="http://www.w3.org/2000/svg">
<path d="M8.81836 3.00022H14.4711L8.603 20.3867C8.54269 20.5654 8.42787 20.7206 8.2747 20.8306C8.12154 20.9406 7.93773 20.9997 7.74917 20.9998H3.34996C3.20709 20.9998 3.06627 20.9658 2.93915 20.9006C2.81203 20.8354 2.70226 20.7408 2.61893 20.6248C2.5356 20.5088 2.48109 20.3745 2.45993 20.2332C2.43876 20.0919 2.45154 19.9476 2.49721 19.8123L7.96431 3.61329C8.0246 3.43456 8.13944 3.27924 8.29265 3.16922C8.44587 3.0592 8.62974 3.00001 8.81836 3V3.00022Z" fill="url(#paint0_linear_702_1773)"/>
<path d="M17.0323 14.6621H8.06846C7.98513 14.662 7.9037 14.687 7.83478 14.7339C7.76585 14.7807 7.71264 14.8472 7.68207 14.9248C7.65149 15.0023 7.64497 15.0872 7.66336 15.1685C7.68175 15.2498 7.72419 15.3237 7.78516 15.3805L13.5451 20.7566C13.7128 20.9131 13.9336 21 14.163 21H19.2387L17.0323 14.6621Z" fill="#0078D4"/>
<path d="M8.81856 3.00001C8.62787 2.99927 8.44195 3.05953 8.28794 3.17198C8.13394 3.28443 8.01992 3.44317 7.96255 3.62502L2.50413 19.7973C2.45539 19.9331 2.44009 20.0788 2.45952 20.2218C2.47895 20.3648 2.53255 20.5011 2.61577 20.619C2.69899 20.7369 2.8094 20.8331 2.93764 20.8993C3.06589 20.9656 3.2082 20.9999 3.35254 20.9996H7.86529C8.03337 20.9695 8.19046 20.8954 8.32052 20.7848C8.45058 20.6742 8.54895 20.5311 8.60559 20.37L9.6941 17.162L13.5823 20.7885C13.7452 20.9233 13.9496 20.9978 14.161 20.9996H19.2178L17 14.6617L10.5347 14.6632L14.4917 3.00001H8.81856Z" fill="url(#paint1_linear_702_1773)"/>
<path d="M16.038 3.61221C15.9778 3.43376 15.8631 3.2787 15.7101 3.16887C15.5571 3.05904 15.3735 2.99998 15.1852 3H8.88535C9.07366 3.00001 9.25723 3.05909 9.41021 3.16891C9.56319 3.27874 9.67787 3.43378 9.73809 3.61221L15.2054 19.8118C15.2511 19.9472 15.2639 20.0916 15.2428 20.2329C15.2216 20.3742 15.1671 20.5085 15.0838 20.6246C15.0005 20.7407 14.8907 20.8353 14.7636 20.9005C14.6364 20.9657 14.4956 20.9998 14.3527 20.9998H20.6528C20.7956 20.9997 20.9365 20.9657 21.0636 20.9004C21.1907 20.8352 21.3004 20.7406 21.3837 20.6245C21.467 20.5084 21.5215 20.3742 21.5427 20.2328C21.5638 20.0915 21.551 19.9472 21.5053 19.8118L16.038 3.61221Z" fill="url(#paint2_linear_702_1773)"/>
<defs>
<linearGradient id="paint0_linear_702_1773" x1="10.8786" y1="4.33405" x2="5.00812" y2="21.6769" gradientUnits="userSpaceOnUse">
<stop stop-color="#114A8B"/>
<stop offset="1" stop-color="#0669BC"/>
</linearGradient>
<linearGradient id="paint1_linear_702_1773" x1="12.7126" y1="12.4161" x2="11.3547" y2="12.8752" gradientUnits="userSpaceOnUse">
<stop stop-opacity="0.3"/>
<stop offset="0.071" stop-opacity="0.2"/>
<stop offset="0.321" stop-opacity="0.1"/>
<stop offset="0.623" stop-opacity="0.05"/>
<stop offset="1" stop-opacity="0"/>
</linearGradient>
<linearGradient id="paint2_linear_702_1773" x1="11.9653" y1="3.828" x2="18.4093" y2="20.9961" gradientUnits="userSpaceOnUse">
<stop stop-color="#3CCBF4"/>
<stop offset="1" stop-color="#2892DF"/>
</linearGradient>
</defs>
</svg>
