<svg width="111" height="48" viewBox="0 0 111 48" fill="none" xmlns="http://www.w3.org/2000/svg">
<path d="M22.0513 15.3713C23.838 16.4364 24.3699 17.7388 24.8792 19.7031C25.4189 21.7748 26.2773 23.2473 27.7876 24.7691C28.835 25.8335 29.4862 26.8184 29.5174 28.3414C29.5058 29.4675 29.3603 30.1957 28.5817 31.0186C27.6423 31.8759 26.8157 32.0766 25.5544 32.0487C24.5185 31.9458 23.7837 31.5585 23.0618 30.8138C22.2804 29.8344 22.0019 28.6864 21.7134 27.4971C21.6921 27.4092 21.6707 27.3211 21.649 27.2327C21.1434 25.3243 20.2632 23.9835 18.9064 22.5892C17.6878 21.3284 16.9961 20.153 17.0133 18.3771C17.1208 17.3733 17.5666 16.5046 18.3231 15.8324C19.4849 15.0578 20.7173 14.9933 22.0513 15.3713Z" fill="#fff"/>
<path d="M17.0673 25.2509C17.9179 25.8418 18.5248 26.4221 18.794 27.4485C18.9553 28.7422 18.8231 29.8509 18.0091 30.902C16.961 31.7894 16.1479 32.0695 14.7856 32.053C13.7952 31.958 13.0306 31.6273 12.3715 30.8713C11.6338 29.812 11.4412 28.8889 11.5731 27.6055C11.852 26.5556 12.3852 25.8321 13.2999 25.2509C14.5467 24.5913 15.8239 24.5702 17.0673 25.2509Z" fill="#fff"/>
<path fill-rule="evenodd" clip-rule="evenodd" d="M20.5306 4.00013L20.8764 4.00054C22.7041 4.00779 24.4212 4.13271 26.1719 4.6869L26.5426 4.80171C31.7762 6.46765 36.0215 10.092 38.5613 14.9603C40.9219 19.7133 41.2899 25.3256 39.662 30.3623C38.8154 32.8312 37.5947 35.0374 35.9044 37.0239L35.5524 37.4476C34.7142 38.4216 33.7853 39.2284 32.7649 40.0065L32.4 40.2891C28.9066 42.8692 24.9136 44.0007 20.6189 43.9995L20.2177 44C18.1357 43.9962 16.2201 43.8424 14.2417 43.146L13.9212 43.0391C9.6394 41.5894 5.99745 38.6102 3.56736 34.8263L3.23011 34.3038C2.33569 32.8303 1.72533 31.2877 1.21272 29.6461L1.10457 29.3052C-0.362846 24.4405 0.533878 18.8942 2.83154 14.4586C5.29171 9.87906 9.53668 6.35638 14.5025 4.80689C16.5006 4.21302 18.4476 3.99398 20.5306 4.00013ZM8.27664 12.3787L7.94184 12.7025C6.28957 14.4149 5.0731 16.721 4.35224 18.9717L4.25359 19.2773C2.95813 23.4771 3.5971 28.0861 5.58413 31.9467C6.24201 33.1746 7.02641 34.2643 7.96269 35.2972L8.17102 35.5289C11.2353 38.8948 15.428 40.6805 19.9431 40.9833C24.1058 41.0943 28.1561 39.6758 31.3521 37.0239L31.7562 36.6977C35.0319 33.9208 37.0868 29.7296 37.4539 25.4654C37.7095 20.7716 36.3272 16.2871 33.1647 12.7516C30.3604 9.69856 26.4111 7.47527 22.2214 7.16126C16.7223 6.93795 12.1843 8.48268 8.27664 12.3787Z" fill="#fff"/>
<path fill-rule="evenodd" clip-rule="evenodd" d="M103.063 17.6748L102.696 17.6788C101.925 17.6867 101.327 17.6929 100.657 18.1281C100.053 18.7023 99.8249 19.3176 99.7348 20.1291L99.7351 20.685C99.7333 21.0081 99.7322 21.3311 99.7342 21.6542C99.7358 21.8841 99.7366 22.1141 99.7367 22.3441C99.7362 22.8253 99.7363 23.3065 99.7386 23.7877C99.7423 24.4119 99.7449 25.0361 99.744 25.6603C99.7432 26.149 99.7431 26.6376 99.7443 27.1263L99.7464 27.8245C99.7461 28.0517 99.746 28.279 99.7459 28.5063L99.7505 29.1335C99.7517 29.4449 99.7522 29.5812 99.7597 29.7172C99.7656 29.8232 99.7757 29.929 99.7936 30.1172C99.9289 30.2525 100.012 30.336 100.112 30.3878C100.274 30.4714 100.478 30.4721 101.013 30.4741L101.363 30.4704C101.788 30.4748 102.194 30.4623 102.619 30.4311C102.789 30.2611 102.867 30.1832 102.909 30.0891C102.944 30.0095 102.952 29.9184 102.969 29.7501L102.964 29.2967L102.961 28.8062L102.953 28.2923C102.949 27.8059 102.945 27.3196 102.938 26.8332L102.933 26.5067C103.402 26.4624 103.826 26.4418 104.297 26.4779C104.939 26.9577 105.268 27.2038 105.526 27.5097C105.797 27.8319 105.99 28.2205 106.386 29.0182L106.427 29.095C106.713 29.6401 106.95 30.0906 107.485 30.4311C108.371 30.6044 109.653 30.6815 110.468 30.2742C110.489 30.0324 110.503 29.8619 110.481 29.6963C110.429 29.3009 110.169 28.9331 109.286 27.6868L109.026 27.321C108.777 26.97 108.528 26.619 108.279 26.2683L108.113 26.0358C108.431 25.8321 108.744 25.6219 109.055 25.4079C109.95 24.589 110.428 23.7198 110.501 22.5069C110.517 20.9575 110.382 19.8622 109.281 18.707C107.858 17.6424 106.259 17.6286 104.563 17.6601C104.311 17.6648 104.06 17.668 103.808 17.6698C103.56 17.671 103.311 17.6727 103.063 17.6748ZM102.912 21.3265C102.913 21.1171 102.918 20.9075 102.933 20.6986C103.004 20.6123 103.043 20.5648 103.093 20.54C103.154 20.5097 103.232 20.5133 103.406 20.5213L104.26 20.5202L104.729 20.522L105.195 20.5202L105.64 20.5208C105.889 20.5211 106.138 20.5266 106.387 20.5417C106.855 20.7756 107.047 21.0424 107.328 21.4835C107.407 22.0289 107.423 22.5507 107.171 23.0533C106.471 23.6634 105.958 23.7528 105.038 23.744L104.611 23.7302L104.455 23.7288L104.371 23.7282C103.943 23.725 103.516 23.7218 103.09 23.6812C103.002 23.6096 102.956 23.5716 102.932 23.5226C102.905 23.4671 102.908 23.3976 102.913 23.2495L102.912 22.5137L102.913 22.1114L102.912 21.7092L102.912 21.3265Z" fill="#fff"/>
<path d="M73.5915 17.6946L73.971 17.6964L74.3506 17.6946C75.0624 17.6958 75.2322 17.6961 75.3508 17.7742C75.388 17.7987 75.4201 17.8308 75.4623 17.873C75.4761 18.2213 75.4791 18.57 75.4777 18.9185L75.4765 19.4968L75.4721 20.2375L75.4623 22.5823H80.1716C80.1685 21.8403 80.1669 21.4693 80.1652 21.0983C80.1634 20.7272 80.1614 20.3562 80.1575 19.6142L80.1563 19.0565L80.1538 18.4835C80.1638 18.229 80.1682 18.1173 80.1978 18.0128C80.221 17.9311 80.2597 17.8538 80.3286 17.716C80.7668 17.7076 81.2049 17.7013 81.6432 17.6964L82.021 17.6884C82.3465 17.6857 82.672 17.6998 82.9972 17.716C83.3508 18.0697 83.3515 18.2748 83.3531 18.7147C83.3532 18.7522 83.3533 18.7915 83.3537 18.8326L83.3517 19.1702L83.3534 19.5261C83.3548 19.9153 83.3539 20.3045 83.3528 20.6937C83.353 20.9635 83.3533 21.2333 83.3537 21.5031C83.3542 22.0689 83.3535 22.6348 83.352 23.2006C83.3503 23.927 83.3513 24.6533 83.3532 25.3797C83.3543 25.9369 83.3539 26.4942 83.3531 27.0514C83.3529 27.3193 83.3532 27.5872 83.3539 27.855C83.3547 28.229 83.3535 28.6029 83.3517 28.9769L83.3537 29.3145C83.3497 29.7705 83.3481 29.9553 83.2738 30.1038C83.2232 30.205 83.1389 30.2893 82.9972 30.4311C82.5719 30.4622 82.1663 30.4748 81.7414 30.4703L81.3906 30.474C80.5253 30.4708 80.5253 30.4708 80.1716 30.1171C80.1558 29.9103 80.1471 29.7949 80.1426 29.6794C80.1369 29.5334 80.1382 29.3872 80.1409 29.0563L80.1433 28.4792L80.152 27.7429L80.1716 25.4079H75.4623V30.2741C75.0621 30.4742 74.65 30.4648 74.219 30.4549C74.137 30.4531 74.0544 30.4512 73.971 30.4507L73.643 30.4525C73.1054 30.4515 72.9248 30.4511 72.7606 30.3992C72.6775 30.373 72.5986 30.3335 72.4798 30.2741C72.4762 28.6599 72.4734 27.0457 72.4716 25.4315C72.4708 24.6821 72.4697 23.9326 72.4679 23.1832C72.4662 22.4605 72.4653 21.7379 72.4649 21.0152C72.4646 20.7389 72.464 20.4626 72.4632 20.1862C72.4621 19.8006 72.4619 19.4149 72.462 19.0292L72.4603 18.6795C72.4623 17.6949 72.5715 17.6949 73.4839 17.6946L73.5915 17.6946Z" fill="#fff"/>
<path fill-rule="evenodd" clip-rule="evenodd" d="M55.3832 21.3807C54.8676 20.0217 54.2467 18.385 53.1717 17.7161C51.4408 17.5098 50.6374 18.0364 49.9504 19.635L49.8262 19.9377C49.6821 20.2769 49.5385 20.6163 49.3969 20.9566C49.2966 21.1983 49.1956 21.4397 49.0942 21.681C48.8836 22.1801 48.6734 22.6792 48.4645 23.179C48.158 23.9131 47.8489 24.6459 47.5362 25.3773C47.3922 25.714 47.2488 26.0509 47.1055 26.3878L46.8338 27.0267L46.5708 27.6408L46.3298 28.212C46.0601 28.8467 45.8504 29.426 45.7939 30.1172L46.1078 30.4312C46.3905 30.4503 46.6738 30.4672 46.9571 30.4664L47.2851 30.4606C47.6797 30.4602 48.0679 30.4506 48.4625 30.4312C48.6025 30.3611 48.6801 30.3223 48.7405 30.2654C48.8156 30.1946 48.8642 30.0958 48.9733 29.8744L49.1787 29.3716C49.3132 29.0474 49.4412 28.7203 49.5613 28.3905L49.7183 27.6056L54.7415 27.7626C55.2827 29.0614 55.4507 29.4647 55.6572 29.8472C55.7503 30.0194 55.8511 30.1874 55.9973 30.4312C56.3737 30.4836 56.5099 30.5026 56.6467 30.508C56.7243 30.5111 56.802 30.5098 56.9238 30.5078L57.2727 30.49C57.3676 30.4882 57.4712 30.4921 57.5785 30.4962C57.9704 30.511 58.4124 30.5277 58.6659 30.2742C58.6302 29.2331 58.3694 28.4128 57.9648 27.4572L57.7369 26.9354L57.6617 26.7593C57.4861 26.3486 57.3102 25.9371 57.1326 25.5273C56.9218 25.0423 56.7115 24.5571 56.5035 24.0708C56.3401 23.6888 56.1764 23.3069 56.0124 22.9252L55.7747 22.3733C55.6473 22.0768 55.5189 21.7383 55.3832 21.3807ZM51.445 23.3672C51.7055 22.7911 51.9669 22.2154 52.2299 21.6405H52.3869C52.8522 22.7274 53.2857 23.8096 53.6427 24.937H50.9741C50.9741 24.4481 51.091 24.1504 51.288 23.71L51.445 23.3672Z" fill="#fff"/>
<path d="M90.2947 17.6646L90.8175 17.6654C91.1807 17.6665 91.5439 17.6687 91.9071 17.6719C92.4655 17.6768 93.0239 17.6783 93.5823 17.6793C93.9352 17.6807 94.2881 17.6823 94.641 17.6842L95.1498 17.6862L95.6167 17.6908L96.0296 17.694C96.2081 17.7067 96.284 17.7121 96.3461 17.7442C96.392 17.7679 96.4303 17.8063 96.4971 17.873C96.5127 18.2673 96.5189 18.6562 96.5167 19.0504L96.5186 19.3845C96.5174 19.9939 96.5171 20.1522 96.4453 20.2651C96.4201 20.3047 96.3861 20.3387 96.3401 20.3847C95.8762 20.4098 95.4155 20.4254 94.9512 20.4343L94.5777 20.4432C94.1653 20.4528 93.7529 20.4613 93.3405 20.4699L93.1908 20.473L90.0611 20.5416V27.4486L90.0675 27.4487C91.0893 27.4682 91.6013 27.478 92.1134 27.4873C92.6253 27.4967 93.1372 27.5056 94.1589 27.5235L94.1657 27.5236C94.4224 27.5291 94.6792 27.5348 94.9359 27.5405L95.3419 27.546C95.9603 27.5612 96.1813 27.5667 96.3531 27.6614C96.4487 27.7141 96.529 27.7945 96.6541 27.9195L96.6542 27.9207C96.6731 28.1479 96.6835 28.2723 96.6888 28.3963C96.6953 28.5443 96.6946 28.6926 96.6933 29.0173V29.0183L96.6958 29.6168C96.6738 29.8807 96.6634 30.0054 96.6124 30.1104C96.5667 30.2045 96.4885 30.2828 96.3401 30.4311C96.1985 30.4494 96.1201 30.4596 96.0416 30.4653C95.9448 30.4725 95.8475 30.473 95.6304 30.4742L95.1839 30.4788L94.6998 30.4783L94.2023 30.4804C93.854 30.4813 93.5058 30.4813 93.1576 30.4807C92.6266 30.4802 92.0958 30.4838 91.5649 30.4878C91.2265 30.4882 90.8882 30.4883 90.5498 30.4881L90.0705 30.4925C88.9825 30.4854 88.1908 30.3681 87.3336 29.6462C86.9037 29.1171 86.8997 28.6434 86.8944 27.9982L86.8938 27.9294L86.8877 27.3483C86.8864 27.1387 86.8852 26.9291 86.8842 26.7195L86.8822 26.399C86.8789 25.8391 86.8767 25.2793 86.8752 24.7194C86.8735 24.1424 86.8681 23.5656 86.8619 22.9887C86.8577 22.5439 86.8564 22.0991 86.8559 21.6542C86.8547 21.3386 86.8506 21.023 86.8464 20.7074C86.8491 19.5887 86.8498 19.2527 86.9633 18.9604C87.012 18.8349 87.0815 18.7174 87.1808 18.5496C88.1073 17.6383 88.9969 17.649 90.216 17.6636L90.2947 17.6646Z" fill="#fff"/>
<path d="M60.8632 17.6942L60.2458 17.6957L60.2259 17.6957C59.1875 17.6964 59.1173 17.6965 59.1154 18.7719L59.1172 19.1288C59.115 19.549 59.1212 19.9644 59.1368 20.3846C59.1997 20.4475 59.2374 20.4852 59.2825 20.5089C59.3499 20.5445 59.4337 20.5487 59.6431 20.5594L60.0989 20.5569L60.591 20.5554L61.1088 20.5514C61.5977 20.5494 62.0865 20.5473 62.5753 20.5441L62.9043 20.5416C62.9009 21.6922 62.8983 22.8429 62.8966 23.9935L62.8964 24.1367C62.8957 24.675 62.8949 25.2134 62.8935 25.7517C62.8917 26.3264 62.8902 26.9011 62.8896 27.4758L62.8889 28.1298L62.8865 28.7724L62.8864 29.3629C62.8858 29.6667 62.8895 29.9707 62.9043 30.2741C62.9494 30.3193 62.9832 30.353 63.0224 30.3784C63.1386 30.4536 63.3025 30.4549 63.9525 30.4602L64.3072 30.4605C64.7347 30.4676 65.1448 30.458 65.5728 30.4311C65.7366 30.2673 65.815 30.189 65.8578 30.0945C65.8971 30.0079 65.9065 29.9078 65.9245 29.7159L65.9224 29.2025C65.9224 28.9052 65.9223 28.6079 65.92 28.3106C65.9183 28.0979 65.9172 27.8852 65.9166 27.6726C65.9158 27.1158 65.9139 26.5591 65.9105 26.0023C65.9069 25.4252 65.9047 24.848 65.9031 24.2708C65.9 23.1482 65.8952 22.0256 65.8889 20.903L65.8868 20.5416C66.2909 20.5481 66.6949 20.5532 67.0991 20.5569L67.5939 20.5612L68.0851 20.5692L68.5542 20.5723L68.9876 20.5772C69.1461 20.5612 69.2334 20.5524 69.31 20.519C69.4037 20.4782 69.4814 20.4005 69.6542 20.2276C69.6733 19.9424 69.6903 19.6566 69.6895 19.3707L69.6836 19.0405C69.6833 18.6492 69.6741 18.2643 69.6542 17.873C69.5962 17.815 69.5597 17.7785 69.5162 17.7544C69.4419 17.7133 69.3476 17.7087 69.0921 17.6961L68.5453 17.6957C68.2288 17.695 67.9123 17.6942 67.5958 17.6946C67.369 17.695 67.1422 17.6951 66.9153 17.695C66.444 17.6946 65.9727 17.6944 65.5014 17.695C64.8864 17.6959 64.2714 17.6965 63.6564 17.6956C63.1776 17.6948 62.6989 17.6945 62.2201 17.6947L61.5356 17.6952L60.8632 17.6942Z" fill="#fff"/>
<path d="M93.7834 22.5256L93.4262 22.5333C93.3944 22.5331 93.3626 22.533 93.331 22.5328C92.7772 22.5298 92.2532 22.5269 91.7228 22.7209C91.3365 22.993 91.1865 23.2464 91.0029 23.6812C91.0029 24.3182 91.0401 24.6477 91.472 25.1246C92.0279 25.4577 92.368 25.4775 93.0028 25.4707L93.387 25.4569C93.8507 25.4515 94.307 25.4358 94.7704 25.4079C95.1971 25.1945 95.4186 25.0047 95.7122 24.623C95.793 24.079 95.8058 23.5544 95.5552 23.0533C94.9703 22.59 94.5027 22.525 93.7834 22.5256Z" fill="#fff"/>
</svg>
