<svg width="120" height="48" viewBox="0 0 120 48" fill="none" xmlns="http://www.w3.org/2000/svg">
<g style="mix-blend-mode:luminosity">
<path d="M19.3321 26.1269L19.3202 26.1475C19.2993 26.1158 19.2804 26.0879 19.2631 26.0624C19.2303 26.0141 19.2033 25.9743 19.1792 25.9327L17.4787 22.9958C15.5362 19.6407 13.5936 16.2856 11.6483 12.9322C11.549 12.761 11.5241 12.6322 11.6332 12.4456C12.347 11.2255 13.0516 10.0001 13.7562 8.77469L14.1438 8.10085C14.4752 7.52475 14.9511 7.15443 15.6148 7.0355C16.4871 6.87919 17.3206 7.24511 17.7848 8.01342C18.0168 8.39755 18.2397 8.78726 18.4625 9.17696C18.546 9.32294 18.6299 9.46961 18.7138 9.61529L19.7957 11.4931L19.7967 11.4947C21.0808 13.7238 22.365 15.9529 23.654 18.1792C23.763 18.3674 23.7628 18.5033 23.6513 18.6911C23.1953 19.4589 22.7486 20.2322 22.2969 21.0143C22.1645 21.2437 22.0316 21.4738 21.8979 21.7047C21.0429 23.1795 20.198 24.6352 19.3321 26.1269Z" fill="#fff"/>
<path d="M9.87933 15.4915C9.90526 15.5287 9.9292 15.5617 9.95132 15.5922C9.99386 15.6509 10.0297 15.7003 10.0601 15.7528C10.9924 17.362 11.9241 18.9715 12.8558 20.5809L14.4903 23.4042C14.7007 23.7676 14.9109 24.1311 15.1211 24.4945C15.9179 25.872 16.7146 27.2495 17.521 28.6213C17.6627 28.8623 17.6484 29.0373 17.5124 29.2694C16.3893 31.1847 15.2757 33.1055 14.1674 35.0293C14.065 35.207 13.9547 35.2729 13.7477 35.2725C11.1708 35.2681 8.59398 35.2679 6.01713 35.2676C4.74855 35.2675 3.47997 35.2674 2.2114 35.2668C1.51883 35.2665 0.91372 35.0454 0.482049 34.4819C-0.0816062 33.7462 -0.159424 32.9491 0.293352 32.1349C0.694757 31.4131 1.10893 30.6983 1.52311 29.9836C1.69301 29.6904 1.86297 29.3971 2.032 29.1034C2.26174 28.7042 2.49192 28.3053 2.72513 27.9011L9.87933 15.4915Z" fill="#fff"/>
<path d="M25.4067 21.2477C24.7019 22.459 24.0224 23.6269 23.3327 24.8141C22.5671 26.1323 21.8026 27.4476 21.0378 28.7635C19.7819 30.9244 18.5251 33.0868 17.2609 35.2664H17.5254C18.2314 35.2664 18.9374 35.2664 19.6434 35.2665C23.0314 35.2667 26.4195 35.2669 29.8075 35.2627C30.0239 35.2624 30.2474 35.2339 30.4553 35.1751C31.7275 34.8154 32.3436 33.3848 31.7303 32.2075C31.5551 31.8713 31.3631 31.5438 31.1711 31.2163C31.0961 31.0885 31.0212 30.9606 30.9473 30.8323C29.1632 27.7357 27.3787 24.6394 25.5939 21.5433C25.5593 21.4832 25.5224 21.4244 25.4798 21.3564C25.4579 21.3216 25.4346 21.2843 25.4093 21.2432L25.4067 21.2477Z" fill="#fff"/>
<path d="M78.8462 15.9248C78.6856 16.4408 78.7038 16.9641 78.8885 17.5006C78.9295 17.5696 78.9676 17.639 79.005 17.7072C79.098 17.8767 79.1872 18.0393 79.3082 18.1732C80.0776 19.0252 81.5427 19.1126 82.4249 18.3739C82.7947 18.0643 83.0554 17.6799 83.1312 17.1987C83.1741 16.9262 83.1945 16.644 83.1765 16.3694C83.1405 15.8235 82.9196 15.3545 82.5055 14.9841C82.1112 14.6315 81.6408 14.4525 81.123 14.4228C80.0936 14.3639 79.1705 14.8834 78.8462 15.9248Z" fill="#fff"/>
<path fill-rule="evenodd" clip-rule="evenodd" d="M46.282 31.7557C46.5032 31.7556 46.7261 31.7556 46.9513 31.756C47.5586 31.7557 48.1644 31.7554 48.7692 31.7552H48.7756C50.9777 31.7544 53.1654 31.7536 55.353 31.7462C55.6191 31.7454 55.765 31.8295 55.8756 32.0786C56.111 32.6087 56.3545 33.1352 56.5981 33.6616C56.8015 34.1015 57.005 34.5413 57.2037 34.9833C57.2985 35.1941 57.4193 35.2852 57.6552 35.2824C58.2368 35.2755 58.8184 35.2763 59.4001 35.2771H59.4015C59.7164 35.2775 60.0313 35.2779 60.3462 35.2771C60.4901 35.2767 60.6339 35.2709 60.791 35.2646L60.7923 35.2645C60.8684 35.2615 60.9476 35.2583 61.0314 35.2555C61.0011 35.1852 60.9732 35.1191 60.9466 35.056C60.8932 34.9294 60.8449 34.8148 60.7925 34.7022C58.5854 29.9592 56.3777 25.2164 54.1701 20.4737L53.8703 19.8297C53.4702 18.9702 53.0701 18.1106 52.67 17.251C52.6053 17.1121 52.5406 16.9731 52.4759 16.8342C52.2339 16.3149 51.9919 15.7954 51.7523 15.2749C51.6823 15.1228 51.6075 15.0003 51.4089 15.0013C50.4622 15.006 49.5154 15.0047 48.5686 15.0018C48.4324 15.0014 48.3402 15.0565 48.281 15.1736C48.2619 15.2116 48.2448 15.2506 48.2278 15.2896C48.2169 15.3145 48.2061 15.3394 48.1947 15.3639C47.7384 16.3473 47.2821 17.3307 46.8258 18.3141L46.7762 18.421C45.0426 22.1572 43.3091 25.8933 41.5751 29.6292C41.1398 30.5669 40.704 31.5045 40.2681 32.442L40.2676 32.443L40.2663 32.446C39.8766 33.2842 39.4869 34.1223 39.0977 34.9607C39.0682 35.0243 39.0423 35.0896 39.0135 35.1625C38.9991 35.1989 38.9839 35.2371 38.9672 35.278C39.2666 35.278 39.5633 35.2778 39.8579 35.2777C40.7223 35.2773 41.5691 35.2768 42.4159 35.2802C42.6104 35.281 42.6969 35.1742 42.7683 35.0169C42.9247 34.6728 43.0824 34.3292 43.2401 33.9857C43.5347 33.3437 43.8294 32.7018 44.1149 32.0559C44.2156 31.8281 44.3452 31.7428 44.5894 31.7468C45.1498 31.7562 45.7103 31.756 46.282 31.7557ZM45.8533 28.3426L46.3587 27.2394C47.5692 24.6336 48.7602 22.0684 49.9779 19.4457L49.984 19.4326C51.0817 21.7857 52.1617 24.1149 53.2437 26.4485L53.2506 26.4633C53.5408 27.0893 53.8312 27.7155 54.1221 28.3426H45.8533Z" fill="#fff"/>
<path fill-rule="evenodd" clip-rule="evenodd" d="M62.5216 20.79V41H65.7243V33.3798C65.7688 33.4212 65.8091 33.4579 65.8463 33.4918C65.9183 33.5574 65.9791 33.6129 66.0363 33.6714C66.8001 34.4524 67.6669 35.0713 68.7335 35.3677C69.6158 35.6128 70.5123 35.6803 71.4254 35.5847C72.7945 35.4413 74.0083 34.9393 75.0315 34.0191C76.3892 32.7982 77.065 31.2234 77.3268 29.4475C77.4326 28.7294 77.392 28.011 77.3513 27.2917C77.3447 27.1754 77.3382 27.0589 77.3322 26.9425C77.2825 25.9725 77.0324 25.0623 76.6184 24.1891C75.8678 22.606 74.6936 21.4758 73.0554 20.8399C71.7678 20.3401 70.4428 20.358 69.112 20.5961C67.7951 20.8318 66.7352 21.5241 65.8587 22.5158C65.8296 22.5487 65.8098 22.5899 65.79 22.6311C65.7807 22.6502 65.7715 22.6694 65.7613 22.6878L65.6795 22.6347V20.7826C65.2924 20.7839 64.909 20.7832 64.5275 20.7826C63.8566 20.7814 63.1914 20.7802 62.5216 20.79ZM69.1262 23.5223C69.151 23.5174 69.1758 23.5126 69.2006 23.5078C70.0396 23.4039 70.8018 23.4838 71.5391 23.7812C72.7334 24.2631 73.5194 25.1196 73.889 26.3507C74.2201 27.4534 74.2561 28.5648 73.9172 29.6729C73.4129 31.3219 72.0757 32.3814 70.361 32.545C69.625 32.6152 68.9074 32.5908 68.2174 32.3159C66.9754 31.8212 66.1432 30.9429 65.776 29.6444C65.4121 28.3579 65.424 27.0913 65.9803 25.8545C66.5648 24.5548 67.5721 23.8029 68.9661 23.5528C69.0196 23.5432 69.0729 23.5328 69.1262 23.5223Z" fill="#fff"/>
<path fill-rule="evenodd" clip-rule="evenodd" d="M107.016 34.7064C105.211 35.7285 103.346 35.8772 101.461 35.0843C99.9872 34.4647 99.171 33.2929 98.9678 31.6971C98.8489 30.7641 98.9583 29.873 99.3756 29.0249C99.8025 28.1574 100.483 27.5562 101.342 27.1398C102.078 26.7832 102.862 26.6222 103.67 26.543C104.242 26.4869 104.814 26.4247 105.386 26.3625C105.655 26.3332 105.925 26.3039 106.194 26.2752C106.588 26.2333 106.982 26.192 107.376 26.1508L107.53 26.1347C107.545 26.1331 107.561 26.1323 107.577 26.1316C107.591 26.1309 107.605 26.1302 107.62 26.1289C108.28 26.0653 108.487 25.8052 108.414 25.1402C108.327 24.3436 107.897 23.8015 107.145 23.567C105.865 23.1676 104.592 23.2097 103.36 23.7781C102.716 24.0755 102.264 24.5584 102.022 25.2312C101.998 25.2983 101.971 25.3641 101.94 25.4372L101.94 25.4384L101.939 25.4396C101.924 25.4764 101.908 25.5151 101.891 25.5566C101.736 25.4596 101.584 25.3638 101.432 25.2688L101.424 25.2641L101.422 25.2623C101.053 25.0315 100.692 24.8053 100.332 24.5775C100.112 24.4384 99.8945 24.2957 99.677 24.1531L99.6664 24.1462L99.6643 24.1448C99.6281 24.1211 99.5918 24.0973 99.5556 24.0736C99.3462 23.9365 99.338 23.9187 99.4282 23.6873C99.7945 22.7476 100.401 22.0013 101.255 21.4656C102.211 20.866 103.264 20.5649 104.384 20.4934C105.229 20.4395 106.075 20.3959 106.92 20.5107C108.002 20.6578 109.016 20.9741 109.88 21.6734C110.662 22.3072 111.107 23.147 111.355 24.1057C111.5 24.6685 111.552 25.2412 111.552 25.8218C111.553 26.8039 111.558 27.7859 111.564 28.768C111.566 29.1407 111.568 29.5134 111.57 29.8862C111.572 30.2131 111.573 30.5399 111.575 30.8668L111.58 31.815C111.585 32.8955 111.591 33.9761 111.596 35.0566C111.596 35.0904 111.594 35.1242 111.592 35.1573C111.591 35.1725 111.59 35.1875 111.59 35.2023C111.374 35.2701 109.091 35.2941 108.439 35.2346V33.4634L108.38 33.4332C108.317 33.5027 108.255 33.5735 108.193 33.6444C108.051 33.8059 107.909 33.9676 107.753 34.1137C107.596 34.2605 107.425 34.3915 107.247 34.5271C107.171 34.5855 107.094 34.6447 107.016 34.7064ZM105.659 28.9429C105.524 28.9609 105.389 28.9792 105.254 28.9974C104.946 29.0393 104.638 29.0811 104.329 29.1186C103.901 29.1705 103.489 29.2723 103.109 29.4802C102.163 29.9972 101.914 31.2071 102.586 32.0365C102.88 32.3989 103.272 32.5998 103.72 32.7034C104.273 32.831 104.822 32.794 105.378 32.7081C106.699 32.5045 108.284 31.4429 108.411 29.504C108.424 29.3114 108.421 29.1177 108.417 28.9168C108.416 28.8215 108.414 28.7245 108.414 28.6253C108.364 28.629 108.318 28.632 108.275 28.6347C108.192 28.64 108.121 28.6445 108.05 28.6531C107.716 28.6934 107.381 28.7341 107.043 28.7753C106.592 28.8301 106.134 28.8859 105.659 28.9429Z" fill="#fff"/>
<path d="M95.8017 30.9157C94.7074 31.9175 93.4958 32.5411 91.9884 32.5233C90.4281 32.469 89.2047 31.8449 88.4107 30.5133C87.7503 29.4057 87.6143 28.1923 87.8664 26.9368C88.3986 24.2859 90.7643 23.2318 92.8224 23.5899C93.6794 23.739 94.429 24.094 95.1064 24.6244C95.2316 24.7224 95.3583 24.8186 95.4882 24.9171L95.4893 24.9179L95.4901 24.9185C95.5509 24.9646 95.6124 25.0113 95.6748 25.0589L97.5816 22.5702C97.5323 22.5231 97.4859 22.4777 97.4411 22.4337C97.3488 22.3432 97.2628 22.2589 97.1719 22.1808C95.9017 21.0896 94.4161 20.545 92.7554 20.4452C91.9849 20.3989 91.2258 20.4883 90.4675 20.6132C87.6265 21.0811 85.4107 23.1496 84.734 25.9357C84.4217 27.2216 84.4536 28.5144 84.6717 29.7917C85.0416 31.9584 86.2197 33.6035 88.1373 34.6848C89.7348 35.5856 91.4768 35.7371 93.2618 35.5433C94.1892 35.4426 95.0594 35.1159 95.9038 34.7352C96.5631 34.4379 97.113 33.9777 97.6402 33.4613C97.4787 33.2369 97.3183 33.0131 97.1582 32.7897L97.1563 32.7871C96.7074 32.1607 96.261 31.5379 95.8017 30.9157Z" fill="#fff"/>
<path d="M82.5377 35.2334H79.387V20.7985H82.5377V35.2334Z" fill="#fff"/>
<path fill-rule="evenodd" clip-rule="evenodd" d="M117.548 33.6328C117.614 33.755 117.68 33.8775 117.753 34.0207C117.989 34.381 118.203 34.4518 118.566 34.3L118.082 33.4741C118.102 33.46 118.119 33.4476 118.136 33.4362C118.167 33.4142 118.193 33.3958 118.218 33.3764C118.517 33.1439 118.637 32.8245 118.555 32.5206C118.386 31.8867 117.9 31.8936 117.071 31.9053C116.952 31.907 116.825 31.9088 116.691 31.9088V34.3088H117.223V33.5037C117.411 33.5037 117.483 33.5138 117.548 33.6328ZM117.226 32.3941C117.695 32.3941 117.964 32.3941 117.964 32.7003C117.964 33.0065 117.695 33.0065 117.226 33.0065V32.3941Z" fill="#fff"/>
<path fill-rule="evenodd" clip-rule="evenodd" d="M117.349 30.736C117.78 30.7129 118.174 30.7665 118.541 30.9352C119.417 31.3381 119.874 32.0374 119.934 32.9923C120.012 34.2563 119.244 35.2369 118.159 35.4881C116.634 35.8413 115.408 34.9525 115.16 33.6722C114.864 32.1442 115.833 30.9577 117.086 30.7718C117.164 30.7601 117.243 30.7484 117.349 30.736ZM115.948 32.3126C115.334 33.4711 116.135 35.0427 117.697 34.9138C118.444 34.8521 119.047 34.3603 119.236 33.6605C119.444 32.8927 119.17 32.1009 118.555 31.6762C117.84 31.1819 116.555 31.226 115.948 32.3126Z" fill="#fff"/>
</g>
</svg>
