<svg xmlns="http://www.w3.org/2000/svg" width="24" height="24" fill="none" viewBox="0 0 24 24">
  <path stroke="#3B444C" stroke-linecap="round" stroke-linejoin="round" stroke-width="1.5" d="M10.428 21.75v-5.571H3.086c-.461 0-.835-.39-.835-.871V3.121c0-.481.374-.871.836-.871h15.042c.461 0 .835.39.835.87v4.701M10.429 21.75h3.112m-3.112 0H7.315M2.25 5.732h16.714m-.487 10.383v-.374m0 .374a.358.358 0 0 1-.273-.127m.273.127a.354.354 0 0 0 .15-.033m.213-.341a.38.38 0 0 0-.087-.244m.087.244h-.363m.363 0a.379.379 0 0 1-.09.247m-.273-.621c.11 0 .21.05.276.13m-.276-.13v.374m0-.374a.34.34 0 0 0-.143.03m-.221.344h.364m-.364 0a.38.38 0 0 1 .103-.26m-.103.26c0 .043.007.084.02.123m.62-.367-.276.244m0 0-.273.247m.273-.247-.261-.26m.26.26.274.247m-.273-.247-.344.123m.344-.123-.143-.344m.143.344.15.34m-.423-.093a.375.375 0 0 1-.07-.124m.082-.384a.363.363 0 0 1 .118-.083m.416.59a.366.366 0 0 1-.123.095m3.123 1.386v-3.454a.286.286 0 0 0-.139-.245l-3-1.733a.267.267 0 0 0-.268 0l-3 1.733a.286.286 0 0 0-.139.244v3.455a.287.287 0 0 0 .138.244l3.001 1.734a.268.268 0 0 0 .267 0l3.001-1.734a.277.277 0 0 0 .139-.244Z" vector-effect="non-scaling-stroke"/>
</svg>
