<svg xmlns="http://www.w3.org/2000/svg" width="24" height="24" fill="none" viewBox="0 0 24 24">
  <g clip-path="url(#a)">
    <rect width="24" height="24" fill="#E5F2FF" rx="6"/>
    <path fill="#E9654B" d="M8.34 19.817s-.16.478-.399.717a.722.722 0 0 1-.557.239 9.215 9.215 0 0 1-1.195.239s.558.08 1.195.16c.239 0 .239 0 .398.079.398 0 .557-.24.557-.24v-1.194Zm7.326 0s.16.478.398.717a.722.722 0 0 0 .558.239c.392.106.791.186 1.194.239 0 0-.557.08-1.274.16-.24 0-.24 0-.398.079-.478 0-.558-.24-.558-.24l.08-1.194Z"/>
    <path fill="#B6CFEA" d="M12.082 20.534a8.6 8.6 0 1 0 0-17.201 8.6 8.6 0 0 0 0 17.201Z"/>
    <path fill="#E6F5F8" d="M12.082 20.216a8.282 8.282 0 1 0 0-16.565 8.282 8.282 0 0 0 0 16.565Z"/>
    <path fill="#D0E8F0" d="M12.082 18.862a6.769 6.769 0 1 0 0-13.538 6.769 6.769 0 0 0 0 13.538Z"/>
    <path fill="#EE794B" d="M8.1 15.278s.558 9 .558 9.158c0 .08.08.24-.319.399-.398.159-1.672.477-1.672.477h1.911c.876 0 .876-.716.876-.876 0-.159.239-3.583.239-3.583s.08 4.061.08 4.22c0 .16-.08.399-.637.558l-1.593.319h1.831c1.115 0 1.115-.717 1.115-.717l.24-3.584s.079 3.584.079 3.982c0 .319-.239.557-1.115.717-.557.159-1.274.318-1.274.318h2.07c1.036-.08 1.195-.796 1.195-.796l1.752-8.92L8.1 15.279Z"/>
    <path fill="#EE794B" d="M16.064 15.278s-.557 9-.557 9.158c0 .08-.08.24.318.399.398.159 1.672.477 1.672.477h-1.91c-.877 0-.877-.716-.877-.876 0-.159-.239-3.583-.239-3.583s-.08 4.061-.08 4.22c0 .16.08.399.638.558l1.593.319H14.79c-1.115 0-1.115-.717-1.115-.717l-.239-3.584s-.08 3.584-.08 3.982c0 .319.24.557 1.115.717a26.75 26.75 0 0 0 1.274.318h-2.07c-1.035-.08-1.195-.796-1.195-.796l-1.752-8.92 5.336-1.672Zm.08-4.38c0 2.23-1.832 3.982-3.982 3.982-2.15 0-3.982-1.832-3.982-3.982 0-2.15 1.832-3.982 3.982-3.982 2.15 0 3.982 1.752 3.982 3.982Z"/>
    <mask id="b" width="9" height="12" x="8" y="10" maskUnits="userSpaceOnUse" style="mask-type:luminance">
      <path fill="#fff" d="m16.144 10.738-.478 10.91H8.499L8.1 10.738"/>
    </mask>
    <g mask="url(#b)">
      <path fill="#EE794B" d="M12.162 20.135a7.088 7.088 0 1 0 0-14.175 7.088 7.088 0 0 0 0 14.175Z"/>
    </g>
    <path fill="#E34E3B" d="M15.905 15.278s.478-4.22-.16-5.813c-1.194-2.788-3.981-2.549-3.981-2.549s1.592.637 1.672 3.026c.08 1.673 0 4.142 0 4.142l2.469 1.194Z" opacity=".22"/>
    <path fill="#FBDFC3" d="M10.49 9.305a.557.557 0 1 0 0-1.115.557.557 0 0 0 0 1.115Z" opacity=".5"/>
    <path fill="#010101" d="M13.515 16.871c0 1.354-.637 2.23-1.433 2.23s-1.433-1.035-1.433-2.39c0 0 .637 1.275 1.513 1.275.876 0 1.353-1.115 1.353-1.115Z"/>
    <path fill="#fff" d="M13.515 16.87c0 .877-.637 1.354-1.433 1.354s-1.354-.637-1.354-1.433c0 0 .637.796 1.513.796.876 0 1.274-.716 1.274-.716Z"/>
    <path fill="#E9654B" d="M14.87 15.597a2.469 2.469 0 1 0 0-4.938 2.469 2.469 0 0 0 0 4.938Zm-5.575 0a2.469 2.469 0 1 0 0-4.938 2.469 2.469 0 0 0 0 4.938Z"/>
    <path fill="#fff" d="M14.87 15.04a1.911 1.911 0 1 0 0-3.823 1.911 1.911 0 0 0 0 3.822Zm-5.734 0a1.911 1.911 0 1 0 0-3.823 1.911 1.911 0 0 0 0 3.822Z"/>
    <path fill="#010101" d="M9.136 13.446a.557.557 0 1 0 0-1.115.557.557 0 0 0 0 1.115Zm5.734 0a.557.557 0 1 0 0-1.115.557.557 0 0 0 0 1.115Z"/>
    <path fill="#B6CFEA" d="M3.322 14.084a.378.378 0 0 1-.398-.398V10.5a.377.377 0 0 1 .398-.398.376.376 0 0 1 .398.398v3.186a.376.376 0 0 1-.398.398Zm17.361 0a.378.378 0 0 1-.398-.398V10.5a.376.376 0 0 1 .398-.398.376.376 0 0 1 .398.398v3.186a.376.376 0 0 1-.398.398Z"/>
    <path fill="#fff" d="M9.375 5.961a.398.398 0 1 0 0-.796.398.398 0 0 0 0 .796ZM6.508 16.314a.293.293 0 0 1-.24-.08c-.955-1.195-1.433-2.708-1.433-4.22a7.106 7.106 0 0 1 .956-3.584 7.794 7.794 0 0 1 2.548-2.55.35.35 0 0 1 .398.08.35.35 0 0 1-.08.398 6.428 6.428 0 0 0-3.264 5.575 6.276 6.276 0 0 0 1.354 3.902c.08.08.08.318-.08.398-.08.08-.08.08-.16.08Z"/>
    <path fill="#E9654B" d="M15.666 20.057v-.637c-1.115.637-2.31 1.274-3.743 1.274-1.593 0-2.628-.717-3.663-1.274l.08.637s1.194 1.274 3.663 1.274c2.31-.08 3.663-1.274 3.663-1.274Z" opacity=".25"/>
  </g>
  <defs>
    <clipPath id="a">
      <rect width="24" height="24" fill="#fff" rx="6"/>
    </clipPath>
  </defs>
</svg>
