<svg xmlns="http://www.w3.org/2000/svg" width="24" height="24" fill="none" viewBox="0 0 24 24">
  <path fill="url(#a)" d="M2 4a2 2 0 0 1 2-2h16a2 2 0 0 1 2 2v16a2 2 0 0 1-2 2H4a2 2 0 0 1-2-2V4Z"/>
  <path fill="#fff" fill-rule="evenodd" d="m14.887 12.787-1.283.963 1.284.963-.525.7-1.75-1.313a.437.437 0 0 1 0-.7l1.75-1.313.524.7Zm-7.262-5.6c0-.241.196-.437.438-.437h2.187v.875H9.132l1.43 1.442-.623.616L8.5 8.231v1.144h-.875V7.187Zm10.031 4.976-1.75 4.375-.812-.325 1.75-4.375.812.325ZM19 8.937v9.626a.437.437 0 0 1-.438.437H11.56a.439.439 0 0 1-.438-.438l.004-2.188.875.002-.003 1.749h6.128v-8.75h-5.25V8.5h5.688c.242 0 .437.196.437.438Zm-7.438 1.313a.438.438 0 1 1 0 .875.438.438 0 0 1 0-.875Zm-5.25 7.875a.438.438 0 1 1 .002-.876.438.438 0 0 1-.002.876Zm0-6.125a.438.438 0 1 1 0 .875.438.438 0 0 1 0-.875Zm0-6.125a.438.438 0 1 1 0 .875.438.438 0 0 1 0-.875ZM12 13.573V11.92a1.31 1.31 0 0 0 .875-1.232c0-.723-.589-1.312-1.313-1.312a1.31 1.31 0 0 0-.438 2.544v1.654a.424.424 0 0 1-.23.371c-.053.012-1.301.32-2.374.94-.518.285-1.253 1.072-1.658 1.615a1.52 1.52 0 0 0-.112-.043V13.67a1.31 1.31 0 0 0 .875-1.232c0-.57-.367-1.05-.875-1.231V7.545a1.31 1.31 0 0 0 .875-1.232C7.625 5.588 7.036 5 6.312 5a1.31 1.31 0 0 0-.438 2.545v3.66A1.31 1.31 0 0 0 5 12.437c0 .57.367 1.051.875 1.232v2.787A1.31 1.31 0 0 0 5 17.688C5 18.41 5.589 19 6.313 19c.723 0 1.312-.589 1.312-1.313 0-.204-.05-.397-.136-.57.27-.375 1.005-1.22 1.46-1.47.97-.562 2.138-.85 2.208-.872.512-.203.843-.674.843-1.202Z" clip-rule="evenodd"/>
  <defs>
    <linearGradient id="a" x1="2" x2="2002" y1="2002" y2="2" gradientUnits="userSpaceOnUse">
      <stop stop-color="#2E27AD"/>
      <stop offset="1" stop-color="#527FFF"/>
    </linearGradient>
  </defs>
</svg>