<!--
  - Copyright (c) 2024. Devtron Inc.
  -
  - Licensed under the Apache License, Version 2.0 (the "License");
  - you may not use this file except in compliance with the License.
  - You may obtain a copy of the License at
  -
  -     http://www.apache.org/licenses/LICENSE-2.0
  -
  - Unless required by applicable law or agreed to in writing, software
  - distributed under the License is distributed on an "AS IS" BASIS,
  - WITHOUT WARRANTIES OR CONDITIONS OF ANY KIND, either express or implied.
  - See the License for the specific language governing permissions and
  - limitations under the License.
  -->

<svg width="24" height="24" viewBox="0 0 24 24" fill="none" xmlns="http://www.w3.org/2000/svg">
<path d="M8.81856 3.00022H14.4713L8.6032 20.3867C8.54289 20.5654 8.42807 20.7206 8.2749 20.8306C8.12173 20.9406 7.93793 20.9997 7.74937 20.9998H3.35016C3.20729 20.9998 3.06647 20.9658 2.93935 20.9006C2.81223 20.8354 2.70246 20.7408 2.61913 20.6248C2.5358 20.5088 2.48129 20.3745 2.46013 20.2332C2.43896 20.0919 2.45174 19.9476 2.49741 19.8123L7.96451 3.61329C8.0248 3.43456 8.13963 3.27924 8.29285 3.16922C8.44606 3.0592 8.62994 3.00001 8.81856 3V3.00022Z" fill="url(#paint0_linear_702_1773)"/>
<path d="M17.0325 14.6621H8.06865C7.98531 14.662 7.90388 14.687 7.83496 14.7339C7.76604 14.7807 7.71282 14.8472 7.68225 14.9248C7.65168 15.0023 7.64516 15.0872 7.66355 15.1685C7.68193 15.2498 7.72437 15.3237 7.78534 15.3805L13.5453 20.7566C13.713 20.9131 13.9338 21 14.1632 21H19.2388L17.0325 14.6621Z" fill="#0078D4"/>
<path d="M8.81888 3.00001C8.62819 2.99927 8.44227 3.05953 8.28826 3.17198C8.13426 3.28443 8.02024 3.44317 7.96287 3.62502L2.50445 19.7973C2.45571 19.9331 2.44041 20.0788 2.45984 20.2218C2.47927 20.3648 2.53287 20.5011 2.61609 20.619C2.69931 20.7369 2.80972 20.8331 2.93796 20.8993C3.06621 20.9656 3.20852 20.9999 3.35286 20.9996H7.86561C8.03369 20.9695 8.19078 20.8954 8.32084 20.7848C8.4509 20.6742 8.54928 20.5311 8.60591 20.37L9.69442 17.162L13.5826 20.7885C13.7455 20.9233 13.9499 20.9978 14.1614 20.9996H19.2182L17.0003 14.6617L10.535 14.6632L14.492 3.00001H8.81888Z" fill="url(#paint1_linear_702_1773)"/>
<path d="M16.0384 3.61221C15.9782 3.43376 15.8635 3.2787 15.7105 3.16887C15.5575 3.05904 15.3739 2.99998 15.1856 3H8.88574C9.07406 3.00001 9.25763 3.05909 9.41061 3.16891C9.56359 3.27874 9.67826 3.43378 9.73849 3.61221L15.2058 19.8118C15.2515 19.9472 15.2643 20.0916 15.2432 20.2329C15.222 20.3742 15.1675 20.5085 15.0842 20.6246C15.0009 20.7407 14.8911 20.8353 14.7639 20.9005C14.6368 20.9657 14.496 20.9998 14.3531 20.9998H20.6531C20.796 20.9997 20.9369 20.9657 21.064 20.9004C21.1911 20.8352 21.3008 20.7406 21.3841 20.6245C21.4674 20.5084 21.5219 20.3742 21.5431 20.2328C21.5642 20.0915 21.5514 19.9472 21.5057 19.8118L16.0384 3.61221Z" fill="url(#paint2_linear_702_1773)"/>
<defs>
<linearGradient id="paint0_linear_702_1773" x1="10.8788" y1="4.33405" x2="5.00832" y2="21.6769" gradientUnits="userSpaceOnUse">
<stop stop-color="#114A8B"/>
<stop offset="1" stop-color="#0669BC"/>
</linearGradient>
<linearGradient id="paint1_linear_702_1773" x1="12.7129" y1="12.4161" x2="11.355" y2="12.8752" gradientUnits="userSpaceOnUse">
<stop stop-opacity="0.3"/>
<stop offset="0.071" stop-opacity="0.2"/>
<stop offset="0.321" stop-opacity="0.1"/>
<stop offset="0.623" stop-opacity="0.05"/>
<stop offset="1" stop-opacity="0"/>
</linearGradient>
<linearGradient id="paint2_linear_702_1773" x1="11.9657" y1="3.828" x2="18.4097" y2="20.9961" gradientUnits="userSpaceOnUse">
<stop stop-color="#3CCBF4"/>
<stop offset="1" stop-color="#2892DF"/>
</linearGradient>
</defs>
</svg>
