<svg width="24" height="24" viewBox="0 0 24 24" fill="none" xmlns="http://www.w3.org/2000/svg">
    <path
        data-style-override="false"
        d="M7.25285 10.8057C7.25285 11.0735 7.2818 11.2906 7.33246 11.4498C7.39035 11.609 7.46272 11.7827 7.56403 11.9709C7.60022 12.0288 7.61469 12.0867 7.61469 12.1373C7.61469 12.2097 7.57127 12.2821 7.47719 12.3544L7.02127 12.6584C6.95614 12.7018 6.89101 12.7235 6.83311 12.7235C6.76075 12.7235 6.68838 12.6873 6.61601 12.6222C6.51469 12.5136 6.42785 12.3978 6.35548 12.2821C6.28311 12.159 6.21075 12.0215 6.13114 11.8551C5.56667 12.5209 4.85746 12.8538 4.00351 12.8538C3.39561 12.8538 2.91075 12.6801 2.55614 12.3327C2.20154 11.9853 2.02061 11.5222 2.02061 10.9432C2.02061 10.3281 2.23772 9.82876 2.67917 9.45245C3.12061 9.07613 3.7068 8.88797 4.45219 8.88797C4.69825 8.88797 4.95154 8.90968 5.2193 8.94587C5.48706 8.98205 5.76206 9.03995 6.05154 9.10508V8.57679C6.05154 8.02679 5.93575 7.64324 5.7114 7.41889C5.47982 7.19455 5.08904 7.086 4.5318 7.086C4.27851 7.086 4.01798 7.11495 3.75022 7.18008C3.48246 7.24521 3.22193 7.32482 2.96864 7.42613C2.85285 7.47679 2.76601 7.50574 2.71535 7.52021C2.66469 7.53468 2.62851 7.54192 2.59956 7.54192C2.49825 7.54192 2.44759 7.46955 2.44759 7.31758V6.96297C2.44759 6.84718 2.46206 6.76034 2.49825 6.70968C2.53443 6.65903 2.59956 6.60837 2.70088 6.55771C2.95417 6.42745 3.25811 6.31889 3.61272 6.23205C3.96732 6.13797 4.34364 6.09455 4.74167 6.09455C5.60285 6.09455 6.23246 6.28995 6.63772 6.68074C7.03575 7.07153 7.23838 7.66495 7.23838 8.461V10.8057H7.25285ZM4.31469 11.9057C4.55351 11.9057 4.79956 11.8623 5.06009 11.7755C5.32061 11.6886 5.55219 11.5294 5.74759 11.3123C5.86338 11.1748 5.95022 11.0228 5.99364 10.8492C6.03706 10.6755 6.06601 10.4656 6.06601 10.2196V9.9156C5.85614 9.86495 5.6318 9.82153 5.40022 9.79258C5.16864 9.76363 4.9443 9.74916 4.71996 9.74916C4.23509 9.74916 3.88048 9.84324 3.64167 10.0386C3.40285 10.234 3.28706 10.509 3.28706 10.8709C3.28706 11.211 3.3739 11.4643 3.55482 11.638C3.72851 11.8189 3.9818 11.9057 4.31469 11.9057ZM10.1259 12.6873C9.99561 12.6873 9.90877 12.6656 9.85088 12.6149C9.79298 12.5715 9.74232 12.4702 9.6989 12.3327L7.99825 6.73863C7.95482 6.59389 7.93311 6.49981 7.93311 6.44916C7.93311 6.33337 7.99101 6.26824 8.1068 6.26824H8.81601C8.95351 6.26824 9.04759 6.28995 9.09825 6.3406C9.15614 6.38403 9.19956 6.48534 9.24298 6.62284L10.4588 11.4136L11.5877 6.62284C11.6239 6.4781 11.6673 6.38403 11.7252 6.3406C11.7831 6.29718 11.8844 6.26824 12.0147 6.26824H12.5936C12.7311 6.26824 12.8252 6.28995 12.8831 6.3406C12.941 6.38403 12.9917 6.48534 13.0206 6.62284L14.164 11.4715L15.416 6.62284C15.4594 6.4781 15.5101 6.38403 15.5607 6.3406C15.6186 6.29718 15.7127 6.26824 15.843 6.26824H16.516C16.6318 6.26824 16.6969 6.32613 16.6969 6.44916C16.6969 6.48534 16.6897 6.52153 16.6825 6.56495C16.6752 6.60837 16.6607 6.66626 16.6318 6.74587L14.8877 12.3399C14.8443 12.4847 14.7936 12.5788 14.7357 12.6222C14.6778 12.6656 14.5838 12.6946 14.4607 12.6946H13.8384C13.7009 12.6946 13.6068 12.6728 13.5489 12.6222C13.491 12.5715 13.4403 12.4774 13.4114 12.3327L12.2897 7.66495L11.1752 12.3255C11.139 12.4702 11.0956 12.5643 11.0377 12.6149C10.9798 12.6656 10.8785 12.6873 10.7482 12.6873H10.1259ZM19.4252 12.8827C19.0489 12.8827 18.6726 12.8393 18.3107 12.7524C17.9489 12.6656 17.6667 12.5715 17.4785 12.463C17.3627 12.3978 17.2831 12.3255 17.2542 12.2603C17.2252 12.1952 17.2107 12.1228 17.2107 12.0577V11.6886C17.2107 11.5367 17.2686 11.4643 17.3772 11.4643C17.4206 11.4643 17.464 11.4715 17.5075 11.486C17.5509 11.5005 17.616 11.5294 17.6884 11.5584C17.9344 11.6669 18.2022 11.7538 18.4844 11.8117C18.7739 11.8696 19.0561 11.8985 19.3456 11.8985C19.8015 11.8985 20.1561 11.8189 20.4022 11.6597C20.6482 11.5005 20.7785 11.2689 20.7785 10.9722C20.7785 10.7696 20.7134 10.6031 20.5831 10.4656C20.4529 10.3281 20.2068 10.2051 19.8522 10.0893L18.8028 9.76363C18.2746 9.59718 17.8838 9.35113 17.645 9.02547C17.4061 8.70705 17.2831 8.35245 17.2831 7.97613C17.2831 7.67218 17.3482 7.40442 17.4785 7.17284C17.6088 6.94126 17.7825 6.73863 17.9996 6.57942C18.2167 6.41297 18.4627 6.28995 18.7522 6.2031C19.0417 6.11626 19.3456 6.08008 19.664 6.08008C19.8232 6.08008 19.9897 6.08731 20.1489 6.10903C20.3153 6.13074 20.4673 6.15968 20.6193 6.18863C20.764 6.22481 20.9015 6.261 21.0318 6.30442C21.1621 6.34784 21.2634 6.39126 21.3357 6.43468C21.4371 6.49258 21.5094 6.55047 21.5528 6.6156C21.5963 6.6735 21.618 6.7531 21.618 6.85442V7.19455C21.618 7.34653 21.5601 7.42613 21.4515 7.42613C21.3936 7.42613 21.2996 7.39718 21.1765 7.33929C20.764 7.15113 20.3009 7.05705 19.7871 7.05705C19.3746 7.05705 19.0489 7.12218 18.8246 7.25968C18.6002 7.39718 18.4844 7.60705 18.4844 7.90376C18.4844 8.10639 18.5568 8.28008 18.7015 8.41758C18.8463 8.55508 19.114 8.69258 19.4976 8.8156L20.5252 9.14126C21.0463 9.30771 21.4226 9.53929 21.6469 9.836C21.8713 10.1327 21.9798 10.4728 21.9798 10.8492C21.9798 11.1603 21.9147 11.4426 21.7917 11.6886C21.6614 11.9347 21.4877 12.1518 21.2634 12.3255C21.039 12.5064 20.7713 12.6367 20.4601 12.7307C20.1344 12.8321 19.7943 12.8827 19.4252 12.8827Z"
        fill="#1D2730" />
    <path data-style-override="false" fill-rule="evenodd" clip-rule="evenodd"
        d="M20.7928 16.4002C18.4118 18.1588 14.9526 19.0923 11.9783 19.0923C7.80987 19.0923 4.05395 17.5509 1.21711 14.989C0.992766 14.7864 1.1954 14.5114 1.46316 14.6706C4.53158 16.4509 8.31645 17.5291 12.2316 17.5291C14.873 17.5291 17.775 16.9791 20.4454 15.8502C20.8434 15.6693 21.1836 16.1107 20.7928 16.4002Z"
        fill="#FF9900" />
    <path data-style-override="false" fill-rule="evenodd" clip-rule="evenodd"
        d="M21.7842 15.2712C21.4803 14.8804 19.7724 15.0831 18.998 15.1772C18.7664 15.2061 18.7303 15.0035 18.9401 14.8515C20.3007 13.8962 22.5368 14.1712 22.7974 14.4897C23.0579 14.8153 22.725 17.0515 21.4513 18.1225C21.2559 18.289 21.0678 18.2022 21.1546 17.985C21.4441 17.2686 22.0882 15.6548 21.7842 15.2712Z"
        fill="#FF9900" />
</svg>