<svg xmlns="http://www.w3.org/2000/svg" width="24" height="24" fill="none" viewBox="0 0 24 24">
  <path stroke="#3B444C" stroke-width="1.5" d="M8.108 18.162a3.83 3.83 0 0 0-2.27-2.27l-3.137-1.156a.69.69 0 0 1 0-1.293l3.137-1.157a3.83 3.83 0 0 0 2.27-2.27L9.264 6.88a.69.69 0 0 1 1.293 0l1.157 3.138a3.83 3.83 0 0 0 2.27 2.27l3.137 1.155a.69.69 0 0 1 0 1.294l-3.138 1.156a3.83 3.83 0 0 0-2.27 2.27L10.558 21.3a.69.69 0 0 1-1.294 0l-1.156-3.137Zm9.34-10.579a1.741 1.741 0 0 0-1.031-1.031l-1.426-.526a.313.313 0 0 1 0-.588l1.426-.525a1.741 1.741 0 0 0 1.031-1.032l.526-1.426a.313.313 0 0 1 .588 0l.525 1.426a1.74 1.74 0 0 0 1.032 1.032l1.426.525a.313.313 0 0 1 0 .588l-1.426.526a1.74 1.74 0 0 0-1.032 1.031l-.525 1.426a.313.313 0 0 1-.588 0l-.526-1.426Z" vector-effect="non-scaling-stroke"/>
</svg>
