<svg xmlns="http://www.w3.org/2000/svg" width="24" height="24" viewBox="0 0 24 24" fill="none">
  <path d="M13.3731 6.99902C15.5376 6.98146 17.6318 7.66777 17.4913 9.74414C17.4209 11.3456 15.1334 13.6162 13.919 15.2354C13.4086 15.9393 13.3027 16.4151 14.2003 16.3623C17.4033 16.1511 20.3074 15.0414 23.0001 13.8799C21.1698 15.1294 11.7367 19.8464 11.7012 16.626C11.7188 16.2212 11.9118 15.7808 12.211 15.3232C12.5102 14.8657 12.9332 14.3911 13.3555 13.8984C14.0067 13.1593 15.6078 11.3812 16.1358 10.3252C16.2238 10.114 16.2764 9.92011 16.3116 9.76172C16.3817 8.77647 15.168 8.40678 13.3204 7.89648L12.9678 8.10742L13.672 8.61816C10.6098 9.16373 8.74392 9.76178 6.50887 10.5361L6.80867 11.3457L5.6993 12.4551C6.12165 12.5959 6.57961 12.666 7.05476 12.666C8.16352 12.666 9.18467 12.2791 9.97664 11.6104C9.76545 11.3112 9.48347 11.1875 9.48347 11.1875C9.48347 11.1875 10.029 11.1703 10.3282 11.6631C10.3326 11.6695 10.5212 11.9492 10.4864 12.3145H10.1524C10.17 12.1737 10.1525 12.0324 10.1173 11.9092C9.25492 12.6307 8.14604 13.0703 6.93172 13.0703C6.29822 13.0703 5.69991 12.9475 5.1368 12.7363V14.1445C4.38008 14.4085 3.02466 15.253 3.04207 16.0625C3.09487 16.4497 3.28893 16.5907 3.46492 16.6963C5.16781 17.679 9.82909 16.3517 9.83601 16.3447C8.14648 17.2071 6.5265 17.8934 4.045 17.999C0.807049 17.9285 0.29712 15.7634 1.8282 13.4932C3.28895 11.1877 5.5768 9.12849 9.25496 7.82617C10.3109 7.4566 11.8597 7.01662 13.3731 6.99902ZM20.3253 16.4854C20.7477 16.4854 21.0821 16.8374 21.0645 17.2422C21.0643 17.6644 20.7299 17.999 20.3253 17.999C19.9207 17.999 19.5862 17.6643 19.586 17.2422C19.586 16.8198 19.9205 16.4854 20.3253 16.4854ZM20.3253 16.6084C19.9733 16.6085 19.6915 16.8902 19.6915 17.2422C19.6917 17.594 19.9735 17.8749 20.3253 17.875C20.6771 17.875 20.9589 17.594 20.9591 17.2422C20.9591 16.8902 20.6773 16.6084 20.3253 16.6084ZM20.3604 16.8545C20.4307 16.8545 20.4834 16.8545 20.5186 16.8721C20.5538 16.8897 20.5889 16.9072 20.6065 16.9424C20.6241 16.9776 20.6427 17.0126 20.6427 17.0654C20.6426 17.1182 20.6241 17.1709 20.5889 17.2061C20.5537 17.2411 20.501 17.2588 20.4307 17.2764C20.4658 17.2939 20.4835 17.2942 20.5011 17.3115C20.5362 17.3291 20.5712 17.3643 20.5538 17.417L20.6954 17.6289H20.5714L20.4659 17.4697C20.4482 17.4172 20.4131 17.3818 20.3956 17.3643L20.3428 17.3115C20.3253 17.3114 20.3077 17.2939 20.2901 17.2939H20.1143V17.6465H20.0089V16.8545H20.3604ZM20.1319 17.1885H20.3604C20.413 17.1885 20.4482 17.1711 20.4659 17.1709L20.5186 17.1182C20.5362 17.1006 20.5362 17.0655 20.5362 17.0479C20.5362 17.0127 20.5187 16.9776 20.5011 16.96C20.4834 16.9424 20.4307 16.9248 20.378 16.9248H20.1319V17.1885Z" fill="#FF6A00"/>
</svg>