<svg xmlns="http://www.w3.org/2000/svg" width="24" height="24" fill="none" viewBox="0 0 24 24">
  <g clip-path="url(#a)">
    <path fill="#FFF5E5" d="M0 6a6 6 0 0 1 6-6h12a6 6 0 0 1 6 6v12a6 6 0 0 1-6 6H6a6 6 0 0 1-6-6V6Z"/>
    <g clip-path="url(#b)">
      <path fill="#72ACE6" d="M15.666 14.944c0 .816-2.463 1.478-5.5 1.478s-5.5-.662-5.5-1.478v-4.4h11v4.4Z"/>
      <path fill="#3385D6" d="M15.666 10.544c0 .816-2.463 1.478-5.5 1.478s-5.5-.662-5.5-1.478v-4.4h11v4.4Z"/>
      <ellipse cx="10.166" cy="6.145" fill="#06C" rx="5.5" ry="1.478"/>
      <path fill="#FFC266" d="M15.65 9.764c.973.002 1.946.019 2.92-.001.416-.009.757.343.757.768v3.521c0 1.472-.01 2.944.006 4.415.006.504-.36.866-.867.864a1938.75 1938.75 0 0 0-10.118-.002c-.373.001-.803-.317-.784-.781.03-.772.007-1.546.007-2.35l.001-3.45c.001-.467.309-.775.773-.778.338-.003.676-.004 1.03-.004.582.003 1.148 0 1.715.006.11.001.174-.034.234-.126.363-.555.737-1.103 1.1-1.658a.861.861 0 0 1 .788-.422c.813.01 1.625 0 2.438-.002Z"/>
    </g>
  </g>
  <defs>
    <clipPath id="a">
      <path fill="#fff" d="M0 0h24v24H0z"/>
    </clipPath>
    <clipPath id="b">
      <path fill="#fff" d="M4 4h16v16H4z"/>
    </clipPath>
  </defs>
</svg>
