<svg xmlns="http://www.w3.org/2000/svg" width="24" height="24" fill="none" viewBox="0 0 24 24">
  <rect width="24" height="24" fill="#FFE5DE" rx="6"/>
  <path stroke="#FF7E5B" stroke-linecap="round" stroke-linejoin="round" d="M5.877 14.146A3.499 3.499 0 0 1 9.37 8.442c.63-1.109 1.408-2.186 2.717-2.728A5 5 0 0 1 18 13.333m-2.586 2H8.587m6.827 0c.324 0 .586.249.586.556v2.222c0 .307-.262.555-.586.555H8.587c-.324 0-.587-.248-.587-.555v-2.222c0-.307.263-.556.587-.556m6.827 0c.324 0 .586-.249.586-.556v-2.222c0-.307-.262-.555-.586-.555H8.587c-.324 0-.587.248-.587.555v2.223c0 .306.263.555.587.555m5.51 1.688h-.778m.778-3.333h-.778" vector-effect="non-scaling-stroke"/>
</svg>
