<svg xmlns="http://www.w3.org/2000/svg" width="24" height="24" fill="none" viewBox="0 0 24 24">
  <g clip-path="url(#a)">
    <path fill="#E5F2FF" d="M0 6a6 6 0 0 1 6-6h12a6 6 0 0 1 6 6v12a6 6 0 0 1-6 6H6a6 6 0 0 1-6-6V6Z"/>
    <g clip-path="url(#b)">
      <path fill="#ABCFF3" d="M16.667 12a4.667 4.667 0 1 1-9.333 0 4.667 4.667 0 0 1 9.333 0Z"/>
      <path fill="#06C" d="M16.167 12a4.167 4.167 0 1 0-8.334 0 4.167 4.167 0 0 0 8.334 0Zm1 0a5.167 5.167 0 1 1-10.333 0 5.167 5.167 0 0 1 10.333 0Z"/>
      <path fill="#06C" d="M4.833 12c0-1.018.213-1.988.597-2.867a.5.5 0 0 1 .917.4 6.167 6.167 0 1 0 1.25-1.85.5.5 0 0 1-.858-.35V5.666a.5.5 0 0 1 1 0v.573A7.167 7.167 0 1 1 4.833 12Z"/>
      <path fill="#06C" d="m9.762 13.53 1.739-1.74V9.335a.5.5 0 1 1 1 0v2.664a.5.5 0 0 1-.146.353l-1.886 1.886a.5.5 0 1 1-.707-.707Z"/>
    </g>
  </g>
  <defs>
    <clipPath id="a">
      <path fill="#fff" d="M0 0h24v24H0z"/>
    </clipPath>
    <clipPath id="b">
      <path fill="#fff" d="M4 4h16v16H4z"/>
    </clipPath>
  </defs>
</svg>
