<svg xmlns="http://www.w3.org/2000/svg" width="24" height="24" fill="none" viewBox="0 0 24 24">
  <rect width="24" height="24" fill="#E5F2FF" rx="6"/>
  <path stroke="#06C" stroke-linecap="round" stroke-linejoin="round" d="M9 12a5 5 0 1 1 5 5H8.5a3.5 3.5 0 1 1 .87-6.891m6.63.157v1.091l-.706-.771a1.83 1.83 0 0 0-.594-.434 1.696 1.696 0 0 0-1.4 0 1.83 1.83 0 0 0-.594.434M12 13.734v-1.091l.706.771c.17.186.372.333.594.434a1.697 1.697 0 0 0 1.4 0c.222-.1.424-.248.594-.434" vector-effect="non-scaling-stroke"/>
</svg>
