<svg xmlns="http://www.w3.org/2000/svg" width="40" height="40" viewBox="0 0 40 40" fill="none" vector-effect="non-scaling-stroke">
  <path d="M29.1648 27.3602C29.1648 29.4009 23.0092 31.0553 15.4158 31.0553C7.8224 31.0553 1.66675 29.4009 1.66675 27.3602C1.66675 25.3195 1.66675 16.361 1.66675 16.361H29.1648C29.1648 16.361 29.1648 26.4272 29.1648 27.3602Z" fill="#72ACE6" vector-effect="non-scaling-stroke" data-style-override="false"/>
  <path d="M29.1648 16.3609C29.1648 18.4017 23.0092 20.056 15.4158 20.056C7.8224 20.056 1.66675 18.4017 1.66675 16.3609C1.66675 14.3202 1.66675 5.36169 1.66675 5.36169H29.1648C29.1648 5.36169 29.1648 15.4279 29.1648 16.3609Z" fill="#3385D6" vector-effect="non-scaling-stroke" data-style-override="false"/>
  <ellipse cx="15.4158" cy="5.36168" rx="13.749" ry="3.69506" fill="#0066CC" vector-effect="non-scaling-stroke" data-style-override="false"/>
  <path d="M29.124 14.4113C31.5572 14.4161 33.9911 14.458 36.4232 14.4082C37.4642 14.3869 38.3177 15.2669 38.3182 16.3284C38.3195 19.2629 38.3186 22.1974 38.3186 25.132C38.3186 28.8108 38.2923 32.49 38.3331 36.1685C38.3471 37.4287 37.4313 38.3331 36.1648 38.329C27.7335 38.3013 19.3021 38.3077 10.8707 38.3243C9.93882 38.3262 8.86327 37.5323 8.90913 36.3711C8.98533 34.4417 8.92891 32.507 8.92801 30.4948C8.92849 27.567 8.92706 24.7189 8.93119 21.8708C8.93288 20.7034 9.70155 19.9346 10.8638 19.9257C11.7079 19.9192 12.552 19.9158 13.4361 19.9166C14.8924 19.9226 16.3087 19.9149 17.7247 19.9305C18.0018 19.9336 18.1593 19.8475 18.3105 19.6164C19.2188 18.2292 20.1517 16.8582 21.0608 15.4716C21.5315 14.7537 22.1542 14.4062 23.0311 14.4165C25.0618 14.4404 27.093 14.4161 29.124 14.4113Z" fill="#FFC266" vector-effect="non-scaling-stroke" data-style-override="false"/>
</svg>