<svg xmlns="http://www.w3.org/2000/svg" width="24" height="24" fill="none" viewBox="0 0 24 24">
  <g clip-path="url(#a)">
    <rect width="24" height="24" fill="#F3F0FF" rx="6"/>
    <path fill="#A393F5" d="M8.752 10.875 12 12.75v3.75l-2.748 1.586a1 1 0 0 1-1 0L6.005 16.79a1 1 0 0 1-.5-.866v-2.596a1 1 0 0 1 .5-.866l2.747-1.586Z"/>
    <path fill="#C5BBFA" d="M14.748 6.836 12.5 5.54a1 1 0 0 0-1 0L9.252 6.836a1 1 0 0 0-.5.866v3.173L12 12.75l3.248-1.875V7.702a1 1 0 0 0-.5-.866Z"/>
    <path fill="#664BEE" d="m12 12.75 3.248-1.875 2.747 1.586a1 1 0 0 1 .5.866v2.596a1 1 0 0 1-.5.866l-2.248 1.297a1 1 0 0 1-1 0L12 16.5v-3.75Z"/>
  </g>
  <defs>
    <clipPath id="a">
      <path fill="#fff" d="M0 0h24v24H0z"/>
    </clipPath>
  </defs>
</svg>
