<svg xmlns="http://www.w3.org/2000/svg" width="24" height="24" fill="none" viewBox="0 0 24 24">
  <g clip-path="url(#a)">
    <rect width="24" height="24" fill="var(--O100)" rx="6"/>
    <path fill="#8898A6" fill-rule="evenodd" d="M17.396 6.271 15.98 7.67a.452.452 0 0 0 0 .643l1.052 1.04c.18.177.47.177.65 0l1.416-1.4a.18.18 0 0 1 .298.08c.268.98.014 2.07-.764 2.838a2.986 2.986 0 0 1-3.13.672l-6.125 6.62a1.646 1.646 0 0 1-2.362.052 1.603 1.603 0 0 1 .06-2.343l6.713-5.984a2.902 2.902 0 0 1 .656-3.156 2.986 2.986 0 0 1 2.871-.755.175.175 0 0 1 .08.294Zm-9.679 10.79c0 .267.22.484.49.484s.49-.217.49-.485a.487.487 0 0 0-.49-.483c-.27 0-.49.216-.49.483Z" clip-rule="evenodd"/>
    <path fill="#F4910D" fill-rule="evenodd" d="m8.355 10.166 1.679-1.659 8.104 8.011c.32.316.32.829 0 1.145l-.52.514a.826.826 0 0 1-1.158 0l-8.105-8.011Z" clip-rule="evenodd"/>
    <path fill="#66757F" fill-rule="evenodd" d="m7.1 11.927.47-.465.044-.31a.485.485 0 0 1 .654-.38l2.098-2.074-.083-.655a1.49 1.49 0 0 1 .432-1.246 1.8 1.8 0 0 1 1.266-.518h.833c-1.312-1.296-2.55-1.368-3.716-.216L6.212 8.916a.826.826 0 0 1-.627.236L5.21 9.13l-.47.464a.803.803 0 0 0 0 1.145l1.201 1.188a.826.826 0 0 0 1.158 0Z" clip-rule="evenodd"/>
  </g>
  <defs>
    <clipPath id="a">
      <path fill="#fff" d="M0 0h24v24H0z"/>
    </clipPath>
  </defs>
</svg>
