<svg xmlns="http://www.w3.org/2000/svg" width="24" height="24" fill="none" viewBox="0 0 24 24">
  <rect width="24" height="24" fill="#E5F2FF" rx="6"/>
  <path stroke="#06C" stroke-linecap="round" stroke-linejoin="round" d="M5.5 18h13m-.822 0V6.522a.538.538 0 0 0-.144-.37.478.478 0 0 0-.348-.152h-5.9a.478.478 0 0 0-.347.153.538.538 0 0 0-.144.369m3.092 2.087h1.966m-.983 4.174h1.966m-3.649 2.608h1.541M9.812 13.43c1.243 0 2.25-1.024 2.25-2.286 0-1.263-1.007-2.286-2.25-2.286-1.242 0-2.25 1.023-2.25 2.286 0 1.262 1.008 2.286 2.25 2.286Zm0 0c1.864 0 3.375 1.535 3.375 3.428V18m-3.375-4.571c-1.864 0-3.375 1.535-3.375 3.428V18" vector-effect="non-scaling-stroke"/>
</svg>
