<svg xmlns="http://www.w3.org/2000/svg" width="24" height="24" fill="none" viewBox="0 0 24 24">
  <g clip-path="url(#a)">
    <rect width="24" height="24" fill="#E5F2FF" rx="6"/>
    <path fill="#72ACE6" d="M18 7.5h-6.75L9.75 6H6c-.825 0-1.5.675-1.5 1.5v3h15V9c0-.825-.675-1.5-1.5-1.5Z"/>
    <path fill="#ABCFF3" d="M18 7.5H6c-.825 0-1.5.675-1.5 1.5v7.5c0 .825.675 1.5 1.5 1.5h12c.825 0 1.5-.675 1.5-1.5V9c0-.825-.675-1.5-1.5-1.5Z"/>
  </g>
  <defs>
    <clipPath id="a">
      <path fill="#fff" d="M0 0h24v24H0z"/>
    </clipPath>
  </defs>
</svg>
