<svg xmlns="http://www.w3.org/2000/svg" width="20" height="20" viewBox="0 0 20 20" fill="none">
  <path d="M6.87495 10.625C7.49302 10.625 8.0972 10.8083 8.61111 11.1517C9.12501 11.495 9.52555 11.9831 9.76207 12.5541C9.9986 13.1251 10.0605 13.7535 9.9399 14.3597C9.81933 14.9658 9.5217 15.5227 9.08466 15.9597C8.64762 16.3967 8.0908 16.6944 7.48461 16.815C6.87842 16.9355 6.25008 16.8736 5.67907 16.6371C5.10805 16.4006 4.61999 16.0001 4.27661 15.4862C3.93323 14.9723 3.74995 14.3681 3.74995 13.75V13.2242M13.125 10.625C12.5069 10.625 11.9027 10.8083 11.3888 11.1517C10.8749 11.495 10.4744 11.9831 10.2378 12.5541C10.0013 13.1251 9.93942 13.7535 10.06 14.3597C10.1806 14.9658 10.4782 15.5227 10.9152 15.9597C11.3523 16.3967 11.9091 16.6944 12.5153 16.815C13.1215 16.9355 13.7498 16.8736 14.3208 16.6371C14.8919 16.4006 15.3799 16.0001 15.7233 15.4862C16.0667 14.9723 16.25 14.3681 16.25 13.75V13.2242M5.62495 13.4375H4.99995C4.11475 13.4383 3.2578 13.1259 2.58076 12.5557C1.90372 11.9854 1.45024 11.194 1.30058 10.3215C1.15091 9.44907 1.31471 8.5518 1.76298 7.78849C2.21125 7.02518 2.91509 6.44506 3.74995 6.15078V5.625C3.74995 4.7962 4.07919 4.00134 4.66524 3.41529C5.25129 2.82924 6.04615 2.5 6.87495 2.5C7.70375 2.5 8.49861 2.82924 9.08466 3.41529C9.67071 4.00134 9.99995 4.7962 9.99995 5.625M9.99995 5.625V13.75M9.99995 5.625C9.99995 4.7962 10.3292 4.00134 10.9152 3.41529C11.5013 2.82924 12.2961 2.5 13.125 2.5C13.9538 2.5 14.7486 2.82924 15.3347 3.41529C15.9207 4.00134 16.25 4.7962 16.25 5.625V6.15078C17.0848 6.44506 17.7887 7.02518 18.2369 7.78849C18.6852 8.5518 18.849 9.44907 18.6993 10.3215C18.5497 11.194 18.0962 11.9854 17.4191 12.5557C16.7421 13.1259 15.8852 13.4383 15 13.4375H14.375M15.625 8.75H15.3125C14.7323 8.75 14.1759 8.51953 13.7657 8.1093C13.3554 7.69906 13.125 7.14266 13.125 6.5625V6.25M4.37495 8.75H4.68745C5.26761 8.75 5.82401 8.51953 6.23425 8.1093C6.64448 7.69906 6.87495 7.14266 6.87495 6.5625V6.25" stroke="#000A14" stroke-width="1.5" stroke-linecap="round" stroke-linejoin="round"/>
</svg>