<svg xmlns="http://www.w3.org/2000/svg" width="24" height="24" fill="none" viewBox="0 0 24 24">
  <g clip-path="url(#a)">
    <path fill="#E5F2FF" d="M0 6a6 6 0 0 1 6-6h12a6 6 0 0 1 6 6v12a6 6 0 0 1-6 6H6a6 6 0 0 1-6-6V6Z"/>
    <g clip-path="url(#b)">
      <path fill="#3B444C" d="M15.334 6h2c.368 0 .666.298.666.667v2.666a.667.667 0 0 1-.666.667h-2V6Z"/>
      <path fill="#596168" d="M4.667 6.667c0-.369.298-.667.666-.667h10c.368 0 .667.298.667.667v2.666a.667.667 0 0 1-.667.667h-10a.667.667 0 0 1-.667-.667V6.667Z"/>
      <path fill="#fff" d="M13.333 7.667a.333.333 0 1 1 0 .667h-4a.333.333 0 0 1 0-.667h4Z"/>
      <circle cx="6.667" cy="8" r=".667" fill="#fff"/>
      <path fill="#3B444C" d="M15.334 10.667h2c.368 0 .666.299.666.667V14a.667.667 0 0 1-.666.667h-2v-4Z"/>
      <path fill="#596168" d="M4.667 11.334c0-.368.298-.667.666-.667h10c.368 0 .667.299.667.667V14a.667.667 0 0 1-.667.667h-10A.667.667 0 0 1 4.666 14v-2.666Z"/>
      <path fill="#fff" d="M13.333 12.333a.333.333 0 1 1 0 .667h-4a.333.333 0 0 1 0-.667h4Z"/>
      <circle cx="6.667" cy="12.667" r=".667" fill="#fff"/>
      <path fill="#3B444C" d="M15.334 15.333h2c.368 0 .666.299.666.667v2.666a.667.667 0 0 1-.666.667h-2v-4Z"/>
      <path fill="#596168" d="M4.667 16c0-.368.298-.667.666-.667h10c.368 0 .667.299.667.667v2.666a.667.667 0 0 1-.667.667h-10a.667.667 0 0 1-.667-.667V16Z"/>
      <path fill="#fff" d="M13.333 17a.333.333 0 1 1 0 .667h-4a.333.333 0 0 1 0-.667h4Z"/>
      <circle cx="6.667" cy="17.334" r=".667" fill="#fff"/>
      <path fill="#3B444C" d="M6 14.667h8.667v.667H6z"/>
      <path fill="#1D2730" d="M14.666 14.667h2v.667h-2z"/>
      <path fill="#3B444C" d="M6 10h8.667v.667H6z"/>
      <path fill="#1D2730" d="M14.666 10h2v.667h-2z"/>
      <circle cx="14.667" cy="9.334" r="4.667" fill="#3385D6"/>
      <path fill="#fff" d="M13.664 6.863a2.668 2.668 0 0 1 2.877.575l.55.502v-.515a.334.334 0 0 1 .666 0v1.272c0 .184-.15.334-.333.334H16.15a.334.334 0 0 1 0-.667h.416l-.475-.435-.011-.01a2 2 0 1 0-.042 2.869.334.334 0 0 1 .457.485 2.667 2.667 0 1 1-2.832-4.41Z"/>
    </g>
  </g>
  <defs>
    <clipPath id="a">
      <path fill="#fff" d="M0 0h24v24H0z"/>
    </clipPath>
    <clipPath id="b">
      <path fill="#fff" d="M4 4h16v16H4z"/>
    </clipPath>
  </defs>
</svg>
