<!--
  - Copyright (c) 2024. Devtron Inc.
  -
  - Licensed under the Apache License, Version 2.0 (the "License");
  - you may not use this file except in compliance with the License.
  - You may obtain a copy of the License at
  -
  -     http://www.apache.org/licenses/LICENSE-2.0
  -
  - Unless required by applicable law or agreed to in writing, software
  - distributed under the License is distributed on an "AS IS" BASIS,
  - WITHOUT WARRANTIES OR CONDITIONS OF ANY KIND, either express or implied.
  - See the License for the specific language governing permissions and
  - limitations under the License.
  -->

<svg width="24" height="24" viewBox="0 0 24 24" fill="none" xmlns="http://www.w3.org/2000/svg">
<rect width="24" height="24" rx="6" fill="var(--V100)"/>
<path d="M8.75238 10.875L12 12.75L12.0001 16.5L9.25248 18.0863C8.94308 18.265 8.56188 18.265 8.25248 18.0863L6.00488 16.7887C5.69548 16.61 5.50488 16.2799 5.50488 15.9226V13.3273C5.50488 12.9701 5.69548 12.64 6.00487 12.4613L8.75238 10.875Z" fill="var(--V300)"/>
<path d="M14.7475 6.83632L12.4999 5.53868C12.1905 5.36004 11.8093 5.36004 11.4999 5.53868L9.25232 6.83632C8.94292 7.01496 8.75232 7.34508 8.75232 7.70235V10.875L11.9999 12.75L15.2475 10.875V7.70235C15.2475 7.34508 15.0569 7.01496 14.7475 6.83632Z" fill="var(--V200)"/>
<path d="M12 12.75L15.2476 10.875L17.9951 12.4613C18.3045 12.64 18.4951 12.9701 18.4951 13.3273V15.9226C18.4951 16.2799 18.3045 16.61 17.9951 16.7887L15.7475 18.0863C15.4381 18.265 15.0569 18.2649 14.7475 18.0863L12.0001 16.5L12 12.75Z" fill="var(--V500)"/>
</svg>