<svg xmlns="http://www.w3.org/2000/svg" width="24" height="24" fill="none" viewBox="0 0 24 24">
  <path fill="#FFF5E5" d="M0 6a6 6 0 0 1 6-6h12a6 6 0 0 1 6 6v12a6 6 0 0 1-6 6H6a6 6 0 0 1-6-6V6Z"/>
  <g clip-path="url(#a)">
    <path fill="#FFE5BE" d="M17.25 12a5.25 5.25 0 1 1-10.5 0 5.25 5.25 0 0 1 10.5 0Z"/>
    <path fill="#8C6324" d="M16.688 12a4.688 4.688 0 1 0-9.376 0 4.688 4.688 0 0 0 9.375 0Zm1.125 0a5.812 5.812 0 1 1-11.625 0 5.812 5.812 0 0 1 11.625 0Z"/>
    <path fill="#8C6324" d="M3.938 12c0-1.146.239-2.237.67-3.225a.563.563 0 0 1 1.032.45 6.937 6.937 0 1 0 1.406-2.08.563.563 0 0 1-.965-.395V4.875a.563.563 0 0 1 1.125 0v.644A8.062 8.062 0 1 1 3.937 12Z"/>
    <path fill="#8C6324" d="M9.938 14.25v-4.5a.562.562 0 1 1 1.124 0v4.5a.562.562 0 1 1-1.124 0Zm3 0v-4.5a.562.562 0 1 1 1.124 0v4.5a.562.562 0 1 1-1.124 0Z"/>
  </g>
  <defs>
    <clipPath id="a">
      <path fill="#fff" d="M3 3h18v18H3z"/>
    </clipPath>
  </defs>
</svg>
