<svg xmlns="http://www.w3.org/2000/svg" width="30" height="30" viewBox="0 0 30 30" fill="none">
<path d="M25.1161 13.1726C25.059 13.125 24.542 12.7269 23.4324 12.7269C23.1454 12.7269 22.8482 12.7558 22.5612 12.8051C22.3514 11.3215 21.136 10.6034 21.0874 10.566L20.7902 10.3908L20.5989 10.6715C20.3605 11.0492 20.1775 11.4763 20.0734 11.9119C19.872 12.7558 19.9962 13.5504 20.4176 14.2292C19.9106 14.5202 19.0881 14.5882 18.9152 14.5985H5.32991C4.97572 14.5985 4.68867 14.8894 4.68867 15.2484C4.67021 16.4513 4.86997 17.6526 5.28123 18.7874C5.74958 20.0278 6.44789 20.95 7.34765 21.5115C8.36155 22.141 10.0167 22.5 11.8817 22.5C12.7227 22.5 13.5653 22.4217 14.398 22.2669C15.5562 22.0542 16.6658 21.6459 17.6881 21.0555C18.5308 20.5603 19.2862 19.9308 19.9274 19.1941C21.0085 17.9622 21.6497 16.5858 22.118 15.3641C22.1852 15.3641 22.2423 15.3641 22.3094 15.3641C23.4861 15.3641 24.213 14.8894 24.6142 14.4811C24.8828 14.2292 25.0825 13.9179 25.2269 13.5691L25.3125 13.3173L25.1161 13.1726ZM16.7078 14.2003H18.5257C18.6113 14.2003 18.6886 14.1323 18.6886 14.0353V12.3866C18.6886 12.2998 18.6214 12.2215 18.5257 12.2215H16.7078C16.6222 12.2215 16.5449 12.2896 16.5449 12.3866V14.0353C16.555 14.1323 16.6222 14.2003 16.7078 14.2003ZM14.173 9.47879H15.991C16.0766 9.47879 16.1538 9.41073 16.1538 9.31375V7.66504C16.1538 7.57827 16.0766 7.5 15.991 7.5H14.173C14.0874 7.5 14.0102 7.56806 14.0102 7.66504V9.31375C14.0102 9.40052 14.0857 9.47879 14.173 9.47879ZM14.173 11.8438H15.991C16.0766 11.8438 16.1538 11.7655 16.1538 11.6788V10.0301C16.1538 9.94328 16.0766 9.86502 15.991 9.86502H14.173C14.0874 9.86502 14.0102 9.93308 14.0102 10.0301V11.6788C14.0102 11.7672 14.0857 11.8438 14.173 11.8438ZM11.6567 11.8438H13.4747C13.5603 11.8438 13.6375 11.7655 13.6375 11.6788V10.0301C13.6375 9.94328 13.5704 9.86502 13.4747 9.86502H11.6567C11.5711 9.86502 11.4939 9.93308 11.4939 10.0301V11.6788C11.4939 11.7672 11.561 11.8438 11.6567 11.8438ZM9.10183 11.8438H10.9198C11.0054 11.8438 11.0826 11.7655 11.0826 11.6788V10.0301C11.0826 9.94328 11.0155 9.86502 10.9198 9.86502H9.10183C9.01622 9.86502 8.939 9.93308 8.939 10.0301V11.6788C8.94907 11.7672 9.01622 11.8438 9.10183 11.8438ZM14.173 14.2003H15.991C16.0766 14.2003 16.1538 14.1323 16.1538 14.0353V12.3866C16.1538 12.2998 16.0867 12.2215 15.991 12.2215H14.173C14.0874 12.2215 14.0102 12.2896 14.0102 12.3866V14.0353C14.0102 14.1323 14.0857 14.2003 14.173 14.2003ZM11.6567 14.2003H13.4747C13.5603 14.2003 13.6375 14.1323 13.6375 14.0353V12.3866C13.6375 12.2998 13.5704 12.2215 13.4747 12.2215H11.6567C11.5711 12.2215 11.4939 12.2896 11.4939 12.3866V14.0353C11.4939 14.1323 11.561 14.2003 11.6567 14.2003ZM9.10183 14.2003H10.9198C11.0054 14.2003 11.0826 14.1323 11.0826 14.0353V12.3866C11.0826 12.2998 11.0155 12.2215 10.9198 12.2215H9.10183C9.01622 12.2215 8.939 12.2896 8.939 12.3866V14.0353C8.94907 14.1323 9.01622 14.2003 9.10183 14.2003ZM6.59561 14.2003H8.41358C8.4992 14.2003 8.57641 14.1323 8.57641 14.0353V12.3866C8.57641 12.2998 8.50927 12.2215 8.41358 12.2215H6.59561C6.51 12.2215 6.43278 12.2896 6.43278 12.3866V14.0353C6.44286 14.1323 6.51 14.2003 6.59561 14.2003Z" fill="#0091E2" vector-effect="non-scaling-stroke"/>
<rect x="1.83496" y="1.83496" width="26.3298" height="13.1649" fill="url(#paint0_linear_10603_11551)"/>
<path fill-rule="evenodd" clip-rule="evenodd" d="M0.9375 3.63032C0.9375 2.14312 2.14312 0.9375 3.63032 0.9375H7.22075C7.71648 0.9375 8.11835 1.33937 8.11835 1.83511C8.11835 2.33084 7.71648 2.73271 7.22075 2.73271H3.63032C3.13458 2.73271 2.73271 3.13459 2.73271 3.63032V7.22075C2.73271 7.71648 2.33084 8.11835 1.83511 8.11835C1.33937 8.11835 0.9375 7.71648 0.9375 7.22075V3.63032ZM21.8816 1.83511C21.8816 1.33937 22.2835 0.9375 22.7793 0.9375H26.3697C27.8569 0.9375 29.0625 2.14312 29.0625 3.63032V7.22075C29.0625 7.71648 28.6606 8.11835 28.1649 8.11835C27.6692 8.11835 27.2673 7.71648 27.2673 7.22075V3.63032C27.2673 3.13458 26.8654 2.73271 26.3697 2.73271H22.7793C22.2835 2.73271 21.8816 2.33084 21.8816 1.83511ZM1.83511 21.8816C2.33084 21.8816 2.73271 22.2835 2.73271 22.7793V26.3697C2.73271 26.8654 3.13458 27.2673 3.63032 27.2673H7.22075C7.71648 27.2673 8.11835 27.6692 8.11835 28.1649C8.11835 28.6606 7.71648 29.0625 7.22075 29.0625H3.63032C2.14312 29.0625 0.9375 27.8569 0.9375 26.3697V22.7793C0.9375 22.2835 1.33937 21.8816 1.83511 21.8816ZM28.1649 21.8816C28.6606 21.8816 29.0625 22.2835 29.0625 22.7793V26.3697C29.0625 27.8569 27.8569 29.0625 26.3697 29.0625H22.7793C22.2835 29.0625 21.8816 28.6606 21.8816 28.1649C21.8816 27.6692 22.2835 27.2673 22.7793 27.2673H26.3697C26.8654 27.2673 27.2673 26.8654 27.2673 26.3697V22.7793C27.2673 22.2835 27.6692 21.8816 28.1649 21.8816Z" fill="#3B444C" vector-effect="non-scaling-stroke"/>
<path fill-rule="evenodd" clip-rule="evenodd" d="M1.38623 14.9996C1.38623 14.7517 1.58717 14.5508 1.83503 14.5508H28.1648C28.4127 14.5508 28.6136 14.7517 28.6136 14.9996C28.6136 15.2475 28.4127 15.4484 28.1648 15.4484H1.83503C1.58717 15.4484 1.38623 15.2475 1.38623 14.9996Z" fill="#46F4FF" vector-effect="non-scaling-stroke"/>
<defs>
<linearGradient id="paint0_linear_10603_11551" x1="14.9999" y1="1.83496" x2="14.9999" y2="14.9999" gradientUnits="userSpaceOnUse">
<stop stop-color="#46F4FF" stop-opacity="0"/>
<stop offset="1" stop-color="#46F4FF" stop-opacity="0.6"/>
</linearGradient>
</defs>
</svg>