<svg xmlns="http://www.w3.org/2000/svg" width="24" height="24" fill="none" viewBox="0 0 24 24">
  <g clip-path="url(#a)">
    <rect width="24" height="24" fill="#E9FBF4" rx="6"/>
    <path fill="#373952" fill-rule="evenodd" d="M11.913 12.717c0-.185.15-.336.337-.336h5.495a.337.337 0 1 1 0 .673H12.25a.337.337 0 0 1-.337-.337Z" clip-rule="evenodd"/>
    <path fill="#373952" fill-rule="evenodd" d="M5.919 12.717c0-.185.15-.336.336-.336h5.495a.337.337 0 1 1 0 .673H6.255a.337.337 0 0 1-.336-.337Z" clip-rule="evenodd"/>
    <path fill="#373952" fill-rule="evenodd" d="M16.754 9.134c.186 0 .337.15.337.337v1.03a.337.337 0 0 1-.188.302l-8.82 4.34v.822a.337.337 0 1 1-.674 0v-1.03c0-.129.073-.246.188-.303l8.82-4.34V9.47c0-.186.151-.337.337-.337Z" clip-rule="evenodd"/>
    <path fill="#373952" fill-rule="evenodd" d="M7.247 9.134c.185 0 .336.151.336.337v.82l8.82 4.341a.337.337 0 0 1 .188.303v1.03a.337.337 0 1 1-.673 0v-.821l-8.82-4.34a.337.337 0 0 1-.188-.303v-1.03c0-.186.15-.337.337-.337Z" clip-rule="evenodd"/>
    <path fill="#E54857" d="M12 16.714c2.07 0 3.747-1.845 3.747-4.121 0-.743-.179-1.473-.491-2.096-.265-.527-.848-.776-1.438-.776h-3.635c-.59 0-1.173.25-1.438.776a4.715 4.715 0 0 0-.491 2.096c0 2.276 1.677 4.121 3.747 4.121Z"/>
    <circle cx="10.251" cy="7.722" r=".749" fill="#E9E9EE"/>
    <circle cx="13.748" cy="7.722" r=".749" fill="#E9E9EE"/>
    <path fill="#3D405B" d="M14.398 9.72H9.602c0-1.655 1.399-2.497 2.398-2.497 1 0 2.398.842 2.398 2.497Z"/>
    <circle cx="10.189" cy="11.656" r=".437" fill="#F9F183"/>
    <circle cx="13.998" cy="13.966" r=".5" fill="#F9F183"/>
    <path fill="#C7384C" fill-rule="evenodd" d="M11.73 16.714V9.721h.54v6.993h-.54Z" clip-rule="evenodd"/>
    <path fill="url(#b)" d="M4.101 4.101h15.798V12H4.101z"/>
    <path fill="#1B1818" fill-rule="evenodd" d="M3.563 5.178c0-.892.723-1.615 1.615-1.615h2.154a.539.539 0 1 1 0 1.077H5.178a.539.539 0 0 0-.538.538v2.154a.539.539 0 0 1-1.077 0V5.178Zm12.566-1.077c0-.297.241-.538.539-.538h2.154c.892 0 1.616.723 1.616 1.615v2.154a.539.539 0 1 1-1.078 0V5.178a.539.539 0 0 0-.538-.538h-2.154a.539.539 0 0 1-.539-.539ZM4.101 16.13c.298 0 .539.241.539.539v2.154c0 .297.24.538.538.538h2.154a.539.539 0 1 1 0 1.078H5.178a1.616 1.616 0 0 1-1.615-1.616v-2.154c0-.298.24-.539.538-.539Zm15.798 0c.297 0 .538.241.538.539v2.154c0 .892-.723 1.616-1.615 1.616h-2.154a.539.539 0 1 1 0-1.078h2.154a.539.539 0 0 0 .538-.538v-2.154a.54.54 0 0 1 .539-.539Z" clip-rule="evenodd"/>
    <path fill="#46F4FF" fill-rule="evenodd" d="M3.832 12c0-.149.12-.27.27-.27h15.797a.27.27 0 1 1 0 .539H4.1a.27.27 0 0 1-.27-.27Z" clip-rule="evenodd"/>
  </g>
  <defs>
    <linearGradient id="b" x1="12" x2="12" y1="4.101" y2="11.999" gradientUnits="userSpaceOnUse">
      <stop stop-color="#46F4FF" stop-opacity="0"/>
      <stop offset="1" stop-color="#46F4FF" stop-opacity=".6"/>
    </linearGradient>
    <clipPath id="a">
      <path fill="#fff" d="M0 0h24v24H0z"/>
    </clipPath>
  </defs>
</svg>
