<svg xmlns="http://www.w3.org/2000/svg" width="24" height="24" fill="none" viewBox="0 0 24 24">
  <path stroke="#3B444C" stroke-linecap="round" stroke-linejoin="round" stroke-width="1.5" d="M7.355 5.998a3.972 3.972 0 0 0-1.72-.068 4.024 4.024 0 0 0-1.595.667 4.17 4.17 0 0 0-1.187 1.285 4.344 4.344 0 0 0-.422 3.443c.17.572.457 1.1.84 1.55a4.103 4.103 0 0 0 1.98 1.277c.126.036.255.066.384.09M16.441 3.587a5.769 5.769 0 0 0-2.532-1.222 5.682 5.682 0 0 0-3.378.343 5.888 5.888 0 0 0-2.623 2.22 6.134 6.134 0 0 0-.947 2.663m14.79 2.938c0 1.636-2.687 2.962-6 2.962-3.314 0-6-1.326-6-2.962m12 0c0-1.636-2.687-2.962-6-2.962-3.314 0-6 1.326-6 2.962m12 0v4.13m-12-4.13v4.13m0 0c0 1.635 2.686 2.96 6 2.96 3.313 0 6-1.325 6-2.96m-12 0v4.128c0 1.636 2.686 2.962 6 2.962 3.313 0 6-1.326 6-2.962V14.66" vector-effect="non-scaling-stroke"/>
</svg>
