<svg xmlns="http://www.w3.org/2000/svg" width="24" height="24" fill="none" viewBox="0 0 24 24">
  <path stroke="#3B444C" stroke-linecap="round" stroke-linejoin="round" stroke-width="1.5" d="M17.852 6.706c0-2.047-3.493-3.706-7.8-3.706-4.308 0-7.8 1.66-7.8 3.706m15.6 0v3.21m0-3.21c0 1.275-1.355 2.4-3.419 3.067M2.251 6.706c0 2.047 3.493 3.706 7.8 3.706 1.625 0 3.133-.236 4.382-.64M2.251 6.707v5.167m0 0c0 2.047 3.493 3.706 7.8 3.706m-7.8-3.706v5.167c0 2.047 3.493 3.707 7.8 3.707 1.162 0 2.265-.121 3.255-.338m2.596-7.44.02 2.346h2.326m-.396-5.399a5.976 5.976 0 0 0-1.95-.324c-.507 0-1 .062-1.469.18m3.419.144a5.878 5.878 0 0 1 .89.392c1.795.974 3.01 2.843 3.01 4.988 0 3.15-2.62 5.704-5.85 5.704a5.948 5.948 0 0 1-2.596-.59m1.127-10.637c-2.099.529-3.74 2.165-4.231 4.232a5.63 5.63 0 0 0 1.812 5.554 5.87 5.87 0 0 0 1.292.85" vector-effect="non-scaling-stroke"/>
</svg>
