<svg xmlns="http://www.w3.org/2000/svg" width="24" height="24" fill="none" viewBox="0 0 24 24">
  <g clip-path="url(#a)">
    <path fill="#EDF1F5" d="M0 6a6 6 0 0 1 6-6h12a6 6 0 0 1 6 6v12a6 6 0 0 1-6 6H6a6 6 0 0 1-6-6V6Z"/>
    <path fill="#596168" d="M5.333 15.334c0-.368.299-.667.667-.667h12c.369 0 .667.299.667.667V18a.667.667 0 0 1-.667.667H6A.667.667 0 0 1 5.333 18v-2.666Z"/>
    <path fill="#3B444C" d="M18 14.667c.246 0 .458.135.573.333a.663.663 0 0 1-.573.333H6A.663.663 0 0 1 5.427 15 .663.663 0 0 1 6 14.667h12Z"/>
    <path fill="#fff" d="M14 16.333A.333.333 0 1 1 14 17H7.333a.333.333 0 0 1 0-.667H14Z"/>
    <circle cx="16.667" cy="16.667" r=".667" fill="#fff"/>
    <path fill="#767D84" d="M7.028 6.242a1.333 1.333 0 0 1 1.264-.909h7.416c.573 0 1.082.366 1.264.909l1.608 4.791H5.42l1.608-4.791Z"/>
    <path fill="#596168" d="M5.333 11.334c0-.368.299-.667.667-.667h12c.369 0 .667.299.667.667V14a.667.667 0 0 1-.667.667H6A.667.667 0 0 1 5.333 14v-2.666Z"/>
    <path fill="#fff" d="M13.333 12.333a.333.333 0 1 1 0 .667h-6a.333.333 0 0 1 0-.667h6Z"/>
    <circle cx="16.667" cy="12.667" r=".667" fill="#fff"/>
    <ellipse cx="12" cy="8" fill="#596168" rx="2.667" ry="1.333"/>
    <path fill="#959BA1" d="M12 7c1.36 0 2.48.51 2.645 1.167-.164.657-1.285 1.166-2.645 1.166s-2.482-.509-2.646-1.166C9.518 7.509 10.64 7 12 7Z"/>
    <path fill="#F33E3E" d="M20 6.5a2.5 2.5 0 1 1-5 0 2.5 2.5 0 0 1 5 0Z"/>
    <path fill="#EDF1F5" d="M20 6.5a2.5 2.5 0 1 0-5 0 2.5 2.5 0 0 0 5 0Zm1 0a3.5 3.5 0 1 1-7 0 3.5 3.5 0 0 1 7 0Z"/>
  </g>
  <defs>
    <clipPath id="a">
      <path fill="#fff" d="M0 0h24v24H0z"/>
    </clipPath>
  </defs>
</svg>
