<svg xmlns="http://www.w3.org/2000/svg" width="24" height="24" fill="none" viewBox="0 0 24 24">
  <g clip-path="url(#a)">
    <path fill="#FCF3F0" d="M0 6a6 6 0 0 1 6-6h12a6 6 0 0 1 6 6v12a6 6 0 0 1-6 6H6a6 6 0 0 1-6-6V6Z"/>
    <path stroke="#FF7E5B" stroke-linecap="round" stroke-linejoin="round" stroke-width="1.5" d="M7.2 17.5v-2.357m3.2 2.357v-2.357m3.2 2.357v-2.357m3.2 2.357v-2.357m-8-3.929V9.643m6.4 1.571V9.643M12 11.214V9.643m-8 4.714h16M4 8.071c0-.416.169-.816.469-1.11.3-.295.707-.461 1.131-.461h12.8c.424 0 .831.166 1.131.46.3.295.469.695.469 1.111v.865a1.6 1.6 0 0 0-.83.566 1.553 1.553 0 0 0 0 1.882 1.6 1.6 0 0 0 .83.566v3.979c0 .416-.169.816-.469 1.11-.3.295-.707.461-1.131.461H5.6c-.424 0-.831-.166-1.131-.46A1.557 1.557 0 0 1 4 15.929V11.92a1.6 1.6 0 0 0 .83-.566 1.553 1.553 0 0 0 0-1.882A1.6 1.6 0 0 0 4 8.907V8.07Z" vector-effect="non-scaling-stroke"/>
  </g>
  <defs>
    <clipPath id="a">
      <path fill="#fff" d="M0 0h24v24H0z"/>
    </clipPath>
  </defs>
</svg>
