<svg xmlns="http://www.w3.org/2000/svg" width="24" height="24" viewBox="0 0 24 24" fill="none">
<path d="M9.75 8.24978H14.25M21.5241 14.4673L17.4319 5.15603C17.0099 4.7341 16.4376 4.49707 15.8409 4.49707C15.2442 4.49707 14.672 4.7341 14.25 5.15603V15.7498M14.25 15.7498C14.25 17.8208 15.9289 19.4998 18 19.4998C20.0711 19.4998 21.75 17.8208 21.75 15.7498C21.75 13.6787 20.0711 11.9998 18 11.9998C15.9289 11.9998 14.25 13.6787 14.25 15.7498ZM9.75 15.7498V5.15603C9.32805 4.7341 8.75577 4.49707 8.15906 4.49707C7.56235 4.49707 6.99008 4.7341 6.56812 5.15603L2.47594 14.4673M9.75 15.7498C9.75 17.8208 8.07107 19.4998 6 19.4998C3.92893 19.4998 2.25 17.8208 2.25 15.7498C2.25 13.6787 3.92893 11.9998 6 11.9998C8.07107 11.9998 9.75 13.6787 9.75 15.7498Z" stroke="#3B444C" stroke-width="1.5" stroke-linecap="round" stroke-linejoin="round" vector-effect="non-scaling-stroke"/>
</svg>