<svg width="136" height="48" viewBox="0 0 136 48" fill="none" xmlns="http://www.w3.org/2000/svg">
<g style="mix-blend-mode:luminosity">
<path d="M22.44 20.106L8.92082 23.9725V20.3528L22.44 16.4862V20.106Z" fill="#fff"/>
<path d="M8.92082 31.4866L22.44 27.5926V23.9728L8.92082 27.8668V31.4866Z" fill="#fff"/>
<path fill-rule="evenodd" clip-rule="evenodd" d="M15.6667 39.0002C7.38511 39.0002 0.666626 32.2542 0.666626 24.0001C0.666626 15.7185 7.41253 9 15.6667 9C23.9482 9 30.6667 15.7459 30.6667 24.0001C30.6941 32.2542 23.9482 39.0002 15.6667 39.0002ZM15.6667 12.0439C9.0853 12.0439 3.73794 17.3913 3.73794 23.9727C3.73794 30.5541 9.0853 35.9014 15.6667 35.9014C22.248 35.9014 27.5954 30.5541 27.5954 23.9727C27.5954 17.3913 22.2755 12.0439 15.6667 12.0439Z" fill="#fff"/>
<path fill-rule="evenodd" clip-rule="evenodd" d="M47.0886 30.993C45.3914 32.4747 43.8266 32.4743 41.6921 32.4739L36.2293 32.4738V15.3897H41.4395C43.4688 15.3897 45.3884 15.4171 46.8418 17.0624C47.5547 17.8577 47.8564 18.8175 47.8564 19.8869C47.8564 21.3403 47.1434 22.6018 45.882 23.3147C47.7193 23.9729 48.6516 25.344 48.6516 27.291C48.6516 28.6621 48.158 30.1155 47.0886 30.993ZM42.509 25.536H40.3427V28.6621H42.4816C43.5511 28.6621 44.5109 28.3056 44.5109 27.0168C44.5109 25.7828 43.5236 25.536 42.509 25.536ZM42.0154 19.2288H40.3427V21.8888H41.988C42.9204 21.8888 43.6882 21.6146 43.6882 20.5177C43.6882 19.4208 42.8929 19.2288 42.0154 19.2288Z" fill="#fff"/>
<path d="M57.6186 25.5085V32.4738H61.4029L61.4029 25.2021C61.4035 23.4947 61.404 21.9954 60.2237 20.6273C59.4011 19.6676 58.0025 19.2288 56.7685 19.2288C55.4796 19.2288 54.1634 19.6401 53.5052 20.8467H53.4504V15.3897H49.6661V32.4738H53.4778V25.3714C53.4778 23.918 53.944 22.8211 55.5893 22.8211C57.2347 22.8211 57.6186 24.1374 57.6186 25.5085Z" fill="#fff"/>
<path fill-rule="evenodd" clip-rule="evenodd" d="M72.454 32.4739V31.1027H72.3991C71.7136 32.419 70.0682 32.9126 68.6971 32.9126C64.8031 32.9126 62.3351 29.8687 62.3351 26.057C62.3351 22.3275 64.8854 19.2288 68.6971 19.2288C70.0957 19.2288 71.6313 19.7498 72.3991 21.0387H72.454V19.6676H76.2383V32.4739H72.454ZM69.273 22.8211C67.4357 22.8211 66.1468 24.302 66.1468 26.1118C66.1468 27.8943 67.518 29.3477 69.3004 29.3477C71.1377 29.3477 72.4814 27.9217 72.4814 26.0844C72.454 24.1923 71.1103 22.8211 69.273 22.8211Z" fill="#fff"/>
<path d="M81.6405 32.5013V25.4537C81.6405 23.4519 82.9568 23.1228 84.657 23.0954V19.2288C83.1762 19.2288 82.1341 19.7224 81.476 21.0387H81.4211V19.6676H77.8562V32.5013H81.6405Z" fill="#fff"/>
<path fill-rule="evenodd" clip-rule="evenodd" d="M94.913 32.4739V31.1027H94.8581C94.1726 32.419 92.5272 32.9126 91.1561 32.9126C87.2621 32.9126 84.7941 29.8687 84.7941 26.057C84.7941 22.3275 87.3444 19.2288 91.1561 19.2288C92.5547 19.2288 94.0903 19.7498 94.8581 21.0387H94.913V19.6676H98.6973V32.4739H94.913ZM91.7046 22.8211C89.8673 22.8211 88.5784 24.302 88.5784 26.1118C88.5784 27.8943 89.9495 29.3477 91.732 29.3477C93.5693 29.3477 94.913 27.9217 94.913 26.0844C94.913 24.1923 93.5693 22.8211 91.7046 22.8211Z" fill="#fff"/>
<path d="M105.526 32.4738V22.5743H107.363V19.6676H105.526V15.3897H101.741V19.6676H99.8766V22.5743H101.741V32.4738H105.526Z" fill="#fff"/>
<path fill-rule="evenodd" clip-rule="evenodd" d="M120.087 25.6457C118.633 26.9345 117.043 27.1265 115.151 27.1265H113.286V32.4738H109.145V15.3897H114.657C116.385 15.3897 118.469 15.4719 119.867 16.6237C121.184 17.748 121.842 19.3933 121.842 21.1484C121.869 22.7389 121.266 24.5762 120.087 25.6457ZM114.877 19.2288H113.286V23.2873H115.041C116.467 23.2873 117.729 22.9583 117.729 21.2306C117.729 19.4756 116.303 19.2288 114.877 19.2288Z" fill="#fff"/>
<path fill-rule="evenodd" clip-rule="evenodd" d="M125.537 27.2403H135.025C135.08 26.8839 135.107 26.5822 135.107 26.2257C135.107 22.3591 132.283 19.233 128.416 19.233C124.687 19.233 121.78 22.414 121.78 26.116C121.78 29.8455 124.796 32.8894 128.498 32.8894C131.35 32.8894 133.572 30.9972 134.669 28.4469H130.802C130.199 29.2422 129.513 29.6535 128.498 29.6535C127.018 29.6535 125.756 28.776 125.537 27.2403ZM125.564 24.6626C125.866 23.2641 127.073 22.4688 128.444 22.4688C129.815 22.4688 131.021 23.2641 131.323 24.6626H125.564Z" fill="#fff"/>
</g>
</svg>
