<svg xmlns="http://www.w3.org/2000/svg" width="24" height="24" fill="none" viewBox="0 0 24 24">
  <g clip-path="url(#a)">
    <rect width="24" height="24" fill="#F3F0FF" rx="6"/>
    <path fill="#FE636E" d="M7.273 13.64c-1.055.055-2.858.653-2.684 1.903.44 3.172-3.027 4.19 1.588 4.19 2.321 0 3.785-1.018 4.006-3.155l-.627-2.423-2.283-.515Z"/>
    <path fill="#FFD659" d="M8.103 14.479c-.49.025-1.327.303-1.247.884.205 1.473-1.406 1.946.738 1.946 1.078 0 1.759-.473 1.861-1.466l-.237-1.197-1.115-.168Z"/>
    <path fill="#FB2A39" d="M9.162 16.672c-.627 1.14-1.87 1.69-3.576 1.69-.668 0-1.167-.021-1.532-.067-.493 1.05-.733 1.44 2.123 1.44 2.321 0 3.785-1.019 4.006-3.156l-.527-.532-.18-.182a3.652 3.652 0 0 1-.052.182 1.569 1.569 0 0 1-.262.625Z"/>
    <path fill="#FFBF00" d="M8.964 15.349c-.23.712-.859 1.053-1.776 1.053a8.38 8.38 0 0 1-.47-.01c-.27.676-.657.918.876.918.715 0 1.255-.208 1.568-.638.125-.173.214-.38.262-.625a1.87 1.87 0 0 0 .031-.203l-.49-.495Z"/>
    <path fill="#99B4CD" d="m8.55 11.901-1.377.808c-.276.162-.23.597-.01.82l.11.11.83.84 1.352 1.364.728.735.38.383c.22.222.651.268.812-.01l.8-1.39-.905-3.519-2.72-.14Zm11.148-8.108c-.662-.122-1.867.006-3.335.508l.66 2.45 2.683.916c.5-1.491.625-2.713.498-3.376-.073-.387-.12-.426-.506-.498Z"/>
    <path fill="#06C" d="M12.14 6.521c-1.838-.67-3.26-.364-4.703.954-.67.65-1.783 1.504-.863 2.432l1.143 1.154 3.286-1.675L12.14 6.52Zm5.365 5.416-3.09 1.289-1.408 3.175 1.143 1.155c.92.928 1.766-.196 2.41-.871.667-.745 1.855-2.163.945-4.748Z"/>
    <path fill="#E5E5E5" d="M19.706 7.667c-.077.233-.164.473-.26.717a16.894 16.894 0 0 1-1.942 3.553 18.865 18.865 0 0 1-4.497 4.465l-.227-.229-.606-.612-1.636-1.651-.176-.178-.177-.179-1.636-1.651-.832-.84a18.872 18.872 0 0 1 4.422-4.54c1.483-1.073 2.953-1.787 4.224-2.221l3.343 3.366Z"/>
    <path fill="#6C9ABB" d="M19.49 3.765c.065.695-.08 1.815-.528 3.152l.744.75c.5-1.491.624-2.713.498-3.376-.073-.387-.12-.427-.506-.498a2.132 2.132 0 0 0-.208-.028Z"/>
    <path fill="#C7C7C7" d="M18.7 7.634a16.87 16.87 0 0 1-1.94 3.553 18.227 18.227 0 0 1-1.27 1.59 18.82 18.82 0 0 1-1.566 1.559c-.511.452-1.064.893-1.66 1.315l.516.522.227.229a18.857 18.857 0 0 0 4.497-4.465 16.884 16.884 0 0 0 1.942-3.553c.096-.244.183-.484.26-.717l-.744-.75a13.42 13.42 0 0 1-.261.717Z"/>
    <path fill="#6C9ABB" d="m11.268 14.646-.799 1.39c-.16.279-.592.233-.813.01l.527.533.38.383c.22.222.651.268.812-.01l.8-1.39-.907-.915Z"/>
    <path fill="#0053A6" d="M17.504 11.937c-.151.213-.31.427-.476.64.215 1.812-.691 2.887-1.243 3.502-.529.554-1.192 1.41-1.922 1.187l.287.29c.92.928 1.766-.196 2.41-.871.667-.745 1.855-2.163.944-4.748ZM10.975 6.22A18.879 18.879 0 0 0 7 10.338l.718.725a18.877 18.877 0 0 1 4.422-4.54 5.755 5.755 0 0 0-1.164-.301Z"/>
    <path fill="#C7C7C7" d="m11.822 12.615-1.282 1.294h-.002l-.176-.177-.177-.179 1.281-1.292a.25.25 0 1 1 .356.354Z"/>
  </g>
  <defs>
    <clipPath id="a">
      <path fill="#fff" d="M0 0h24v24H0z"/>
    </clipPath>
  </defs>
</svg>
