<svg xmlns="http://www.w3.org/2000/svg" width="24" height="24" fill="none" viewBox="0 0 24 24">
  <rect width="24" height="24" fill="#F3F0FF" rx="6"/>
  <path fill="#856FF1" d="m8.076 10.39 3.587 2.072v4.142L8.846 18.23a1.54 1.54 0 0 1-1.54 0l-2.047-1.182a1.54 1.54 0 0 1-.77-1.333V13.35c0-.55.293-1.059.77-1.334l2.817-1.626Z"/>
  <path fill="#C5BBFA" d="m14.48 5.804-2.047-1.182a1.54 1.54 0 0 0-1.54 0L8.846 5.804a1.54 1.54 0 0 0-.77 1.334v3.253l3.587 2.07 3.587-2.07V7.138a1.54 1.54 0 0 0-.77-1.334Z"/>
  <path fill="#F3F0FF" d="m11.663 12.462 3.587-2.071 2.817 1.626c.477.275.77.783.77 1.334v2.482c0 .485-.229.942-.617 1.232l-2.047 1.533a1.54 1.54 0 0 1-1.846 0l-2.664-1.994v-4.142Z"/>
  <path stroke="#523CBE" stroke-linecap="round" stroke-linejoin="round" stroke-width="1.5" d="M15.228 13.118v2.017m0 1.76v.128m-3.761-2.736V12.78c0-.325.208-.614.516-.717l3.246-1.317 3.245 1.317a.755.755 0 0 1 .517.717v1.507c0 3.592-3.049 4.782-3.657 4.984a.322.322 0 0 1-.21 0c-.609-.202-3.657-1.392-3.657-4.984Z" vector-effect="non-scaling-stroke"/>
</svg>
