<svg xmlns="http://www.w3.org/2000/svg" width="24" height="24" fill="none" viewBox="0 0 24 24">
  <g clip-path="url(#a)">
    <rect width="24" height="24" fill="#EDF1F5" rx="6"/>
    <path fill="#3B444C" fill-rule="evenodd" d="M12 6.273a1.636 1.636 0 0 1 1.43 2.433l2.115 3.529.053-.02a4.08 4.08 0 0 1 1.086-.208L16.91 12a4.09 4.09 0 1 1-2.782 7.09.818.818 0 0 1 1.113-1.2 2.454 2.454 0 1 0 .404-3.904.818.818 0 0 1-1.07-.2l-.054-.08-2.494-4.162-.026.001c-.863 0-1.57-.667-1.632-1.514l-.004-.122c0-.904.732-1.637 1.636-1.637Z" clip-rule="evenodd"/>
    <path fill="#EB456D" d="M12 3.818a4.09 4.09 0 0 1 4.09 4.091.818.818 0 0 1-1.63.096l-.005-.096a2.455 2.455 0 1 0-3.584 2.18.818.818 0 0 1 .31 1.17l-2.634 4.085a1.636 1.636 0 1 1-1.376-.887l2.201-3.413-.03-.024A4.087 4.087 0 0 1 7.914 8.1l-.005-.192A4.09 4.09 0 0 1 12 3.82Z"/>
    <path fill="#3B444C" fill-rule="evenodd" d="M6.746 12.734a.818.818 0 0 1-.491 1.048 2.456 2.456 0 1 0 3.286 2.453l.004-.144c0-.42.316-.766.723-.813l.096-.005h5.128a1.636 1.636 0 1 1 0 1.636h-4.394l-.008.048a4.093 4.093 0 0 1-3.822 3.22l-.177.005a4.09 4.09 0 0 1-1.393-7.938.818.818 0 0 1 1.048.49Z" clip-rule="evenodd"/>
  </g>
  <defs>
    <clipPath id="a">
      <path fill="#fff" d="M0 0h24v24H0z"/>
    </clipPath>
  </defs>
</svg>
