<!--
  - Copyright (c) 2024. Devtron Inc.
  -
  - Licensed under the Apache License, Version 2.0 (the "License");
  - you may not use this file except in compliance with the License.
  - You may obtain a copy of the License at
  -
  -     http://www.apache.org/licenses/LICENSE-2.0
  -
  - Unless required by applicable law or agreed to in writing, software
  - distributed under the License is distributed on an "AS IS" BASIS,
  - WITHOUT WARRANTIES OR CONDITIONS OF ANY KIND, either express or implied.
  - See the License for the specific language governing permissions and
  - limitations under the License.
  -->

<svg width="24" height="24" viewBox="0 0 24 24" fill="none" xmlns="http://www.w3.org/2000/svg">
<path d="M12 11.5003V12.5003M16 11.5003V12.5003M8.00002 11.5003V12.5003M4.25895 16.5939C3.14076 14.7089 2.74916 12.4805 3.15768 10.3272C3.56621 8.1739 4.74675 6.2438 6.47764 4.89933C8.20853 3.55486 10.3707 2.8885 12.5581 3.02539C14.7455 3.16227 16.8078 4.09298 18.3575 5.64274C19.9073 7.19251 20.838 9.25472 20.9749 11.4421C21.1118 13.6296 20.4455 15.7917 19.101 17.5226C17.7565 19.2535 15.8264 20.4341 13.6732 20.8426C11.5199 21.2511 9.29149 20.8596 7.40649 19.7414L4.29808 20.6294C4.16947 20.6662 4.03338 20.6678 3.90391 20.6343C3.77443 20.6007 3.65628 20.5332 3.5617 20.4386C3.46713 20.344 3.39956 20.2259 3.36601 20.0964C3.33246 19.9669 3.33415 19.8308 3.37089 19.7022L4.25895 16.5939Z" stroke="#3B444C" stroke-width="1.5" vector-effect="non-scaling-stroke" stroke-linecap="round" stroke-linejoin="round"/>
<circle cx="18.5" cy="18.5" r="4.5" fill="var(--G500)" stroke="var(--bg-primary)" stroke-width="2"/>
</svg>
