<svg xmlns="http://www.w3.org/2000/svg" width="14" height="14" fill="none" viewBox="0 0 14 14">
  <path stroke="#003D7A" stroke-linecap="round" stroke-linejoin="round" stroke-width="1.25" d="M9.625 4.594c0 1.087-1.959 1.968-4.375 1.968S.875 5.683.875 4.595m8.75 0c0-1.088-1.959-1.969-4.375-1.969S.875 3.506.875 4.594m8.75 0V6.78c0 1.087-1.959 1.969-4.375 1.969S.875 7.868.875 6.781V4.594M3.5 6.398v2.188m6.125-3.297c1.997.183 3.5.977 3.5 1.93m0 0c0 1.087-1.959 1.968-4.375 1.968-1.072 0-2.054-.173-2.815-.461m7.19-1.507v2.187c0 1.087-1.959 1.969-4.375 1.969s-4.375-.882-4.375-1.969v-.695m6.125.312v2.188M7 6.398v4.813"/>
</svg>
