<svg xmlns="http://www.w3.org/2000/svg" width="24" height="24" fill="none" viewBox="0 0 24 24">
  <path stroke="#3B444C" stroke-linecap="round" stroke-linejoin="round" stroke-width="1.5" d="M16.5 7.875c0 1.864-3.358 3.375-7.5 3.375-4.142 0-7.5-1.511-7.5-3.375m15 0C16.5 6.011 13.142 4.5 9 4.5c-4.142 0-7.5 1.511-7.5 3.375m15 0v3.75C16.5 13.489 13.142 15 9 15c-4.142 0-7.5-1.511-7.5-3.375v-3.75M6 10.969v3.75m10.5-5.651c3.424.313 6 1.674 6 3.307m0 0c0 1.864-3.358 3.375-7.5 3.375-1.838 0-3.521-.297-4.825-.791M22.5 12.375v3.75c0 1.864-3.358 3.375-7.5 3.375-4.142 0-7.5-1.511-7.5-3.375v-1.193m10.5.537v3.75m-6-8.25v8.25" vector-effect="non-scaling-stroke"/>
</svg>
