<svg width="53" height="21" viewBox="0 0 53 21" fill="none" xmlns="http://www.w3.org/2000/svg">
<path d="M46.2255 0.22242C46.6477 -0.113982 47.2786 -0.0629385 47.6347 0.335899L52.7646 6.0809C53.1174 6.47605 53.0679 7.06547 52.6542 7.4039L46.6533 12.3149C46.2358 12.6565 45.6037 12.6133 45.2421 12.2189C44.8809 11.8246 44.9265 11.2282 45.3437 10.8867L49.3818 7.58196C47.635 7.51392 46.053 7.3873 44.5869 7.24798C42.4017 7.04034 40.5366 6.81492 38.7138 6.71011C35.5905 6.53052 32.7029 6.71525 29.1308 8.04787C32.4094 10.5614 33.8796 13.4105 33.6347 15.901C33.4948 17.3229 32.7913 18.5661 31.6308 19.4428C30.4777 20.3139 28.9285 20.7842 27.1435 20.7843C23.5629 20.7843 20.4845 18.6903 19.8867 15.7248C19.3427 13.026 20.9219 10.1029 25.0097 7.8246C22.4035 6.79533 18.671 6.41683 14.6982 6.80606C9.86565 7.27955 4.94392 8.86481 1.64447 11.4919C1.22218 11.8282 0.591222 11.7774 0.235295 11.3784C-0.120416 10.9795 -0.0668062 10.3833 0.355412 10.0471C4.05586 7.1007 9.40364 5.42527 14.4912 4.92673C19.2933 4.45621 24.1052 5.01396 27.2216 6.76177C31.6633 4.88626 35.1445 4.61215 38.8349 4.82432C40.7093 4.93209 42.6751 5.16797 44.7871 5.36865C46.3282 5.51509 47.9815 5.64458 49.8134 5.70632L46.1064 1.55372C45.7503 1.1549 45.8034 0.558826 46.2255 0.22242ZM27.0507 8.92341C22.5183 11.0747 21.4977 13.6208 21.8505 15.3714C22.2329 17.2682 24.3181 18.8948 27.1435 18.8948C28.5613 18.8948 29.6455 18.5238 30.3818 17.9676C31.1106 17.4171 31.553 16.6463 31.6435 15.7257C31.8187 13.9423 30.6534 11.3718 27.0507 8.92341Z" fill="black"/>
</svg>