<svg xmlns="http://www.w3.org/2000/svg" width="24" height="24" fill="none" viewBox="0 0 24 24">
  <path stroke="#3B444C" stroke-linecap="round" stroke-linejoin="round" stroke-width="1.5" d="m21.75 15.14-4.527 4.89-2.053-2.053-3.743 3.773m10.323-6.61v2.565m0-2.566h-2.523m2.181-5.609v-.76 3.039m0-2.279V6.546c0-.472-.429-.855-.958-.855h-2.88m3.838 3.839h-.839a3 3 0 0 1-3-3v-.839m0 0H3.208c-.529 0-.958.383-.958.855V18.8c0 .472.429.855.958.855H8.78M2.25 9.53h.183a3.656 3.656 0 0 0 3.656-3.656V5.69M2.25 15.816h.183a3.656 3.656 0 0 1 3.656 3.657v.182m7.631-9.154-.098-.082a1.379 1.379 0 0 0-.882-.318h-1.6c-.665 0-1.205.538-1.205 1.201s.54 1.201 1.205 1.201h1.72c.665 0 1.205.538 1.205 1.2 0 .664-.54 1.202-1.205 1.202h-1.953c-.358 0-.703-.14-.96-.389l-.012-.011m2.053-4.404v-1.04m0 6.883v-1.04M4.774 2.25H18.94" vector-effect="non-scaling-stroke"/>
</svg>
