<svg xmlns="http://www.w3.org/2000/svg" width="24" height="24" viewBox="0 0 24 24" fill="none">
<path d="M18 1C18.5304 1 19.039 1.21086 19.4141 1.58594C19.7891 1.96101 20 2.46957 20 3V21C20 21.5304 19.7891 22.039 19.4141 22.4141C19.039 22.7891 18.5304 23 18 23H6C5.46957 23 4.96101 22.7891 4.58594 22.4141C4.21086 22.039 4 21.5304 4 21V9.75H10.002C10.3631 9.75 10.721 9.67922 11.0547 9.54102C11.3883 9.40282 11.691 9.19965 11.9463 8.94434C12.2016 8.68902 12.4048 8.3863 12.543 8.05273C12.6812 7.71909 12.752 7.36114 12.752 7V1H18ZM10.1572 13.1123C9.82506 12.8651 9.35479 12.9337 9.10742 13.2656L7.14844 15.8984C6.95071 16.1641 6.95079 16.5282 7.14844 16.7939L9.10742 19.4268C9.35472 19.759 9.82495 19.8283 10.1572 19.5811C10.4893 19.3337 10.5577 18.8635 10.3105 18.5312L8.68457 16.3457L10.3105 14.1621C10.5577 13.8299 10.4892 13.3596 10.1572 13.1123ZM14.3926 13.2656C14.1453 12.9336 13.675 12.8652 13.3428 13.1123C13.0107 13.3596 12.9422 13.8299 13.1895 14.1621L14.8145 16.3457L13.1895 18.5312C12.9422 18.8635 13.0106 19.3337 13.3428 19.5811C13.6751 19.8283 14.1453 19.759 14.3926 19.4268L16.3516 16.7939C16.5491 16.5282 16.5492 16.1641 16.3516 15.8984L14.3926 13.2656Z" fill="url(#paint0_linear_11409_866)" vector-effect="non-scaling-stroke"/>
<path d="M12 7.16176V1L4 9H10.1618C11.1765 9 12 8.17647 12 7.16176Z" fill="#856FF1" vector-effect="non-scaling-stroke"/>
<defs>
<linearGradient id="paint0_linear_11409_866" x1="7.5" y1="19.5" x2="21.5" y2="3.49939e-08" gradientUnits="userSpaceOnUse">
<stop stop-color="#664BEE"/>
<stop offset="1" stop-color="#C5BBFA"/>
</linearGradient>
</defs>
</svg>