<svg width="72" height="72" viewBox="0 0 72 72" fill="none" xmlns="http://www.w3.org/2000/svg">
    <style>
        @keyframes roll {
            0% {
                transform: translateX(50px) rotate(180deg);
            }
            50% {
                transform: translateX(-3px) rotate(-10deg);
            }
            65% {
                transform: translateX(0) rotate(0deg);
            }
            to {
                transform: translateX(-70px) rotate(-220deg);
            }
        }
        @keyframes jump-one {
            0%,
            55%,
            to {
                transform: translateY(0);
            }
            35% {
                transform: translateY(-8px);
            }
        }
        @keyframes jump-two {
            0%,
            50%,
            to {
                transform: translateY(0);
            }
            30% {
                transform: translateY(-8px);
            }
        }
        @keyframes jump-three {
            0%,
            45%,
            to {
                transform: translateY(0);
            }
            25% {
                transform: translateY(-8px);
            }
        }
    </style>
    <g style="animation: jump-three 2s infinite ease">
        <ellipse cx="32" cy="44" rx="18" ry="6" fill="#fecd3d" data-style-override="false" />
        <ellipse cx="32" cy="44" rx="15" ry="4" fill="#fea832" data-style-override="false" />
        <path
            d="M50 50c0 3.314-8.059 6-18 6s-18-2.686-18-6v-6c0 3.314 8.059 6 18 6s18-2.686 18-6z"
            fill="#fe9923"
            data-style-override="false"
        />
        <path
            d="M32.5 55.995Q32.25 56 32 56q-.25-.001-.5-.005v-6q.25.004.5.005.25-.001.5-.005zm-5-6.184q.495.041 1 .074v6q-.505-.032-1-.075zm9 6q-.495.041-1 .074v-6q.505-.032 1-.075zm-13-6.522q.49.087 1 .164v6a41 41 0 0 1-1-.164zm17 6q-.49.087-1 .164v-6q.51-.077 1-.164zm-21-6.974q.483.155 1 .3v6a26 26 0 0 1-1-.3zm25 6q-.483.155-1 .3v-6q.517-.145 1-.3zm-29-7.917q.442.338 1 .652v6a9 9 0 0 1-1-.652zm33 6a9 9 0 0 1-1 .652v-6q.558-.315 1-.652z"
            fill="#c85929"
            data-style-override="false"
        />
    </g>
    <g style="animation: jump-two 2s infinite ease">
        <ellipse cx="26" cy="33" rx="18" ry="6" fill="#fecd3d" data-style-override="false" />
        <ellipse cx="26" cy="33" rx="15" ry="4" fill="#fea832" data-style-override="false" />
        <path
            d="M44 39c0 3.314-8.059 6-18 6S8 42.314 8 39v-6c0 3.314 8.059 6 18 6s18-2.686 18-6z"
            fill="#fe9923"
            data-style-override="false"
        />
        <path
            d="M26.5 44.995Q26.25 45 26 45q-.25-.001-.5-.005v-6q.25.004.5.005.25-.001.5-.005zm-5-6.184q.495.041 1 .074v6q-.505-.032-1-.075zm9 6q-.495.041-1 .074v-6q.505-.032 1-.075zm-13-6.522q.49.087 1 .164v6a41 41 0 0 1-1-.164zm17 6q-.49.087-1 .164v-6q.51-.077 1-.164zm-21-6.974q.483.155 1 .3v6a26 26 0 0 1-1-.3zm25 6q-.483.155-1 .3v-6q.517-.145 1-.3zm-29-7.917q.442.338 1 .652v6a9 9 0 0 1-1-.652zm33 6a9 9 0 0 1-1 .652v-6q.558-.315 1-.652z"
            fill="#c85929"
            data-style-override="false"
        />
    </g>
    <g style="animation: jump-one 2s infinite ease">
        <ellipse cx="34" cy="22" rx="18" ry="6" fill="#fecd3d" data-style-override="false" />
        <ellipse cx="34" cy="22" rx="15" ry="4" fill="#fea832" data-style-override="false" />
        <path
            d="M52 28c0 3.314-8.059 6-18 6s-18-2.686-18-6v-6c0 3.314 8.059 6 18 6s18-2.686 18-6z"
            fill="#fe9923"
            data-style-override="false"
        />
        <path
            d="M34.5 33.995Q34.25 34 34 34q-.25-.001-.5-.005v-6q.25.004.5.005.25-.001.5-.005zm-5-6.184q.495.041 1 .074v6q-.505-.032-1-.075zm9 6q-.495.041-1 .074v-6q.505-.032 1-.075zm-13-6.522q.49.087 1 .164v6a41 41 0 0 1-1-.164zm17 6q-.49.087-1 .164v-6q.51-.077 1-.164zm-21-6.975q.483.157 1 .3v6a26 26 0 0 1-1-.3zm25 6q-.483.157-1 .3v-6q.517-.143 1-.3zm-29-7.916q.442.338 1 .652v6a9 9 0 0 1-1-.652zm33 6a9 9 0 0 1-1 .652v-6q.558-.315 1-.652z"
            fill="#c85929"
            data-style-override="false"
        />
    </g>
    <g style="animation: roll 6s infinite ease; transform-origin: center; transform-box: fill-box">
        <path
            d="M46.9 20q1.48.075 2.89.377a.902.902 0 0 0 1.74.465c.932.3 1.832.674 2.691 1.115a.901.901 0 0 0 1.559.902q1.229.797 2.31 1.776a.901.901 0 0 0 1.274 1.273q.979 1.082 1.775 2.31a.901.901 0 0 0 .902 1.56 18 18 0 0 1 1.116 2.692.901.901 0 0 0 .465 1.739c.2.938.33 1.903.378 2.889a.901.901 0 0 0 0 1.8 18 18 0 0 1-.377 2.89.9.9 0 0 0-.465 1.74 18 18 0 0 1-1.116 2.692.9.9 0 0 0-.901 1.559 18 18 0 0 1-1.776 2.31.9.9 0 0 0-1.273 1.273 18 18 0 0 1-2.31 1.777.9.9 0 0 0-1.558.902q-1.291.664-2.694 1.116a.9.9 0 0 0-1.739.465c-.939.2-1.905.33-2.892.378a.9.9 0 0 0-1.8 0 18 18 0 0 1-2.89-.377.9.9 0 0 0-1.74-.466q-1.4-.451-2.692-1.115a.9.9 0 0 0-1.559-.902 18 18 0 0 1-2.31-1.776.9.9 0 0 0-1.273-1.273 18 18 0 0 1-1.776-2.311.9.9 0 0 0-.903-1.559q-.663-1.292-1.114-2.693a.9.9 0 0 0-.465-1.739A18 18 0 0 1 28 38.898a.9.9 0 0 0 0-1.8c.049-.986.177-1.952.378-2.89a.9.9 0 0 0 .465-1.74q.452-1.401 1.115-2.693a.9.9 0 0 0 .902-1.557 18 18 0 0 1 1.777-2.311.9.9 0 0 0 1.272-1.273 18 18 0 0 1 2.312-1.776.9.9 0 0 0 1.559-.902 18 18 0 0 1 2.692-1.115.901.901 0 0 0 1.74-.464q1.407-.303 2.888-.377a.9.9 0 0 0 1.8 0"
            fill="#ffce33"
            data-style-override="false"
        />
        <path
            d="M46.002 52.625c8.077 0 14.625-6.548 14.625-14.626s-6.548-14.625-14.625-14.625S31.377 29.923 31.377 38s6.548 14.625 14.625 14.625"
            fill="#f28a00"
            data-style-override="false"
        />
        <path
            d="M46.002 51.5c7.456 0 13.5-6.045 13.5-13.5 0-7.456-6.044-13.5-13.5-13.5s-13.5 6.044-13.5 13.5c0 7.455 6.044 13.5 13.5 13.5"
            fill="#fe9923"
            data-style-override="false"
        />
        <path
            d="M49.232 34.369a1.93 1.93 0 0 0-1.74-1.92l-.19-.01h-2.571a1.93 1.93 0 0 0 0 3.859h3.215a4.501 4.501 0 0 1 0 9.003h-.643v.643a1.286 1.286 0 0 1-2.572 0v-.643h-.644a4.5 4.5 0 0 1-4.501-4.501 1.286 1.286 0 1 1 2.572 0 1.93 1.93 0 0 0 1.93 1.929h3.858a1.93 1.93 0 0 0 0-3.859h-3.215a4.501 4.501 0 0 1 0-9.003v-.643a1.286 1.286 0 1 1 2.572 0v.643a4.505 4.505 0 0 1 4.159 2.778c.226.547.342 1.133.342 1.724a1.286 1.286 0 1 1-2.572 0"
            fill="#ffce33"
            data-style-override="false"
        />
    </g>
</svg>
