<!--
  - Copyright (c) 2024. Devtron Inc.
  -
  - Licensed under the Apache License, Version 2.0 (the "License");
  - you may not use this file except in compliance with the License.
  - You may obtain a copy of the License at
  -
  -     http://www.apache.org/licenses/LICENSE-2.0
  -
  - Unless required by applicable law or agreed to in writing, software
  - distributed under the License is distributed on an "AS IS" BASIS,
  - WITHOUT WARRANTIES OR CONDITIONS OF ANY KIND, either express or implied.
  - See the License for the specific language governing permissions and
  - limitations under the License.
  -->

<svg xmlns="http://www.w3.org/2000/svg" width="24" height="24" fill="none" viewBox="0 0 24 24">
  <path fill="#06C" d="M16.714 9.974H7.286a.197.197 0 0 0-.197.196v9.87c0 .109.089.197.197.197h9.428a.197.197 0 0 0 .197-.196v-9.87a.197.197 0 0 0-.197-.197Zm-8.053 1.571h6.678v2.873H8.661v-2.873Zm6.678 7.12H8.661v-2.872h6.678v2.873Z"/>
  <path fill="#06C" d="M9.84 17.389a.786.786 0 1 0 1.57 0 .786.786 0 0 0-1.57 0Zm0-4.37a.786.786 0 1 0 1.57 0 .786.786 0 0 0-1.57 0Z"/>
  <path fill="#06C" d="M19.351 8.08C18.227 5.112 15.361 3 12.005 3a7.858 7.858 0 0 0-7.346 5.078A4.92 4.92 0 0 0 1 12.86c.015 2.563 2.004 4.648 4.508 4.871a.197.197 0 0 0 .214-.196v-1.483a.196.196 0 0 0-.172-.194 3.062 3.062 0 0 1-1.77-.848 3.026 3.026 0 0 1-.914-2.175c0-.687.224-1.336.643-1.876a3.06 3.06 0 0 1 1.623-1.073l.931-.245.341-.901a6.042 6.042 0 0 1 2.163-2.787 5.945 5.945 0 0 1 3.438-1.085 5.986 5.986 0 0 1 4.724 2.315c.37.474.665 1 .877 1.559l.338.899.928.245a3.05 3.05 0 0 1 1.349 5.122 3.056 3.056 0 0 1-1.766.847.194.194 0 0 0-.17.194v1.486a.2.2 0 0 0 .217.196c2.497-.226 4.48-2.308 4.498-4.866a4.919 4.919 0 0 0-3.65-4.785Z"/>
</svg>
