<svg xmlns="http://www.w3.org/2000/svg" width="24" height="24" fill="none" viewBox="0 0 24 24">
  <path stroke="#3B444C" stroke-linecap="round" stroke-linejoin="round" stroke-width="1.5" d="m21.75 15.14-4.527 4.89-2.053-2.053-3.743 3.773m10.323-6.61v2.565m0-2.566h-2.523m2.181-5.609v-.76 3.039m0-2.279V6.546c0-.472-.429-.855-.958-.855h-2.88m3.838 3.839h-.839a3 3 0 0 1-3-3v-.839m0 0H3.208c-.529 0-.958.383-.958.855V18.8c0 .472.429.855.958.855H8.78M2.25 9.53h.183a3.656 3.656 0 0 0 3.656-3.656V5.69M2.25 15.816h.183a3.656 3.656 0 0 1 3.656 3.657v.182M4.774 2.25H18.94M9.42 12.56a2.579 2.579 0 1 0 5.158 0 2.579 2.579 0 0 0-5.158 0Z" vector-effect="non-scaling-stroke"/>
</svg>
