<svg xmlns="http://www.w3.org/2000/svg" width="24" height="24" fill="none" viewBox="0 0 24 24">
  <path stroke="#596168" stroke-linecap="round" stroke-linejoin="round" stroke-width="1.5" d="M12 22.015a.75.75 0 0 1-.368-.097l-8.25-4.64A.75.75 0 0 1 3 16.623V7.376a.75.75 0 0 1 .382-.654l8.25-4.64a.75.75 0 0 1 .736 0l8.25 4.64a.75.75 0 0 1 .382.654v9.248a.75.75 0 0 1-.382.654l-8.25 4.64a.75.75 0 0 1-.368.097Zm0 0L12.089 12m8.808-5.004L12.089 12m0 0L3.104 6.995" vector-effect="non-scaling-stroke"/>
</svg>
