<svg width="98" height="48" viewBox="0 0 98 48" fill="none" xmlns="http://www.w3.org/2000/svg">
<g style="mix-blend-mode:luminosity">
<path d="M24.968 7.25766C27.7902 8.73972 29.213 11.2037 29.213 14.409C29.2381 15.9863 28.288 17.1107 26.8875 17.3281C25.4166 17.5679 24.0187 16.6099 23.6626 15.1517C23.2371 13.5266 22.1945 12.5937 20.7236 11.9948C18.4954 11.1097 16.1706 10.8949 13.8477 10.7027C13.3131 10.6579 12.7745 10.6128 12.2222 10.5676C11.7934 10.5325 11.3563 10.4974 10.9064 10.4623C10.396 10.4226 9.8693 10.3831 9.31956 10.3438C10.9329 8.741 12.9005 7.54515 15.0578 6.82771C18.4008 5.7511 21.7682 5.55889 24.968 7.25766Z" fill="#fff"/>
<path d="M79.6214 15.3166C79.0049 15.3166 78.3884 15.5796 77.9374 16.0095L71.0143 22.0126L72.3649 11.1307C72.4602 10.557 72.2947 9.95806 71.9386 9.50561C71.5604 9.05043 70.9915 8.81268 70.3975 8.83573C69.7813 8.83573 69.1873 9.05043 68.7618 9.48038C68.3112 9.8871 68.0273 10.461 67.9549 11.0599L65.5369 30.6957C65.4416 31.2695 65.6071 31.8685 65.9632 32.3207C66.3416 32.7759 66.9105 33.0139 67.5043 32.9906C68.1206 32.9906 68.7144 32.7759 69.1407 32.346C69.5915 31.9393 69.8752 31.3656 69.9476 30.7666L70.3508 27.5613L71.7264 26.4137L76.4221 32.2022C76.8004 32.7052 77.3697 32.9914 77.9884 32.9681C78.557 32.9451 79.0784 32.7284 79.5284 32.3692C80.0506 32.01 80.4065 31.4363 80.4769 30.7897C80.5473 30.1907 80.3818 29.5686 79.978 29.1161L75.425 23.3276L80.4514 19.1187C81.0679 18.6159 81.4236 18.0673 81.494 17.4684C81.5412 16.9655 81.3757 16.4395 81.0431 16.058C80.7128 15.5823 80.1907 15.3173 79.6214 15.3166Z" fill="#fff"/>
<path fill-rule="evenodd" clip-rule="evenodd" d="M38.0108 15.0308C39.5519 15.0077 41.0702 15.4144 42.3734 16.2034C43.6294 16.9673 44.6001 18.1169 45.1921 19.434C45.8311 20.796 46.0461 22.3988 45.8082 24.1936C45.4298 27.5651 43.4381 30.5538 40.4511 32.1333C39.0276 32.8992 37.4391 33.2807 35.8278 33.2807C34.2866 33.3291 32.7934 32.9215 31.4652 32.1333C30.2322 31.3701 29.2375 30.2451 28.6437 28.9055C28.0045 27.5434 27.8147 25.9408 28.0276 24.1458C28.2181 22.4471 28.8343 20.8193 29.8064 19.4087C30.7315 18.0691 31.9644 16.9695 33.3874 16.2034C34.8109 15.4123 36.3994 15.0308 38.0108 15.0308ZM40.4769 26.7747C40.9749 25.9856 41.3059 25.076 41.4012 24.1431C41.5437 23.2335 41.4484 22.3258 41.1382 21.4892C40.8524 20.7715 40.3787 20.1746 39.7626 19.7679C39.1214 19.3379 38.387 19.1232 37.6277 19.1457C36.823 19.1457 36.0161 19.3612 35.3047 19.7679C34.5703 20.1999 33.9291 20.7968 33.4556 21.5144C32.9346 22.3278 32.6036 23.2384 32.5083 24.1936C32.3679 25.0787 32.4631 25.9631 32.7942 26.8C33.08 27.5174 33.5536 28.1143 34.1698 28.5211C34.8109 28.951 35.5454 29.1664 36.3049 29.1432C37.1094 29.1432 37.9162 28.928 38.6276 28.5211C39.3621 28.0891 40.0033 27.4922 40.4769 26.7747Z" fill="#fff"/>
<path fill-rule="evenodd" clip-rule="evenodd" d="M57.05 15.0308C58.5911 15.0077 60.1092 15.4144 61.4126 16.2034C62.645 16.9665 63.6428 18.1169 64.2569 19.4565C64.8961 20.8185 65.0859 22.4213 64.8732 24.2161C64.6827 25.9148 64.0665 27.5426 63.0942 28.9532C62.1692 30.2928 60.9362 31.3924 59.5132 32.1585C58.0897 32.9244 56.5012 33.3059 54.89 33.3059C53.3487 33.3544 51.8549 32.9469 50.5272 32.1585C49.2714 31.3701 48.2767 30.2451 47.6829 28.9055C47.0438 27.5434 46.8539 25.9408 47.0668 24.1458C47.2802 22.4471 47.8735 20.8193 48.8457 19.4087C49.7707 18.0691 51.0036 16.9695 52.4266 16.2034C53.8502 15.4123 55.4387 15.0308 57.05 15.0308ZM59.4931 26.7747C59.9918 25.9856 60.3221 25.076 60.4174 24.1431C60.5578 23.2335 60.4653 22.3258 60.1551 21.4892C59.8693 20.7715 59.3958 20.1746 58.7795 19.7679C58.1383 19.3379 57.4041 19.1232 56.6446 19.1457C55.8399 19.1457 55.0332 19.3612 54.3216 19.7679C53.5874 20.1999 52.946 20.7968 52.4725 21.5144C51.9517 22.3278 51.6207 23.2384 51.5254 24.1936C51.3848 25.0787 51.48 25.9631 51.8111 26.8C52.0962 27.5174 52.5706 28.1143 53.1867 28.5211C53.8028 28.951 54.5616 29.1664 55.3211 29.1432C56.1257 29.1432 56.9324 28.928 57.6438 28.5211C58.3775 28.0891 59.0194 27.4922 59.4931 26.7747Z" fill="#fff"/>
<path d="M92.9242 15.0052C93.5632 14.9574 94.2051 15.1972 94.6785 15.6273C95.1273 16.0116 95.3422 16.5852 95.2246 17.1569C95.1295 17.9453 94.8441 18.519 94.37 18.8782C93.9662 19.2119 93.4681 19.4041 92.9467 19.4041C92.5436 19.4041 92.14 19.3081 91.7616 19.1412C91.4538 18.9967 91.1451 18.949 90.8149 18.949C90.4582 18.949 90.1025 19.045 89.7721 19.1889C89.3685 19.3809 89.0126 19.6441 88.7046 19.9548C88.3235 20.3615 88.0402 20.8167 87.8028 21.2944C87.5197 21.8933 87.3511 22.5407 87.2807 23.1854L86.3563 30.7202C86.2844 31.3193 86.0006 31.893 85.5503 32.2997C85.0986 32.7297 84.53 32.9444 83.9135 32.9444C83.3195 32.9674 82.751 32.7297 82.3728 32.2745C82.0162 31.8222 81.8514 31.2231 81.9457 30.6494L83.5825 17.5426C83.6551 16.9437 83.9384 16.37 84.3892 15.9633C84.8155 15.5331 85.4095 15.3186 86.026 15.3186C87.0208 15.2702 87.8979 16.0362 87.993 17.0399C88.0192 17.0137 88.042 16.9878 88.0638 16.9629C88.1028 16.9188 88.138 16.8786 88.1827 16.8477C88.2364 16.7992 88.2906 16.7517 88.3451 16.705L88.3822 16.6736L88.4244 16.6385C88.4535 16.6141 88.483 16.5902 88.5124 16.5664C88.5896 16.5044 88.6675 16.4441 88.7463 16.3855C89.0274 16.1769 89.3198 15.9898 89.6291 15.8186C90.1505 15.5311 90.6965 15.3411 91.2651 15.1972C91.8088 15.0759 92.3556 15.0052 92.9242 15.0052Z" fill="#fff"/>
<path d="M23.1436 25.65C21.9335 25.5791 21.0566 26.1052 20.5599 27.2296C20.0614 28.3544 19.1843 28.8091 17.9994 28.7361C17.0972 28.6884 16.2203 28.4962 15.3906 28.1855C13.9643 27.6677 12.6032 26.9858 11.2409 26.3033C10.588 25.9761 9.93477 25.6487 9.27403 25.3393C7.781 24.6464 6.3101 23.9035 4.79403 23.1629C4.69875 25.817 6.04931 29.955 8.63559 32.2529C12.4044 35.6502 18.6183 36.1027 22.8131 33.2333C24.3544 32.1819 25.4691 30.5794 25.8956 28.7367C26.013 28.3777 26.038 27.971 25.9428 27.6118C25.6097 26.5829 24.4009 25.7237 23.1436 25.65Z" fill="#fff"/>
<path d="M2.85496 13.261C6.4831 14.8161 10.1343 16.3471 13.7624 17.8537C14.0934 17.9974 14.4267 18.0936 14.782 18.1419C15.4934 18.2381 16.1326 17.7352 16.205 17.0423V16.923C16.2278 16.2049 15.7063 15.631 14.6867 15.3435L14.5232 15.2974L14.521 15.2969C10.7596 14.2358 6.99681 13.1744 3.23535 12.1382L3.18231 12.1234C2.76114 12.0052 2.20793 11.8499 2.02523 12.3781C1.829 12.9083 2.24688 13.0496 2.62563 13.1778C2.65123 13.1864 2.67647 13.1948 2.70134 13.2036L2.75035 13.2206C2.77358 13.2289 2.79625 13.2375 2.8182 13.246L2.85496 13.261Z" fill="#fff"/>
<path d="M14.1584 22.6614C13.9929 23.2351 13.4942 23.4251 12.8552 23.4021C12.547 23.3768 12.2612 23.2806 11.9753 23.1663C8.60268 21.7607 5.23184 20.3356 1.85881 18.9095L1.85223 18.9067L0.950268 18.5254C0.854988 18.5 0.782751 18.4769 0.712525 18.4292C0.668634 18.4027 0.622914 18.3765 0.576829 18.3502C0.249474 18.1629 -0.098911 17.9636 0.0259956 17.5448C0.193696 17.0194 0.714537 17.0904 1.14083 17.2341C3.78801 18.0483 6.43427 18.8851 9.08017 19.7218L9.12626 19.7361C10.4243 20.1466 11.7224 20.557 13.0205 20.9648C13.2564 21.0356 13.4693 21.1549 13.6598 21.2986C14.111 21.6323 14.3239 22.0875 14.1584 22.6614Z" fill="#fff"/>
<path d="M94.5675 9.93447V9.43996H92.3713V9.93447H93.2095V12.1164H93.7301V9.93447H94.5675Z" fill="#fff"/>
<path d="M97.8912 12.1164V9.43996H97.1886L96.4097 11.373L95.6125 9.43996H94.9317V12.1164H95.4252V10.2556L96.1893 12.1164H96.6193L97.3833 10.2402V12.1164H97.8912Z" fill="#fff"/>
<path d="M29.7596 41.8906H30.768L30.7673 39.8715H32.762V38.9421H30.7603V37.6621H33.0089V36.704H29.7596V41.8906Z" fill="#fff"/>
<path fill-rule="evenodd" clip-rule="evenodd" d="M36.9993 40.0909C36.9993 38.9792 36.1948 38.1818 35.1286 38.1818C34.0624 38.1818 33.2578 38.9863 33.2578 40.0909C33.2578 41.1957 34.0624 42 35.1286 42C36.1948 42 36.9993 41.2026 36.9993 40.0909ZM36.0355 40.0909C36.0355 40.7712 35.6001 41.115 35.1286 41.115C34.6577 41.115 34.2224 40.7712 34.2224 40.0909C34.2224 39.4106 34.657 39.067 35.1286 39.067C35.6001 39.067 36.0355 39.4106 36.0355 40.0909Z" fill="#fff"/>
<path fill-rule="evenodd" clip-rule="evenodd" d="M41.2346 40.0909C41.2346 38.9792 40.4301 38.1818 39.3639 38.1818C38.2985 38.1818 37.4931 38.9863 37.4931 40.0909C37.4931 41.1957 38.2985 42 39.3639 42C40.4294 42 41.2346 41.2026 41.2346 40.0909ZM40.2701 40.0909C40.2701 40.7712 39.8354 41.115 39.3639 41.115C38.8923 41.115 38.457 40.7712 38.457 40.0909C38.457 39.4106 38.893 39.067 39.3639 39.067C39.8346 39.067 40.2701 39.4106 40.2701 40.0909Z" fill="#fff"/>
<path fill-rule="evenodd" clip-rule="evenodd" d="M45.3969 41.239V36.5939L44.4476 36.5932V38.6489C44.3461 38.4589 44.0555 38.2029 43.4392 38.2029C42.4308 38.2029 41.7278 38.9925 41.7278 40.0832C41.7278 41.1739 42.4531 41.9784 43.4685 41.9784C43.9469 41.9784 44.3099 41.7588 44.4692 41.4733C44.4692 41.641 44.4908 41.8169 44.5054 41.8899H45.4262C45.4116 41.7442 45.3969 41.4804 45.3969 41.239ZM43.5839 41.1079C43.0762 41.1079 42.6993 40.7277 42.6993 40.084C42.6993 39.4401 43.0908 39.0739 43.5839 39.0739C44.0769 39.0739 44.4615 39.4247 44.4615 40.0763C44.4615 40.7277 44.0915 41.1079 43.5839 41.1079Z" fill="#fff"/>
<path d="M49.3881 37.8964C49.3881 37.4944 49.6712 37.3991 49.889 37.3991C50.0481 37.3991 50.1428 37.4201 50.1935 37.4348V36.6157C50.1136 36.5791 49.9181 36.5427 49.7151 36.5427C48.9243 36.5427 48.4166 37.0694 48.4166 37.8816V38.2912H47.8219V39.1251H48.4166V41.8906H49.3881V39.1251H50.1928V38.2912H49.3881V37.8964Z" fill="#fff"/>
<path d="M52.9954 39.257V38.2766C52.9231 38.2687 52.8509 38.2618 52.7708 38.2618C52.4663 38.2618 51.9733 38.3494 51.7555 38.825V38.2912H50.82V41.8906H51.7847V40.2445C51.7847 39.4688 52.2125 39.2275 52.7055 39.2275C52.7924 39.2275 52.8869 39.2352 52.9954 39.257Z" fill="#fff"/>
<path fill-rule="evenodd" clip-rule="evenodd" d="M57.1125 40.0909C57.1125 38.9792 56.3079 38.1818 55.2419 38.1818C54.1757 38.1818 53.371 38.9863 53.371 40.0909C53.371 41.1957 54.1757 42 55.2419 42C56.3079 42 57.1125 41.2026 57.1125 40.0909ZM56.1488 40.0909C56.1488 40.7712 55.7133 41.115 55.2419 41.115C54.771 41.115 54.3357 40.7712 54.3357 40.0909C54.3357 39.4106 54.7704 39.067 55.2419 39.067C55.7133 39.067 56.1488 39.4106 56.1488 40.0909Z" fill="#fff"/>
<path d="M57.8741 41.8906H58.8387V39.7837C58.8387 39.3881 59.071 39.0739 59.5057 39.0739C59.9402 39.0739 60.1365 39.3664 60.1365 39.7542V41.8906H61.094V39.7837C61.094 39.3958 61.3409 39.0739 61.754 39.0739C62.1964 39.0739 62.3848 39.3664 62.3848 39.7542V41.8906H63.3202V39.5573C63.3202 38.5915 62.6895 38.1888 62.0294 38.1888C61.558 38.1888 61.1809 38.3494 60.898 38.7885C60.7171 38.4006 60.3256 38.1888 59.8395 38.1888C59.4479 38.1888 58.9909 38.379 58.7949 38.7303V38.2912H57.8741V41.8906Z" fill="#fff"/>
<path d="M67.0535 41.8906V39.7767C67.0749 39.3819 67.3143 39.0747 67.7205 39.0747C68.1843 39.0747 68.3803 39.3888 68.3803 39.7914V41.8906H69.345V39.6231C69.345 38.8327 68.9242 38.1965 68.018 38.1965C67.6773 38.1965 67.2858 38.3137 67.0535 38.5915V36.5939H66.0888V41.8906H67.0535Z" fill="#fff"/>
<path fill-rule="evenodd" clip-rule="evenodd" d="M73.7979 40.0909C73.7979 38.9792 72.9925 38.1818 71.9272 38.1818C70.8611 38.1818 70.0557 38.9863 70.0557 40.0909C70.0557 41.1957 70.8618 42 71.9272 42C72.9925 42 73.7979 41.2026 73.7979 40.0909ZM72.8334 40.0909C72.8334 40.7712 72.398 41.115 71.9272 41.115C71.4556 41.115 71.0203 40.7712 71.0203 40.0909C71.0203 39.4106 71.4563 39.067 71.9272 39.067C72.398 39.067 72.8334 39.4106 72.8334 40.0909Z" fill="#fff"/>
<path d="M74.5594 41.8906H75.5232V39.7837C75.5232 39.3881 75.7562 39.0739 76.1914 39.0739C76.6258 39.0739 76.822 39.3664 76.822 39.7542V41.8906H77.7787V39.7837C77.7787 39.3958 78.0259 39.0739 78.4387 39.0739C78.8812 39.0739 79.0702 39.3664 79.0702 39.7542V41.8906H80.0056V39.5573C80.0056 38.5915 79.375 38.1888 78.715 38.1888C78.2432 38.1888 77.8663 38.3494 77.5832 38.7885C77.4019 38.4006 77.0102 38.1888 76.5239 38.1888C76.1329 38.1888 75.6761 38.379 75.4806 38.7303V38.2912H74.5594V41.8906Z" fill="#fff"/>
<path fill-rule="evenodd" clip-rule="evenodd" d="M84.1811 40.859L83.3757 40.6176C83.2596 40.9395 83.0132 41.1668 82.5637 41.1668C82.0851 41.1668 81.6859 40.8232 81.6641 40.3477H84.2169C84.2169 40.344 84.2178 40.3325 84.2191 40.3149C84.2233 40.2612 84.2319 40.1522 84.2319 40.0474C84.2319 38.8916 83.5719 38.1818 82.4693 38.1818C81.5555 38.1818 80.7142 38.9274 80.7142 40.0763C80.7142 41.2902 81.5772 42 82.5562 42C83.4335 42 83.9997 41.481 84.1811 40.859ZM82.4836 38.9715C83.035 38.9715 83.2671 39.323 83.2813 39.6813H81.6859C81.7084 39.3517 81.9832 38.9715 82.4836 38.9715Z" fill="#fff"/>
</g>
</svg>
