<!--
  - Copyright (c) 2024. Devtron Inc.
  -
  - Licensed under the Apache License, Version 2.0 (the "License");
  - you may not use this file except in compliance with the License.
  - You may obtain a copy of the License at
  -
  -     http://www.apache.org/licenses/LICENSE-2.0
  -
  - Unless required by applicable law or agreed to in writing, software
  - distributed under the License is distributed on an "AS IS" BASIS,
  - WITHOUT WARRANTIES OR CONDITIONS OF ANY KIND, either express or implied.
  - See the License for the specific language governing permissions and
  - limitations under the License.
  -->

<svg xmlns="http://www.w3.org/2000/svg" width="24" height="24" fill="none" viewBox="0 0 24 24">
  <path stroke="#3B444C" stroke-linecap="round" stroke-linejoin="round" stroke-width="1.5" d="M19.5 9.75h2.25m-2.25 4.5h2.25m-19.5-4.5H4.5m-2.25 4.5H4.5m9.75 5.25v2.25m-4.5-2.25v2.25m4.5-19.5V4.5m-4.5-2.25V4.5m-.375 4.875h5.25v5.25h-5.25v-5.25ZM5.25 4.5h13.5a.75.75 0 0 1 .75.75v13.5a.75.75 0 0 1-.75.75H5.25a.75.75 0 0 1-.75-.75V5.25a.75.75 0 0 1 .75-.75Z" vector-effect="non-scaling-stroke"/>
</svg>