<svg xmlns="http://www.w3.org/2000/svg" width="24" height="24" viewBox="0 0 24 24" fill="none">
<path fill-rule="evenodd" clip-rule="evenodd" d="M16.1558 2.01314C17.0863 2.13825 17.5633 3.24858 17.0081 3.99141C16.883 4.15562 16.0385 5.03138 15.1315 5.93841C14.2244 6.83763 13.4816 7.61173 13.4816 7.65865C13.4816 7.7603 16.0776 10.3563 16.1792 10.3563C16.2183 10.3563 17.0785 9.53528 18.095 8.52659C19.6666 6.95492 19.9716 6.68906 20.2296 6.64215C21.2461 6.45448 22.0359 7.3537 21.6918 8.29983C21.6449 8.41712 20.777 9.34761 19.7683 10.3563L17.9386 12.1938L18.4937 12.7412C19.0958 13.3276 19.2679 13.6326 19.2679 14.0705C19.2679 14.4927 19.1271 14.696 18.181 15.6343C17.704 16.1035 17.313 16.5257 17.313 16.5726C17.313 16.6117 18.267 17.6048 19.4321 18.7777L21.5589 20.9045L21.512 21.2407C21.426 21.8897 20.7848 22.2025 20.2453 21.8584C20.1187 21.7767 18.0146 19.6943 15.2779 16.9616L14.4393 16.1237C14.0594 15.7438 13.6706 15.3548 13.2761 14.9598L12.6806 14.3632C12.3811 14.0631 12.0793 13.7605 11.7765 13.4569L11.1702 12.8485C6.61934 8.28058 2.05799 3.66801 2.02636 3.56917C1.94817 3.28768 2.04982 2.89671 2.25312 2.70123C2.47988 2.49011 2.91776 2.41192 3.16016 2.53703C3.23165 2.57873 3.80698 3.13335 4.55414 3.8758L5.14155 4.46278C5.19232 4.51378 5.24343 4.5652 5.29482 4.61695L7.24964 6.61087L8.23486 5.63346C9.04807 4.83589 9.27483 4.65605 9.51722 4.60914C10.0333 4.50748 10.4008 4.67951 11.0654 5.32851L11.6597 5.90713L13.4034 4.1087C15.2957 2.15388 15.5772 1.93494 16.1558 2.01314ZM4.73183 17.3624L6.46771 19.0982L5.57631 20.0444C5.07588 20.5761 4.59108 21.0218 4.45816 21.0687C4.15321 21.1703 3.80134 21.1625 3.51203 21.0374C3.18362 20.8967 2.86303 20.4979 2.80047 20.1538C2.69882 19.63 2.8943 19.2859 3.84825 18.285L4.73183 17.3624ZM5.3261 9.61347L9.79872 14.0705L14.2713 18.5274L14.0524 18.6213C13.3643 18.9028 11.777 19.0748 10.9012 18.9575C8.16449 18.6134 5.98291 16.7994 5.15407 14.1877C4.77093 12.9914 4.8022 11.1304 5.22445 9.91842L5.3261 9.61347Z" fill="var(--N0)"/>
</svg>