<!--
  - Copyright (c) 2024. Devtron Inc.
  -
  - Licensed under the Apache License, Version 2.0 (the "License");
  - you may not use this file except in compliance with the License.
  - You may obtain a copy of the License at
  -
  -     http://www.apache.org/licenses/LICENSE-2.0
  -
  - Unless required by applicable law or agreed to in writing, software
  - distributed under the License is distributed on an "AS IS" BASIS,
  - WITHOUT WARRANTIES OR CONDITIONS OF ANY KIND, either express or implied.
  - See the License for the specific language governing permissions and
  - limitations under the License.
  -->

<svg xmlns="http://www.w3.org/2000/svg" width="24" height="24" fill="none" viewBox="0 0 24 24">
  <path fill="#FE636E" d="M5.697 14.187c-1.406.073-3.81.871-3.578 2.538.587 4.23-4.037 5.587 2.116 5.587 3.096 0 5.047-1.358 5.342-4.208l-.836-3.23-3.044-.688Z"/>
  <path fill="#FFD659" d="M6.804 15.306c-.652.034-1.769.404-1.662 1.179.273 1.965-1.875 2.594.983 2.594 1.438 0 2.346-.63 2.482-1.954l-.316-1.596-1.487-.223Z"/>
  <path fill="#FB2A39" d="M8.216 18.228c-.836 1.521-2.493 2.255-4.768 2.255-.891 0-1.556-.03-2.043-.09-.657 1.398-.977 1.918 2.83 1.918 3.096 0 5.047-1.357 5.342-4.207l-.702-.71-.24-.242a4.845 4.845 0 0 1-.07.242 2.092 2.092 0 0 1-.35.834Z"/>
  <path fill="#FFBF00" d="M7.952 16.464c-.307.95-1.145 1.405-2.368 1.405-.244 0-.451-.004-.627-.014-.36.901-.876 1.223 1.168 1.223.954 0 1.674-.276 2.09-.85.167-.23.287-.508.35-.833.018-.087.032-.177.042-.271l-.655-.66Z"/>
  <path fill="#99B4CD" d="M22.264 1.058c-.882-.164-2.49.007-4.447.676l.881 3.268 3.577 1.221c.666-1.988.832-3.617.664-4.502-.098-.515-.16-.568-.675-.663Z"/>
  <path fill="#06C" d="M12.186 4.695c-2.45-.893-4.347-.486-6.27 1.272-.893.867-2.377 2.005-1.151 3.243l1.524 1.539 4.382-2.235 1.515-3.819Z"/>
  <path fill="#6C9ABB" d="M21.987 1.02c.086.927-.108 2.42-.704 4.202l.992 1.001c.665-1.989.832-3.618.664-4.502-.098-.515-.16-.568-.675-.663a2.84 2.84 0 0 0-.277-.038Z"/>
  <path fill="#0053A6" d="M10.633 4.294a25.173 25.173 0 0 0-5.301 5.488l.957.967c1.809-2.602 3.863-4.58 5.896-6.054a7.671 7.671 0 0 0-1.552-.401Z"/>
  <path fill="#C7C7C7" d="M18.57 10.595a22.37 22.37 0 0 0 2.364-4.417 17.885 17.885 0 0 0 .349-.956l.993 1c-.103.31-.22.63-.348.955a22.145 22.145 0 0 1-1.956 3.8 6.955 6.955 0 0 0-1.403-.382Z"/>
  <path fill="#99B4CD" d="m12.163 16.479-1.137-4.423-3.627-.188-1.835 1.077c-.369.216-.307.797-.014 1.094l.147.147 4.386 4.428a.53.53 0 0 0 .013.013 2.456 2.456 0 0 1 2.067-2.148Z"/>
  <path fill="#E5E5E5" d="M21.928 7.179c.128-.326.244-.645.347-.956l-4.458-4.489c-1.695.579-3.654 1.532-5.631 2.962-2.034 1.473-4.088 3.452-5.896 6.053l5.707 5.762c.173-.039.353-.06.538-.06h.594a2.454 2.454 0 0 1-.594-3.91 6.953 6.953 0 0 1 7.437-1.563 22.18 22.18 0 0 0 1.956-3.8Z"/>
  <path fill="#C7C7C7" d="m11.763 12.819-1.71 1.725-.002.002-.235-.237-.236-.239 1.708-1.723a.334.334 0 1 1 .475.472Z"/>
  <path fill="#6C9ABB" d="m11.997 16.51-.973-.982-1.066 1.853c-.214.372-.789.31-1.084.014l1.209 1.22a.402.402 0 0 0 .013.013 2.456 2.456 0 0 1 1.9-2.117Z"/>
  <path fill="#C70" fill-rule="evenodd" d="M17.455 13.773a3.682 3.682 0 0 0-2.604 1.079.818.818 0 0 1-1.157-1.158 5.32 5.32 0 0 1 7.521 0l.339.34v-.48a.818.818 0 1 1 1.636 0v2.455a.818.818 0 0 1-.818.818h-2.454a.818.818 0 0 1 0-1.637h.479l-.339-.338a3.683 3.683 0 0 0-2.603-1.079Zm-5.736 5.128c0-.452.366-.818.818-.818h2.454a.818.818 0 0 1 0 1.636h-.479l.34.34a3.683 3.683 0 0 0 5.206 0 .818.818 0 0 1 1.157 1.156 5.318 5.318 0 0 1-7.521 0l-.339-.338v.479a.818.818 0 1 1-1.636 0V18.9Z" clip-rule="evenodd"/>
</svg>
