<svg xmlns="http://www.w3.org/2000/svg" width="109" height="25" viewBox="0 0 109 25" fill="none">
  <path fill-rule="evenodd" clip-rule="evenodd" d="M41.871 17.5159C42.4188 17.5159 42.8597 17.4048 43.1928 17.1827C43.5261 16.9605 43.7852 16.6828 43.9705 16.3496C44.1555 16.0163 44.2777 15.6573 44.3371 15.2719C44.3961 14.887 44.426 14.5315 44.426 14.2055C44.426 13.8799 44.3961 13.5244 44.3371 13.1391C44.2777 12.7542 44.1555 12.3949 43.9705 12.0616C43.7852 11.7283 43.5261 11.4506 43.1928 11.2285C42.8597 11.0062 42.4188 10.8952 41.871 10.8952C41.3228 10.8952 40.8824 11.0062 40.5491 11.2285C40.2158 11.4506 39.9602 11.7283 39.7826 12.0616C39.6049 12.3949 39.4862 12.7542 39.4271 13.1391C39.3678 13.5244 39.3382 13.8799 39.3382 14.2055C39.3382 14.5315 39.3678 14.887 39.4271 15.2719C39.4862 15.6573 39.6049 16.0163 39.7826 16.3496C39.9602 16.6828 40.2158 16.9605 40.5491 17.1827C40.8824 17.4048 41.3228 17.5159 41.871 17.5159ZM44.426 9.87025V4.82996H47.0698V14.1834C47.0698 14.9536 46.9955 15.6275 46.8476 16.2051C46.6993 16.7828 46.5033 17.2826 46.2589 17.7047C46.0145 18.1269 45.7368 18.4751 45.4258 18.749C45.1148 19.0233 44.796 19.2489 44.4703 19.4266C43.7001 19.8265 42.8337 20.0338 41.871 20.0487C40.8784 20.0338 39.9971 19.8265 39.2271 19.4266C38.9012 19.2489 38.579 19.0233 38.2607 18.749C37.942 18.4751 37.6608 18.1307 37.4165 17.7159C37.1721 17.3014 36.9755 16.805 36.8276 16.2274C36.6795 15.6497 36.6055 14.9759 36.6055 14.2055C36.6055 13.4355 36.6756 12.7614 36.8165 12.1838C36.9572 11.6061 37.1421 11.1063 37.3719 10.6842C37.6015 10.262 37.8607 9.91042 38.1496 9.6288C38.4384 9.34761 38.7383 9.11777 39.0493 8.94015C39.7604 8.52557 40.5747 8.30344 41.4933 8.27362C41.9523 8.31798 42.3965 8.42912 42.8263 8.60688C43.1963 8.76995 43.5741 9.01783 43.9595 9.3511C44.2161 9.57328 44.3716 9.74633 44.426 9.87025ZM56.1788 12.7614C56.1045 12.5246 56.0121 12.2876 55.9011 12.0505C55.79 11.8137 55.6379 11.5988 55.4456 11.4062C55.2529 11.2138 55.0235 11.0618 54.7568 10.9508C54.4902 10.8396 54.1792 10.7841 53.8238 10.7841C53.4683 10.7841 53.1573 10.8396 52.8906 10.9508C52.624 11.0618 52.3941 11.2138 52.2018 11.4062C52.0092 11.5988 51.8537 11.8137 51.7353 12.0505C51.6166 12.2876 51.5277 12.5246 51.4687 12.7614H56.1788ZM58.9782 12.7614C59.0077 12.9835 59.0337 13.2134 59.0559 13.4502C59.0781 13.6873 59.0892 13.939 59.0892 14.2055V14.6054H51.3132C51.3427 14.8574 51.3798 15.1129 51.4243 15.372C51.4687 15.6312 51.5427 15.8868 51.6464 16.1384C51.8092 16.5238 52.061 16.8643 52.4019 17.1603C52.7424 17.4568 53.2162 17.6048 53.8238 17.6048C54.4308 17.6048 54.9048 17.4568 55.2456 17.1603C55.5862 16.8643 55.8378 16.5238 56.001 16.1384H58.8893C58.7706 16.657 58.6039 17.1087 58.3895 17.4936C58.1745 17.879 57.9373 18.2122 57.6784 18.4934C57.4192 18.775 57.1413 19.0082 56.8453 19.1933C56.5489 19.3786 56.26 19.5303 55.9788 19.6487C55.2974 19.9154 54.5791 20.0486 53.8238 20.0486C52.8313 20.0338 51.9499 19.8265 51.1799 19.4266C50.8539 19.2488 50.5317 19.0232 50.2134 18.749C49.8947 18.4751 49.6135 18.1306 49.3691 17.7159C49.1248 17.3013 48.9284 16.805 48.7804 16.2273C48.6322 15.6497 48.5583 14.9759 48.5583 14.2055C48.5583 13.4355 48.6322 12.7614 48.7804 12.1837C48.9284 11.6061 49.1248 11.1063 49.3691 10.6841C49.6135 10.262 49.8947 9.91037 50.2134 9.62875C50.5317 9.34756 50.8539 9.11772 51.1799 8.9401C51.9499 8.52552 52.8313 8.30339 53.8238 8.27357C54.6381 8.30339 55.4011 8.47344 56.1122 8.78445C56.4082 8.91785 56.7081 9.09212 57.0119 9.30668C57.3153 9.52154 57.5968 9.78804 57.8562 10.1065C58.1151 10.4252 58.3449 10.8028 58.545 11.2395C58.7448 11.6766 58.8893 12.1837 58.9782 12.7614ZM64.6658 20.2642H66.4876H68.3095L71.9753 9H69.2425L66.4876 17.4204L63.7328 9H61L64.6658 20.2642ZM75.1074 11.2062V16.1607C75.1517 16.3383 75.233 16.5015 75.3517 16.6494C75.4552 16.7682 75.5996 16.8793 75.785 16.9827C75.97 17.0864 76.2106 17.1382 76.5071 17.1382H78.1955V19.8265H75.485C74.9073 19.7674 74.3888 19.6043 73.9298 19.3377C73.5445 19.1156 73.1929 18.7861 72.8746 18.3491C72.5559 17.9123 72.3969 17.3086 72.3969 16.5383V7.03373H75.1074V8.56231H77.6624V11.2062H75.1074ZM79.9508 10.0399C79.6248 10.4769 79.4621 11.0806 79.4621 11.8505V19.8265H82.1948V12.2282C82.2392 12.0506 82.3205 11.8876 82.4392 11.7394C82.5426 11.6211 82.6871 11.51 82.8724 11.4061C83.0575 11.3027 83.2981 11.2506 83.5945 11.2506H85.6829V8.56237H82.5725C81.9948 8.62173 81.4762 8.7845 81.0173 9.05115C80.6319 9.27328 80.2764 9.60305 79.9508 10.0399ZM92.1254 10.8951C91.5773 10.8951 91.1367 11.0063 90.8034 11.2284C90.4703 11.4505 90.2147 11.7282 90.0369 12.0615C89.8593 12.3948 89.7405 12.7541 89.6815 13.1391C89.6222 13.5245 89.5927 13.8798 89.5927 14.2055C89.5927 14.5315 89.6222 14.8869 89.6815 15.272C89.7405 15.6573 89.8593 16.0162 90.0369 16.3494C90.2147 16.6827 90.4703 16.9604 90.8034 17.1825C91.1367 17.4048 91.5773 17.5158 92.1254 17.5158C92.6732 17.5158 93.114 17.4048 93.4473 17.1825C93.7805 16.9604 94.0361 16.6827 94.2137 16.3494C94.3915 16.0162 94.5099 15.6573 94.5693 15.272C94.6283 14.8869 94.6581 14.5315 94.6581 14.2055C94.6581 13.8798 94.6283 13.5245 94.5693 13.1391C94.5099 12.7541 94.3915 12.3948 94.2137 12.0615C94.0361 11.7282 93.7805 11.4505 93.4473 11.2284C93.114 11.0063 92.6732 10.8951 92.1254 10.8951ZM86.8599 14.2055C86.8599 13.4356 86.9338 12.7613 87.082 12.1837C87.23 11.606 87.4265 11.1062 87.6709 10.6841C87.9153 10.2619 88.1965 9.91031 88.515 9.62868C88.8335 9.3475 89.1555 9.1178 89.4815 8.94004C90.2515 8.52546 91.1329 8.30333 92.1254 8.27351C93.103 8.30333 93.9768 8.52546 94.747 8.94004C95.0726 9.1178 95.3948 9.3475 95.7135 9.62868C96.0318 9.91031 96.3133 10.2619 96.5577 10.6841C96.8021 11.1062 97.0021 11.606 97.1576 12.1837C97.3131 12.7613 97.3909 13.4356 97.3909 14.2055C97.3909 14.9758 97.3131 15.6496 97.1576 16.2273C97.0021 16.8049 96.8021 17.3014 96.5577 17.7158C96.3133 18.1307 96.0318 18.475 95.7135 18.7489C95.3948 19.0231 95.0726 19.2488 94.747 19.4265C93.9768 19.8264 93.103 20.0337 92.1254 20.0486C91.1329 20.0337 90.2515 19.8264 89.4815 19.4265C89.1555 19.2488 88.8335 19.0231 88.515 18.7489C88.1965 18.475 87.9153 18.1307 87.6709 17.7158C87.4265 17.3014 87.23 16.8049 87.082 16.2273C86.9338 15.6496 86.8599 14.9758 86.8599 14.2055ZM104.156 8.29576C103.882 8.28107 103.723 8.27351 103.679 8.27351C103.619 8.27351 103.456 8.28107 103.19 8.29576C102.923 8.3106 102.604 8.37344 102.235 8.48458C101.864 8.59572 101.471 8.76999 101.057 9.00666C100.642 9.24378 100.257 9.58432 99.9017 10.0287C99.5461 10.473 99.2536 11.0323 99.0241 11.7061C98.7942 12.3802 98.6797 13.2133 98.6797 14.2055V19.8264H101.39V14.2055C101.39 13.8798 101.42 13.5466 101.479 13.2057C101.538 12.8652 101.649 12.5542 101.812 12.2726C101.975 11.9914 102.205 11.7582 102.501 11.5727C102.797 11.3877 103.19 11.295 103.679 11.295C104.167 11.295 104.56 11.3877 104.856 11.5727C105.152 11.7582 105.382 11.9914 105.545 12.2726C105.708 12.5542 105.819 12.8652 105.878 13.2057C105.937 13.5466 105.967 13.8798 105.967 14.2055V19.8264H108.677V14.2055C108.677 13.2133 108.563 12.3802 108.333 11.7061C108.103 11.0323 107.811 10.473 107.456 10.0287C107.1 9.58432 106.715 9.24378 106.3 9.00666C105.885 8.76999 105.493 8.59572 105.123 8.48458C104.752 8.37344 104.43 8.3106 104.156 8.29576Z" fill="#F8F8F9"/>
  <path fill-rule="evenodd" clip-rule="evenodd" d="M5.47986 22.2232L0.33753 14.1273C-0.106586 13.4313 -0.112807 12.5424 0.321089 11.8399L6.95151 1.10777C7.37852 0.416597 8.13389 -0.00285871 8.94614 1.46681e-05L18.5183 0.0342435C18.5399 0.0342435 18.5612 0.0349101 18.5823 0.0360209C19.5156 0.0840094 20.0275 1.1522 19.5127 1.93246L12.8697 11.9992C12.6199 12.5128 12.0394 12.8352 11.4064 12.6903C10.9379 12.5833 10.5589 12.2007 10.4542 11.7317C10.3825 11.4098 10.432 11.1029 10.5644 10.8463C10.5646 10.8459 10.5647 10.8456 10.5648 10.8452C10.565 10.8448 10.5651 10.8445 10.5653 10.8441L10.5669 10.8417C10.6064 10.7661 10.6531 10.6948 10.7059 10.6288L11.7175 9.08253C12.0172 8.63664 11.7379 8.03189 11.204 7.97057L8.77285 7.78595C8.32162 7.75151 7.87595 7.90459 7.54092 8.20896C7.1008 8.72373 5.14638 11.8765 4.25415 13.3544C3.96622 13.8314 4.00088 14.427 4.32369 14.8811L4.31258 14.8865L7.40851 19.7484L7.98926 20.6709C8.04969 20.7486 8.10257 20.8324 8.14678 20.9213L8.16855 20.9557L8.167 20.9635C8.28097 21.2114 8.32896 21.496 8.28697 21.7948C8.19876 22.4209 7.69844 22.9397 7.07459 23.0439C6.37853 23.1603 5.75313 22.7921 5.47986 22.2232ZM22.6358 2.75285L27.8142 10.8258C28.2614 11.5199 28.2716 12.4088 27.8408 13.113L21.2584 23.8747C20.8345 24.5676 20.0809 24.9907 19.2686 24.9913L9.69648 25C9.67493 25 9.65361 24.9995 9.6325 24.9984C8.69894 24.9547 8.1824 23.8887 8.69361 23.1062L15.2916 13.0097C15.5391 12.4952 16.1181 12.1702 16.7517 12.3121C17.2207 12.4172 17.6015 12.798 17.7081 13.2666C17.7814 13.5883 17.7332 13.8951 17.6019 14.1526L17.6013 14.1546L17.5995 14.157C17.5604 14.233 17.5142 14.3043 17.4613 14.3705L16.4569 15.9215C16.1592 16.3687 16.4411 16.9721 16.9752 17.031L19.4071 17.205C19.8587 17.2372 20.3035 17.0821 20.6374 16.7764C21.0751 16.2596 23.0153 13.0982 23.9009 11.6163C24.1868 11.138 24.1497 10.5425 23.8247 10.09L23.8358 10.0844L20.7181 5.23625L20.1333 4.31647C20.0725 4.23894 20.0191 4.1554 19.9745 4.06676L19.9527 4.03254L19.9543 4.02477C19.8392 3.77727 19.7901 3.49289 19.8307 3.19385C19.9158 2.56734 20.4139 2.04657 21.0373 1.93948C21.7329 1.81996 22.3599 2.1852 22.6358 2.75285Z" fill="#F8F8F9"/>
</svg>