<svg xmlns="http://www.w3.org/2000/svg" width="17" height="16" fill="none" viewBox="0 0 17 16">
  <path fill="#fff" fill-rule="evenodd" d="M11.27 1.342c.62.083.939.824.569 1.319-.084.11-.647.693-1.251 1.298-.605.6-1.1 1.115-1.1 1.147 0 .068 1.73 1.798 1.798 1.798.026 0 .6-.547 1.277-1.22 1.048-1.047 1.251-1.225 1.423-1.256.678-.125 1.205.474.975 1.105-.031.078-.61.699-1.282 1.371l-1.22 1.225.37.365c.402.391.516.594.516.886 0 .282-.094.417-.724 1.043-.318.313-.579.594-.579.625 0 .027.636.688 1.413 1.47l1.418 1.418-.032.225c-.057.432-.484.64-.844.411-.085-.054-1.487-1.442-3.312-3.264l-.559-.559-.775-.776-.397-.398-.603-.604-.404-.405C4.913 5.52 1.872 2.446 1.85 2.379a.645.645 0 0 1 .151-.578c.151-.14.443-.193.605-.11.047.028.431.398.93.893l.39.391.103.103 1.303 1.33.657-.652c.542-.532.693-.652.855-.683.344-.068.589.047 1.032.48l.396.385L9.436 2.74c1.261-1.303 1.449-1.449 1.835-1.397ZM3.655 11.575l1.157 1.157-.594.63c-.334.355-.657.652-.746.684a.904.904 0 0 1-.63-.021.896.896 0 0 1-.475-.59c-.068-.348.063-.578.699-1.245l.589-.615Zm.396-5.166L7.032 9.38l2.982 2.972-.146.062c-.458.188-1.517.303-2.1.224-1.825-.229-3.28-1.438-3.832-3.18-.255-.797-.235-2.038.047-2.846l.068-.203Z" clip-rule="evenodd"/>
</svg>
