<!--
  - Copyright (c) 2024. Devtron Inc.
  -
  - Licensed under the Apache License, Version 2.0 (the "License");
  - you may not use this file except in compliance with the License.
  - You may obtain a copy of the License at
  -
  -     http://www.apache.org/licenses/LICENSE-2.0
  -
  - Unless required by applicable law or agreed to in writing, software
  - distributed under the License is distributed on an "AS IS" BASIS,
  - WITHOUT WARRANTIES OR CONDITIONS OF ANY KIND, either express or implied.
  - See the License for the specific language governing permissions and
  - limitations under the License.
  -->

<svg width="24" height="24" viewBox="0 0 24 24" fill="none" xmlns="http://www.w3.org/2000/svg">
<path d="M22.8096 10.427C22.7542 10.3814 22.2529 10.0005 21.1769 10.0005C20.8985 10.0005 20.6104 10.0282 20.3321 10.0754C20.1286 8.65599 18.9501 7.96906 18.9029 7.93325L18.6148 7.76559L18.4292 8.03418C18.1981 8.39554 18.0206 8.80411 17.9197 9.22082C17.7244 10.0282 17.8448 10.7884 18.2534 11.4379C17.7618 11.7162 16.9642 11.7813 16.7965 11.7911H3.62295C3.27949 11.7911 3.00114 12.0694 3.00114 12.4129C2.98323 13.5637 3.17694 14.7129 3.57574 15.7987C4.02989 16.9853 4.70705 17.8676 5.57954 18.4047C6.56271 19.007 8.1677 19.3505 9.97616 19.3505C10.7917 19.3505 11.6088 19.2756 12.4162 19.1275C13.5394 18.924 14.6153 18.5333 15.6066 17.9685C16.4238 17.4948 17.1563 16.8925 17.7781 16.1877C18.8264 15.0092 19.4482 13.6923 19.9023 12.5236C19.9675 12.5236 20.0228 12.5236 20.0879 12.5236C21.229 12.5236 21.9338 12.0694 22.3228 11.6788C22.5833 11.4379 22.777 11.14 22.917 10.8063L23 10.5654L22.8096 10.427ZM14.656 11.4102H16.4189C16.5019 11.4102 16.5768 11.3451 16.5768 11.2523V9.67497C16.5768 9.59196 16.5117 9.51708 16.4189 9.51708H14.656C14.573 9.51708 14.4981 9.58219 14.4981 9.67497V11.2523C14.5079 11.3451 14.573 11.4102 14.656 11.4102ZM12.1981 6.8931H13.961C14.044 6.8931 14.1189 6.82799 14.1189 6.73521V5.15789C14.1189 5.07488 14.044 5 13.961 5H12.1981C12.1151 5 12.0402 5.06511 12.0402 5.15789V6.73521C12.0402 6.81823 12.1134 6.8931 12.1981 6.8931ZM12.1981 9.15571H13.961C14.044 9.15571 14.1189 9.08084 14.1189 8.99782V7.4205C14.1189 7.33749 14.044 7.26261 13.961 7.26261H12.1981C12.1151 7.26261 12.0402 7.32772 12.0402 7.4205V8.99782C12.0402 9.08246 12.1134 9.15571 12.1981 9.15571ZM9.75804 9.15571H11.5209C11.6039 9.15571 11.6788 9.08084 11.6788 8.99782V7.4205C11.6788 7.33749 11.6137 7.26261 11.5209 7.26261H9.75804C9.67502 7.26261 9.60014 7.32772 9.60014 7.4205V8.99782C9.60014 9.08246 9.66525 9.15571 9.75804 9.15571ZM7.28056 9.15571H9.04344C9.12646 9.15571 9.20134 9.08084 9.20134 8.99782V7.4205C9.20134 7.33749 9.13623 7.26261 9.04344 7.26261H7.28056C7.19755 7.26261 7.12267 7.32772 7.12267 7.4205V8.99782C7.13243 9.08246 7.19755 9.15571 7.28056 9.15571ZM12.1981 11.4102H13.961C14.044 11.4102 14.1189 11.3451 14.1189 11.2523V9.67497C14.1189 9.59196 14.0537 9.51708 13.961 9.51708H12.1981C12.1151 9.51708 12.0402 9.58219 12.0402 9.67497V11.2523C12.0402 11.3451 12.1134 11.4102 12.1981 11.4102ZM9.75804 11.4102H11.5209C11.6039 11.4102 11.6788 11.3451 11.6788 11.2523V9.67497C11.6788 9.59196 11.6137 9.51708 11.5209 9.51708H9.75804C9.67502 9.51708 9.60014 9.58219 9.60014 9.67497V11.2523C9.60014 11.3451 9.66525 11.4102 9.75804 11.4102ZM7.28056 11.4102H9.04344C9.12646 11.4102 9.20134 11.3451 9.20134 11.2523V9.67497C9.20134 9.59196 9.13623 9.51708 9.04344 9.51708H7.28056C7.19755 9.51708 7.12267 9.58219 7.12267 9.67497V11.2523C7.13243 11.3451 7.19755 11.4102 7.28056 11.4102ZM4.85029 11.4102H6.61317C6.69619 11.4102 6.77107 11.3451 6.77107 11.2523V9.67497C6.77107 9.59196 6.70596 9.51708 6.61317 9.51708H4.85029C4.76727 9.51708 4.6924 9.58219 4.6924 9.67497V11.2523C4.70216 11.3451 4.76727 11.4102 4.85029 11.4102Z" fill="#0091E2"/>
</svg>
