<svg xmlns="http://www.w3.org/2000/svg" width="24" height="24" fill="none" viewBox="0 0 24 24">
  <path stroke="#3B444C" stroke-linecap="round" stroke-linejoin="round" stroke-width="1.5" d="M22 6.5c0 3.038-4.477 5.5-10 5.5S2 9.538 2 6.5m20 0C22 3.462 17.523 1 12 1S2 3.462 2 6.5m20 0V12M2 6.5V12m0 0c0 3.038 4.477 5.5 10 5.5s10-2.462 10-5.5M2 12v5.5C2 20.538 6.477 23 12 23s10-2.462 10-5.5V12m-7.954-6.68H16.5m0 0V3.926m0 1.394-1.446-.82c-.838-.476-1.972-.745-3.156-.749-1.184-.004-2.324.258-3.17.728M9.954 7.18H7.5m0 0v1.394m0-1.394L8.946 8c.838.476 1.972.745 3.156.749 1.184.004 2.323-.258 3.17-.728" vector-effect="non-scaling-stroke"/>
</svg>
