<svg width="24" height="24" viewBox="0 0 24 24" fill="none" xmlns="http://www.w3.org/2000/svg">
<path d="M22.7905 10.0508C22.7296 10 22.1781 9.57532 20.9946 9.57532C20.6884 9.57532 20.3715 9.60617 20.0653 9.6588C19.8415 8.07622 18.5451 7.31034 18.4932 7.27042L18.1762 7.08348L17.9721 7.38294C17.7179 7.78584 17.5227 8.24138 17.4117 8.70599C17.1968 9.60617 17.3293 10.4537 17.7787 11.1779C17.238 11.4882 16.3606 11.5608 16.1762 11.5717H1.68524C1.30744 11.5717 1.00125 11.882 1.00125 12.265C0.981554 13.5481 1.19463 14.8294 1.63332 16.0399C2.13288 17.363 2.87775 18.3466 3.83749 18.9456C4.91898 19.6171 6.68447 20 8.67378 20C9.57084 20 10.4697 19.9165 11.3578 19.7514C12.5933 19.5245 13.7769 19.0889 14.8673 18.4592C15.7662 17.931 16.5719 17.2595 17.2559 16.4737C18.409 15.1597 19.093 13.6915 19.5926 12.3884C19.6642 12.3884 19.7251 12.3884 19.7967 12.3884C21.0519 12.3884 21.8272 11.882 22.2551 11.4465C22.5416 11.1779 22.7547 10.8457 22.9087 10.4737L23 10.2051L22.7905 10.0508ZM13.8216 11.147H15.7608C15.8521 11.147 15.9345 11.0744 15.9345 10.971V9.21234C15.9345 9.11978 15.8629 9.0363 15.7608 9.0363H13.8216C13.7303 9.0363 13.6479 9.10889 13.6479 9.21234V10.971C13.6587 11.0744 13.7303 11.147 13.8216 11.147ZM11.1179 6.11071H13.0571C13.1484 6.11071 13.2307 6.03811 13.2307 5.93466V4.17604C13.2307 4.08348 13.1484 4 13.0571 4H11.1179C11.0266 4 10.9442 4.0726 10.9442 4.17604V5.93466C10.9442 6.02722 11.0248 6.11071 11.1179 6.11071ZM11.1179 8.63339H13.0571C13.1484 8.63339 13.2307 8.54991 13.2307 8.45735V6.69873C13.2307 6.60617 13.1484 6.52269 13.0571 6.52269H11.1179C11.0266 6.52269 10.9442 6.59528 10.9442 6.69873V8.45735C10.9442 8.55172 11.0248 8.63339 11.1179 8.63339ZM8.43384 8.63339H10.373C10.4643 8.63339 10.5467 8.54991 10.5467 8.45735V6.69873C10.5467 6.60617 10.4751 6.52269 10.373 6.52269H8.43384C8.34252 6.52269 8.26016 6.59528 8.26016 6.69873V8.45735C8.26016 8.55172 8.33178 8.63339 8.43384 8.63339ZM5.70862 8.63339H7.64779C7.73911 8.63339 7.82147 8.54991 7.82147 8.45735V6.69873C7.82147 6.60617 7.74985 6.52269 7.64779 6.52269H5.70862C5.6173 6.52269 5.53493 6.59528 5.53493 6.69873V8.45735C5.54568 8.55172 5.6173 8.63339 5.70862 8.63339ZM11.1179 11.147H13.0571C13.1484 11.147 13.2307 11.0744 13.2307 10.971V9.21234C13.2307 9.11978 13.1591 9.0363 13.0571 9.0363H11.1179C11.0266 9.0363 10.9442 9.10889 10.9442 9.21234V10.971C10.9442 11.0744 11.0248 11.147 11.1179 11.147ZM8.43384 11.147H10.373C10.4643 11.147 10.5467 11.0744 10.5467 10.971V9.21234C10.5467 9.11978 10.4751 9.0363 10.373 9.0363H8.43384C8.34252 9.0363 8.26016 9.10889 8.26016 9.21234V10.971C8.26016 11.0744 8.33178 11.147 8.43384 11.147ZM5.70862 11.147H7.64779C7.73911 11.147 7.82147 11.0744 7.82147 10.971V9.21234C7.82147 9.11978 7.74985 9.0363 7.64779 9.0363H5.70862C5.6173 9.0363 5.53493 9.10889 5.53493 9.21234V10.971C5.54568 11.0744 5.6173 11.147 5.70862 11.147ZM3.03532 11.147H4.97449C5.06581 11.147 5.14817 11.0744 5.14817 10.971V9.21234C5.14817 9.11978 5.07655 9.0363 4.97449 9.0363H3.03532C2.944 9.0363 2.86164 9.10889 2.86164 9.21234V10.971C2.87238 11.0744 2.944 11.147 3.03532 11.147Z" fill="#0091E2"/>
</svg>
