<!--
  - Copyright (c) 2024. Devtron Inc.
  -
  - Licensed under the Apache License, Version 2.0 (the "License");
  - you may not use this file except in compliance with the License.
  - You may obtain a copy of the License at
  -
  -     http://www.apache.org/licenses/LICENSE-2.0
  -
  - Unless required by applicable law or agreed to in writing, software
  - distributed under the License is distributed on an "AS IS" BASIS,
  - WITHOUT WARRANTIES OR CONDITIONS OF ANY KIND, either express or implied.
  - See the License for the specific language governing permissions and
  - limitations under the License.
  -->

<svg width="135" height="36" viewBox="0 0 135 36" fill="none" xmlns="http://www.w3.org/2000/svg">
<path fill-rule="evenodd" clip-rule="evenodd" d="M51.7113 23.8429C52.3885 23.8429 52.9337 23.7055 53.3454 23.431C53.7574 23.1563 54.0777 22.813 54.3069 22.401C54.5356 21.989 54.6867 21.5452 54.76 21.0687C54.833 20.5929 54.8699 20.1533 54.8699 19.7504C54.8699 19.3479 54.833 18.9084 54.76 18.432C54.6867 17.9562 54.5356 17.5119 54.3069 17.0999C54.0777 16.6879 53.7574 16.3446 53.3454 16.07C52.9337 15.7952 52.3885 15.658 51.7113 15.658C51.0337 15.658 50.4891 15.7952 50.0771 16.07C49.665 16.3446 49.3491 16.6879 49.1295 17.0999C48.9098 17.5119 48.763 17.9562 48.69 18.432C48.6166 18.9084 48.5801 19.3479 48.5801 19.7504C48.5801 20.1533 48.6166 20.5929 48.69 21.0687C48.763 21.5452 48.9098 21.989 49.1295 22.401C49.3491 22.813 49.665 23.1563 50.0771 23.431C50.4891 23.7055 51.0337 23.8429 51.7113 23.8429ZM54.8699 14.3908V8.15967H58.1384V19.723C58.1384 20.6752 58.0466 21.5083 57.8637 22.2224C57.6804 22.9366 57.438 23.5544 57.1358 24.0763C56.8337 24.5982 56.4904 25.0287 56.106 25.3674C55.7215 25.7064 55.3274 25.9853 54.9248 26.2051C53.9725 26.6995 52.9014 26.9557 51.7113 26.9741C50.4842 26.9557 49.3946 26.6995 48.4427 26.2051C48.0399 25.9853 47.6416 25.7064 47.2481 25.3674C46.8541 25.0287 46.5064 24.6029 46.2043 24.0902C45.9021 23.5777 45.6592 22.964 45.4762 22.2499C45.2932 21.5358 45.2017 20.7028 45.2017 19.7504C45.2017 18.7985 45.2883 17.9651 45.4627 17.251C45.6365 16.5369 45.8651 15.9189 46.1493 15.397C46.433 14.8752 46.7535 14.4405 47.1106 14.0923C47.4676 13.7447 47.8385 13.4606 48.223 13.241C49.102 12.7284 50.1087 12.4538 51.2444 12.4169C51.8118 12.4718 52.361 12.6092 52.8922 12.8289C53.3497 13.0305 53.8168 13.337 54.2932 13.749C54.6104 14.0237 54.8027 14.2376 54.8699 14.3908ZM69.3997 17.9652C69.3078 17.6724 69.1936 17.3794 69.0564 17.0863C68.919 16.7935 68.7311 16.5279 68.4933 16.2898C68.2551 16.0518 67.9714 15.8639 67.6418 15.7267C67.3121 15.5893 66.9277 15.5207 66.4883 15.5207C66.0488 15.5207 65.6643 15.5893 65.3347 15.7267C65.005 15.8639 64.7209 16.0518 64.4832 16.2898C64.245 16.5279 64.0528 16.7935 63.9064 17.0863C63.7597 17.3794 63.6498 17.6724 63.5768 17.9652H69.3997ZM72.8605 17.9652C72.897 18.2397 72.9292 18.5239 72.9565 18.8166C72.984 19.1098 72.9977 19.4209 72.9977 19.7504V20.2448H63.3845C63.421 20.5564 63.4669 20.8723 63.5219 21.1926C63.5768 21.513 63.6683 21.8289 63.7965 22.1401C63.9977 22.6164 64.309 23.0375 64.7304 23.4034C65.1514 23.77 65.7371 23.9529 66.4883 23.9529C67.2388 23.9529 67.8247 23.77 68.2461 23.4034C68.667 23.0375 68.9781 22.6164 69.1799 22.1401H72.7506C72.6039 22.7812 72.3978 23.3396 72.1327 23.8154C71.8669 24.2918 71.5737 24.7038 71.2536 25.0515C70.9332 25.3996 70.5897 25.6879 70.2237 25.9167C69.8572 26.1458 69.5 26.3334 69.1525 26.4797C68.3101 26.8094 67.422 26.9741 66.4883 26.9741C65.2613 26.9558 64.1717 26.6995 63.2197 26.2051C62.8167 25.9853 62.4184 25.7064 62.0249 25.3675C61.6309 25.0288 61.2833 24.6029 60.9812 24.0902C60.679 23.5777 60.4362 22.9641 60.2534 22.25C60.0701 21.5358 59.9788 20.7028 59.9788 19.7504C59.9788 18.7986 60.0701 17.9652 60.2534 17.251C60.4362 16.5369 60.679 15.919 60.9812 15.3971C61.2833 14.8752 61.6309 14.4405 62.0249 14.0924C62.4184 13.7447 62.8167 13.4606 63.2197 13.241C64.1717 12.7285 65.2613 12.4538 66.4883 12.417C67.495 12.4538 68.4383 12.6641 69.3173 13.0485C69.6833 13.2135 70.0541 13.429 70.4297 13.6942C70.8048 13.9598 71.1527 14.2893 71.4734 14.6829C71.7935 15.077 72.0776 15.5438 72.325 16.0837C72.572 16.6241 72.7506 17.251 72.8605 17.9652ZM78.93 26.6994H81.1822H83.4346L87.9664 12.7739H84.588L81.1822 23.1838L77.7765 12.7739H74.3981L78.93 26.6994ZM92.8 16.0425V22.1675C92.8549 22.3871 92.9557 22.5889 93.1024 22.7718C93.2302 22.9186 93.4093 23.0559 93.6379 23.1838C93.8665 23.3121 94.1644 23.376 94.5307 23.376H96.6178V26.6995H93.2671C92.5534 26.6264 91.9117 26.4248 91.3447 26.0952C90.8677 25.8205 90.433 25.4133 90.0397 24.873C89.6459 24.3329 89.4493 23.5866 89.4493 22.6344V10.8842H92.8V12.774H95.959V16.0425H92.8ZM98.7877 14.6005C98.3854 15.1408 98.1838 15.8871 98.1838 16.839V26.6995H101.562V17.3058C101.617 17.0862 101.717 16.8848 101.864 16.7016C101.993 16.5554 102.171 16.418 102.4 16.2895C102.629 16.1617 102.926 16.0973 103.292 16.0973H105.874V12.774H102.029C101.315 12.8473 100.674 13.0485 100.106 13.3781C99.6301 13.6528 99.1909 14.0605 98.7877 14.6005ZM113.839 15.6579C113.162 15.6579 112.617 15.7953 112.205 16.0699C111.793 16.3445 111.477 16.6879 111.257 17.0998C111.038 17.5118 110.891 17.9561 110.818 18.4321C110.745 18.9084 110.708 19.3478 110.708 19.7505C110.708 20.1535 110.745 20.5928 110.818 21.0688C110.891 21.5453 111.038 21.9889 111.257 22.4009C111.477 22.8129 111.793 23.1562 112.205 23.4309C112.617 23.7056 113.162 23.8429 113.839 23.8429C114.517 23.8429 115.061 23.7056 115.474 23.4309C115.886 23.1562 116.202 22.8129 116.421 22.4009C116.641 21.9889 116.787 21.5453 116.861 21.0688C116.933 20.5928 116.97 20.1535 116.97 19.7505C116.97 19.3478 116.933 18.9084 116.861 18.4321C116.787 17.9561 116.641 17.5118 116.421 17.0998C116.202 16.6879 115.886 16.3445 115.474 16.0699C115.061 15.7953 114.517 15.6579 113.839 15.6579ZM107.33 19.7505C107.33 18.7986 107.421 17.9651 107.604 17.2509C107.787 16.5368 108.03 15.9188 108.332 15.3969C108.635 14.8751 108.982 14.4404 109.376 14.0923C109.769 13.7446 110.167 13.4607 110.57 13.2409C111.523 12.7283 112.613 12.4537 113.839 12.4168C115.048 12.4537 116.128 12.7283 117.08 13.2409C117.482 13.4607 117.881 13.7446 118.275 14.0923C118.669 14.4404 119.017 14.8751 119.318 15.3969C119.621 15.9188 119.868 16.5368 120.06 17.2509C120.253 17.9651 120.349 18.7986 120.349 19.7505C120.349 20.7027 120.253 21.5357 120.06 22.2499C119.868 22.9639 119.621 23.5777 119.318 24.0901C119.017 24.603 118.669 25.0287 118.275 25.3673C117.881 25.7063 117.482 25.9852 117.08 26.205C116.128 26.6994 115.048 26.9556 113.839 26.974C112.613 26.9556 111.523 26.6994 110.57 26.205C110.167 25.9852 109.769 25.7063 109.376 25.3673C108.982 25.0287 108.635 24.603 108.332 24.0901C108.03 23.5777 107.787 22.9639 107.604 22.2499C107.421 21.5357 107.33 20.7027 107.33 19.7505ZM128.713 12.4444C128.373 12.4262 128.176 12.4168 128.121 12.4168C128.048 12.4168 127.847 12.4262 127.517 12.4444C127.188 12.4627 126.794 12.5404 126.337 12.6778C125.879 12.8152 125.393 13.0306 124.88 13.3232C124.367 13.6164 123.892 14.0374 123.452 14.5868C123.013 15.136 122.651 15.8275 122.368 16.6605C122.083 17.4938 121.942 18.5238 121.942 19.7505V26.6994H125.293V19.7505C125.293 19.3478 125.33 18.9358 125.402 18.5144C125.475 18.0934 125.613 17.7089 125.815 17.3608C126.016 17.0131 126.3 16.7249 126.666 16.4955C127.032 16.2669 127.517 16.1523 128.121 16.1523C128.726 16.1523 129.211 16.2669 129.578 16.4955C129.944 16.7249 130.227 17.0131 130.429 17.3608C130.63 17.7089 130.767 18.0934 130.841 18.5144C130.914 18.9358 130.951 19.3478 130.951 19.7505V26.6994H134.302V19.7505C134.302 18.5238 134.159 17.4938 133.876 16.6605C133.592 15.8275 133.231 15.136 132.791 14.5868C132.351 14.0374 131.875 13.6164 131.363 13.3232C130.85 13.0306 130.364 12.8152 129.907 12.6778C129.449 12.5404 129.051 12.4627 128.713 12.4444Z" fill="#fff"/>
<path fill-rule="evenodd" clip-rule="evenodd" d="M6.77869 29.6504L0.417531 19.6357C-0.131849 18.7746 -0.139545 17.6751 0.397194 16.8061L8.59915 3.53024C9.12735 2.67525 10.0618 2.15638 11.0666 2.15993L22.9075 2.20228C22.9342 2.20228 22.9605 2.20309 22.9866 2.20447C24.1412 2.26384 24.7744 3.58521 24.1376 4.5504L15.92 17.0031C15.6111 17.6385 14.893 18.0373 14.11 17.8581C13.5304 17.7256 13.0615 17.2524 12.9321 16.6722C12.8433 16.274 12.9046 15.8945 13.0684 15.577C13.0686 15.5766 13.0688 15.5761 13.0689 15.5757C13.0691 15.5751 13.0692 15.5748 13.0695 15.5743L13.0714 15.5713C13.1204 15.4778 13.1781 15.3896 13.2435 15.308L14.4948 13.3952C14.8655 12.8436 14.5201 12.0956 13.8596 12.0197L10.8522 11.7913C10.294 11.7487 9.74268 11.9381 9.32823 12.3145C8.78384 12.9514 6.36618 16.8514 5.26247 18.6796C4.90629 19.2696 4.94916 20.0065 5.34848 20.5682L5.33475 20.5748L9.16443 26.5891L9.8829 27.7302C9.9576 27.8264 10.023 27.93 10.0777 28.04L10.1047 28.0825L10.1028 28.0922C10.2437 28.3989 10.3031 28.7509 10.2512 29.1205C10.142 29.895 9.52308 30.5367 8.7514 30.6656C7.89037 30.8096 7.11673 30.3542 6.77869 29.6504ZM28.0003 5.56524L34.4061 15.5516C34.9593 16.4102 34.9719 17.5098 34.439 18.381L26.2965 31.6934C25.772 32.5506 24.8399 33.0738 23.8351 33.0746L11.9941 33.0854C11.9675 33.0854 11.9411 33.0848 11.915 33.0835C10.7602 33.0293 10.1212 31.7107 10.7536 30.7427L18.9154 18.2532C19.2216 17.6167 19.9378 17.2147 20.7216 17.3903C21.3017 17.5202 21.7728 17.9913 21.9047 18.5709C21.9954 18.9689 21.9358 19.3484 21.7733 19.6669L21.7725 19.6694L21.7703 19.6724C21.7219 19.7664 21.6648 19.8546 21.5994 19.9365L20.3569 21.8551C19.9886 22.4083 20.3374 23.1548 20.9981 23.2276L24.0063 23.4428C24.565 23.4826 25.1152 23.2908 25.5283 22.9127C26.0698 22.2734 28.4698 18.3626 29.5653 16.5295C29.919 15.9377 29.8731 15.2013 29.4709 14.6414L29.4847 14.6345L25.628 8.63727L24.9047 7.49948C24.8294 7.40356 24.7635 7.30023 24.7082 7.19057L24.6813 7.14824L24.6832 7.13863C24.5408 6.83247 24.4801 6.4807 24.5304 6.11078C24.6357 5.33576 25.2518 4.69157 26.023 4.5591C26.8834 4.41124 27.6591 4.86305 28.0003 5.56524Z" fill="#fff"/>
</svg>
