<!--
  - Copyright (c) 2024. Devtron Inc.
  -
  - Licensed under the Apache License, Version 2.0 (the "License");
  - you may not use this file except in compliance with the License.
  - You may obtain a copy of the License at
  -
  -     http://www.apache.org/licenses/LICENSE-2.0
  -
  - Unless required by applicable law or agreed to in writing, software
  - distributed under the License is distributed on an "AS IS" BASIS,
  - WITHOUT WARRANTIES OR CONDITIONS OF ANY KIND, either express or implied.
  - See the License for the specific language governing permissions and
  - limitations under the License.
  -->

<svg xmlns="http://www.w3.org/2000/svg" width="24" height="24" fill="none" viewBox="0 0 24 24">
  <path fill="#FE636E" d="M5.697 14.187c-1.406.073-3.81.871-3.578 2.538.587 4.23-4.037 5.587 2.117 5.587 3.095 0 5.046-1.358 5.341-4.208l-.836-3.23-3.044-.688Z"/>
  <path fill="#FFD659" d="M6.804 15.306c-.652.034-1.77.404-1.662 1.179.273 1.965-1.875 2.594.983 2.594 1.438 0 2.345-.63 2.482-1.954l-.316-1.596-1.487-.223Z"/>
  <path fill="#FB2A39" d="M8.216 18.229c-.836 1.521-2.493 2.254-4.768 2.254-.891 0-1.556-.029-2.043-.09-.658 1.399-.978 1.92 2.83 1.92 3.096 0 5.047-1.358 5.342-4.208l-.702-.71-.24-.242a4.906 4.906 0 0 1-.07.242 2.09 2.09 0 0 1-.35.834Z"/>
  <path fill="#FFBF00" d="M7.952 16.464c-.307.95-1.145 1.405-2.368 1.405-.244 0-.451-.004-.627-.014-.36.901-.876 1.223 1.168 1.223.954 0 1.674-.276 2.09-.85.168-.23.287-.508.35-.833.018-.087.032-.177.042-.271l-.655-.66Z"/>
  <path fill="#99B4CD" d="m7.399 11.87-1.835 1.076c-.368.216-.307.796-.013 1.094l.147.147 1.106 1.119 1.803 1.819.97.98.506.51c.295.297.87.358 1.084-.013l1.065-1.854-1.205-4.691-3.628-.188ZM22.264 1.058c-.882-.164-2.49.007-4.447.676l.881 3.268 3.577 1.221c.665-1.988.832-3.617.664-4.502-.098-.515-.16-.568-.675-.663Z"/>
  <path fill="#06C" d="M12.186 4.695c-2.45-.893-4.347-.486-6.27 1.272-.892.867-2.377 2.005-1.15 3.243l1.524 1.539 4.381-2.235 1.515-3.819Zm7.154 7.221-4.119 1.719-1.878 4.234 1.524 1.54c1.226 1.237 2.354-.262 3.212-1.162.89-.993 2.475-2.884 1.26-6.331Z"/>
  <path fill="#E5E5E5" d="M22.275 6.223c-.103.31-.22.63-.347.956a22.525 22.525 0 0 1-2.589 4.737 25.181 25.181 0 0 1-5.996 5.953l-.303-.305-.808-.816-2.181-2.202-.236-.237-.235-.238-2.181-2.202-1.11-1.12c1.808-2.601 3.863-4.58 5.897-6.053 1.977-1.43 3.936-2.383 5.63-2.962l4.46 4.49Z"/>
  <path fill="#6C9ABB" d="M21.987 1.02c.086.927-.108 2.42-.704 4.202l.992 1.001c.665-1.989.832-3.618.664-4.502-.098-.515-.16-.568-.675-.663a2.833 2.833 0 0 0-.277-.038Z"/>
  <path fill="#C7C7C7" d="M20.934 6.179a22.49 22.49 0 0 1-2.589 4.737 24.29 24.29 0 0 1-1.692 2.12 25.08 25.08 0 0 1-2.088 2.078 26.163 26.163 0 0 1-2.214 1.754l.69.696.302.305a25.144 25.144 0 0 0 5.996-5.953 22.513 22.513 0 0 0 2.589-4.738c.128-.325.244-.644.347-.955l-.992-1a17.893 17.893 0 0 1-.35.956Z"/>
  <path fill="#6C9ABB" d="m11.024 15.528-1.065 1.853c-.215.372-.79.31-1.084.014l.702.71.506.51c.295.297.87.357 1.084-.014l1.065-1.853-1.208-1.22Z"/>
  <path fill="#0053A6" d="M19.34 11.916c-.203.285-.415.57-.636.854.286 2.415-.922 3.85-1.657 4.67-.705.738-1.59 1.88-2.562 1.582l.382.386c1.226 1.238 2.354-.26 3.212-1.161.89-.993 2.475-2.884 1.26-6.331Zm-8.706-7.622a25.173 25.173 0 0 0-5.302 5.488l.958.967c1.808-2.602 3.862-4.58 5.896-6.054a7.671 7.671 0 0 0-1.552-.401Z"/>
  <path fill="#C7C7C7" d="m11.763 12.819-1.71 1.725-.002.002-.236-.237-.235-.239 1.708-1.723a.334.334 0 1 1 .475.472Z"/>
</svg>
