<!--
  - Copyright (c) 2024. Devtron Inc.
  -
  - Licensed under the Apache License, Version 2.0 (the "License");
  - you may not use this file except in compliance with the License.
  - You may obtain a copy of the License at
  -
  -     http://www.apache.org/licenses/LICENSE-2.0
  -
  - Unless required by applicable law or agreed to in writing, software
  - distributed under the License is distributed on an "AS IS" BASIS,
  - WITHOUT WARRANTIES OR CONDITIONS OF ANY KIND, either express or implied.
  - See the License for the specific language governing permissions and
  - limitations under the License.
  -->

<svg xmlns="http://www.w3.org/2000/svg" width="24" height="24" fill="none" viewBox="0 0 24 24">
  <path fill="#3B444C" d="M18.942 5.27A16.54 16.54 0 0 0 14.816 4c-.195.349-.372.707-.529 1.074a15.365 15.365 0 0 0-4.579 0A11.383 11.383 0 0 0 9.179 4c-1.425.243-2.813.67-4.129 1.273-2.611 3.863-3.319 7.63-2.965 11.345a16.622 16.622 0 0 0 5.06 2.54c.41-.551.773-1.136 1.084-1.748a10.768 10.768 0 0 1-1.706-.814c.143-.104.283-.211.418-.315a11.887 11.887 0 0 0 10.118 0c.137.112.277.219.418.315a10.81 10.81 0 0 1-1.71.816c.312.612.674 1.196 1.084 1.746a16.555 16.555 0 0 0 5.064-2.539c.415-4.307-.71-8.04-2.973-11.35ZM8.678 14.333c-.987 0-1.802-.896-1.802-1.997 0-1.1.787-2.004 1.799-2.004 1.011 0 1.82.903 1.802 2.004-.017 1.101-.794 1.997-1.8 1.997Zm6.644 0c-.988 0-1.8-.896-1.8-1.997 0-1.1.787-2.004 1.8-2.004s1.816.903 1.798 2.004c-.017 1.101-.793 1.997-1.798 1.997Z"/>
</svg>
