<!--
  - Copyright (c) 2024. Devtron Inc.
  -
  - Licensed under the Apache License, Version 2.0 (the "License");
  - you may not use this file except in compliance with the License.
  - You may obtain a copy of the License at
  -
  -     http://www.apache.org/licenses/LICENSE-2.0
  -
  - Unless required by applicable law or agreed to in writing, software
  - distributed under the License is distributed on an "AS IS" BASIS,
  - WITHOUT WARRANTIES OR CONDITIONS OF ANY KIND, either express or implied.
  - See the License for the specific language governing permissions and
  - limitations under the License.
  -->

<svg width="139" height="48" viewBox="0 0 139 48" fill="none" xmlns="http://www.w3.org/2000/svg">
<g style="mix-blend-mode:luminosity">
<path d="M53.8909 13C53.911 15.7204 53.9109 18.4409 53.9113 21.1613C53.9113 21.5018 53.9152 21.5053 54.2631 21.5054C55.5446 21.5058 56.8261 21.506 58.1075 21.5052C58.4082 21.505 58.4213 21.4918 58.4213 21.1878C58.4219 18.6249 58.4217 16.0619 58.4219 13.4989C58.4219 13.4202 58.4017 13.3317 58.4309 13.2654C58.4617 13.1957 58.5331 13.1347 58.6012 13.0939C58.6438 13.0684 58.713 13.0864 58.7702 13.0864C60.245 13.0863 61.7198 13.086 63.1946 13.0865C63.5251 13.0866 63.5329 13.0942 63.5329 13.4229C63.5332 20.5033 63.5332 27.5837 63.5329 34.664C63.5329 34.9828 63.5224 34.9935 63.2094 34.9936C61.7203 34.9943 60.2312 34.9943 58.7421 34.9936C58.4326 34.9935 58.4221 34.9822 58.422 34.6606C58.4216 32.1047 58.4218 29.5489 58.4217 26.9931C58.4217 26.5749 58.4215 26.5747 57.9935 26.5747C56.7406 26.5746 55.4878 26.5743 54.2349 26.575C53.9212 26.5752 53.9114 26.5852 53.9113 26.9041C53.9109 29.4742 53.9111 32.0444 53.9109 34.6145C53.9109 34.9934 53.9104 34.9939 53.5295 34.9939C52.069 34.9941 50.6085 34.9944 49.1481 34.9935C48.8588 34.9933 48.8425 34.9773 48.8425 34.6894C48.8425 27.473 48.8431 20.2566 48.8428 13.0201C50.5183 13 52.1945 13 53.8909 13Z" fill="#fff"/>
<path d="M12.9522 13C13.0302 13.0796 13.0789 13.1683 13.1474 13.2373C13.8535 13.948 14.5605 14.6578 15.2732 15.3619C15.4044 15.4915 15.467 15.6257 15.4669 15.8137C15.4631 21.2807 15.4632 26.7478 15.4665 32.2149C15.4666 32.3999 15.4132 32.538 15.2798 32.6696C14.5563 33.383 13.8445 34.1085 13.1172 34.8179C13.0214 34.9114 12.8595 34.9861 12.728 34.9866C10.1877 34.9956 5.08357 34.9813 5.08357 34.9813L5.08275 29.9243H0.00677292L0 13.0201C0 13.0201 8.62112 13 12.9522 13ZM5.08357 18.1138C5.08357 18.1138 5.08711 28.6199 5.08357 29.9238C5.08357 29.9238 8.55568 29.9256 10.0767 29.9249C10.3811 29.9248 10.3944 29.9119 10.3945 29.6116C10.395 25.8959 10.395 22.1802 10.3944 18.4645C10.3944 18.1677 10.3809 18.1554 10.0726 18.1551C8.40884 18.1537 6.74701 18.1458 5.08357 18.1138Z" fill="#fff"/>
<path d="M106.557 13C106.577 14.582 106.577 16.1639 106.577 17.7459C106.577 18.1108 106.576 18.1133 106.203 18.1112C103.835 18.0978 101.466 18.0828 99.098 18.0694C98.7167 18.0673 98.7162 18.0697 98.7161 18.4478C98.7158 19.3497 98.7157 20.2516 98.7162 21.1535C98.7164 21.5015 98.7199 21.5053 99.0602 21.5054C100.678 21.5058 102.296 21.5054 103.913 21.5059C104.254 21.506 104.257 21.5098 104.257 21.8577C104.258 23.318 104.258 24.7783 104.257 26.2385C104.257 26.5673 104.25 26.5743 103.919 26.5744C102.301 26.5749 100.683 26.5744 99.0657 26.5748C98.72 26.5749 98.7165 26.5785 98.7162 26.9213C98.7157 27.7802 98.7157 28.6392 98.7163 29.4982C98.7165 29.8319 98.7233 29.8391 99.0495 29.8393C100.016 29.84 100.982 29.8346 101.949 29.841C103.394 29.8506 104.838 29.8681 106.283 29.8827C106.556 29.8854 106.576 29.9033 106.576 30.1777C106.577 31.6523 106.577 33.1268 106.577 34.6014C106.577 34.947 106.573 34.9511 106.23 34.9512C103.124 34.9514 100.017 34.9386 96.9105 34.9634C96.3742 34.9676 95.9861 34.8359 95.6238 34.432C95.0559 33.7988 94.4304 33.217 93.8242 32.6186C93.7041 32.5001 93.6445 32.3764 93.6447 32.2042C93.6478 26.721 93.6477 21.2379 93.6448 15.7547C93.6447 15.5842 93.6977 15.4579 93.8189 15.338C94.5162 14.6485 95.2081 13.9535 95.8999 13.2584C95.9696 13.1884 96.0265 13.1056 96.0925 13.0144C99.5761 13 103.057 13 106.557 13Z" fill="#fff"/>
<path d="M31.5958 13C31.6159 14.582 31.6159 16.1639 31.6155 17.7459C31.6154 18.1108 31.6147 18.1133 31.2417 18.1112C28.8734 18.0978 26.505 18.0828 24.1366 18.0694C23.7554 18.0673 23.7549 18.0697 23.7548 18.4478C23.7545 19.3497 23.7544 20.2516 23.7549 21.1536C23.7551 21.5015 23.7586 21.5053 24.0989 21.5054C25.7095 21.5058 27.3201 21.5055 28.9307 21.5058C29.2955 21.5058 29.2961 21.5065 29.2961 21.8792C29.2964 23.3323 29.2965 24.7855 29.296 26.2386C29.2959 26.5673 29.2888 26.5743 28.9575 26.5744C27.3398 26.5749 25.7221 26.5744 24.1043 26.5748C23.7587 26.5749 23.7552 26.5785 23.7549 26.9213C23.7544 27.7803 23.7544 28.6393 23.755 29.4983C23.7552 29.8319 23.762 29.8391 24.0883 29.8393C25.0546 29.84 26.021 29.8345 26.9873 29.841C28.4323 29.8506 29.8772 29.8681 31.3222 29.8827C31.595 29.8854 31.615 29.9034 31.6152 30.1777C31.6162 31.6523 31.6159 33.1269 31.6154 34.6015C31.6153 34.947 31.6114 34.9511 31.269 34.9512C28.148 34.9514 25.027 34.9397 21.9062 34.9629C21.3999 34.9667 21.0364 34.8409 20.6932 34.462C20.1124 33.8208 19.4791 33.2271 18.8628 32.6185C18.7427 32.5 18.6834 32.3763 18.6835 32.2041C18.6866 26.7209 18.6866 21.2377 18.6836 15.7546C18.6835 15.5841 18.7366 15.4577 18.8577 15.3379C19.555 14.6484 20.2469 13.9534 20.9387 13.2583C21.0084 13.1883 21.0653 13.1056 21.1312 13.0144C24.6148 13 28.0952 13 31.5958 13Z" fill="#fff"/>
<path d="M138.667 23.548C138.541 23.6913 138.405 23.8047 138.293 23.939C137.498 24.8948 136.708 25.8551 135.916 26.8135C135.356 27.4911 134.789 28.1629 134.242 28.8504C134.154 28.9604 134.119 29.1396 134.118 29.2871C134.11 31.0551 134.113 32.8233 134.113 34.5914C134.113 34.9501 134.111 34.9514 133.755 34.9514C132.28 34.9518 130.806 34.9519 129.331 34.9513C129.013 34.9512 129.002 34.9407 129.002 34.6276C129.001 32.8595 128.996 31.0913 129.007 29.3233C129.009 29.0575 128.918 28.8636 128.757 28.6696C127.955 27.7094 127.162 26.743 126.365 25.779C125.801 25.0958 125.242 24.4078 124.668 23.7331C124.514 23.5521 124.444 23.3718 124.444 23.1341C124.449 19.7697 124.448 16.4053 124.448 13.0207C126.124 13.0006 127.8 13.0006 129.496 13.0207C129.517 15.7815 129.514 18.5222 129.522 21.2628C129.523 21.423 129.563 21.6176 129.658 21.7373C130.224 22.4465 130.811 23.1388 131.392 23.8355C131.563 24.0411 131.591 24.0359 131.767 23.8222C132.298 23.1766 132.828 22.5305 133.365 21.8899C133.522 21.7021 133.607 21.5112 133.604 21.2535C133.59 20.1803 133.608 18.052 133.608 18.052H138.667C138.667 18.052 138.667 21.7085 138.667 23.548Z" fill="#fff"/>
<path d="M121.893 13C121.913 14.5679 121.913 16.1358 121.913 17.7037C121.913 18.0681 121.912 18.0687 121.539 18.0688C119.491 18.069 117.444 18.0687 115.396 18.0691C115.041 18.0691 115.04 18.0701 115.04 18.4307C115.04 23.6929 115.04 28.955 115.04 34.2171C115.04 34.3388 115.041 34.4605 115.039 34.5822C115.036 34.8427 115.017 34.8641 114.755 34.8643C113.244 34.8655 111.734 34.865 110.223 34.8649C110.187 34.8649 110.151 34.8628 110.116 34.8627C109.992 34.8625 109.931 34.8009 109.931 34.6777C109.931 34.6061 109.928 34.5345 109.928 34.4629C109.928 28.2629 109.93 22.0629 109.924 15.8629C109.923 15.6136 109.995 15.4348 110.174 15.2607C110.851 14.6016 111.514 13.9285 112.181 13.2587C112.251 13.1887 112.308 13.1057 112.373 13.0144C115.542 13 118.707 13 121.893 13Z" fill="#fff"/>
<path d="M39.5 13C39.5201 18.5112 39.52 24.0224 39.5202 29.5336C39.5202 29.8782 39.5241 29.8821 39.8676 29.8822C41.9217 29.8825 43.9759 29.8822 46.0301 29.8825C46.3921 29.8826 46.393 29.8833 46.3931 30.237C46.3934 31.6972 46.3935 33.1573 46.393 34.6174C46.3928 34.9441 46.3856 34.9511 46.0524 34.9511C43.1035 34.9515 40.1547 34.9497 37.2058 34.9548C37.0034 34.9551 36.8568 34.8943 36.715 34.7501C36.0276 34.0508 35.3331 33.3586 34.6357 32.6693C34.5102 32.5452 34.4484 32.4167 34.4485 32.2364C34.4524 25.8377 34.4523 19.439 34.452 13.0201C36.1274 13 37.8036 13 39.5 13Z" fill="#fff"/>
<path d="M138.667 18.0489C138.667 18.0489 135.255 18.0671 133.611 18.0521V13H138.667V18.0489Z" fill="#fff" fill-opacity="0.5"/>
<path d="M75.562 13.7301C75.5711 12.9935 75.4703 13.0892 76.1941 13.087C77.5756 13.0827 78.9572 13.0854 80.3388 13.086C80.6656 13.0861 80.6731 13.0939 80.6732 13.4263C80.6735 17.664 80.6734 21.9017 80.6734 26.1394C80.6734 26.9013 80.678 26.8974 81.1689 27.4773C81.6259 28.0172 82.073 28.5656 82.522 29.1122C82.672 29.2948 82.698 29.296 82.855 29.1057C83.4098 28.4331 83.9615 27.7581 84.5239 27.092C84.6631 26.9272 84.7149 26.7561 84.7147 26.5445C84.711 22.2352 84.7119 17.9259 84.712 13.6167C84.712 13.5379 84.7113 13.4592 84.7122 13.3804C84.7154 13.1072 84.7334 13.0865 85.0066 13.0864C86.517 13.0854 88.0274 13.0853 89.5378 13.0865C89.8005 13.0867 89.8227 13.1082 89.8228 13.3678C89.8235 18.4073 89.8216 23.4467 89.8272 28.4861C89.8275 28.7967 89.6077 28.9578 89.4464 29.1554C88.4522 30.3731 87.4487 31.5832 86.448 32.7955C85.8976 33.4624 85.351 34.1326 84.7906 34.7909C84.7183 34.8758 84.5732 34.9421 84.4612 34.9431C83.2802 34.9539 82.0989 34.9559 80.918 34.9407C80.7912 34.9391 80.6306 34.8427 80.5454 34.7405C79.1817 33.1051 77.8277 31.4616 76.4716 29.8198C76.2031 29.4948 75.9298 29.1735 75.6708 28.8411C75.6098 28.7628 75.5783 28.6485 75.5677 28.5471C75.5507 28.3842 75.562 28.2183 75.562 28.0537C75.562 23.2863 75.562 18.5189 75.562 13.7301Z" fill="#fff"/>
<path d="M71.6882 13.0866C71.9864 13.0991 71.9955 13.1074 71.9956 13.4099C71.9961 16.0009 71.9959 18.5919 71.9959 21.1828C71.9959 25.6419 71.9959 30.1009 71.9958 34.56C71.9958 34.6458 72.016 34.7405 71.9864 34.815C71.9586 34.8848 71.8846 34.9457 71.8166 34.9865C71.7741 35.012 71.7048 34.994 71.6476 34.994C70.1732 34.9942 68.6988 34.9944 67.2243 34.9939C66.8927 34.9938 66.8847 34.9862 66.8847 34.6589C66.8845 27.5803 66.8845 20.5016 66.8847 13.423C66.8847 13.0945 66.8926 13.0868 67.2231 13.0867C68.7047 13.0862 70.1863 13.0865 71.6882 13.0866Z" fill="#fff"/>
<path d="M0.0078125 29.9241H5.08357V34.9839H0.0078125V29.9241Z" fill="#fff" fill-opacity="0.5"/>
</g>
</svg>
