<svg xmlns="http://www.w3.org/2000/svg" width="77" height="16" fill="none" viewBox="0 0 77 16">
  <path fill="#fff" fill-rule="evenodd" d="M5.772 13.337c.578 0 1.043-.117 1.394-.35.352-.234.625-.526.82-.876.196-.35.324-.728.387-1.133.062-.405.094-.778.094-1.121 0-.342-.032-.716-.094-1.121a3.368 3.368 0 0 0-.387-1.133 2.513 2.513 0 0 0-.82-.876c-.35-.234-.816-.35-1.394-.35-.577 0-1.042.116-1.393.35a2.416 2.416 0 0 0-.809.876c-.187.35-.312.728-.375 1.133a7.384 7.384 0 0 0-.093 1.12c0 .344.03.717.093 1.122.063.405.188.783.375 1.133.188.35.457.642.809.876.351.233.816.35 1.394.35ZM8.467 5.3V0h2.788v9.834c0 .81-.079 1.518-.235 2.125a6.216 6.216 0 0 1-.62 1.577c-.258.444-.551.81-.879 1.098a5.548 5.548 0 0 1-1.007.712c-.813.42-1.726.638-2.741.654-1.047-.016-1.977-.233-2.788-.654a5.888 5.888 0 0 1-1.02-.712 4.281 4.281 0 0 1-.89-1.087 6.005 6.005 0 0 1-.62-1.565C.297 11.376.22 10.668.22 9.857S.294 8.339.443 7.73a6.508 6.508 0 0 1 .585-1.576c.242-.444.516-.814.82-1.11a4.75 4.75 0 0 1 .95-.724c.749-.436 1.608-.67 2.576-.7a4.9 4.9 0 0 1 1.406.35c.39.171.788.432 1.195.782.27.234.434.416.492.546ZM20.86 8.34a6 6 0 0 0-.293-.748 2.392 2.392 0 0 0-.48-.677 2.226 2.226 0 0 0-.726-.479 2.551 2.551 0 0 0-.984-.175c-.375 0-.703.058-.984.175a2.22 2.22 0 0 0-.726.479 2.595 2.595 0 0 0-.492.677c-.126.25-.22.499-.282.748h4.967Zm2.952 0c.031.233.059.475.082.724.024.25.035.514.035.794v.42h-8.2c.032.265.07.534.118.806.046.273.125.541.234.806.172.405.437.763.797 1.075.359.311.858.467 1.499.467.64 0 1.14-.156 1.5-.467a2.95 2.95 0 0 0 .796-1.075h3.046a5.42 5.42 0 0 1-.527 1.425 5.498 5.498 0 0 1-.75 1.051 4.278 4.278 0 0 1-.879.736 6.482 6.482 0 0 1-.914.479 6.2 6.2 0 0 1-2.272.42c-1.047-.015-1.976-.233-2.788-.654a5.884 5.884 0 0 1-1.02-.712 4.279 4.279 0 0 1-.89-1.087 6 6 0 0 1-.62-1.564c-.157-.608-.234-1.316-.234-2.126 0-.81.077-1.518.234-2.126a6.206 6.206 0 0 1 .62-1.576c.258-.444.555-.814.89-1.11a5.584 5.584 0 0 1 1.02-.724c.812-.436 1.741-.67 2.788-.7.859.03 1.663.21 2.413.537.312.14.628.323.949.549.32.226.616.506.89.84.273.336.515.733.726 1.192.211.46.363.992.457 1.6Zm5.177 7.427h3.843l3.865-11.842h-2.882l-2.904 8.853-2.905-8.853h-2.882l3.865 11.842ZM40.82 6.704v5.208c.047.187.133.359.258.514.109.125.262.242.457.35.195.11.449.164.761.164h1.78v2.827h-2.858a4.052 4.052 0 0 1-1.64-.514c-.406-.234-.777-.58-1.112-1.04-.336-.46-.504-1.094-.504-1.903V2.316h2.858v1.607h2.695v2.78H40.82Zm5.107-1.227c-.343.46-.515 1.094-.515 1.904v8.386h2.882V7.778c.047-.187.132-.358.257-.514.11-.124.262-.241.458-.35.195-.109.448-.164.76-.164h2.203V3.924h-3.28a4.06 4.06 0 0 0-1.64.514c-.406.233-.78.58-1.125 1.04Zm12.84.9c-.579 0-1.043.116-1.395.35a2.405 2.405 0 0 0-.808.876c-.188.35-.313.728-.375 1.133a7.429 7.429 0 0 0-.094 1.121c0 .343.032.716.094 1.121s.187.783.375 1.133c.187.35.456.642.808.876.352.233.816.35 1.394.35s1.043-.117 1.394-.35c.352-.234.621-.526.809-.876a3.54 3.54 0 0 0 .374-1.133c.062-.405.094-.778.094-1.121 0-.342-.032-.716-.094-1.121a3.539 3.539 0 0 0-.375-1.133 2.405 2.405 0 0 0-.808-.876c-.351-.234-.816-.35-1.394-.35Zm-5.553 3.48c0-.81.078-1.518.234-2.126a6.189 6.189 0 0 1 .62-1.576c.259-.444.555-.814.891-1.11a5.576 5.576 0 0 1 1.019-.724c.812-.436 1.742-.67 2.788-.7 1.031.03 1.952.264 2.765.7.343.187.683.429 1.019.724.335.296.633.666.89 1.11.258.443.469.969.632 1.576.165.608.247 1.316.247 2.126 0 .81-.082 1.518-.247 2.126a6.27 6.27 0 0 1-.632 1.564 4.28 4.28 0 0 1-.89 1.087 5.936 5.936 0 0 1-1.02.712c-.812.42-1.733.638-2.764.654-1.046-.016-1.976-.234-2.788-.654a5.866 5.866 0 0 1-1.019-.712 4.278 4.278 0 0 1-.89-1.087 5.983 5.983 0 0 1-.621-1.565c-.156-.607-.234-1.315-.234-2.125Zm18.239-6.213c-.29-.016-.458-.024-.505-.024-.062 0-.234.008-.515.024-.28.015-.617.081-1.007.198-.39.117-.805.3-1.242.55-.438.248-.843.606-1.218 1.074-.375.467-.684 1.055-.925 1.763-.243.709-.364 1.585-.364 2.628v5.91h2.858v-5.91c0-.342.032-.693.094-1.051s.18-.685.352-.981a2.12 2.12 0 0 1 .726-.736c.312-.195.726-.292 1.241-.292.516 0 .93.097 1.242.292.313.195.555.44.727.736a3 3 0 0 1 .351.98c.062.36.094.71.094 1.052v5.91h2.858v-5.91c0-1.043-.121-1.92-.363-2.628-.243-.708-.55-1.296-.925-1.763-.376-.468-.782-.826-1.219-1.075a6.056 6.056 0 0 0-1.242-.549 4.478 4.478 0 0 0-1.018-.198Z" clip-rule="evenodd"/>
</svg>
