<!--
  - Copyright (c) 2024. Devtron Inc.
  -
  - Licensed under the Apache License, Version 2.0 (the "License");
  - you may not use this file except in compliance with the License.
  - You may obtain a copy of the License at
  -
  -     http://www.apache.org/licenses/LICENSE-2.0
  -
  - Unless required by applicable law or agreed to in writing, software
  - distributed under the License is distributed on an "AS IS" BASIS,
  - WITHOUT WARRANTIES OR CONDITIONS OF ANY KIND, either express or implied.
  - See the License for the specific language governing permissions and
  - limitations under the License.
  -->

<svg xmlns="http://www.w3.org/2000/svg" width="24" height="24" fill="none" viewBox="0 0 24 24">
  <path stroke="#3B444C" stroke-linecap="round" stroke-linejoin="round" stroke-width="1.5" d="M12 21.75a5 5 0 1 0 0-10 5 5 0 0 0 0 10Zm0-10 7.755-3.525a.844.844 0 0 0 .495-.769V2.844A.844.844 0 0 0 19.406 2H4.594a.844.844 0 0 0-.844.844v4.612a.844.844 0 0 0 .495.769L12 11.75ZM15.75 2v8.046M8.25 2v8.046" vector-effect="non-scaling-stroke"/>
</svg>
