<!--
  - Copyright (c) 2024. Devtron Inc.
  -
  - Licensed under the Apache License, Version 2.0 (the "License");
  - you may not use this file except in compliance with the License.
  - You may obtain a copy of the License at
  -
  -     http://www.apache.org/licenses/LICENSE-2.0
  -
  - Unless required by applicable law or agreed to in writing, software
  - distributed under the License is distributed on an "AS IS" BASIS,
  - WITHOUT WARRANTIES OR CONDITIONS OF ANY KIND, either express or implied.
  - See the License for the specific language governing permissions and
  - limitations under the License.
  -->

<svg width="118" height="28" viewBox="0 0 118 28" fill="none" xmlns="http://www.w3.org/2000/svg">
<style>
.shine {
  animation: shine 4s infinite ease-in-out;
  opacity: 0.8;
  }
 
  @keyframes shine {
      0% {
        transform: translateX(-40px);
      }
      100% {
        transform: translateX(140px);
      }
    }
</style>
<g clip-path="url(#clip0_10285_60941)">
<rect width="118" height="28" rx="6" fill="url(#paint0_linear_10285_60941)"/>
<g class="shine" opacity="0.8" filter="url(#filter0_f_10285_60941)">
<path d="M10 -2H33.652L44.782 30H21.13L10 -2Z" fill="white" fill-opacity="0.9"/>
</g>
<path d="M15.9998 20.4999C17.8408 20.4999 19.3332 19.0075 19.3332 17.1666C19.3332 15.3256 17.8408 13.8333 15.9998 13.8333C14.1589 13.8333 12.6665 15.3256 12.6665 17.1666C12.6665 19.0075 14.1589 20.4999 15.9998 20.4999Z" stroke="#433000" stroke-width="1.5" stroke-linecap="round" stroke-linejoin="round"/>
<path d="M16 13.8333L21.17 11.4833C21.2684 11.4386 21.3519 11.3665 21.4104 11.2756C21.469 11.1847 21.5001 11.0789 21.5 10.9708V7.89575C21.5 7.74657 21.4407 7.60349 21.3352 7.498C21.2298 7.39252 21.0867 7.33325 20.9375 7.33325H11.0625C10.9133 7.33325 10.7702 7.39252 10.6648 7.498C10.5593 7.60349 10.5 7.74657 10.5 7.89575V10.9708C10.4999 11.0789 10.531 11.1847 10.5896 11.2756C10.6481 11.3665 10.7316 11.4386 10.83 11.4833L16 13.8333Z" stroke="#433000" stroke-width="1.5" stroke-linecap="round" stroke-linejoin="round"/>
<path d="M18.5 7.33325V12.697" stroke="#433000" stroke-width="1.5" stroke-linecap="round" stroke-linejoin="round"/>
<path d="M13.5 7.33325V12.697" stroke="#433000" stroke-width="1.5" stroke-linecap="round" stroke-linejoin="round"/>
<path d="M31.066 19V9.926H37.046V11.447H32.782V13.644H36.552V15.165H32.782V17.479H37.046V19H31.066ZM41.4609 14.346L40.5249 12.461H40.4859V19H38.8609V9.926H40.7459L43.4759 14.58L44.4119 16.465H44.4509V9.926H46.0759V19H44.1909L41.4609 14.346ZM51.7667 11.447V19H50.0507V11.447H47.4767V9.926H54.3407V11.447H51.7667ZM55.7457 19V9.926H61.7257V11.447H57.4617V13.644H61.2317V15.165H57.4617V17.479H61.7257V19H55.7457ZM65.2566 19H63.5406V9.926H67.6356C68.0516 9.926 68.4243 9.991 68.7536 10.121C69.0829 10.251 69.3603 10.4417 69.5856 10.693C69.8196 10.9357 69.9973 11.2303 70.1186 11.577C70.2486 11.9237 70.3136 12.3093 70.3136 12.734C70.3136 13.358 70.1706 13.8953 69.8846 14.346C69.6073 14.7967 69.1869 15.1173 68.6236 15.308L70.4826 19H68.5716L66.8816 15.503H65.2566V19ZM67.4666 14.06C67.7959 14.06 68.0559 13.9733 68.2466 13.8C68.4373 13.618 68.5326 13.3623 68.5326 13.033V12.435C68.5326 12.1057 68.4373 11.8543 68.2466 11.681C68.0559 11.5077 67.7959 11.421 67.4666 11.421H65.2566V14.06H67.4666ZM72.1734 19V9.926H76.2554C76.6714 9.926 77.0441 9.99533 77.3734 10.134C77.7114 10.264 77.9974 10.4547 78.2314 10.706C78.4654 10.9487 78.6431 11.2433 78.7644 11.59C78.8858 11.9367 78.9464 12.318 78.9464 12.734C78.9464 13.1587 78.8858 13.5443 78.7644 13.891C78.6431 14.229 78.4654 14.5237 78.2314 14.775C77.9974 15.0177 77.7114 15.2083 77.3734 15.347C77.0441 15.477 76.6714 15.542 76.2554 15.542H73.8894V19H72.1734ZM73.8894 14.06H76.0994C76.4288 14.06 76.6888 13.9733 76.8794 13.8C77.0701 13.618 77.1654 13.3623 77.1654 13.033V12.435C77.1654 12.1057 77.0701 11.8543 76.8794 11.681C76.6888 11.5077 76.4288 11.421 76.0994 11.421H73.8894V14.06ZM82.2175 19H80.5015V9.926H84.5965C85.0125 9.926 85.3852 9.991 85.7145 10.121C86.0439 10.251 86.3212 10.4417 86.5465 10.693C86.7805 10.9357 86.9582 11.2303 87.0795 11.577C87.2095 11.9237 87.2745 12.3093 87.2745 12.734C87.2745 13.358 87.1315 13.8953 86.8455 14.346C86.5682 14.7967 86.1479 15.1173 85.5845 15.308L87.4435 19H85.5325L83.8425 15.503H82.2175V19ZM84.4275 14.06C84.7569 14.06 85.0169 13.9733 85.2075 13.8C85.3982 13.618 85.4935 13.3623 85.4935 13.033V12.435C85.4935 12.1057 85.3982 11.8543 85.2075 11.681C85.0169 11.5077 84.7569 11.421 84.4275 11.421H82.2175V14.06H84.4275ZM88.7574 19V17.622H89.9534V11.304H88.7574V9.926H92.8784V11.304H91.6694V17.622H92.8784V19H88.7574ZM97.4524 19.156C96.6724 19.156 96.0094 19.0173 95.4634 18.74C94.9261 18.4627 94.4624 18.0987 94.0724 17.648L95.2294 16.53C95.5414 16.894 95.8881 17.1713 96.2694 17.362C96.6594 17.5527 97.0884 17.648 97.5564 17.648C98.0851 17.648 98.4838 17.5353 98.7524 17.31C99.0211 17.076 99.1554 16.764 99.1554 16.374C99.1554 16.0707 99.0688 15.8237 98.8954 15.633C98.7221 15.4423 98.3971 15.3037 97.9204 15.217L97.0624 15.087C95.2511 14.801 94.3454 13.9213 94.3454 12.448C94.3454 12.0407 94.4191 11.6723 94.5664 11.343C94.7224 11.0137 94.9434 10.732 95.2294 10.498C95.5154 10.264 95.8578 10.0863 96.2564 9.965C96.6638 9.835 97.1231 9.77 97.6344 9.77C98.3191 9.77 98.9171 9.88267 99.4284 10.108C99.9398 10.3333 100.377 10.667 100.741 11.109L99.5714 12.214C99.3461 11.9367 99.0731 11.7113 98.7524 11.538C98.4318 11.3647 98.0288 11.278 97.5434 11.278C97.0494 11.278 96.6768 11.3733 96.4254 11.564C96.1828 11.746 96.0614 12.006 96.0614 12.344C96.0614 12.6907 96.1611 12.9463 96.3604 13.111C96.5598 13.2757 96.8804 13.397 97.3224 13.475L98.1674 13.631C99.0861 13.7957 99.7621 14.0903 100.195 14.515C100.637 14.931 100.858 15.516 100.858 16.27C100.858 16.7033 100.78 17.0977 100.624 17.453C100.477 17.7997 100.256 18.103 99.9614 18.363C99.6754 18.6143 99.3201 18.8093 98.8954 18.948C98.4794 19.0867 97.9984 19.156 97.4524 19.156ZM102.579 19V9.926H108.559V11.447H104.295V13.644H108.065V15.165H104.295V17.479H108.559V19H102.579Z" fill="#433000"/>
</g>
<rect x="0.5" y="0.5" width="117" height="27" rx="5.5" stroke="black" stroke-opacity="0.1"/>
<defs>
<filter id="filter0_f_10285_60941" x="-2" y="-14" width="58.7822" height="56" filterUnits="userSpaceOnUse" color-interpolation-filters="sRGB">
<feFlood flood-opacity="0" result="BackgroundImageFix"/>
<feBlend mode="normal" in="SourceGraphic" in2="BackgroundImageFix" result="shape"/>
<feGaussianBlur stdDeviation="6" result="effect1_foregroundBlur_10285_60941"/>
</filter>
<linearGradient id="paint0_linear_10285_60941" x1="118" y1="15.8918" x2="20.8544" y2="-37.7599" gradientUnits="userSpaceOnUse">
<stop stop-color="#DFB74F"/>
<stop offset="1" stop-color="#FFECA8"/>
</linearGradient>
<clipPath id="clip0_10285_60941">
<rect width="118" height="28" rx="6" fill="white"/>
</clipPath>
</defs>
</svg>
