<svg xmlns="http://www.w3.org/2000/svg" width="24" height="24" fill="none" viewBox="0 0 24 24">
  <path stroke="#3B444C" stroke-linecap="round" stroke-linejoin="round" stroke-width="1.5" d="M15.429 5.439H7.592a.653.653 0 0 0-.653.653v14.367a.653.653 0 0 0 .653.652h11.755A.654.654 0 0 0 20 20.46V10.01m-4.571-4.57L20 10.009m-4.571-4.57v4.57H20m-9.143 3.92h5.225m-5.225 2.611h5.225m.98-9.469L12.49 2.5H4.653A.653.653 0 0 0 4 3.153V17.52a.653.653 0 0 0 .653.653h2.286" vector-effect="non-scaling-stroke"/>
</svg>
