<svg width="24" height="24" viewBox="0 0 24 24" fill="none" xmlns="http://www.w3.org/2000/svg">
<path d="M12.7507 3H3.75C3.55109 3 3.36032 3.07902 3.21967 3.21967C3.07902 3.36032 3 3.55109 3 3.75V20.25C3 20.4489 3.07902 20.6397 3.21967 20.7803C3.36032 20.921 3.55109 21 3.75 21H10.5004M12.7507 3L18.0007 8.25H12.7507V3ZM6.50073 11.75H10.5007M6.50073 15.75H8.50073M18.9749 18.975L21 21M20.0002 16.5C20.0002 18.433 18.4332 20 16.5001 20C14.5671 20 13 18.433 13 16.5C13 14.567 14.5671 13 16.5001 13C18.4332 13 20.0002 14.567 20.0002 16.5Z" stroke="#3B444C" stroke-width="1.5" stroke-linecap="round" stroke-linejoin="round"/>
</svg>