<svg width="24" height="24" viewBox="0 0 24 24" fill="none" xmlns="http://www.w3.org/2000/svg">
<path d="M2.76923 19.6667L2.76704 20.4167H2.76923V19.6667ZM2 18.8974H1.25L1.25 18.8996L2 18.8974ZM2.83333 3V3.75V3ZM8.32149 3V3.75V3ZM8.91075 3.24408L8.38041 3.77441L8.38041 3.77441L8.91075 3.24408ZM11.4697 6.86366C11.7626 7.15656 12.2374 7.15656 12.5303 6.86366C12.8232 6.57077 12.8232 6.0959 12.5303 5.803L11.4697 6.86366ZM21.25 8.0463C21.25 8.46051 21.5858 8.7963 22 8.7963C22.4142 8.7963 22.75 8.46051 22.75 8.0463H21.25ZM9.01425 20.4167C9.42846 20.4167 9.76425 20.0809 9.76425 19.6667C9.76425 19.2525 9.42846 18.9167 9.01425 18.9167V20.4167ZM13 19.2773L12.3323 18.9357C12.1774 19.2384 12.2456 19.6074 12.4983 19.8348L13 19.2773ZM22 19.276L22.5018 19.8334C22.7545 19.6059 22.8225 19.237 22.6677 18.9343L22 19.276ZM2.77143 18.9167C2.76575 18.9167 2.76031 18.9144 2.75629 18.9104L1.69563 19.971C1.97988 20.2553 2.36506 20.4155 2.76704 20.4167L2.77143 18.9167ZM2.75629 18.9104C2.75228 18.9064 2.75001 18.9009 2.75 18.8952L1.25 18.8996C1.25118 19.3016 1.41139 19.6868 1.69563 19.971L2.75629 18.9104ZM2.75 18.8974V6.33333H1.25V18.8974H2.75ZM2 7.08333H21.1667V5.58333H2V7.08333ZM21.1667 7.08333C21.1888 7.08333 21.21 7.09211 21.2256 7.10774L22.2863 6.04708C21.9893 5.75015 21.5866 5.58333 21.1667 5.58333V7.08333ZM21.2256 7.10774C21.2412 7.12337 21.25 7.14456 21.25 7.16667H22.75C22.75 6.74674 22.5832 6.34402 22.2863 6.04708L21.2256 7.10774ZM2.75 6.33333V3.83333H1.25V6.33333H2.75ZM2.75 3.83333C2.75 3.81123 2.75878 3.79004 2.77441 3.77441L1.71375 2.71375C1.41682 3.01068 1.25 3.41341 1.25 3.83333H2.75ZM2.77441 3.77441C2.79004 3.75878 2.81123 3.75 2.83333 3.75V2.25C2.41341 2.25 2.01068 2.41682 1.71375 2.71375L2.77441 3.77441ZM2.83333 3.75H8.32149V2.25H2.83333V3.75ZM8.32149 3.75C8.33243 3.75 8.34327 3.75216 8.35338 3.75634L8.9274 2.37052C8.73531 2.29095 8.52941 2.25 8.32149 2.25V3.75ZM8.35338 3.75634C8.36349 3.76053 8.37268 3.76667 8.38041 3.77441L9.44108 2.71375C9.29405 2.56672 9.11951 2.45009 8.9274 2.37052L8.35338 3.75634ZM8.38041 3.77441L11.4697 6.86366L12.5303 5.803L9.44108 2.71375L8.38041 3.77441ZM21.25 7.16667V8.0463H22.75V7.16667H21.25ZM9.01425 18.9167H2.76923V20.4167H9.01425V18.9167ZM19.5437 13.7778C19.5437 14.8935 18.6326 15.8056 17.4993 15.8056V17.3056C19.4526 17.3056 21.0437 15.7303 21.0437 13.7778H19.5437ZM17.4993 15.8056C16.3659 15.8056 15.4548 14.8935 15.4548 13.7778H13.9548C13.9548 15.7303 15.546 17.3056 17.4993 17.3056V15.8056ZM15.4548 13.7778C15.4548 12.6621 16.3659 11.75 17.4993 11.75V10.25C15.546 10.25 13.9548 11.8252 13.9548 13.7778H15.4548ZM17.4993 11.75C18.6326 11.75 19.5437 12.6621 19.5437 13.7778H21.0437C21.0437 11.8252 19.4526 10.25 17.4993 10.25V11.75ZM13.6677 19.6189C14.0206 18.9292 14.5758 18.3504 15.2589 17.934L14.4781 16.6532C13.578 17.202 12.8214 17.9799 12.3323 18.9357L13.6677 19.6189ZM15.2589 17.934C15.9327 17.5232 16.7081 17.3056 17.4993 17.3056L17.4993 15.8056C16.4332 15.8056 15.3875 16.0988 14.4781 16.6532L15.2589 17.934ZM17.4993 17.3056C18.2904 17.3056 19.0658 17.5232 19.7396 17.934L20.5204 16.6532C19.611 16.0988 18.5654 15.8056 17.4993 15.8056L17.4993 17.3056ZM19.7396 17.934C20.4237 18.351 20.9799 18.9288 21.3323 19.6176L22.6677 18.9343C22.1781 17.9776 21.4196 17.2013 20.5204 16.6532L19.7396 17.934ZM21.4982 18.7186C20.4409 19.6704 19.0394 20.25 17.4993 20.25V21.75C19.4232 21.75 21.179 21.0243 22.5018 19.8334L21.4982 18.7186ZM17.4993 20.25C15.9598 20.25 14.5588 19.6709 13.5017 18.7198L12.4983 19.8348C13.821 21.0249 15.5761 21.75 17.4993 21.75V20.25Z" fill="#3B444C"/>
</svg>
