<svg width="293" height="40" viewBox="0 0 293 40" fill="none" xmlns="http://www.w3.org/2000/svg">
<path fill-rule="evenodd" clip-rule="evenodd" d="M53.3926 26.4922C54.1443 26.4922 54.7493 26.3396 55.2063 26.0345C55.6636 25.7293 56.0191 25.3479 56.2734 24.8901C56.5272 24.4323 56.6949 23.9392 56.7763 23.4098C56.8573 22.8811 56.8983 22.3927 56.8983 21.945C56.8983 21.4978 56.8573 21.0094 56.7763 20.4801C56.6949 19.9514 56.5272 19.4578 56.2734 19C56.0191 18.5422 55.6636 18.1608 55.2063 17.8557C54.7493 17.5503 54.1443 17.3979 53.3926 17.3979C52.6406 17.3979 52.0362 17.5503 51.5789 17.8557C51.1216 18.1608 50.771 18.5422 50.5273 19C50.2834 19.4578 50.1205 19.9514 50.0395 20.4801C49.9581 21.0094 49.9175 21.4978 49.9175 21.945C49.9175 22.3927 49.9581 22.8811 50.0395 23.4098C50.1205 23.9392 50.2834 24.4323 50.5273 24.8901C50.771 25.3479 51.1216 25.7293 51.5789 26.0345C52.0362 26.3396 52.6406 26.4922 53.3926 26.4922ZM56.8983 15.9899V9.06641H60.5258V21.9146C60.5258 22.9726 60.4239 23.8982 60.2209 24.6917C60.0175 25.4852 59.7484 26.1717 59.4131 26.7516C59.0778 27.3315 58.6968 27.8098 58.2701 28.1861C57.8434 28.5628 57.406 28.8727 56.9592 29.1169C55.9023 29.6662 54.7135 29.9509 53.3926 29.9713C52.0308 29.9509 50.8215 29.6662 49.7651 29.1169C49.318 28.8727 48.8759 28.5628 48.4392 28.1861C48.0019 27.8098 47.616 27.3367 47.2807 26.767C46.9454 26.1975 46.6758 25.5157 46.4727 24.7222C46.2696 23.9288 46.168 23.0032 46.168 21.945C46.168 20.8873 46.2642 19.9613 46.4576 19.1679C46.6506 18.3744 46.9043 17.6878 47.2197 17.1079C47.5346 16.5281 47.8903 16.0451 48.2867 15.6582C48.6828 15.272 49.0944 14.9563 49.5212 14.7123C50.4967 14.1428 51.6141 13.8377 52.8745 13.7967C53.5042 13.8577 54.1137 14.0103 54.7034 14.2545C55.2111 14.4785 55.7295 14.819 56.2582 15.2768C56.6103 15.582 56.8236 15.8197 56.8983 15.9899ZM73.0241 19.9614C72.9221 19.6361 72.7954 19.3106 72.6432 18.9849C72.4906 18.6596 72.2821 18.3644 72.0182 18.0999C71.7538 17.8355 71.4389 17.6267 71.0731 17.4742C70.7073 17.3216 70.2805 17.2453 69.7929 17.2453C69.3051 17.2453 68.8784 17.3216 68.5125 17.4742C68.1467 17.6267 67.8313 17.8355 67.5675 18.0999C67.3032 18.3644 67.0899 18.6596 66.9274 18.9849C66.7645 19.3106 66.6426 19.6361 66.5616 19.9614H73.0241ZM76.865 19.9614C76.9056 20.2665 76.9414 20.5822 76.9716 20.9075C77.0022 21.2332 77.0174 21.5789 77.0174 21.945V22.4943H66.3482C66.3887 22.8406 66.4396 23.1915 66.5006 23.5474C66.5616 23.9034 66.6632 24.2545 66.8054 24.6002C67.0287 25.1295 67.3742 25.5973 67.8419 26.0039C68.3092 26.4112 68.9592 26.6144 69.7929 26.6144C70.6258 26.6144 71.2761 26.4112 71.7438 26.0039C72.2109 25.5973 72.5562 25.1295 72.7802 24.6002H76.7431C76.5803 25.3126 76.3515 25.933 76.0574 26.4617C75.7623 26.991 75.437 27.4488 75.0817 27.8351C74.7261 28.2219 74.3448 28.5422 73.9387 28.7964C73.5318 29.051 73.1355 29.2594 72.7497 29.422C71.8148 29.7883 70.8292 29.9713 69.7929 29.9713C68.4311 29.951 67.2218 29.6662 66.1653 29.1169C65.718 28.8727 65.2759 28.5628 64.8392 28.1862C64.4019 27.8099 64.0162 27.3367 63.6808 26.767C63.3455 26.1976 63.076 25.5158 62.8731 24.7223C62.6697 23.9288 62.5683 23.0032 62.5683 21.945C62.5683 20.8874 62.6697 19.9614 62.8731 19.1679C63.076 18.3744 63.3455 17.6879 63.6808 17.108C64.0162 16.5281 64.4019 16.0451 64.8392 15.6583C65.2759 15.272 65.718 14.9563 66.1653 14.7123C67.2218 14.1429 68.4311 13.8377 69.7929 13.7968C70.9102 13.8377 71.9571 14.0713 72.9327 14.4985C73.3389 14.6818 73.7504 14.9212 74.1672 15.2159C74.5835 15.511 74.9697 15.8771 75.3256 16.3145C75.6809 16.7523 75.9962 17.271 76.2707 17.8709C76.5449 18.4713 76.7431 19.1679 76.865 19.9614ZM83.6013 29.6661H86.1009H88.6007L93.6304 14.1933H89.8808L86.1009 25.7599L82.3211 14.1933H78.5716L83.6013 29.6661ZM98.9949 17.8251V24.6307C99.0558 24.8747 99.1677 25.0989 99.3305 25.3021C99.4723 25.4652 99.6711 25.6178 99.9248 25.7599C100.179 25.9024 100.509 25.9735 100.916 25.9735H103.232V29.6662H99.5133C98.7212 29.585 98.009 29.361 97.3797 28.9948C96.8503 28.6896 96.3679 28.2371 95.9314 27.6368C95.4944 27.0367 95.2762 26.2075 95.2762 25.1494V12.0937H98.9949V14.1934H102.501V17.8251H98.9949ZM105.64 16.2229C105.194 16.8232 104.97 17.6524 104.97 18.7101V29.6662H108.72V19.2288C108.781 18.9848 108.892 18.761 109.054 18.5574C109.197 18.395 109.395 18.2423 109.65 18.0996C109.903 17.9576 110.233 17.886 110.64 17.886H113.505V14.1934H109.238C108.445 14.2749 107.734 14.4985 107.104 14.8647C106.575 15.1699 106.088 15.6229 105.64 16.2229ZM122.345 17.3978C121.593 17.3978 120.989 17.5504 120.531 17.8556C120.074 18.1607 119.723 18.5422 119.48 18.9999C119.236 19.4577 119.073 19.9513 118.992 20.4802C118.911 21.0095 118.87 21.4977 118.87 21.9451C118.87 22.3929 118.911 22.881 118.992 23.4099C119.073 23.9393 119.236 24.4322 119.48 24.89C119.723 25.3478 120.074 25.7292 120.531 26.0344C120.989 26.3397 121.593 26.4922 122.345 26.4922C123.097 26.4922 123.702 26.3397 124.159 26.0344C124.617 25.7292 124.967 25.3478 125.211 24.89C125.455 24.4322 125.617 23.9393 125.698 23.4099C125.779 22.881 125.82 22.3929 125.82 21.9451C125.82 21.4977 125.779 21.0095 125.698 20.4802C125.617 19.9513 125.455 19.4577 125.211 18.9999C124.967 18.5422 124.617 18.1607 124.159 17.8556C123.702 17.5504 123.097 17.3978 122.345 17.3978ZM115.121 21.9451C115.121 20.8874 115.222 19.9613 115.425 19.1678C115.628 18.3743 115.898 17.6877 116.233 17.1078C116.569 16.528 116.954 16.045 117.392 15.6582C117.828 15.2719 118.27 14.9564 118.717 14.7122C119.774 14.1427 120.984 13.8376 122.345 13.7966C123.687 13.8376 124.885 14.1427 125.942 14.7122C126.389 14.9564 126.831 15.2719 127.269 15.6582C127.705 16.045 128.092 16.528 128.426 17.1078C128.762 17.6877 129.037 18.3743 129.249 19.1678C129.463 19.9613 129.57 20.8874 129.57 21.9451C129.57 23.0031 129.463 23.9287 129.249 24.7222C129.037 25.5156 128.762 26.1976 128.426 26.7669C128.092 27.3368 127.705 27.8098 127.269 28.186C126.831 28.5627 126.389 28.8726 125.942 29.1168C124.885 29.6661 123.687 29.9508 122.345 29.9712C120.984 29.9508 119.774 29.6661 118.717 29.1168C118.27 28.8726 117.828 28.5627 117.392 28.186C116.954 27.8098 116.569 27.3368 116.233 26.7669C115.898 26.1976 115.628 25.5156 115.425 24.7222C115.222 23.9287 115.121 23.0031 115.121 21.9451ZM138.853 13.8272C138.476 13.807 138.257 13.7966 138.196 13.7966C138.115 13.7966 137.892 13.807 137.526 13.8272C137.16 13.8476 136.723 13.9339 136.216 14.0866C135.707 14.2392 135.169 14.4786 134.599 14.8037C134.03 15.1294 133.503 15.5972 133.014 16.2077C132.527 16.8179 132.125 17.5862 131.811 18.5118C131.495 19.4377 131.338 20.5821 131.338 21.9451V29.6661H135.057V21.9451C135.057 21.4977 135.098 21.0399 135.179 20.5717C135.26 20.1039 135.412 19.6767 135.636 19.2899C135.86 18.9036 136.175 18.5833 136.581 18.3285C136.988 18.0744 137.526 17.9471 138.196 17.9471C138.868 17.9471 139.406 18.0744 139.812 18.3285C140.219 18.5833 140.534 18.9036 140.757 19.2899C140.98 19.6767 141.133 20.1039 141.215 20.5717C141.296 21.0399 141.337 21.4977 141.337 21.9451V29.6661H145.055V21.9451C145.055 20.5821 144.898 19.4377 144.583 18.5118C144.267 17.5862 143.867 16.8179 143.379 16.2077C142.891 15.5972 142.363 15.1294 141.794 14.8037C141.225 14.4786 140.685 14.2392 140.178 14.0866C139.67 13.9339 139.228 13.8476 138.853 13.8272Z" fill="#F8F8F9"/>
<path fill-rule="evenodd" clip-rule="evenodd" d="M6.2279 30.7789L0.383605 21.3877C-0.121136 20.5803 -0.128206 19.5492 0.36492 18.7343L7.90044 6.28501C8.38573 5.48325 9.24427 4.99668 10.1674 5.00002L21.0462 5.03973C21.0707 5.03973 21.0949 5.04049 21.1189 5.04178C22.1797 5.09745 22.7614 6.33655 22.1764 7.24166L14.6265 18.919C14.3427 19.5149 13.6829 19.8888 12.9635 19.7208C12.431 19.5965 12.0002 19.1528 11.8813 18.6088C11.7997 18.2353 11.856 17.8794 12.0065 17.5818C12.0068 17.5813 12.0069 17.5809 12.007 17.5805C12.0072 17.58 12.0073 17.5796 12.0076 17.5792L12.0093 17.5763C12.0543 17.4887 12.1073 17.406 12.1674 17.3295L13.317 15.5357C13.6576 15.0185 13.3403 14.317 12.7335 14.2459L9.97043 14.0317C9.4576 13.9918 8.95106 14.1693 8.57028 14.5224C8.07013 15.1196 5.84891 18.7768 4.83488 20.4912C4.50764 21.0445 4.54703 21.7354 4.9139 22.2621L4.90129 22.2684L8.41979 27.9082L9.07989 28.9782C9.14852 29.0685 9.20863 29.1656 9.2589 29.2687L9.28363 29.3086L9.28189 29.3177C9.41138 29.6053 9.46595 29.9354 9.41824 30.282C9.31794 31.0083 8.7493 31.6101 8.04033 31.7309C7.24926 31.8659 6.53848 31.4389 6.2279 30.7789ZM25.7252 8.19331L31.6105 17.558C32.1188 18.3631 32.1304 19.3942 31.6408 20.2111L24.1598 32.6947C23.678 33.4985 22.8216 33.9892 21.8984 33.99L11.0196 34C10.9951 34 10.9709 33.9995 10.9469 33.9982C9.88592 33.9474 9.29884 32.7109 9.8798 31.8032L17.3785 20.0913C17.6598 19.4944 18.3178 19.1174 19.0379 19.2821C19.5709 19.404 20.0037 19.8457 20.1249 20.3892C20.2082 20.7624 20.1534 21.1183 20.0042 21.417L20.0034 21.4193L20.0014 21.4221C19.957 21.5103 19.9045 21.593 19.8444 21.6698L18.7029 23.4689C18.3645 23.9877 18.6849 24.6877 19.2919 24.756L22.0557 24.9578C22.5691 24.9951 23.0745 24.8153 23.4541 24.4607C23.9515 23.8612 26.1565 20.1939 27.163 18.4749C27.488 17.92 27.4458 17.2294 27.0763 16.7044L27.089 16.698L23.5457 11.0741L22.8811 10.0071C22.8119 9.91718 22.7514 9.82027 22.7006 9.71745L22.6759 9.67775L22.6776 9.66874C22.5468 9.38164 22.491 9.05177 22.5372 8.70488C22.634 7.97812 23.2001 7.37403 23.9085 7.24981C24.6991 7.11115 25.4117 7.53484 25.7252 8.19331Z" fill="#F8F8F9"/>
<path d="M170.688 10.4551H167.689L166.925 14.3691H169.894L169.395 16.9287H166.396L163.428 31.7598C163.193 32.9758 162.722 33.9074 162.017 34.5547C161.311 35.2217 160.272 35.5557 158.9 35.5557H156.844L157.343 32.9951H160.105L163.339 16.9287H161.047L161.546 14.3691H163.868L164.397 11.6914C164.633 10.4751 165.103 9.54287 165.809 8.89551C166.514 8.22873 167.552 7.89551 168.924 7.89551H171.188L170.688 10.4551ZM189.062 14.0156C189.67 14.0156 190.277 14.0941 190.885 14.251C191.512 14.4079 192.071 14.6529 192.561 14.9863C193.05 15.3198 193.442 15.7517 193.736 16.2812C194.05 16.8109 194.207 17.4489 194.207 18.1943C194.207 19.8225 193.383 21.0685 191.737 21.9316C190.111 22.7946 187.554 23.2653 184.066 23.3438C184.008 23.736 183.978 24.0595 183.978 24.3145C183.978 25.256 184.233 26.0112 184.742 26.5801C185.271 27.149 186.094 27.4336 187.211 27.4336C188.054 27.4336 188.818 27.2477 189.504 26.875C190.19 26.5023 190.846 25.9232 191.473 25.1387L193.413 26.7568C192.453 27.9535 191.444 28.7977 190.386 29.2881C189.328 29.7785 188.2 30.0234 187.005 30.0234C185.026 30.0234 183.517 29.4638 182.479 28.3457C181.46 27.208 180.95 25.6093 180.95 23.5498C180.95 22.2944 181.137 21.0977 181.509 19.96C181.901 18.8026 182.45 17.7822 183.155 16.8994C183.861 16.0168 184.713 15.3205 185.712 14.8105C186.711 14.2809 187.828 14.0157 189.062 14.0156ZM204.104 14.0156C204.711 14.0156 205.318 14.0941 205.926 14.251C206.553 14.4079 207.112 14.6529 207.602 14.9863C208.091 15.3198 208.483 15.7516 208.777 16.2812C209.091 16.8109 209.247 17.4489 209.247 18.1943C209.247 19.8225 208.424 21.0685 206.778 21.9316C205.152 22.7947 202.594 23.2653 199.106 23.3438C199.048 23.7359 199.019 24.0595 199.019 24.3145C199.019 25.256 199.274 26.0112 199.783 26.5801C200.312 27.149 201.135 27.4336 202.252 27.4336C203.095 27.4336 203.859 27.2477 204.545 26.875C205.231 26.5023 205.887 25.9232 206.514 25.1387L208.454 26.7568C207.494 27.9534 206.485 28.7977 205.427 29.2881C204.369 29.7785 203.241 30.0234 202.046 30.0234C200.067 30.0234 198.558 29.4638 197.52 28.3457C196.501 27.208 195.991 25.6094 195.991 23.5498C195.991 22.2944 196.178 21.0977 196.55 19.96C196.942 18.8026 197.49 17.7821 198.195 16.8994C198.901 16.0167 199.754 15.3206 200.753 14.8105C201.752 14.2809 202.869 14.0157 204.104 14.0156ZM247.915 23.667C247.856 23.9416 247.808 24.2166 247.769 24.4912C247.749 24.7657 247.739 25.0109 247.739 25.2266C247.739 25.9129 247.886 26.4427 248.18 26.8154C248.474 27.1881 248.964 27.375 249.649 27.375C250.629 27.375 251.501 26.9432 252.266 26.0801C252.716 25.5701 253.089 25.0113 253.383 24.4033C253.696 23.7756 253.912 23.157 254.029 22.5488L255.675 14.3691H258.732L256.175 27.1104H258.145L257.645 29.6699H255.293C254.607 29.6699 254.069 29.4936 253.677 29.1406C253.304 28.7679 253.118 28.2674 253.118 27.6396C253.118 27.3847 253.147 27.0903 253.206 26.7568L253.265 26.4043H253.118C252.55 27.5812 251.893 28.4836 251.148 29.1113C250.404 29.7193 249.483 30.0234 248.386 30.0234C247.132 30.0234 246.181 29.6604 245.534 28.9346C244.907 28.2087 244.594 27.198 244.594 25.9033C244.594 25.57 244.613 25.2366 244.652 24.9033C244.692 24.5698 244.751 24.2068 244.829 23.8145L246.71 14.3691H249.768L247.915 23.667ZM175.042 17.6348H175.218C175.394 17.2425 175.611 16.8503 175.865 16.458C176.14 16.0658 176.463 15.7219 176.835 15.4277C177.207 15.114 177.628 14.8592 178.099 14.6631C178.589 14.4669 179.138 14.3691 179.745 14.3691H180.597L179.979 17.3994H178.951C177.599 17.3994 176.55 17.7237 175.806 18.3711C175.061 19.0184 174.581 19.9007 174.365 21.0186L172.632 29.6699H169.574L172.632 14.3691H175.688L175.042 17.6348ZM229.578 14.0156C230.813 14.0156 231.734 14.3787 232.342 15.1045C232.969 15.8106 233.282 16.8013 233.282 18.0762C233.282 18.7824 233.194 19.5482 233.018 20.3721L231.665 27.1104H233.518L233.018 29.6699H230.695C230.029 29.6699 229.5 29.513 229.108 29.1992C228.736 28.8658 228.55 28.3854 228.55 27.7578C228.55 27.5028 228.579 27.2569 228.638 27.0215L229.961 20.3721C230.02 20.0779 230.068 19.7931 230.107 19.5186C230.147 19.2439 230.166 18.9883 230.166 18.7529C230.166 18.0861 230.01 17.5757 229.696 17.2227C229.402 16.85 228.932 16.6641 228.285 16.6641C227.384 16.6641 226.551 17.0959 225.787 17.959C225.356 18.4298 224.993 18.9787 224.699 19.6064C224.405 20.2341 224.2 20.8422 224.082 21.4307L222.436 29.6699H219.379L221.23 20.4014C221.289 20.1072 221.339 19.8225 221.378 19.5479C221.417 19.2536 221.437 18.9787 221.437 18.7236C221.437 18.0764 221.29 17.5757 220.996 17.2227C220.722 16.85 220.271 16.6641 219.644 16.6641C219.134 16.6641 218.663 16.7822 218.232 17.0176C217.802 17.2529 217.42 17.5668 217.087 17.959C216.636 18.4689 216.254 19.0277 215.94 19.6357C215.627 20.2437 215.412 20.8423 215.294 21.4307L213.647 29.6699H210.591L213.647 14.3691H216.704L216.058 17.6348H216.205C216.773 16.4579 217.42 15.5651 218.145 14.957C218.889 14.3293 219.83 14.0156 220.967 14.0156C222.083 14.0157 222.936 14.3392 223.523 14.9863C224.111 15.614 224.444 16.4971 224.522 17.6348H224.67C225.219 16.4775 225.875 15.5847 226.64 14.957C227.423 14.3296 228.403 14.0157 229.578 14.0156ZM239.409 27.1104H241.378L240.879 29.6699H238.615C237.871 29.6699 237.302 29.484 236.91 29.1113C236.518 28.719 236.322 28.2184 236.322 27.6104C236.322 27.4142 236.352 27.1691 236.411 26.875L238.909 14.3691H241.966L239.409 27.1104ZM279.581 14.0156C280.816 14.0156 281.736 14.3787 282.344 15.1045C282.971 15.8107 283.284 16.8012 283.284 18.0762C283.284 18.7824 283.197 19.5482 283.021 20.3721L281.668 27.1104H283.52L283.021 29.6699H280.698C280.032 29.6699 279.502 29.5131 279.11 29.1992C278.738 28.8658 278.553 28.3852 278.553 27.7578C278.553 27.5028 278.582 27.2569 278.641 27.0215L279.963 20.3721C280.022 20.0779 280.071 19.7931 280.11 19.5186C280.15 19.2439 280.169 18.9883 280.169 18.7529C280.169 18.0861 280.012 17.5757 279.698 17.2227C279.404 16.8503 278.934 16.6641 278.288 16.6641C277.387 16.6641 276.553 17.0958 275.789 17.959C275.358 18.4297 274.996 18.9789 274.702 19.6064C274.408 20.2341 274.203 20.8423 274.085 21.4307L272.438 29.6699H269.382L271.233 20.4014C271.292 20.1071 271.342 19.8225 271.381 19.5479C271.42 19.2536 271.439 18.9787 271.439 18.7236C271.439 18.0764 271.292 17.5757 270.998 17.2227C270.724 16.8503 270.273 16.6641 269.646 16.6641C269.137 16.6641 268.666 16.7822 268.235 17.0176C267.804 17.253 267.422 17.5667 267.089 17.959C266.638 18.469 266.256 19.0277 265.942 19.6357C265.629 20.2438 265.413 20.8422 265.296 21.4307L263.65 29.6699H260.593L263.65 14.3691H266.707L266.061 17.6348H266.207C266.775 16.4578 267.422 15.5651 268.147 14.957C268.892 14.3295 269.832 14.0157 270.969 14.0156C272.086 14.0156 272.939 14.339 273.526 14.9863C274.114 15.614 274.447 16.4971 274.525 17.6348H274.673C275.221 16.4776 275.877 15.5847 276.642 14.957C277.425 14.3293 278.405 14.0156 279.581 14.0156ZM188.828 16.458C187.77 16.458 186.848 16.821 186.064 17.5469C185.3 18.2531 184.801 19.2145 184.565 20.4307L184.419 21.1953C185.81 21.1365 186.946 21.0387 187.828 20.9014C188.71 20.764 189.396 20.5772 189.886 20.3418C190.395 20.1065 190.738 19.8225 190.914 19.4893C191.09 19.1558 191.179 18.7724 191.179 18.3408C191.179 17.9683 191.111 17.664 190.974 17.4287C190.837 17.1739 190.65 16.9781 190.415 16.8408C190.199 16.6839 189.954 16.5851 189.68 16.5459C189.406 16.4871 189.122 16.458 188.828 16.458ZM203.868 16.458C202.81 16.4581 201.889 16.8211 201.105 17.5469C200.341 18.2531 199.842 19.2145 199.606 20.4307L199.46 21.1953C200.851 21.1365 201.987 21.0387 202.869 20.9014C203.751 20.764 204.437 20.5772 204.927 20.3418C205.436 20.1065 205.779 19.8225 205.955 19.4893C206.131 19.1558 206.22 18.7724 206.22 18.3408C206.22 17.9683 206.152 17.664 206.015 17.4287C205.878 17.1739 205.691 16.9781 205.456 16.8408C205.241 16.6839 204.995 16.5851 204.721 16.5459C204.446 16.4871 204.162 16.458 203.868 16.458ZM241.702 7.77734C242.27 7.77741 242.682 7.89552 242.937 8.13086C243.191 8.36622 243.318 8.66071 243.318 9.01367C243.318 9.20986 243.269 9.5529 243.171 10.043C243.073 10.4941 242.867 10.8766 242.554 11.1904C242.24 11.4847 241.741 11.6318 241.055 11.6318C240.487 11.6318 240.075 11.5147 239.82 11.2793C239.566 11.0439 239.438 10.7495 239.438 10.3965C239.438 10.2003 239.487 9.85664 239.585 9.36621C239.683 8.91515 239.889 8.54225 240.202 8.24805C240.516 7.93417 241.016 7.77734 241.702 7.77734Z" fill="url(#paint0_linear_8496_10117)"/>
<defs>
<linearGradient id="paint0_linear_8496_10117" x1="159.195" y1="18.9183" x2="285.807" y2="18.9183" gradientUnits="userSpaceOnUse">
<stop stop-color="#386FFF"/>
<stop offset="1" stop-color="#B372ED"/>
</linearGradient>
</defs>
</svg>
