<svg xmlns="http://www.w3.org/2000/svg" width="24" height="24" fill="none" viewBox="0 0 24 24">
  <path stroke="#3B444C" stroke-linecap="round" stroke-linejoin="round" stroke-width="1.5" d="m13.656 4.655 5.688 5.689M8.406 9.905l5.688 5.689m-1.719-1.72-6.656 6.657a1.594 1.594 0 0 1-2.25 0 1.594 1.594 0 0 1 0-2.25l6.656-6.656M5.471 7.718l6-6a.75.75 0 0 1 1.06 0l1.5 1.5a.75.75 0 0 1 0 1.06l-6 6a.75.75 0 0 1-1.06 0l-1.5-1.5a.75.75 0 0 1 0-1.06Zm8.25 8.25 6-6a.75.75 0 0 1 1.06 0l1.5 1.5a.75.75 0 0 1 0 1.06l-6 6a.75.75 0 0 1-1.06 0l-1.5-1.5a.75.75 0 0 1 0-1.06Z" vector-effect="non-scaling-stroke"/>
</svg>
