<svg xmlns="http://www.w3.org/2000/svg" width="22" height="18" viewBox="0 0 22 18" fill="none">
  <path data-style-override="false" d="M14.631 4.88275L16.5434 2.97042L16.6708 2.1652C13.1859 -1.00351 7.6463 -0.644216 4.50484 2.91491C3.63223 3.90343 2.98486 5.13584 2.63965 6.40846L3.32457 6.31196L7.14923 5.68127L7.44452 5.37929C9.14583 3.51087 12.0224 3.25951 13.9868 4.84924L14.631 4.88275Z" fill="#EA4335"/>
  <path data-style-override="false" d="M19.2678 6.35299C18.8282 4.7343 17.9258 3.27914 16.671 2.16602L13.987 4.84997C15.1204 5.77601 15.766 7.1711 15.7384 8.63433V9.11076C17.0576 9.11076 18.1272 10.1802 18.1272 11.4994C18.1272 12.8187 17.0576 13.8614 15.7384 13.8614H10.9541L10.4844 14.3713V17.2364L10.9541 17.686H15.7384C19.1698 17.7127 21.9733 14.9795 22 11.5481C22.0162 9.46816 20.9907 7.51828 19.2678 6.35299Z" fill="#4285F4"/>
  <path data-style-override="false" d="M6.17671 17.6848H10.9542V13.8602H6.17671C5.83631 13.8601 5.50665 13.787 5.1971 13.6455L4.51931 13.8535L2.59353 15.7658L2.42578 16.4167C3.50576 17.2321 4.82345 17.6907 6.17671 17.6848Z" fill="#34A853"/>
  <path data-style-override="false" d="M6.17637 5.27934C2.74479 5.29979 -0.0203405 8.09821 0.000112738 11.5296C0.0115425 13.4458 0.906499 15.2496 2.42545 16.4178L5.19677 13.6466C3.99441 13.1034 3.46014 11.6884 4.00335 10.4862C4.54648 9.28395 5.96153 8.74969 7.16371 9.2928C7.69352 9.53213 8.11779 9.95649 8.35713 10.4862L11.1285 7.71502C9.9493 6.17359 8.11711 5.27238 6.17637 5.27934Z" fill="#FBBC05"/>
</svg>