<svg width="50" height="50" viewBox="0 0 50 50" fill="none" xmlns="http://www.w3.org/2000/svg">
    <!-- Bottom jump group -->
    <g transform="translate(0 0)">
        <animateTransform attributeName="transform" type="translate" values="0 0; 0 -5; 0 0; 0 0"
            keyTimes="0;0.06;0.15;1" dur="5s" repeatCount="indefinite" calcMode="spline"
            keySplines="0.25 0.1 0.25 1;0.42 0 0.58 1;0 0 1 1" />
        <path d="M8 27.996h34v19a3 3 0 0 1-3 3H11a3 3 0 0 1-3-3z" fill="#D0DBF7" />
        <path fill="#376CFB" d="M19 27.996h12v22H19z" />
    </g>

    <!-- Top group (translate + nested rotate) -->
    <g transform="translate(0 0)">
        <animateTransform attributeName="transform" type="translate" values="0 0; 0 -5; 0 0; 0 0" keyTimes="0;0.1;0.2;1"
            dur="5s" repeatCount="indefinite" calcMode="spline" keySplines="0.25 0.1 0.25 1;0.42 0 0.58 1;0 0 1 1" />

        <!-- Nested rotate: rotate(angle cx cy) values to keep center consistent -->
        <g transform="rotate(0 25 18)">
            <animateTransform attributeName="transform" type="rotate"
                values="0 25 18; -8 25 18; 8 25 18; 0 25 18; 0 25 18" keyTimes="0;0.1;0.15;0.25;1" dur="5s"
                repeatCount="indefinite" calcMode="spline" keySplines="
                0.25 0.1 0.25 1;
                0.42 0 0.58 1;
                0.42 0 1 1;
                0 0 1 1" />


            <path
                d="M12.49 12.819c1.226-2.666 4.074-3.172 6.21-2.619 1.97.512 3.69 1.925 4.93 3.37 1.227 1.428 2.146 3.078 2.354 4.252l.208 1.174H16.036c-1.625 0-2.904-.794-3.56-2.037-.642-1.213-.632-2.734.014-4.14m5.708-.683c-1.58-.41-3.214.048-3.89 1.519-.427.928-.373 1.787-.065 2.37.293.553.87.971 1.793.971h7.526a11.3 11.3 0 0 0-1.449-2.124c-1.106-1.289-2.498-2.369-3.915-2.736"
                fill="#376CFB" />
            <path
                d="M37.51 12.819c-1.226-2.666-4.075-3.172-6.21-2.619-1.97.512-3.69 1.925-4.93 3.37-1.227 1.428-2.146 3.078-2.354 4.252l-.208 1.174h10.156c1.625 0 2.904-.794 3.56-2.037.642-1.213.632-2.734-.014-4.14m-5.708-.683c1.58-.41 3.214.048 3.89 1.519.427.928.373 1.787.065 2.37-.293.553-.87.971-1.793.971h-7.526a11.3 11.3 0 0 1 1.449-2.124c1.106-1.289 2.499-2.369 3.915-2.736"
                fill="#376CFB" />
            <path fill="#00173F" opacity=".15" d="M8 27.996h34v3H8z" />
            <rect x="5" y="16.996" width="40" height="11" rx="3" fill="#E6ECFF" />
            <path fill="#4294FF" d="M16 16.996h18v11H16z" />
        </g>
    </g>
</svg>