<svg xmlns="http://www.w3.org/2000/svg" width="24" height="24" fill="none" viewBox="0 0 24 24">
  <path stroke="#3B444C" stroke-linecap="round" stroke-linejoin="round" stroke-width="1.5" d="M2.25 12.278C2.25 6.739 6.616 2.25 12 2.25M2.25 12.278c0 2.182.679 4.203 1.83 5.849a9.902 9.902 0 0 0 3.045 2.837l.117.063m-4.992-8.75h19.5C21.75 6.74 17.386 2.25 12 2.25m0 0c-2.07 0-3.75 4.49-3.75 10.028 0 1.97.323 3.706.815 5.198M12.001 2.25c2.07 0 3.75 4.49 3.75 10.028 0 .524.029 1.27 0 1.774-.012.2-.032.439-.066.706m6.065 1.37v2.284m0-2.284h-2.452m2.453 0-4.965 4.968-2.246-2.468-3.46 3.122" vector-effect="non-scaling-stroke"/>
</svg>
