<svg width="24" height="24" viewBox="0 0 24 24" fill="none" xmlns="http://www.w3.org/2000/svg">
<path d="M15.631 7.88275L17.5433 5.97042L17.6708 5.1652C14.1859 1.99649 8.64629 2.35578 5.50484 5.91491C4.63223 6.90343 3.98486 8.13584 3.63964 9.40846L4.32457 9.31196L8.14923 8.68127L8.44451 8.37929C10.1458 6.51087 13.0224 6.25951 14.9868 7.84924L15.631 7.88275Z" fill="#EA4335"/>
<path d="M20.2676 9.35299C19.828 7.7343 18.9256 6.27914 17.6708 5.16602L14.9868 7.84997C16.1201 8.77601 16.7658 10.1711 16.7381 11.6343V12.1108C18.0574 12.1108 19.1269 13.1802 19.1269 14.4994C19.1269 15.8187 18.0574 16.8614 16.7381 16.8614H11.9539L11.4841 17.3713V20.2364L11.9539 20.686H16.7381C20.1696 20.7127 22.9731 17.9795 22.9998 14.5481C23.016 12.4682 21.9905 10.5183 20.2676 9.35299Z" fill="#4285F4"/>
<path d="M7.17649 20.6848H11.954V16.8602H7.17649C6.83609 16.8601 6.50644 16.787 6.19689 16.6455L5.5191 16.8535L3.59332 18.7658L3.42557 19.4167C4.50555 20.2321 5.82323 20.6907 7.17649 20.6848Z" fill="#34A853"/>
<path d="M7.17637 8.27934C3.74479 8.29979 0.97966 11.0982 1.00011 14.5296C1.01154 16.4458 1.9065 18.2496 3.42545 19.4178L6.19677 16.6466C4.99441 16.1034 4.46014 14.6884 5.00335 13.4862C5.54648 12.284 6.96153 11.7497 8.16371 12.2928C8.69352 12.5321 9.11779 12.9565 9.35713 13.4862L12.1285 10.715C10.9493 9.17359 9.11711 8.27238 7.17637 8.27934Z" fill="#FBBC05"/>
</svg>
