<svg width="24" height="24" viewBox="0 0 24 24" fill="none" xmlns="http://www.w3.org/2000/svg">
<path fill-rule="evenodd" clip-rule="evenodd" d="M6.10714 2.31934L1 5.26576V18.7211L6.10714 21.6676V19.114L3.16071 17.4443V6.54255L6.10714 4.87291V2.31934Z" fill="#5C85DE"/>
<path fill-rule="evenodd" clip-rule="evenodd" d="M1 7.81878V16.167L3.16071 17.4438V6.54199L1 7.81878Z" fill="#3367D6"/>
<path fill-rule="evenodd" clip-rule="evenodd" d="M1 7.81878L3.16071 7.32771V6.54199L1 7.81878Z" fill="#3367D6"/>
<path fill-rule="evenodd" clip-rule="evenodd" d="M17.8929 2.31934V4.87291L20.8393 6.54255V17.4443L17.8929 19.114V21.6676L23 18.7211V5.26576L17.8929 2.31934Z" fill="#5C85DE"/>
<path fill-rule="evenodd" clip-rule="evenodd" d="M20.8393 17.4438L23 16.167V7.81878L20.8393 6.54199V17.4438Z" fill="#3367D6"/>
<path fill-rule="evenodd" clip-rule="evenodd" d="M20.8393 7.32771L23 7.81878L20.8393 6.54199V7.32771Z" fill="#3367D6"/>
<path fill-rule="evenodd" clip-rule="evenodd" d="M20.8393 16.7563V17.4438L23 16.167L20.8393 16.7563Z" fill="#3367D6"/>
<path fill-rule="evenodd" clip-rule="evenodd" d="M12 5.36328L9.05357 6.93471L12 8.50614L14.9464 6.93471L12 5.36328Z" fill="#5C85DE"/>
<path fill-rule="evenodd" clip-rule="evenodd" d="M12.3929 12.1405L15.2411 10.5691V7.52441L12.3929 9.09584V12.1405Z" fill="#3367D6"/>
<path fill-rule="evenodd" clip-rule="evenodd" d="M11.7054 9.09584L8.75893 7.52441V10.5691L11.7054 12.1405V9.09584Z" fill="#3367D6"/>
<path fill-rule="evenodd" clip-rule="evenodd" d="M8.62142 11.1338L5.77321 12.7052L8.62142 14.2766L11.3714 12.7052L8.62142 11.1338Z" fill="#5C85DE"/>
<path fill-rule="evenodd" clip-rule="evenodd" d="M8.81786 17.9096L11.6661 16.3382V13.1953L8.81786 14.7667V17.9096Z" fill="#3367D6"/>
<path fill-rule="evenodd" clip-rule="evenodd" d="M8.32679 14.7667L5.47858 13.1953V16.3382L8.32679 17.9096V14.7667Z" fill="#3367D6"/>
<path fill-rule="evenodd" clip-rule="evenodd" d="M15.4572 11.1338L12.6089 12.7052L15.4572 14.2766L18.3054 12.7052L15.4572 11.1338Z" fill="#5C85DE"/>
<path fill-rule="evenodd" clip-rule="evenodd" d="M15.7518 17.9096L18.6 16.3382V13.1953L15.7518 14.7667V17.9096Z" fill="#3367D6"/>
<path fill-rule="evenodd" clip-rule="evenodd" d="M15.1625 14.7667L12.3143 13.1953V16.3382L15.1625 17.9096V14.7667Z" fill="#3367D6"/>
</svg>
