<svg width="24" height="24" viewBox="0 0 24 24" fill="none" xmlns="http://www.w3.org/2000/svg">
<path fill-rule="evenodd" clip-rule="evenodd" d="M6.137 2.10059L1 5.13659V18.8646L6.137 21.9006V19.2606L3.2 17.5226V6.47859L6.137 4.74059V2.10059Z" fill="#AECBFA"/>
<path fill-rule="evenodd" clip-rule="evenodd" d="M9.063 8.85437L12 10.5814L14.937 8.85437V5.37837L12 3.65137L9.063 5.37837V8.85437Z" fill="#AECBFA"/>
<path fill-rule="evenodd" clip-rule="evenodd" d="M9.063 5.37988V8.85588L12 10.5829L14.937 8.85588V5.37988L12 7.11788L9.063 5.37988Z" fill="#669DF6"/>
<path fill-rule="evenodd" clip-rule="evenodd" d="M12 10.5829L14.937 8.85588V5.37988L12 7.11788V10.5829Z" fill="#4285F4"/>
<path fill-rule="evenodd" clip-rule="evenodd" d="M12.737 15.9933L15.663 17.7203L18.6 15.9933V12.5173L15.663 10.7793L12.737 12.5173V15.9933Z" fill="#AECBFA"/>
<path fill-rule="evenodd" clip-rule="evenodd" d="M12.737 12.5176V15.9936L15.663 17.7206L18.6 15.9936V12.5176L15.663 14.2556L12.737 12.5176Z" fill="#669DF6"/>
<path fill-rule="evenodd" clip-rule="evenodd" d="M15.663 17.7206L18.6 15.9936V12.5176L15.663 14.2556V17.7206Z" fill="#4285F4"/>
<path fill-rule="evenodd" clip-rule="evenodd" d="M5.39999 15.9933L8.33699 17.7203L11.263 15.9933V12.5173L8.33699 10.7793L5.39999 12.5173V15.9933Z" fill="#AECBFA"/>
<path fill-rule="evenodd" clip-rule="evenodd" d="M5.39999 12.5176V15.9936L8.33699 17.7206L11.263 15.9936V12.5176L8.33699 14.2556L5.39999 12.5176Z" fill="#669DF6"/>
<path fill-rule="evenodd" clip-rule="evenodd" d="M8.33699 17.7206L11.263 15.9936V12.5176L8.33699 14.2556V17.7206Z" fill="#4285F4"/>
<path fill-rule="evenodd" clip-rule="evenodd" d="M1 7.78849V16.2255L3.2 17.5235V6.47949L1 7.78849Z" fill="#669DF6"/>
<path fill-rule="evenodd" clip-rule="evenodd" d="M1 7.78849L3.2 7.28249V6.47949L1 7.78849Z" fill="#4285F4"/>
<path fill-rule="evenodd" clip-rule="evenodd" d="M3.2 17.5216V16.8836L1 16.2236L3.2 17.5216Z" fill="#4285F4"/>
<path fill-rule="evenodd" clip-rule="evenodd" d="M17.863 2.10059V4.74059L20.8 6.47859V17.5226L17.863 19.2606V21.9006L23 18.8646V5.13659L17.863 2.10059Z" fill="#AECBFA"/>
<path fill-rule="evenodd" clip-rule="evenodd" d="M20.8 17.5235L23 16.2255V7.78849L20.8 6.47949V17.5235Z" fill="#669DF6"/>
<path fill-rule="evenodd" clip-rule="evenodd" d="M20.8 7.28249L23 7.78849L20.8 6.47949V7.28249Z" fill="#4285F4"/>
<path fill-rule="evenodd" clip-rule="evenodd" d="M20.8 16.8836V17.5216L23 16.2236L20.8 16.8836Z" fill="#4285F4"/>
</svg>
