<!--
  - Copyright (c) 2024. Devtron Inc.
  -
  - Licensed under the Apache License, Version 2.0 (the "License");
  - you may not use this file except in compliance with the License.
  - You may obtain a copy of the License at
  -
  -     http://www.apache.org/licenses/LICENSE-2.0
  -
  - Unless required by applicable law or agreed to in writing, software
  - distributed under the License is distributed on an "AS IS" BASIS,
  - WITHOUT WARRANTIES OR CONDITIONS OF ANY KIND, either express or implied.
  - See the License for the specific language governing permissions and
  - limitations under the License.
  -->

<svg xmlns="http://www.w3.org/2000/svg" width="14" height="14" fill="none" viewBox="0 0 14 14">
  <path stroke="#fff" stroke-linecap="round" stroke-linejoin="round" stroke-width="1.25" d="M11.375 7.234v4.52a.438.438 0 0 1-.438.438H3.064a.438.438 0 0 1-.438-.437V7.234M7 4.609v7.583M7 4.61s1.856 0 2.475-.619a1.313 1.313 0 0 0-1.856-1.856C7 2.753 7 4.609 7 4.609Zm0 0s-1.856 0-2.475-.619a1.313 1.313 0 0 1 1.856-1.856C7 2.753 7 4.609 7 4.609Zm-4.813 0h9.626c.241 0 .437.196.437.437v1.75a.438.438 0 0 1-.438.438H2.188a.438.438 0 0 1-.438-.438v-1.75c0-.241.196-.437.438-.437Z" vector-effect="non-scaling-stroke"/>
</svg>