<svg xmlns="http://www.w3.org/2000/svg" width="24" height="24" fill="none" viewBox="0 0 24 24">
  <path stroke="url(#ic-gift-gradient)" stroke-linecap="round" stroke-linejoin="round" stroke-width="1.5" d="M19.5 12.4v7.75a.75.75 0 0 1-.75.75H5.25a.75.75 0 0 1-.75-.75V12.4M12 7.9v13m0-13s3.182 0 4.243-1.06a2.25 2.25 0 0 0-3.182-3.182C12 4.718 12 7.901 12 7.901Zm0 0s-3.182 0-4.243-1.06a2.25 2.25 0 0 1 3.182-3.182C12 4.718 12 7.901 12 7.901Zm-8.25 0h16.5a.75.75 0 0 1 .75.75v3a.75.75 0 0 1-.75.75H3.75a.75.75 0 0 1-.75-.75v-3a.75.75 0 0 1 .75-.75Z" vector-effect="non-scaling-stroke"/>
  <defs>
  <linearGradient id="ic-gift-gradient" x1="14.5" y1="9.27323" x2="1.82753" y2="7.60329" gradientUnits="userSpaceOnUse">
    <stop stop-color="#DFB74F" />
    <stop offset="1" stop-color="#FFECA8" />
  </linearGradient>
  </defs>
</svg>
