<!--
  - Copyright (c) 2024. Devtron Inc.
  -
  - Licensed under the Apache License, Version 2.0 (the "License");
  - you may not use this file except in compliance with the License.
  - You may obtain a copy of the License at
  -
  -     http://www.apache.org/licenses/LICENSE-2.0
  -
  - Unless required by applicable law or agreed to in writing, software
  - distributed under the License is distributed on an "AS IS" BASIS,
  - WITHOUT WARRANTIES OR CONDITIONS OF ANY KIND, either express or implied.
  - See the License for the specific language governing permissions and
  - limitations under the License.
  -->

<svg width="24" height="24" viewBox="0 0 24 24" fill="none" xmlns="http://www.w3.org/2000/svg">
<path fill-rule="evenodd" clip-rule="evenodd" d="M11.9991 2.49363C6.47773 2.49363 2 6.97077 2 12.494C2 16.9115 4.86504 20.66 8.83876 21.9829C9.33908 22.0744 9.52141 21.7656 9.52141 21.5004C9.52141 21.2628 9.51282 20.6342 9.50791 19.7999C6.72636 20.404 6.13948 18.4592 6.13948 18.4592C5.68458 17.3038 5.02895 16.9962 5.02895 16.9962C4.121 16.3762 5.09771 16.3885 5.09771 16.3885C6.10142 16.4591 6.62936 17.4192 6.62936 17.4192C7.52135 18.9472 8.97014 18.5058 9.53983 18.2498C9.63069 17.604 9.88913 17.1632 10.1746 16.9134C7.95414 16.6604 5.61951 15.8028 5.61951 11.9709C5.61951 10.8788 6.00934 9.98683 6.64901 9.28761C6.54588 9.03468 6.20271 8.01805 6.74723 6.64109C6.74723 6.64109 7.58642 6.37221 9.49685 7.66568C10.2943 7.44406 11.1501 7.33356 12.0003 7.32927C12.8499 7.33356 13.7051 7.44406 14.5038 7.66568C16.413 6.37221 17.2509 6.64109 17.2509 6.64109C17.7967 8.01805 17.4535 9.03468 17.351 9.28761C17.9919 9.98683 18.3786 10.8788 18.3786 11.9709C18.3786 15.8127 16.0403 16.658 13.8131 16.9054C14.1716 17.2142 14.4915 17.8244 14.4915 18.7575C14.4915 20.0939 14.4792 21.1726 14.4792 21.5004C14.4792 21.768 14.6597 22.0793 15.1668 21.9817C19.1374 20.6563 22 16.9109 22 12.494C22 6.97077 17.5223 2.49363 11.9991 2.49363Z" fill="var(--N800)"/>
</svg>
