<svg xmlns="http://www.w3.org/2000/svg" width="50" height="50" viewBox="0 0 50 50" fill="none">
  <path d="M8 27.9964H42V46.9964C42 48.6533 40.6569 49.9964 39 49.9964H11C9.34315 49.9964 8 48.6533 8 46.9964V27.9964Z" fill="#D0DBF7"/>
  <rect x="19" y="27.9964" width="12" height="22" fill="#376CFB"/>
  <rect x="8" y="27.9964" width="11" height="3" fill="#AFC0DD"/>
  <rect x="19" y="27.9964" width="12" height="3" fill="#2946ED"/>
  <rect x="31" y="27.9964" width="11" height="3" fill="#AFC0DD"/>
  <path d="M12.4902 12.8187C13.7156 10.153 16.5645 9.6468 18.7001 10.2005C20.6709 10.7116 22.3905 12.1249 23.6308 13.5697C24.8566 14.9976 25.7761 16.6477 25.9843 17.8216L26.1923 18.9964H16.0361C14.4111 18.9964 13.1325 18.2019 12.4755 16.9593C11.834 15.7458 11.8439 14.2247 12.4902 12.8187ZM18.1982 12.1361C16.6188 11.7266 14.9836 12.1839 14.3076 13.6546C13.8808 14.5833 13.9352 15.4421 14.2431 16.0247C14.5358 16.5783 15.1133 16.9964 16.0361 16.9964H23.5624C23.2373 16.3658 22.7509 15.6152 22.1132 14.8724C21.0066 13.5834 19.6145 12.5034 18.1982 12.1361Z" fill="#376CFB"/>
  <path d="M37.5098 12.8187C36.2844 10.153 33.4355 9.6468 31.2999 10.2005C29.3291 10.7116 27.6095 12.1249 26.3692 13.5697C25.1434 14.9976 24.2239 16.6477 24.0157 17.8216L23.8077 18.9964H33.9639C35.5889 18.9964 36.8675 18.2019 37.5245 16.9593C38.166 15.7458 38.1561 14.2247 37.5098 12.8187ZM31.8018 12.1361C33.3812 11.7266 35.0164 12.1839 35.6924 13.6546C36.1192 14.5833 36.0648 15.4421 35.7569 16.0247C35.4642 16.5783 34.8867 16.9964 33.9639 16.9964H26.4376C26.7627 16.3658 27.2491 15.6152 27.8868 14.8724C28.9934 13.5834 30.3855 12.5034 31.8018 12.1361Z" fill="#376CFB"/>
  <rect x="5" y="16.9964" width="40" height="11" rx="3" fill="#E6ECFF"/>
  <rect x="16" y="16.9964" width="18" height="11" fill="#4294FF"/>
</svg>