<svg xmlns="http://www.w3.org/2000/svg" width="24" height="24" fill="none" viewBox="0 0 24 24">
  <path stroke="#596168" stroke-linecap="round" stroke-linejoin="round" stroke-miterlimit="10" stroke-width="1.5" d="M4.903 8.587a7.41 7.41 0 0 1 .591-1.021l-.038-2.438c0-.225.094-.44.272-.59a9.726 9.726 0 0 1 2.963-1.716.726.726 0 0 1 .637.065l2.091 1.257a8.277 8.277 0 0 1 1.181 0l2.09-1.257a.783.783 0 0 1 .648-.065A9.677 9.677 0 0 1 18.3 4.528c.169.14.272.366.263.59l-.038 2.438c.225.328.422.666.59 1.022l2.129 1.181a.75.75 0 0 1 .375.525 9.707 9.707 0 0 1 0 3.413.748.748 0 0 1-.375.525l-2.128 1.181a7.4 7.4 0 0 1-.59 1.022l.037 2.438c0 .224-.094.44-.272.59a9.723 9.723 0 0 1-2.963 1.716.726.726 0 0 1-.637-.066l-2.09-1.256a8.286 8.286 0 0 1-1.182 0l-2.09 1.256a.783.783 0 0 1-.648.066 9.676 9.676 0 0 1-2.962-1.707.744.744 0 0 1-.263-.59l.038-2.438a7.417 7.417 0 0 1-.59-1.022l-2.129-1.18a.748.748 0 0 1-.375-.526 9.704 9.704 0 0 1 0-3.412.748.748 0 0 1 .375-.525l2.128-1.182Z" vector-effect="non-scaling-stroke"/>
  <path stroke="#596168" stroke-linecap="round" stroke-linejoin="round" stroke-miterlimit="10" stroke-width="1.5" d="M12 15.6a3.6 3.6 0 1 0 0-7.2 3.6 3.6 0 0 0 0 7.2Z" vector-effect="non-scaling-stroke"/>
</svg>
