<svg xmlns="http://www.w3.org/2000/svg" width="24" height="24" fill="none" viewBox="0 0 24 24">
  <path data-style-override="false" fill="#4285F4" d="M21.575 12.225c0-.659-.058-1.284-.158-1.892H12v3.758h5.392c-.242 1.234-.95 2.275-2 2.984v2.5h3.216c1.884-1.742 2.967-4.309 2.967-7.35Z"/>
  <path data-style-override="false" fill="#34A853" d="M12 22c2.7 0 4.958-.9 6.608-2.425l-3.216-2.5c-.9.6-2.042.966-3.392.966-2.608 0-4.817-1.758-5.608-4.133H3.075v2.575C4.717 19.75 8.092 22 12 22Z"/>
  <path data-style-override="false" fill="#FBBC05" d="M6.392 13.908A5.803 5.803 0 0 1 6.075 12c0-.667.117-1.308.317-1.908V7.517H3.075a9.884 9.884 0 0 0 0 8.966l3.317-2.575Z"/>
  <path data-style-override="false" fill="#EA4335" d="M12 5.958c1.475 0 2.792.509 3.833 1.5l2.85-2.85C16.958 2.992 14.7 2 12 2 8.092 2 4.717 4.25 3.075 7.517l3.317 2.575c.791-2.375 3-4.134 5.608-4.134Z"/>
</svg>
