<!--
  - Copyright (c) 2024. Devtron Inc.
  -
  - Licensed under the Apache License, Version 2.0 (the "License");
  - you may not use this file except in compliance with the License.
  - You may obtain a copy of the License at
  -
  -     http://www.apache.org/licenses/LICENSE-2.0
  -
  - Unless required by applicable law or agreed to in writing, software
  - distributed under the License is distributed on an "AS IS" BASIS,
  - WITHOUT WARRANTIES OR CONDITIONS OF ANY KIND, either express or implied.
  - See the License for the specific language governing permissions and
  - limitations under the License.
  -->

<svg xmlns="http://www.w3.org/2000/svg" width="24" height="24" fill="none" viewBox="0 0 24 24">
  <path fill="#4285F4" fill-rule="evenodd" d="m14.68 13.06 4.55 2.63v.99l-4.94-2.85.39-.77Z" clip-rule="evenodd"/>
  <path fill="#4285F4" fill-rule="evenodd" d="M12.48 12.3v4.59l3.86-2.29v-4.59l-3.86 2.29Z" clip-rule="evenodd"/>
  <path fill="#669DF6" fill-rule="evenodd" d="m9.98 13.65-5.21 3.01-.32-.8 5.08-2.94.45.73Z" clip-rule="evenodd"/>
  <path fill="#669DF6" fill-rule="evenodd" d="m11.52 12.3-3.86-2.29v4.59l3.86 2.29V12.3Z" clip-rule="evenodd"/>
  <path fill="#AECBFA" d="M12.41 3.29h-.86v5.78h.86V3.29Z"/>
  <path fill="#AECBFA" fill-rule="evenodd" d="M3.25 7v10L12 22l8.74-5V7L12 2 3.25 7Zm15.63 8.89L12 19.78l-6.88-3.89V8.11L12 4.22l6.87 3.89v7.78h.01Z" clip-rule="evenodd"/>
  <path fill="#AECBFA" fill-rule="evenodd" d="m11.98 11.5 3.98-2.29-3.98-2.3-3.97 2.3 3.97 2.29Z" clip-rule="evenodd"/>
</svg>
