<svg width="24" height="24" viewBox="0 0 24 24" fill="none" xmlns="http://www.w3.org/2000/svg">
<path d="M12 14.0429V13.1C12.6527 13.1 13.2907 12.9065 13.8334 12.5439C14.3761 12.1812 14.799 11.6659 15.0488 11.0629C15.2986 10.4599 15.3639 9.79634 15.2366 9.1562C15.1093 8.51607 14.795 7.92806 14.3335 7.46655C13.8719 7.00504 13.2839 6.69074 12.6438 6.56341C12.0037 6.43608 11.3401 6.50143 10.7371 6.7512C10.1341 7.00097 9.61876 7.42394 9.25615 7.96662C8.89354 8.5093 8.7 9.14732 8.7 9.8M12.0001 17V17.5M22 12C22 17.5228 17.5228 22 12 22C6.47715 22 2 17.5228 2 12C2 6.47715 6.47715 2 12 2C17.5228 2 22 6.47715 22 12Z" stroke="#3B444C" stroke-width="1.5" stroke-linecap="round" stroke-linejoin="round"/>
</svg>
