<svg xmlns="http://www.w3.org/2000/svg" width="24" height="24" fill="none" viewBox="0 0 24 24">
  <path stroke="#596168" stroke-linecap="round" stroke-linejoin="round" stroke-miterlimit="10" stroke-width="1.5" d="M16.953 7.046a7.005 7.005 0 0 1 0 9.908m0-9.908a7.005 7.005 0 0 0-9.907 0m9.907 0 2.684-2.683m-2.684 12.59a7.005 7.005 0 0 1-9.907 0m9.907 0 2.684 2.684m-12.59-2.683a7.005 7.005 0 0 1 0-9.908m0 9.908-2.684 2.683m2.683-12.59L4.363 4.362M12 1.2v3.795m0 14.01V22.8M1.2 12h3.795m14.01 0H22.8m-7.297 0a3.503 3.503 0 1 1-7.006 0 3.503 3.503 0 0 1 7.006 0Z" vector-effect="non-scaling-stroke"/>
</svg>
