<!--
  - Copyright (c) 2024. Devtron Inc.
  -
  - Licensed under the Apache License, Version 2.0 (the "License");
  - you may not use this file except in compliance with the License.
  - You may obtain a copy of the License at
  -
  -     http://www.apache.org/licenses/LICENSE-2.0
  -
  - Unless required by applicable law or agreed to in writing, software
  - distributed under the License is distributed on an "AS IS" BASIS,
  - WITHOUT WARRANTIES OR CONDITIONS OF ANY KIND, either express or implied.
  - See the License for the specific language governing permissions and
  - limitations under the License.
  -->
<svg width="24" height="24" viewBox="0 0 24 24" fill="none" xmlns="http://www.w3.org/2000/svg">
<path d="M21.9985 8.48926C22.0691 5.63801 19.6915 3.22174 16.697 3.19074C14.6921 3.16997 12.9383 4.19782 12 5.73339C11.0615 4.19782 9.30787 3.1698 7.30299 3.19074C4.30846 3.22174 1.9309 5.63801 2.00153 8.48926C2.15962 14.8606 10.1609 20.4023 11.7334 21.4309C11.8941 21.5361 12.1059 21.5361 12.2666 21.4309C13.8391 20.4023 21.8404 14.8606 21.9985 8.48926Z" fill="var(--R500)"/>
<path d="M12.0887 17.7237C11.8143 17.7237 11.5785 17.5378 11.5275 17.2806L10.1331 10.2264L8.64945 13.5845C8.56304 13.7801 8.36524 13.9098 8.14263 13.917C7.91968 13.9243 7.71327 13.8074 7.61319 13.6179L7.21657 12.8671H1.66178C1.34651 12.8671 1.09082 12.6236 1.09082 12.3233C1.09082 12.0229 1.34651 11.7796 1.66178 11.7796H7.56846C7.78314 11.7796 7.97959 11.8942 8.07697 12.0761L9.81684 8.1386C9.91456 7.91727 10.1532 7.78321 10.4035 7.80877C10.6541 7.83417 10.8575 8.0129 10.9042 8.24886L12.0539 14.0657L12.5297 11.344C12.5754 11.0817 12.8136 10.8894 13.0927 10.8894H14.9561C15.1492 10.8894 15.3293 10.9823 15.4346 11.1363L16.3095 12.4153L16.6869 11.9781C16.7954 11.8524 16.9573 11.7796 17.1281 11.7796H22.6412C22.9564 11.7796 23.2119 12.0231 23.2119 12.3233C23.2119 12.6236 22.9564 12.8671 22.6412 12.8671H17.3979L16.6975 13.6787C16.5821 13.8124 16.4064 13.8859 16.225 13.8764C16.0432 13.8669 15.8773 13.7754 15.778 13.6303L14.6469 11.977H13.5766L12.6519 17.2692C12.6065 17.5292 12.3715 17.7208 12.0948 17.7236C12.0927 17.7236 12.0905 17.7237 12.0887 17.7237Z" fill="var(--N0)"/>
</svg>
