<svg xmlns="http://www.w3.org/2000/svg" width="24" height="24" viewBox="0 0 24 24" fill="none">
<rect width="24" height="24" rx="6" fill="#F3F0FF"/>
<path fill-rule="evenodd" clip-rule="evenodd" d="M12 4.5C12.345 4.5 12.625 4.78 12.625 5.125V6.41C13.71 6.529 14.703 6.958 15.513 7.607L15.536 7.581L16.419 6.697C16.5362 6.57977 16.6952 6.51392 16.861 6.51392C17.0268 6.51392 17.1858 6.57977 17.303 6.697C17.4202 6.81423 17.4861 6.97322 17.4861 7.139C17.4861 7.30478 17.4202 7.46377 17.303 7.581L16.419 8.464C16.4112 8.47221 16.4032 8.48022 16.395 8.488C17.0599 9.31791 17.4747 10.32 17.591 11.377L17.625 11.375H18.875C19.0408 11.375 19.1997 11.4408 19.3169 11.5581C19.4342 11.6753 19.5 11.8342 19.5 12C19.5 12.1658 19.4342 12.3247 19.3169 12.4419C19.1997 12.5592 19.0408 12.625 18.875 12.625H17.625L17.59 12.624C17.4743 13.6816 17.059 14.6843 16.393 15.514L16.419 15.536L17.303 16.419C17.4202 16.5362 17.4861 16.6952 17.4861 16.861C17.4861 17.0268 17.4202 17.1858 17.303 17.303C17.1858 17.4202 17.0268 17.4861 16.861 17.4861C16.6952 17.4861 16.5362 17.4202 16.419 17.303L15.536 16.419C15.5278 16.4112 15.5198 16.4032 15.512 16.395C14.6821 17.0599 13.68 17.4747 12.623 17.591L12.625 17.625V18.875C12.625 19.0408 12.5592 19.1997 12.4419 19.3169C12.3247 19.4342 12.1658 19.5 12 19.5C11.8342 19.5 11.6753 19.4342 11.5581 19.3169C11.4408 19.1997 11.375 19.0408 11.375 18.875V17.625L11.376 17.59C10.3184 17.4743 9.31573 17.059 8.486 16.393L8.464 16.419L7.581 17.303C7.46377 17.4202 7.30478 17.4861 7.139 17.4861C6.97322 17.4861 6.81423 17.4202 6.697 17.303C6.57977 17.1858 6.51392 17.0268 6.51392 16.861C6.51392 16.6952 6.57977 16.5362 6.697 16.419L7.581 15.536C7.58878 15.5278 7.59679 15.5198 7.605 15.512C6.94012 14.6821 6.52528 13.68 6.409 12.623L6.375 12.625H5.125C4.95924 12.625 4.80027 12.5592 4.68306 12.4419C4.56585 12.3247 4.5 12.1658 4.5 12C4.5 11.8342 4.56585 11.6753 4.68306 11.5581C4.80027 11.4408 4.95924 11.375 5.125 11.375H6.41C6.52643 10.3181 6.94165 9.31635 7.607 8.487L7.581 8.464L6.697 7.581C6.57977 7.46377 6.51392 7.30478 6.51392 7.139C6.51392 6.97322 6.57977 6.81423 6.697 6.697C6.81423 6.57977 6.97322 6.51392 7.139 6.51392C7.30478 6.51392 7.46377 6.57977 7.581 6.697L8.464 7.581C8.47221 7.58878 8.48022 7.59679 8.488 7.605C9.31791 6.94012 10.32 6.52528 11.377 6.409L11.375 6.375V5.125C11.375 4.78 11.655 4.5 12 4.5ZM12 7.625C10.8397 7.625 9.72688 8.08594 8.90641 8.90641C8.08594 9.72688 7.625 10.8397 7.625 12C7.625 13.1603 8.08594 14.2731 8.90641 15.0936C9.72688 15.9141 10.8397 16.375 12 16.375C13.1603 16.375 14.2731 15.9141 15.0936 15.0936C15.9141 14.2731 16.375 13.1603 16.375 12C16.375 10.8397 15.9141 9.72688 15.0936 8.90641C14.2731 8.08594 13.1603 7.625 12 7.625ZM12 8.875C12.8288 8.875 13.6237 9.20424 14.2097 9.79029C14.7958 10.3763 15.125 11.1712 15.125 12C15.125 12.8288 14.7958 13.6237 14.2097 14.2097C13.6237 14.7958 12.8288 15.125 12 15.125C11.1712 15.125 10.3763 14.7958 9.79029 14.2097C9.20424 13.6237 8.875 12.8288 8.875 12C8.875 11.1712 9.20424 10.3763 9.79029 9.79029C10.3763 9.20424 11.1712 8.875 12 8.875ZM12 10.125C11.7538 10.125 11.51 10.1735 11.2825 10.2677C11.055 10.362 10.8483 10.5001 10.6742 10.6742C10.5001 10.8483 10.362 11.055 10.2677 11.2825C10.1735 11.51 10.125 11.7538 10.125 12C10.125 12.2462 10.1735 12.49 10.2677 12.7175C10.362 12.945 10.5001 13.1517 10.6742 13.3258C10.8483 13.4999 11.055 13.638 11.2825 13.7323C11.51 13.8265 11.7538 13.875 12 13.875C12.4973 13.875 12.9742 13.6775 13.3258 13.3258C13.6775 12.9742 13.875 12.4973 13.875 12C13.875 11.5027 13.6775 11.0258 13.3258 10.6742C12.9742 10.3225 12.4973 10.125 12 10.125Z" fill="#664BEE"/>
</svg>