<svg xmlns="http://www.w3.org/2000/svg" width="24" height="24" fill="none" viewBox="0 0 24 24">
  <path stroke="#3B444C" stroke-linecap="round" stroke-linejoin="round" stroke-width="1.5" d="M7.988 12.375c0-1.483.42-2.933 1.21-4.167a7.256 7.256 0 0 1 3.22-2.762 6.892 6.892 0 0 1 4.148-.427c.91.19 1.771.56 2.539 1.086M8.519 9.538a4.815 4.815 0 0 0-2.113-.084 4.907 4.907 0 0 0-1.958.83 5.16 5.16 0 0 0-1.458 1.6 5.406 5.406 0 0 0-.7 2.083 5.475 5.475 0 0 0 .182 2.2c.21.712.561 1.37 1.032 1.928a5.045 5.045 0 0 0 1.7 1.313 4.843 4.843 0 0 0 2.066.467h1.648m4.7-5h7.34m-7.34 0c-.437 0-.792-.373-.792-.833v-3.334c0-.46.355-.833.792-.833h7.34c.437 0 .792.373.792.833v3.334c0 .46-.355.833-.792.833m-7.34 0c-.437 0-.792.373-.792.833v3.334c0 .46.355.833.792.833h7.34c.437 0 .792-.373.792-.833v-3.334c0-.46-.355-.833-.792-.833m-4.375-2.468h-.345m.345 5h-.345" vector-effect="non-scaling-stroke"/>
</svg>
