<!--
  - Copyright (c) 2024. Devtron Inc.
  -
  - Licensed under the Apache License, Version 2.0 (the "License");
  - you may not use this file except in compliance with the License.
  - You may obtain a copy of the License at
  -
  -     http://www.apache.org/licenses/LICENSE-2.0
  -
  - Unless required by applicable law or agreed to in writing, software
  - distributed under the License is distributed on an "AS IS" BASIS,
  - WITHOUT WARRANTIES OR CONDITIONS OF ANY KIND, either express or implied.
  - See the License for the specific language governing permissions and
  - limitations under the License.
  -->

<svg width="24" height="24" viewBox="0 0 24 24" fill="none" xmlns="http://www.w3.org/2000/svg">
    <circle data-style-override="false" cx="12" cy="12" r="10" fill="var(--B500)" />
    <path
        data-style-override="false"
        d="M11.9924 8.07053C11.7103 8.07053 11.4685 7.96977 11.267 7.76826C11.0655 7.56675 10.9647 7.3199 10.9647 7.02771C10.9647 6.73552 11.0655 6.4937 11.267 6.30227C11.4685 6.10076 11.7103 6 11.9924 6C12.2846 6 12.5315 6.10076 12.733 6.30227C12.9345 6.4937 13.0353 6.73552 13.0353 7.02771C13.0353 7.3199 12.9345 7.56675 12.733 7.76826C12.5315 7.96977 12.2846 8.07053 11.9924 8.07053ZM12.869 15.34H14.2368C14.6583 15.34 15 15.6818 15 16.1033C15 16.5248 14.6583 16.8665 14.2368 16.8665H9.76322C9.34171 16.8665 9 16.5248 9 16.1033C9 15.6818 9.34171 15.34 9.76322 15.34H11.131V10.67H9.76322C9.34171 10.67 9 10.3283 9 9.9068C9 9.48528 9.34171 9.14358 9.76322 9.14358H11.869C12.4213 9.14358 12.869 9.59129 12.869 10.1436V15.34Z"
        fill="var(--N0)"
    />
</svg>
