<svg width="24" height="24" viewBox="0 0 24 24" fill="none" xmlns="http://www.w3.org/2000/svg">
<path fill-rule="evenodd" clip-rule="evenodd" d="M12 3C7.02944 3 3 7.02944 3 12C3 16.9706 7.02944 21 12 21C16.9706 21 21 16.9706 21 12C21 7.02944 16.9706 3 12 3ZM1 12C1 5.92487 5.92487 1 12 1C18.0751 1 23 5.92487 23 12C23 18.0751 18.0751 23 12 23C5.92487 23 1 18.0751 1 12Z" fill="var(--O500)"/>
<path d="M8.47982 16.8588C9.24659 17.4144 10.134 17.7805 11.0694 17.9274C12.0048 18.0743 12.9616 17.9976 13.8618 17.7038C14.7619 17.41 15.5797 16.9074 16.2483 16.2369C16.917 15.5665 17.4174 14.7473 17.7088 13.8464C18.0002 12.9455 18.0742 11.9884 17.9249 11.0534C17.7755 10.1184 17.4069 9.23204 16.8494 8.46677C16.2918 7.70149 15.561 7.07904 14.7168 6.6503C13.8725 6.22157 12.9388 5.99873 11.9919 6.00001L12 12L8.47982 16.8588Z" fill="var(--O200)"/>
</svg>
