<svg xmlns="http://www.w3.org/2000/svg" width="24" height="24" fill="none" viewBox="0 0 24 24">
  <path fill="#326DE6" d="M7 21.384c.306.397.77.616 1.249.616h7.501c.479 0 .943-.236 1.25-.62l4.654-5.969c.306-.397.412-.904.306-1.397l-1.664-7.438a1.61 1.61 0 0 0-.866-1.11l-6.734-3.3A1.517 1.517 0 0 0 12.003 2c-.24 0-.479.054-.693.164L4.574 5.48a1.613 1.613 0 0 0-.864 1.11l-1.664 7.44c-.12.492 0 1 .306 1.397L7 21.383v.001Z"/>
  <path fill="#fff" fill-rule="evenodd" d="M18.773 13.611c.14.003.28.014.418.034l.083.019.044.011a.44.44 0 0 1 .296.695.436.436 0 0 1-.49.154h-.005l-.005-.001-.004-.003-.043-.009-.071-.014a3.656 3.656 0 0 1-.392-.152 4.103 4.103 0 0 0-.761-.224.346.346 0 0 0-.244.091 6.593 6.593 0 0 0-.188-.032 5.673 5.673 0 0 1-2.52 3.16c.022.06.046.118.073.175a.342.342 0 0 0-.033.258c.106.242.236.474.388.69.085.112.162.23.234.35l.04.08.017.037a.438.438 0 0 1-.694.526.44.44 0 0 1-.096-.155l-.014-.028a2.176 2.176 0 0 1-.04-.083 3.637 3.637 0 0 1-.127-.4 4.05 4.05 0 0 0-.3-.732.346.346 0 0 0-.223-.136l-.043-.075-.05-.092a5.667 5.667 0 0 1-4.033-.01l-.1.179a.357.357 0 0 0-.189.091 3.037 3.037 0 0 0-.338.783c-.034.136-.076.27-.126.4a1.685 1.685 0 0 1-.036.072l-.018.038a.443.443 0 0 1-.246.26.437.437 0 0 1-.551-.196.44.44 0 0 1 .007-.435l.02-.043.037-.074c.071-.122.149-.238.234-.349a4.24 4.24 0 0 0 .396-.709.431.431 0 0 0-.04-.247l.08-.19a5.674 5.674 0 0 1-2.52-3.137l-.191.033a.486.486 0 0 0-.252-.088 4.12 4.12 0 0 0-.761.222 3.912 3.912 0 0 1-.392.15 1.345 1.345 0 0 1-.071.016l-.043.01h-.004l-.003.003h-.007a.44.44 0 0 1-.567-.499.437.437 0 0 1 .372-.35l.008-.001h.002l.009-.003c.034-.008.077-.02.109-.026a3.73 3.73 0 0 1 .418-.032c.266-.02.529-.062.784-.13a.603.603 0 0 0 .188-.19l.182-.052a5.626 5.626 0 0 1 .893-3.931l-.14-.125a.483.483 0 0 0-.088-.251 4.077 4.077 0 0 0-.65-.456 3.654 3.654 0 0 1-.363-.211l-.069-.055-.021-.018-.006-.004a.461.461 0 0 1-.108-.643.421.421 0 0 1 .348-.153.521.521 0 0 1 .304.114l.032.024.066.053c.102.096.198.199.288.305.179.195.376.374.589.531.08.043.173.051.26.026l.157.111a5.626 5.626 0 0 1 3.645-1.748l.012-.185a.474.474 0 0 0 .141-.225 4.065 4.065 0 0 0-.048-.79 3.661 3.661 0 0 1-.06-.415v-.124a.437.437 0 0 1 .615-.444.44.44 0 0 1 .26.444v.124c-.012.14-.032.278-.06.415a4.073 4.073 0 0 0-.05.79.346.346 0 0 0 .143.218v.01l.01.184A5.739 5.739 0 0 1 16.11 8.57l.166-.118a.48.48 0 0 0 .265-.028c.213-.157.41-.337.589-.533a3.42 3.42 0 0 1 .289-.304l.072-.057.025-.02a.438.438 0 1 1 .544.681l-.034.029c-.022.017-.043.035-.062.048a3.62 3.62 0 0 1-.363.212 4.096 4.096 0 0 0-.65.457.345.345 0 0 0-.082.245l-.072.063-.083.076a5.644 5.644 0 0 1 .91 3.921l.176.052c.044.079.11.144.19.188a4 4 0 0 0 .783.129Zm-7.786-5.554c.153-.035.309-.062.466-.08l-.129 2.285-.011.006a.384.384 0 0 1-.612.294l-.003.002-1.88-1.329a4.522 4.522 0 0 1 2.17-1.178Zm2.312 2.5 1.868-1.32a4.546 4.546 0 0 0-2.618-1.26l.128 2.283h.003a.381.381 0 0 0 .42.365.386.386 0 0 0 .193-.071l.006.003Zm3.211 2.365-2.212-.637-.002-.008a.386.386 0 0 1-.15-.662l-.003-.001 1.707-1.524c.523.848.753 1.842.657 2.832h.003Zm-2.944 1.22.882 2.129a4.497 4.497 0 0 0 1.822-2.283l-2.276-.384-.003.004a.386.386 0 0 0-.423.53l-.002.005Zm-.55 2.722a4.557 4.557 0 0 1-2.467-.126l1.11-2a.391.391 0 0 1 .537-.149.39.39 0 0 1 .143.148h.008l1.113 2.003a4.69 4.69 0 0 1-.444.124ZM9.56 16.26l.873-2.106-.005-.008a.383.383 0 0 0-.425-.529L10 13.614l-2.256.381c.34.935.979 1.732 1.817 2.266Zm-1.423-6.17 1.716 1.53-.002.01a.384.384 0 0 1-.151.66l-.001.007-2.2.633a4.474 4.474 0 0 1 .638-2.84Zm4.214 1.648h-.703l-.438.543.157.68.633.304.631-.303.158-.68-.438-.544Z" clip-rule="evenodd"/>
</svg>
