<svg xmlns="http://www.w3.org/2000/svg" width="24" height="24" fill="none" viewBox="0 0 24 24">
  <path fill="#FFC61C" d="M20.671 3H3.33A2.337 2.337 0 0 0 1 5.326v13.348A2.332 2.332 0 0 0 3.329 21H20.67A2.336 2.336 0 0 0 23 18.674V5.326A2.332 2.332 0 0 0 20.671 3ZM10.296 16.09l-4.232 2.457A1.134 1.134 0 0 1 4.4 17.279c.077-.29.266-.538.526-.689l4.232-2.457a1.133 1.133 0 0 1 1.47 1.664 1.12 1.12 0 0 1-.332.292Zm1.665-3.745h-.005a1.134 1.134 0 0 1-1.127-1.136l.02-4.871a1.13 1.13 0 0 1 1.133-1.127h.005a1.133 1.133 0 0 1 1.128 1.137l-.021 4.87a1.131 1.131 0 0 1-1.133 1.127Zm7.489 5.789a1.131 1.131 0 0 1-1.547.414l-4.239-2.445a1.133 1.133 0 0 1-.124-1.878 1.132 1.132 0 0 1 1.257-.082l4.238 2.445a1.132 1.132 0 0 1 .415 1.546Z"/>
</svg>
