<!--
  - Copyright (c) 2024. Devtron Inc.
  -
  - Licensed under the Apache License, Version 2.0 (the "License");
  - you may not use this file except in compliance with the License.
  - You may obtain a copy of the License at
  -
  -     http://www.apache.org/licenses/LICENSE-2.0
  -
  - Unless required by applicable law or agreed to in writing, software
  - distributed under the License is distributed on an "AS IS" BASIS,
  - WITHOUT WARRANTIES OR CONDITIONS OF ANY KIND, either express or implied.
  - See the License for the specific language governing permissions and
  - limitations under the License.
  -->

<svg width="179" height="48" viewBox="0 0 179 48" fill="none" xmlns="http://www.w3.org/2000/svg">
<g style="mix-blend-mode:luminosity">
<path fill-rule="evenodd" clip-rule="evenodd" d="M4.08932 16.3917C4.41807 14.9127 4.81028 13.4467 5.30225 12.4901C5.36449 12.3745 5.42673 12.25 5.48008 12.1255C6.14693 10.7029 6.91159 9.98274 9.42784 9.80491C10.0058 9.76045 10.5481 9.74267 11.0816 9.74267L11.0727 9.75156C11.7763 9.75156 12.4081 9.7867 13.002 9.84331C13.1655 9.76615 13.3253 9.69134 13.4823 9.61822C14.5048 9.14698 17.7412 8 19.1194 8C19.235 8 19.3328 8 19.4395 8.02667H19.5106C20.5153 8.14226 21.0399 8.52459 21.938 9.76938C22.0427 9.91408 22.1665 10.1073 22.3062 10.3414C23.088 10.4008 23.7046 10.4967 24.1875 10.6319L24.2569 10.6505C24.3648 10.6796 24.4687 10.7077 24.5787 10.7297C26.0814 11.0853 26.9349 11.6811 27.6818 14.1173C28.0948 15.4796 28.3253 16.6037 28.4708 17.6317C28.9023 18.2636 29.2705 18.8306 29.6112 19.3631C30.1002 20.1367 32.0296 23.6665 32.0119 25.0625V25.1514C32.0119 26.1205 31.7273 26.6718 30.6959 27.7121C30.6041 27.804 30.4886 27.9099 30.3521 28.0284C30.7098 29.2559 31.3148 31.5004 28.6065 33.1447C27.2028 33.997 25.5617 34.7306 24.1644 35.2843C23.8578 35.6223 23.5681 35.9335 23.2895 36.2301C22.4982 37.0747 19.4573 39.591 18.4793 39.8755H18.4348L18.4296 39.8769C18.2347 39.9301 17.9784 40 17.6524 40C16.9677 40 16.3542 39.6799 15.5274 39.1375C15.3292 39.0079 15.0674 38.8089 14.7555 38.5549L14.7449 38.5595C14.6026 38.6218 14.4426 38.6929 14.2825 38.7729C13.6246 39.0841 12.8777 39.4309 11.9885 39.4309C10.886 39.4309 9.89019 38.8885 9.02773 37.8126C8.3563 36.977 7.71932 36.0336 7.15243 35.1138C5.62868 34.5274 4.08122 33.8679 3.13276 33.1714C3.05155 33.1105 2.97035 33.0547 2.88522 32.9963L2.80378 32.9402C1.48786 32.0511 0.901035 31.1708 1.09664 28.6012C1.18212 27.4356 1.33043 26.4652 1.51558 25.5966C1.42492 25.4735 1.32749 25.3436 1.23006 25.2137L1.20635 25.1818C0.403455 24.1029 -0.912121 22.335 0.945542 19.8522C1.88005 18.6133 3.04869 17.3905 4.08932 16.3917ZM19.1194 9.40483H19.2439C19.2703 9.40808 19.296 9.41107 19.3209 9.41397C19.7244 9.46097 19.9408 9.48616 20.5464 10.2709C20.3587 10.2685 20.1647 10.2673 19.9641 10.2673V10.2762H18.8616C18.2139 10.283 17.4158 10.3199 16.5953 10.3698C16.3345 10.3254 16.0657 10.2805 15.7892 10.2351C17.0491 9.80555 18.4962 9.40483 19.1194 9.40483ZM3.58155 18.8316C3.03731 19.4166 2.50047 20.0406 2.03029 20.6702C0.970357 22.0813 1.34188 23.0215 1.94842 23.8944C2.07076 23.4727 2.1987 23.0618 2.32798 22.6466L2.35922 22.5462L2.43035 22.3062C2.85412 20.9552 3.23805 19.796 3.58155 18.8316ZM2.68997 26.9931C2.86516 27.186 3.05275 27.3894 3.24959 27.6002C3.27881 27.6717 3.30804 27.7458 3.33726 27.8277C3.62431 28.5706 4.15986 29.5941 4.64706 30.5252L4.75693 30.7352C4.9406 31.0858 5.11457 31.4178 5.2489 31.6865C5.45061 32.0874 5.71024 32.5898 6.01602 33.1504C5.21754 32.8004 4.45698 32.4189 3.95966 32.0511C3.82892 31.9548 3.70425 31.8701 3.58667 31.7903C2.79266 31.2512 2.32221 30.9318 2.49259 28.7168C2.54168 28.0872 2.6087 27.5185 2.68997 26.9931ZM6.30248 30.7491C7.49514 31.9464 8.51282 32.9368 8.80549 33.1981C8.94489 33.3228 9.20538 33.5626 9.54199 33.8724L9.76576 34.0784C10.0461 34.3379 10.3269 34.5975 10.6056 34.8547C9.79859 34.5943 9.08558 34.3521 8.5387 34.1494C8.39047 34.0945 8.22895 34.0345 8.05757 33.9701C7.3222 32.7418 6.75271 31.6345 6.46702 31.073C6.4161 30.9712 6.36093 30.8627 6.30248 30.7491ZM13.649 35.7922C12.6306 34.8773 11.5445 33.8729 10.7513 33.1393C10.271 32.6951 9.89805 32.3502 9.71241 32.1845C9.13714 31.6655 6.33675 28.895 4.40382 26.8419C4.13141 26.1831 3.98777 25.6827 4.2264 23.8532C4.44227 22.2469 4.67628 20.6315 4.89281 19.3534C5.29802 18.2102 5.71385 17.1502 6.04023 16.5801L6.06076 16.5443C6.11359 16.452 6.16562 16.3611 6.21694 16.2727C6.43691 16.0771 6.62477 15.9137 6.76937 15.7889C7.00374 15.5862 7.27966 15.34 7.5745 15.077C8.35348 14.3819 9.2646 13.5689 9.89024 13.1304C10.0071 13.0485 10.1108 12.9714 10.2084 12.899C10.3008 12.8305 10.3876 12.7661 10.4747 12.7055C10.697 12.5836 10.9112 12.4679 11.118 12.3579C11.5311 12.199 12.1087 12.081 13.1089 11.9923C14.3233 11.8894 15.5431 11.7974 16.6183 11.7325C18.4374 12.0452 20.8002 12.5004 21.8046 12.908L21.8609 12.9308C21.968 12.9743 22.0724 13.0166 22.1747 13.059C22.8904 14.4398 23.6898 16.0642 24.242 17.1862C24.5198 17.7505 24.735 18.1878 24.8454 18.4029C25.1716 19.038 26.562 22.1109 27.616 24.6356C27.6436 25.6476 27.6356 26.5614 27.5573 27.1164L27.5507 27.1634C27.4732 27.7137 27.4052 28.1968 27.2412 28.713C26.0762 29.5724 24.7661 30.5039 23.8386 31.1632L23.8378 31.1638C23.3315 31.5238 22.9389 31.8029 22.7471 31.9444C22.082 32.4347 18.377 34.8841 15.98 36.3209C15.5532 36.2942 14.9946 36.1861 14.1403 35.9366C13.9764 35.8887 13.8126 35.8406 13.649 35.7922ZM16.0722 37.8573C16.1473 37.9128 16.2149 37.9605 16.2742 37.9994C17.0389 38.4974 17.3768 38.6396 17.6524 38.6396C17.7787 38.6396 17.8926 38.6086 18.0252 38.5724C18.0513 38.5653 18.0781 38.558 18.1058 38.5507C18.4588 38.4516 19.9071 37.3823 21.0632 36.4148L20.9599 36.4523L20.7016 36.5437C19.7397 36.8844 18.7048 37.251 17.9546 37.4304C17.8756 37.4473 17.8001 37.4678 17.7282 37.4874C17.6871 37.4986 17.6466 37.5096 17.6079 37.5193C17.2254 37.6213 16.8266 37.7233 16.2874 37.732C16.2142 37.7749 16.1424 37.8167 16.0722 37.8573ZM26.2947 32.7895C26.8309 32.523 27.3614 32.2371 27.8596 31.9355C29.3694 31.0168 29.3844 30.0191 29.1423 28.9996C28.9073 29.1795 28.6548 29.3698 28.3883 29.5682C28.1052 30.2777 27.6447 31.0795 26.846 32.0956C26.6562 32.3377 26.4726 32.5687 26.2947 32.7895ZM25.3875 31.7434C24.6497 32.6671 24.0171 33.4072 23.4544 34.037C22.644 34.355 21.9644 34.5944 21.5556 34.7363C21.2582 34.8387 20.9061 34.9658 20.53 35.1015L20.4506 35.1301C21.9511 34.1557 23.2264 33.2976 23.5562 33.0558C23.734 32.9224 24.1163 32.6468 24.6054 32.3C24.8667 32.1144 25.128 31.9285 25.3875 31.7434ZM28.9628 24.1822C29.3365 25.0797 29.6696 25.9146 29.9032 26.5633C30.6581 25.7791 30.6559 25.5498 30.6521 25.1319C30.6518 25.101 30.6515 25.0691 30.6515 25.0358C30.6593 24.3061 29.5178 21.9007 28.7483 20.5572C28.8554 21.9598 28.9269 23.1696 28.9628 24.1822ZM26.5005 14.9175C26.4634 14.7894 26.4245 14.6591 26.3837 14.5263C25.7334 12.4052 25.191 12.2791 24.2694 12.0649C24.1324 12.033 23.9871 11.9992 23.8319 11.9567C23.6221 11.8984 23.3819 11.8508 23.1209 11.8119C23.164 11.8933 23.2076 11.9764 23.2518 12.0608C24.2038 12.5091 25.1565 13.1702 26.4459 14.8463L26.5005 14.9175ZM27.1685 18.1241C27.2601 18.8482 27.3116 19.5339 27.3649 20.2434L27.3875 20.5421C26.7806 19.1826 26.2724 18.0877 26.108 17.7716C26.0391 17.6395 25.9293 17.4146 25.7884 17.1257L25.786 17.121C25.7094 16.9639 25.6235 16.788 25.5301 16.5979C25.2261 15.9807 24.9213 15.363 24.6233 14.7636C24.856 15.0184 25.1029 15.3152 25.37 15.6643C26.0966 16.6084 26.6784 17.4141 27.1685 18.1241ZM13.0262 37.0615C11.9393 36.7367 10.52 36.3042 9.3018 35.8949C9.55803 36.2585 9.82331 36.6139 10.0947 36.9502C10.7615 37.786 11.3928 38.0616 11.9885 38.0616C12.5364 38.0616 13.0703 37.8233 13.6037 37.5736C13.4183 37.4108 13.2253 37.2396 13.0262 37.0615ZM8.57427 12.1523C7.43624 12.8049 6.69985 13.3848 6.16591 13.9437C6.27603 13.6342 6.39148 13.3543 6.51147 13.1214C6.58686 12.9753 6.6515 12.837 6.71244 12.7066C7.11875 11.8376 7.3608 11.3199 9.52564 11.1653C9.85134 11.1394 10.162 11.1226 10.4594 11.113C9.88726 11.4161 9.2638 11.7582 8.57427 12.1523Z" fill="#fff"/>
<path d="M50.2926 29.3747H44.0242V15.5131C44.0242 15.2553 43.8108 15.0508 43.5618 15.0508H40.761C40.5032 15.0508 40.2987 15.2642 40.2987 15.5131V32.4956C40.2987 32.7534 40.5121 32.9579 40.761 32.9579H50.3014C50.5593 32.9579 50.7638 32.7446 50.7638 32.4956V29.846C50.7638 29.5881 50.5504 29.3836 50.3014 29.3836L50.2926 29.3747Z" fill="#fff"/>
<path d="M57.1299 15.0419H59.9396C60.1949 15.0419 60.4019 15.2489 60.4019 15.5042V32.4956C60.4019 32.7509 60.1949 32.9579 59.9396 32.9579H57.1299C56.8746 32.9579 56.6676 32.7509 56.6676 32.4956V15.5042C56.6676 15.2489 56.8746 15.0419 57.1299 15.0419Z" fill="#fff"/>
<path d="M82.1324 15.0419H79.0471C78.8426 15.0419 78.6648 15.1752 78.6025 15.3709L74.5125 28.3255L70.3958 15.3709C70.3336 15.1752 70.1558 15.0419 69.9513 15.0419H66.8837C66.7326 15.0419 66.5903 15.113 66.5014 15.2375C66.4125 15.362 66.3858 15.5131 66.4392 15.6554L72.1385 32.6378C72.2008 32.8246 72.3786 32.9579 72.5831 32.9579H76.4064C76.602 32.9579 76.7798 32.8335 76.8509 32.6378L82.577 15.6554C82.6214 15.5131 82.6036 15.362 82.5147 15.2375C82.4258 15.113 82.2924 15.0419 82.1324 15.0419Z" fill="#fff"/>
<path d="M91.6372 20.1633C91.6372 21.0791 92.0907 21.6215 94.8025 22.4395L94.7848 22.4662C97.4611 23.3019 100.475 24.2533 100.475 27.8365C100.475 31.0463 97.9945 33.118 94.1446 33.118C90.8815 33.118 88.4897 31.6776 87.4138 29.0724C87.3338 28.8679 87.4138 28.6279 87.6094 28.5123L89.9301 27.1519C90.0368 27.0808 90.1702 27.0719 90.2946 27.1074C90.4102 27.143 90.508 27.223 90.5614 27.3386C91.2549 28.8235 92.4552 29.5526 94.2513 29.5526C95.9406 29.5526 96.8653 28.9924 96.8653 27.8632C96.8653 26.734 95.9229 26.2539 93.2643 25.4892C88.6586 24.1555 88.0184 22.1905 88.0184 20.2611C88.0184 16.8379 90.9081 15.0508 93.7623 15.0508C96.4474 15.0508 98.608 16.34 99.8439 18.6784C99.9506 18.8829 99.8706 19.1497 99.6661 19.2742L97.3988 20.5812C97.2921 20.6434 97.1676 20.6612 97.0521 20.6257C96.9276 20.599 96.8298 20.519 96.7764 20.4123C96.1007 19.1586 95.1404 18.5718 93.7623 18.5718C92.473 18.5718 91.6372 19.1941 91.6372 20.1633Z" fill="#fff"/>
<path fill-rule="evenodd" clip-rule="evenodd" d="M113.501 15.0419H107.259C107.001 15.0419 106.797 15.2553 106.797 15.5042V32.4867C106.797 32.7445 107.01 32.949 107.259 32.949H110.06C110.318 32.949 110.522 32.7357 110.522 32.4867V27.1519H113.501C116.951 27.1519 119.663 24.4934 119.663 21.0969C119.663 17.7004 116.96 15.0419 113.501 15.0419ZM115.955 21.1013C115.953 22.5484 114.904 23.6487 113.51 23.6487H110.531V18.554H113.51C114.922 18.554 115.953 19.6276 115.955 21.1013Z" fill="#fff"/>
<path fill-rule="evenodd" clip-rule="evenodd" d="M132.92 15.0508C133.115 15.0508 133.293 15.1753 133.355 15.362H133.373L139.339 32.3444C139.384 32.4867 139.366 32.6468 139.277 32.7712C139.188 32.8957 139.046 32.9668 138.895 32.9668H135.836C135.632 32.9668 135.454 32.8335 135.392 32.6467L134.44 29.7837H127.567L126.634 32.6467C126.571 32.8424 126.394 32.9668 126.189 32.9668H123.148C122.997 32.9668 122.855 32.8957 122.766 32.7712C122.677 32.6468 122.65 32.4867 122.704 32.3444L128.652 15.362C128.714 15.1753 128.892 15.0508 129.088 15.0508H132.92ZM128.768 26.2805H133.267L131.017 19.5943L128.768 26.2805Z" fill="#fff"/>
<path d="M153.076 18.5718C154.846 18.5718 156.411 19.3631 157.264 20.6968C157.389 20.8924 157.655 20.9546 157.869 20.839L160.198 19.4876C160.305 19.4253 160.385 19.3186 160.412 19.1941C160.438 19.0697 160.412 18.9541 160.35 18.8474C158.776 16.4645 156.055 15.0508 153.068 15.0508C147.919 15.0508 144.043 18.9274 144.043 24.0755C144.043 29.2236 147.919 33.1002 153.068 33.1002C156.082 33.1002 158.802 31.6776 160.35 29.2947C160.412 29.1969 160.438 29.0724 160.412 28.9479C160.385 28.8235 160.305 28.7257 160.198 28.6545L157.86 27.303C157.647 27.1786 157.389 27.2408 157.255 27.4453C156.411 28.7612 154.846 29.5437 153.068 29.5437C149.822 29.5437 147.644 27.3475 147.644 24.0666C147.644 20.7857 149.822 18.5629 153.068 18.5629L153.076 18.5718Z" fill="#fff"/>
<path d="M170.575 29.3747H177.554L177.563 29.3925C177.812 29.3925 178.026 29.597 178.026 29.8549V32.5045C178.026 32.7535 177.821 32.9668 177.563 32.9668H167.312C167.063 32.9668 166.849 32.7623 166.849 32.5045V15.522C166.849 15.2731 167.054 15.0597 167.312 15.0597H177.43C177.679 15.0597 177.892 15.2642 177.892 15.522V18.1716C177.892 18.4206 177.688 18.634 177.43 18.634H170.575V22.1372H176.799C177.048 22.1372 177.261 22.3417 177.261 22.5995V25.2047C177.261 25.4537 177.056 25.6671 176.799 25.6671H170.575V29.3747Z" fill="#fff"/>
</g>
</svg>
