<svg width="24" height="24" viewBox="0 0 24 24" fill="none" xmlns="http://www.w3.org/2000/svg">
<path d="M19.319 11.181C19.2939 11.0743 19.2429 10.9754 19.1706 10.8931C19.0982 10.8108 19.0066 10.7476 18.904 10.7091L14.1015 8.90814L15.3237 2.79739C15.3521 2.65516 15.3334 2.50754 15.2703 2.37691C15.2073 2.24628 15.1033 2.13977 14.9743 2.07355C14.8453 2.00732 14.6981 1.98499 14.5552 2.00994C14.4124 2.03488 14.2815 2.10575 14.1825 2.21178L4.84922 12.2118C4.77444 12.2919 4.72056 12.3892 4.69236 12.4951C4.66416 12.6011 4.66252 12.7123 4.68756 12.819C4.71261 12.9257 4.76358 13.0246 4.83596 13.1069C4.90833 13.1892 4.99989 13.2524 5.10252 13.2909L9.90504 15.0918L8.68288 21.2026C8.65442 21.3448 8.67313 21.4924 8.73617 21.6231C8.79921 21.7537 8.90314 21.8602 9.0322 21.9265C9.16125 21.9927 9.30838 22.015 9.45128 21.9901C9.59417 21.9651 9.72502 21.8942 9.82399 21.7882L19.1573 11.7882C19.2321 11.7081 19.286 11.6107 19.3142 11.5048C19.3424 11.3989 19.344 11.2877 19.319 11.181Z" fill="#3B444C"/>
</svg>
