<!--
  - Copyright (c) 2024. Devtron Inc.
  -
  - Licensed under the Apache License, Version 2.0 (the "License");
  - you may not use this file except in compliance with the License.
  - You may obtain a copy of the License at
  -
  -     http://www.apache.org/licenses/LICENSE-2.0
  -
  - Unless required by applicable law or agreed to in writing, software
  - distributed under the License is distributed on an "AS IS" BASIS,
  - WITHOUT WARRANTIES OR CONDITIONS OF ANY KIND, either express or implied.
  - See the License for the specific language governing permissions and
  - limitations under the License.
  -->

<svg xmlns="http://www.w3.org/2000/svg" width="24" height="24" fill="none" viewBox="0 0 24 24">
  <path  data-style-override="false" fill="#CB2026" d="M13.636 8.134c.017.006 1.298 2.22 2.576 4.44l.306.531c1.168 2.03 2.246 3.913 2.246 3.933 0 .021-2.867.054-5.71.068l-.516.002-1.507.004h-.475c-1.273 0-2.097-.014-2.09-.032.007-.02.144-.261.368-.655l.184-.322c.433-.755 1.07-1.862 1.734-3.011l.307-.533c1.285-2.222 2.567-4.428 2.578-4.425Zm-7.434-1.28c.014-.003.606.999 1.312 2.229l.27.467.272.474 1.287 2.243.546.952-.745 1.294-.749 1.298-3.697.01L1 15.83l.11-.186.946-1.645.28-.486c1.872-3.25 3.846-6.652 3.866-6.658Zm11.628-.01c.013 0 1.104 1.874 2.28 3.905l.309.533c1.286 2.224 2.572 4.458 2.58 4.497.01.036-.19.046-1.286.049h-2.842l-.05-.078c-.16-.256-3.052-5.309-3.052-5.337 0-.047 2.036-3.57 2.06-3.57ZM9.84 5c.006-.002.109.163.268.427l.178.296c.676 1.132 1.887 3.21 1.939 3.342.014.035-.318.642-.899 1.654-.506.877-.945 1.644-.98 1.701l-.061.1-.09-.136c-.08-.13-.553-.949-1.049-1.814l-.23-.4A104.288 104.288 0 0 1 7.89 8.351c0-.054 1.91-3.341 1.95-3.352Z"/>
</svg>
