<!--
  - Copyright (c) 2024. Devtron Inc.
  -
  - Licensed under the Apache License, Version 2.0 (the "License");
  - you may not use this file except in compliance with the License.
  - You may obtain a copy of the License at
  -
  -     http://www.apache.org/licenses/LICENSE-2.0
  -
  - Unless required by applicable law or agreed to in writing, software
  - distributed under the License is distributed on an "AS IS" BASIS,
  - WITHOUT WARRANTIES OR CONDITIONS OF ANY KIND, either express or implied.
  - See the License for the specific language governing permissions and
  - limitations under the License.
  -->

<svg xmlns="http://www.w3.org/2000/svg" width="24" height="24" fill="none" viewBox="0 0 24 24">
  <path fill="#8898A6" fill-rule="evenodd" d="m19.194 4.363-1.886 1.864a.603.603 0 0 0 0 .858l1.403 1.386a.62.62 0 0 0 .868 0l1.886-1.865a.24.24 0 0 1 .397.106 3.87 3.87 0 0 1-1.018 3.784 3.98 3.98 0 0 1-4.175.895l-8.165 8.827a2.195 2.195 0 0 1-3.149.069 2.137 2.137 0 0 1 .08-3.124l8.95-7.978a3.87 3.87 0 0 1 .875-4.209 3.98 3.98 0 0 1 3.83-1.006.235.235 0 0 1 .107.393h-.002ZM6.29 18.748a.65.65 0 0 0 .652.646.65.65 0 0 0 .654-.646.65.65 0 0 0-.654-.645.65.65 0 0 0-.652.645Z" clip-rule="evenodd"/>
  <path fill="#F4910D" fill-rule="evenodd" d="m7.14 9.556 2.238-2.212 10.807 10.681a1.07 1.07 0 0 1 0 1.526l-.694.686a1.101 1.101 0 0 1-1.544 0L7.14 9.556Z" clip-rule="evenodd"/>
  <path fill="#66757F" fill-rule="evenodd" d="m5.466 11.902.627-.62.059-.414a.647.647 0 0 1 .872-.506l2.797-2.765-.11-.873a1.988 1.988 0 0 1 .576-1.661 2.4 2.4 0 0 1 1.687-.691h1.111c-1.748-1.728-3.4-1.824-4.954-.288L4.283 7.887a1.1 1.1 0 0 1-.836.316l-.5-.03-.627.62a1.07 1.07 0 0 0 0 1.525l1.602 1.584a1.101 1.101 0 0 0 1.544 0Z" clip-rule="evenodd"/>
  <path fill="#fff" fill-rule="evenodd" d="M15.204 23.464c.38.334.877.536 1.422.536h2.371a5 5 0 1 0 0-10h-2.37a2.15 2.15 0 0 0-1.423.536A2.146 2.146 0 0 0 13.78 14h-2.37a5 5 0 0 0 0 10h2.37c.546 0 1.044-.203 1.424-.536Z" clip-rule="evenodd"/>
  <path fill="#664BEE" fill-rule="evenodd" d="M9.276 19a2.134 2.134 0 0 0 2.134 2.133h2.37a.711.711 0 1 1 0 1.423h-2.37a3.556 3.556 0 0 1 0-7.113h2.37a.711.711 0 1 1 0 1.423h-2.37a2.134 2.134 0 0 0-2.134 2.133Zm2.372 0a.71.71 0 0 1 .71-.712h5.69a.711.711 0 0 1 0 1.422h-5.69a.711.711 0 0 1-.71-.71Zm4.267 2.844a.71.71 0 0 1 .711-.71h2.371a2.134 2.134 0 0 0 0-4.268h-2.37a.711.711 0 1 1 0-1.423h2.37a3.556 3.556 0 0 1 0 7.113h-2.37a.711.711 0 0 1-.712-.712Z" clip-rule="evenodd"/>
</svg>
