<!--
  - Copyright (c) 2024. Devtron Inc.
  -
  - Licensed under the Apache License, Version 2.0 (the "License");
  - you may not use this file except in compliance with the License.
  - You may obtain a copy of the License at
  -
  -     http://www.apache.org/licenses/LICENSE-2.0
  -
  - Unless required by applicable law or agreed to in writing, software
  - distributed under the License is distributed on an "AS IS" BASIS,
  - WITHOUT WARRANTIES OR CONDITIONS OF ANY KIND, either express or implied.
  - See the License for the specific language governing permissions and
  - limitations under the License.
  -->

<svg width="24" height="24" viewBox="0 0 24 24" fill="none" xmlns="http://www.w3.org/2000/svg">
<path fill-rule="evenodd" clip-rule="evenodd" d="M4 10.75H10.002C10.3631 10.75 10.7207 10.6789 11.0544 10.5407C11.388 10.4025 11.6912 10.1999 11.9465 9.94454C12.2019 9.68918 12.4045 9.38602 12.5427 9.05238C12.6809 8.71873 12.752 8.36114 12.752 8V2H18C18.5304 2 19.0391 2.21071 19.4142 2.58579C19.7893 2.96086 20 3.46957 20 4V20C20 20.5304 19.7893 21.0391 19.4142 21.4142C19.0391 21.7893 18.5304 22 18 22H6C5.46957 22 4.96086 21.7893 4.58579 21.4142C4.21071 21.0391 4 20.5304 4 20V10.75ZM11.252 3.81V8C11.252 8.69 10.692 9.25 10.002 9.25H5.812L11.252 3.81Z" fill="var(--N800)"/>
<path fill-rule="evenodd" clip-rule="evenodd" d="M12.4849 15.5456L10.4697 13.5304L11.5304 12.4697L13.5456 14.4849L15.5607 12.4697L16.6214 13.5304L14.6062 15.5456L16.6214 17.5607L15.5607 18.6214L13.5456 16.6062L11.5304 18.6214L10.4697 17.5607L12.4849 15.5456Z" fill="var(--N0)"/>
</svg>
