<!--
  - Copyright (c) 2024. Devtron Inc.
  -
  - Licensed under the Apache License, Version 2.0 (the "License");
  - you may not use this file except in compliance with the License.
  - You may obtain a copy of the License at
  -
  -     http://www.apache.org/licenses/LICENSE-2.0
  -
  - Unless required by applicable law or agreed to in writing, software
  - distributed under the License is distributed on an "AS IS" BASIS,
  - WITHOUT WARRANTIES OR CONDITIONS OF ANY KIND, either express or implied.
  - See the License for the specific language governing permissions and
  - limitations under the License.
  -->

<svg xmlns="http://www.w3.org/2000/svg" width="24" height="24" fill="none" viewBox="0 0 24 24">
  <path stroke="#596168" stroke-width="1.5" d="M12 22C6.48 22 2 17.52 2 12S6.48 2 12 2s10 4.48 10 10-4.48 10-10 10Z" clip-rule="evenodd" vector-effect="non-scaling-stroke"/>
  <path stroke="#596168" stroke-width="1.5" d="M12 18c-3.312 0-6-2.688-6-6s2.688-6 6-6 6 2.688 6 6-2.688 6-6 6Z" clip-rule="evenodd" vector-effect="non-scaling-stroke"/>
  <path fill="#596168" fill-rule="evenodd" d="M12 10a2 2 0 1 1 0 4 2 2 0 0 1 0-4Z" clip-rule="evenodd"/>
  <path stroke="#596168" stroke-width="1.5" d="m12 12 7.071 7.071" vector-effect="non-scaling-stroke"/>
</svg>
