<svg xmlns="http://www.w3.org/2000/svg" width="48" height="48" viewBox="0 0 48 48" fill="none">
  <rect x="6" y="30" width="36" height="14" rx="2" fill="#0066CC" fill-opacity="0.3" stroke="#0066CC" stroke-width="2"/>
  <path fill-rule="evenodd" clip-rule="evenodd" d="M18.2 16H8C6.89543 16 6 16.8954 6 18V28C6 29.1046 6.89543 30 8 30H40C41.1046 30 42 29.1046 42 28V18C42 16.8954 41.1046 16 40 16H37.8C36.8734 20.5645 32.8379 24 28 24C23.1621 24 19.1266 20.5645 18.2 16Z" fill="#0066CC" fill-opacity="0.3"/>
  <path d="M18.2 16L19.18 15.8011L19.0174 15H18.2V16ZM37.8 16V15H36.9826L36.82 15.8011L37.8 16ZM8 17H18.2V15H8V17ZM7 18C7 17.4477 7.44772 17 8 17V15C6.34315 15 5 16.3431 5 18H7ZM7 28V18H5V28H7ZM8 29C7.44772 29 7 28.5523 7 28H5C5 29.6569 6.34315 31 8 31V29ZM40 29H8V31H40V29ZM41 28C41 28.5523 40.5523 29 40 29V31C41.6569 31 43 29.6569 43 28H41ZM41 18V28H43V18H41ZM40 17C40.5523 17 41 17.4477 41 18H43C43 16.3431 41.6569 15 40 15V17ZM37.8 17H40V15H37.8V17ZM36.82 15.8011C35.9861 19.9087 32.353 23 28 23V25C33.3229 25 37.7607 21.2203 38.78 16.1989L36.82 15.8011ZM28 23C23.647 23 20.0139 19.9087 19.18 15.8011L17.22 16.1989C18.2393 21.2203 22.6771 25 28 25V23Z" fill="#0066CC"/>
  <circle cx="28" cy="14" r="10" fill="#1DAD70" fill-opacity="0.15" stroke="#1DAD70" stroke-width="2"/>
  <path d="M27.9991 19V9M27.9991 9L23.9082 13.0909M27.9991 9L32.09 13.0909" stroke="#1DAD70" stroke-width="2" stroke-linecap="round" stroke-linejoin="round"/>
  <path d="M11 23H15" stroke="#0066CC" stroke-width="2" stroke-linecap="round"/>
  <path d="M11 37H15" stroke="#0066CC" stroke-width="2" stroke-linecap="round"/>
</svg>