<!--
  - Copyright (c) 2024. Devtron Inc.
  -
  - Licensed under the Apache License, Version 2.0 (the "License");
  - you may not use this file except in compliance with the License.
  - You may obtain a copy of the License at
  -
  -     http://www.apache.org/licenses/LICENSE-2.0
  -
  - Unless required by applicable law or agreed to in writing, software
  - distributed under the License is distributed on an "AS IS" BASIS,
  - WITHOUT WARRANTIES OR CONDITIONS OF ANY KIND, either express or implied.
  - See the License for the specific language governing permissions and
  - limitations under the License.
  -->

<svg xmlns="http://www.w3.org/2000/svg" width="24" height="24" fill="none" viewBox="0 0 24 24">
  <path stroke="#3B444C" stroke-linecap="round" stroke-linejoin="round" stroke-width="1.5" d="M22.5 16.5V6.75a.75.75 0 0 0-.75-.75H2.25a.75.75 0 0 0-.75.75v9.75m21 0h-21m21 0v2.25m-21-2.25v2.25m3-2.25v2.25m3-2.25v2.25m3-2.25v2.25m3-2.25v2.25m3-2.25v2.25m3-2.25v2.25M4.5 9h6v4.5h-6V9Zm9 0h6v4.5h-6V9Z" vector-effect="non-scaling-stroke"/>
</svg>