<svg xmlns="http://www.w3.org/2000/svg" width="48" height="48" viewBox="0 0 48 48" fill="none">
  <path opacity="0.3" d="M39 26.1525L24.0319 41.1206C23.7533 41.3993 23.4225 41.6203 23.0585 41.7711C22.6945 41.9219 22.3043 41.9995 21.9103 41.9995C21.5163 41.9995 21.1261 41.9219 20.7621 41.7711C20.3981 41.6203 20.0673 41.3993 19.7888 41.1206L3.87938 25.2113C3.60073 24.9327 3.37969 24.6019 3.22888 24.2379C3.07808 23.8739 3.00046 23.4837 3.00046 23.0897C3.00046 22.6957 3.07808 22.3055 3.22888 21.9415C3.37969 21.5775 3.60073 21.2467 3.87938 20.9681L21.8475 3L43.5 24.6525L39 26.1525Z" fill="#3B444C"/>
  <path d="M39 26.1525L24.0319 41.1206C23.7533 41.3993 23.4225 41.6203 23.0585 41.7711C22.6945 41.9219 22.3043 41.9996 21.9103 41.9996C21.5163 41.9996 21.1261 41.9219 20.7621 41.7711C20.3981 41.6203 20.0673 41.3993 19.7888 41.1206L3.87938 25.2113C3.60073 24.9327 3.37969 24.6019 3.22888 24.2379C3.07808 23.8739 3.00046 23.4837 3.00046 23.0897C3.00046 22.6957 3.07808 22.3055 3.22888 21.9415C3.37969 21.5775 3.60073 21.2467 3.87938 20.9681L21.8475 3L43.5 24.6525L39 26.1525Z" stroke="#3B444C" stroke-width="2" stroke-linecap="round" stroke-linejoin="round"/>
  <path d="M23.25 25.5C25.3211 25.5 27 23.8211 27 21.75C27 19.6789 25.3211 18 23.25 18C21.1789 18 19.5 19.6789 19.5 21.75C19.5 23.8211 21.1789 25.5 23.25 25.5Z" fill="white" fill-opacity="0.3" stroke="#3B444C" stroke-width="2" stroke-linecap="round" stroke-linejoin="round"/>
  <path d="M20.5987 19.0988L7.49812 6" stroke="#3B444C" stroke-width="2" stroke-linecap="round" stroke-linejoin="round"/>
  <path opacity="0.3" d="M46.5 39C46.5 39.7956 46.1839 40.5587 45.6213 41.1213C45.0587 41.6839 44.2956 42 43.5 42C42.7044 42 41.9413 41.6839 41.3787 41.1213C40.8161 40.5587 40.5 39.7956 40.5 39C40.5 36 43.5 31.5 43.5 31.5C43.5 31.5 46.5 36 46.5 39Z" fill="#0066CC"/>
  <path d="M46.5 39C46.5 39.7956 46.1839 40.5587 45.6213 41.1213C45.0587 41.6839 44.2956 42 43.5 42C42.7044 42 41.9413 41.6839 41.3787 41.1213C40.8161 40.5587 40.5 39.7956 40.5 39C40.5 36 43.5 31.5 43.5 31.5C43.5 31.5 46.5 36 46.5 39Z" stroke="#0066CC" stroke-width="2" stroke-linecap="round" stroke-linejoin="round"/>
</svg>