<svg width="32" height="32" viewBox="0 0 32 32" fill="none" xmlns="http://www.w3.org/2000/svg">
<rect width="32" height="32" rx="4" fill="#1E1F28"/>
<rect x="0.5" y="0.5" width="31" height="31" rx="3.5" stroke="white" stroke-opacity="0.2"/>
<path d="M14 11.3333H11.3333C10.597 11.3333 10 11.9303 10 12.6667V20.6667C10 21.403 10.597 22 11.3333 22H19.3333C20.0697 22 20.6667 21.403 20.6667 20.6667V18M18.2505 11.2701L20.7299 13.7495M16.4794 18H14.3542C14.2603 18 14.1702 17.9627 14.1037 17.8963C14.0373 17.8298 14 17.7397 14 17.6458V15.6673C14 15.6208 14.0092 15.5747 14.027 15.5317C14.0448 15.4888 14.0709 15.4497 14.1037 15.4168L19.4168 10.1037C19.4832 10.0373 19.5733 10 19.6673 10C19.7612 10 19.8513 10.0373 19.9177 10.1037L21.8963 12.0823C21.9627 12.1487 22 12.2388 22 12.3327C22 12.4267 21.9627 12.5168 21.8963 12.5832L16.4794 18Z" stroke="#C8CBCE" stroke-width="1.5" stroke-linecap="round" stroke-linejoin="round"/>
</svg>
