<svg xmlns="http://www.w3.org/2000/svg" width="24" height="24" fill="none" viewBox="0 0 24 24">
  <path data-style-override="false" fill="#DA2430" d="m7.388 11.16-3.533 1.285c.046.566.143 1.125.28 1.674l3.356-1.222a6.656 6.656 0 0 1-.102-1.738M23 7.253c-.247-.508-.532-1-.862-1.462l-3.531 1.285c.41.42.755.893 1.038 1.399L23 7.253Z"/>
  <path data-style-override="false" fill="#DA2430" d="M16.733 7.232a6.46 6.46 0 0 0-1.505-.979 6.57 6.57 0 0 0-8.95 3.735 6.748 6.748 0 0 0-.346 1.69l-.012.004-.001.013-2.126.774-1.368.505v-.008l-.038.014a10.039 10.039 0 0 1 1.23-5.675C6.13 2.627 11.844.67 16.663 2.955a9.969 9.969 0 0 1 2.642 1.82c.51.473.966.994 1.364 1.551l-3.532 1.286a5.84 5.84 0 0 0-.055-.055l-.01.003a6.816 6.816 0 0 0-.339-.328Z"/>
  <path data-style-override="false" fill="#E82429" d="m2.584 18.68-.006.002A10.235 10.235 0 0 1 1 15.262l3.356-1.223.002.011.022-.008v.001a6.741 6.741 0 0 0 1.055 2.55c.2.285.422.554.668.806l-.014.005.026.027-3.5 1.294-.031-.045Z"/>
  <path data-style-override="false" fill="#DA2430" d="M15.914 17.776a6.563 6.563 0 0 1-6.234.373 6.494 6.494 0 0 1-1.912-1.356l-3.524 1.283.027.037-.002.001a9.984 9.984 0 0 0 3.913 3.31c3.498 1.657 7.467 1.081 10.341-1.148a10.043 10.043 0 0 0 3.087-3.805 10.003 10.003 0 0 0 .91-5.046l-.099.035-.004-.054-3.5 1.293a6.609 6.609 0 0 1-.588 2.288 6.548 6.548 0 0 1-2.415 2.79Z"/>
  <path data-style-override="false" fill="#E82429" d="m19.81 8.414.053-.02c.553 1.136.89 2.371.99 3.636l-3.524 1.282.002-.026-.067.024a6.73 6.73 0 0 0-.815-3.727L19.78 8.35l.03.063Z"/>
  <path data-style-override="false" fill="#C22035" d="m7.393 11.138-3.508 1.296c.045.572.141 1.136.278 1.689l3.332-1.233a6.699 6.699 0 0 1-.101-1.752M22.895 7.2a10.23 10.23 0 0 0-.856-1.475L18.532 7.02c.408.424.75.9 1.03 1.41l3.333-1.23Z"/>
  <path data-style-override="false" fill="#AC223B" d="m3.884 12.435 3.5-1.282-.015.703-3.376 1.275-.109-.697v.001ZM18.533 7.01l3.554-1.219.369.557-3.453 1.221-.47-.559Z"/>
  <path data-style-override="false" fill="#B92135" d="m4.27 18.101 3.503-1.275 1.06 1-3.674 1.38-.89-1.105Zm18.206-6.685-3.559 1.283-.262 1.425 3.794-1.353.027-1.355Z"/>
</svg>
