<svg xmlns="http://www.w3.org/2000/svg" width="24" height="24" fill="none" viewBox="0 0 24 24">
  <path data-style-override="false" fill="#F8931E" d="M11.01 4.621v16.875l3-1.412V3.156l-3 1.465Z"/>
  <path data-style-override="false" fill="#B3B3B3" d="M11.01 21.496v-1.88c-3.424-.43-6-2.3-6-4.543 0-2.125 2.315-3.915 5.473-4.462V8.706c-4.83.583-8.474 3.212-8.474 6.367 0 3.27 3.912 5.973 9 6.423Zm10.803-7.625-.414-4.3-1.543.87-.217-.131c-1.4-.801-3.156-1.368-5.103-1.604v1.905c1.175.204 2.235.579 3.101 1.08l-1.626.918 5.802 1.262Z"/>
</svg>
