<svg xmlns="http://www.w3.org/2000/svg" width="24" height="24" viewBox="0 0 24 24" fill="none">
  <path d="M8.14664 19H16.2282C20.0698 18.9057 23.0916 15.6773 22.9979 11.8361C22.9042 8.08921 19.9058 5.0964 16.2282 5.00213H8.14664C4.305 4.90787 1.09582 7.94781 1.00212 11.8125C0.908423 15.6773 3.9302 18.8822 7.77185 18.9764C7.88897 19 8.00609 19 8.14664 19ZM16.0408 16.5256H8.31062C5.8276 16.4549 3.88335 14.3576 3.95363 11.8597C4.04733 9.47957 5.94473 7.5472 8.31062 7.4765H16.0408C18.5238 7.40581 20.6086 9.36174 20.6788 11.8597C20.7491 14.3576 18.8049 16.4549 16.3218 16.5256C16.2282 16.5256 16.1345 16.5256 16.0408 16.5256Z" fill="#C74634"/>
</svg>