<!--
  - Copyright (c) 2024. Devtron Inc.
  -
  - Licensed under the Apache License, Version 2.0 (the "License");
  - you may not use this file except in compliance with the License.
  - You may obtain a copy of the License at
  -
  -     http://www.apache.org/licenses/LICENSE-2.0
  -
  - Unless required by applicable law or agreed to in writing, software
  - distributed under the License is distributed on an "AS IS" BASIS,
  - WITHOUT WARRANTIES OR CONDITIONS OF ANY KIND, either express or implied.
  - See the License for the specific language governing permissions and
  - limitations under the License.
  -->

<svg xmlns="http://www.w3.org/2000/svg" width="24" height="24" fill="none" viewBox="0 0 24 24">
  <path stroke="#596168" stroke-linecap="round" stroke-linejoin="round" stroke-width="1.5" d="M12 22.013a.652.652 0 0 1-.32-.084l-7.174-4.035a.652.652 0 0 1-.332-.569v-4.55M12 22.012a.652.652 0 0 0 .32-.084l7.174-4.035a.651.651 0 0 0 .332-.569V12.8M12 22.013l.077-8.709m0 0-2.26 2.61L2 11.564l2.26-2.608m7.817 4.347L4.261 8.957m7.816 4.347 2.262 2.61L22 11.564l-2.26-2.608m-7.663 4.347 7.662-4.347m-15.478 0L2 6.347 9.74 2 12 4.6M4.26 8.957 12 4.6m7.74 4.357L22 6.347 14.26 2 12 4.6m7.74 4.357L12 4.6" vector-effect="non-scaling-stroke"/>
</svg>
