<svg xmlns="http://www.w3.org/2000/svg" width="16" height="16" viewBox="0 0 16 16" fill="none">
  <g clip-path="url(#clip0_7700_308)">
    <path d="M14.3579 6.6601C14.6881 5.66422 14.578 4.55969 14.046 3.65434C13.2387 2.2601 11.6058 1.55393 10.0096 1.87986C9.31243 1.10125 8.28499 0.666687 7.22086 0.666687C5.58798 0.666687 4.15691 1.69879 3.64319 3.21977C2.59741 3.43706 1.69841 4.0708 1.16634 4.99426C0.359074 6.3885 0.542544 8.12677 1.62502 9.32183C1.29477 10.3358 1.4232 11.4222 1.95527 12.3276C2.76253 13.7218 4.39542 14.4461 5.99161 14.1021C6.70715 14.8807 7.71623 15.3334 8.78036 15.3334C10.4132 15.3334 11.8443 14.3013 12.358 12.7803C13.4038 12.563 14.3028 11.9292 14.8349 11.0058C15.6422 9.61154 15.4587 7.85516 14.3579 6.6601ZM8.78036 14.3737C8.11987 14.3737 7.49607 14.1564 7.0007 13.7399C7.01905 13.7218 7.07409 13.7037 7.09243 13.6856L10.0463 12.0017C10.1931 11.9111 10.2848 11.7663 10.2848 11.5852V7.47492L11.5324 8.18109C11.5508 8.18109 11.5508 8.1992 11.5508 8.2173V11.6214C11.5691 13.1424 10.3215 14.3737 8.78036 14.3737ZM2.79923 11.8568C2.46898 11.2955 2.3589 10.6436 2.46898 10.0099C2.48733 10.028 2.52402 10.0461 2.56072 10.0642L5.51459 11.7482C5.66137 11.8387 5.84484 11.8387 5.99161 11.7482L9.60598 9.68397V11.1144C9.60598 11.1325 9.60598 11.1506 9.58763 11.1506L6.59706 12.8527C5.27608 13.6132 3.5698 13.1605 2.79923 11.8568ZM2.02865 5.48315C2.3589 4.92183 2.87262 4.50537 3.47807 4.26998V7.74652C3.47807 7.90948 3.5698 8.07245 3.71658 8.16298L7.33095 10.2272L6.08335 10.9334C6.065 10.9334 6.04665 10.9515 6.04665 10.9334L3.05609 9.2313C1.69841 8.4708 1.25808 6.78685 2.02865 5.48315ZM12.303 7.83706L8.68863 5.77286L9.93622 5.06669C9.95457 5.06669 9.97292 5.04858 9.97292 5.06669L12.9635 6.76874C14.3028 7.52924 14.7431 9.21319 13.9726 10.5169C13.6423 11.0782 13.1286 11.4947 12.5232 11.712V8.25352C12.5415 8.09056 12.4498 7.92759 12.303 7.83706ZM13.5322 5.99014C13.5139 5.97204 13.4772 5.95393 13.4405 5.93582L10.4866 4.25187C10.3399 4.16134 10.1564 4.16134 10.0096 4.25187L6.39525 6.31607V4.88562C6.39525 4.86751 6.39525 4.8494 6.41359 4.8494L9.40416 3.14735C10.7435 2.38685 12.4314 2.83953 13.202 4.16134C13.5322 4.70455 13.6423 5.3564 13.5322 5.99014ZM5.71641 8.52512L4.46881 7.81895C4.45046 7.81895 4.45046 7.80084 4.45046 7.78274V4.37862C4.45046 2.85763 5.69806 1.62636 7.23921 1.62636C7.8997 1.62636 8.5235 1.84364 9.01887 2.2601C9.00053 2.27821 8.96383 2.29632 8.92714 2.31442L5.97327 3.99837C5.82649 4.08891 5.73475 4.23377 5.73475 4.41484V8.52512H5.71641ZM6.39525 7.07656L8.00979 6.15311L9.62432 7.07656V8.90537L8.00979 9.82883L6.39525 8.90537V7.07656Z" fill="#1D2730"/>
  </g>
  <defs>
    <clipPath id="clip0_7700_308">
      <rect width="16" height="16" fill="white"/>
    </clipPath>
  </defs>
</svg>