<svg xmlns="http://www.w3.org/2000/svg" width="24" height="24" viewBox="0 0 24 24" fill="none">
  <path d="M20.5 8.88879H19.1278L19.109 8.2923C19.0846 7.51248 19.0138 7.0873 18.8177 6.52742C18.5881 5.87257 18.2362 5.31567 17.7437 4.82779C16.685 3.77878 15.2587 3.51792 13.8277 3.51792C13.8277 8.37073 13.7765 13.2259 13.8506 18.0783C13.8525 18.2032 13.8543 18.2734 13.8559 18.2887C13.9338 19.062 14.2863 19.7101 14.7821 20.0253C15.2351 20.3135 15.8143 20.4442 16.6912 20.4442H17.2563C17.2596 20.9629 17.2563 21.4814 17.2563 22H6.74374C6.74374 21.4814 6.74043 20.9629 6.74374 20.4442H7.30881C8.18571 20.4442 8.76487 20.3135 9.21791 20.0253C9.7137 19.7101 10.0662 19.062 10.1442 18.2887C10.1457 18.2734 10.1475 18.2032 10.1494 18.0783C10.2235 13.2259 10.1723 8.37073 10.1723 3.51792C8.74133 3.51792 7.31495 3.77878 6.25627 4.82779C5.76379 5.31567 5.41192 5.87257 5.18231 6.52742C4.98623 7.0873 4.91544 7.51248 4.89097 8.2923L4.87219 8.88879H3.5C3.5 8.88879 3.5002 4.23767 3.5 2H20.5C20.4998 4.23767 20.5 8.88879 20.5 8.88879Z" fill="#D40074"/>
  <path d="M7.70606 15.2591H3.5V11.111H7.70606V15.2591Z" fill="#D40074"/>
  <path d="M20.4745 15.2591H16.2684V11.111H20.4745V15.2591Z" fill="#D40074"/>
</svg>