<!--
  - Copyright (c) 2024. Devtron Inc.
  -
  - Licensed under the Apache License, Version 2.0 (the "License");
  - you may not use this file except in compliance with the License.
  - You may obtain a copy of the License at
  -
  -     http://www.apache.org/licenses/LICENSE-2.0
  -
  - Unless required by applicable law or agreed to in writing, software
  - distributed under the License is distributed on an "AS IS" BASIS,
  - WITHOUT WARRANTIES OR CONDITIONS OF ANY KIND, either express or implied.
  - See the License for the specific language governing permissions and
  - limitations under the License.
  -->

<svg width="24" height="24" viewBox="0 0 24 24" fill="none" xmlns="http://www.w3.org/2000/svg" vector-effect="non-scaling-stroke">
<path d="M8.25012 12.6443L16.6799 20.0625C16.7774 20.1483 16.8956 20.2073 17.0228 20.2337C17.15 20.2602 17.2819 20.2531 17.4055 20.2132C17.5292 20.1734 17.6403 20.102 17.7281 20.0063C17.8159 19.9105 17.8774 19.7936 17.9064 19.667L21.4327 4.27953C21.4632 4.14649 21.4568 4.00765 21.4142 3.87798C21.3716 3.7483 21.2944 3.63271 21.191 3.54365C21.0876 3.4546 20.9618 3.39545 20.8272 3.37259C20.6927 3.34973 20.5544 3.36403 20.4274 3.41394L3.12517 10.2112C2.97438 10.2705 2.84683 10.3769 2.76159 10.5147C2.67636 10.6525 2.63803 10.8142 2.65235 10.9756C2.66666 11.1369 2.73285 11.2893 2.841 11.41C2.94915 11.5306 3.09346 11.613 3.25233 11.6447L8.25012 12.6443ZM8.25012 12.6443L21.0106 3.42835M8.25012 12.6443L8.25012 18.7485C8.25012 18.8968 8.29411 19.0418 8.37652 19.1652C8.45893 19.2885 8.57606 19.3846 8.71311 19.4414C8.85015 19.4982 9.00095 19.513 9.14644 19.4841C9.29192 19.4551 9.42556 19.3837 9.53045 19.2788L12.4602 16.3491" stroke="#596168" stroke-width="1.5" stroke-linecap="round" stroke-linejoin="round"/>
</svg>
