<svg xmlns="http://www.w3.org/2000/svg" width="16" height="16" viewBox="0 0 16 16" fill="none">
  <path d="M12.5 2.5H10C9.72386 2.5 9.5 2.72386 9.5 3V13C9.5 13.2761 9.72386 13.5 10 13.5H12.5C12.7761 13.5 13 13.2761 13 13V3C13 2.72386 12.7761 2.5 12.5 2.5Z" stroke="#000A14" stroke-width="1.5" stroke-linecap="round" stroke-linejoin="round" vector-effect="non-scaling-stroke"/>
  <path d="M6 2.5H3.5C3.22386 2.5 3 2.72386 3 3V13C3 13.2761 3.22386 13.5 3.5 13.5H6C6.27614 13.5 6.5 13.2761 6.5 13V3C6.5 2.72386 6.27614 2.5 6 2.5Z" stroke="#000A14" stroke-width="1.5" stroke-linecap="round" stroke-linejoin="round" vector-effect="non-scaling-stroke"/>
</svg>