<svg width="14" height="14" viewBox="0 0 14 14" fill="none" xmlns="http://www.w3.org/2000/svg">
<path d="M3.0625 7H2.1875C1.70425 7 1.3125 7.39175 1.3125 7.875V11.375C1.3125 11.8582 1.70425 12.25 2.1875 12.25H3.0625C3.54575 12.25 3.9375 11.8582 3.9375 11.375V7.875C3.9375 7.39175 3.54575 7 3.0625 7Z" fill="#8C6324"/>
<path d="M7.4375 4.375H6.5625C6.07925 4.375 5.6875 4.76675 5.6875 5.25V11.375C5.6875 11.8582 6.07925 12.25 6.5625 12.25H7.4375C7.92075 12.25 8.3125 11.8582 8.3125 11.375V5.25C8.3125 4.76675 7.92075 4.375 7.4375 4.375Z" fill="#8C6324"/>
<path opacity="0.4" d="M11.8125 1.75H10.9375C10.4543 1.75 10.0625 2.14175 10.0625 2.625V11.375C10.0625 11.8582 10.4543 12.25 10.9375 12.25H11.8125C12.2957 12.25 12.6875 11.8582 12.6875 11.375V2.625C12.6875 2.14175 12.2957 1.75 11.8125 1.75Z" fill="#8C6324"/>
</svg>
