<svg xmlns="http://www.w3.org/2000/svg" width="24" height="24" fill="none" viewBox="0 0 24 24">
  <path fill="#1DAD70" d="m5.52 14.521 3.96 3.959-4.747 1.725a.73.73 0 0 1-.937-.937L5.52 14.52Zm13.015-.442L9.921 5.465a.73.73 0 0 0-1.202.267L7.322 9.576l7.108 7.108 3.844-1.397a.73.73 0 0 0 .261-1.208Z" opacity=".2"/>
  <path fill="#1DAD70" d="M10.452 4.934a1.482 1.482 0 0 0-2.437.541L3.094 19.011A1.484 1.484 0 0 0 4.478 21c.174-.001.348-.033.511-.094l13.535-4.922a1.48 1.48 0 0 0 .542-2.437l-8.614-8.613Zm-.78 12.676L6.39 14.329l1.234-3.395 5.442 5.442-3.395 1.234Zm-5.157 1.875 1.313-3.6 2.292 2.291-3.605 1.309Zm10.11-3.675L8.19 9.375l1.22-3.363 8.571 8.572-3.355 1.226ZM15 6.75a3.543 3.543 0 0 1 .36-1.46c.497-.993 1.434-1.54 2.64-1.54.628 0 1.031-.215 1.28-.676.13-.258.206-.54.22-.83a.75.75 0 1 1 1.5.006c0 1.206-.799 3-3 3-.628 0-1.031.215-1.28.676-.13.258-.205.54-.22.83A.751.751 0 0 1 15 6.75Zm-2.25-3V1.5a.75.75 0 1 1 1.5 0v2.25a.75.75 0 1 1-1.5 0Zm9.53 7.72a.752.752 0 0 1-.53 1.28.75.75 0 0 1-.53-.22l-1.5-1.5a.75.75 0 0 1 1.06-1.062l1.5 1.501Zm.457-4.008-2.25.75a.75.75 0 0 1-.474-1.424l2.25-.75a.75.75 0 1 1 .474 1.424Z"/>
</svg>
