<svg xmlns="http://www.w3.org/2000/svg" width="14" height="14" fill="none" viewBox="0 0 14 14">
  <path fill="#106240" d="M3.063 7h-.876a.875.875 0 0 0-.874.875v3.5c0 .483.391.875.875.875h.874a.875.875 0 0 0 .876-.875v-3.5A.875.875 0 0 0 3.062 7Z"/>
  <path fill="#106240" d="M7.438 4.375h-.875a.875.875 0 0 0-.875.875v6.125c0 .483.391.875.875.875h.875a.875.875 0 0 0 .875-.875V5.25a.875.875 0 0 0-.876-.875Zm4.375-2.625h-.876a.875.875 0 0 0-.874.875v8.75c0 .483.391.875.874.875h.876a.875.875 0 0 0 .874-.875v-8.75a.875.875 0 0 0-.874-.875Z" opacity=".4"/>
</svg>
