<svg xmlns="http://www.w3.org/2000/svg" width="16" height="16" viewBox="0 0 16 16" fill="none">
<path d="M13.7593 7.57335L4.76073 2.07406C4.68494 2.02774 4.59817 2.00245 4.50936 2.00079C4.42055 1.99913 4.3329 2.02115 4.25542 2.0646C4.17795 2.10805 4.11345 2.17136 4.06856 2.248C4.02366 2.32465 4 2.41187 4 2.5007V13.4993C4 13.5881 4.02366 13.6753 4.06856 13.752C4.11345 13.8286 4.17795 13.8919 4.25542 13.9354C4.3329 13.9788 4.42055 14.0009 4.50936 13.9992C4.59817 13.9975 4.68494 13.9722 4.76073 13.9259L13.7593 8.42663C13.8324 8.38196 13.8927 8.31927 13.9346 8.24457C13.9765 8.16986 13.9985 8.08564 13.9985 7.99999C13.9985 7.91434 13.9765 7.83012 13.9346 7.75542C13.8927 7.68071 13.8324 7.61802 13.7593 7.57335Z" stroke="#3B444C" stroke-width="1.5" stroke-linecap="round" stroke-linejoin="round" vector-effect="non-scaling-stroke"/>
</svg>