<svg xmlns="http://www.w3.org/2000/svg" width="14" height="14" fill="none" viewBox="0 0 14 14">
  <path stroke="#3B444C" stroke-linecap="round" stroke-linejoin="round" stroke-width="1.25" d="M6.39 4.03h2.121m1.415 2.121v.283m1.98-4.1h-3.82m0 0H6.39a4.242 4.242 0 0 0-4.242 4.242m5.94-4.243a4.242 4.242 0 0 1 4.048 2.97h.194a.848.848 0 0 1 .848.848v1.697a.849.849 0 0 1-.849.849h-.424l-.96 2.688a.424.424 0 0 1-.4.282h-.674a.425.425 0 0 1-.4-.282l-.202-.567H5.632l-.202.567a.424.424 0 0 1-.4.282h-.674a.425.425 0 0 1-.4-.282l-.695-1.946a4.226 4.226 0 0 1-1.113-2.863M.875 7.848a1.273 1.273 0 0 1 1.273-1.272"/>
</svg>
