<svg width="24" height="24" viewBox="0 0 24 24" fill="none" xmlns="http://www.w3.org/2000/svg">
<g clip-path="url(#clip0_702_1764)">
<path d="M17.6354 3.00098L21.9756 12.1818L17.6354 21.3629H13.9404L18.2807 12.1818L13.9405 3.00098H17.6355H17.6354ZM10.5999 10.8007L12.1668 7.82473L11.9879 7.13191L10.0348 3.00098H6.33984L10.1404 11.0399L10.5999 10.8007ZM11.9879 16.6157L10.6337 13.5662L10.1404 13.3239L6.33984 21.3629H10.0348L11.9879 17.2316V16.6157H11.9879Z" fill="#40B4E5"/>
<path d="M13.9408 21.3629L9.60055 12.1818L13.9408 3.00098H17.6357L13.2955 12.1818L17.6357 21.3629H13.9408ZM6.34023 21.3629L2 12.1818L6.34023 3.00098H10.0352L5.69492 12.1818L10.0352 21.3629H6.34023Z" fill="#003D7A"/>
</g>
<defs>
<clipPath id="clip0_702_1764">
<rect width="20" height="18.44" fill="white" transform="translate(2 3)"/>
</clipPath>
</defs>
</svg>
