<svg width="24" height="24" viewBox="0 0 24 24" fill="none" xmlns="http://www.w3.org/2000/svg">
<g clip-path="url(#clip0_702_1764)">
<path d="M18.1991 2.00098L22.9734 11.9584L18.1991 21.9162H14.1347L18.9089 11.9584L14.1347 2.00098H18.1992H18.1991ZM10.46 10.4605L12.1836 7.23281L11.9868 6.48139L9.83844 2.00098H5.774L9.95463 10.72L10.46 10.4605ZM11.9868 16.7675L10.4972 13.46L9.95463 13.1973L5.774 21.9162H9.83844L11.9869 17.4355V16.7675H11.9868Z" fill="#40B4E5"/>
<path d="M14.1349 21.9162L9.3606 11.9584L14.1349 2.00098H18.1993L13.425 11.9584L18.1993 21.9162H14.1349ZM5.77426 21.9162L1 11.9584L5.77426 2.00098H9.83876L5.06441 11.9584L9.83876 21.9162H5.77426Z" fill="var(--B700)"/>
</g>
<defs>
<clipPath id="clip0_702_1764">
<rect width="22" height="20" fill="white" transform="translate(1 2)"/>
</clipPath>
</defs>
</svg>
