<!--
  - Copyright (c) 2024. Devtron Inc.
  -
  - Licensed under the Apache License, Version 2.0 (the "License");
  - you may not use this file except in compliance with the License.
  - You may obtain a copy of the License at
  -
  -     http://www.apache.org/licenses/LICENSE-2.0
  -
  - Unless required by applicable law or agreed to in writing, software
  - distributed under the License is distributed on an "AS IS" BASIS,
  - WITHOUT WARRANTIES OR CONDITIONS OF ANY KIND, either express or implied.
  - See the License for the specific language governing permissions and
  - limitations under the License.
  -->

<svg xmlns="http://www.w3.org/2000/svg" width="24" height="24" fill="none" viewBox="0 0 24 24">
  <path fill="#F8F8F9" d="M4.962 19.89c-1.476 0-2.556-.342-3.24-1.026-.648-.72-.972-1.602-.972-2.646v-1.026c0-.972.144-1.944.432-2.916.288-1.008.666-1.98 1.134-2.916a16.222 16.222 0 0 1 1.782-2.646A16.083 16.083 0 0 1 6.312 4.5h4.644C9.804 5.616 8.832 6.714 8.04 7.794a11.706 11.706 0 0 0-1.782 3.618c1.044.216 1.8.666 2.268 1.35.468.648.702 1.404.702 2.268v1.188c0 1.044-.342 1.926-1.026 2.646-.648.684-1.728 1.026-3.24 1.026Zm12.15 0c-1.476 0-2.556-.342-3.24-1.026-.648-.72-.972-1.602-.972-2.646v-1.026c0-.972.144-1.944.432-2.916.288-1.008.666-1.98 1.134-2.916a16.222 16.222 0 0 1 1.782-2.646A16.083 16.083 0 0 1 18.462 4.5h4.644c-1.152 1.116-2.124 2.214-2.916 3.294a11.706 11.706 0 0 0-1.782 3.618c1.044.216 1.8.666 2.268 1.35.468.648.702 1.404.702 2.268v1.188c0 1.044-.342 1.926-1.026 2.646-.648.684-1.728 1.026-3.24 1.026Z" opacity=".6"/>
</svg>
