<svg width="90" height="20" viewBox="0 0 90 20" fill="none" xmlns="http://www.w3.org/2000/svg">
<path d="M9.31015 13.9109L12.8564 16.1576C13.3097 16.4448 13.8725 16.0177 13.738 15.4886L12.7134 11.4581C12.6845 11.3458 12.688 11.2277 12.7233 11.1173C12.7586 11.0069 12.8243 10.9087 12.9129 10.834L16.093 8.18719C16.5108 7.83941 16.2951 7.14595 15.7583 7.11111L11.6054 6.84158C11.4935 6.83359 11.3862 6.79399 11.296 6.72738C11.2058 6.66078 11.1363 6.56991 11.0957 6.46537L9.54688 2.56492C9.50478 2.45396 9.42992 2.35843 9.33224 2.29102C9.23456 2.2236 9.11868 2.1875 9 2.1875C8.88132 2.1875 8.76544 2.2236 8.66777 2.29102C8.57009 2.35843 8.49523 2.45396 8.45312 2.56492L6.90426 6.46537C6.86367 6.56991 6.79423 6.66078 6.70401 6.72738C6.61378 6.79399 6.5065 6.83359 6.39464 6.84158L2.24171 7.11111C1.70486 7.14595 1.4892 7.83941 1.90704 8.18719L5.08709 10.834C5.17571 10.9087 5.24145 11.0069 5.27674 11.1173C5.31204 11.2277 5.31546 11.3458 5.2866 11.4581L4.33641 15.1959C4.175 15.8309 4.85036 16.3434 5.39432 15.9988L8.68985 13.9109C8.78254 13.8519 8.89013 13.8205 9 13.8205C9.10987 13.8205 9.21747 13.8519 9.31015 13.9109Z" fill="#F4BA63"/>
<path d="M27.3102 13.9109L30.8564 16.1576C31.3097 16.4448 31.8725 16.0177 31.738 15.4886L30.7134 11.4581C30.6845 11.3458 30.688 11.2277 30.7233 11.1173C30.7586 11.0069 30.8243 10.9087 30.9129 10.834L34.093 8.18719C34.5108 7.83941 34.2951 7.14595 33.7583 7.11111L29.6054 6.84158C29.4935 6.83359 29.3862 6.79399 29.296 6.72738C29.2058 6.66078 29.1363 6.56991 29.0957 6.46537L27.5469 2.56492C27.5048 2.45396 27.4299 2.35843 27.3322 2.29102C27.2346 2.2236 27.1187 2.1875 27 2.1875C26.8813 2.1875 26.7654 2.2236 26.6678 2.29102C26.5701 2.35843 26.4952 2.45396 26.4531 2.56492L24.9043 6.46537C24.8637 6.56991 24.7942 6.66078 24.704 6.72738C24.6138 6.79399 24.5065 6.83359 24.3946 6.84158L20.2417 7.11111C19.7049 7.14595 19.4892 7.83941 19.907 8.18719L23.0871 10.834C23.1757 10.9087 23.2414 11.0069 23.2767 11.1173C23.312 11.2277 23.3155 11.3458 23.2866 11.4581L22.3364 15.1959C22.175 15.8309 22.8504 16.3434 23.3943 15.9988L26.6898 13.9109C26.7825 13.8519 26.8901 13.8205 27 13.8205C27.1099 13.8205 27.2175 13.8519 27.3102 13.9109Z" fill="#F4BA63"/>
<path d="M45.3102 13.9109L48.8564 16.1576C49.3097 16.4448 49.8725 16.0177 49.738 15.4886L48.7134 11.4581C48.6845 11.3458 48.688 11.2277 48.7233 11.1173C48.7586 11.0069 48.8243 10.9087 48.9129 10.834L52.093 8.18719C52.5108 7.83941 52.2951 7.14595 51.7583 7.11111L47.6054 6.84158C47.4935 6.83359 47.3862 6.79399 47.296 6.72738C47.2058 6.66078 47.1363 6.56991 47.0957 6.46537L45.5469 2.56492C45.5048 2.45396 45.4299 2.35843 45.3322 2.29102C45.2346 2.2236 45.1187 2.1875 45 2.1875C44.8813 2.1875 44.7654 2.2236 44.6678 2.29102C44.5701 2.35843 44.4952 2.45396 44.4531 2.56492L42.9043 6.46537C42.8637 6.56991 42.7942 6.66078 42.704 6.72738C42.6138 6.79399 42.5065 6.83359 42.3946 6.84158L38.2417 7.11111C37.7049 7.14595 37.4892 7.83941 37.907 8.18719L41.0871 10.834C41.1757 10.9087 41.2414 11.0069 41.2767 11.1173C41.312 11.2277 41.3155 11.3458 41.2866 11.4581L40.3364 15.1959C40.175 15.8309 40.8504 16.3434 41.3943 15.9988L44.6898 13.9109C44.7825 13.8519 44.8901 13.8205 45 13.8205C45.1099 13.8205 45.2175 13.8519 45.3102 13.9109Z" fill="#F4BA63"/>
<path d="M63.3102 13.9109L66.8564 16.1576C67.3097 16.4448 67.8725 16.0177 67.738 15.4886L66.7134 11.4581C66.6845 11.3458 66.688 11.2277 66.7233 11.1173C66.7586 11.0069 66.8243 10.9087 66.9129 10.834L70.093 8.18719C70.5108 7.83941 70.2951 7.14595 69.7583 7.11111L65.6054 6.84158C65.4935 6.83359 65.3862 6.79399 65.296 6.72738C65.2058 6.66078 65.1363 6.56991 65.0957 6.46537L63.5469 2.56492C63.5048 2.45396 63.4299 2.35843 63.3322 2.29102C63.2346 2.2236 63.1187 2.1875 63 2.1875C62.8813 2.1875 62.7654 2.2236 62.6678 2.29102C62.5701 2.35843 62.4952 2.45396 62.4531 2.56492L60.9043 6.46537C60.8637 6.56991 60.7942 6.66078 60.704 6.72738C60.6138 6.79399 60.5065 6.83359 60.3946 6.84158L56.2417 7.11111C55.7049 7.14595 55.4892 7.83941 55.907 8.18719L59.0871 10.834C59.1757 10.9087 59.2414 11.0069 59.2767 11.1173C59.312 11.2277 59.3155 11.3458 59.2866 11.4581L58.3364 15.1959C58.175 15.8309 58.8504 16.3434 59.3943 15.9988L62.6898 13.9109C62.7825 13.8519 62.8901 13.8205 63 13.8205C63.1099 13.8205 63.2175 13.8519 63.3102 13.9109Z" fill="#F4BA63"/>
<path d="M81.3137 13.9154L84.8599 16.1622C85.3132 16.4493 85.876 16.0222 85.7415 15.4931L84.7169 11.4626C84.6881 11.3503 84.6915 11.2322 84.7268 11.1218C84.7621 11.0114 84.8278 10.9132 84.9165 10.8385L88.0965 8.19171C88.5143 7.84393 88.2987 7.15047 87.7618 7.11562L83.6089 6.8461C83.497 6.83811 83.3898 6.7985 83.2995 6.7319C83.2093 6.66529 83.1399 6.57443 83.0993 6.46988L81.5504 2.56944C81.5083 2.45847 81.4335 2.36294 81.3358 2.29553C81.2381 2.22812 81.1222 2.19202 81.0035 2.19202C80.8849 2.19202 80.769 2.22812 80.6713 2.29553C80.5736 2.36294 80.4988 2.45847 80.4567 2.56944L78.9078 6.46988C78.8672 6.57443 78.7978 6.66529 78.7075 6.7319C78.6173 6.7985 78.51 6.83811 78.3982 6.8461L74.2452 7.11562C73.7084 7.15047 73.4927 7.84393 73.9106 8.19171L77.0906 10.8385C77.1792 10.9132 77.245 11.0114 77.2803 11.1218C77.3156 11.2322 77.319 11.3503 77.2901 11.4626L76.34 15.2004C76.1785 15.8354 76.8539 16.3479 77.3979 16.0033L80.6934 13.9154C80.7861 13.8564 80.8937 13.8251 81.0035 13.8251C81.1134 13.8251 81.221 13.8564 81.3137 13.9154Z" fill="#767D84"/>
<mask id="mask0_8496_10186" style="mask-type:alpha" maskUnits="userSpaceOnUse" x="73" y="2" width="16" height="15">
<path d="M81.3102 13.9109L84.8564 16.1576C85.3097 16.4448 85.8725 16.0177 85.738 15.4886L84.7134 11.4581C84.6845 11.3458 84.688 11.2277 84.7233 11.1173C84.7586 11.0069 84.8243 10.9087 84.9129 10.834L88.093 8.18719C88.5108 7.83941 88.2951 7.14595 87.7583 7.11111L83.6054 6.84158C83.4935 6.83359 83.3862 6.79399 83.296 6.72738C83.2058 6.66078 83.1363 6.56991 83.0957 6.46537L81.5469 2.56492C81.5048 2.45396 81.4299 2.35843 81.3322 2.29102C81.2346 2.2236 81.1187 2.1875 81 2.1875C80.8813 2.1875 80.7654 2.2236 80.6678 2.29102C80.5701 2.35843 80.4952 2.45396 80.4531 2.56492L78.9043 6.46537C78.8637 6.56991 78.7942 6.66078 78.704 6.72738C78.6138 6.79399 78.5065 6.83359 78.3946 6.84158L74.2417 7.11111C73.7049 7.14595 73.4892 7.83941 73.907 8.18719L77.0871 10.834C77.1757 10.9087 77.2414 11.0069 77.2767 11.1173C77.312 11.2277 77.3155 11.3458 77.2866 11.4581L76.3364 15.1959C76.175 15.8309 76.8504 16.3434 77.3943 15.9988L80.6898 13.9109C80.7825 13.8519 80.8901 13.8205 81 13.8205C81.1099 13.8205 81.2175 13.8519 81.3102 13.9109Z" fill="#C8CBCE"/>
</mask>
<g mask="url(#mask0_8496_10186)">
<rect x="72.45" y="0.0499878" width="9.9" height="18" fill="#F4BA63"/>
</g>
</svg>
