<svg xmlns="http://www.w3.org/2000/svg" width="24" height="24" fill="none" viewBox="0 0 24 24">
  <path stroke="#3B444C" stroke-linecap="round" stroke-linejoin="round" stroke-width="1.5" d="M19.765 5.7V4.453c0-.388-.294-.703-.657-.703h-16.2c-.363 0-.657.315-.657.703v15.094c0 .388.294.703.657.703h3.149M2.25 8.4h3.806m8.402.6c-5.354 0-7.291 5.25-7.291 5.25s1.937 5.25 7.291 5.25c5.355 0 7.292-5.25 7.292-5.25S19.813 9 14.459 9Zm1.568 5.325c0 .953-.739 1.725-1.591 1.725-.853 0-1.68-.772-1.68-1.725 0-.953.827-1.725 1.68-1.725.852 0 1.59.772 1.59 1.725Z" vector-effect="non-scaling-stroke"/>
</svg>
