<svg width="32" height="32" viewBox="0 0 32 32" fill="none" xmlns="http://www.w3.org/2000/svg">
<path d="M0 8C0 3.58172 3.58172 0 8 0H24C28.4183 0 32 3.58172 32 8V24C32 28.4183 28.4183 32 24 32H8C3.58172 32 0 28.4183 0 24V8Z" fill="#EDF1F5"/>
<path d="M18.8421 21.2609H13.1029C12.7069 21.2609 12.3855 20.9398 12.3855 20.5435C12.3855 19.5545 11.9647 18.1655 11.2609 17.5534C9.33243 15.8779 8.45806 13.3649 8.92191 10.8316C9.53937 7.45579 12.5019 5.00327 15.9664 5C15.9683 5 15.9706 5 15.973 5C17.8879 5 19.6884 5.74516 21.0433 7.09894C22.3996 8.45435 23.1464 10.2567 23.1464 12.1739C23.1464 14.235 22.2473 16.1973 20.6799 17.5574C19.9784 18.1659 19.5595 19.5535 19.5595 20.5435C19.5595 20.9398 19.2381 21.2609 18.8421 21.2609Z" fill="#FFB549"/>
<path d="M16 8C16.267 9.24934 16.8054 10.6222 17.5915 11.4085C18.3778 12.1945 19.7507 12.733 21 13C19.751 13.2675 18.3775 13.8049 17.5915 14.5908C16.8056 15.377 16.2677 16.7505 16.0007 18C15.7333 16.7507 15.1952 15.3774 14.4092 14.5915C13.6232 13.8052 12.2497 13.2677 11 13.0007C12.2491 12.7332 13.6224 12.1949 14.4085 11.4092C15.1949 10.6229 15.7326 9.24959 16 8Z" fill="#FFE5BE"/>
<path d="M17.4078 22.6958H14.5382C14.1413 22.6958 13.8208 23.0162 13.8208 23.4132V24.848C13.8208 26.034 14.7869 27.0002 15.973 27.0002C17.0826 27.0002 17.996 26.1584 18.1156 25.0776C18.1203 25.001 18.1252 24.9245 18.1252 24.848V23.4132C18.1252 23.0162 17.8047 22.6958 17.4078 22.6958Z" fill="#596168"/>
<path d="M17.4075 24.1304H14.5379C13.3493 24.1304 12.3857 23.1669 12.3857 21.9782V20.5435H19.5597V21.9782C19.5597 23.1669 18.5961 24.1304 17.4075 24.1304Z" fill="#767D84"/>
<path d="M20.6499 5C20.7834 5.6245 21.0528 6.31136 21.4454 6.70423C21.8385 7.09705 22.5255 7.36613 23.1499 7.49963C22.5255 7.63356 21.8383 7.90221 21.4454 8.29503C21.0525 8.68812 20.7841 9.3752 20.6506 10C20.5169 9.37547 20.2475 8.68866 19.8544 8.29577C19.4612 7.9027 18.7747 7.63407 18.1499 7.50037C18.7745 7.36665 19.4612 7.09688 19.8544 6.70423C20.2475 6.31112 20.5162 5.62451 20.6499 5Z" fill="white"/>
<circle cx="24" cy="8" r="5" fill="#F33E3E" stroke="#EDF1F5" stroke-width="2"/>
</svg>
