<svg xmlns="http://www.w3.org/2000/svg" width="24" height="24" fill="none" viewBox="0 0 24 24">
  <path fill="url(#a)" d="M3 3a2 2 0 0 1 2-2h15a1 1 0 0 1 1 1v16h-9v2H3V3Z"/>
  <path fill="#B8E1FF" d="M3 20a2 2 0 0 1 2-2h16v1h-1a1 1 0 0 0-1 1v1a1 1 0 0 0 1 1h1v1H5a2 2 0 0 1-2-2v-1Z"/>
  <path fill="#E5F2FF" d="M8 14.5a.5.5 0 0 1 .5-.5h7a.5.5 0 0 1 0 1h-7a.5.5 0 0 1-.5-.5Zm8-6.883v.766a.313.313 0 0 1-.25.296l-.628.109a.246.246 0 0 1-.061.003c-.074.286-.187.56-.338.814a.25.25 0 0 1 .042.044l.368.522a.312.312 0 0 1-.033.386l-.543.543a.312.312 0 0 1-.386.033l-.521-.368a.234.234 0 0 1-.046-.041 3.148 3.148 0 0 1-.821.339.265.265 0 0 1 0 .093l-.097.56a.355.355 0 0 1-.337.284h-.698a.355.355 0 0 1-.337-.283l-.097-.56a.26.26 0 0 1 0-.094 3.148 3.148 0 0 1-.822-.34.232.232 0 0 1-.045.042l-.521.368a.312.312 0 0 1-.386-.033l-.543-.543a.312.312 0 0 1-.033-.385l.368-.522a.242.242 0 0 1 .041-.045 3.142 3.142 0 0 1-.337-.814c-.02.002-.04 0-.06-.003l-.63-.109A.312.312 0 0 1 8 8.383v-.766a.312.312 0 0 1 .25-.296l.628-.109a.233.233 0 0 1 .061-.003c.074-.285.187-.56.337-.813a.248.248 0 0 1-.041-.045l-.368-.522a.313.313 0 0 1 .033-.386l.543-.543a.312.312 0 0 1 .386-.033l.521.368a.237.237 0 0 1 .046.042c.253-.15.527-.264.813-.338a.202.202 0 0 1 .003-.06l.108-.63A.312.312 0 0 1 11.616 4h.768a.312.312 0 0 1 .296.25l.108.628c.004.02.005.04.003.061.286.074.56.188.813.338a.237.237 0 0 1 .046-.042l.521-.368a.312.312 0 0 1 .386.033l.543.543a.312.312 0 0 1 .033.386l-.368.522a.247.247 0 0 1-.042.045c.15.254.264.528.338.813a.23.23 0 0 1 .06.003l.63.109a.312.312 0 0 1 .249.296ZM13.362 8a1.363 1.363 0 1 0-2.725.001A1.363 1.363 0 0 0 13.362 8Z"/>
  <defs>
    <linearGradient id="a" x1="12" x2="12" y1="1" y2="21" gradientUnits="userSpaceOnUse">
      <stop stop-color="#00C0FF"/>
      <stop offset="1" stop-color="#4F5FFF"/>
    </linearGradient>
  </defs>
</svg>
