<!--
  - Copyright (c) 2024. Devtron Inc.
  -
  - Licensed under the Apache License, Version 2.0 (the "License");
  - you may not use this file except in compliance with the License.
  - You may obtain a copy of the License at
  -
  -     http://www.apache.org/licenses/LICENSE-2.0
  -
  - Unless required by applicable law or agreed to in writing, software
  - distributed under the License is distributed on an "AS IS" BASIS,
  - WITHOUT WARRANTIES OR CONDITIONS OF ANY KIND, either express or implied.
  - See the License for the specific language governing permissions and
  - limitations under the License.
  -->

<svg width="116" height="48" viewBox="0 0 116 48" fill="none" xmlns="http://www.w3.org/2000/svg">
<g style="mix-blend-mode:luminosity">
<path fill-rule="evenodd" clip-rule="evenodd" d="M35.2638 21.2253L21.1828 7.14503C20.445 6.41172 19.4468 6 18.4063 6C17.3657 6 16.3677 6.41172 15.6297 7.14503L1.54866 21.2253C0.814976 21.9631 0.403259 22.9612 0.403259 24.0015C0.403259 25.0418 0.814976 26.0399 1.54866 26.7777L15.6297 40.8546C16.3675 41.5883 17.3657 42 18.4063 42C19.447 42 20.4452 41.5883 21.1828 40.8546L35.2616 26.7777C35.9955 26.0403 36.4076 25.0422 36.4079 24.0019C36.4085 22.9615 35.9972 21.9635 35.2638 21.2253ZM4.90317 22.8976C5.12193 22.8972 5.33564 22.9619 5.51775 23.0831C5.69968 23.2046 5.84159 23.377 5.92554 23.5789C6.00949 23.7809 6.03156 24.0034 5.98911 24.2176C5.94667 24.4323 5.84159 24.6294 5.68715 24.7842C5.53271 24.939 5.33582 25.0444 5.12137 25.0874C4.90691 25.1304 4.68459 25.1088 4.48229 25.0254C4.41367 24.9969 4.34841 24.9618 4.28746 24.921C4.25586 24.8997 4.22557 24.8769 4.1964 24.8526C4.11582 24.7853 4.04477 24.7068 3.98568 24.6185C3.9496 24.5647 3.91856 24.5082 3.89257 24.4495C3.87817 24.417 3.86546 24.3833 3.85424 24.3493C3.81759 24.2386 3.79871 24.1223 3.79852 24.0019C3.79871 23.7091 3.91501 23.4282 4.12218 23.2211C4.32934 23.0139 4.61018 22.8976 4.90317 22.8976ZM13.705 27.1311C15.6099 28.7981 17.3721 29.6313 18.9922 29.6317C19.2863 29.6485 19.5791 29.6186 19.8602 29.5445C20.1582 29.4656 20.4431 29.3374 20.7025 29.1631C20.8192 29.0786 20.9226 28.9784 21.0101 28.8651C21.0718 28.785 21.1256 28.6987 21.1703 28.6074C21.2784 28.3864 21.3305 28.1426 21.3223 27.8969C21.3287 27.6475 21.2716 27.4003 21.1568 27.1789C21.1026 27.0746 21.0364 26.9774 20.9599 26.8895C20.9147 26.8375 20.8661 26.7889 20.8141 26.7437C20.767 26.7029 20.7173 26.6648 20.6651 26.63C20.4112 26.4509 20.0146 26.2695 19.4752 26.0866L19.3219 26.0361C19.1897 25.9931 19.0496 25.9501 18.9017 25.9071C18.643 25.832 18.3603 25.7564 18.0536 25.6805C15.992 25.1907 14.485 24.5527 13.5326 23.7667C12.5771 22.9799 12.0994 21.7473 12.0992 20.0683C12.0991 18.3893 12.7035 17.0928 13.9127 16.1792C15.1194 15.2683 16.6264 14.8128 18.4337 14.8128C19.6423 14.8177 20.8416 15.023 21.9827 15.4209C23.1122 15.7959 24.1609 16.3808 25.0741 17.144L25.3082 19.5519L23.0707 20.0313C21.5355 18.8657 19.9477 18.2827 18.3077 18.2823C17.7498 18.2513 17.1988 18.4162 16.75 18.749C16.5653 18.8979 16.4178 19.0874 16.3191 19.3032C16.2202 19.5186 16.1727 19.7542 16.1803 19.9913C16.179 20.1016 16.1908 20.2112 16.2151 20.3181C16.2452 20.4512 16.2948 20.5795 16.3626 20.6992C16.4849 20.9149 16.6622 21.0944 16.8764 21.2197C17.3407 21.5233 18.4135 21.882 20.0954 22.2959C21.777 22.7099 23.0819 23.3306 24.0099 24.1574C24.9389 24.9854 25.4036 26.1928 25.4039 27.7799C25.4251 28.518 25.2747 29.251 24.9647 29.9211C24.6549 30.5916 24.1939 31.1806 23.618 31.6428C22.4258 32.6326 20.8594 33.1266 18.918 33.1251C16.1211 33.1251 13.6029 32.0934 11.3631 30.0295L13.7186 29.5352L13.705 27.1311ZM31.5694 25.0702C31.4511 25.0392 31.3381 24.9887 31.2355 24.9203C31.0536 24.7988 30.9118 24.626 30.8283 24.4241C30.7445 24.2218 30.7226 23.9996 30.7652 23.785C30.8079 23.5707 30.9131 23.3736 31.068 23.2188C31.2226 23.0644 31.4195 22.9589 31.6341 22.9163C31.8486 22.8737 32.0709 22.8957 32.273 22.9791L32.3052 22.9933L32.322 23.0008L32.3441 23.0117C32.3764 23.0277 32.4078 23.0453 32.4381 23.0644C32.4564 23.076 32.4746 23.0879 32.4921 23.1007L32.5303 23.1291C32.6226 23.2012 32.7034 23.288 32.7692 23.3864C32.8908 23.5685 32.9556 23.782 32.9556 24.0007C32.9556 24.1458 32.927 24.2898 32.8715 24.4241C32.816 24.5579 32.7345 24.6798 32.6318 24.7827C32.5292 24.8855 32.4072 24.9667 32.273 25.0224C32.2036 25.0508 32.1317 25.0725 32.0582 25.0863C32.017 25.0942 31.9755 25.0998 31.9338 25.1031L31.9041 25.105L31.8779 25.1058L31.8499 25.1065C31.7547 25.1065 31.6605 25.0942 31.5694 25.0702Z" fill="#fff"/>
<path d="M53.4951 20.5144C52.6104 19.7149 51.7695 19.5044 51.1383 19.5044C50.7384 19.5044 50.1702 19.5665 49.8114 19.8619C49.6623 19.9853 49.5417 20.1394 49.4582 20.3136C49.4178 20.3981 49.3866 20.486 49.3649 20.5761C49.3415 20.673 49.329 20.7721 49.3277 20.8719C49.3258 21.057 49.3688 21.2399 49.4531 21.4048C49.492 21.4811 49.5391 21.5525 49.5935 21.6176C49.6128 21.6408 49.6332 21.6632 49.6543 21.6849L49.693 21.7227L49.7158 21.7432L49.7523 21.7739C49.7715 21.7896 49.7912 21.8046 49.8114 21.8188C49.8712 21.87 49.9344 21.9175 50.0028 21.9639C50.0395 21.9885 50.0778 22.0128 50.118 22.0371C50.3601 22.183 50.669 22.3236 51.1097 22.524L51.1793 22.5558L52.0001 22.9346C52.7155 23.2297 53.3502 23.6907 53.8517 24.2801C54.3509 24.8967 54.6056 25.676 54.5671 26.4684C54.5831 27.8053 54.0774 29.0962 53.1573 30.0662C52.021 31.1813 50.5692 31.4337 49.1381 31.4337C48.1658 31.4767 47.1995 31.2587 46.3398 30.8025C45.6413 30.4054 45.0093 29.9013 44.4669 29.3086L46.2766 26.9942C46.6059 27.4284 47.0047 27.8053 47.4568 28.1093C47.9517 28.4096 48.5192 28.5696 49.0982 28.5723C49.6487 28.5753 50.1887 28.4219 50.6554 28.1303C50.8463 27.9717 50.9985 27.772 51.1007 27.5462C51.1593 27.4168 51.2004 27.2803 51.2236 27.1408C51.2408 27.0372 51.2481 26.9318 51.2449 26.8259C51.247 26.7362 51.2397 26.6464 51.2232 26.5586C51.2068 26.4703 51.1811 26.3835 51.1467 26.3002C51.1032 26.1943 51.046 26.0952 50.9768 26.0051C50.9368 25.9531 50.8928 25.9038 50.8451 25.8581C50.5189 25.5762 50.1397 25.3615 49.7298 25.2269L48.9092 24.8904C48.1768 24.6058 47.5056 24.184 46.931 23.6481C46.6242 23.3351 46.3839 22.963 46.2248 22.5543C46.1958 22.4799 46.1697 22.4047 46.1463 22.3285C46.1306 22.2768 46.116 22.2249 46.1027 22.1729L46.0908 22.1235L46.081 22.082L46.0666 22.0136C46.0379 21.8692 46.0188 21.723 46.0096 21.5761C46.0033 21.4747 46.0018 21.373 46.0051 21.2709C45.9928 20.6838 46.0981 20.1005 46.3149 19.5545C46.5318 19.0089 46.8561 18.5123 47.2681 18.0939C48.4044 16.9787 49.8561 16.7671 51.0555 16.7671C52.5313 16.7338 53.9708 17.2259 55.1168 18.1559L53.4951 20.5144Z" fill="#fff"/>
<path fill-rule="evenodd" clip-rule="evenodd" d="M55.6622 35.9357H58.6934L59.4493 29.9619C59.54 30.0897 59.6391 30.2109 59.7455 30.3253C59.8169 30.402 59.8917 30.4753 59.9695 30.5452C60.1815 30.7356 60.4165 30.9001 60.6699 31.0347C61.308 31.3301 62.0083 31.4674 62.7109 31.4345C63.2995 31.4588 63.8864 31.3586 64.4339 31.1409C64.9813 30.9237 65.4768 30.5931 65.8883 30.1716C66.8142 29.2461 67.4666 27.7522 67.4666 25.964C67.4666 24.5123 66.9819 23.208 66.2243 22.4507C65.7195 21.9657 64.8357 21.4186 63.384 21.4186C62.7118 21.4026 62.0464 21.5544 61.4479 21.861C60.9956 22.1033 60.5953 22.4324 60.2696 22.8288L60.438 21.7346H57.4087L55.6622 35.9357ZM59.8625 25.6102C59.9929 25.2841 60.1896 24.9891 60.4401 24.743C60.6342 24.5419 60.8638 24.3773 61.1164 24.2573L61.154 24.2397L61.2013 24.2188L61.2482 24.1993C61.5526 24.0763 61.8794 24.0176 62.2078 24.0269L62.2605 24.0258C62.2788 24.0254 62.2973 24.0251 62.3156 24.0254L62.36 24.0262L62.3818 24.0269C62.4215 24.0284 62.4609 24.031 62.5002 24.0348C62.5823 24.0426 62.6636 24.0553 62.7438 24.0729C62.8868 24.1043 63.0265 24.1511 63.1602 24.2124C63.4049 24.3246 63.6252 24.4839 63.8084 24.6813C63.8997 24.7797 63.9808 24.8863 64.0509 24.9999C64.1214 25.1144 64.1807 25.2359 64.2276 25.3627C64.3211 25.6151 64.3641 25.8836 64.3538 26.1528C64.3398 26.9082 64.0388 27.6303 63.5121 28.1725C63.0529 28.5936 62.4519 28.8262 61.8288 28.8247C61.7743 28.8266 61.7199 28.8262 61.6655 28.8232C61.3916 28.8101 61.1231 28.7428 60.8754 28.6257C60.6274 28.5083 60.4051 28.3438 60.221 28.1407C60.1886 28.1052 60.1576 28.0686 60.1279 28.0304C60.1097 28.0076 60.0921 27.9844 60.0751 27.9609C60.0575 27.9366 60.0405 27.9119 60.0239 27.8868C60.0039 27.8565 59.9848 27.8259 59.9665 27.7945C59.9011 27.6826 59.8461 27.5648 59.8021 27.4422C59.7543 27.3087 59.7202 27.1707 59.7004 27.0309C59.6946 26.9901 59.6901 26.9493 59.6868 26.9086C59.6795 26.8184 59.678 26.7276 59.6825 26.6367C59.6709 26.2856 59.7322 25.9363 59.8625 25.6102Z" fill="#fff"/>
<path d="M73.1693 21.9915L72.011 31.3754H68.9816L70.139 21.9915H73.1693Z" fill="#fff"/>
<path d="M72.0538 16.7981C72.4035 16.7981 72.7452 16.9017 73.0358 17.0958C73.0848 17.1287 73.1319 17.1639 73.1772 17.2012C73.2215 17.2375 73.2639 17.2757 73.3043 17.316C73.3245 17.3362 73.3443 17.3572 73.3636 17.3785C73.4991 17.5281 73.6089 17.7005 73.6868 17.8889C73.8207 18.212 73.8557 18.5673 73.7874 18.9102C73.7192 19.2531 73.5509 19.568 73.3037 19.8151C73.2 19.9191 73.0842 20.0089 72.9593 20.0833C72.7869 20.1861 72.5975 20.259 72.3988 20.2987C72.0559 20.3667 71.7004 20.3319 71.3775 20.1981C71.0546 20.0642 70.7785 19.838 70.5842 19.5474C70.4645 19.3679 70.3793 19.1693 70.3314 18.9618C70.3017 18.8324 70.2863 18.6997 70.2863 18.5654C70.2822 18.101 70.4627 17.6537 70.788 17.3224C71.1133 16.9911 71.5572 16.8026 72.0217 16.7981H72.0538Z" fill="#fff"/>
<path d="M78.6396 23.0236L78.7869 21.9915L75.7574 21.9919L74.6 31.3754H77.6292L78.1765 26.7467C78.2402 26.2418 78.3664 25.3369 78.9135 24.7688C79.0074 24.6791 79.1102 24.5994 79.2203 24.5318C79.3226 24.4686 79.4313 24.4155 79.5447 24.3736C79.6926 24.319 79.8467 24.2838 80.0028 24.2689C80.0952 24.2603 80.1883 24.2588 80.2814 24.264C80.6913 24.2453 81.092 24.3889 81.3965 24.6638C81.6637 24.9801 81.7993 25.3866 81.7753 25.7998C81.7679 26.3073 81.7256 26.8132 81.6491 27.3147L81.1441 31.3754H84.1744L84.7419 26.5574C84.8286 25.9647 84.8778 25.3675 84.8892 24.7688C84.8892 24.2008 84.8268 23.254 84.0897 22.539C83.3742 21.8446 82.4271 21.7395 81.6488 21.7395C81.3386 21.7212 81.0288 21.7436 80.7272 21.8057C80.4044 21.8722 80.0913 21.984 79.797 22.1392C79.3652 22.3685 78.9743 22.6672 78.6396 23.0236Z" fill="#fff"/>
<path d="M90.7181 21.9915L90.5706 23.0236C90.9053 22.6672 91.2963 22.3685 91.728 22.1389C92.2973 21.8397 92.9375 21.7013 93.5798 21.7391C94.3583 21.7391 95.3052 21.8446 96.0207 22.5386C96.758 23.254 96.8204 24.2008 96.8204 24.7688C96.8088 25.3675 96.7596 25.9647 96.6729 26.5574L96.1049 31.3754H93.0748L93.5798 27.3147C93.6562 26.8132 93.6985 26.3073 93.706 25.7998C93.7299 25.3866 93.5944 24.9801 93.3274 24.6638C93.0226 24.3889 92.6219 24.2453 92.2121 24.264C91.9615 24.2494 91.7108 24.2868 91.4756 24.3736C91.2402 24.4607 91.0253 24.5953 90.8443 24.7688C90.5532 25.071 90.3812 25.4685 90.2744 25.8503C90.1806 26.1865 90.137 26.5103 90.1071 26.7467L89.56 31.3754H86.5307L87.688 21.9919L90.7181 21.9915Z" fill="#fff"/>
<path d="M98.1457 21.7346L101.786 29.9189L97.9157 35.9357H101.325L110.393 21.7346H106.835L103.679 26.8686L101.596 21.7346H98.1457Z" fill="#fff"/>
<path fill-rule="evenodd" clip-rule="evenodd" d="M112.601 22.6205H113.028C113.214 22.6052 113.4 22.6478 113.56 22.7424C113.643 22.7996 113.71 22.8767 113.756 22.966C113.802 23.0558 113.825 23.1553 113.823 23.2558C113.826 23.3194 113.818 23.3826 113.8 23.4428C113.786 23.4929 113.764 23.5412 113.737 23.5864C113.711 23.629 113.68 23.6676 113.645 23.702C113.598 23.748 113.543 23.7861 113.482 23.8145L114.085 24.6409H113.497L113.083 24.049V24.6406H112.601V22.6205ZM113.084 23.4537C113.263 23.4503 113.354 23.3849 113.354 23.2588C113.353 23.171 113.321 23.0816 113.084 23.0808V23.4537Z" fill="#fff"/>
<path fill-rule="evenodd" clip-rule="evenodd" d="M113.169 21.5817C112.619 21.597 112.097 21.8262 111.714 22.2204C111.331 22.6145 111.116 23.1425 111.116 23.6926C111.116 24.2423 111.331 24.7703 111.714 25.1645C111.894 25.3496 112.105 25.4984 112.334 25.6057C112.477 25.6723 112.626 25.7228 112.781 25.7561C112.907 25.7837 113.037 25.7994 113.169 25.8032C113.319 25.8073 113.469 25.7957 113.616 25.7684C113.745 25.7441 113.872 25.7078 113.995 25.66C114.121 25.6106 114.242 25.5493 114.356 25.4771C114.48 25.3993 114.595 25.3084 114.7 25.2064C114.903 25.0097 115.063 24.7741 115.173 24.5142C115.283 24.2543 115.34 23.9746 115.34 23.6926C115.34 23.5793 115.331 23.4664 115.313 23.3553C115.286 23.1893 115.239 23.0266 115.173 22.8707C115.063 22.6108 114.903 22.3756 114.7 22.1785C114.638 22.1183 114.573 22.0622 114.505 22.0102C114.349 21.8924 114.178 21.7963 113.995 21.7253C113.881 21.6804 113.763 21.646 113.643 21.6221C113.488 21.591 113.329 21.5772 113.169 21.5817ZM114.872 23.6934C114.873 24.0303 114.773 24.3597 114.586 24.6398C114.506 24.7595 114.412 24.8676 114.306 24.9625C114.163 25.0901 114 25.1933 113.821 25.2673C113.51 25.3963 113.168 25.4304 112.837 25.3645C112.67 25.3313 112.511 25.2737 112.363 25.1944C112.217 25.1162 112.083 25.0168 111.965 24.8986C111.926 24.8597 111.889 24.8193 111.854 24.7774C111.676 24.5609 111.553 24.3029 111.498 24.0266C111.469 23.8807 111.46 23.7326 111.469 23.586C111.48 23.4002 111.523 23.2162 111.595 23.0423C111.724 22.7308 111.942 22.4649 112.222 22.2776C112.503 22.0906 112.832 21.9908 113.169 21.9908C113.62 21.9911 114.053 22.1703 114.373 22.4893C114.692 22.8086 114.872 23.2413 114.872 23.6934Z" fill="#fff"/>
</g>
</svg>
