<svg xmlns="http://www.w3.org/2000/svg" width="24" height="24" viewBox="0 0 24 24" fill="none">
  <path data-style-override="false" d="M13.1011 11.2582C11.6579 9.81463 10.6701 7.29371 10.1799 5C9.68891 7.29418 8.70216 9.81562 7.25844 11.2592C5.81526 12.7018 3.2934 13.6896 1 14.1808C3.29434 14.6709 5.81573 15.6581 7.25891 17.1018C8.7021 18.5448 9.6899 21.0663 10.1809 23.36C10.6711 21.0658 11.6586 18.5444 13.1016 17.1008C14.5447 15.6577 17.0666 14.6704 19.36 14.1792C17.0662 13.6891 14.5448 12.7014 13.1011 11.2582Z" fill="url(#paint0_linear_5529_7104)"/>
  <path data-style-override="false" d="M20.008 3.99358C19.3183 3.30355 18.8451 2.09705 18.6106 1C18.3757 2.09705 17.9041 3.3035 17.2136 3.99396C16.5231 4.68367 15.3168 5.15649 14.22 5.39138C15.3172 5.62622 16.5231 6.09829 17.2136 6.78875C17.9041 7.47883 18.3766 8.68529 18.6114 9.78233C18.8458 8.68486 19.3183 7.47883 20.0084 6.78837C20.6985 6.09829 21.9049 5.6258 23.0016 5.39058C21.905 5.15612 20.6985 4.68367 20.008 3.99358Z" fill="#CE89B8"/>
  <defs>
    <linearGradient id="paint0_linear_5529_7104" x1="1.43214" y1="4.88796" x2="21.0646" y2="7.63563" gradientUnits="userSpaceOnUse">
      <stop stop-color="#FFAF7B"/>
      <stop offset="0.499527" stop-color="#D76D77"/>
      <stop offset="1" stop-color="#A17EE1"/>
    </linearGradient>
  </defs>
</svg>