<svg
    width="24"
    height="24"
    viewBox="0 0 24 24"
    fill="none"
    xmlns="http://www.w3.org/2000/svg"
>
    <path
        data-style-override="false"
        d="m22.898 11.262-5.933-2.196-2.215-7.26a.666.666 0 0 0-1.275 0l-2.214 7.26-5.934 2.196a.667.667 0 0 0 0 1.25l5.93 2.196 2.216 7.482a.666.666 0 0 0 1.279 0l2.216-7.483 5.93-2.195a.665.665 0 0 0 0-1.25"
        fill="#FFAC33"
    />
    <path
        data-style-override="false"
        d="m9.565 18.597-1.543-.571-.6-2.2a.665.665 0 0 0-1.286 0l-.6 2.2-1.542.57a.667.667 0 0 0 0 1.25l1.534.57.605 2.414a.667.667 0 0 0 1.293 0l.605-2.415 1.534-.57a.665.665 0 0 0 0-1.248M6.673 4.153 5.097 3.57l-.584-1.577a.666.666 0 0 0-1.251 0L2.679 3.57l-1.577.583a.667.667 0 0 0 0 1.251l1.577.583.583 1.577a.667.667 0 0 0 1.25 0l.584-1.577 1.577-.583a.667.667 0 0 0 0-1.25"
        fill="#FFCC4D"
    />
</svg>
