<!--
  - Copyright (c) 2024. Devtron Inc.
  -
  - Licensed under the Apache License, Version 2.0 (the "License");
  - you may not use this file except in compliance with the License.
  - You may obtain a copy of the License at
  -
  -     http://www.apache.org/licenses/LICENSE-2.0
  -
  - Unless required by applicable law or agreed to in writing, software
  - distributed under the License is distributed on an "AS IS" BASIS,
  - WITHOUT WARRANTIES OR CONDITIONS OF ANY KIND, either express or implied.
  - See the License for the specific language governing permissions and
  - limitations under the License.
  -->

<svg xmlns="http://www.w3.org/2000/svg" width="24" height="24" fill="none" viewBox="0 0 24 24">
  <path stroke="#3B444C" stroke-linecap="round" stroke-linejoin="round" stroke-width="1.5" d="M3.418 15.095c0-.594.488-1.074 1.09-1.074h4.36c.602 0 1.09.48 1.09 1.073v4.295c0 .593-.488 1.074-1.09 1.074h-4.36c-.602 0-1.09-.48-1.09-1.074v-4.294Zm17.442 2.147c0 2.075-1.709 3.758-3.816 3.758-2.107 0-3.815-1.683-3.815-3.758 0-2.076 1.708-3.758 3.815-3.758s3.816 1.682 3.816 3.758ZM3.117 8.709l2.596-5.115c.402-.792 1.548-.792 1.95 0l2.597 5.115c.362.714-.165 1.554-.975 1.554H4.092c-.81 0-1.338-.84-.975-1.554Zm13.287-5.504a1.104 1.104 0 0 1 1.281 0l2.866 2.05c.382.274.542.759.396 1.201l-1.095 3.318a1.089 1.089 0 0 1-1.037.742h-3.542c-.472 0-.89-.3-1.037-.742l-1.094-3.318a1.065 1.065 0 0 1 .396-1.2l2.866-2.05Z" vector-effect="non-scaling-stroke"/>
</svg>
