<svg xmlns="http://www.w3.org/2000/svg" width="24" height="24" fill="none" viewBox="0 0 24 24">
  <path stroke="#3B444C" stroke-linecap="round" stroke-linejoin="round" stroke-width="1.47" d="M20.028 6.058c0-.453-.297-.856-.737-1L11.14 2.4 2.987 5.06c-.44.143-.737.546-.737 1v3.983c0 8.301 7.203 11.051 8.64 11.518a.783.783 0 0 0 .497 0M8.123 10.042h2.34m-2.34 3.306h.47m6.701 4.754H12.81a.423.423 0 0 1-.293-.117.39.39 0 0 1-.121-.281v-2.221a.384.384 0 0 1 .12-.281l6.214-5.965a.423.423 0 0 1 .586 0l2.314 2.221a.39.39 0 0 1 0 .562l-6.335 6.082Z" vector-effect="non-scaling-stroke"/>
</svg>
