<svg xmlns="http://www.w3.org/2000/svg" width="20" height="20" viewBox="0 0 20 20" fill="none">
  <g clip-path="url(#clip0_292_6476)">
    <path data-style-override="false" d="M10.8394 6.04853C9.63671 4.84552 8.81354 2.74476 8.40503 0.833334C7.99588 2.74515 7.17359 4.84635 5.9705 6.04936C4.76784 7.25154 2.6663 8.07466 0.755127 8.48397C2.66708 8.89245 4.76823 9.71508 5.97089 10.9181C7.17354 12.1207 7.99671 14.2219 8.40586 16.1333C8.81437 14.2215 9.6373 12.1203 10.8398 10.9173C12.0424 9.71474 14.144 8.89201 16.0551 8.4827C14.1436 8.07422 12.0425 7.25115 10.8394 6.04853Z" fill="url(#paint0_linear_292_6476)"/>
    <path data-style-override="false" d="M16.7502 14.4632C16.1754 13.8882 15.781 12.8828 15.5856 11.9686C15.3899 12.8828 14.9968 13.8882 14.4214 14.4636C13.8461 15.0383 12.8408 15.4323 11.9268 15.6281C12.8411 15.8238 13.8461 16.2172 14.4214 16.7925C14.9968 17.3676 15.3906 18.373 15.5863 19.2872C15.7816 18.3726 16.1754 17.3676 16.7504 16.7922C17.3255 16.2172 18.3309 15.8234 19.2448 15.6274C18.3309 15.432 17.3255 15.0383 16.7502 14.4632Z" fill="#CE89B8"/>
  </g>
  <defs>
    <linearGradient id="paint0_linear_292_6476" x1="1.11525" y1="0.739966" x2="17.4757" y2="3.0297" gradientUnits="userSpaceOnUse">
      <stop stop-color="#FFAF7B"/>
      <stop offset="0.499527" stop-color="#D76D77"/>
      <stop offset="1" stop-color="#A17EE1"/>
    </linearGradient>
    <clipPath id="clip0_292_6476">
      <rect width="20" height="20" fill="white"/>
    </clipPath>
  </defs>
</svg>