<svg xmlns="http://www.w3.org/2000/svg" width="24" height="24" fill="none" viewBox="0 0 24 24">
  <path stroke="#3B444C" stroke-linecap="round" stroke-linejoin="round" stroke-width="1.5" d="m12 7.01.01-.011M16 9.01l.01-.011M8 9.01l.01-.011M18 13.01l.01-.011M6 13.01l.01-.011M17 17.01l.01-.011M7 17.01l.01-.011M13 11l-.669 6.018M8.5 20.001H4A9.956 9.956 0 0 1 2 14C2 8.477 6.477 4 12 4s10 4.477 10 10c0 2.252-.744 4.33-2 6.001L15.5 20m-3.169-2.982a3 3 0 1 1-.663 5.964 3 3 0 0 1 .663-5.964Z" vector-effect="non-scaling-stroke"/>
</svg>
