<svg xmlns="http://www.w3.org/2000/svg" width="20" height="20" viewBox="0 0 20 20" fill="none">
<path d="M4.20195 12.6381C4.20195 13.7944 3.25733 14.7391 2.10098 14.7391C0.944625 14.7391 0 13.7944 0 12.6381C0 11.4817 0.944625 10.5371 2.10098 10.5371H4.20195V12.6381Z" fill="#E01E5A" vector-effect="non-scaling-stroke"/>
<path d="M5.26074 12.6381C5.26074 11.4817 6.20537 10.5371 7.36172 10.5371C8.51807 10.5371 9.4627 11.4817 9.4627 12.6381V17.8987C9.4627 19.055 8.51807 19.9997 7.36172 19.9997C6.20537 19.9997 5.26074 19.055 5.26074 17.8987V12.6381Z" fill="#E01E5A" vector-effect="non-scaling-stroke" />
<path d="M7.36172 4.20195C6.20537 4.20195 5.26074 3.25733 5.26074 2.10098C5.26074 0.944625 6.20537 0 7.36172 0C8.51807 0 9.4627 0.944625 9.4627 2.10098V4.20195H7.36172Z" fill="#36C5F0" vector-effect="non-scaling-stroke" />
<path d="M7.36156 5.26074C8.51792 5.26074 9.46254 6.20537 9.46254 7.36172C9.46254 8.51807 8.51792 9.4627 7.36156 9.4627H2.10098C0.944626 9.4627 0 8.51807 0 7.36172C0 6.20537 0.944626 5.26074 2.10098 5.26074H7.36156Z" fill="#36C5F0" vector-effect="non-scaling-stroke" />
<path d="M15.7983 7.36172C15.7983 6.20537 16.743 5.26074 17.8993 5.26074C19.0557 5.26074 20.0003 6.20537 20.0003 7.36172C20.0003 8.51807 19.0557 9.4627 17.8993 9.4627H15.7983V7.36172Z" fill="#2EB67D" vector-effect="non-scaling-stroke" />
<path d="M14.7396 7.36156C14.7396 8.51792 13.7949 9.46254 12.6386 9.46254C11.4822 9.46254 10.5376 8.51792 10.5376 7.36156V2.10098C10.5376 0.944626 11.4822 0 12.6386 0C13.7949 0 14.7396 0.944626 14.7396 2.10098V7.36156Z" fill="#2EB67D" vector-effect="non-scaling-stroke" />
<path d="M12.6386 15.7979C13.7949 15.7979 14.7396 16.7425 14.7396 17.8988C14.7396 19.0552 13.7949 19.9998 12.6386 19.9998C11.4822 19.9998 10.5376 19.0552 10.5376 17.8988V15.7979H12.6386Z" fill="#ECB22E" vector-effect="non-scaling-stroke" />
<path d="M12.6386 14.7391C11.4822 14.7391 10.5376 13.7944 10.5376 12.6381C10.5376 11.4817 11.4822 10.5371 12.6386 10.5371H17.8992C19.0555 10.5371 20.0001 11.4817 20.0001 12.6381C20.0001 13.7944 19.0555 14.7391 17.8992 14.7391H12.6386Z" fill="#ECB22E" vector-effect="non-scaling-stroke" />
</svg>