<svg xmlns="http://www.w3.org/2000/svg" width="36" height="36" fill="none" viewBox="0 0 36 36">
  <g clip-path="url(#a)">
    <path fill="#FCF3F0" d="M0 6a6 6 0 0 1 6-6h24a6 6 0 0 1 6 6v24a6 6 0 0 1-6 6H6a6 6 0 0 1-6-6V6Z"/>
    <path fill="#FF7E5B" d="M24.243 18.465a5.764 5.764 0 0 1 5.76 5.768 5.765 5.765 0 0 1-5.76 5.77 5.765 5.765 0 0 1-5.76-5.77 5.764 5.764 0 0 1 5.76-5.768Zm2.065 3.776a.75.75 0 0 0-1.06 0l-1.004 1.003-1.003-1.003a.75.75 0 0 0-1.06 1.06l1.003 1.004-1.003 1.003a.75.75 0 0 0 1.06 1.06l1.003-1.003 1.003 1.003a.75.75 0 0 0 1.06-1.06l-1.002-1.003 1.003-1.003a.75.75 0 0 0 0-1.06Z"/>
    <path fill="#FF7E5B" d="M15.722 6.01a.753.753 0 0 1 .366.03l8.34 2.86a1.88 1.88 0 0 1 1.261 1.784v4.284c0 .559-.029 1.096-.08 1.611a7.792 7.792 0 0 0-1.365-.122l-.132.003a14.4 14.4 0 0 0 .078-1.492v-4.284a.382.382 0 0 0-.248-.366l-8.097-2.775-8.098 2.775a.381.381 0 0 0-.247.366v4.284l.005.39c.196 7.585 6.103 10.444 8 11.167l.328.12.008.003h.008l.007-.003c.203-.07.516-.188.906-.36.133.487.312.957.534 1.401-.414.182-.744.306-.955.378h-.001a1.51 1.51 0 0 1-.991 0c-1.5-.512-9.106-3.549-9.343-12.658L6 14.968v-4.284a1.88 1.88 0 0 1 1.26-1.785l8.342-2.859.12-.03Zm.124 14.443a.75.75 0 0 1 .75.75v.517a.75.75 0 0 1-1.5 0v-.517a.75.75 0 0 1 .75-.75Zm0-8.259a.75.75 0 0 1 .75.75v5.162a.75.75 0 0 1-1.5 0v-5.162a.75.75 0 0 1 .75-.75Z"/>
  </g>
  <defs>
    <clipPath id="a">
      <path fill="#fff" d="M0 0h36v36H0z"/>
    </clipPath>
  </defs>
</svg>
