<!--
  - Copyright (c) 2024. Devtron Inc.
  -
  - Licensed under the Apache License, Version 2.0 (the "License");
  - you may not use this file except in compliance with the License.
  - You may obtain a copy of the License at
  -
  -     http://www.apache.org/licenses/LICENSE-2.0
  -
  - Unless required by applicable law or agreed to in writing, software
  - distributed under the License is distributed on an "AS IS" BASIS,
  - WITHOUT WARRANTIES OR CONDITIONS OF ANY KIND, either express or implied.
  - See the License for the specific language governing permissions and
  - limitations under the License.
  -->

<svg xmlns="http://www.w3.org/2000/svg" width="24" height="24" fill="none" viewBox="0 0 24 24">
  <path fill="#FFF5E5" stroke="#FFB549" stroke-linecap="round" stroke-linejoin="round" stroke-width="1.5" d="M9.75 9.33V7.208c0-2.697 2.156-4.945 4.85-4.958a4.875 4.875 0 0 1 4.743 3.646L21.75 7.5 19.5 9v2.25a9 9 0 0 1-9 9H2.25a.75.75 0 0 1-.586-1.219l8.086-9.7Z" vector-effect="non-scaling-stroke"/>
  <path stroke="#FFB549" stroke-linecap="round" stroke-linejoin="round" stroke-width="1.5" d="m12 12-6.875 8.25" vector-effect="non-scaling-stroke"/>
  <path fill="#FFB549" d="M15.375 7.5a1.125 1.125 0 1 0 0-2.25 1.125 1.125 0 0 0 0 2.25Z"/>
</svg>
