<svg xmlns="http://www.w3.org/2000/svg" width="36" height="36" fill="none" viewBox="0 0 36 36">
  <g clip-path="url(#a)">
    <path fill="#FFF5E5" d="M0 6a6 6 0 0 1 6-6h24a6 6 0 0 1 6 6v24a6 6 0 0 1-6 6H6a6 6 0 0 1-6-6V6Z"/>
    <path fill="#C58D36" d="M24.304 18.584A5.703 5.703 0 0 1 30 24.292 5.703 5.703 0 0 1 24.304 30a5.703 5.703 0 0 1-5.698-5.708 5.703 5.703 0 0 1 5.698-5.708Zm2.656 3.702a.75.75 0 0 0-1.06.05l-2.282 2.509-.276-.23-.83-.691a.75.75 0 0 0-.96 1.151l.83.692.829.691a.75.75 0 0 0 1.035-.071l2.765-3.041a.75.75 0 0 0-.051-1.06Z"/>
    <path fill="#C58D36" fill-rule="evenodd" d="M15.752 6.29a.75.75 0 0 1 .486 0l8.25 2.829a1.87 1.87 0 0 1 1.253 1.773v4.238c0 .546-.028 1.07-.078 1.575a7.726 7.726 0 0 0-1.36-.122l-.136.002c.048-.465.074-.95.074-1.455v-4.238a.37.37 0 0 0-.239-.354L15.995 7.79 7.99 10.538a.37.37 0 0 0-.239.354v4.238c0 7.79 6.007 10.702 7.913 11.429l.323.117.01.003.009-.003c.197-.067.499-.182.875-.347.133.488.314.956.535 1.4-.396.173-.713.293-.919.363l-.008.004a1.5 1.5 0 0 1-.986 0c-1.51-.515-9.252-3.61-9.252-12.966v-4.238A1.87 1.87 0 0 1 7.502 9.12l8.25-2.829Zm.245 14.26a.75.75 0 0 1 .75.75v.511a.75.75 0 0 1-1.5 0v-.51a.75.75 0 0 1 .75-.75Zm0-8.172a.75.75 0 0 1 .75.75v5.108a.75.75 0 0 1-1.5 0v-5.108a.75.75 0 0 1 .75-.75Z" clip-rule="evenodd"/>
  </g>
  <defs>
    <clipPath id="a">
      <path fill="#fff" d="M0 0h36v36H0z"/>
    </clipPath>
  </defs>
</svg>
