<!--
  - Copyright (c) 2024. Devtron Inc.
  -
  - Licensed under the Apache License, Version 2.0 (the "License");
  - you may not use this file except in compliance with the License.
  - You may obtain a copy of the License at
  -
  -     http://www.apache.org/licenses/LICENSE-2.0
  -
  - Unless required by applicable law or agreed to in writing, software
  - distributed under the License is distributed on an "AS IS" BASIS,
  - WITHOUT WARRANTIES OR CONDITIONS OF ANY KIND, either express or implied.
  - See the License for the specific language governing permissions and
  - limitations under the License.
  -->

<svg xmlns="http://www.w3.org/2000/svg" width="24" height="24" fill="none" viewBox="0 0 24 24">
  <path stroke="#3B444C" stroke-linecap="round" stroke-linejoin="round" stroke-width="1.5" d="m12 7.01.01-.011M16 9.01l.01-.011M8 9.01l.01-.011M18 13.01l.01-.011M6 13.01l.01-.011M17 17.01l.01-.011M7 17.01l.01-.011M13 11l-.669 6.018M8.5 20.001H4A9.956 9.956 0 0 1 2 14C2 8.477 6.477 4 12 4s10 4.477 10 10c0 2.252-.744 4.33-2 6.001L15.5 20m-3.169-2.982a3 3 0 1 1-.663 5.964 3 3 0 0 1 .663-5.964Z" vector-effect="non-scaling-stroke"/>
</svg>
