<svg xmlns="http://www.w3.org/2000/svg" width="24" height="24" fill="none" viewBox="0 0 24 24">
  <path stroke="#3B444C" stroke-linecap="round" stroke-linejoin="round" stroke-width="1.5" d="M19.92 7.13a.714.714 0 0 1 .102.368V9.75m-.101-2.62a.736.736 0 0 0-.276-.267l-4.073-2.26M19.92 7.13 11.224 12m-.088 9.75a.749.749 0 0 1-.363-.094l-8.146-4.518a.737.737 0 0 1-.377-.636V7.498a.722.722 0 0 1 .377-.636l8.146-4.518a.75.75 0 0 1 .726 0l4.073 2.259M11.136 21.75a.748.748 0 0 0 .363-.094l2.037-1.13m-2.4 1.224.044-4.875.044-4.875m0 0L6.788 9.564M2.353 7.128l4.435 2.436m8.784-4.961-8.784 4.96m0 0-.062 3.405m11.815 3.517v-.361m0 .361a.354.354 0 0 1-.268-.123m.268.123a.35.35 0 0 0 .147-.032m.21-.33a.364.364 0 0 0-.086-.235m.086.236h-.357m.357 0a.363.363 0 0 1-.09.238m-.267-.6c.108 0 .205.049.27.126m-.27-.126v.362m0-.362c-.05 0-.097.01-.14.029m-.216.333h.356m-.356 0c0-.098.038-.187.1-.252m-.1.252c0 .041.007.081.02.119m.607-.355-.27.236m0 0-.269.238m.268-.238-.256-.252m.256.252.268.238m-.268-.238-.337.119m.337-.12-.14-.332m.14.333.147.329m-.415-.09a.365.365 0 0 1-.069-.12m.081-.371a.357.357 0 0 1 .116-.081m.408.571a.357.357 0 0 1-.12.091m3.061 1.34v-3.34a.273.273 0 0 0-.136-.235l-2.942-1.676a.265.265 0 0 0-.262 0l-2.941 1.676a.268.268 0 0 0-.137.236v3.34a.273.273 0 0 0 .137.235l2.941 1.676a.265.265 0 0 0 .262 0l2.942-1.676a.27.27 0 0 0 .136-.236Z" vector-effect="non-scaling-stroke"/>
</svg>
