<svg xmlns="http://www.w3.org/2000/svg" width="18" height="20" viewBox="0 0 18 20" fill="none">
<path d="M7.42693 1.09C7.48693 1.206 7.54893 1.322 7.61393 1.436C7.66293 1.522 7.71993 1.615 7.75393 1.708C7.67493 1.722 7.59193 1.765 7.51793 1.796C7.40693 1.844 7.29293 1.885 7.18193 1.932C6.97793 2.02 6.76893 2.092 6.56393 2.176C6.37893 2.251 6.19193 2.344 5.99993 2.399V15.32C5.99993 15.39 6.02493 15.518 5.98193 15.575C6.01593 15.635 5.99993 15.725 5.99993 15.793V18.464C5.99993 18.522 5.98193 18.618 6.00593 18.671C6.02693 18.719 6.12893 18.747 6.17293 18.77C6.33793 18.856 6.50593 18.937 6.67293 19.02C7.09293 19.226 7.50993 19.437 7.92693 19.65C8.13493 19.756 8.34493 19.879 8.56293 19.964V1.399C8.63893 1.506 8.69393 1.63 8.75593 1.745C8.86793 1.951 8.98293 2.157 9.09793 2.363C9.45993 3.012 9.81993 3.663 10.1739 4.316C10.9369 5.724 11.7329 7.115 12.4939 8.523C12.7689 9.031 13.0549 9.533 13.3309 10.041C13.5309 10.411 13.7279 10.787 13.9419 11.149H13.9599C14.0879 10.881 14.2269 10.617 14.3579 10.349C14.9689 9.095 15.6049 7.852 16.2159 6.597C16.4099 6.199 16.6089 5.803 16.8059 5.407C16.9059 5.208 17.0189 5.012 17.1039 4.807C16.9459 4.814 16.7869 4.856 16.6319 4.883C16.4319 4.918 16.2319 4.943 16.0319 4.983C15.9369 5.002 15.8369 5.005 15.7419 5.026C15.7119 5.033 15.6709 5.034 15.6449 5.052C15.6219 5.068 15.6099 5.101 15.5959 5.125C15.5629 5.182 15.5309 5.24 15.4999 5.298C15.3929 5.495 15.2819 5.691 15.1749 5.888C14.8999 6.396 14.6169 6.9 14.3389 7.406L14.0979 7.842C14.0509 7.925 13.9879 8.014 13.9599 8.105H13.9419C13.9159 8.014 13.8589 7.927 13.8169 7.842L13.5969 7.397C13.3629 6.927 13.1269 6.459 12.8979 5.988C12.2459 4.644 11.5729 3.308 10.9049 1.972C10.6849 1.533 10.4689 1.093 10.2509 0.654C10.1429 0.437 10.0189 0.224 9.92593 0C9.77993 0.04 9.63593 0.12 9.49893 0.184C9.30393 0.274 9.10393 0.354 8.90893 0.442C8.41693 0.664 7.91393 0.86 7.42693 1.09Z" fill="#876929" vector-effect="non-scaling-stroke"/>
<path d="M8.56287 1.40041V19.9644C9.52987 19.4694 10.5079 18.9934 11.4799 18.5074C12.5519 17.9704 13.6209 17.4244 14.6959 16.8934C15.2729 16.6094 15.8469 16.3184 16.4229 16.0314C16.5859 15.9504 16.7519 15.8714 16.9129 15.7854C16.9639 15.7594 17.0609 15.7344 17.0949 15.6874C17.1079 15.6694 17.1049 15.6414 17.1049 15.6204V4.81641C17.0439 4.88941 17.0079 4.99541 16.9649 5.08041C16.8849 5.24341 16.8009 5.40541 16.7219 5.57041C16.4859 6.06441 16.2379 6.55341 15.9939 7.04241C15.5459 7.93841 15.1049 8.83741 14.6579 9.73241C14.5079 10.0324 14.3619 10.3324 14.2129 10.6324C14.1279 10.8004 14.0199 10.9714 13.9599 11.1494H13.9419C13.8929 11.0334 13.8199 10.9244 13.7589 10.8134C13.6589 10.6324 13.5599 10.4494 13.4589 10.2684C13.1819 9.76941 12.9089 9.26841 12.6319 8.76841C11.8439 7.34841 11.0679 5.91941 10.2789 4.49841C9.88088 3.78141 9.48588 3.06341 9.09288 2.34441C8.98088 2.14141 8.86687 1.93941 8.75587 1.73641L8.64587 1.53641C8.62288 1.48941 8.60087 1.43641 8.56287 1.39941V1.40041ZM4.04688 3.18041V16.0754C4.52687 15.9564 5.00487 15.8354 5.48187 15.7094C5.60587 15.6764 5.73088 15.6454 5.85488 15.6134C5.89388 15.6034 5.96488 15.6034 5.99088 15.5684C6.00388 15.5514 6.00087 15.5234 6.00087 15.5024V3.68041C5.68587 3.62041 5.37388 3.52341 5.06388 3.44241C4.72688 3.35241 4.37887 3.28841 4.04688 3.18041Z" fill="#D9A741" vector-effect="non-scaling-stroke"/>
<path d="M9.92578 0C9.94978 0.085 10.0018 0.166 10.0418 0.245C10.1138 0.391 10.1888 0.535 10.2598 0.682C10.5198 1.216 10.7898 1.748 11.0528 2.281C11.6908 3.569 12.3268 4.857 12.9698 6.143C13.1798 6.563 13.3868 6.985 13.5968 7.406C13.7118 7.637 13.8428 7.866 13.9418 8.106H13.9598C14.0348 7.933 14.1428 7.769 14.2338 7.606C14.3808 7.343 14.5238 7.078 14.6698 6.816C15.0858 6.065 15.4998 5.312 15.9138 4.562C16.0758 4.268 16.2438 3.977 16.3988 3.68C16.4588 3.566 16.5418 3.456 16.5858 3.335C16.3958 3.215 16.1778 3.129 15.9778 3.027C15.4978 2.783 15.0138 2.546 14.5328 2.305C12.9968 1.537 11.4528 0.785 9.92578 0Z" fill="#D9A741" vector-effect="non-scaling-stroke"/>
<path d="M4.03801 3.17969C3.93601 3.32969 3.84501 3.48869 3.74801 3.64169C3.44901 4.11769 3.15101 4.59469 2.85101 5.06969C2.25601 6.01469 1.66301 6.95969 1.07101 7.90569C0.809013 8.32369 0.544014 8.74069 0.283013 9.15869C0.213013 9.27169 0.140013 9.38169 0.0710135 9.49569C0.0470135 9.53369 0.00101346 9.58269 1.34562e-05 9.62969C-0.000986544 9.67469 0.0540135 9.73269 0.0770135 9.76969C0.151013 9.88769 0.223013 10.0077 0.299013 10.1247C0.565013 10.5317 0.814013 10.9507 1.07701 11.3597C1.60501 12.1827 2.11701 13.0177 2.63401 13.8477C3.09901 14.5947 3.57801 15.3327 4.03801 16.0837L4.08301 16.0737C4.06701 16.0687 4.06401 16.0697 4.04701 16.0737V3.29969C4.04701 3.25969 4.05301 3.21669 4.03701 3.18069L4.03801 3.17969Z" fill="#876929" vector-effect="non-scaling-stroke"/>
</svg>