<svg data-style-override="false" xmlns="http://www.w3.org/2000/svg" width="24" height="24" fill="none" viewBox="0 0 24 24">
  <path fill="#3B444C" fill-rule="evenodd" d="M19.333 3A2.667 2.667 0 0 1 22 5.667v12.666A2.667 2.667 0 0 1 19.333 21H4.667A2.667 2.667 0 0 1 2 18.333V5.667A2.667 2.667 0 0 1 4.667 3h14.666ZM6.358 8.74c-.409.408-.423 1.056-.033 1.446l2.122 2.121-2.219 2.219c-.408.408-.423 1.056-.032 1.446.39.39 1.038.376 1.446-.032l2.958-2.958c.409-.408.423-1.056.033-1.446L7.804 8.707c-.39-.39-1.038-.376-1.446.032ZM17 14h-4c-.552 0-1 .468-1 1.046 0 .577.448 1.046 1 1.046h4c.552 0 1-.469 1-1.046 0-.578-.448-1.046-1-1.046Z" clip-rule="evenodd"/>
</svg>