<!--
  - Copyright (c) 2024. Devtron Inc.
  -
  - Licensed under the Apache License, Version 2.0 (the "License");
  - you may not use this file except in compliance with the License.
  - You may obtain a copy of the License at
  -
  -     http://www.apache.org/licenses/LICENSE-2.0
  -
  - Unless required by applicable law or agreed to in writing, software
  - distributed under the License is distributed on an "AS IS" BASIS,
  - WITHOUT WARRANTIES OR CONDITIONS OF ANY KIND, either express or implied.
  - See the License for the specific language governing permissions and
  - limitations under the License.
  -->

<svg xmlns="http://www.w3.org/2000/svg" width="24" height="24" fill="none" viewBox="0 0 24 24">
  <path stroke="#3B444C" stroke-linecap="round" stroke-linejoin="round" stroke-width="1.5" d="m9.06 10.276 5.872-3.335a.5.5 0 0 0-.187-.183l-5.5-3.094a.5.5 0 0 0-.49 0l-5.5 3.094A.5.5 0 0 0 3 7.193v6.165a.5.5 0 0 0 .255.436l5.5 3.094a.5.5 0 0 0 .245.064l.06-6.676Zm0 0L3.07 6.939m17.862 3.402a.5.5 0 0 1 .068.252v6.166a.5.5 0 0 1-.255.435l-5.5 3.094a.5.5 0 0 1-.245.064m5.932-10.011a.5.5 0 0 0-.187-.183l-5.5-3.094a.5.5 0 0 0-.49 0l-5.5 3.094a.5.5 0 0 0-.255.435v6.166a.5.5 0 0 0 .255.435l5.5 3.094a.5.5 0 0 0 .245.064m5.932-10.011-5.873 3.335M15 20.352l.06-6.676m0 0-5.99-3.337" vector-effect="non-scaling-stroke"/>
</svg>
