<svg xmlns="http://www.w3.org/2000/svg" width="24" height="24" fill="none" viewBox="0 0 24 24">
  <path stroke="#3B444C" stroke-linecap="round" stroke-linejoin="round" stroke-width="1.5" d="M7.217 20H2.745a.728.728 0 0 1-.527-.23.803.803 0 0 1-.218-.553V10.61c0-.208.079-.407.218-.554a.732.732 0 0 1 .527-.229h4.472m0 10.174V9.826m0 10.174h11.354c.364 0 .715-.14.987-.392s.448-.6.492-.98l1.938-7.572c.027-.22.008-.444-.054-.656a1.59 1.59 0 0 0-.307-.574c-.14-.166-.312-.3-.505-.39a1.431 1.431 0 0 0-.613-.14l-6.832-.253.248-3.913c0-.41-.077-.818-.227-1.198a3.16 3.16 0 0 0-.646-1.015 2.976 2.976 0 0 0-.967-.679A2.858 2.858 0 0 0 10.944 2L7.217 9.826" vector-effect="non-scaling-stroke"/>
</svg>
