<svg xmlns="http://www.w3.org/2000/svg" width="24" height="24" fill="none" viewBox="0 0 24 24">
  <path stroke="#3B444C" stroke-linecap="round" stroke-linejoin="round" stroke-width="1.5" d="M2.25 21h19.5m-1.234 0V3.783a.808.808 0 0 0-.216-.554.717.717 0 0 0-.52-.229h-8.85a.716.716 0 0 0-.521.23.808.808 0 0 0-.216.553m4.637 3.13h2.95m-1.475 6.26h2.95m-5.474 3.914h2.311m-7.373-2.944c1.864 0 3.375-1.535 3.375-3.429 0-1.893-1.511-3.428-3.375-3.428S5.344 8.82 5.344 10.714s1.51 3.429 3.375 3.429Zm0 0c2.796 0 5.062 2.302 5.062 5.143V21M8.72 14.143c-2.796 0-5.063 2.302-5.063 5.143V21" vector-effect="non-scaling-stroke"/>
</svg>
