<svg xmlns="http://www.w3.org/2000/svg" width="24" height="24" fill="none" viewBox="0 0 24 24">
  <path stroke="#3B444C" stroke-linecap="round" stroke-linejoin="round" stroke-width="1.5" d="M18 6.75h2.25M18 14.25h2.25m-16.5-7.5H6m-2.25 7.5H6M6.75 3h10.5a.75.75 0 0 1 .75.75v16.5a.75.75 0 0 1-.75.75H6.75a.75.75 0 0 1-.75-.75V3.75A.75.75 0 0 1 6.75 3Zm7.5 5.25a2.25 2.25 0 1 1-4.5 0 2.25 2.25 0 0 1 4.5 0Zm0 7.5a2.25 2.25 0 1 1-4.5 0 2.25 2.25 0 0 1 4.5 0Z" vector-effect="non-scaling-stroke"/>
</svg>
