<svg xmlns="http://www.w3.org/2000/svg" width="24" height="24" fill="none" viewBox="0 0 24 24">
  <path stroke="#3B444C" stroke-linecap="round" stroke-linejoin="round" stroke-width="1.5" d="M9.451 8.769H8.086m1.365 0a.68.68 0 0 0-.165-.445m.165.445a.68.68 0 0 1-.195.477m-.487.205V8.086m0 1.365a.68.68 0 0 1-.488-.205m.488.205a.68.68 0 0 0 .487-.205m-1.17-.477a.68.68 0 0 0 .195.477m-.195-.477a.68.68 0 0 1 .165-.445m.518-.238c.207 0 .392.092.517.238m-.517-.238a.681.681 0 0 0-.518.238m.03.922 1.005-.922m-1.035 0 1.005.922m2.015-6.233L4.39 4.39l-1.377 6.88a.683.683 0 0 0 .187.617l8.912 8.912a.682.682 0 0 0 .966 0l7.722-7.723a.682.682 0 0 0 0-.965L11.888 3.2a.682.682 0 0 0-.617-.187Z" vector-effect="non-scaling-stroke"/>
</svg>
