<!--
  - Copyright (c) 2024. Devtron Inc.
  -
  - Licensed under the Apache License, Version 2.0 (the "License");
  - you may not use this file except in compliance with the License.
  - You may obtain a copy of the License at
  -
  -     http://www.apache.org/licenses/LICENSE-2.0
  -
  - Unless required by applicable law or agreed to in writing, software
  - distributed under the License is distributed on an "AS IS" BASIS,
  - WITHOUT WARRANTIES OR CONDITIONS OF ANY KIND, either express or implied.
  - See the License for the specific language governing permissions and
  - limitations under the License.
  -->

<svg width="118" height="48" viewBox="0 0 118 48" fill="none" xmlns="http://www.w3.org/2000/svg">
<g style="mix-blend-mode:luminosity">
<path d="M14.1496 12.3767C14.1496 14.2415 12.6567 15.7533 10.8154 15.7533C8.97382 15.7533 7.48097 14.2415 7.48097 12.3767C7.48097 10.5117 8.97382 9 10.8154 9C12.6567 9 14.1496 10.5117 14.1496 12.3767Z" fill="#fff"/>
<path d="M21.4791 16.7203C21.1118 15.9022 20.1498 15.5378 19.3125 15.8278C16.933 16.6459 14.4652 17.1145 11.9903 17.2261H9.64011C7.16501 17.1145 4.69742 16.6534 2.31781 15.8278C1.4806 15.5378 0.51845 15.9022 0.151249 16.7203C-0.274716 17.6723 0.202703 18.7582 1.15005 19.0929C2.75849 19.6507 4.40359 20.0597 6.07072 20.335C7.71591 20.6028 8.92764 22.0307 8.92764 23.7191V38.9957H12.7026V23.7116C12.7026 22.0234 13.9144 20.5953 15.5596 20.3275C17.2192 20.0597 18.8645 19.6433 20.4802 19.0854C21.4276 18.7582 21.9123 17.6648 21.4791 16.7203Z" fill="#fff"/>
<path d="M76.1169 31.5178L76.0509 31.7186C75.8159 32.4326 75.5221 33.0574 75.1695 33.5928C74.6408 34.3887 73.9871 34.9911 73.194 35.4003C72.4007 35.8092 71.4754 36.0325 70.3885 36.0621C69.3089 36.0325 68.3761 35.8316 67.5829 35.4746C66.988 35.2069 66.4666 34.8498 66.0112 34.3962C65.3355 33.7193 64.8215 32.8343 64.4616 31.7186C64.1017 30.603 63.9108 29.2641 63.8887 27.6948C63.9108 26.2819 64.0649 25.0545 64.3514 24.0134C64.5645 23.2324 64.8581 22.5554 65.218 21.9754C65.7616 21.1127 66.4592 20.473 67.326 20.0416C68.1926 19.6103 69.2427 19.3946 70.4766 19.3946H70.5648C71.7839 19.3946 72.79 19.6251 73.598 20.064C74.0018 20.2871 74.3544 20.5623 74.6629 20.8896C74.9713 21.2167 75.2357 21.6035 75.456 22.0571C75.5736 22.325 75.7132 22.5629 75.8672 22.7786C76.1096 23.0985 76.3961 23.3513 76.7339 23.515C77.0644 23.6786 77.439 23.7605 77.843 23.7605H79.6349L79.5909 23.4182C79.444 22.3696 79.1649 21.4101 78.7463 20.5623C78.3277 19.7144 77.7694 18.9632 77.0717 18.3235C76.33 17.6616 75.4413 17.1633 74.4205 16.836C73.3923 16.5087 72.2319 16.3451 70.9319 16.3451H70.6896C68.9856 16.3749 67.4802 16.6352 66.1876 17.1261C65.2107 17.498 64.3588 17.9963 63.617 18.6359C62.508 19.588 61.6782 20.8374 61.1346 22.3621C60.5838 23.8869 60.3121 25.6866 60.3048 27.7617C60.2974 29.6063 60.4957 31.2277 60.907 32.6334C61.2155 33.6821 61.6341 34.6119 62.185 35.4077C63 36.6052 64.0944 37.5124 65.4384 38.1076C66.7824 38.7025 68.3761 39 70.2122 39H70.4839C71.7398 39 72.8781 38.8512 73.8917 38.5612C75.4193 38.1149 76.6679 37.334 77.6226 36.2108C78.5774 35.0878 79.2383 33.645 79.5982 31.8823L79.6716 31.5252H76.1169V31.5178Z" fill="#fff"/>
<path fill-rule="evenodd" clip-rule="evenodd" d="M42.0914 23.5983C41.8638 23.1891 41.548 22.8322 41.1587 22.5271C40.5712 22.0735 39.8147 21.7462 38.904 21.5232C37.9861 21.3074 36.9137 21.1959 35.6652 21.1959C34.593 21.2033 33.6528 21.3148 32.8378 21.5157C32.2281 21.6719 31.6847 21.8802 31.2146 22.1479C30.5095 22.5495 29.9661 23.0925 29.6063 23.7544C29.2464 24.4239 29.0701 25.2122 29.0701 26.0972V26.3947H32.5659V26.0972C32.5659 25.7625 32.6247 25.4948 32.7421 25.2567C32.8303 25.0857 32.9478 24.9295 33.1021 24.7956C33.3371 24.5947 33.6528 24.4313 34.0715 24.3122C34.4902 24.1932 35.0042 24.1262 35.6139 24.1187C35.7534 24.1115 35.8855 24.1115 36.0177 24.1115C36.5686 24.1115 37.0533 24.1485 37.45 24.2304C37.751 24.2899 38.0081 24.3643 38.221 24.461C38.3827 24.5353 38.5148 24.6171 38.6324 24.7065C38.8012 24.8404 38.9187 24.9891 38.9996 25.1675C39.0803 25.3461 39.1244 25.5469 39.1244 25.7849C39.1244 26.0527 39.0803 26.2832 39.0069 26.4766C38.9481 26.6254 38.8748 26.7592 38.7718 26.8782C38.6251 27.0567 38.4267 27.2129 38.1623 27.3393C37.8978 27.4656 37.5747 27.5699 37.1855 27.6293C35.8928 27.8749 34.7252 28.0756 33.6748 28.2393H33.6602C32.8157 28.3955 32.0592 28.6186 31.4129 28.9161C30.4361 29.3624 29.6723 29.9649 29.1508 30.7383C28.8938 31.1251 28.6955 31.549 28.556 32.0101C28.4164 32.4712 28.3431 32.9696 28.3283 33.4976V33.6984C28.3283 34.5537 28.4605 35.3198 28.7249 35.9817C28.9232 36.4801 29.2022 36.9189 29.5548 37.2983C30.0836 37.8635 30.7813 38.2801 31.6332 38.5552C32.4778 38.8303 33.4767 38.9642 34.6295 38.9642C36.025 38.9642 37.2222 38.8378 38.2358 38.5701C39.2493 38.3024 40.0718 37.9081 40.7033 37.3577C41.3277 36.8148 41.7977 36.1231 42.1062 35.3049C42.4147 34.4867 42.5688 33.5348 42.5688 32.4639V25.4575C42.5541 24.7808 42.3999 24.1485 42.0914 23.5983ZM35.2173 30.7606C35.8855 30.6788 36.4657 30.597 36.9577 30.5151C37.45 30.4333 37.8538 30.3515 38.1696 30.2624C38.4854 30.1804 38.7645 30.0837 39.0069 29.9723C39.0378 29.9565 39.0688 29.9409 39.0997 29.9252L39.1392 29.9053V32.4936C39.1392 33.1035 39.0509 33.6166 38.8894 34.0555C38.7645 34.3827 38.603 34.6579 38.3899 34.9033C38.0742 35.2604 37.6555 35.5355 37.112 35.7215C36.5686 35.9075 35.9076 36.0042 35.1219 36.0042C34.5709 36.0042 34.1008 35.952 33.7117 35.8479C33.4179 35.7735 33.1608 35.662 32.9552 35.5355C32.6394 35.3421 32.4117 35.0968 32.2574 34.7843C32.1033 34.472 32.0224 34.0927 32.0224 33.6241C32.0224 33.2075 32.0886 32.8506 32.2134 32.5382C32.309 32.3001 32.4411 32.0919 32.61 31.8986C32.8598 31.6159 33.1975 31.3705 33.6308 31.1771C34.0569 30.9986 34.5856 30.8498 35.2173 30.7606Z" fill="#fff"/>
<path d="M22.458 21.9344C21.7383 22.1797 21.0993 22.5144 20.5485 22.9458C19.726 23.5929 19.109 24.4557 18.6977 25.5117C18.2938 26.5678 18.0955 27.8099 18.0955 29.2453V38.6985H21.5327V28.814C21.5401 28.1447 21.6355 27.5645 21.8045 27.081C21.9292 26.7167 22.1055 26.4043 22.3186 26.144C22.6416 25.7497 23.0529 25.4449 23.5891 25.244C24.1252 25.0431 24.7714 24.9317 25.5426 24.9317H27.107V21.4509H25.785C24.529 21.4509 23.4202 21.6071 22.458 21.9344Z" fill="#fff"/>
<path d="M56.0765 21.5773C56.3629 21.4954 56.6639 21.4509 56.9945 21.4509H58.5589L52.5878 38.6911H49.2023L43.3708 21.845L43.2312 21.4509H46.8299L50.8694 33.6039L54.2918 23.4962C54.4534 22.9978 54.6811 22.5888 54.9821 22.2614C55.276 21.9417 55.6504 21.7037 56.0765 21.5773Z" fill="#fff"/>
<path d="M83.7923 16.883C84.0862 16.9946 84.3286 17.1656 84.512 17.3962C84.6295 17.5449 84.7249 17.7234 84.7911 17.9168C84.8792 18.1771 84.9233 18.4746 84.9233 18.7944V38.6899H81.4862V16.7193H82.8082C83.1754 16.7193 83.5058 16.7714 83.7923 16.883Z" fill="#fff"/>
<path fill-rule="evenodd" clip-rule="evenodd" d="M100.632 23.5981C100.404 23.1891 100.088 22.8322 99.6992 22.527C99.1117 22.0734 98.3552 21.7461 97.4445 21.5231C96.5265 21.3074 95.4541 21.1959 94.2056 21.1959C93.1334 21.2033 92.1932 21.3147 91.3782 21.5156C90.7685 21.6718 90.2251 21.88 89.755 22.1478C89.0501 22.5495 88.5065 23.0924 88.1467 23.7544C87.7867 24.4238 87.6106 25.2121 87.6106 26.0972V26.3947H91.1064V26.0972C91.1064 25.7625 91.1652 25.4947 91.2826 25.2567C91.3708 25.0856 91.4882 24.9294 91.6426 24.7955C91.8775 24.5946 92.1932 24.4312 92.6119 24.312C93.0306 24.1932 93.5447 24.1262 94.1543 24.1187C94.2938 24.1115 94.4261 24.1115 94.5582 24.1115C95.109 24.1115 95.5938 24.1484 95.9904 24.2303C96.2915 24.2898 96.5486 24.3642 96.7616 24.461C96.9232 24.5353 97.0553 24.6171 97.1728 24.7064C97.3417 24.8403 97.4592 24.989 97.54 25.1674C97.6208 25.346 97.6649 25.5469 97.6649 25.7848C97.6649 26.0525 97.6208 26.2831 97.5473 26.4765C97.4885 26.6253 97.4152 26.7592 97.3123 26.8782C97.1655 27.0566 96.9671 27.2127 96.7028 27.3392C96.4385 27.4656 96.1151 27.5698 95.726 27.6292C94.4334 27.8749 93.2657 28.0755 92.2153 28.2393H92.2006C91.3561 28.3954 90.5997 28.6185 89.9533 28.916C88.9766 29.3624 88.2127 29.9647 87.6912 30.7383C87.4342 31.125 87.236 31.5489 87.0963 32.0101C86.9568 32.4711 86.8835 32.9695 86.8687 33.4976V33.6908C86.8687 34.5462 87.0009 35.3123 87.2653 35.9817C87.4636 36.4801 87.7427 36.9189 88.0952 37.2982C88.624 37.8634 89.3217 38.2799 90.1737 38.5552C91.0182 38.8303 92.0172 38.9642 93.1701 38.9642C94.5655 38.9642 95.7627 38.8378 96.7762 38.57C97.7897 38.3023 98.6123 37.9081 99.2439 37.3576C99.8681 36.8147 100.338 36.1231 100.647 35.3049C100.955 34.4867 101.109 33.5347 101.109 32.4637V25.4575C101.095 24.7807 100.94 24.1484 100.632 23.5981ZM93.7504 30.7605C94.4187 30.6787 94.9988 30.5969 95.4909 30.5151C95.983 30.4333 96.387 30.3514 96.7028 30.2622C97.0185 30.1803 97.2977 30.0837 97.54 29.9722C97.584 29.9498 97.6282 29.9274 97.6723 29.9052V32.4936C97.6723 33.1034 97.584 33.6166 97.4225 34.0553C97.2977 34.3826 97.1362 34.6578 96.9232 34.9032C96.6073 35.2603 96.1888 35.5354 95.6452 35.7214C95.1017 35.9075 94.4408 36.0041 93.6549 36.0041C93.104 36.0041 92.634 35.9519 92.2448 35.8479C91.9509 35.7735 91.6939 35.6618 91.4882 35.5354C91.1725 35.3421 90.9448 35.0967 90.7906 34.7843C90.6364 34.4719 90.5555 34.0926 90.5555 33.6239C90.5555 33.2075 90.6217 32.8506 90.7465 32.5381C90.8419 32.3001 90.9741 32.0918 91.1431 31.8985C91.3928 31.6158 91.7306 31.3705 92.164 31.177C92.5973 30.9986 93.126 30.8497 93.7504 30.7605Z" fill="#fff"/>
<path d="M116.56 23.4858C116.955 24.0064 117.272 24.6164 117.499 25.3079C117.801 26.2302 117.948 27.2864 117.948 28.4838V38.6806H116.56C116.191 38.6806 115.861 38.6286 115.575 38.5171C115.28 38.4055 115.038 38.2344 114.855 38.004C114.73 37.8478 114.634 37.6692 114.568 37.4758C114.48 37.2156 114.437 36.918 114.437 36.5982V28.2459C114.437 27.4798 114.333 26.8327 114.135 26.3046C113.937 25.7765 113.644 25.3675 113.262 25.0552C113.004 24.8468 112.703 24.6758 112.351 24.5568C111.881 24.3932 111.323 24.3113 110.668 24.3113C109.92 24.3113 109.296 24.4155 108.781 24.6237C108.268 24.8245 107.871 25.1294 107.563 25.5311C107.357 25.7988 107.195 26.1113 107.077 26.4832C106.916 26.9741 106.835 27.5615 106.835 28.2459V38.6806H103.398V28.4095C103.398 27.0781 103.582 25.9104 103.971 24.9287C104.36 23.947 104.948 23.1363 105.726 22.5338C106.248 22.1321 106.849 21.8197 107.533 21.5892C108.444 21.2842 109.493 21.1355 110.676 21.1355C112.02 21.1355 113.181 21.3289 114.165 21.7156C115.149 22.1023 115.956 22.6975 116.56 23.4858Z" fill="#fff"/>
</g>
</svg>
