<svg width="118" height="48" viewBox="0 0 118 48" fill="none" xmlns="http://www.w3.org/2000/svg">
<g style="mix-blend-mode:luminosity">
<path d="M80.9734 11V15.2715C81.6214 15.3485 117.149 15.31 117.378 15.233C117.416 14.6942 117.416 11.1924 117.341 11H80.9734Z" fill="#fff"/>
<path d="M84.9383 17.1579V18.5817C84.9764 18.5817 85.0145 18.5817 85.0145 18.5433C85.6625 17.6581 86.5393 17.1579 87.5686 16.8885C88.674 16.5806 89.7414 16.6577 90.8088 17.0424C91.6093 17.3118 92.2193 17.8505 92.6767 18.5433C92.6925 18.5751 92.7148 18.607 92.7409 18.6443C92.7779 18.6971 92.8227 18.7609 92.8673 18.8511C92.9053 18.7743 92.9436 18.697 92.9817 18.6587C93.7441 17.6581 94.7352 17.0039 95.9554 16.8115C97.1753 16.5806 98.3943 16.6961 99.5002 17.2734C100.911 17.966 101.711 19.1205 101.94 20.6982C102.016 21.083 102.016 21.5063 102.016 21.8912V30.8191H98.0135V23.0457C98.0135 22.7638 97.9819 22.5143 97.9469 22.2379L97.9371 22.1605C97.7467 21.3139 97.2131 20.7367 96.3363 20.5828C95.5359 20.4673 94.7733 20.5828 94.2015 21.2755C93.8203 21.7372 93.6297 22.276 93.6297 22.8917V30.7805H89.5508V23.0072C89.5508 22.6224 89.5127 22.2375 89.3984 21.8912C89.0553 21.0061 88.4453 20.6213 87.6447 20.5444C87.3399 20.5058 86.9968 20.5444 86.6918 20.6213C85.8531 20.8906 85.3957 21.5063 85.2051 22.3529C85.167 22.5454 85.167 22.7762 85.167 23.0072V30.7805H81.05V17.1579H84.9383Z" fill="#fff"/>
<path fill-rule="evenodd" clip-rule="evenodd" d="M113.414 18.4272V17.1573H117.379V29.6255C117.379 31.1647 116.998 32.5886 116.235 33.9355C115.435 35.3209 114.291 36.2059 112.804 36.6292C111.051 37.1296 109.259 37.1296 107.505 36.5908C106.133 36.1675 105.027 35.3209 104.188 34.1279C103.845 33.6276 103.578 33.0504 103.464 32.4732C103.464 32.4347 103.455 32.4058 103.446 32.3769C103.436 32.3481 103.427 32.3192 103.427 32.2808C103.427 32.2423 103.427 32.1653 103.388 32.0884C103.997 31.9154 104.597 31.7425 105.197 31.5695L105.199 31.5688L105.204 31.5676L105.205 31.5673C105.803 31.3946 106.402 31.222 107.01 31.0493C107.048 31.1263 107.086 31.2418 107.086 31.3187C107.429 32.4347 108.42 33.3198 109.792 33.3582C110.288 33.3582 110.784 33.3198 111.241 33.1658C112.271 32.781 112.881 31.9729 113.147 30.9339C113.299 30.2797 113.338 29.587 113.299 28.8943L113.262 28.8558H113.223C112.652 29.587 111.889 29.9719 110.974 30.1257C109.792 30.3181 108.611 30.3181 107.505 29.8564C105.523 29.0867 104.227 27.6629 103.655 25.6619C103.121 23.8147 103.235 22.0061 104.151 20.3128C104.913 18.8505 106.057 17.7345 107.658 17.1957C108.878 16.8109 110.098 16.7724 111.318 17.0803C112.156 17.2728 112.842 17.7345 113.414 18.4272ZM107.544 23.5453V23.9686C107.658 25.0846 108.229 25.9312 109.259 26.3545C109.678 26.5469 110.174 26.5854 110.631 26.5469C111.928 26.47 112.842 25.7003 113.147 24.6228C113.299 24.161 113.338 23.6608 113.299 23.1605C113.147 21.3133 111.432 20.0434 109.488 20.6591C108.268 21.0824 107.544 22.16 107.544 23.5453Z" fill="#fff"/>
<path d="M74.9505 36.8978V32.6262H102.016V36.8978H74.9505Z" fill="#fff"/>
<path d="M74.9123 30.7794H79.1818V11.0381H75.5222C75.5222 11.0573 75.5127 11.0861 75.5032 11.1149C75.4937 11.1438 75.4841 11.1728 75.4841 11.192C75.2935 11.9617 74.9123 12.6159 74.3024 13.1161C73.3494 13.9243 72.282 14.2706 71.0621 14.3476H70.7191V17.2722H74.9123V30.7794Z" fill="#fff"/>
<path d="M33.628 32.1271H27.6812C27.4144 32.1271 27.3001 32.0501 27.2238 31.8193C27.0139 31.2073 26.8041 30.5969 26.5946 29.9875L26.594 29.9858C25.776 27.6067 24.963 25.242 24.1742 22.8529C24.1361 22.7374 24.0979 22.622 24.0216 22.4296C23.9692 22.5884 23.9168 22.7229 23.868 22.848C23.8105 22.9957 23.758 23.1303 23.7167 23.2762C23.2408 24.6792 22.7648 26.0918 22.2889 27.5043C21.8118 28.9202 21.3347 30.336 20.8576 31.7422C20.7815 32.0117 20.6671 32.0886 20.4002 32.0886H14.4916C14.6821 31.6268 14.8347 31.1651 14.9871 30.7032C16.8169 25.8545 18.6467 21.0058 20.4383 16.1955C20.5528 15.9261 20.6671 15.8107 20.972 15.8107H26.9951C27.2619 15.8107 27.3762 15.8876 27.4906 16.157C29.4729 21.3521 31.4933 26.5856 33.5137 31.7808C33.5645 31.8577 33.5815 31.9347 33.5984 32.0117C33.6069 32.0501 33.6154 32.0887 33.628 32.1271Z" fill="#fff"/>
<path d="M65.3449 32.1271C65.3068 32.012 65.3068 31.9351 65.3068 31.8583C64.2949 29.2372 63.2831 26.6059 62.2712 23.9752L62.2709 23.9744L62.2659 23.9615L62.2652 23.9597C61.2587 21.3428 60.2521 18.7259 59.2456 16.1185C59.1313 15.8876 59.0169 15.8107 58.7881 15.8107H52.727C52.422 15.8107 52.3077 15.8876 52.1933 16.157C51.222 18.7526 50.2411 21.3483 49.2602 23.9439L49.2597 23.9452C48.2776 26.544 47.2953 29.1434 46.3228 31.7422C46.2846 31.8577 46.2465 31.9732 46.2083 32.1271H52.0408C52.3458 32.1271 52.4601 32.0117 52.5364 31.7422C53.0323 30.2598 53.5377 28.7869 54.0431 27.3141C54.5478 25.8431 55.0527 24.372 55.5479 22.8914C55.5595 22.8565 55.571 22.818 55.5836 22.7761C55.6126 22.6793 55.6472 22.5638 55.7004 22.4296C55.7767 22.622 55.8147 22.7374 55.8528 22.8529C56.6403 25.2375 57.4517 27.5978 58.2681 29.9724L58.2711 29.9813C58.4814 30.5928 58.6919 31.2052 58.9025 31.8193C58.9787 32.0501 59.0931 32.1271 59.36 32.1271H65.3449Z" fill="#fff"/>
<path d="M47.8108 15.8873V20.659H43.3507V32.1653H36.8702V20.6976H32.2576V15.9257C37.4038 15.8873 42.5884 15.8873 47.8108 15.8873Z" fill="#fff"/>
<path d="M16.0935 15.8865H0.502197V20.6968H5.11477V32.1645H11.6334V20.6583H16.0935V15.8865Z" fill="#fff"/>
</g>
</svg>
