<svg width="24" height="24" viewBox="0 0 24 24" fill="none" xmlns="http://www.w3.org/2000/svg">
<path d="M3 19C3.90267 17.6928 5.10103 16.6259 6.49389 15.8894C7.62708 15.2902 8.86219 14.924 10.1285 14.8082C10.4187 14.7817 10.7105 14.7683 11.0031 14.7683C7.8111 14.7683 5.22343 12.1339 5.22343 8.88415C5.22343 5.63443 7.8111 3 11.0031 3C13.8635 3 16.2385 5.11534 16.7012 7.89323" stroke="#3B444C" stroke-width="1.5" stroke-linecap="round" stroke-linejoin="round" vector-effect="non-scaling-stroke" />
<path d="M19.0962 14.1677L19.2118 14.0519M15.0603 16.2001C14.7517 15.4305 14.7184 14.578 14.9658 13.7866C15.2133 12.9953 15.7264 12.3136 16.4184 11.8569C17.1105 11.4002 17.939 11.1965 18.7639 11.2801C19.5888 11.3637 20.3595 11.7296 20.9458 12.3159C21.5321 12.9022 21.898 13.6729 21.9816 14.4979C22.0653 15.3228 21.8615 16.1513 21.4048 16.8433C20.9481 17.5353 20.2664 18.0484 19.4751 18.2959C18.6837 18.5434 17.8312 18.51 17.0616 18.2015L14.0013 21.2617H12V19.2604L15.0603 16.2001Z" stroke="#3B444C" stroke-width="1.5" stroke-linecap="round" stroke-linejoin="round" vector-effect="non-scaling-stroke"/>
</svg>