<!--
  - Copyright (c) 2024. Devtron Inc.
  -
  - Licensed under the Apache License, Version 2.0 (the "License");
  - you may not use this file except in compliance with the License.
  - You may obtain a copy of the License at
  -
  -     http://www.apache.org/licenses/LICENSE-2.0
  -
  - Unless required by applicable law or agreed to in writing, software
  - distributed under the License is distributed on an "AS IS" BASIS,
  - WITHOUT WARRANTIES OR CONDITIONS OF ANY KIND, either express or implied.
  - See the License for the specific language governing permissions and
  - limitations under the License.
  -->

<svg width="24" height="24" viewBox="0 0 24 24" fill="none" xmlns="http://www.w3.org/2000/svg">
<circle cx="12" cy="12" r="10" fill="var(--N700)"/>
<path d="M12.8391 5.58263C12.005 5.41671 11.1404 5.50186 10.3547 5.82732C9.56893 6.15278 8.89737 6.70392 8.42488 7.41105C7.95239 8.11818 7.7002 8.94954 7.7002 9.8C7.7002 10.3523 8.14791 10.8 8.7002 10.8C9.25248 10.8 9.7002 10.3523 9.7002 9.8C9.7002 9.34511 9.83509 8.90042 10.0878 8.52219C10.3405 8.14396 10.6998 7.84916 11.12 7.67508C11.5403 7.501 12.0027 7.45545 12.4489 7.5442C12.8951 7.63294 13.3049 7.852 13.6265 8.17366C13.9482 8.49532 14.1673 8.90514 14.256 9.35129C14.3447 9.79745 14.2992 10.2599 14.1251 10.6802C13.951 11.1004 13.6562 11.4597 13.278 11.7124C12.8998 11.9651 12.4551 12.1 12.0002 12.1C11.735 12.1 11.4806 12.2054 11.2931 12.3929C11.1056 12.5804 11.0002 12.8348 11.0002 13.1V14.5C11.0002 15.0523 11.4479 15.5 12.0002 15.5C12.5525 15.5 13.0002 15.0523 13.0002 14.5V13.9821C13.4929 13.8643 13.9635 13.6597 14.3891 13.3753C15.0963 12.9028 15.6474 12.2313 15.9729 11.4455C16.2983 10.6598 16.3835 9.79523 16.2176 8.96111C16.0517 8.12699 15.6421 7.36081 15.0408 6.75944C14.4394 6.15808 13.6732 5.74854 12.8391 5.58263Z" fill="var(--N0)"/>
<path d="M12 18.5C12.2869 18.5 12.5232 18.406 12.7089 18.2179C12.903 18.0214 13 17.7821 13 17.5C13 17.2265 12.903 16.9915 12.7089 16.7949C12.5148 16.5983 12.2785 16.5 12 16.5C11.7215 16.5 11.4852 16.5983 11.2911 16.7949C11.097 16.9915 11 17.2265 11 17.5C11 17.7821 11.0928 18.0214 11.2785 18.2179C11.4726 18.406 11.7131 18.5 12 18.5Z" fill="var(--N0)"/>
</svg>
