<svg xmlns="http://www.w3.org/2000/svg" width="24" height="24" fill="none" viewBox="0 0 24 24">
  <path fill="#3B444C" d="M.886 18.075a.75.75 0 0 0 1.227.862l-1.227-.862Zm13.5.862a.75.75 0 1 0 1.228-.863l-1.228.863Zm-2.011-8.812A4.125 4.125 0 0 1 8.25 14.25v1.5a5.625 5.625 0 0 0 5.625-5.625h-1.5ZM8.25 14.25a4.125 4.125 0 0 1-4.125-4.125h-1.5A5.625 5.625 0 0 0 8.25 15.75v-1.5Zm-4.125-4.125A4.125 4.125 0 0 1 8.25 6V4.5a5.625 5.625 0 0 0-5.625 5.625h1.5ZM8.25 6a4.125 4.125 0 0 1 4.125 4.125h1.5A5.625 5.625 0 0 0 8.25 4.5V6ZM2.113 18.937a7.501 7.501 0 0 1 2.68-2.343l-.692-1.33a9.002 9.002 0 0 0-3.215 2.81l1.227.863Zm2.68-2.343a7.503 7.503 0 0 1 3.457-.844v-1.5a9.004 9.004 0 0 0-4.15 1.013l.692 1.331Zm3.457-.844c1.204 0 2.39.29 3.457.844l.691-1.331A9 9 0 0 0 8.25 14.25v1.5Zm3.457.844a7.502 7.502 0 0 1 2.68 2.343l1.227-.863a9.003 9.003 0 0 0-3.216-2.811l-.69 1.331Z"/>
  <path stroke="#3B444C" stroke-linecap="round" stroke-linejoin="round" stroke-width="1.5" d="M14.57 5.432A4.876 4.876 0 1 1 15.893 15a8.241 8.241 0 0 1 6.75 3.506" vector-effect="non-scaling-stroke"/>
</svg>
