<svg xmlns="http://www.w3.org/2000/svg" width="24" height="24" fill="none" viewBox="0 0 24 24">
  <path fill="#E95420" d="M22 12c0 5.52-4.475 10-10 10S2 17.52 2 12C2 6.475 6.475 2 12 2s10 4.475 10 10Z"/>
  <path fill="#fff" d="M5.444 10.683a1.31 1.31 0 0 0-1.301 1.32c0 .726.585 1.32 1.301 1.32s1.301-.594 1.301-1.32a1.31 1.31 0 0 0-1.301-1.32Zm9.293 5.995a1.333 1.333 0 0 0-.478 1.803 1.29 1.29 0 0 0 1.779.485 1.334 1.334 0 0 0 .477-1.804 1.301 1.301 0 0 0-1.778-.484ZM8.27 12.003c0-1.305.639-2.456 1.618-3.153l-.95-1.616a5.755 5.755 0 0 0-2.34 3.33 1.87 1.87 0 0 1 0 2.877 5.734 5.734 0 0 0 2.34 3.33l.95-1.615a3.858 3.858 0 0 1-1.618-3.153Zm3.801-3.855c1.989 0 3.616 1.542 3.787 3.514l1.856-.03a5.74 5.74 0 0 0-1.68-3.716 1.813 1.813 0 0 1-1.56-.129 1.851 1.851 0 0 1-.892-1.309 5.662 5.662 0 0 0-1.51-.208c-.902 0-1.75.213-2.505.593l.906 1.641a3.753 3.753 0 0 1 1.598-.356Zm0 7.71c-.57 0-1.116-.13-1.603-.357l-.906 1.641c.755.38 1.608.593 2.504.593.522 0 1.029-.074 1.511-.207a1.847 1.847 0 0 1 .892-1.31 1.797 1.797 0 0 1 1.56-.128 5.763 5.763 0 0 0 1.68-3.717l-1.856-.03c-.166 1.967-1.793 3.514-3.782 3.514Zm2.661-8.535a1.29 1.29 0 0 0 1.779-.484 1.329 1.329 0 0 0-.478-1.804 1.29 1.29 0 0 0-1.779.484 1.338 1.338 0 0 0 .478 1.804Z"/>
</svg>
