<svg xmlns="http://www.w3.org/2000/svg" width="24" height="24" fill="none" viewBox="0 0 24 24">
  <path fill="#3B444C" d="M11.003 14.768v.75-.75Zm-8.62 3.806a.75.75 0 0 0 1.234.852l-1.234-.852ZM15.96 8.016a.75.75 0 0 0 1.48-.246l-1.48.246Zm-4.683 7.507a.75.75 0 1 0 .046-1.5l-.046 1.5Zm-.275-1.505c-2.765 0-5.03-2.286-5.03-5.134h-1.5c0 3.651 2.911 6.634 6.53 6.634v-1.5Zm-5.03-5.134c0-2.848 2.265-5.134 5.03-5.134v-1.5c-3.619 0-6.53 2.983-6.53 6.634h1.5ZM3.617 19.426a9.09 9.09 0 0 1 3.227-2.874l-.7-1.326a10.59 10.59 0 0 0-3.761 3.348l1.234.852Zm3.227-2.874a8.896 8.896 0 0 1 4.16-1.034v-1.5c-1.693 0-3.36.415-4.86 1.208l.7 1.326Zm4.16-12.802c2.477 0 4.552 1.835 4.957 4.266l1.48-.246c-.52-3.124-3.195-5.52-6.438-5.52v1.5Zm0 11.768c.09 0 .183.002.274.005l.046-1.5a10.424 10.424 0 0 0-.32-.005v1.5Z"/>
  <path stroke="#3B444C" stroke-linecap="round" stroke-linejoin="round" stroke-width="1.5" d="m19.096 14.168-.047-.047M15.06 16.2a3.6 3.6 0 1 1 2.002 2l-3.06 3.06H12v-2l3.06-3.06Z" vector-effect="non-scaling-stroke"/>
</svg>
