<!--
  - Copyright (c) 2024. Devtron Inc.
  -
  - Licensed under the Apache License, Version 2.0 (the "License");
  - you may not use this file except in compliance with the License.
  - You may obtain a copy of the License at
  -
  -     http://www.apache.org/licenses/LICENSE-2.0
  -
  - Unless required by applicable law or agreed to in writing, software
  - distributed under the License is distributed on an "AS IS" BASIS,
  - WITHOUT WARRANTIES OR CONDITIONS OF ANY KIND, either express or implied.
  - See the License for the specific language governing permissions and
  - limitations under the License.
  -->

<svg xmlns="http://www.w3.org/2000/svg" width="24" height="24" fill="none" viewBox="0 0 24 24">
  <path stroke="#3B444C" stroke-linecap="round" stroke-linejoin="round" stroke-width="1.5" d="m4.585 4 14.546 16M9.96 5.588a13.487 13.487 0 0 1 1.896-.133 13.264 13.264 0 0 1 9.357 3.834M2.5 9.29a13.263 13.263 0 0 1 4.306-2.847m7.244 3.645a8.898 8.898 0 0 1 4.081 2.288m-12.548 0A8.9 8.9 0 0 1 10.041 10m-1.372 5.46a4.619 4.619 0 0 1 6.143-.212M12.52 18.61h-1.324m1.324 0a.66.66 0 0 0-.16-.432m.16.432a.66.66 0 0 1-.19.463m-.472.199v-1.324m0 1.324a.66.66 0 0 1-.473-.2m.473.2a.66.66 0 0 0 .473-.2m-1.135-.462c0 .18.072.343.189.463m-.19-.463a.66.66 0 0 1 .16-.432m.503-.23c.2 0 .38.09.502.23m-.502-.23c-.2 0-.38.09-.502.23m.029.895.975-.895m-1.004 0 .975.895" vector-effect="non-scaling-stroke"/>
</svg>
