<svg xmlns="http://www.w3.org/2000/svg" width="20" height="19" viewBox="0 0 20 19" fill="none">
<path fill-rule="evenodd" clip-rule="evenodd" d="M9.99982 2.72754C11.004 2.72754 11.818 3.54157 11.818 4.54572C11.818 4.86673 11.7348 5.16832 11.5888 5.43008L13.9389 9.35118L13.9979 9.32976C14.3845 9.19908 14.7897 9.12052 15.2044 9.09796L15.4544 9.09118C17.9648 9.09118 19.9998 11.1262 19.9998 13.6366C19.9998 16.147 17.9648 18.1821 15.4544 18.1821C14.2931 18.1821 13.198 17.7436 12.3636 16.9696C11.9956 16.6281 11.974 16.0529 12.3154 15.6849C12.6569 15.3168 13.2321 15.2952 13.6002 15.6366C14.1015 16.1018 14.7563 16.3639 15.4544 16.3639C16.9606 16.3639 18.1816 15.1429 18.1816 13.6366C18.1816 12.1304 16.9606 10.9094 15.4544 10.9094C14.951 10.9094 14.4697 11.0451 14.0491 11.2986C13.6491 11.5397 13.1379 11.4367 12.8599 11.0753L12.8 10.9873L10.0289 6.36299L9.99982 6.3639C9.04131 6.3639 8.25604 5.6222 8.18663 4.68141L8.18164 4.54572C8.18164 3.54157 8.99567 2.72754 9.99982 2.72754Z" fill="#3B444C" vector-effect="non-scaling-stroke"/>
<path d="M9.99978 0C12.5102 0 14.5452 2.03507 14.5452 4.54545C14.5452 5.04753 14.1382 5.45455 13.6361 5.45455C13.1699 5.45455 12.7857 5.1036 12.7332 4.65147L12.7271 4.54545C12.7271 3.03922 11.506 1.81818 9.99978 1.81818C8.49355 1.81818 7.27251 3.03922 7.27251 4.54545C7.27251 5.57496 7.8474 6.50164 8.74519 6.96788C9.22064 7.21479 9.38057 7.81723 9.09016 8.26744L6.16329 12.8063C6.29121 13.0551 6.36341 13.3373 6.36341 13.6364C6.36341 14.6405 5.54939 15.4545 4.54523 15.4545C3.54108 15.4545 2.72705 14.6405 2.72705 13.6364C2.72705 12.6322 3.54108 11.8182 4.54523 11.8182C4.57495 11.8182 4.60449 11.8189 4.63386 11.8203L7.07978 8.02818L7.04686 8.00171C6.1073 7.19885 5.51865 6.03361 5.45929 4.75888L5.45432 4.54545C5.45432 2.03507 7.48939 0 9.99978 0Z" fill="#EB456D" vector-effect="non-scaling-stroke" />
<path fill-rule="evenodd" clip-rule="evenodd" d="M4.16187 9.90642C4.33284 10.3785 4.08874 10.8998 3.61667 11.0707C2.54614 11.4584 1.81818 12.4784 1.81818 13.636C1.81818 15.1423 3.03922 16.3633 4.54545 16.3633C5.99789 16.3633 7.18515 15.2279 7.2681 13.7963L7.27273 13.636C7.27273 13.1698 7.62367 12.7856 8.0758 12.7331L8.18182 12.727L13.8798 12.7267C14.1942 12.1834 14.7817 11.8179 15.4545 11.8179C16.4587 11.8179 17.2727 12.6319 17.2727 13.636C17.2727 14.6402 16.4587 15.4542 15.4545 15.4542C14.7817 15.4542 14.1942 15.0887 13.8798 14.5454L8.99818 14.5442L8.98876 14.5987C8.56052 16.5847 6.83466 18.088 4.74263 18.1773L4.54545 18.1815C2.03507 18.1815 0 16.1464 0 13.636C0 11.7069 1.21288 10.0075 2.99755 9.36122C3.46962 9.19025 3.99091 9.43435 4.16187 9.90642Z" fill="#3B444C" vector-effect="non-scaling-stroke" />
</svg>